<svg id="Layer_1" data-name="Layer 1" xmlns="http://www.w3.org/2000/svg" viewBox="0 0 400 400"><defs><style>.cls-1{fill:#09c6f9;}</style></defs><path class="cls-1" d="M290.83,30.8a92.35,92.35,0,0,1,39.67,8.69,94,94,0,0,1,29.93,22.36C376.44,79.57,386,103,386,124.55c0,22.18-6.11,45.58-18.15,69.54-10.76,21.39-26.54,43.81-46.9,66.63-37.16,41.65-83.41,78.18-120.95,106-37.54-27.86-83.8-64.39-120.95-106-20.36-22.83-36.14-45.25-46.9-66.64-12-24-18.15-47.35-18.15-69.54,0-21.54,9.56-45,25.57-62.71A94.16,94.16,0,0,1,69.5,39.49a92.35,92.35,0,0,1,39.67-8.69c14.53,0,29.1,5.28,44.57,16.14,12.26,8.61,24.89,20.68,38.63,36.91a10,10,0,0,0,15.27,0c13.73-16.23,26.37-28.3,38.62-36.91,15.47-10.86,30.05-16.14,44.57-16.14m0-10c-36.4,0-67.5,29-90.83,56.59C176.67,49.82,145.57,20.8,109.17,20.8h0C44,20.8,4,77.8,4,124.55,4,225.64,118.9,319.47,200,379.2c81.1-59.73,196-153.57,196-254.65C396,77.8,356,20.8,290.83,20.8Z"/></svg>