<svg width="595" height="842" viewBox="0 0 595 842" fill="none" xmlns="http://www.w3.org/2000/svg">
<path d="M0 842L-3.6805e-05 0L595 -2.60083e-05L595 842L0 842Z" fill="url(#paint0_radial_31_2)" fill-opacity="0.75"/>
<circle cx="531.547" cy="89.5471" r="59.5471" fill="url(#paint1_linear_31_2)"/>
<circle cx="366.454" cy="39.4541" r="30.4541" fill="url(#paint2_linear_31_2)"/>
<circle cx="150.5" cy="801.5" r="30.5" fill="url(#paint3_linear_31_2)"/>
<path d="M142.534 782H154.421V786.67C154.71 791.058 155.61 792.826 160.79 792.614H165.46V812.144C165.691 818.834 163.709 820.146 158.242 820.21H143.383C138.463 820.283 136.827 818.953 137.014 812.781V787.095C137.142 783.871 137.592 782.297 142.534 782Z" fill="white" fill-opacity="0.81"/>
<path d="M164.186 790.916L156.12 783.274V786.67C155.906 790.714 158.804 790.841 164.186 790.916Z" fill="white" fill-opacity="0.5"/>
<rect x="137" y="801.109" width="26.3094" height="11.4931" fill="white" fill-opacity="0.09"/>
<rect x="137" y="801.109" width="26.3094" height="11.4931" fill="#EBEBEB"/>
<path d="M144.593 810.362C144.193 810.362 143.797 810.292 143.403 810.152C143.01 810.012 142.727 809.855 142.553 809.682L143.083 808.732C143.223 808.858 143.44 808.992 143.733 809.132C144.033 809.265 144.32 809.332 144.593 809.332C144.947 809.332 145.233 809.248 145.453 809.082C145.68 808.915 145.793 808.685 145.793 808.392C145.793 808.165 145.733 807.968 145.613 807.802C145.493 807.635 145.347 807.498 145.173 807.392C145 807.278 144.753 807.142 144.433 806.982C144.053 806.795 143.793 806.655 143.653 806.562C143.007 806.128 142.683 805.528 142.683 804.762C142.683 804.128 142.893 803.645 143.313 803.312C143.733 802.972 144.263 802.802 144.903 802.802C145.59 802.802 146.173 802.998 146.653 803.392L146.123 804.302C145.997 804.168 145.817 804.055 145.583 803.962C145.357 803.862 145.113 803.812 144.853 803.812C144.52 803.812 144.257 803.888 144.063 804.042C143.877 804.188 143.783 804.408 143.783 804.702C143.783 804.908 143.843 805.095 143.963 805.262C144.083 805.422 144.233 805.562 144.413 805.682C144.6 805.802 144.85 805.948 145.163 806.122C145.463 806.288 145.693 806.422 145.853 806.522C146.013 806.615 146.163 806.728 146.303 806.862C146.497 807.035 146.653 807.242 146.773 807.482C146.893 807.722 146.953 807.985 146.953 808.272C146.953 808.718 146.85 809.098 146.643 809.412C146.443 809.725 146.163 809.962 145.803 810.122C145.45 810.282 145.047 810.362 144.593 810.362ZM147.847 802.912H148.967V805.912H151.557V802.912H152.677V810.262H151.557V806.852H148.967V810.262H147.847V802.912ZM153.924 802.912H155.544C156.458 802.912 157.124 803.108 157.544 803.502C157.971 803.888 158.184 804.422 158.184 805.102C158.184 805.888 157.954 806.492 157.494 806.912C157.034 807.332 156.351 807.542 155.444 807.542H155.054V810.262H153.924V802.912ZM155.474 806.552C156.061 806.552 156.471 806.422 156.704 806.162C156.938 805.902 157.054 805.588 157.054 805.222C157.054 804.828 156.941 804.508 156.714 804.262C156.488 804.015 156.108 803.892 155.574 803.892H155.054V806.552H155.474Z" fill="#B5B5B5"/>
<circle cx="535.5" cy="779.5" r="38.5" fill="url(#paint4_linear_31_2)"/>
<path d="M526.825 760.555H538.386V765.097C538.667 769.364 539.543 771.084 544.58 770.877H549.122V789.871C549.347 796.378 547.42 797.653 542.102 797.716H527.651C522.866 797.786 521.275 796.494 521.457 790.49V765.51C521.581 762.375 522.019 760.843 526.825 760.555Z" fill="white" fill-opacity="0.81"/>
<path d="M547.883 769.225L540.038 761.793V765.096C539.831 769.029 542.649 769.153 547.883 769.225Z" fill="white" fill-opacity="0.5"/>
<rect x="521.443" y="779.139" width="25.5872" height="11.1776" fill="white" fill-opacity="0.09"/>
<rect x="521.443" y="779.139" width="25.5872" height="11.1776" fill="#EBEBEB"/>
<path d="M529.123 789.282C528.287 789.282 527.561 789.095 526.945 788.721C526.336 788.347 525.87 787.848 525.548 787.225C525.225 786.594 525.064 785.901 525.064 785.146C525.064 784.347 525.236 783.632 525.581 783.001C525.933 782.37 526.424 781.879 527.055 781.527C527.685 781.168 528.4 780.988 529.2 780.988C529.559 780.988 529.893 781.028 530.201 781.109C530.516 781.182 530.776 781.27 530.982 781.373C531.187 781.468 531.323 781.549 531.389 781.615L530.85 782.715C530.402 782.319 529.819 782.121 529.101 782.121C528.595 782.121 528.136 782.246 527.726 782.495C527.315 782.744 526.992 783.1 526.758 783.562C526.523 784.024 526.406 784.559 526.406 785.168C526.406 785.725 526.508 786.231 526.714 786.686C526.926 787.141 527.234 787.5 527.638 787.764C528.041 788.028 528.521 788.16 529.079 788.16C529.724 788.16 530.347 787.977 530.949 787.61L531.312 788.655C531.15 788.802 530.853 788.945 530.421 789.084C529.995 789.216 529.563 789.282 529.123 789.282ZM534.121 789.315C533.681 789.315 533.245 789.238 532.812 789.084C532.38 788.93 532.068 788.758 531.877 788.567L532.46 787.522C532.614 787.661 532.853 787.808 533.175 787.962C533.505 788.109 533.821 788.182 534.121 788.182C534.51 788.182 534.825 788.09 535.067 787.907C535.317 787.724 535.441 787.471 535.441 787.148C535.441 786.899 535.375 786.682 535.243 786.499C535.111 786.316 534.95 786.165 534.759 786.048C534.569 785.923 534.297 785.773 533.945 785.597C533.527 785.392 533.241 785.238 533.087 785.135C532.376 784.658 532.02 783.998 532.02 783.155C532.02 782.458 532.251 781.927 532.713 781.56C533.175 781.186 533.758 780.999 534.462 780.999C535.218 780.999 535.859 781.215 536.387 781.648L535.804 782.649C535.665 782.502 535.467 782.378 535.21 782.275C534.961 782.165 534.693 782.11 534.407 782.11C534.041 782.11 533.751 782.194 533.538 782.363C533.333 782.524 533.23 782.766 533.23 783.089C533.23 783.316 533.296 783.522 533.428 783.705C533.56 783.881 533.725 784.035 533.923 784.167C534.129 784.299 534.404 784.46 534.748 784.651C535.078 784.834 535.331 784.981 535.507 785.091C535.683 785.194 535.848 785.318 536.002 785.465C536.215 785.656 536.387 785.883 536.519 786.147C536.651 786.411 536.717 786.701 536.717 787.016C536.717 787.507 536.604 787.925 536.376 788.27C536.156 788.615 535.848 788.875 535.452 789.051C535.064 789.227 534.62 789.315 534.121 789.315ZM536.678 781.12H538.075L540.495 786.675L542.926 781.12H544.312L540.583 789.205H540.418L536.678 781.12Z" fill="#B5B5B5"/>
<circle cx="365.152" cy="784.152" r="36.152" fill="url(#paint5_linear_31_2)"/>
<circle cx="318" cy="799" r="14" fill="url(#paint6_linear_31_2)"/>
<circle cx="181.5" cy="92.5" r="38.5" fill="url(#paint7_linear_31_2)"/>
<path d="M172.825 73.5547H184.386V78.0966C184.667 82.3641 185.543 84.0837 190.58 83.8773H195.122V102.871C195.347 109.378 193.42 110.653 188.102 110.716H173.651C168.866 110.786 167.275 109.494 167.457 103.49V78.5095C167.581 75.3747 168.019 73.8432 172.825 73.5547Z" fill="white" fill-opacity="0.81"/>
<path d="M193.883 82.2252L186.038 74.793V78.0962C185.831 82.0294 188.649 82.1525 193.883 82.2252Z" fill="white" fill-opacity="0.5"/>
<rect x="167.443" y="92.1387" width="25.5872" height="11.1776" fill="white" fill-opacity="0.09"/>
<rect x="167.443" y="92.1387" width="25.5872" height="11.1776" fill="#EBEBEB"/>
<path d="M175.123 102.282C174.287 102.282 173.561 102.095 172.945 101.721C172.336 101.347 171.87 100.848 171.548 100.225C171.225 99.5944 171.064 98.9014 171.064 98.1461C171.064 97.3467 171.236 96.6317 171.581 96.0011C171.933 95.3704 172.424 94.8791 173.055 94.5271C173.685 94.1677 174.4 93.9881 175.2 93.9881C175.559 93.9881 175.893 94.0284 176.201 94.1091C176.516 94.1824 176.776 94.2704 176.982 94.3731C177.187 94.4684 177.323 94.5491 177.389 94.6151L176.85 95.7151C176.402 95.3191 175.819 95.1211 175.101 95.1211C174.595 95.1211 174.136 95.2457 173.726 95.4951C173.315 95.7444 172.992 96.1001 172.758 96.5621C172.523 97.0241 172.406 97.5594 172.406 98.1681C172.406 98.7254 172.508 99.2314 172.714 99.6861C172.926 100.141 173.234 100.5 173.638 100.764C174.041 101.028 174.521 101.16 175.079 101.16C175.724 101.16 176.347 100.977 176.949 100.61L177.312 101.655C177.15 101.802 176.853 101.945 176.421 102.084C175.995 102.216 175.563 102.282 175.123 102.282ZM180.121 102.315C179.681 102.315 179.245 102.238 178.812 102.084C178.38 101.93 178.068 101.758 177.877 101.567L178.46 100.522C178.614 100.661 178.853 100.808 179.175 100.962C179.505 101.109 179.821 101.182 180.121 101.182C180.51 101.182 180.825 101.09 181.067 100.907C181.317 100.724 181.441 100.471 181.441 100.148C181.441 99.8987 181.375 99.6824 181.243 99.4991C181.111 99.3157 180.95 99.1654 180.759 99.0481C180.569 98.9234 180.297 98.7731 179.945 98.5971C179.527 98.3917 179.241 98.2377 179.087 98.1351C178.376 97.6584 178.02 96.9984 178.02 96.1551C178.02 95.4584 178.251 94.9267 178.713 94.5601C179.175 94.1861 179.758 93.9991 180.462 93.9991C181.218 93.9991 181.859 94.2154 182.387 94.6481L181.804 95.6491C181.665 95.5024 181.467 95.3777 181.21 95.2751C180.961 95.1651 180.693 95.1101 180.407 95.1101C180.041 95.1101 179.751 95.1944 179.538 95.3631C179.333 95.5244 179.23 95.7664 179.23 96.0891C179.23 96.3164 179.296 96.5217 179.428 96.7051C179.56 96.8811 179.725 97.0351 179.923 97.1671C180.129 97.2991 180.404 97.4604 180.748 97.6511C181.078 97.8344 181.331 97.9811 181.507 98.0911C181.683 98.1937 181.848 98.3184 182.002 98.4651C182.215 98.6557 182.387 98.8831 182.519 99.1471C182.651 99.4111 182.717 99.7007 182.717 100.016C182.717 100.507 182.604 100.925 182.376 101.27C182.156 101.615 181.848 101.875 181.452 102.051C181.064 102.227 180.62 102.315 180.121 102.315ZM182.678 94.1201H184.075L186.495 99.6751L188.926 94.1201H190.312L186.583 102.205H186.418L182.678 94.1201Z" fill="#B5B5B5"/>
<circle cx="128" cy="462" r="18" fill="url(#paint8_linear_31_2)"/>
<circle cx="557.948" cy="220.949" r="25.9478" transform="rotate(-90 557.948 220.949)" fill="url(#paint9_linear_31_2)"/>
<circle cx="151" cy="315.895" r="42" fill="url(#paint10_linear_31_2)"/>
<circle cx="209.172" cy="269.172" r="16.9629" transform="rotate(-60 209.172 269.172)" fill="url(#paint11_linear_31_2)"/>
<defs>
<radialGradient id="paint0_radial_31_2" cx="0" cy="0" r="1" gradientUnits="userSpaceOnUse" gradientTransform="translate(-216.69 -376.562) rotate(38.6461) scale(1399.31 14536.2)">
<stop stop-color="white"/>
<stop offset="0.276976" stop-color="#CEFFFE" stop-opacity="0.37"/>
<stop offset="0.840278" stop-color="#CEB0D0" stop-opacity="0.27"/>
</radialGradient>
<linearGradient id="paint1_linear_31_2" x1="548.274" y1="36.0216" x2="570.353" y2="181.21" gradientUnits="userSpaceOnUse">
<stop stop-color="white"/>
<stop offset="1" stop-color="#81F7FE" stop-opacity="0"/>
</linearGradient>
<linearGradient id="paint2_linear_31_2" x1="375.009" y1="12.0796" x2="386.301" y2="86.3329" gradientUnits="userSpaceOnUse">
<stop stop-color="white"/>
<stop offset="1" stop-color="#81F7FE" stop-opacity="0"/>
</linearGradient>
<linearGradient id="paint3_linear_31_2" x1="159.067" y1="774.084" x2="170.376" y2="848.449" gradientUnits="userSpaceOnUse">
<stop stop-color="white"/>
<stop offset="1" stop-color="#FEB8FF" stop-opacity="0"/>
</linearGradient>
<linearGradient id="paint4_linear_31_2" x1="546.315" y1="744.893" x2="560.59" y2="838.764" gradientUnits="userSpaceOnUse">
<stop stop-color="white"/>
<stop offset="1" stop-color="#FEB8FF" stop-opacity="0"/>
</linearGradient>
<linearGradient id="paint5_linear_31_2" x1="375.307" y1="751.656" x2="388.712" y2="839.802" gradientUnits="userSpaceOnUse">
<stop stop-color="white"/>
<stop offset="1" stop-color="#81F7FE" stop-opacity="0"/>
</linearGradient>
<linearGradient id="paint6_linear_31_2" x1="321.933" y1="786.416" x2="327.124" y2="820.551" gradientUnits="userSpaceOnUse">
<stop stop-color="white"/>
<stop offset="1" stop-color="#FEB8FF" stop-opacity="0"/>
</linearGradient>
<linearGradient id="paint7_linear_31_2" x1="192.315" y1="57.8933" x2="206.59" y2="151.764" gradientUnits="userSpaceOnUse">
<stop stop-color="white"/>
<stop offset="1" stop-color="#FEB8FF" stop-opacity="0"/>
</linearGradient>
<linearGradient id="paint8_linear_31_2" x1="133.056" y1="445.82" x2="139.73" y2="489.708" gradientUnits="userSpaceOnUse">
<stop stop-color="white"/>
<stop offset="1" stop-color="#81F7FE" stop-opacity="0"/>
</linearGradient>
<linearGradient id="paint9_linear_31_2" x1="565.237" y1="197.625" x2="574.858" y2="260.891" gradientUnits="userSpaceOnUse">
<stop stop-color="white"/>
<stop offset="1" stop-color="#FEB8FF" stop-opacity="0"/>
</linearGradient>
<linearGradient id="paint10_linear_31_2" x1="162.798" y1="278.142" x2="178.371" y2="380.546" gradientUnits="userSpaceOnUse">
<stop stop-color="white"/>
<stop offset="1" stop-color="#FEB8FF" stop-opacity="0"/>
</linearGradient>
<linearGradient id="paint11_linear_31_2" x1="213.937" y1="253.924" x2="220.226" y2="295.283" gradientUnits="userSpaceOnUse">
<stop stop-color="white"/>
<stop offset="1" stop-color="#81F7FE" stop-opacity="0"/>
</linearGradient>
</defs>
</svg>
