<svg width="16" height="21" viewBox="0 0 16 21" fill="none" xmlns="http://www.w3.org/2000/svg">
<path d="M3.04095 0H9.57382V2.56648C9.7327 4.97786 10.2272 5.94957 13.0736 5.83291H15.64V16.5655C15.7674 20.2423 14.6782 20.9631 11.6737 20.9985H3.50759C0.804096 21.0382 -0.0952053 20.3078 0.00783934 16.9155V2.7998C0.0779858 1.02845 0.3251 0.163009 3.04095 0Z" fill="#6E498E"/>
<rect x="2.80469" y="9.81641" width="6.9995" height="0.782497" rx="0.391249" fill="white"/>
<rect x="2.80469" y="7.01562" width="2.7998" height="0.782497" rx="0.391249" fill="white"/>
<rect x="6.07031" y="7.01562" width="6.53286" height="0.782497" rx="0.391249" fill="white"/>
<rect x="10.2715" y="9.8125" width="2.33317" height="0.782497" rx="0.391249" fill="white"/>
<rect x="5.60547" y="12.6172" width="6.9995" height="0.782497" rx="0.391249" fill="white"/>
<rect x="2.80469" y="15.4141" width="7.46613" height="0.782497" rx="0.391249" fill="white"/>
<rect x="6.07031" y="17.75" width="6.53286" height="0.782497" rx="0.391249" fill="white"/>
<rect x="10.7363" y="15.4141" width="1.86653" height="0.782497" rx="0.391249" fill="white"/>
<rect x="2.80469" y="17.75" width="2.33317" height="0.782497" rx="0.391249" fill="white"/>
<rect x="2.80469" y="12.6172" width="2.33317" height="0.782497" rx="0.391249" fill="white"/>
<path d="M14.9391 4.90282L10.506 0.703125V2.56966C10.3888 4.79214 11.9813 4.86174 14.9391 4.90282Z" fill="#6E498E"/>
</svg>
