<svg width="191" height="135" viewBox="0 0 191 135" fill="none" xmlns="http://www.w3.org/2000/svg">
<path d="M145.873 119.033C145.873 119.014 123.486 119 95.8761 119C68.2661 119 45.873 119.02 45.873 119.033C45.873 119.046 68.2555 119.066 95.8761 119.066C123.497 119.066 145.873 119.057 145.873 119.033Z" fill="#263238"/>
<path d="M68.3089 40.4062C68.3606 40.4062 68.405 42.6441 68.405 45.4062C68.405 48.1684 68.3606 50.4062 68.3089 50.4062C68.2572 50.4062 68.2129 48.1684 68.2129 45.4062C68.2129 42.6441 68.2535 40.4062 68.3089 40.4062Z" fill="#263238"/>
<path d="M93.4515 40.4062C93.5032 40.4062 93.5476 42.6441 93.5476 45.4062C93.5476 48.1684 93.5032 50.4062 93.4515 50.4062C93.3998 50.4062 93.3555 48.1684 93.3555 45.4062C93.3555 42.6441 93.3998 40.4062 93.4515 40.4062Z" fill="#263238"/>
<path d="M117.972 32C117.972 32 117.972 32.108 117.972 32.324C117.972 32.54 117.972 32.8604 117.972 33.278C117.972 34.124 117.972 35.3696 117.984 36.9824C117.984 40.2224 117.984 44.9276 118 50.8424V50.918H117.96L80.1031 50.9504L41.04 50.918H41V50.8604C41 45.5 41.0141 41.2556 41.0188 38.3468C41.0188 36.9068 41.0188 35.78 41.0188 35.024C41.0188 34.664 41.0188 34.3616 41.0188 34.1672C41.0188 33.9728 41.0188 33.8792 41.0188 33.8792C41.0188 33.8792 41.0188 33.9764 41.0188 34.1672C41.0188 34.358 41.0188 34.6496 41.0188 35.024C41.0188 35.78 41.0188 36.896 41.0188 38.3468C41.0188 41.2556 41.0188 45.5 41.0376 50.8604L41 50.8028L80.0749 50.7668L117.932 50.7992L117.892 50.8604C117.892 44.942 117.906 40.2332 117.911 37.0004C117.911 35.3876 117.911 34.142 117.911 33.296C117.911 32.8784 117.911 32.576 117.911 32.342C117.911 32.108 117.972 32 117.972 32Z" fill="#263238"/>
<path d="M86.5042 64.3845C86.4488 64.3845 86.4082 61.3461 86.4082 57.5985C86.4082 53.8509 86.4488 50.8125 86.5042 50.8125C86.5596 50.8125 86.6003 53.8509 86.6003 57.5985C86.6003 61.3461 86.5559 64.3845 86.5042 64.3845Z" fill="#263238"/>
<path d="M99.1931 37.3435H87.6767C87.2947 37.3435 86.9283 37.1956 86.6582 36.9323C86.3881 36.669 86.2363 36.3119 86.2363 35.9396V20.4039C86.2363 20.0315 86.3881 19.6745 86.6582 19.4112C86.9283 19.1479 87.2947 19 87.6767 19H94.9816L100.634 24.6882V35.9487C100.631 36.3195 100.478 36.6742 100.208 36.9355C99.9385 37.1968 99.5735 37.3435 99.1931 37.3435Z" fill="#6DCDCB"/>
<g opacity="0.2">
<path d="M86.5258 31.7812H100.344C100.421 31.7813 100.494 31.811 100.549 31.8639C100.603 31.9168 100.634 31.9886 100.634 32.0634V35.8722C100.634 36.2633 100.474 36.6383 100.19 36.9148C99.9067 37.1913 99.5219 37.3466 99.1207 37.3466H87.7491C87.3479 37.3466 86.9631 37.1913 86.6794 36.9148C86.3957 36.6383 86.2363 36.2633 86.2363 35.8722V32.0634C86.2363 31.9886 86.2668 31.9168 86.3211 31.8639C86.3754 31.811 86.449 31.7812 86.5258 31.7812Z" fill="black"/>
</g>
<g opacity="0.2">
<path d="M94.9824 19V23.3731C94.9837 23.7187 95.1254 24.0497 95.3766 24.2937C95.6277 24.5376 95.9679 24.6746 96.3225 24.6746H100.634L94.9824 19Z" fill="white"/>
</g>
<g opacity="0.2">
<path d="M95.0394 23.7656C95.0394 23.7656 94.9834 24.8259 96.2207 25.174C96.2674 25.1877 96.3165 25.1968 96.3631 25.2059C96.9258 25.3037 100.633 25.9476 100.633 25.8635V24.6757H96.3211C96.3211 24.6757 95.2426 24.6439 95.0394 23.7656Z" fill="black"/>
</g>
<path d="M90.3589 34.2025C90.3737 33.9674 90.4589 33.7418 90.6041 33.5536C90.7493 33.3654 90.948 33.2229 91.1756 33.1439C91.4032 33.0649 91.6496 33.0528 91.8842 33.1091C92.1188 33.1654 92.3312 33.2877 92.4951 33.4607L92.1519 33.7588C92.0837 33.6779 91.9977 33.6131 91.9003 33.569C91.8029 33.5249 91.6966 33.5026 91.5893 33.504C91.3992 33.504 91.2169 33.5775 91.0825 33.7085C90.9481 33.8395 90.8725 34.0172 90.8725 34.2025C90.8725 34.3877 90.9481 34.5654 91.0825 34.6964C91.2169 34.8274 91.3992 34.901 91.5893 34.901C91.697 34.9019 91.8036 34.8791 91.9011 34.8342C91.9985 34.7892 92.0843 34.7234 92.1519 34.6416L92.4857 34.9397C92.3226 35.1136 92.1106 35.2368 91.876 35.2939C91.6415 35.351 91.3949 35.3395 91.167 35.2609C90.9392 35.1823 90.7401 35.0399 90.5947 34.8517C90.4494 34.6635 90.3641 34.4376 90.3496 34.2025H90.3589Z" fill="#FAFAFA"/>
<path d="M92.6465 35.0791L92.8239 34.6969C93.0406 34.8435 93.2978 34.9228 93.5616 34.9244C93.8698 34.9244 93.9935 34.8266 93.9935 34.6969C93.9935 34.2873 92.6908 34.5694 92.6908 33.7572C92.6908 33.3863 92.999 33.0746 93.6363 33.0746C93.9087 33.0687 94.1775 33.1356 94.4137 33.268L94.2527 33.6502C94.0644 33.5416 93.8504 33.4828 93.6317 33.4796C93.3258 33.4796 93.2068 33.5911 93.2068 33.7276C93.2068 34.1303 94.5095 33.8527 94.5095 34.6536C94.5095 35.0199 94.199 35.3362 93.5593 35.3362C93.2355 35.3416 92.9174 35.2521 92.6465 35.0791Z" fill="#FAFAFA"/>
<path d="M94.6875 35.0792L94.8626 34.6969C95.0804 34.8433 95.3382 34.9225 95.6026 34.9245C95.9085 34.9245 96.0345 34.8266 96.0345 34.6969C96.0345 34.2874 94.7319 34.5695 94.7319 33.7572C94.7319 33.3864 95.04 33.0746 95.6657 33.0746C95.9381 33.0682 96.2071 33.1352 96.4431 33.268L96.2843 33.6503C96.0961 33.5417 95.8821 33.4829 95.6633 33.4796C95.3552 33.4796 95.2385 33.5911 95.2385 33.7277C95.2385 34.1304 96.5388 33.8528 96.5388 34.6537C96.5388 35.02 96.2306 35.3363 95.591 35.3363C95.2703 35.3403 94.9556 35.2508 94.6875 35.0792Z" fill="#FAFAFA"/>
<path d="M91.09 27.1378C91.3234 27.2084 91.4355 27.3653 91.4355 27.6998V28.503C91.4288 28.5527 91.4338 28.6031 91.4501 28.6506C91.4663 28.6981 91.4935 28.7414 91.5295 28.7771C91.5655 28.8129 91.6094 28.8402 91.6578 28.8569C91.7062 28.8737 91.7579 28.8795 91.809 28.8739H91.9024V29.4859H91.6036C90.9616 29.4859 90.6324 29.1651 90.6324 28.5758V27.6657C90.6361 27.6349 90.6327 27.6037 90.6223 27.5745C90.6119 27.5452 90.5948 27.5186 90.5723 27.4967C90.5498 27.4748 90.5226 27.4581 90.4925 27.448C90.4625 27.4379 90.4305 27.4345 90.3989 27.4382H90.2285V26.8329H90.3989C90.4304 26.8361 90.4622 26.8325 90.492 26.8222C90.5219 26.8119 90.549 26.7952 90.5713 26.7734C90.5937 26.7516 90.6108 26.7252 90.6214 26.6961C90.6319 26.6671 90.6357 26.6361 90.6324 26.6054V25.6953C90.6324 25.1173 90.9616 24.7852 91.6036 24.7852H91.9024V25.3972H91.809C91.7579 25.3916 91.7062 25.3974 91.6578 25.4142C91.6094 25.4309 91.5655 25.4582 91.5295 25.4939C91.4935 25.5297 91.4663 25.5729 91.4501 25.6204C91.4338 25.6679 91.4288 25.7184 91.4355 25.7681V26.5713C91.4355 26.9239 91.3258 27.0696 91.09 27.1378Z" fill="#FAFAFA"/>
<path d="M96.6344 26.8339V27.446H96.4663C96.4348 27.4423 96.4028 27.4457 96.3727 27.4558C96.3427 27.466 96.3154 27.4826 96.293 27.5045C96.2705 27.5264 96.2534 27.553 96.243 27.5823C96.2326 27.6115 96.2291 27.6427 96.2329 27.6735V28.5836C96.2329 29.1615 95.9037 29.4937 95.2594 29.4937H94.9629V28.8749H95.0539C95.1052 28.8808 95.1572 28.8753 95.2059 28.8587C95.2546 28.8421 95.2988 28.8149 95.3351 28.7791C95.3713 28.7433 95.3987 28.6999 95.4151 28.6523C95.4316 28.6046 95.4366 28.5538 95.4298 28.504V27.7008C95.4298 27.355 95.5372 27.2093 95.7753 27.1388C95.5419 27.0705 95.4298 26.9249 95.4298 26.5791V25.7759C95.4366 25.726 95.4316 25.6753 95.4151 25.6276C95.3987 25.5799 95.3713 25.5365 95.3351 25.5008C95.2988 25.465 95.2546 25.4377 95.2059 25.4211C95.1572 25.4046 95.1052 25.399 95.0539 25.405H94.9629V24.793H95.2594C95.9037 24.793 96.2329 25.1138 96.2329 25.7031V26.6132C96.2329 26.7748 96.3193 26.8407 96.4663 26.8407L96.6344 26.8339Z" fill="#FAFAFA"/>
<path d="M124.335 37.3435H112.821C112.439 37.3435 112.073 37.1956 111.803 36.9323C111.533 36.669 111.381 36.3119 111.381 35.9396V20.4039C111.381 20.0315 111.533 19.6745 111.803 19.4112C112.073 19.1479 112.439 19 112.821 19H120.124L125.769 24.6746V35.9351C125.769 36.3068 125.619 36.6637 125.35 36.9276C125.082 37.1915 124.717 37.3411 124.335 37.3435Z" fill="#6DCDCB"/>
<path d="M121.443 29.8708C121.443 29.8708 121.539 29.8708 121.714 29.8321C121.969 29.7739 122.201 29.6442 122.381 29.459C122.51 29.329 122.609 29.1739 122.671 29.0039C122.706 28.9053 122.728 28.8029 122.739 28.699C122.739 28.5921 122.739 28.4715 122.739 28.3577C122.739 27.8799 122.739 27.3384 122.739 26.74C122.739 26.4397 122.739 26.1257 122.739 25.8003C122.739 25.6365 122.739 25.4704 122.739 25.2997C122.746 25.1298 122.734 24.9595 122.701 24.7923C122.622 24.4455 122.412 24.1403 122.113 23.9368C121.96 23.8284 121.786 23.751 121.602 23.7093C121.409 23.6722 121.212 23.6585 121.016 23.6683L115.73 23.6752C115.508 23.6978 115.294 23.7715 115.106 23.8901C114.918 24.0087 114.762 24.169 114.649 24.3578C114.536 24.5398 114.47 24.7459 114.456 24.9584C114.456 25.17 114.456 25.393 114.456 25.6069C114.456 26.4692 114.456 27.2997 114.456 28.0938C114.456 28.2895 114.456 28.492 114.456 28.674C114.476 28.8566 114.536 29.0328 114.633 29.1905C114.724 29.3419 114.846 29.4738 114.991 29.5782C115.136 29.6826 115.301 29.7574 115.476 29.798C115.647 29.8295 115.82 29.8417 115.994 29.8344H116.508H117.474L120.385 29.8526H121.177H121.385H121.455C121.431 29.8556 121.408 29.8556 121.385 29.8526H121.177H120.385L117.474 29.8708H116.508H115.994C115.813 29.8806 115.631 29.8691 115.452 29.8367C115.263 29.7935 115.085 29.7136 114.928 29.6018C114.771 29.49 114.639 29.3486 114.54 29.1859C114.435 29.0314 114.364 28.8581 114.33 28.6763C114.313 28.4738 114.33 28.2849 114.33 28.0847C114.33 27.2906 114.33 26.4601 114.33 25.5978C114.33 25.3703 114.33 25.1678 114.33 24.9402C114.343 24.7101 114.415 24.4867 114.537 24.2895C114.66 24.0871 114.829 23.9154 115.032 23.7882C115.234 23.661 115.465 23.5818 115.705 23.5568C117.593 23.5432 119.372 23.5568 120.999 23.5568C121.204 23.5471 121.41 23.5624 121.611 23.6024C121.898 23.6701 122.16 23.8153 122.366 24.0214C122.573 24.2274 122.716 24.4859 122.778 24.7673C122.812 24.9412 122.825 25.1184 122.816 25.2952C122.816 25.4658 122.816 25.6319 122.816 25.7957C122.816 26.1211 122.816 26.4351 122.816 26.7354C122.816 27.3338 122.816 27.8731 122.816 28.3532C122.816 28.4715 122.816 28.5807 122.816 28.7013C122.803 28.8092 122.778 28.9153 122.741 29.0176C122.673 29.1962 122.567 29.359 122.43 29.4954C122.24 29.6823 121.996 29.8084 121.73 29.8572C121.636 29.8754 121.539 29.88 121.443 29.8708Z" fill="#FAFAFA"/>
<path d="M122.734 29.1382C122.703 29.1129 122.676 29.0847 122.652 29.0541L122.43 28.797L121.641 27.8436L121.099 27.1747L120.798 26.8038C120.747 26.7424 120.693 26.6787 120.642 26.6127C120.591 26.5568 120.526 26.5158 120.453 26.4944C120.377 26.4714 120.296 26.4709 120.22 26.4928C120.144 26.5146 120.076 26.5579 120.025 26.6172L119.68 27.0495L118.952 27.9596L118.627 28.3669L118.585 28.4193L118.536 28.3737L117.754 27.6297L117.567 27.4545C117.515 27.3963 117.453 27.3477 117.383 27.3112C117.317 27.281 117.244 27.2672 117.171 27.2712C117.098 27.2752 117.027 27.2967 116.965 27.3339C116.903 27.3763 116.848 27.426 116.799 27.4818L116.638 27.6434L116.332 27.9505L115.781 28.4989L114.983 29.2839L114.763 29.4932C114.739 29.5183 114.711 29.5405 114.682 29.5592C114.682 29.5592 114.7 29.5296 114.747 29.4773C114.794 29.4249 114.868 29.343 114.95 29.2497L115.721 28.4397L116.262 27.88L116.563 27.5683L116.722 27.4067C116.776 27.3441 116.838 27.2883 116.906 27.2406C116.984 27.1927 117.072 27.1644 117.163 27.1585C117.255 27.1525 117.346 27.169 117.429 27.2065C117.511 27.247 117.585 27.3018 117.647 27.3681L117.836 27.5433L118.62 28.2827H118.531C118.634 28.153 118.746 28.0165 118.856 27.8755L119.587 26.9653L119.937 26.533C120.003 26.4577 120.09 26.4029 120.187 26.3754C120.285 26.3479 120.388 26.3489 120.485 26.3783C120.577 26.4073 120.658 26.4609 120.719 26.533L120.878 26.7287L121.174 27.1019L121.704 27.7731L122.463 28.7514L122.666 29.0199C122.715 29.0996 122.734 29.1337 122.734 29.1382Z" fill="#FAFAFA"/>
<path d="M118.245 26.1068C118.245 26.1068 118.312 26.1068 118.422 26.0613C118.577 26.0158 118.713 25.9214 118.807 25.7928C118.885 25.6913 118.932 25.5708 118.943 25.4447C118.955 25.3185 118.93 25.1918 118.872 25.0787C118.813 24.9655 118.724 24.8704 118.613 24.8039C118.503 24.7374 118.376 24.7022 118.246 24.7022C118.116 24.7022 117.988 24.7374 117.878 24.8039C117.767 24.8704 117.678 24.9655 117.62 25.0787C117.561 25.1918 117.537 25.3185 117.548 25.4447C117.559 25.5708 117.607 25.6913 117.684 25.7928C117.778 25.9207 117.913 26.015 118.067 26.0613C118.179 26.0954 118.247 26.0977 118.245 26.1068C118.242 26.1159 118.179 26.1273 118.058 26.1068C117.884 26.0731 117.727 25.9804 117.617 25.8451C117.533 25.7434 117.477 25.6225 117.455 25.4939C117.432 25.3653 117.444 25.2333 117.488 25.1102C117.543 24.9571 117.645 24.8243 117.78 24.7304C117.916 24.6364 118.078 24.5859 118.245 24.5859C118.411 24.5859 118.573 24.6364 118.709 24.7304C118.844 24.8243 118.946 24.9571 119.001 25.1102C119.046 25.2331 119.058 25.365 119.036 25.4936C119.014 25.6222 118.958 25.7432 118.875 25.8451C118.764 25.9804 118.608 26.0731 118.434 26.1068C118.372 26.1244 118.306 26.1244 118.245 26.1068Z" fill="#FAFAFA"/>
<g opacity="0.2">
<path d="M111.38 31.7812H125.768V35.8995C125.768 36.2833 125.612 36.6514 125.333 36.9228C125.055 37.1942 124.677 37.3466 124.283 37.3466H112.844C112.45 37.3466 112.073 37.1942 111.794 36.9228C111.516 36.6514 111.359 36.2833 111.359 35.8995V31.7812H111.38Z" fill="black"/>
</g>
<path d="M120.125 19V23.3731C120.126 23.7187 120.268 24.0497 120.519 24.2937C120.77 24.5376 121.11 24.6746 121.465 24.6746H125.77L120.125 19Z" fill="#6DCDCB"/>
<g opacity="0.2">
<path d="M120.182 23.7656C120.182 23.7656 120.126 24.8259 121.366 25.174C121.412 25.1871 121.458 25.1977 121.506 25.2059C122.071 25.3037 125.778 25.9476 125.778 25.8635V24.6757H121.464C121.464 24.6757 120.399 24.6439 120.182 23.7656Z" fill="black"/>
</g>
<path d="M117.291 34.3613H117.758V35.2464C117.493 35.4286 117.176 35.5256 116.852 35.524C116.687 35.5444 116.52 35.5304 116.362 35.483C116.203 35.4357 116.057 35.3559 115.933 35.2492C115.808 35.1424 115.709 35.0111 115.641 34.8639C115.572 34.7167 115.537 34.557 115.537 34.3955C115.537 34.2339 115.572 34.0743 115.641 33.9271C115.709 33.7799 115.808 33.6485 115.933 33.5418C116.057 33.435 116.203 33.3553 116.362 33.3079C116.52 33.2605 116.687 33.2465 116.852 33.2669C117.026 33.2594 117.2 33.2893 117.362 33.3546C117.523 33.4198 117.668 33.5189 117.786 33.6446L117.452 33.9427C117.379 33.8636 117.29 33.8007 117.19 33.7583C117.09 33.7159 116.982 33.695 116.873 33.6969C116.683 33.6969 116.5 33.7705 116.366 33.9015C116.232 34.0325 116.156 34.2102 116.156 34.3955C116.156 34.5807 116.232 34.7584 116.366 34.8894C116.5 35.0204 116.683 35.094 116.873 35.094C117.013 35.097 117.152 35.0649 117.277 35.0007L117.291 34.3613Z" fill="#FAFAFA"/>
<path d="M118.244 33.3008H118.767V35.4851H118.249L118.244 33.3008Z" fill="#FAFAFA"/>
<path d="M119.809 33.7064V34.2844H120.846V34.6848H119.809V35.4812H119.291V33.2969H120.984V33.7019L119.809 33.7064Z" fill="#FAFAFA"/>
<path d="M73.6931 37.3435H62.1767C61.7947 37.3435 61.4283 37.1956 61.1582 36.9323C60.8881 36.669 60.7363 36.3119 60.7363 35.9396V20.4039C60.7363 20.0315 60.8881 19.6745 61.1582 19.4112C61.4283 19.1479 61.7947 19 62.1767 19H69.4792L75.1335 24.6746V35.9351C75.1341 36.1198 75.0973 36.3028 75.0252 36.4737C74.9531 36.6445 74.8471 36.7998 74.7133 36.9307C74.5795 37.0615 74.4205 37.1653 74.2454 37.2362C74.0703 37.307 73.8826 37.3435 73.6931 37.3435Z" fill="#6DCDCB"/>
<g opacity="0.2">
<path d="M60.7367 31.7812H75.1339V35.7903C75.1339 36.2031 74.9657 36.5989 74.6662 36.8908C74.3667 37.1827 73.9606 37.3466 73.5371 37.3466H62.3312C61.9077 37.3466 61.5015 37.1827 61.2021 36.8908C60.9026 36.5989 60.7344 36.2031 60.7344 35.7903V31.7812H60.7367Z" fill="black"/>
</g>
<path d="M65.8379 35.3663L66.2021 34.9408C66.2571 35.0292 66.3336 35.103 66.4248 35.1558C66.516 35.2085 66.6191 35.2386 66.725 35.2434C66.9865 35.2434 67.1219 35.091 67.1219 34.7883V33.4823H66.132V32.9727H67.7662V34.7542C67.7662 35.4368 67.4161 35.7667 66.753 35.7667C66.5793 35.7725 66.4064 35.7394 66.2478 35.6699C66.0892 35.6005 65.949 35.4967 65.8379 35.3663Z" fill="#FAFAFA"/>
<path d="M68.1602 35.526L68.3703 35.0846C68.5971 35.2181 68.857 35.2889 69.122 35.2894C69.4115 35.2894 69.5212 35.2143 69.5212 35.0982C69.5212 34.7524 68.2115 35.0982 68.2115 34.2609C68.2115 33.8628 68.5827 33.5783 69.2154 33.5783C69.5043 33.5739 69.7901 33.6371 70.0488 33.7626L69.8387 34.1995C69.6488 34.0944 69.4337 34.0402 69.2154 34.0425C68.9329 34.0425 68.8115 34.129 68.8115 34.2382C68.8115 34.5999 70.1212 34.2382 70.1212 35.0823C70.1212 35.4737 69.7453 35.7649 69.0986 35.7649C68.7697 35.7672 68.4459 35.6848 68.1602 35.526Z" fill="#FAFAFA"/>
<path d="M63.7852 28.8565L64.2381 28.34C64.3577 28.5299 64.5247 28.6873 64.7234 28.7975C64.9222 28.9077 65.1463 28.9671 65.375 28.9703C65.989 28.9703 66.3088 28.6062 66.3088 27.8918V24.902H64.3384V24.2422H67.0792V27.8599C67.0792 29.0431 66.4862 29.6278 65.375 29.6278C65.0656 29.6352 64.759 29.5687 64.4819 29.4343C64.2049 29.2999 63.9657 29.1015 63.7852 28.8565Z" fill="#FAFAFA"/>
<path d="M68.0352 29.138L68.3386 28.5623C68.7698 28.8342 69.2725 28.9788 69.7861 28.9787C70.4864 28.9787 70.7666 28.7739 70.7666 28.4327C70.7666 27.5225 68.1589 28.3121 68.1589 26.7103C68.1589 25.9913 68.8196 25.5043 69.8795 25.5043C70.4039 25.4955 70.9215 25.621 71.3806 25.8684L71.0607 26.4463C70.7046 26.2284 70.2905 26.1176 69.8701 26.1278C69.2164 26.1278 68.8989 26.3553 68.8989 26.6807C68.8989 27.6295 71.5136 26.8559 71.5136 28.4167C71.5136 29.1471 70.8273 29.609 69.73 29.609C69.1292 29.6225 68.5383 29.4583 68.0352 29.138Z" fill="#FAFAFA"/>
<path d="M69.4785 19V23.3731C69.4798 23.7187 69.6215 24.0497 69.8726 24.2937C70.1238 24.5376 70.464 24.6746 70.8185 24.6746H75.1328L69.4785 19Z" fill="#6DCDCB"/>
<g opacity="0.2">
<path d="M69.5395 23.7656C69.5395 23.7656 69.4811 24.8259 70.7208 25.174C70.7676 25.1871 70.8152 25.1977 70.8632 25.2059C71.4258 25.3037 75.1331 25.9476 75.1331 25.8635V24.6757H70.8188C70.8188 24.6757 69.7403 24.6439 69.5395 23.7656Z" fill="black"/>
</g>
<path d="M47.9564 37.3435H36.4424C36.0603 37.3435 35.694 37.1956 35.4238 36.9323C35.1537 36.669 35.002 36.3119 35.002 35.9396V20.4039C35.002 20.0315 35.1537 19.6745 35.4238 19.4112C35.694 19.1479 36.0603 19 36.4424 19H43.7448L49.3991 24.6882V35.9487C49.3961 36.3197 49.2427 36.6744 48.9725 36.9356C48.7022 37.1969 48.337 37.3435 47.9564 37.3435Z" fill="#6DCDCB"/>
<g opacity="0.2">
<path d="M35.0023 31.7812H49.3995V35.7767C49.3995 36.1931 49.2298 36.5924 48.9277 36.8868C48.6256 37.1812 48.2159 37.3466 47.7887 37.3466H36.6108C36.1836 37.3466 35.7739 37.1812 35.4718 36.8868C35.1697 36.5924 35 36.1931 35 35.7767V31.7812H35.0023Z" fill="black"/>
</g>
<g opacity="0.2">
<path d="M43.7461 19V23.3731C43.7473 23.7187 43.8891 24.0497 44.1402 24.2937C44.3914 24.5376 44.7315 24.6746 45.0861 24.6746H49.4004L43.7461 19Z" fill="white"/>
</g>
<g opacity="0.2">
<path d="M43.8031 23.7656C43.8031 23.7656 43.7471 24.8259 44.9867 25.174C45.0328 25.1871 45.0796 25.1977 45.1268 25.2059C45.6918 25.3037 49.399 25.9476 49.399 25.8635V24.6757H45.0848C45.0848 24.6757 44.0086 24.6439 43.8031 23.7656Z" fill="black"/>
</g>
<path d="M40.9133 27.1752L39.1857 27.7918L40.9133 28.4039V29.0409L38.4434 28.1308V27.4687L40.9133 26.5586V27.1752Z" fill="#FAFAFA"/>
<path d="M42.7722 25.3086H43.4935L41.78 30.0753H41.0586L42.7722 25.3086Z" fill="#FAFAFA"/>
<path d="M46.0567 27.4716V28.1292L43.5938 29.0439V28.4113L45.3213 27.7993L43.5938 27.1781V26.5547L46.0567 27.4716Z" fill="#FAFAFA"/>
<path d="M40.325 33.8477V35.7339H39.8768V34.9603H38.9967V35.7339H38.5508V33.8477H38.999V34.5917H39.8791V33.8477H40.325Z" fill="#FAFAFA"/>
<path d="M41.1866 34.2026H40.5586V33.8477H42.2465V34.2026H41.6325V35.7339H41.1866V34.2026Z" fill="#FAFAFA"/>
<path d="M44.254 35.7352V34.5975L43.6844 35.5281H43.4813L42.9163 34.618V35.7261H42.4961V33.8398H42.865L43.5887 35.0116L44.303 33.8398H44.6696V35.7261L44.254 35.7352Z" fill="#FAFAFA"/>
<path d="M45.1328 33.8477H45.581V35.3789H46.5522V35.7339H45.1328V33.8477Z" fill="#FAFAFA"/>
<g opacity="0.2">
<path d="M69.4785 19V23.3731C69.4798 23.7187 69.6215 24.0497 69.8726 24.2937C70.1238 24.5376 70.464 24.6746 70.8185 24.6746H75.1328L69.4785 19Z" fill="white"/>
</g>
<g opacity="0.2">
<path d="M120.125 19V23.3731C120.126 23.7187 120.268 24.0497 120.519 24.2937C120.77 24.5376 121.11 24.6746 121.465 24.6746H125.77L120.125 19Z" fill="white"/>
</g>
<path d="M132.209 110.038L113.659 108.958C113.544 108.702 113.463 108.551 113.463 108.551L108.443 108.662L106.807 108.569C106.807 108.569 106.781 108.616 106.744 108.698L89.8858 109.058C86.5245 109.058 82.9933 111.074 83.0007 113.63C82.9674 116.06 84.1827 118.696 87.1931 118.627L110.165 118.494H133.136C136.146 118.544 136.937 116.773 136.937 114.674C137.299 110.801 134.776 110.056 132.209 110.038Z" fill="#6E498E"/>
<path d="M89.3164 118.65H89.4272H89.7523H91.0008L95.6253 118.622L111.047 118.56L110.984 118.629C110.951 118.136 110.914 117.61 110.881 117.081C110.807 116.001 110.736 114.921 110.67 113.92L110.725 113.978L96.5155 112.476L92.301 112.016L91.167 111.886L90.8752 111.85H90.7754C90.8086 111.847 90.842 111.847 90.8752 111.85L91.1707 111.875L92.3083 111.983L96.5229 112.404L110.74 113.866H110.796V113.92C110.862 114.932 110.932 115.997 111.006 117.081C111.039 117.61 111.076 118.136 111.11 118.625V118.694H111.039L95.6179 118.715H90.9934H89.7449H89.4198L89.3164 118.65Z" fill="#263238"/>
<path d="M94.0345 112.217C94.0345 112.217 93.7907 112.051 93.3844 111.813C92.8567 111.502 92.2891 111.26 91.6963 111.093C91.1021 110.931 90.4887 110.845 89.8716 110.838C89.3988 110.838 89.1033 110.867 89.0996 110.838C89.1654 110.815 89.2335 110.799 89.3028 110.791C89.4913 110.764 89.6812 110.747 89.8716 110.741C90.4955 110.723 91.1185 110.8 91.7185 110.967C92.3237 111.133 92.8984 111.391 93.4213 111.731C93.581 111.831 93.7329 111.943 93.8756 112.065C93.9864 112.159 94.0418 112.199 94.0345 112.217Z" fill="#263238"/>
<path d="M130.773 111.158C130.773 111.194 127.131 112.061 122.617 113.102C118.103 114.142 114.439 114.959 114.428 114.927C114.417 114.894 118.074 114.02 122.587 112.979C127.101 111.939 130.765 111.118 130.773 111.158Z" fill="#263238"/>
<path d="M127.695 110.82C127.193 110.991 126.713 111.215 126.262 111.49C125.839 111.804 125.452 112.163 125.109 112.559C125.166 112.413 125.25 112.279 125.357 112.163C125.597 111.869 125.879 111.611 126.195 111.396C126.515 111.186 126.865 111.023 127.233 110.914C127.38 110.854 127.536 110.823 127.695 110.82Z" fill="#263238"/>
<path d="M110.826 114.395L114.287 114.855L114.295 118.52L111.114 118.452L110.826 114.395Z" fill="#FFBE9D"/>
<path d="M114.287 114.855H115.842C116.144 114.855 116.441 114.932 116.703 115.079L117.527 115.539C117.99 115.788 118.469 116.01 118.96 116.202C119.909 116.493 121.501 116.889 121.837 117.141C122.794 117.861 122.506 118.707 121.981 118.797C121.519 118.877 114.294 118.524 114.294 118.524L114.287 114.855Z" fill="#6DCDCB"/>
<path d="M116.851 118.212C116.726 117.911 116.669 117.587 116.681 117.262C116.65 116.938 116.686 116.611 116.788 116.301C116.814 116.619 116.821 116.939 116.81 117.258C116.841 117.575 116.855 117.894 116.851 118.212Z" fill="#263238"/>
<path d="M117.589 118.191C117.525 117.904 117.505 117.609 117.529 117.316C117.51 117.023 117.532 116.729 117.596 116.441C117.66 116.729 117.681 117.023 117.659 117.316C117.676 117.61 117.653 117.904 117.589 118.191Z" fill="#263238"/>
<path d="M118.462 118.32C118.324 117.73 118.274 117.123 118.314 116.52C118.4 116.811 118.446 117.113 118.45 117.416C118.497 117.715 118.5 118.019 118.462 118.32Z" fill="#263238"/>
<path d="M116.175 117.238C116.065 117.221 115.957 117.189 115.857 117.141C115.574 117.027 115.311 116.871 115.078 116.676C115.004 116.612 114.93 116.547 114.853 116.471C114.769 116.394 114.702 116.301 114.657 116.198C114.63 116.14 114.62 116.076 114.627 116.012C114.634 115.949 114.659 115.889 114.697 115.838C114.721 115.809 114.749 115.784 114.782 115.766C114.815 115.748 114.852 115.737 114.889 115.733C114.96 115.726 115.032 115.733 115.1 115.755C115.371 115.849 115.61 116.016 115.79 116.235C115.97 116.455 116.083 116.719 116.118 116.998C116.152 117.276 116.107 117.559 115.986 117.814C115.864 118.069 115.673 118.286 115.432 118.44C115.322 118.517 115.196 118.571 115.063 118.599C114.996 118.615 114.927 118.615 114.86 118.599C114.791 118.576 114.734 118.529 114.701 118.466C114.678 118.407 114.669 118.343 114.677 118.28C114.685 118.218 114.708 118.158 114.745 118.106C114.801 118.018 114.868 117.939 114.945 117.868C115.166 117.659 115.425 117.493 115.709 117.378C115.812 117.335 115.92 117.304 116.031 117.288C116.031 117.288 115.92 117.335 115.732 117.425C115.463 117.552 115.219 117.724 115.011 117.933C114.942 117.998 114.882 118.072 114.834 118.152C114.809 118.19 114.793 118.232 114.786 118.276C114.78 118.32 114.784 118.365 114.797 118.408C114.823 118.445 114.861 118.473 114.905 118.487C114.949 118.502 114.997 118.502 115.041 118.487C115.154 118.462 115.26 118.413 115.351 118.343C115.571 118.2 115.746 117.999 115.856 117.765C115.967 117.53 116.009 117.271 115.978 117.015C115.946 116.758 115.843 116.515 115.679 116.313C115.515 116.11 115.297 115.956 115.048 115.866C115.004 115.845 114.953 115.837 114.903 115.844C114.854 115.851 114.808 115.873 114.771 115.906C114.743 115.945 114.725 115.99 114.72 116.037C114.715 116.085 114.722 116.132 114.742 116.176C114.834 116.347 114.959 116.498 115.111 116.622C115.433 116.878 115.791 117.085 116.175 117.238Z" fill="#263238"/>
<path d="M121.98 118.792C122.057 118.727 122.12 118.649 122.168 118.562C122.213 118.435 122.227 118.301 122.209 118.168C122.191 118.036 122.142 117.909 122.065 117.799C121.842 117.454 121.5 117.199 121.101 117.079C120.661 116.927 120.137 116.855 119.623 116.693C118.712 116.432 117.843 116.051 117.038 115.559C116.795 115.412 116.561 115.252 116.336 115.081C116.25 115.022 116.17 114.954 116.1 114.879C116.194 114.924 116.283 114.978 116.366 115.041C116.532 115.149 116.776 115.307 117.086 115.484C117.892 115.944 118.753 116.306 119.649 116.564C120.17 116.719 120.687 116.794 121.145 116.96C121.565 117.089 121.922 117.363 122.15 117.73C122.228 117.853 122.276 117.992 122.287 118.136C122.299 118.28 122.274 118.425 122.216 118.558C122.178 118.627 122.124 118.686 122.058 118.731C122.01 118.785 121.984 118.796 121.98 118.792Z" fill="#263238"/>
<path d="M106.944 70.3672C105.873 70.774 104.654 72.3652 104.44 73.4668C104.248 74.4352 104.507 75.4288 104.64 76.4116C104.773 77.3944 104.743 78.4852 104.093 79.2448C103.687 79.7164 103.096 79.99 102.615 80.3932C102.271 80.6849 101.988 81.0402 101.785 81.4385C101.582 81.8369 101.461 82.2705 101.43 82.7144C101.399 83.1584 101.459 83.6039 101.605 84.0254C101.751 84.4468 101.982 84.836 102.283 85.1704C101.889 85.2786 101.545 85.513 101.305 85.8357C101.065 86.1584 100.944 86.5506 100.961 86.9488C100.993 87.3454 101.116 87.7299 101.321 88.0738C101.527 88.4178 101.809 88.7124 102.146 88.936C102.829 89.3756 103.601 89.6643 104.411 89.782C105.251 89.9813 106.131 89.9577 106.959 89.7136C107.909 89.3752 108.61 88.6084 109.371 87.9604C110.298 87.1648 111.381 86.4952 112.046 85.4836C112.821 84.3028 112.925 82.8268 112.917 81.4228C112.905 78.5514 112.533 75.6921 111.809 72.9088" fill="#263238"/>
<path d="M120.725 90.168L126.635 100.111C126.993 100.716 127.193 101.397 127.215 102.095C127.238 102.793 127.083 103.485 126.764 104.111C126.397 104.833 125.825 105.438 125.116 105.854C124.407 106.27 123.591 106.479 122.764 106.458L113.751 106.235L113.504 103.042L121.416 101.537L116.042 92.5368L120.725 90.168Z" fill="#FFBE9D"/>
<path d="M98.8847 107.266L107.177 109.383L107.351 106.96L99.7158 102.658L105.256 92.5495L100.576 90.2383L94.7366 100.21C94.4076 100.815 94.2189 101.483 94.1838 102.167C94.1486 102.851 94.2678 103.534 94.5331 104.168C94.7983 104.802 95.2031 105.372 95.7188 105.837C96.2346 106.302 96.8488 106.651 97.518 106.859L98.8847 107.266Z" fill="#FFBE9D"/>
<path d="M118.25 96.5657L123.909 93.6425C123.208 92.2672 122.393 90.9501 121.471 89.7041C119.621 87.2992 116.92 85.6505 113.892 85.0781L107.376 85.1681C106.582 85.2394 105.801 85.4175 105.056 85.6973V85.6721C101.521 86.4425 97.6172 93.9701 97.6172 93.9701L102.788 96.6017L102.903 97.3901C103.061 98.4361 103.532 99.4137 104.255 100.202L102.777 109.828L119.506 110.123L117.353 103.237L118.25 96.5657Z" fill="#6DCDCB"/>
<path d="M104.402 100.258C104.313 100.205 104.23 100.143 104.154 100.074C103.938 99.8908 103.746 99.6829 103.582 99.4548C103.045 98.686 102.796 97.7606 102.876 96.834C102.954 96.3358 103.078 95.8455 103.246 95.3688C103.393 94.9296 103.545 94.5408 103.678 94.2168C103.811 93.8928 103.921 93.6336 104.003 93.4536C104.041 93.359 104.089 93.2686 104.147 93.1836C104.123 93.282 104.091 93.3783 104.051 93.4716L103.763 94.2492C103.641 94.5768 103.5 94.9692 103.356 95.4048C103.195 95.8746 103.071 96.3561 102.987 96.8448C102.946 97.3353 102.995 97.8289 103.131 98.3028C103.242 98.6864 103.414 99.0507 103.641 99.3828C103.87 99.6937 104.125 99.9862 104.402 100.258Z" fill="#263238"/>
<path d="M104.897 91.8668C104.557 91.5742 104.261 91.236 104.018 90.8624C103.718 90.528 103.47 90.1534 103.279 89.75C103.915 90.3767 104.455 91.0896 104.882 91.8668H104.897Z" fill="#FAFAFA"/>
<path d="M107.608 87.4141C107.317 87.6767 106.986 87.8929 106.626 88.0549C106.297 88.2701 105.934 88.4307 105.551 88.5301C105.842 88.2675 106.173 88.0512 106.533 87.8893C106.863 87.6757 107.226 87.5153 107.608 87.4141Z" fill="#FAFAFA"/>
<path d="M101.075 93.7562C101.012 93.3988 101.012 93.0336 101.075 92.6762C101.069 92.318 101.13 91.9617 101.256 91.625C101.32 91.9823 101.32 92.3477 101.256 92.705C101.261 93.0632 101.2 93.4193 101.075 93.7562Z" fill="#FAFAFA"/>
<path d="M107.096 95.8359C106.82 96.0898 106.503 96.2978 106.158 96.4515C105.842 96.6587 105.494 96.8133 105.127 96.9087C105.4 96.6507 105.718 96.4412 106.065 96.2895C106.38 96.0825 106.728 95.9291 107.096 95.8359Z" fill="#FAFAFA"/>
<path d="M109.063 91.4441C108.894 91.7636 108.674 92.0542 108.409 92.3045C108.01 92.7437 107.652 93.0749 107.611 93.0245C107.78 92.705 108.001 92.4143 108.265 92.1641C108.664 91.7393 109.022 91.4081 109.063 91.4441Z" fill="#FAFAFA"/>
<path d="M112.975 92.7606C112.7 92.5425 112.467 92.2778 112.288 91.9793C112.06 91.7176 111.882 91.4175 111.764 91.0938C112.036 91.312 112.268 91.5752 112.447 91.8714C112.674 92.1361 112.853 92.4369 112.975 92.7606Z" fill="#FAFAFA"/>
<path d="M110.921 96.8755C110.709 96.0524 110.624 95.203 110.67 94.3555C110.805 94.7582 110.88 95.1777 110.892 95.6011C110.966 96.0221 110.976 96.4516 110.921 96.8755Z" fill="#FAFAFA"/>
<path d="M109.331 100.439C109.06 100.168 108.838 99.8538 108.673 99.5107C108.456 99.1972 108.291 98.8521 108.186 98.4883C108.462 98.7583 108.69 99.0724 108.858 99.4171C109.07 99.7311 109.23 100.076 109.331 100.439Z" fill="#FAFAFA"/>
<path d="M114.53 98.3867C114.15 99.0686 113.66 99.6861 113.078 100.216C113.458 99.5337 113.948 98.9161 114.53 98.3867Z" fill="#FAFAFA"/>
<path d="M116.757 96.3195C116.315 96.1938 115.908 95.9736 115.564 95.6751C115.183 95.4235 114.866 95.0912 114.637 94.7031C115.002 94.9591 115.352 95.2343 115.686 95.5275C116.057 95.7727 116.415 96.0371 116.757 96.3195Z" fill="#FAFAFA"/>
<path d="M120.364 93.3786C119.944 93.4833 119.511 93.5257 119.078 93.5046C118.648 93.5475 118.213 93.5256 117.789 93.4398C118.209 93.3395 118.642 93.2983 119.074 93.3174C119.505 93.2764 119.939 93.297 120.364 93.3786Z" fill="#FAFAFA"/>
<g opacity="0.3">
<path d="M121.268 88.8604C121.698 89.531 121.863 90.3319 121.729 91.1123C121.596 91.8927 121.174 92.5985 120.543 93.0966C119.913 93.5948 119.117 93.8508 118.306 93.8165C117.495 93.7822 116.725 93.4599 116.141 92.9104C115.974 92.7202 115.777 92.5573 115.557 92.428C115.329 92.347 115.09 92.2985 114.848 92.284C114.417 92.2166 114.011 92.0434 113.668 91.7807C113.325 91.518 113.057 91.1745 112.888 90.7825C112.719 90.3905 112.655 89.9631 112.703 89.5405C112.75 89.1179 112.908 88.7141 113.16 88.3672L121.268 88.8604Z" fill="black"/>
</g>
<path d="M101.927 112.157L100.955 101.429L121.333 101.375L120.011 112.243L101.927 112.157Z" fill="#263238"/>
<path d="M112.458 107.119C112.459 107.37 112.384 107.616 112.243 107.825C112.101 108.034 111.898 108.198 111.661 108.295C111.424 108.392 111.162 108.418 110.91 108.371C110.657 108.323 110.425 108.203 110.242 108.026C110.059 107.85 109.935 107.624 109.883 107.379C109.832 107.133 109.857 106.878 109.955 106.646C110.052 106.414 110.218 106.215 110.432 106.075C110.645 105.935 110.897 105.86 111.154 105.859C111.498 105.858 111.829 105.991 112.073 106.227C112.317 106.463 112.456 106.784 112.458 107.119Z" fill="#FAFAFA"/>
<path d="M111.486 88.8906C112.311 88.8729 113.097 88.5436 113.678 87.972C114.259 87.4005 114.59 86.6314 114.6 85.827L114.748 73.4934C114.752 73.2476 114.662 73.0091 114.495 72.8247C114.329 72.6402 114.097 72.5231 113.847 72.4962L108.487 71.1786C106.777 71.0022 105.639 73.0578 105.532 74.7318C105.41 76.593 105.34 78.8682 105.565 80.2542C106.019 83.0478 108.214 83.4006 108.214 83.4006C108.214 83.4006 108.214 84.4806 108.214 85.8054C108.216 86.2172 108.302 86.6245 108.468 87.0034C108.633 87.3823 108.875 87.7254 109.177 88.0125C109.48 88.2997 109.839 88.5252 110.232 88.676C110.625 88.8267 111.045 88.8997 111.468 88.8906H111.486Z" fill="#FFBE9D"/>
<path d="M106.641 76.5353C106.641 76.6307 106.68 76.7223 106.749 76.7898C106.818 76.8573 106.912 76.8953 107.01 76.8953C107.101 76.8958 107.19 76.8633 107.258 76.8042C107.326 76.745 107.369 76.6633 107.379 76.5749C107.379 76.4794 107.34 76.3878 107.271 76.3203C107.202 76.2528 107.108 76.2149 107.01 76.2149C106.919 76.2143 106.83 76.2468 106.762 76.3059C106.694 76.3651 106.651 76.4468 106.641 76.5353Z" fill="#263238"/>
<path d="M106.051 75.9132C106.095 75.96 106.372 75.7584 106.767 75.7584C107.162 75.7584 107.454 75.9528 107.506 75.906C107.558 75.8592 107.48 75.8016 107.355 75.7116C107.185 75.5956 106.982 75.534 106.775 75.5352C106.569 75.5354 106.369 75.5983 106.202 75.7152C106.069 75.8088 106.028 75.8916 106.051 75.9132Z" fill="#263238"/>
<path d="M110.412 76.5358C110.412 76.6313 110.451 76.7229 110.52 76.7904C110.59 76.8579 110.684 76.8958 110.781 76.8958C110.827 76.8987 110.873 76.8927 110.917 76.8782C110.96 76.8636 111.001 76.8407 111.035 76.8109C111.069 76.7811 111.097 76.7449 111.117 76.7045C111.137 76.6641 111.149 76.6202 111.151 76.5754C111.151 76.483 111.115 76.394 111.049 76.327C110.984 76.26 110.895 76.22 110.8 76.2154C110.706 76.2103 110.613 76.2406 110.54 76.3002C110.468 76.3598 110.422 76.4442 110.412 76.5358Z" fill="#263238"/>
<path d="M109.933 75.9874C109.981 76.0342 110.258 75.8326 110.653 75.8326C111.048 75.8326 111.336 76.027 111.392 75.9802C111.447 75.9334 111.366 75.8758 111.24 75.7858C111.069 75.6698 110.865 75.6082 110.656 75.6094C110.451 75.6108 110.251 75.6736 110.084 75.7894C109.966 75.883 109.91 75.9658 109.933 75.9874Z" fill="#263238"/>
<path d="M108.487 78.8404C108.279 78.7781 108.063 78.7406 107.845 78.7288C107.745 78.7288 107.649 78.7 107.634 78.6316C107.625 78.53 107.648 78.4281 107.701 78.34C107.793 78.1024 107.893 77.854 108 77.5912C108.276 76.9569 108.5 76.302 108.668 75.6328C108.339 76.2432 108.061 76.879 107.837 77.5336L107.553 78.286C107.488 78.4053 107.47 78.5434 107.501 78.6748C107.516 78.7095 107.539 78.7405 107.567 78.7654C107.596 78.7904 107.63 78.8086 107.667 78.8188C107.723 78.8324 107.78 78.8397 107.837 78.8404C108.053 78.8678 108.272 78.8678 108.487 78.8404Z" fill="#263238"/>
<path d="M108.225 83.3995C109.573 83.4205 110.9 83.0752 112.059 82.4023C112.059 82.4023 111.132 84.3211 108.265 84.0583L108.225 83.3995Z" fill="#AA6550"/>
<path d="M108.665 79.7685C108.74 79.6761 108.839 79.6041 108.951 79.5593C109.062 79.5145 109.184 79.4986 109.304 79.5129C109.392 79.5205 109.477 79.5451 109.554 79.5853C109.631 79.6255 109.7 79.6805 109.755 79.7469C109.808 79.8108 109.839 79.889 109.844 79.971C109.85 80.0529 109.829 80.1343 109.784 80.2041C109.721 80.2736 109.638 80.3231 109.546 80.3462C109.454 80.3693 109.357 80.3649 109.267 80.3337C109.08 80.2686 108.909 80.1683 108.761 80.0385C108.717 80.0075 108.679 79.9684 108.651 79.9233C108.635 79.903 108.627 79.8784 108.627 79.8531C108.627 79.8279 108.635 79.8033 108.651 79.7829" fill="#AA6550"/>
<path d="M109.662 79.1094C109.599 79.1094 109.596 79.5234 109.23 79.8294C108.864 80.1354 108.406 80.0814 108.402 80.139C108.399 80.1966 108.506 80.2182 108.698 80.2254C108.949 80.2285 109.194 80.1457 109.389 79.9914C109.574 79.8412 109.693 79.6272 109.721 79.3938C109.74 79.2102 109.692 79.1094 109.662 79.1094Z" fill="#263238"/>
<path d="M109.754 75.3106C109.794 75.4186 110.189 75.3682 110.651 75.4222C111.113 75.4762 111.49 75.5986 111.552 75.505C111.615 75.4114 111.516 75.361 111.364 75.2602C111.163 75.1341 110.934 75.0563 110.696 75.0334C110.458 75.0067 110.218 75.0338 109.994 75.1126C109.824 75.181 109.739 75.2638 109.754 75.3106Z" fill="#263238"/>
<path d="M106.105 75.2022C106.171 75.2922 106.445 75.2022 106.774 75.2022C107.102 75.2022 107.376 75.2634 107.442 75.1698C107.509 75.0762 107.424 75.0402 107.305 74.9574C107.143 74.8554 106.952 74.8051 106.759 74.8134C106.567 74.8167 106.381 74.8784 106.227 74.9898C106.112 75.0726 106.072 75.1626 106.105 75.2022Z" fill="#263238"/>
<path d="M121.679 87.6611C121.15 86.7755 119.965 86.1851 119.972 85.1591C119.972 84.5327 120.46 83.9855 120.489 83.3591C120.548 82.1063 118.897 81.4475 118.454 80.2703C118.051 79.1903 118.746 77.9987 118.498 76.8827C118.199 75.5219 116.936 74.9819 115.894 74.0639C115.452 73.6609 115.092 73.1811 114.83 72.6491C114.793 72.5843 114.76 72.5195 114.72 72.4583C114.365 71.8858 113.882 71.3996 113.306 71.0365C112.73 70.6735 112.076 70.4432 111.395 70.3631C110.15 69.9522 108.812 69.8887 107.532 70.1795C106.841 70.3245 106.211 70.6696 105.725 71.1695C105.487 71.4221 105.317 71.7283 105.23 72.0606C105.143 72.3929 105.142 72.741 105.227 73.0739C105.323 73.4039 105.534 73.6914 105.822 73.8881C106.111 74.0848 106.46 74.1786 106.811 74.1539C107.339 74.0855 107.846 73.7039 108.355 73.8551C108.865 74.0063 109.094 74.5751 109.596 74.6615C110.099 74.7479 110.52 74.3231 111.015 74.2799C111.51 74.2367 112.034 74.6723 112.278 75.1511C112.37 75.3424 112.449 75.5397 112.514 75.7415C112.921 77.7143 113.696 78.6215 113.157 79.7735C112.869 80.3891 112.378 80.9363 112.3 81.6059C112.127 83.1467 114.18 84.2699 114.066 85.8143C114.018 86.4731 113.578 87.0311 113.327 87.6467C113.097 88.2899 113.081 88.9878 113.284 89.6399C113.486 90.292 113.896 90.8647 114.454 91.2755C114.735 91.4894 115.066 91.6338 115.417 91.6965C115.768 91.7591 116.129 91.7382 116.47 91.6355C116.547 91.6077 116.621 91.574 116.692 91.5347C117.068 91.8769 117.529 92.1177 118.029 92.2331C119.244 92.4851 120.515 91.8155 121.258 90.8435C121.97 89.9363 122.266 88.6403 121.679 87.6611Z" fill="#263238"/>
<path d="M116.728 91.552C117.077 91.4871 117.414 91.3769 117.733 91.2244C118.099 91.0375 118.426 90.7832 118.693 90.4756C119.054 90.0761 119.292 89.5858 119.38 89.0608C119.475 88.4221 119.356 87.7707 119.04 87.2032C118.676 86.5521 118.081 86.0519 117.367 85.7956C116.96 85.6546 116.59 85.4271 116.285 85.1296C116.139 84.9542 116.035 84.7498 115.98 84.5308C115.924 84.3119 115.919 84.0837 115.964 83.8624C116.047 83.4183 116.209 82.9919 116.444 82.6024C116.679 82.2182 116.877 81.8132 117.035 81.3928C117.185 80.9834 117.173 80.5341 117.001 80.1328C116.812 79.7445 116.552 79.3932 116.233 79.096C115.93 78.7828 115.613 78.4912 115.336 78.16C115.067 77.839 114.848 77.4811 114.685 77.098C114.403 76.3911 114.201 75.6558 114.083 74.9056C113.98 74.2609 113.833 73.6236 113.644 72.9976C113.394 72.0818 112.811 71.2858 112.004 70.7584C111.699 70.5842 111.365 70.4624 111.018 70.3984H111.073C111.143 70.4018 111.212 70.4115 111.28 70.4272C111.54 70.4764 111.79 70.569 112.019 70.7008C112.386 70.9094 112.71 71.1843 112.972 71.5108C113.314 71.943 113.577 72.4304 113.747 72.9508C113.946 73.581 114.101 74.2231 114.213 74.8732C114.337 75.6123 114.541 76.3364 114.822 77.0332C114.981 77.4007 115.194 77.7439 115.454 78.052C115.72 78.3652 116.037 78.6568 116.344 78.97C116.677 79.2801 116.949 79.6459 117.149 80.05C117.339 80.4921 117.355 80.9869 117.194 81.4396C116.887 82.3396 116.241 83.0344 116.126 83.8768C116.085 84.0727 116.088 84.275 116.135 84.4696C116.182 84.6642 116.272 84.8465 116.399 85.0036C116.687 85.2819 117.034 85.4957 117.415 85.63C117.792 85.7751 118.142 85.9808 118.449 86.2384C118.851 86.5888 119.157 87.0316 119.338 87.5265C119.519 88.0213 119.571 88.5525 119.487 89.0716C119.388 89.6181 119.132 90.126 118.749 90.5368C118.466 90.8466 118.123 91.0987 117.74 91.2784C117.499 91.3921 117.243 91.4721 116.979 91.516C116.887 91.534 116.817 91.534 116.772 91.5412C116.728 91.5484 116.728 91.5556 116.728 91.552Z" fill="#6E498E"/>
<path d="M52.8684 99.1103L54.2794 103.43C54.5495 104.307 55.0624 105.093 55.7617 105.704C56.461 106.314 57.3195 106.725 58.2428 106.89L67.6803 108.618L70.266 108.539L67.6803 105.439L60.5883 103.085C60.2482 103.012 59.9349 102.85 59.6823 102.617C59.4297 102.383 59.2474 102.087 59.1552 101.76L56.3332 95.7695L52.7539 97.9079L52.8684 99.1103Z" fill="#FFBE9D"/>
<path d="M45.9355 70.5653C47.1951 69.7229 49.4631 69.8848 50.778 70.6372C52.093 71.3896 52.769 72.394 53.0239 74.1472C53.1505 74.7603 53.2209 75.3832 53.2344 76.0085C53.1983 76.2732 53.2212 76.5424 53.3015 76.7977C53.3818 77.0531 53.5177 77.2885 53.6998 77.488C54.0692 77.848 54.6787 77.9668 54.9372 78.4096C55.023 78.5566 55.0612 78.7253 55.0469 78.8938C55.0326 79.0622 54.9664 79.2225 54.857 79.3537C54.7476 79.4848 54.6 79.5807 54.4338 79.6287C54.2675 79.6768 54.0902 79.6747 53.9251 79.6229C53.996 79.8047 53.9977 80.0052 53.93 80.1881C53.8622 80.3711 53.7295 80.5243 53.5558 80.62C53.1954 80.7978 52.7784 80.8326 52.3922 80.7172C51.7592 80.547 51.2024 80.176 50.8097 79.6629C50.4171 79.1499 50.211 78.524 50.224 77.884" fill="#263238"/>
<path d="M48.0564 118.6C41.5739 116.509 46.0212 108.16 46.0212 108.16L74.3559 110.752C74.8964 110.748 75.4322 110.849 75.9326 111.048C76.433 111.247 76.8881 111.54 77.2716 111.911C77.6551 112.282 77.9595 112.724 78.1672 113.21C78.3749 113.696 78.4819 114.218 78.4818 114.745C78.4818 115.804 78.0504 116.82 77.2823 117.569C76.5142 118.318 75.4723 118.74 74.3855 118.741L48.0675 118.6" fill="#263238"/>
<path d="M41.426 118.592C35.1097 116.515 39.4609 108.152 39.4609 108.152L67.0754 110.69C69.7718 110.723 71.0905 111.994 71.0905 114.676C71.0905 116.879 70.2483 118.74 67.0865 118.675L41.426 118.592Z" fill="#263238"/>
<path d="M47.834 109.562H47.9115H48.1442L49.0271 109.599L52.2776 109.753L62.9894 110.326C63.5102 110.351 64.0274 110.394 64.5371 110.401C65.0468 110.409 65.5529 110.43 66.0479 110.459C66.5428 110.488 67.0267 110.524 67.4995 110.574C67.9707 110.606 68.4354 110.699 68.881 110.851C69.3099 111.013 69.7007 111.258 70.0297 111.571C70.3392 111.878 70.5762 112.246 70.7241 112.651C70.8651 113.032 70.9605 113.427 71.0086 113.829C71.0591 114.197 71.0851 114.569 71.0861 114.941C71.0939 115.584 70.9683 116.222 70.7168 116.816C70.5246 117.255 70.2313 117.644 69.8598 117.954C69.6301 118.146 69.3641 118.293 69.0767 118.386C68.881 118.447 68.8773 118.426 69.0767 118.357C69.3494 118.255 69.5999 118.103 69.8155 117.911C70.1734 117.599 70.4549 117.213 70.6392 116.78C70.877 116.196 70.9913 115.57 70.9753 114.941C70.9707 114.58 70.9423 114.219 70.8904 113.861C70.8389 113.469 70.7436 113.084 70.6059 112.712C70.4613 112.323 70.232 111.968 69.9337 111.672C69.6157 111.373 69.2387 111.141 68.8256 110.988C68.3895 110.84 67.9345 110.752 67.4736 110.725C67.0045 110.675 66.5207 110.643 66.0257 110.614C65.5307 110.585 65.0321 110.567 64.526 110.56C64.02 110.552 63.4955 110.509 62.9747 110.484L52.2628 109.869L49.016 109.663L48.1295 109.595H47.9005L47.834 109.562Z" fill="#6E498E"/>
<path d="M41.5996 112.201C41.6668 112.251 41.7433 112.287 41.8249 112.309C42.0395 112.386 42.265 112.431 42.4935 112.442C42.8759 112.471 43.2603 112.418 43.6194 112.287C43.9786 112.155 44.3036 111.948 44.5715 111.681C44.8394 111.413 45.0436 111.091 45.1696 110.738C45.2956 110.385 45.3404 110.009 45.3008 109.637C45.2822 109.416 45.2312 109.197 45.1493 108.989C45.1242 108.911 45.0841 108.838 45.0311 108.773C45.1151 109.058 45.1696 109.35 45.1936 109.645C45.219 109.999 45.1672 110.355 45.0416 110.688C44.9159 111.022 44.7194 111.326 44.4647 111.58C44.2101 111.834 43.9031 112.033 43.5641 112.164C43.225 112.294 42.8614 112.354 42.4972 112.337C42.194 112.322 41.8932 112.276 41.5996 112.201Z" fill="#6E498E"/>
<path d="M49.9136 85.479C53.4301 85.8642 53.9989 88.1898 55.6389 90.4794L58.0066 94.7418L53.6701 97.3446L53.8179 103.886L55.602 109.675L39.1906 108.771L41.2148 101.931L38.8139 94.8714C38.6597 93.4262 38.7546 91.9661 39.0946 90.5514C40.3025 86.3826 43.2131 85.911 45.7951 85.2558C46.9744 85.1294 48.1641 85.1233 49.3448 85.2378" fill="#6E498E"/>
<g opacity="0.3">
<path d="M41.1113 99.8267C41.4221 101.218 41.8256 102.587 42.3192 103.927C42.6359 104.777 43.083 105.576 43.6452 106.296C44.4791 107.229 45.5887 107.888 46.8219 108.182C48.051 108.474 49.3258 108.535 50.5784 108.362L44.336 104.928L42.6775 99.3047L41.1113 99.8267Z" fill="black"/>
</g>
<path d="M53.7957 103.708C53.767 103.555 53.7522 103.399 53.7513 103.243C53.7513 102.919 53.7144 102.491 53.6886 101.976C53.6442 100.896 53.5888 99.4275 53.5371 97.7931C53.4854 96.1587 53.4485 94.6791 53.43 93.6063C53.43 93.0915 53.43 92.6631 53.43 92.3391C53.4166 92.1834 53.4166 92.0268 53.43 91.8711C53.4583 92.0244 53.4732 92.1797 53.4743 92.3355C53.4743 92.6595 53.5113 93.0879 53.5371 93.6027C53.5851 94.6827 53.6368 96.1551 53.6886 97.7895C53.7403 99.4239 53.7772 100.903 53.7957 101.973C53.7957 102.491 53.7957 102.919 53.7957 103.243C53.8091 103.398 53.8091 103.553 53.7957 103.708Z" fill="#263238"/>
<path d="M39.0957 94.8233C39.1092 94.8524 39.1203 94.8825 39.129 94.9133L39.2213 95.1833C39.3026 95.4245 39.4134 95.7737 39.5574 96.2129L40.7431 99.9461L40.6877 99.9209L47.9829 97.2965L48.1676 97.2245L48.1343 97.2821C47.6929 95.6808 47.1223 94.1159 46.4278 92.6021C45.8889 91.3585 45.1576 90.2027 44.2596 89.1749C43.9081 88.7897 43.4938 88.4637 43.0333 88.2101C42.6879 88.0133 42.2989 87.9009 41.8993 87.8825C41.8219 87.8754 41.744 87.8754 41.6666 87.8825L41.4634 87.9041C41.4006 87.9041 41.3415 87.9041 41.2898 87.9221L41.1494 87.9617L40.9611 88.0085H40.8946L40.9574 87.9833L41.1458 87.9257L41.2861 87.8861C41.3432 87.8734 41.4013 87.865 41.4597 87.8609L41.6666 87.8321C41.744 87.8268 41.8218 87.8268 41.8993 87.8321C42.3063 87.8458 42.7041 87.9544 43.0591 88.1489C43.5296 88.4005 43.953 88.728 44.3113 89.1173C45.2296 90.1436 45.9774 91.3036 46.5275 92.5553C47.2316 94.0673 47.8085 95.6324 48.2525 97.2353V97.2785H48.2082L48.0272 97.3541C45.2938 98.3513 42.7599 99.2369 40.721 99.9605H40.6803V99.9209C40.2001 98.3621 39.8012 97.0769 39.5242 96.1769C39.3875 95.7341 39.2841 95.3849 39.2102 95.1401C39.177 95.0249 39.1474 94.9349 39.129 94.8665C39.1166 94.8531 39.1055 94.8386 39.0957 94.8233Z" fill="#263238"/>
<path d="M41.7852 99.6227L43.3624 104.421C43.6278 105.306 44.1388 106.101 44.8388 106.72C45.5389 107.338 46.4009 107.757 47.3295 107.928L56.767 109.677L59.3526 109.595L58.4735 107.474L49.6861 104.087C49.3442 104.012 49.03 103.848 48.7778 103.611C48.5256 103.374 48.3453 103.074 48.2566 102.744L46.9416 97.8047L41.7852 99.6227Z" fill="#FFBE9D"/>
<path d="M50.1836 109.74L50.2649 109.143L57.5157 108.865L61.0728 100.121L74.6251 101.018L70.0523 110.723L50.1836 109.74Z" fill="#6E498E"/>
<path d="M66.4067 105.793C66.3314 105.908 66.2229 105.999 66.0948 106.054C65.9666 106.109 65.8247 106.126 65.6867 106.103C65.5488 106.079 65.4211 106.016 65.3197 105.922C65.2183 105.828 65.1478 105.707 65.117 105.574C65.0862 105.441 65.0965 105.302 65.1466 105.174C65.1967 105.047 65.2844 104.937 65.3987 104.858C65.5129 104.779 65.6485 104.735 65.7885 104.731C65.9284 104.727 66.0664 104.763 66.1851 104.836C66.2645 104.884 66.3332 104.947 66.3874 105.022C66.4415 105.096 66.48 105.181 66.5006 105.27C66.5212 105.359 66.5235 105.451 66.5074 105.541C66.4913 105.631 66.4571 105.716 66.4067 105.793Z" fill="white"/>
<path d="M48.6392 70.9744C44.1624 68.8756 41.9055 71.8384 41.2111 73.7932C41.0818 74.1532 40.9932 74.5384 40.8417 74.8912C40.6927 75.2553 40.415 75.5553 40.0587 75.7372C39.7927 75.8524 39.4898 75.8668 39.2165 75.964C38.9856 76.0527 38.7803 76.1947 38.6182 76.3778C38.456 76.5609 38.3419 76.7796 38.2857 77.0152C38.2314 77.2503 38.2257 77.4936 38.2688 77.731C38.3119 77.9683 38.4031 78.1949 38.5369 78.3976C38.6966 78.5829 38.8059 78.8046 38.8545 79.042C38.844 79.2056 38.8091 79.3669 38.7511 79.5208C38.6818 79.7942 38.7047 80.0822 38.8165 80.3419C38.9283 80.6016 39.123 80.8193 39.3717 80.9628C39.6205 81.1062 39.91 81.1677 40.1974 81.1381C40.4848 81.1086 40.7548 80.9896 40.9673 80.7988C41.1087 81.2154 41.3982 81.5691 41.7836 81.796C42.1863 81.9832 42.7773 81.814 42.8622 81.3892C42.9617 81.5958 43.1285 81.7645 43.3367 81.869C43.5448 81.9735 43.7827 82.0078 44.013 81.9667C44.2433 81.9256 44.4532 81.8113 44.6099 81.6417C44.7665 81.4721 44.8612 81.2567 44.879 81.0292" fill="#263238"/>
<path d="M44.84 73.0882C44.6036 73.1133 44.3854 73.2236 44.2283 73.3975C44.0711 73.5713 43.9862 73.7961 43.9904 74.0278L44.5297 86.5162C44.5518 87.9922 46.7459 88.8238 48.3786 88.7914C50.0149 88.759 50.0703 87.9742 50.0962 86.5738C50.1331 84.2266 50.1331 83.3338 50.1331 83.3626C50.1331 83.3914 52.2016 83.0278 52.6301 80.3998C52.8443 79.0894 52.7741 76.9474 52.6633 75.1942C52.5599 73.6174 51.4887 71.6842 49.8745 71.8498L44.84 73.0882Z" fill="#FFBE9D"/>
<path d="M51.9597 76.8979C51.9607 76.9855 51.9264 77.0699 51.8643 77.1332C51.8021 77.1965 51.717 77.2335 51.6272 77.2363C51.5824 77.2413 51.537 77.2373 51.4937 77.2246C51.4505 77.2119 51.4104 77.1908 51.3759 77.1625C51.3413 77.1342 51.313 77.0993 51.2927 77.06C51.2724 77.0207 51.2606 76.9778 51.2578 76.9339C51.2568 76.846 51.2909 76.7611 51.353 76.6973C51.415 76.6334 51.5001 76.5956 51.5903 76.5919C51.6354 76.5869 51.6811 76.591 51.7246 76.6039C51.768 76.6168 51.8083 76.6383 51.8429 76.667C51.8775 76.6956 51.9058 76.7309 51.9258 76.7707C51.9459 76.8104 51.9574 76.8537 51.9597 76.8979Z" fill="#263238"/>
<path d="M52.1937 76.3095C52.1494 76.3527 51.8871 76.1655 51.5141 76.1655C51.141 76.1655 50.8714 76.3491 50.8307 76.3023C50.7901 76.2555 50.8529 76.2051 50.9711 76.1187C51.1331 76.0106 51.325 75.9528 51.5215 75.9531C51.7154 75.9541 51.9041 76.0146 52.0607 76.1259C52.1679 76.2087 52.1937 76.2879 52.1937 76.3095Z" fill="#263238"/>
<path d="M48.3227 76.8983C48.3237 76.9865 48.289 77.0715 48.226 77.1349C48.1631 77.1982 48.077 77.2348 47.9866 77.2367C47.9416 77.2422 47.896 77.2386 47.8526 77.2261C47.8091 77.2136 47.7688 77.1926 47.7341 77.1642C47.6994 77.1358 47.6712 77.1007 47.6511 77.0611C47.6309 77.0216 47.6194 76.9784 47.6172 76.9343C47.6162 76.8464 47.6503 76.7615 47.7123 76.6977C47.7744 76.6338 47.8595 76.5961 47.9497 76.5923C47.9951 76.5868 48.0412 76.5905 48.0851 76.6032C48.129 76.6159 48.1697 76.6372 48.2047 76.6659C48.2398 76.6947 48.2683 76.7301 48.2886 76.7701C48.3089 76.8101 48.3205 76.8538 48.3227 76.8983Z" fill="#263238"/>
<path d="M48.5257 76.3774C48.4814 76.4206 48.2191 76.2298 47.8498 76.2334C47.4804 76.237 47.2034 76.4134 47.1627 76.3702C47.1221 76.327 47.1849 76.273 47.3068 76.1866C47.4659 76.0779 47.6554 76.0195 47.8498 76.0195C48.0441 76.0195 48.2337 76.0779 48.3927 76.1866C48.4999 76.2766 48.5479 76.3558 48.5257 76.3774Z" fill="#263238"/>
<path d="M49.8769 79.0697C50.0723 79.0103 50.2746 78.9752 50.479 78.9652C50.575 78.9652 50.6637 78.9364 50.6822 78.8716C50.6893 78.7764 50.6674 78.6813 50.6194 78.5981C50.527 78.3749 50.4347 78.1373 50.3386 77.8781C50.075 77.2809 49.8637 76.6631 49.707 76.0312C50.0156 76.6101 50.2762 77.212 50.4864 77.8312C50.5824 78.0796 50.6711 78.3136 50.756 78.5512C50.8157 78.6617 50.834 78.789 50.8078 78.9112C50.7933 78.9441 50.7716 78.9734 50.7441 78.9971C50.7167 79.0207 50.6842 79.0381 50.6489 79.0481C50.597 79.0613 50.5437 79.0686 50.4901 79.0697C50.2865 79.0949 50.0805 79.0949 49.8769 79.0697Z" fill="#263238"/>
<path d="M50.132 83.3537C48.862 83.371 47.6118 83.0458 46.5195 82.4141C46.5195 82.4141 47.3986 84.2141 50.0951 83.9729L50.132 83.3537Z" fill="#EB996E"/>
<path d="M49.7183 79.945C49.6474 79.8581 49.5548 79.7904 49.4494 79.7481C49.344 79.7059 49.2294 79.6907 49.1162 79.7038C49.0343 79.71 48.9546 79.7328 48.8821 79.7706C48.8096 79.8084 48.746 79.8604 48.6952 79.9234C48.6428 79.9825 48.6116 80.0567 48.6063 80.1346C48.601 80.2125 48.6218 80.29 48.6656 80.3554C48.7254 80.4204 48.8036 80.4667 48.8904 80.4884C48.9772 80.5102 49.0686 80.5065 49.1532 80.4778C49.3283 80.4151 49.4899 80.3211 49.6297 80.2006C49.6717 80.1711 49.7079 80.1345 49.7368 80.0926C49.7503 80.0722 49.7575 80.0485 49.7575 80.0242C49.7575 79.9999 49.7503 79.9762 49.7368 79.9558" fill="#FFC100"/>
<path d="M48.7802 79.3204C48.8393 79.3204 48.843 79.7092 49.1865 79.99C49.5301 80.2708 49.9622 80.2276 49.9659 80.2816C49.9696 80.3356 49.8699 80.3572 49.6889 80.3608C49.4522 80.366 49.2214 80.2881 49.0388 80.1412C48.8625 80.0015 48.7497 79.7998 48.7248 79.5796C48.7064 79.414 48.7544 79.3168 48.7802 79.3204Z" fill="#263238"/>
<path d="M48.6919 75.7413C48.655 75.8421 48.2856 75.7953 47.846 75.8457C47.4065 75.8961 47.0593 76.0113 47.0002 75.9249C46.9411 75.8385 47.0371 75.7881 47.1775 75.6945C47.3657 75.5739 47.5812 75.4998 47.8054 75.4785C48.0288 75.4526 48.2554 75.4785 48.4666 75.5541C48.6291 75.6189 48.7104 75.6945 48.6919 75.7413Z" fill="#263238"/>
<path d="M52.0495 75.2587C51.9831 75.3415 51.7245 75.2587 51.4179 75.2587C51.1113 75.2587 50.8491 75.3163 50.7863 75.2299C50.7235 75.1435 50.7863 75.1039 50.9156 75.0283C51.0677 74.9312 51.2473 74.8833 51.429 74.8915C51.6098 74.8957 51.785 74.9535 51.9313 75.0571C52.0422 75.1363 52.0754 75.2191 52.0495 75.2587Z" fill="#263238"/>
<path d="M44.2892 77.2947C44.1796 77.2367 44.0557 77.2094 43.9312 77.2157C43.8067 77.2221 43.6864 77.2619 43.5837 77.3307C43.3343 77.4726 43.1429 77.6942 43.0419 77.9579C42.941 78.2216 42.9366 78.5112 43.0296 78.7777C43.1226 79.0441 43.3073 79.2711 43.5523 79.4201C43.7973 79.569 44.0877 79.6309 44.3741 79.5951" fill="#FFBE9D"/>
<path d="M48.5295 70.9701C49.4452 71.0166 50.3342 71.2864 51.1151 71.755C51.9976 72.2022 52.6619 72.9726 52.962 73.8969C52.9998 73.9922 53.0174 74.094 53.0136 74.1962C53.0098 74.2983 52.9847 74.3986 52.9398 74.491C52.8541 74.5962 52.7336 74.6692 52.5989 74.6974C52.4641 74.7256 52.3235 74.7074 52.201 74.6458C51.9597 74.5143 51.7534 74.3293 51.599 74.1058C51.5346 74.3492 51.3884 74.5645 51.1837 74.7173C50.9789 74.8702 50.7275 74.9517 50.4696 74.9488C50.2117 74.9459 49.9623 74.8587 49.7612 74.7013C49.5602 74.5439 49.4191 74.3253 49.3605 74.0805C49.338 74.3323 49.2176 74.5661 49.024 74.7341C48.8303 74.9021 48.5781 74.9915 48.3189 74.9842C48.0602 74.9617 47.8138 74.8664 47.6098 74.7098C47.4058 74.5531 47.2531 74.342 47.1702 74.1021C47.1051 74.5566 46.9441 74.993 46.6973 75.3837C46.5685 75.5763 46.3824 75.726 46.1639 75.8129C45.9455 75.8997 45.705 75.9195 45.4747 75.8697C45.5723 76.256 45.5659 76.6602 45.4563 77.0434C45.3962 77.2331 45.2654 77.394 45.0898 77.4946C44.9141 77.5952 44.7062 77.6281 44.507 77.5869C44.1376 77.4645 43.9861 77.0326 43.9012 76.6582C43.7087 75.9375 43.6106 75.196 43.6094 74.4513C43.6126 73.7036 43.8568 72.9757 44.3075 72.3705C44.8141 71.7734 45.5087 71.3558 46.2836 71.1826C47.052 71.0086 47.8412 70.9383 48.6292 70.9737" fill="#263238"/>
<path d="M44.0996 78.8084C44.0996 78.7904 43.9961 78.83 43.8669 78.7724C43.7868 78.7282 43.7219 78.6619 43.6805 78.5818C43.6391 78.5017 43.6229 78.4114 43.6341 78.3224C43.6352 78.2325 43.663 78.1449 43.7141 78.0702C43.7653 77.9954 43.8376 77.9367 43.9222 77.9012C44.0552 77.8472 44.155 77.8724 44.1624 77.8544C44.1697 77.8364 44.07 77.7716 43.8927 77.8076C43.7896 77.8349 43.6971 77.8913 43.6268 77.9696C43.5441 78.0726 43.4975 78.1988 43.4938 78.3296C43.4801 78.4446 43.5061 78.5608 43.5676 78.6599C43.6291 78.7589 43.7227 78.8352 43.8336 78.8768C44.0146 78.9092 44.1143 78.8192 44.0996 78.8084Z" fill="#EB996E"/>
<path d="M51.7763 71.2833C51.2544 71.0233 50.7009 70.8285 50.1289 70.7037C49.5083 70.5817 48.8702 70.5695 48.2451 70.6677C47.4795 70.7752 46.7515 71.0602 46.1222 71.4986C45.493 71.9371 44.9809 72.5164 44.6289 73.1877C44.3349 73.7349 44.1423 74.3284 44.0601 74.9409C44.0018 75.5091 44.0143 76.082 44.097 76.6473C44.0353 76.5032 43.9931 76.352 43.9714 76.1973C43.8944 75.778 43.8782 75.3502 43.9234 74.9265C43.9882 74.2927 44.1736 73.6761 44.4701 73.1085C44.8244 72.4043 45.3517 71.7963 46.0051 71.3385C46.6585 70.8806 47.4178 70.5872 48.2155 70.4841C48.8623 70.3924 49.5207 70.4168 50.1584 70.5561C50.585 70.6515 50.9963 70.8029 51.3811 71.0061C51.5267 71.0781 51.66 71.1716 51.7763 71.2833Z" fill="#FFC100"/>
<path d="M47.6249 95.5938C47.2665 95.7437 46.8958 95.8641 46.5168 95.9538C45.8297 96.1482 44.8804 96.4182 43.8425 96.7458C42.8046 97.0734 41.87 97.3937 41.1941 97.6277C40.8347 97.7752 40.4642 97.8956 40.0859 97.9877C40.4232 97.7996 40.7767 97.6406 41.1424 97.5125C41.8072 97.2461 42.7344 96.9042 43.7797 96.5766C44.825 96.249 45.7817 95.997 46.4798 95.8314C46.8538 95.72 47.2369 95.6405 47.6249 95.5938Z" fill="#FAFAFA"/>
<path d="M46.9295 93.834C46.9295 93.8844 45.3117 94.5288 43.2764 95.274C41.2412 96.0192 39.5827 96.5916 39.5531 96.5412C39.5236 96.4908 41.171 95.8464 43.2099 95.1012C45.2489 94.356 46.9111 93.7944 46.9295 93.834Z" fill="#FAFAFA"/>
<path d="M55.6763 90.9121C55.6763 90.9625 53.7777 91.6321 51.3989 92.4385C49.0201 93.2449 47.0772 93.8389 47.0587 93.7885C47.0403 93.7381 48.9573 93.0685 51.3361 92.2621C53.7149 91.4557 55.6578 90.8725 55.6763 90.9121Z" fill="#FAFAFA"/>
<path d="M53.302 93.7656C52.4271 94.1483 51.5276 94.4754 50.6093 94.7448C49.712 95.0747 48.7926 95.3442 47.8574 95.5512C48.7296 95.1641 49.6281 94.8357 50.5465 94.5684C51.4452 94.2403 52.3659 93.9721 53.302 93.7656Z" fill="#FAFAFA"/>
<path d="M56.46 92.4141C56.0377 92.6998 55.5812 92.9343 55.1007 93.1125C54.645 93.3458 54.161 93.5223 53.6602 93.6381C54.5365 93.1161 55.4773 92.7048 56.46 92.4141Z" fill="#FAFAFA"/>
<path d="M116 67.168C116 67.168 116 67.1053 116 66.98C116 66.8547 116 66.6667 116 66.416C116 65.9008 116 65.1349 116 64.0905V64.0627H115.983C111.467 64.0244 97.6172 64 81.2627 64L47.0378 64.0592H47.0189V64.0905C47.0189 65.3856 47.0189 66.3615 47.0189 67.0183C47.0189 67.342 47.0189 67.5857 47.0189 67.7528C47.0189 67.9199 47.0189 68 47.0189 68C47.0189 68 47.0189 67.9164 47.0189 67.7528C47.0189 67.5892 47.0189 67.342 47.0189 67.0183C47.0189 66.3592 47.0189 65.3832 47.0189 64.0905L47 64.1218L81.2249 64.181C97.5794 64.181 111.429 64.1532 115.945 64.1184L115.929 64.0905C115.929 65.1349 115.929 65.9008 115.929 66.416C115.929 66.6667 115.929 66.8512 115.929 66.98C115.929 67.1088 116 67.168 116 67.168Z" fill="#263238"/>
<path d="M26.7426 113.912C26.5357 113.116 27.075 112.32 27.6808 111.752C28.2865 111.183 28.9994 110.672 29.3171 109.905C29.8305 108.674 29.1583 107.072 30.0263 106.046C30.5397 105.444 31.4484 105.246 31.9027 104.606C32.1122 104.249 32.2513 103.857 32.3127 103.45C32.8047 101.4 33.852 99.5169 35.3453 97.9961C35.4354 99.8256 35.0182 101.645 34.1374 103.263C33.7681 103.907 33.3507 104.537 33.2325 105.257C33.0367 106.431 33.7016 107.644 33.3987 108.796C33.0552 110.11 31.5296 110.985 31.4484 112.342C31.3819 113.49 32.4014 114.502 32.3201 115.647C32.2559 116.134 32.0736 116.599 31.7882 117.004C30.8685 118.473 29.5276 119.481 27.4998 119.438L25.0176 119.51L26.7426 113.912Z" fill="#6DCDCB"/>
<g opacity="0.3">
<path d="M26.7426 113.912C26.5357 113.116 27.075 112.32 27.6808 111.752C28.2865 111.183 28.9994 110.672 29.3171 109.905C29.8305 108.674 29.1583 107.072 30.0263 106.046C30.5397 105.444 31.4484 105.246 31.9027 104.606C32.1122 104.249 32.2513 103.857 32.3127 103.45C32.8047 101.4 33.852 99.5169 35.3453 97.9961C35.4354 99.8256 35.0182 101.645 34.1374 103.263C33.7681 103.907 33.3507 104.537 33.2325 105.257C33.0367 106.431 33.7016 107.644 33.3987 108.796C33.0552 110.11 31.5296 110.985 31.4484 112.342C31.3819 113.49 32.4014 114.502 32.3201 115.647C32.2559 116.134 32.0736 116.599 31.7882 117.004C30.8685 118.473 29.5276 119.481 27.4998 119.438L25.0176 119.51L26.7426 113.912Z" fill="black"/>
</g>
<path d="M24.5153 119.563C24.2881 119.594 24.0571 119.588 23.8319 119.545C23.5571 119.503 23.2872 119.434 23.0267 119.339C22.6671 119.216 22.3312 119.035 22.0331 118.803C21.8536 118.662 21.7138 118.478 21.6268 118.27C21.553 118.037 21.5144 117.794 21.5123 117.55C21.5093 117.288 21.492 117.026 21.4606 116.765C21.4134 116.49 21.3118 116.226 21.1614 115.988C20.8733 115.484 20.3894 115.009 20.2342 114.325C20.12 113.62 20.1476 112.901 20.3155 112.208C20.5001 111.458 20.4849 110.675 20.2712 109.933C20.0089 109.177 19.4696 108.493 19.2 107.636C18.9303 106.779 19.067 105.836 19.0153 104.932C19.0018 104.467 18.8938 104.01 18.6976 103.586C18.5019 103.157 18.2248 102.754 18.0106 102.301C17.5747 101.386 17.5045 100.353 17.39 99.3413C17.3309 98.8301 17.2755 98.3153 17.2201 97.7933C17.1871 97.2697 17.098 96.7509 16.9542 96.2453C16.7888 95.7341 16.5927 95.2328 16.3669 94.7441C16.2517 94.4912 16.1566 94.23 16.0825 93.9629C16.0435 93.6859 16.0188 93.4072 16.0086 93.1277C15.9847 92.5686 16.0107 92.0085 16.0862 91.4537C16.1563 90.8957 16.2634 90.3449 16.3262 89.7833V89.6897V89.5781L16.426 89.6285C16.9513 89.8913 17.4066 90.2697 17.7557 90.7337C18.0979 91.1865 18.3716 91.6847 18.5683 92.2133C18.9121 93.2467 19.1594 94.3082 19.3071 95.3849C19.4551 96.4129 19.7943 97.406 20.3081 98.3153C20.5778 98.7473 20.9028 99.1433 21.1909 99.5645C21.4963 99.9754 21.7033 100.448 21.7967 100.947C21.937 101.973 21.3534 102.866 21.4716 103.773C21.5265 104.219 21.6776 104.648 21.9149 105.033C22.1402 105.418 22.4025 105.778 22.6536 106.142C22.9098 106.494 23.1311 106.869 23.3148 107.261C23.4875 107.645 23.5888 108.056 23.614 108.475C23.6694 109.292 23.5438 110.066 23.614 110.797C23.6786 111.492 23.8818 112.168 24.2124 112.787C24.5116 113.385 24.8403 113.925 25.1174 114.447C25.2541 114.699 25.3774 114.957 25.4867 115.221C25.5845 115.469 25.6563 115.726 25.701 115.988C25.7692 116.445 25.7692 116.909 25.701 117.367C25.634 118.006 25.3845 118.615 24.9807 119.123C24.9207 119.2 24.854 119.271 24.7812 119.336C24.7311 119.386 24.6753 119.431 24.615 119.469L24.4747 119.566C24.6511 119.428 24.8132 119.274 24.9585 119.105C25.3427 118.594 25.5787 117.99 25.6419 117.359C25.6991 116.907 25.6904 116.449 25.616 115.999C25.5735 115.742 25.5016 115.491 25.4018 115.25C25.2984 115.001 25.1691 114.746 25.0324 114.487C24.7517 113.968 24.4193 113.432 24.1164 112.831C23.7732 112.202 23.561 111.513 23.4921 110.804C23.433 110.059 23.5512 109.281 23.4921 108.485C23.468 108.08 23.3691 107.683 23.2003 107.312C23.0179 106.927 22.8004 106.56 22.5502 106.214C22.299 105.854 22.0331 105.494 21.8115 105.098C21.5733 104.698 21.4247 104.254 21.3756 103.795C21.2611 102.83 21.841 101.926 21.6969 100.976C21.6037 100.498 21.4031 100.047 21.1097 99.6545C20.8289 99.2405 20.5002 98.8445 20.2231 98.4017C19.6992 97.4766 19.3514 96.4667 19.1963 95.4209C19.0484 94.3525 18.8011 93.2993 18.4575 92.2745C18.2653 91.7605 17.9991 91.2757 17.6671 90.8345C17.3336 90.3834 16.8974 90.0138 16.3927 89.7545L16.5072 89.6933V89.7905C16.4407 90.3593 16.3336 90.9101 16.2635 91.4645C16.1929 92.0112 16.1681 92.5627 16.1896 93.1133C16.1896 93.3797 16.2191 93.6641 16.2598 93.9197C16.3301 94.1789 16.4227 94.4318 16.5368 94.6757C16.7635 95.169 16.9596 95.6751 17.1241 96.1913C17.2709 96.7049 17.3613 97.2323 17.3937 97.7645C17.4528 98.2865 17.5083 98.8013 17.5637 99.3125C17.6745 100.331 17.7483 101.347 18.1657 102.229C18.3726 102.668 18.6496 103.075 18.8528 103.517C19.0525 103.958 19.1629 104.432 19.1778 104.914C19.2258 105.847 19.0966 106.761 19.3514 107.589C19.6063 108.417 20.1419 109.101 20.4078 109.882C20.6257 110.642 20.6397 111.444 20.4485 112.211C20.2794 112.893 20.2481 113.599 20.3561 114.292C20.4965 114.944 20.9656 115.415 21.2611 115.934C21.4152 116.182 21.5181 116.457 21.564 116.744C21.5939 117.007 21.61 117.271 21.612 117.536C21.6104 117.779 21.644 118.021 21.7117 118.256C21.7907 118.453 21.9175 118.628 22.0811 118.767C22.3702 118.998 22.6974 119.179 23.0489 119.303C23.3055 119.401 23.5716 119.473 23.843 119.519C24.0101 119.549 24.1793 119.566 24.3491 119.57L24.5153 119.563Z" fill="#263238"/>
<path d="M16.8392 91.0195L16.8614 91.0951C16.8614 91.1527 16.8946 91.2247 16.9131 91.3111C16.9611 91.5019 17.0202 91.7899 17.1089 92.1499C17.1975 92.5099 17.4302 92.9167 17.6186 93.4171C17.807 93.9175 18.0138 94.4971 18.1985 95.1379C18.3832 95.7787 18.5457 96.4987 18.7193 97.2691C18.8657 98.0888 19.128 98.8848 19.4987 99.6343C19.7019 100.03 19.9272 100.43 20.1082 100.866C20.2827 101.313 20.3994 101.78 20.4554 102.255C20.5754 103.24 20.7481 104.218 20.9725 105.186C21.4601 107.169 21.9218 109.059 22.3429 110.78C22.764 112.501 23.1666 114.045 23.4954 115.348C23.8241 116.652 24.0716 117.688 24.2563 118.426L24.4557 119.269C24.4557 119.355 24.489 119.427 24.5038 119.488C24.5065 119.513 24.5065 119.539 24.5038 119.564C24.4919 119.541 24.4832 119.517 24.4779 119.492L24.4114 119.276C24.356 119.074 24.2821 118.794 24.1861 118.444L23.3735 115.374C23.0373 114.074 22.6347 112.53 22.1915 110.816C21.7482 109.102 21.2976 107.216 20.8063 105.218C20.5803 104.247 20.4077 103.265 20.2892 102.277C20.2363 101.812 20.1233 101.356 19.9531 100.92C19.7795 100.495 19.5578 100.099 19.3547 99.6991C18.9833 98.9363 18.7223 98.127 18.579 97.2943C18.4128 96.5239 18.2576 95.8111 18.0766 95.1667C17.8956 94.5223 17.7073 93.9463 17.5226 93.4495C17.3379 92.9527 17.1273 92.5387 17.0387 92.1679C16.95 91.7971 16.9094 91.5127 16.8725 91.3183C16.8725 91.2283 16.8429 91.1563 16.8355 91.0987C16.8326 91.0723 16.8338 91.0456 16.8392 91.0195Z" fill="#263238"/>
<path d="M24.0749 119.566C22.4608 118.619 22.0101 115.764 22.6972 114.054C23.3842 112.344 24.5773 110.778 24.7694 108.95C24.9171 107.546 24.4554 106.098 24.7989 104.727C25.2643 102.873 27.1297 101.447 27.1186 99.5392C27.1186 98.4592 26.4944 97.462 26.5498 96.3928C26.6199 95.0824 27.6579 94.0456 28.3043 92.8936C29.2942 91.1332 29.3681 89.0416 29.7153 87.0616C30.0625 85.0816 30.8493 82.9648 32.6703 82C32.9252 83.6848 33.3721 84.8404 33.217 87.1192C33.1616 87.9364 32.1754 89.4988 32.0313 91.2916C31.9463 92.3716 31.8872 93.4516 31.8134 94.51C31.7951 95.5579 31.6133 96.597 31.2741 97.5916C30.9749 98.3404 30.4984 99.0316 30.2768 99.7912C29.8557 101.231 30.3876 102.819 30.0478 104.291C29.7596 105.537 28.8658 106.606 28.6774 107.873C28.4114 109.648 29.5823 111.506 28.9692 113.198C28.6626 114.036 27.9497 114.71 27.7429 115.577C27.5803 116.25 27.7429 116.967 27.6025 117.644C27.3698 118.724 25.2274 119.57 24.086 119.494" fill="#6DCDCB"/>
<path d="M32.2027 83.668C32.2068 83.7002 32.2068 83.7329 32.2027 83.7652C32.2027 83.8336 32.1806 83.9272 32.1658 84.0388C32.1252 84.2836 32.0809 84.64 31.9959 85.1008C31.9109 85.5616 31.6524 86.0872 31.4529 86.7136C31.2535 87.34 31.0318 88.0636 30.8471 88.8736C30.6625 89.6836 30.4778 90.58 30.33 91.5448C30.1917 92.585 29.9057 93.6016 29.4805 94.5652C29.2477 95.0692 28.9929 95.5732 28.7971 96.1096C28.6074 96.6618 28.4895 97.2351 28.4462 97.816C28.3473 99.049 28.1809 100.276 27.9476 101.492C27.4378 103.983 26.9502 106.355 26.507 108.515C26.0637 110.675 25.6205 112.605 25.2659 114.236C24.9113 115.866 24.6195 117.17 24.4163 118.088C24.3166 118.534 24.2353 118.883 24.1799 119.135C24.1504 119.248 24.1282 119.338 24.1134 119.405C24.1134 119.466 24.0876 119.499 24.0839 119.495C24.0814 119.464 24.0814 119.433 24.0839 119.402C24.0839 119.333 24.1134 119.243 24.1356 119.128C24.1873 118.876 24.2575 118.523 24.3462 118.077C24.5382 117.152 24.8079 115.838 25.144 114.214C25.4801 112.59 25.8828 110.639 26.3519 108.486C26.821 106.334 27.2716 103.958 27.7813 101.466C28.0116 100.254 28.1768 99.0307 28.2763 97.8016C28.3251 97.2081 28.4491 96.6229 28.6457 96.0592C28.8451 95.512 29.1074 95.0044 29.3364 94.504C29.7619 93.5539 30.049 92.5506 30.1897 91.5232C30.3633 90.562 30.5295 89.662 30.7289 88.8484C30.9284 88.0348 31.1427 87.3148 31.3606 86.6884C31.5785 86.062 31.826 85.54 31.9257 85.0864C32.0254 84.6328 32.0772 84.2764 32.1252 84.0352C32.1474 83.92 32.1658 83.83 32.1806 83.7616C32.1837 83.7295 32.1911 83.6981 32.2027 83.668Z" fill="#263238"/>
</svg>
