<svg width="133" height="123" viewBox="0 0 133 123" fill="none" xmlns="http://www.w3.org/2000/svg">
<g clip-path="url(#clip0_3497_30906)">
<path d="M136.873 107.033C136.873 107.014 114.486 107 86.8761 107C59.2661 107 36.873 107.02 36.873 107.033C36.873 107.046 59.2555 107.066 86.8761 107.066C114.497 107.066 136.873 107.057 136.873 107.033Z" fill="#263238"/>
<path d="M59.3089 28.4062C59.3606 28.4062 59.405 30.6441 59.405 33.4062C59.405 36.1684 59.3606 38.4062 59.3089 38.4062C59.2572 38.4062 59.2129 36.1684 59.2129 33.4062C59.2129 30.6441 59.2535 28.4062 59.3089 28.4062Z" fill="#263238"/>
<path d="M84.4515 28.4062C84.5032 28.4062 84.5476 30.6441 84.5476 33.4062C84.5476 36.1684 84.5032 38.4062 84.4515 38.4062C84.3998 38.4062 84.3555 36.1684 84.3555 33.4062C84.3555 30.6441 84.3998 28.4062 84.4515 28.4062Z" fill="#263238"/>
<path d="M108.972 20C108.972 20 108.972 20.108 108.972 20.324C108.972 20.54 108.972 20.8604 108.972 21.278C108.972 22.124 108.972 23.3696 108.984 24.9824C108.984 28.2224 108.984 32.9276 109 38.8424V38.918H108.96L71.1031 38.9504L32.04 38.918H32V38.8604C32 33.5 32.0141 29.2556 32.0188 26.3468C32.0188 24.9068 32.0188 23.78 32.0188 23.024C32.0188 22.664 32.0188 22.3616 32.0188 22.1672C32.0188 21.9728 32.0188 21.8792 32.0188 21.8792C32.0188 21.8792 32.0188 21.9764 32.0188 22.1672C32.0188 22.358 32.0188 22.6496 32.0188 23.024C32.0188 23.78 32.0188 24.896 32.0188 26.3468C32.0188 29.2556 32.0188 33.5 32.0376 38.8604L32 38.8028L71.0749 38.7668L108.932 38.7992L108.892 38.8604C108.892 32.942 108.906 28.2332 108.911 25.0004C108.911 23.3876 108.911 22.142 108.911 21.296C108.911 20.8784 108.911 20.576 108.911 20.342C108.911 20.108 108.972 20 108.972 20Z" fill="#263238"/>
<path d="M77.5042 52.3845C77.4488 52.3845 77.4082 49.3461 77.4082 45.5985C77.4082 41.8509 77.4488 38.8125 77.5042 38.8125C77.5596 38.8125 77.6003 41.8509 77.6003 45.5985C77.6003 49.3461 77.5559 52.3845 77.5042 52.3845Z" fill="#263238"/>
<path d="M90.1931 25.3435H78.6767C78.2947 25.3435 77.9283 25.1956 77.6582 24.9323C77.3881 24.669 77.2363 24.3119 77.2363 23.9396V8.40386C77.2363 8.03153 77.3881 7.67445 77.6582 7.41118C77.9283 7.14791 78.2947 7 78.6767 7H85.9816L91.6335 12.6882V23.9487C91.631 24.3195 91.4782 24.6742 91.2083 24.9355C90.9385 25.1968 90.5735 25.3435 90.1931 25.3435Z" fill="#6DCDCB"/>
<g opacity="0.2">
<path d="M77.5258 19.7812H91.344C91.4208 19.7813 91.4944 19.811 91.5487 19.8639C91.603 19.9168 91.6335 19.9886 91.6335 20.0634V23.8722C91.6335 24.2633 91.4741 24.6383 91.1904 24.9148C90.9067 25.1913 90.5219 25.3466 90.1207 25.3466H78.7491C78.3479 25.3466 77.9631 25.1913 77.6794 24.9148C77.3957 24.6383 77.2363 24.2633 77.2363 23.8722V20.0634C77.2363 19.9886 77.2668 19.9168 77.3211 19.8639C77.3754 19.811 77.449 19.7812 77.5258 19.7812Z" fill="black"/>
</g>
<g opacity="0.2">
<path d="M85.9824 7V11.3731C85.9837 11.7187 86.1254 12.0497 86.3766 12.2937C86.6277 12.5376 86.9679 12.6746 87.3225 12.6746H91.6344L85.9824 7Z" fill="white"/>
</g>
<g opacity="0.2">
<path d="M86.0394 11.7656C86.0394 11.7656 85.9834 12.8259 87.2207 13.174C87.2674 13.1877 87.3165 13.1968 87.3631 13.2059C87.9258 13.3037 91.633 13.9476 91.633 13.8635V12.6757H87.3211C87.3211 12.6757 86.2426 12.6439 86.0394 11.7656Z" fill="black"/>
</g>
<path d="M81.3589 22.2025C81.3737 21.9674 81.4589 21.7418 81.6041 21.5536C81.7493 21.3654 81.948 21.2229 82.1756 21.1439C82.4032 21.0649 82.6496 21.0528 82.8842 21.1091C83.1188 21.1654 83.3312 21.2877 83.4951 21.4607L83.1519 21.7588C83.0837 21.6779 82.9977 21.6131 82.9003 21.569C82.8029 21.5249 82.6966 21.5026 82.5893 21.504C82.3992 21.504 82.2169 21.5775 82.0825 21.7085C81.9481 21.8395 81.8725 22.0172 81.8725 22.2025C81.8725 22.3877 81.9481 22.5654 82.0825 22.6964C82.2169 22.8274 82.3992 22.901 82.5893 22.901C82.697 22.9019 82.8036 22.8791 82.9011 22.8342C82.9985 22.7892 83.0843 22.7234 83.1519 22.6416L83.4857 22.9397C83.3226 23.1136 83.1106 23.2368 82.876 23.2939C82.6415 23.351 82.3949 23.3395 82.167 23.2609C81.9392 23.1823 81.7401 23.0399 81.5947 22.8517C81.4494 22.6635 81.3641 22.4376 81.3496 22.2025H81.3589Z" fill="#FAFAFA"/>
<path d="M83.6465 23.0791L83.8239 22.6969C84.0406 22.8435 84.2978 22.9228 84.5616 22.9244C84.8698 22.9244 84.9935 22.8266 84.9935 22.6969C84.9935 22.2873 83.6908 22.5694 83.6908 21.7572C83.6908 21.3863 83.999 21.0746 84.6363 21.0746C84.9087 21.0687 85.1775 21.1356 85.4137 21.268L85.2527 21.6502C85.0644 21.5416 84.8504 21.4828 84.6317 21.4796C84.3258 21.4796 84.2068 21.5911 84.2068 21.7276C84.2068 22.1303 85.5095 21.8527 85.5095 22.6536C85.5095 23.0199 85.199 23.3362 84.5593 23.3362C84.2355 23.3416 83.9174 23.2521 83.6465 23.0791Z" fill="#FAFAFA"/>
<path d="M85.6875 23.0792L85.8626 22.6969C86.0804 22.8433 86.3382 22.9225 86.6026 22.9245C86.9085 22.9245 87.0345 22.8266 87.0345 22.6969C87.0345 22.2874 85.7319 22.5695 85.7319 21.7572C85.7319 21.3864 86.04 21.0746 86.6657 21.0746C86.9381 21.0682 87.2071 21.1352 87.4431 21.268L87.2843 21.6503C87.0961 21.5417 86.8821 21.4829 86.6633 21.4796C86.3552 21.4796 86.2385 21.5911 86.2385 21.7277C86.2385 22.1304 87.5388 21.8528 87.5388 22.6537C87.5388 23.02 87.2306 23.3363 86.591 23.3363C86.2703 23.3403 85.9556 23.2508 85.6875 23.0792Z" fill="#FAFAFA"/>
<path d="M82.09 15.1378C82.3234 15.2084 82.4355 15.3653 82.4355 15.6998V16.503C82.4288 16.5527 82.4338 16.6031 82.4501 16.6506C82.4663 16.6981 82.4935 16.7414 82.5295 16.7771C82.5655 16.8129 82.6094 16.8402 82.6578 16.8569C82.7062 16.8737 82.7579 16.8795 82.809 16.8739H82.9024V17.4859H82.6036C81.9616 17.4859 81.6324 17.1651 81.6324 16.5758V15.6657C81.6361 15.6349 81.6327 15.6037 81.6223 15.5745C81.6119 15.5452 81.5948 15.5186 81.5723 15.4967C81.5498 15.4748 81.5226 15.4581 81.4925 15.448C81.4625 15.4379 81.4305 15.4345 81.3989 15.4382H81.2285V14.8329H81.3989C81.4304 14.8361 81.4622 14.8325 81.492 14.8222C81.5219 14.8119 81.549 14.7952 81.5713 14.7734C81.5937 14.7516 81.6108 14.7252 81.6214 14.6961C81.6319 14.6671 81.6357 14.6361 81.6324 14.6054V13.6953C81.6324 13.1173 81.9616 12.7852 82.6036 12.7852H82.9024V13.3972H82.809C82.7579 13.3916 82.7062 13.3974 82.6578 13.4142C82.6094 13.4309 82.5655 13.4582 82.5295 13.4939C82.4935 13.5297 82.4663 13.5729 82.4501 13.6204C82.4338 13.6679 82.4288 13.7184 82.4355 13.7681V14.5713C82.4355 14.9239 82.3258 15.0696 82.09 15.1378Z" fill="#FAFAFA"/>
<path d="M87.6344 14.8339V15.446H87.4663C87.4348 15.4423 87.4028 15.4457 87.3727 15.4558C87.3427 15.466 87.3154 15.4826 87.293 15.5045C87.2705 15.5264 87.2534 15.553 87.243 15.5823C87.2326 15.6115 87.2291 15.6427 87.2329 15.6735V16.5836C87.2329 17.1615 86.9037 17.4937 86.2594 17.4937H85.9629V16.8749H86.0539C86.1052 16.8808 86.1572 16.8753 86.2059 16.8587C86.2546 16.8421 86.2988 16.8149 86.3351 16.7791C86.3713 16.7433 86.3987 16.6999 86.4151 16.6523C86.4316 16.6046 86.4366 16.5538 86.4298 16.504V15.7008C86.4298 15.355 86.5372 15.2093 86.7753 15.1388C86.5419 15.0705 86.4298 14.9249 86.4298 14.5791V13.7759C86.4366 13.726 86.4316 13.6753 86.4151 13.6276C86.3987 13.5799 86.3713 13.5365 86.3351 13.5008C86.2988 13.465 86.2546 13.4377 86.2059 13.4211C86.1572 13.4046 86.1052 13.399 86.0539 13.405H85.9629V12.793H86.2594C86.9037 12.793 87.2329 13.1138 87.2329 13.7031V14.6132C87.2329 14.7748 87.3193 14.8407 87.4663 14.8407L87.6344 14.8339Z" fill="#FAFAFA"/>
<path d="M115.335 25.3435H103.821C103.439 25.3435 103.073 25.1956 102.803 24.9323C102.533 24.669 102.381 24.3119 102.381 23.9396V8.40386C102.381 8.03153 102.533 7.67445 102.803 7.41118C103.073 7.14791 103.439 7 103.821 7H111.124L116.769 12.6746V23.9351C116.769 24.3068 116.619 24.6637 116.35 24.9276C116.082 25.1915 115.717 25.3411 115.335 25.3435Z" fill="#6DCDCB"/>
<path d="M112.443 17.8708C112.443 17.8708 112.539 17.8708 112.714 17.8321C112.969 17.7739 113.201 17.6442 113.381 17.459C113.51 17.329 113.609 17.1739 113.671 17.0039C113.706 16.9053 113.728 16.8029 113.739 16.699C113.739 16.5921 113.739 16.4715 113.739 16.3577C113.739 15.8799 113.739 15.3384 113.739 14.74C113.739 14.4397 113.739 14.1257 113.739 13.8003C113.739 13.6365 113.739 13.4704 113.739 13.2997C113.746 13.1298 113.734 12.9595 113.701 12.7923C113.622 12.4455 113.412 12.1403 113.113 11.9368C112.96 11.8284 112.786 11.751 112.602 11.7093C112.409 11.6722 112.212 11.6585 112.016 11.6683L106.73 11.6752C106.508 11.6978 106.294 11.7715 106.106 11.8901C105.918 12.0087 105.762 12.169 105.649 12.3578C105.536 12.5398 105.47 12.7459 105.456 12.9584C105.456 13.17 105.456 13.393 105.456 13.6069C105.456 14.4692 105.456 15.2997 105.456 16.0938C105.456 16.2895 105.456 16.492 105.456 16.674C105.476 16.8566 105.536 17.0328 105.633 17.1905C105.724 17.3419 105.846 17.4738 105.991 17.5782C106.136 17.6826 106.301 17.7574 106.476 17.798C106.647 17.8295 106.82 17.8417 106.994 17.8344H107.508H108.474L111.385 17.8526H112.177H112.385H112.455C112.431 17.8556 112.408 17.8556 112.385 17.8526H112.177H111.385L108.474 17.8708H107.508H106.994C106.813 17.8806 106.631 17.8691 106.452 17.8367C106.263 17.7935 106.085 17.7136 105.928 17.6018C105.771 17.49 105.639 17.3486 105.54 17.1859C105.435 17.0314 105.364 16.8581 105.33 16.6763C105.313 16.4738 105.33 16.2849 105.33 16.0847C105.33 15.2906 105.33 14.4601 105.33 13.5978C105.33 13.3703 105.33 13.1678 105.33 12.9402C105.343 12.7101 105.415 12.4867 105.537 12.2895C105.66 12.0871 105.829 11.9154 106.032 11.7882C106.234 11.661 106.465 11.5818 106.705 11.5568C108.593 11.5432 110.372 11.5568 111.999 11.5568C112.204 11.5471 112.41 11.5624 112.611 11.6024C112.898 11.6701 113.16 11.8153 113.366 12.0214C113.573 12.2274 113.716 12.4859 113.778 12.7673C113.812 12.9412 113.825 13.1184 113.816 13.2952C113.816 13.4658 113.816 13.6319 113.816 13.7957C113.816 14.1211 113.816 14.4351 113.816 14.7354C113.816 15.3338 113.816 15.8731 113.816 16.3532C113.816 16.4715 113.816 16.5807 113.816 16.7013C113.803 16.8092 113.778 16.9153 113.741 17.0176C113.673 17.1962 113.567 17.359 113.43 17.4954C113.24 17.6823 112.996 17.8084 112.73 17.8572C112.636 17.8754 112.539 17.88 112.443 17.8708Z" fill="#FAFAFA"/>
<path d="M113.734 17.1382C113.703 17.1129 113.676 17.0847 113.652 17.0541L113.43 16.797L112.641 15.8436L112.099 15.1747L111.798 14.8038C111.747 14.7424 111.693 14.6787 111.642 14.6127C111.591 14.5568 111.526 14.5158 111.453 14.4944C111.377 14.4714 111.296 14.4709 111.22 14.4928C111.144 14.5146 111.076 14.5579 111.025 14.6172L110.68 15.0495L109.952 15.9596L109.627 16.3669L109.585 16.4193L109.536 16.3737L108.754 15.6297L108.567 15.4545C108.515 15.3963 108.453 15.3477 108.383 15.3112C108.317 15.281 108.244 15.2672 108.171 15.2712C108.098 15.2752 108.027 15.2967 107.965 15.3339C107.903 15.3763 107.848 15.426 107.799 15.4818L107.638 15.6434L107.332 15.9505L106.781 16.4989L105.983 17.2839L105.763 17.4932C105.739 17.5183 105.711 17.5405 105.682 17.5592C105.682 17.5592 105.7 17.5296 105.747 17.4773C105.794 17.4249 105.868 17.343 105.95 17.2497L106.721 16.4397L107.262 15.88L107.563 15.5683L107.722 15.4067C107.776 15.3441 107.838 15.2883 107.906 15.2406C107.984 15.1927 108.072 15.1644 108.163 15.1585C108.255 15.1525 108.346 15.169 108.429 15.2065C108.511 15.247 108.585 15.3018 108.647 15.3681L108.836 15.5433L109.62 16.2827H109.531C109.634 16.153 109.746 16.0165 109.856 15.8755L110.587 14.9653L110.937 14.533C111.003 14.4577 111.09 14.4029 111.187 14.3754C111.285 14.3479 111.388 14.3489 111.485 14.3783C111.577 14.4073 111.658 14.4609 111.719 14.533L111.878 14.7287L112.174 15.1019L112.704 15.7731L113.463 16.7514L113.666 17.0199C113.715 17.0996 113.734 17.1337 113.734 17.1382Z" fill="#FAFAFA"/>
<path d="M109.245 14.1068C109.245 14.1068 109.312 14.1068 109.422 14.0613C109.577 14.0158 109.713 13.9214 109.807 13.7928C109.885 13.6913 109.932 13.5708 109.943 13.4447C109.955 13.3185 109.93 13.1918 109.872 13.0787C109.813 12.9655 109.724 12.8704 109.613 12.8039C109.503 12.7374 109.376 12.7022 109.246 12.7022C109.116 12.7022 108.988 12.7374 108.878 12.8039C108.767 12.8704 108.678 12.9655 108.62 13.0787C108.561 13.1918 108.537 13.3185 108.548 13.4447C108.559 13.5708 108.607 13.6913 108.684 13.7928C108.778 13.9207 108.913 14.015 109.067 14.0613C109.179 14.0954 109.247 14.0977 109.245 14.1068C109.242 14.1159 109.179 14.1273 109.058 14.1068C108.884 14.0731 108.727 13.9804 108.617 13.8451C108.533 13.7434 108.477 13.6225 108.455 13.4939C108.432 13.3653 108.444 13.2333 108.488 13.1102C108.543 12.9571 108.645 12.8243 108.78 12.7304C108.916 12.6364 109.078 12.5859 109.245 12.5859C109.411 12.5859 109.573 12.6364 109.709 12.7304C109.844 12.8243 109.946 12.9571 110.001 13.1102C110.046 13.2331 110.058 13.365 110.036 13.4936C110.014 13.6222 109.958 13.7432 109.875 13.8451C109.764 13.9804 109.608 14.0731 109.434 14.1068C109.372 14.1244 109.306 14.1244 109.245 14.1068Z" fill="#FAFAFA"/>
<g opacity="0.2">
<path d="M102.38 19.7812H116.768V23.8995C116.768 24.2833 116.612 24.6514 116.333 24.9228C116.055 25.1942 115.677 25.3466 115.283 25.3466H103.844C103.45 25.3466 103.073 25.1942 102.794 24.9228C102.516 24.6514 102.359 24.2833 102.359 23.8995V19.7812H102.38Z" fill="black"/>
</g>
<path d="M111.125 7V11.3731C111.126 11.7187 111.268 12.0497 111.519 12.2937C111.77 12.5376 112.11 12.6746 112.465 12.6746H116.77L111.125 7Z" fill="#6DCDCB"/>
<g opacity="0.2">
<path d="M111.182 11.7656C111.182 11.7656 111.126 12.8259 112.366 13.174C112.412 13.1871 112.458 13.1977 112.506 13.2059C113.071 13.3037 116.778 13.9476 116.778 13.8635V12.6757H112.464C112.464 12.6757 111.399 12.6439 111.182 11.7656Z" fill="black"/>
</g>
<path d="M108.291 22.3613H108.758V23.2464C108.493 23.4286 108.176 23.5256 107.852 23.524C107.687 23.5444 107.52 23.5304 107.362 23.483C107.203 23.4357 107.057 23.3559 106.933 23.2492C106.808 23.1424 106.709 23.0111 106.641 22.8639C106.572 22.7167 106.537 22.557 106.537 22.3955C106.537 22.2339 106.572 22.0743 106.641 21.9271C106.709 21.7799 106.808 21.6485 106.933 21.5418C107.057 21.435 107.203 21.3553 107.362 21.3079C107.52 21.2605 107.687 21.2465 107.852 21.2669C108.026 21.2594 108.2 21.2893 108.362 21.3546C108.523 21.4198 108.668 21.5189 108.786 21.6446L108.452 21.9427C108.379 21.8636 108.29 21.8007 108.19 21.7583C108.09 21.7159 107.982 21.695 107.873 21.6969C107.683 21.6969 107.5 21.7705 107.366 21.9015C107.232 22.0325 107.156 22.2102 107.156 22.3955C107.156 22.5807 107.232 22.7584 107.366 22.8894C107.5 23.0204 107.683 23.094 107.873 23.094C108.013 23.097 108.152 23.0649 108.277 23.0007L108.291 22.3613Z" fill="#FAFAFA"/>
<path d="M109.244 21.3008H109.767V23.4851H109.249L109.244 21.3008Z" fill="#FAFAFA"/>
<path d="M110.809 21.7064V22.2844H111.846V22.6848H110.809V23.4812H110.291V21.2969H111.984V21.7019L110.809 21.7064Z" fill="#FAFAFA"/>
<path d="M64.6931 25.3435H53.1767C52.7947 25.3435 52.4283 25.1956 52.1582 24.9323C51.8881 24.669 51.7363 24.3119 51.7363 23.9396V8.40386C51.7363 8.03153 51.8881 7.67445 52.1582 7.41118C52.4283 7.14791 52.7947 7 53.1767 7H60.4792L66.1335 12.6746V23.9351C66.1341 24.1198 66.0973 24.3028 66.0252 24.4737C65.9531 24.6445 65.8471 24.7998 65.7133 24.9307C65.5795 25.0615 65.4205 25.1653 65.2454 25.2362C65.0703 25.307 64.8826 25.3435 64.6931 25.3435Z" fill="#6DCDCB"/>
<g opacity="0.2">
<path d="M51.7367 19.7812H66.1339V23.7903C66.1339 24.2031 65.9657 24.5989 65.6662 24.8908C65.3667 25.1827 64.9606 25.3466 64.5371 25.3466H53.3312C52.9077 25.3466 52.5015 25.1827 52.2021 24.8908C51.9026 24.5989 51.7344 24.2031 51.7344 23.7903V19.7812H51.7367Z" fill="black"/>
</g>
<path d="M56.8379 23.3663L57.2021 22.9408C57.2571 23.0292 57.3336 23.103 57.4248 23.1558C57.516 23.2085 57.6191 23.2386 57.725 23.2434C57.9865 23.2434 58.1219 23.091 58.1219 22.7883V21.4823H57.132V20.9727H58.7662V22.7542C58.7662 23.4368 58.4161 23.7667 57.753 23.7667C57.5793 23.7725 57.4064 23.7394 57.2478 23.6699C57.0892 23.6005 56.949 23.4967 56.8379 23.3663Z" fill="#FAFAFA"/>
<path d="M59.1602 23.526L59.3703 23.0846C59.5971 23.2181 59.857 23.2889 60.122 23.2894C60.4115 23.2894 60.5212 23.2143 60.5212 23.0982C60.5212 22.7524 59.2115 23.0982 59.2115 22.2609C59.2115 21.8628 59.5827 21.5783 60.2154 21.5783C60.5043 21.5739 60.7901 21.6371 61.0488 21.7626L60.8387 22.1995C60.6488 22.0944 60.4337 22.0402 60.2154 22.0425C59.9329 22.0425 59.8115 22.129 59.8115 22.2382C59.8115 22.5999 61.1212 22.2382 61.1212 23.0823C61.1212 23.4737 60.7453 23.7649 60.0986 23.7649C59.7697 23.7672 59.4459 23.6848 59.1602 23.526Z" fill="#FAFAFA"/>
<path d="M54.7852 16.8565L55.2381 16.34C55.3577 16.5299 55.5247 16.6873 55.7234 16.7975C55.9222 16.9077 56.1463 16.9671 56.375 16.9703C56.989 16.9703 57.3088 16.6062 57.3088 15.8918V12.902H55.3384V12.2422H58.0792V15.8599C58.0792 17.0431 57.4862 17.6278 56.375 17.6278C56.0656 17.6352 55.759 17.5687 55.4819 17.4343C55.2049 17.2999 54.9657 17.1015 54.7852 16.8565Z" fill="#FAFAFA"/>
<path d="M59.0352 17.138L59.3386 16.5623C59.7698 16.8342 60.2725 16.9788 60.7861 16.9787C61.4864 16.9787 61.7666 16.7739 61.7666 16.4327C61.7666 15.5225 59.1589 16.3121 59.1589 14.7103C59.1589 13.9913 59.8196 13.5043 60.8795 13.5043C61.4039 13.4955 61.9215 13.621 62.3806 13.8684L62.0607 14.4463C61.7046 14.2284 61.2905 14.1176 60.8701 14.1278C60.2164 14.1278 59.8989 14.3553 59.8989 14.6807C59.8989 15.6295 62.5136 14.8559 62.5136 16.4167C62.5136 17.1471 61.8273 17.609 60.73 17.609C60.1292 17.6225 59.5383 17.4583 59.0352 17.138Z" fill="#FAFAFA"/>
<path d="M60.4785 7V11.3731C60.4798 11.7187 60.6215 12.0497 60.8726 12.2937C61.1238 12.5376 61.464 12.6746 61.8185 12.6746H66.1328L60.4785 7Z" fill="#6DCDCB"/>
<g opacity="0.2">
<path d="M60.5395 11.7656C60.5395 11.7656 60.4811 12.8259 61.7208 13.174C61.7676 13.1871 61.8152 13.1977 61.8632 13.2059C62.4258 13.3037 66.1331 13.9476 66.1331 13.8635V12.6757H61.8188C61.8188 12.6757 60.7403 12.6439 60.5395 11.7656Z" fill="black"/>
</g>
<path d="M38.9564 25.3435H27.4424C27.0603 25.3435 26.694 25.1956 26.4238 24.9323C26.1537 24.669 26.002 24.3119 26.002 23.9396V8.40386C26.002 8.03153 26.1537 7.67445 26.4238 7.41118C26.694 7.14791 27.0603 7 27.4424 7H34.7448L40.3991 12.6882V23.9487C40.3961 24.3197 40.2427 24.6744 39.9725 24.9356C39.7022 25.1969 39.337 25.3435 38.9564 25.3435Z" fill="#6DCDCB"/>
<g opacity="0.2">
<path d="M26.0023 19.7812H40.3995V23.7767C40.3995 24.1931 40.2298 24.5924 39.9277 24.8868C39.6256 25.1812 39.2159 25.3466 38.7887 25.3466H27.6108C27.1836 25.3466 26.7739 25.1812 26.4718 24.8868C26.1697 24.5924 26 24.1931 26 23.7767V19.7812H26.0023Z" fill="black"/>
</g>
<g opacity="0.2">
<path d="M34.7461 7V11.3731C34.7473 11.7187 34.8891 12.0497 35.1402 12.2937C35.3914 12.5376 35.7315 12.6746 36.0861 12.6746H40.4004L34.7461 7Z" fill="white"/>
</g>
<g opacity="0.2">
<path d="M34.8031 11.7656C34.8031 11.7656 34.7471 12.8259 35.9867 13.174C36.0328 13.1871 36.0796 13.1977 36.1268 13.2059C36.6918 13.3037 40.399 13.9476 40.399 13.8635V12.6757H36.0848C36.0848 12.6757 35.0086 12.6439 34.8031 11.7656Z" fill="black"/>
</g>
<path d="M31.9133 15.1752L30.1857 15.7918L31.9133 16.4039V17.0409L29.4434 16.1308V15.4687L31.9133 14.5586V15.1752Z" fill="#FAFAFA"/>
<path d="M33.7722 13.3086H34.4935L32.78 18.0753H32.0586L33.7722 13.3086Z" fill="#FAFAFA"/>
<path d="M37.0567 15.4716V16.1292L34.5938 17.0439V16.4113L36.3213 15.7993L34.5938 15.1781V14.5547L37.0567 15.4716Z" fill="#FAFAFA"/>
<path d="M31.325 21.8477V23.7339H30.8768V22.9603H29.9967V23.7339H29.5508V21.8477H29.999V22.5917H30.8791V21.8477H31.325Z" fill="#FAFAFA"/>
<path d="M32.1866 22.2026H31.5586V21.8477H33.2465V22.2026H32.6325V23.7339H32.1866V22.2026Z" fill="#FAFAFA"/>
<path d="M35.254 23.7352V22.5975L34.6844 23.5281H34.4813L33.9163 22.618V23.7261H33.4961V21.8398H33.865L34.5887 23.0116L35.303 21.8398H35.6696V23.7261L35.254 23.7352Z" fill="#FAFAFA"/>
<path d="M36.1328 21.8477H36.581V23.3789H37.5522V23.7339H36.1328V21.8477Z" fill="#FAFAFA"/>
<g opacity="0.2">
<path d="M60.4785 7V11.3731C60.4798 11.7187 60.6215 12.0497 60.8726 12.2937C61.1238 12.5376 61.464 12.6746 61.8185 12.6746H66.1328L60.4785 7Z" fill="white"/>
</g>
<g opacity="0.2">
<path d="M111.125 7V11.3731C111.126 11.7187 111.268 12.0497 111.519 12.2937C111.77 12.5376 112.11 12.6746 112.465 12.6746H116.77L111.125 7Z" fill="white"/>
</g>
<path d="M123.209 98.0376L104.659 96.9576C104.544 96.702 104.463 96.5508 104.463 96.5508L99.4432 96.6624L97.8069 96.5688C97.8069 96.5688 97.781 96.6156 97.7441 96.6984L80.8858 97.0584C77.5245 97.0584 73.9933 99.0744 74.0007 101.63C73.9674 104.06 75.1827 106.696 78.1931 106.627L101.165 106.494H124.136C127.146 106.544 127.937 104.773 127.937 102.674C128.299 98.8008 125.776 98.0556 123.209 98.0376Z" fill="#6E498E"/>
<path d="M80.3164 106.65H80.4272H80.7523H82.0008L86.6253 106.622L102.047 106.56L101.984 106.629C101.951 106.136 101.914 105.61 101.881 105.081C101.807 104.001 101.736 102.921 101.67 101.92L101.725 101.978L87.5155 100.476L83.301 100.016L82.167 99.8861L81.8752 99.8501H81.7754C81.8086 99.8469 81.842 99.8469 81.8752 99.8501L82.1707 99.8753L83.3083 99.9833L87.5229 100.404L101.74 101.866H101.796V101.92C101.862 102.932 101.932 103.997 102.006 105.081C102.039 105.61 102.076 106.136 102.11 106.625V106.694H102.039L86.6179 106.715H81.9934H80.7449H80.4198L80.3164 106.65Z" fill="#263238"/>
<path d="M85.0345 100.217C85.0345 100.217 84.7907 100.051 84.3844 99.8135C83.8567 99.5019 83.2891 99.2598 82.6963 99.0935C82.1021 98.9313 81.4887 98.8454 80.8716 98.8379C80.3988 98.8379 80.1033 98.8667 80.0996 98.8379C80.1654 98.8152 80.2335 98.7995 80.3028 98.7911C80.4913 98.764 80.6812 98.7472 80.8716 98.7407C81.4955 98.7234 82.1185 98.7999 82.7185 98.9675C83.3237 99.1331 83.8984 99.3906 84.4213 99.7307C84.581 99.8311 84.7329 99.943 84.8756 100.065C84.9864 100.159 85.0418 100.199 85.0345 100.217Z" fill="#263238"/>
<path d="M121.773 99.1576C121.773 99.1936 118.131 100.061 113.617 101.102C109.103 102.142 105.439 102.959 105.428 102.927C105.417 102.894 109.074 102.02 113.587 100.979C118.101 99.9388 121.765 99.118 121.773 99.1576Z" fill="#263238"/>
<path d="M118.695 98.8203C118.193 98.9909 117.713 99.2155 117.262 99.4899C116.839 99.804 116.452 100.163 116.109 100.559C116.166 100.413 116.25 100.279 116.357 100.163C116.597 99.8693 116.879 99.6111 117.195 99.3963C117.515 99.1859 117.865 99.0233 118.233 98.9139C118.38 98.8543 118.536 98.8226 118.695 98.8203Z" fill="#263238"/>
<path d="M101.826 102.395L105.287 102.855L105.295 106.52L102.114 106.452L101.826 102.395Z" fill="#FFBE9D"/>
<path d="M105.287 102.855H106.842C107.144 102.855 107.441 102.932 107.703 103.079L108.527 103.539C108.99 103.788 109.469 104.01 109.96 104.202C110.909 104.493 112.501 104.889 112.837 105.141C113.794 105.861 113.506 106.707 112.981 106.797C112.519 106.877 105.294 106.524 105.294 106.524L105.287 102.855Z" fill="#6DCDCB"/>
<path d="M107.851 106.212C107.726 105.911 107.669 105.587 107.681 105.262C107.65 104.938 107.686 104.611 107.788 104.301C107.814 104.619 107.821 104.939 107.81 105.258C107.841 105.575 107.855 105.894 107.851 106.212Z" fill="#263238"/>
<path d="M108.589 106.191C108.525 105.904 108.505 105.609 108.529 105.316C108.51 105.023 108.532 104.729 108.596 104.441C108.66 104.729 108.681 105.023 108.659 105.316C108.676 105.61 108.653 105.904 108.589 106.191Z" fill="#263238"/>
<path d="M109.462 106.32C109.324 105.73 109.274 105.123 109.314 104.52C109.4 104.811 109.446 105.113 109.45 105.416C109.497 105.715 109.5 106.019 109.462 106.32Z" fill="#263238"/>
<path d="M107.175 105.238C107.065 105.221 106.957 105.189 106.857 105.141C106.574 105.027 106.311 104.871 106.078 104.676C106.004 104.612 105.93 104.547 105.853 104.471C105.769 104.394 105.702 104.301 105.657 104.198C105.63 104.14 105.62 104.076 105.627 104.012C105.634 103.949 105.659 103.889 105.697 103.838C105.721 103.809 105.749 103.784 105.782 103.766C105.815 103.748 105.852 103.737 105.889 103.733C105.96 103.726 106.032 103.733 106.1 103.755C106.371 103.849 106.61 104.016 106.79 104.235C106.97 104.455 107.083 104.719 107.118 104.998C107.152 105.276 107.107 105.559 106.986 105.814C106.864 106.069 106.673 106.286 106.432 106.44C106.322 106.517 106.196 106.571 106.063 106.599C105.996 106.615 105.927 106.615 105.86 106.599C105.791 106.576 105.734 106.529 105.701 106.466C105.678 106.407 105.669 106.343 105.677 106.28C105.685 106.218 105.708 106.158 105.745 106.106C105.801 106.018 105.868 105.939 105.945 105.868C106.166 105.659 106.425 105.493 106.709 105.378C106.812 105.335 106.92 105.304 107.031 105.288C107.031 105.288 106.92 105.335 106.732 105.425C106.463 105.552 106.219 105.724 106.011 105.933C105.942 105.998 105.882 106.072 105.834 106.152C105.809 106.19 105.793 106.232 105.786 106.276C105.78 106.32 105.784 106.365 105.797 106.408C105.823 106.445 105.861 106.473 105.905 106.487C105.949 106.502 105.997 106.502 106.041 106.487C106.154 106.462 106.26 106.413 106.351 106.343C106.571 106.2 106.746 105.999 106.856 105.765C106.967 105.53 107.009 105.271 106.978 105.015C106.946 104.758 106.843 104.515 106.679 104.313C106.515 104.11 106.297 103.956 106.048 103.866C106.004 103.845 105.953 103.837 105.903 103.844C105.854 103.851 105.808 103.873 105.771 103.906C105.743 103.945 105.725 103.99 105.72 104.037C105.715 104.085 105.722 104.132 105.742 104.176C105.834 104.347 105.959 104.498 106.111 104.622C106.433 104.878 106.791 105.085 107.175 105.238Z" fill="#263238"/>
<path d="M112.98 106.792C113.057 106.727 113.12 106.649 113.168 106.562C113.213 106.435 113.227 106.301 113.209 106.168C113.191 106.036 113.142 105.909 113.065 105.799C112.842 105.454 112.5 105.199 112.101 105.079C111.661 104.927 111.137 104.855 110.623 104.693C109.712 104.432 108.843 104.051 108.038 103.559C107.795 103.412 107.561 103.252 107.336 103.081C107.25 103.022 107.17 102.954 107.1 102.879C107.194 102.924 107.283 102.978 107.366 103.041C107.532 103.149 107.776 103.307 108.086 103.484C108.892 103.944 109.753 104.306 110.649 104.564C111.17 104.719 111.687 104.794 112.145 104.96C112.565 105.089 112.922 105.363 113.15 105.73C113.228 105.853 113.276 105.992 113.287 106.136C113.299 106.28 113.274 106.425 113.216 106.558C113.178 106.627 113.124 106.686 113.058 106.731C113.01 106.785 112.984 106.796 112.98 106.792Z" fill="#263238"/>
<path d="M97.9444 58.3672C96.8733 58.774 95.6543 60.3652 95.4401 61.4668C95.248 62.4352 95.5066 63.4288 95.6395 64.4116C95.7725 65.3944 95.743 66.4852 95.0929 67.2448C94.6866 67.7164 94.0956 67.99 93.6154 68.3932C93.2706 68.6849 92.9885 69.0402 92.7851 69.4385C92.5817 69.8369 92.4611 70.2705 92.4302 70.7144C92.3993 71.1584 92.4587 71.6039 92.6051 72.0254C92.7514 72.4468 92.9818 72.836 93.2829 73.1704C92.8894 73.2786 92.5447 73.513 92.3048 73.8357C92.0648 74.1584 91.9435 74.5506 91.9606 74.9488C91.9929 75.3454 92.1162 75.7299 92.3215 76.0738C92.5267 76.4178 92.8086 76.7124 93.1463 76.936C93.8287 77.3756 94.6015 77.6643 95.4105 77.782C96.2511 77.9813 97.1311 77.9577 97.9592 77.7136C98.9085 77.3752 99.6103 76.6084 100.371 75.9604C101.298 75.1648 102.381 74.4952 103.046 73.4836C103.821 72.3028 103.925 70.8268 103.917 69.4228C103.905 66.5514 103.533 63.6921 102.809 60.9088" fill="#263238"/>
<path d="M111.725 78.168L117.635 88.1112C117.993 88.7158 118.193 89.3973 118.215 90.0951C118.238 90.793 118.083 91.4854 117.764 92.1108C117.397 92.8332 116.825 93.438 116.116 93.8539C115.407 94.2698 114.591 94.4794 113.764 94.458L104.751 94.2348L104.504 91.0416L112.416 89.5368L107.042 80.5368L111.725 78.168Z" fill="#FFBE9D"/>
<path d="M89.8847 95.2663L98.1772 97.3831L98.3508 94.9603L90.7158 90.6583L96.2564 80.5495L91.5764 78.2383L85.7366 88.2103C85.4076 88.8153 85.2189 89.4834 85.1838 90.1673C85.1486 90.8512 85.2678 91.5343 85.5331 92.1683C85.7983 92.8024 86.2031 93.3721 86.7188 93.837C87.2346 94.302 87.8488 94.6511 88.518 94.8595L89.8847 95.2663Z" fill="#FFBE9D"/>
<path d="M109.25 84.5657L114.909 81.6425C114.208 80.2672 113.393 78.9501 112.471 77.7041C110.621 75.2992 107.92 73.6505 104.892 73.0781L98.3761 73.1681C97.5815 73.2394 96.8009 73.4175 96.0564 73.6973V73.6721C92.5215 74.4425 88.6172 81.9701 88.6172 81.9701L93.7884 84.6017L93.9029 85.3901C94.0614 86.4361 94.5315 87.4137 95.2549 88.2017L93.7774 97.8281L110.506 98.1233L108.353 91.2365L109.25 84.5657Z" fill="#6DCDCB"/>
<path d="M95.4017 88.2576C95.313 88.2047 95.2301 88.1432 95.1542 88.074C94.9384 87.8908 94.7462 87.6829 94.5817 87.4548C94.0447 86.686 93.7956 85.7606 93.8762 84.834C93.9542 84.3358 94.0778 83.8455 94.2455 83.3688C94.3933 82.9296 94.5447 82.5408 94.6777 82.2168C94.8107 81.8928 94.9215 81.6336 95.0027 81.4536C95.0412 81.359 95.0895 81.2686 95.1468 81.1836C95.123 81.282 95.0908 81.3783 95.0508 81.4716L94.7627 82.2492C94.6408 82.5768 94.5004 82.9692 94.3563 83.4048C94.1945 83.8746 94.071 84.3561 93.987 84.8448C93.9462 85.3353 93.995 85.8289 94.131 86.3028C94.2425 86.6864 94.4144 87.0507 94.6408 87.3828C94.8701 87.6937 95.1245 87.9862 95.4017 88.2576Z" fill="#263238"/>
<path d="M95.8972 79.8668C95.5569 79.5742 95.2609 79.236 95.018 78.8624C94.7184 78.528 94.4696 78.1534 94.2793 77.75C94.9155 78.3767 95.4554 79.0896 95.8824 79.8668H95.8972Z" fill="#FAFAFA"/>
<path d="M98.6082 75.4141C98.3173 75.6767 97.9857 75.8929 97.6257 76.0549C97.2968 76.2701 96.9336 76.4307 96.5508 76.5301C96.8417 76.2675 97.1733 76.0512 97.5333 75.8893C97.8632 75.6757 98.2261 75.5153 98.6082 75.4141Z" fill="#FAFAFA"/>
<path d="M92.0748 81.7562C92.0115 81.3988 92.0115 81.0336 92.0748 80.6762C92.0689 80.318 92.1303 79.9617 92.2558 79.625C92.3198 79.9823 92.3198 80.3477 92.2558 80.705C92.2609 81.0632 92.1996 81.4193 92.0748 81.7562Z" fill="#FAFAFA"/>
<path d="M98.0957 83.8359C97.8197 84.0898 97.5027 84.2978 97.1575 84.4515C96.8425 84.6587 96.4942 84.8133 96.127 84.9087C96.4004 84.6507 96.7179 84.4412 97.0652 84.2895C97.3798 84.0825 97.7283 83.9291 98.0957 83.8359Z" fill="#FAFAFA"/>
<path d="M100.063 79.4441C99.8945 79.7636 99.6736 80.0542 99.4092 80.3045C99.0103 80.7437 98.652 81.0749 98.6113 81.0245C98.7798 80.705 99.0007 80.4143 99.2651 80.1641C99.664 79.7393 100.022 79.4081 100.063 79.4441Z" fill="#FAFAFA"/>
<path d="M103.975 80.7606C103.7 80.5425 103.467 80.2778 103.288 79.9793C103.06 79.7176 102.882 79.4175 102.764 79.0938C103.036 79.312 103.268 79.5752 103.447 79.8714C103.674 80.1361 103.853 80.4369 103.975 80.7606Z" fill="#FAFAFA"/>
<path d="M101.921 84.8755C101.709 84.0524 101.624 83.203 101.67 82.3555C101.805 82.7582 101.88 83.1777 101.892 83.6011C101.966 84.0221 101.976 84.4516 101.921 84.8755Z" fill="#FAFAFA"/>
<path d="M100.331 88.4395C100.06 88.1677 99.8378 87.8538 99.6731 87.5107C99.456 87.1972 99.2914 86.8521 99.1855 86.4883C99.4623 86.7583 99.6896 87.0724 99.8578 87.4171C100.07 87.7311 100.23 88.0763 100.331 88.4395Z" fill="#FAFAFA"/>
<path d="M105.53 86.3867C105.15 87.0686 104.66 87.6861 104.078 88.2155C104.458 87.5337 104.948 86.9161 105.53 86.3867Z" fill="#FAFAFA"/>
<path d="M107.757 84.3195C107.315 84.1938 106.908 83.9736 106.564 83.6751C106.183 83.4235 105.866 83.0912 105.637 82.7031C106.002 82.9591 106.352 83.2343 106.686 83.5275C107.057 83.7727 107.415 84.0371 107.757 84.3195Z" fill="#FAFAFA"/>
<path d="M111.364 81.3786C110.944 81.4833 110.511 81.5257 110.078 81.5046C109.648 81.5475 109.213 81.5256 108.789 81.4398C109.209 81.3395 109.642 81.2983 110.074 81.3174C110.505 81.2764 110.939 81.297 111.364 81.3786Z" fill="#FAFAFA"/>
<g opacity="0.3">
<path d="M112.268 76.8604C112.698 77.531 112.863 78.3319 112.729 79.1123C112.596 79.8927 112.174 80.5985 111.543 81.0966C110.913 81.5948 110.117 81.8508 109.306 81.8165C108.495 81.7822 107.725 81.4599 107.141 80.9104C106.974 80.7202 106.777 80.5573 106.557 80.428C106.329 80.347 106.09 80.2985 105.848 80.284C105.417 80.2166 105.011 80.0434 104.668 79.7807C104.325 79.518 104.057 79.1745 103.888 78.7825C103.719 78.3905 103.655 77.9631 103.703 77.5405C103.75 77.1179 103.908 76.7141 104.16 76.3672L112.268 76.8604Z" fill="black"/>
</g>
<path d="M92.9265 100.157L91.9551 89.429L112.333 89.375L111.011 100.243L92.9265 100.157Z" fill="#263238"/>
<path d="M103.458 95.1194C103.459 95.3702 103.384 95.6157 103.243 95.825C103.101 96.0342 102.898 96.1978 102.661 96.2949C102.424 96.392 102.162 96.4183 101.91 96.3705C101.657 96.3228 101.425 96.203 101.242 96.0264C101.059 95.8499 100.935 95.6244 100.883 95.3786C100.832 95.1329 100.857 94.8778 100.955 94.6458C101.052 94.4138 101.218 94.2152 101.432 94.0752C101.645 93.9352 101.897 93.8601 102.154 93.8594C102.498 93.8584 102.829 93.9905 103.073 94.2267C103.317 94.4629 103.456 94.7839 103.458 95.1194Z" fill="#FAFAFA"/>
<path d="M102.486 76.8906C103.311 76.8729 104.097 76.5436 104.678 75.972C105.259 75.4005 105.59 74.6314 105.6 73.827L105.748 61.4934C105.752 61.2476 105.662 61.0091 105.495 60.8247C105.329 60.6402 105.097 60.5231 104.847 60.4962L99.4869 59.1786C97.7767 59.0022 96.639 61.0578 96.5319 62.7318C96.41 64.593 96.3398 66.8682 96.5652 68.2542C97.0195 71.0478 99.2136 71.4006 99.2136 71.4006C99.2136 71.4006 99.2136 72.4806 99.2136 73.8054C99.2159 74.2172 99.3024 74.6245 99.4678 75.0034C99.6333 75.3823 99.8745 75.7254 100.177 76.0125C100.48 76.2997 100.839 76.5252 101.232 76.676C101.625 76.8267 102.045 76.8997 102.468 76.8906H102.486Z" fill="#FFBE9D"/>
<path d="M97.6406 64.5353C97.6406 64.6307 97.6795 64.7223 97.7488 64.7898C97.8181 64.8573 97.912 64.8953 98.01 64.8953C98.1013 64.8958 98.1896 64.8633 98.2578 64.8042C98.326 64.745 98.3693 64.6633 98.3794 64.5749C98.3794 64.4794 98.3405 64.3878 98.2712 64.3203C98.2019 64.2528 98.108 64.2149 98.01 64.2149C97.9187 64.2143 97.8304 64.2468 97.7622 64.3059C97.694 64.3651 97.6507 64.4468 97.6406 64.5353Z" fill="#263238"/>
<path d="M97.0506 63.9132C97.095 63.96 97.372 63.7584 97.7672 63.7584C98.1625 63.7584 98.4543 63.9528 98.506 63.906C98.5577 63.8592 98.4801 63.8016 98.3545 63.7116C98.1846 63.5956 97.982 63.534 97.7746 63.5352C97.5691 63.5354 97.3689 63.5983 97.2021 63.7152C97.0691 63.8088 97.0285 63.8916 97.0506 63.9132Z" fill="#263238"/>
<path d="M101.412 64.5358C101.412 64.6313 101.451 64.7229 101.52 64.7904C101.59 64.8579 101.684 64.8958 101.781 64.8958C101.827 64.8987 101.873 64.8927 101.917 64.8782C101.96 64.8636 102.001 64.8407 102.035 64.8109C102.069 64.7811 102.097 64.7449 102.117 64.7045C102.137 64.6641 102.149 64.6202 102.151 64.5754C102.151 64.483 102.115 64.394 102.049 64.327C101.984 64.26 101.895 64.22 101.8 64.2154C101.706 64.2103 101.613 64.2406 101.54 64.3002C101.468 64.3598 101.422 64.4442 101.412 64.5358Z" fill="#263238"/>
<path d="M100.933 63.9874C100.981 64.0342 101.258 63.8326 101.653 63.8326C102.048 63.8326 102.336 64.027 102.392 63.9802C102.447 63.9334 102.366 63.8758 102.24 63.7858C102.069 63.6698 101.865 63.6082 101.656 63.6094C101.451 63.6108 101.251 63.6736 101.084 63.7894C100.966 63.883 100.91 63.9658 100.933 63.9874Z" fill="#263238"/>
<path d="M99.4874 66.8404C99.2786 66.7781 99.0628 66.7406 98.8447 66.7288C98.745 66.7288 98.649 66.7 98.6342 66.6316C98.6246 66.53 98.6479 66.4281 98.7007 66.34C98.793 66.1024 98.8927 65.854 98.9999 65.5912C99.2762 64.9569 99.4998 64.302 99.6684 63.6328C99.3386 64.2432 99.0606 64.879 98.8373 65.5336L98.5529 66.286C98.4883 66.4053 98.47 66.5434 98.5012 66.6748C98.5159 66.7095 98.5386 66.7405 98.5673 66.7654C98.5961 66.7904 98.6303 66.8086 98.6674 66.8188C98.723 66.8324 98.78 66.8397 98.8373 66.8404C99.0531 66.8678 99.2716 66.8678 99.4874 66.8404Z" fill="#263238"/>
<path d="M99.2246 71.3995C100.573 71.4205 101.9 71.0752 103.059 70.4023C103.059 70.4023 102.132 72.3211 99.2652 72.0583L99.2246 71.3995Z" fill="#AA6550"/>
<path d="M99.6653 67.7685C99.7404 67.6761 99.8386 67.6041 99.9505 67.5593C100.062 67.5145 100.184 67.4986 100.304 67.5129C100.392 67.5205 100.477 67.5451 100.554 67.5853C100.631 67.6255 100.7 67.6805 100.755 67.7469C100.808 67.8108 100.839 67.889 100.844 67.971C100.85 68.0529 100.829 68.1343 100.784 68.2041C100.721 68.2736 100.638 68.3231 100.546 68.3462C100.454 68.3693 100.357 68.3649 100.267 68.3337C100.08 68.2686 99.9085 68.1683 99.7613 68.0385C99.7171 68.0075 99.6795 67.9684 99.6505 67.9233C99.6352 67.903 99.627 67.8784 99.627 67.8531C99.627 67.8279 99.6352 67.8033 99.6505 67.7829" fill="#AA6550"/>
<path d="M100.662 67.1094C100.599 67.1094 100.596 67.5234 100.23 67.8294C99.8642 68.1354 99.4061 68.0814 99.4024 68.139C99.3987 68.1966 99.5059 68.2182 99.6979 68.2254C99.9492 68.2285 100.194 68.1457 100.389 67.9914C100.574 67.8412 100.693 67.6272 100.721 67.3938C100.74 67.2102 100.692 67.1094 100.662 67.1094Z" fill="#263238"/>
<path d="M100.754 63.3106C100.794 63.4186 101.189 63.3682 101.651 63.4222C102.113 63.4762 102.49 63.5986 102.552 63.505C102.615 63.4114 102.516 63.361 102.364 63.2602C102.163 63.1341 101.934 63.0563 101.696 63.0334C101.458 63.0067 101.218 63.0338 100.994 63.1126C100.824 63.181 100.739 63.2638 100.754 63.3106Z" fill="#263238"/>
<path d="M97.105 63.2022C97.1715 63.2922 97.4448 63.2022 97.7735 63.2022C98.1023 63.2022 98.3756 63.2634 98.4421 63.1698C98.5086 63.0762 98.4236 63.0402 98.3054 62.9574C98.1429 62.8554 97.9519 62.8051 97.7588 62.8134C97.5669 62.8167 97.381 62.8784 97.2269 62.9898C97.1124 63.0726 97.0717 63.1626 97.105 63.2022Z" fill="#263238"/>
<path d="M112.679 75.6611C112.15 74.7755 110.965 74.1851 110.972 73.1591C110.972 72.5327 111.46 71.9855 111.489 71.3591C111.548 70.1063 109.897 69.4475 109.454 68.2703C109.051 67.1903 109.746 65.9987 109.498 64.8827C109.199 63.5219 107.936 62.9819 106.894 62.0639C106.452 61.6609 106.092 61.1811 105.83 60.6491C105.793 60.5843 105.76 60.5195 105.72 60.4583C105.365 59.8858 104.882 59.3996 104.306 59.0365C103.73 58.6735 103.076 58.4432 102.395 58.3631C101.15 57.9522 99.8118 57.8887 98.5315 58.1795C97.8409 58.3245 97.2112 58.6696 96.7253 59.1695C96.4873 59.4221 96.3173 59.7283 96.2302 60.0606C96.1432 60.3929 96.142 60.741 96.2266 61.0739C96.3233 61.4039 96.5336 61.6914 96.8222 61.8881C97.1108 62.0848 97.46 62.1786 97.8113 62.1539C98.3395 62.0855 98.8455 61.7039 99.3553 61.8551C99.865 62.0063 100.094 62.5751 100.596 62.6615C101.099 62.7479 101.52 62.3231 102.015 62.2799C102.51 62.2367 103.034 62.6723 103.278 63.1511C103.37 63.3424 103.449 63.5397 103.514 63.7415C103.921 65.7143 104.696 66.6215 104.157 67.7735C103.869 68.3891 103.378 68.9363 103.3 69.6059C103.127 71.1467 105.18 72.2699 105.066 73.8143C105.018 74.4731 104.578 75.0311 104.327 75.6467C104.097 76.2899 104.081 76.9878 104.284 77.6399C104.486 78.292 104.896 78.8647 105.454 79.2755C105.735 79.4894 106.066 79.6338 106.417 79.6965C106.768 79.7591 107.129 79.7382 107.47 79.6355C107.547 79.6077 107.621 79.574 107.692 79.5347C108.068 79.8769 108.529 80.1177 109.029 80.2331C110.244 80.4851 111.515 79.8155 112.258 78.8435C112.97 77.9363 113.266 76.6403 112.679 75.6611Z" fill="#263238"/>
<path d="M107.728 79.552C108.077 79.4871 108.414 79.3769 108.733 79.2244C109.099 79.0375 109.426 78.7832 109.693 78.4756C110.054 78.0761 110.292 77.5858 110.38 77.0608C110.475 76.4221 110.356 75.7707 110.04 75.2032C109.676 74.5521 109.081 74.0519 108.367 73.7956C107.96 73.6546 107.59 73.4271 107.285 73.1296C107.139 72.9542 107.035 72.7498 106.98 72.5308C106.924 72.3119 106.919 72.0837 106.964 71.8624C107.047 71.4183 107.209 70.9919 107.444 70.6024C107.679 70.2182 107.877 69.8132 108.035 69.3928C108.185 68.9834 108.173 68.5341 108.001 68.1328C107.812 67.7445 107.552 67.3932 107.233 67.096C106.93 66.7828 106.613 66.4912 106.336 66.16C106.067 65.839 105.848 65.4811 105.685 65.098C105.403 64.3911 105.201 63.6558 105.083 62.9056C104.98 62.2609 104.833 61.6236 104.644 60.9976C104.394 60.0818 103.811 59.2858 103.004 58.7584C102.699 58.5842 102.365 58.4624 102.018 58.3984H102.073C102.143 58.4018 102.212 58.4115 102.28 58.4272C102.54 58.4764 102.79 58.569 103.019 58.7008C103.386 58.9094 103.71 59.1843 103.972 59.5108C104.314 59.943 104.577 60.4304 104.747 60.9508C104.946 61.581 105.101 62.2231 105.213 62.8732C105.337 63.6123 105.541 64.3364 105.822 65.0332C105.981 65.4007 106.194 65.7439 106.454 66.052C106.72 66.3652 107.037 66.6568 107.344 66.97C107.677 67.2801 107.949 67.6459 108.149 68.05C108.339 68.4921 108.355 68.9869 108.194 69.4396C107.887 70.3396 107.241 71.0344 107.126 71.8768C107.085 72.0727 107.088 72.275 107.135 72.4696C107.182 72.6642 107.272 72.8465 107.399 73.0036C107.687 73.2819 108.034 73.4957 108.415 73.63C108.792 73.7751 109.142 73.9808 109.449 74.2384C109.851 74.5888 110.157 75.0316 110.338 75.5265C110.519 76.0213 110.571 76.5525 110.487 77.0716C110.388 77.6181 110.132 78.126 109.749 78.5368C109.466 78.8466 109.123 79.0987 108.74 79.2784C108.499 79.3921 108.243 79.4721 107.979 79.516C107.887 79.534 107.817 79.534 107.772 79.5412C107.728 79.5484 107.728 79.5556 107.728 79.552Z" fill="#6E498E"/>
<path d="M43.8684 87.1103L45.2794 91.4303C45.5495 92.3066 46.0624 93.0932 46.7617 93.7036C47.461 94.3141 48.3195 94.7246 49.2428 94.8899L58.6803 96.6179L61.266 96.5387L58.6803 93.4391L51.5883 91.0847C51.2482 91.0122 50.9349 90.8505 50.6823 90.617C50.4297 90.3835 50.2474 90.0871 50.1552 89.7599L47.3332 83.7695L43.7539 85.9079L43.8684 87.1103Z" fill="#FFBE9D"/>
<path d="M36.9355 58.5653C38.1951 57.7229 40.4631 57.8848 41.778 58.6372C43.093 59.3896 43.769 60.394 44.0239 62.1472C44.1505 62.7603 44.2209 63.3832 44.2344 64.0085C44.1983 64.2732 44.2212 64.5424 44.3015 64.7977C44.3818 65.0531 44.5177 65.2885 44.6998 65.488C45.0692 65.848 45.6787 65.9668 45.9372 66.4096C46.023 66.5566 46.0612 66.7253 46.0469 66.8938C46.0326 67.0622 45.9664 67.2225 45.857 67.3537C45.7476 67.4848 45.6 67.5807 45.4338 67.6287C45.2675 67.6768 45.0902 67.6747 44.9251 67.6229C44.996 67.8047 44.9977 68.0052 44.93 68.1881C44.8622 68.3711 44.7295 68.5243 44.5558 68.62C44.1954 68.7978 43.7784 68.8326 43.3922 68.7172C42.7592 68.547 42.2024 68.176 41.8097 67.6629C41.4171 67.1499 41.211 66.524 41.224 65.884" fill="#263238"/>
<path d="M39.0564 106.6C32.5739 104.509 37.0212 96.1602 37.0212 96.1602L65.3559 98.7521C65.8964 98.7484 66.4322 98.8488 66.9326 99.0477C67.433 99.2467 67.8881 99.5402 68.2716 99.9113C68.6551 100.282 68.9595 100.724 69.1672 101.21C69.3749 101.696 69.4819 102.218 69.4818 102.745C69.4818 103.804 69.0504 104.82 68.2823 105.569C67.5142 106.318 66.4723 106.74 65.3855 106.741L39.0675 106.6" fill="#263238"/>
<path d="M32.426 106.592C26.1097 104.515 30.4609 96.1523 30.4609 96.1523L58.0754 98.6903C60.7718 98.7227 62.0905 99.9935 62.0905 102.676C62.0905 104.879 61.2483 106.74 58.0865 106.675L32.426 106.592Z" fill="#263238"/>
<path d="M38.834 97.5625H38.9115H39.1442L40.0271 97.5985L43.2776 97.7533L53.9894 98.3257C54.5102 98.3509 55.0274 98.3941 55.5371 98.4013C56.0468 98.4085 56.5529 98.4301 57.0479 98.4589C57.5428 98.4877 58.0267 98.5237 58.4995 98.5741C58.9707 98.6055 59.4354 98.6988 59.881 98.8513C60.3099 99.0132 60.7007 99.2581 61.0297 99.5713C61.3392 99.8777 61.5762 100.246 61.7241 100.651C61.8651 101.032 61.9605 101.427 62.0086 101.829C62.0591 102.197 62.0851 102.569 62.0861 102.941C62.0939 103.584 61.9683 104.222 61.7168 104.816C61.5246 105.255 61.2313 105.644 60.8598 105.954C60.6301 106.146 60.3641 106.293 60.0767 106.386C59.881 106.447 59.8773 106.426 60.0767 106.357C60.3494 106.255 60.5999 106.103 60.8155 105.911C61.1734 105.599 61.4549 105.213 61.6392 104.78C61.877 104.196 61.9913 103.57 61.9753 102.941C61.9707 102.58 61.9423 102.219 61.8904 101.861C61.8389 101.469 61.7436 101.084 61.6059 100.712C61.4613 100.323 61.232 99.9677 60.9337 99.6721C60.6157 99.3732 60.2387 99.1405 59.8256 98.9881C59.3895 98.8403 58.9345 98.7519 58.4736 98.7253C58.0045 98.6749 57.5207 98.6425 57.0257 98.6137C56.5307 98.5849 56.0321 98.5669 55.526 98.5597C55.02 98.5525 54.4955 98.5093 53.9747 98.4841L43.2628 97.8685L40.016 97.6633L39.1295 97.5949H38.9005L38.834 97.5625Z" fill="#6E498E"/>
<path d="M32.5996 100.201C32.6668 100.251 32.7433 100.287 32.8249 100.309C33.0395 100.386 33.265 100.431 33.4935 100.442C33.8759 100.471 34.2603 100.418 34.6194 100.287C34.9786 100.155 35.3036 99.9485 35.5715 99.6809C35.8394 99.4132 36.0436 99.0914 36.1696 98.7383C36.2956 98.3852 36.3404 98.0093 36.3008 97.6374C36.2822 97.4155 36.2312 97.1973 36.1493 96.9894C36.1242 96.9108 36.0841 96.8376 36.0311 96.7734C36.1151 97.0578 36.1696 97.3497 36.1936 97.6446C36.219 97.9991 36.1672 98.3548 36.0416 98.6884C35.9159 99.0219 35.7194 99.3258 35.4647 99.5801C35.2101 99.8344 34.9031 100.033 34.5641 100.164C34.225 100.294 33.8614 100.354 33.4972 100.337C33.194 100.322 32.8932 100.276 32.5996 100.201Z" fill="#6E498E"/>
<path d="M40.9136 73.479C44.4301 73.8642 44.9989 76.1898 46.6389 78.4794L49.0066 82.7418L44.6701 85.3446L44.8179 91.8858L46.602 97.6746L30.1906 96.771L32.2148 89.931L29.8139 82.8714C29.6597 81.4262 29.7546 79.9661 30.0946 78.5514C31.3025 74.3826 34.2131 73.911 36.7951 73.2558C37.9744 73.1294 39.1641 73.1233 40.3448 73.2378" fill="#6E498E"/>
<g opacity="0.3">
<path d="M32.1113 87.8267C32.4221 89.2176 32.8256 90.5873 33.3192 91.9271C33.6359 92.7774 34.083 93.5761 34.6452 94.2959C35.4791 95.229 36.5887 95.8879 37.8219 96.1823C39.051 96.4739 40.3258 96.535 41.5784 96.3623L35.336 92.9279L33.6775 87.3047L32.1113 87.8267Z" fill="black"/>
</g>
<path d="M44.7957 91.7079C44.767 91.5547 44.7522 91.3993 44.7513 91.2435C44.7513 90.9195 44.7144 90.4911 44.6886 89.9763C44.6442 88.8963 44.5888 87.4275 44.5371 85.7931C44.4854 84.1587 44.4485 82.6791 44.43 81.6063C44.43 81.0915 44.43 80.6631 44.43 80.3391C44.4166 80.1834 44.4166 80.0268 44.43 79.8711C44.4583 80.0244 44.4732 80.1797 44.4743 80.3355C44.4743 80.6595 44.5113 81.0879 44.5371 81.6027C44.5851 82.6827 44.6368 84.1551 44.6886 85.7895C44.7403 87.4239 44.7772 88.9035 44.7957 89.9727C44.7957 90.4911 44.7957 90.9195 44.7957 91.2435C44.8091 91.398 44.8091 91.5534 44.7957 91.7079Z" fill="#263238"/>
<path d="M30.0957 82.8233C30.1092 82.8524 30.1203 82.8825 30.129 82.9133L30.2213 83.1833C30.3026 83.4245 30.4134 83.7737 30.5574 84.2129L31.7431 87.9461L31.6877 87.9209L38.9829 85.2965L39.1676 85.2245L39.1343 85.2821C38.6929 83.6808 38.1223 82.1159 37.4278 80.6021C36.8889 79.3585 36.1576 78.2027 35.2596 77.1749C34.9081 76.7897 34.4938 76.4637 34.0333 76.2101C33.6879 76.0133 33.2989 75.9009 32.8993 75.8825C32.8219 75.8754 32.744 75.8754 32.6666 75.8825L32.4634 75.9041C32.4006 75.9041 32.3415 75.9041 32.2898 75.9221L32.1494 75.9617L31.9611 76.0085H31.8946L31.9574 75.9833L32.1458 75.9257L32.2861 75.8861C32.3432 75.8734 32.4013 75.865 32.4597 75.8609L32.6666 75.8321C32.744 75.8268 32.8218 75.8268 32.8993 75.8321C33.3063 75.8458 33.7041 75.9544 34.0591 76.1489C34.5296 76.4005 34.953 76.728 35.3113 77.1173C36.2296 78.1436 36.9774 79.3036 37.5275 80.5553C38.2316 82.0673 38.8085 83.6324 39.2525 85.2353V85.2785H39.2082L39.0272 85.3541C36.2938 86.3513 33.7599 87.2369 31.721 87.9605H31.6803V87.9209C31.2001 86.3621 30.8012 85.0769 30.5242 84.1769C30.3875 83.7341 30.2841 83.3849 30.2102 83.1401C30.177 83.0249 30.1474 82.9349 30.129 82.8665C30.1166 82.8531 30.1055 82.8386 30.0957 82.8233Z" fill="#263238"/>
<path d="M32.7852 87.6227L34.3624 92.4215C34.6278 93.3055 35.1388 94.1009 35.8388 94.7196C36.5389 95.3384 37.4009 95.7566 38.3295 95.9279L47.767 97.6775L50.3526 97.5947L49.4735 95.4743L40.6861 92.0867C40.3442 92.0125 40.03 91.8479 39.7778 91.611C39.5256 91.3741 39.3453 91.0741 39.2566 90.7439L37.9416 85.8047L32.7852 87.6227Z" fill="#FFBE9D"/>
<path d="M41.1836 97.7403L41.2649 97.1427L48.5157 96.8655L52.0728 88.1211L65.6251 89.0175L61.0523 98.7231L41.1836 97.7403Z" fill="#6E498E"/>
<path d="M57.4067 93.7934C57.3314 93.9084 57.2229 93.9992 57.0948 94.0542C56.9666 94.1092 56.8247 94.126 56.6867 94.1026C56.5488 94.0791 56.4211 94.0163 56.3197 93.9222C56.2183 93.8281 56.1478 93.7069 56.117 93.5738C56.0862 93.4406 56.0965 93.3016 56.1466 93.1742C56.1967 93.0468 56.2844 92.9367 56.3987 92.8578C56.5129 92.7789 56.6485 92.7347 56.7885 92.7308C56.9284 92.7268 57.0664 92.7634 57.1851 92.8358C57.2645 92.8842 57.3332 92.9475 57.3874 93.0219C57.4415 93.0964 57.48 93.1805 57.5006 93.2696C57.5212 93.3586 57.5235 93.4507 57.5074 93.5406C57.4913 93.6305 57.4571 93.7164 57.4067 93.7934Z" fill="white"/>
<path d="M39.6392 58.9744C35.1624 56.8756 32.9055 59.8384 32.2111 61.7932C32.0818 62.1532 31.9932 62.5384 31.8417 62.8912C31.6927 63.2553 31.415 63.5553 31.0587 63.7372C30.7927 63.8524 30.4898 63.8668 30.2165 63.964C29.9856 64.0527 29.7803 64.1947 29.6182 64.3778C29.456 64.5609 29.3419 64.7796 29.2857 65.0152C29.2314 65.2503 29.2257 65.4936 29.2688 65.731C29.3119 65.9683 29.4031 66.1949 29.5369 66.3976C29.6966 66.5829 29.8059 66.8046 29.8545 67.042C29.844 67.2056 29.8091 67.3669 29.7511 67.5208C29.6818 67.7942 29.7047 68.0822 29.8165 68.3419C29.9283 68.6016 30.123 68.8193 30.3717 68.9628C30.6205 69.1062 30.91 69.1677 31.1974 69.1381C31.4848 69.1086 31.7548 68.9896 31.9673 68.7988C32.1087 69.2154 32.3982 69.5691 32.7836 69.796C33.1863 69.9832 33.7773 69.814 33.8622 69.3892C33.9617 69.5958 34.1285 69.7645 34.3367 69.869C34.5448 69.9735 34.7827 70.0078 35.013 69.9667C35.2433 69.9256 35.4532 69.8113 35.6099 69.6417C35.7665 69.4721 35.8612 69.2567 35.879 69.0292" fill="#263238"/>
<path d="M35.84 61.0882C35.6036 61.1133 35.3854 61.2236 35.2283 61.3975C35.0711 61.5713 34.9862 61.7961 34.9904 62.0278L35.5297 74.5162C35.5518 75.9922 37.7459 76.8238 39.3786 76.7914C41.0149 76.759 41.0703 75.9742 41.0962 74.5738C41.1331 72.2266 41.1331 71.3338 41.1331 71.3626C41.1331 71.3914 43.2016 71.0278 43.6301 68.3998C43.8443 67.0894 43.7741 64.9474 43.6633 63.1942C43.5599 61.6174 42.4887 59.6842 40.8745 59.8498L35.84 61.0882Z" fill="#FFBE9D"/>
<path d="M42.9597 64.8979C42.9607 64.9855 42.9264 65.0699 42.8643 65.1332C42.8021 65.1965 42.717 65.2335 42.6272 65.2363C42.5824 65.2413 42.537 65.2373 42.4937 65.2246C42.4505 65.2119 42.4104 65.1908 42.3759 65.1625C42.3413 65.1342 42.313 65.0993 42.2927 65.06C42.2724 65.0207 42.2606 64.9778 42.2578 64.9339C42.2568 64.846 42.2909 64.7611 42.353 64.6973C42.415 64.6334 42.5001 64.5956 42.5903 64.5919C42.6354 64.5869 42.6811 64.591 42.7246 64.6039C42.768 64.6168 42.8083 64.6383 42.8429 64.667C42.8775 64.6956 42.9058 64.7309 42.9258 64.7707C42.9459 64.8104 42.9574 64.8537 42.9597 64.8979Z" fill="#263238"/>
<path d="M43.1937 64.3095C43.1494 64.3527 42.8871 64.1655 42.5141 64.1655C42.141 64.1655 41.8714 64.3491 41.8307 64.3023C41.7901 64.2555 41.8529 64.2051 41.9711 64.1187C42.1331 64.0106 42.325 63.9528 42.5215 63.9531C42.7154 63.9541 42.9041 64.0146 43.0607 64.1259C43.1679 64.2087 43.1937 64.2879 43.1937 64.3095Z" fill="#263238"/>
<path d="M39.3227 64.8983C39.3237 64.9865 39.289 65.0715 39.226 65.1349C39.1631 65.1982 39.077 65.2348 38.9866 65.2367C38.9416 65.2422 38.896 65.2386 38.8526 65.2261C38.8091 65.2136 38.7688 65.1926 38.7341 65.1642C38.6994 65.1358 38.6712 65.1007 38.6511 65.0611C38.6309 65.0216 38.6194 64.9784 38.6172 64.9343C38.6162 64.8464 38.6503 64.7615 38.7123 64.6977C38.7744 64.6338 38.8595 64.5961 38.9497 64.5923C38.9951 64.5868 39.0412 64.5905 39.0851 64.6032C39.129 64.6159 39.1697 64.6372 39.2047 64.6659C39.2398 64.6947 39.2683 64.7301 39.2886 64.7701C39.3089 64.8101 39.3205 64.8538 39.3227 64.8983Z" fill="#263238"/>
<path d="M39.5257 64.3774C39.4814 64.4206 39.2191 64.2298 38.8498 64.2334C38.4804 64.237 38.2034 64.4134 38.1627 64.3702C38.1221 64.327 38.1849 64.273 38.3068 64.1866C38.4659 64.0779 38.6554 64.0195 38.8498 64.0195C39.0441 64.0195 39.2337 64.0779 39.3927 64.1866C39.4999 64.2766 39.5479 64.3558 39.5257 64.3774Z" fill="#263238"/>
<path d="M40.8769 67.0697C41.0723 67.0103 41.2746 66.9752 41.479 66.9652C41.575 66.9652 41.6637 66.9364 41.6822 66.8716C41.6893 66.7764 41.6674 66.6813 41.6194 66.5981C41.527 66.3749 41.4347 66.1373 41.3386 65.8781C41.075 65.2809 40.8637 64.6631 40.707 64.0312C41.0156 64.6101 41.2762 65.212 41.4864 65.8312C41.5824 66.0796 41.6711 66.3136 41.756 66.5512C41.8157 66.6617 41.834 66.789 41.8078 66.9112C41.7933 66.9441 41.7716 66.9734 41.7441 66.9971C41.7167 67.0207 41.6842 67.0381 41.6489 67.0481C41.597 67.0613 41.5437 67.0686 41.4901 67.0697C41.2865 67.0949 41.0805 67.0949 40.8769 67.0697Z" fill="#263238"/>
<path d="M41.132 71.3537C39.862 71.371 38.6118 71.0458 37.5195 70.4141C37.5195 70.4141 38.3986 72.2141 41.0951 71.9729L41.132 71.3537Z" fill="#EB996E"/>
<path d="M40.7183 67.945C40.6474 67.8581 40.5548 67.7904 40.4494 67.7481C40.344 67.7059 40.2294 67.6907 40.1162 67.7038C40.0343 67.71 39.9546 67.7328 39.8821 67.7706C39.8096 67.8084 39.746 67.8604 39.6952 67.9234C39.6428 67.9825 39.6116 68.0567 39.6063 68.1346C39.601 68.2125 39.6218 68.29 39.6656 68.3554C39.7254 68.4204 39.8036 68.4667 39.8904 68.4884C39.9772 68.5102 40.0686 68.5065 40.1532 68.4778C40.3283 68.4151 40.4899 68.3211 40.6297 68.2006C40.6717 68.1711 40.7079 68.1345 40.7368 68.0926C40.7503 68.0722 40.7575 68.0485 40.7575 68.0242C40.7575 67.9999 40.7503 67.9762 40.7368 67.9558" fill="#FFC100"/>
<path d="M39.7802 67.3204C39.8393 67.3204 39.843 67.7092 40.1865 67.99C40.5301 68.2708 40.9622 68.2276 40.9659 68.2816C40.9696 68.3356 40.8699 68.3572 40.6889 68.3608C40.4522 68.366 40.2214 68.2881 40.0388 68.1412C39.8625 68.0015 39.7497 67.7998 39.7248 67.5796C39.7064 67.414 39.7544 67.3168 39.7802 67.3204Z" fill="#263238"/>
<path d="M39.6919 63.7413C39.655 63.8421 39.2856 63.7953 38.846 63.8457C38.4065 63.8961 38.0593 64.0113 38.0002 63.9249C37.9411 63.8385 38.0371 63.7881 38.1775 63.6945C38.3657 63.5739 38.5812 63.4998 38.8054 63.4785C39.0288 63.4526 39.2554 63.4785 39.4666 63.5541C39.6291 63.6189 39.7104 63.6945 39.6919 63.7413Z" fill="#263238"/>
<path d="M43.0495 63.2587C42.9831 63.3415 42.7245 63.2587 42.4179 63.2587C42.1113 63.2587 41.8491 63.3163 41.7863 63.2299C41.7235 63.1435 41.7863 63.1039 41.9156 63.0283C42.0677 62.9312 42.2473 62.8833 42.429 62.8915C42.6098 62.8957 42.785 62.9535 42.9313 63.0571C43.0422 63.1363 43.0754 63.2191 43.0495 63.2587Z" fill="#263238"/>
<path d="M35.2892 65.2947C35.1796 65.2367 35.0557 65.2094 34.9312 65.2157C34.8067 65.2221 34.6864 65.2619 34.5837 65.3307C34.3343 65.4726 34.1429 65.6942 34.0419 65.9579C33.941 66.2216 33.9366 66.5112 34.0296 66.7777C34.1226 67.0441 34.3073 67.2711 34.5523 67.4201C34.7973 67.569 35.0877 67.6309 35.3741 67.5951" fill="#FFBE9D"/>
<path d="M39.5295 58.9701C40.4452 59.0166 41.3342 59.2864 42.1151 59.755C42.9976 60.2022 43.6619 60.9726 43.962 61.8969C43.9998 61.9922 44.0174 62.094 44.0136 62.1962C44.0098 62.2983 43.9847 62.3986 43.9398 62.491C43.8541 62.5962 43.7336 62.6692 43.5989 62.6974C43.4641 62.7256 43.3235 62.7074 43.201 62.6458C42.9597 62.5143 42.7534 62.3293 42.599 62.1058C42.5346 62.3492 42.3884 62.5645 42.1837 62.7173C41.9789 62.8702 41.7275 62.9517 41.4696 62.9488C41.2117 62.9459 40.9623 62.8587 40.7612 62.7013C40.5602 62.5439 40.4191 62.3253 40.3605 62.0805C40.338 62.3323 40.2176 62.5661 40.024 62.7341C39.8303 62.9021 39.5781 62.9915 39.3189 62.9842C39.0602 62.9617 38.8138 62.8664 38.6098 62.7098C38.4058 62.5531 38.2531 62.342 38.1702 62.1021C38.1051 62.5566 37.9441 62.993 37.6973 63.3837C37.5685 63.5763 37.3824 63.726 37.1639 63.8129C36.9455 63.8997 36.705 63.9195 36.4747 63.8697C36.5723 64.256 36.5659 64.6602 36.4563 65.0434C36.3962 65.2331 36.2654 65.394 36.0898 65.4946C35.9141 65.5952 35.7062 65.6281 35.507 65.5869C35.1376 65.4645 34.9861 65.0326 34.9012 64.6582C34.7087 63.9375 34.6106 63.196 34.6094 62.4513C34.6126 61.7036 34.8568 60.9757 35.3075 60.3705C35.8141 59.7734 36.5087 59.3558 37.2836 59.1826C38.052 59.0086 38.8412 58.9383 39.6292 58.9737" fill="#263238"/>
<path d="M35.0996 66.8084C35.0996 66.7904 34.9961 66.83 34.8669 66.7724C34.7868 66.7282 34.7219 66.6619 34.6805 66.5818C34.6391 66.5017 34.6229 66.4114 34.6341 66.3224C34.6352 66.2325 34.663 66.1449 34.7141 66.0702C34.7653 65.9954 34.8376 65.9367 34.9222 65.9012C35.0552 65.8472 35.155 65.8724 35.1624 65.8544C35.1697 65.8364 35.07 65.7716 34.8927 65.8076C34.7896 65.8349 34.6971 65.8913 34.6268 65.9696C34.5441 66.0726 34.4975 66.1988 34.4938 66.3296C34.4801 66.4446 34.5061 66.5608 34.5676 66.6599C34.6291 66.7589 34.7227 66.8352 34.8336 66.8768C35.0146 66.9092 35.1143 66.8192 35.0996 66.8084Z" fill="#EB996E"/>
<path d="M42.7763 59.2833C42.2544 59.0233 41.7009 58.8285 41.1289 58.7037C40.5083 58.5817 39.8702 58.5695 39.2451 58.6677C38.4795 58.7752 37.7515 59.0602 37.1222 59.4986C36.493 59.9371 35.9809 60.5164 35.6289 61.1877C35.3349 61.7349 35.1423 62.3284 35.0601 62.9409C35.0018 63.5091 35.0143 64.082 35.097 64.6473C35.0353 64.5032 34.9931 64.352 34.9714 64.1973C34.8944 63.778 34.8782 63.3502 34.9234 62.9265C34.9882 62.2927 35.1736 61.6761 35.4701 61.1085C35.8244 60.4043 36.3517 59.7963 37.0051 59.3385C37.6585 58.8806 38.4178 58.5872 39.2155 58.4841C39.8623 58.3924 40.5207 58.4168 41.1584 58.5561C41.585 58.6515 41.9963 58.8029 42.3811 59.0061C42.5267 59.0781 42.66 59.1716 42.7763 59.2833Z" fill="#FFC100"/>
<path d="M38.6249 83.5938C38.2665 83.7437 37.8958 83.8641 37.5168 83.9538C36.8297 84.1482 35.8804 84.4182 34.8425 84.7458C33.8046 85.0734 32.87 85.3937 32.1941 85.6277C31.8347 85.7752 31.4642 85.8956 31.0859 85.9877C31.4232 85.7996 31.7767 85.6406 32.1424 85.5125C32.8072 85.2461 33.7344 84.9042 34.7797 84.5766C35.825 84.249 36.7817 83.997 37.4798 83.8314C37.8538 83.72 38.2369 83.6405 38.6249 83.5938Z" fill="#FAFAFA"/>
<path d="M37.9295 81.834C37.9295 81.8844 36.3117 82.5288 34.2764 83.274C32.2412 84.0192 30.5827 84.5916 30.5531 84.5412C30.5236 84.4908 32.171 83.8464 34.2099 83.1012C36.2489 82.356 37.9111 81.7944 37.9295 81.834Z" fill="#FAFAFA"/>
<path d="M46.6763 78.9121C46.6763 78.9625 44.7777 79.6321 42.3989 80.4385C40.0201 81.2449 38.0772 81.8389 38.0587 81.7885C38.0403 81.7381 39.9573 81.0685 42.3361 80.2621C44.7149 79.4557 46.6578 78.8725 46.6763 78.9121Z" fill="#FAFAFA"/>
<path d="M44.302 81.7656C43.4271 82.1483 42.5276 82.4754 41.6093 82.7448C40.712 83.0747 39.7926 83.3442 38.8574 83.5512C39.7296 83.1641 40.6281 82.8357 41.5465 82.5684C42.4452 82.2403 43.3659 81.9721 44.302 81.7656Z" fill="#FAFAFA"/>
<path d="M47.46 80.4141C47.0377 80.6998 46.5812 80.9343 46.1007 81.1125C45.645 81.3458 45.161 81.5223 44.6602 81.6381C45.5365 81.1161 46.4773 80.7048 47.46 80.4141Z" fill="#FAFAFA"/>
<path d="M107 55.168C107 55.168 107 55.1053 107 54.98C107 54.8547 107 54.6667 107 54.416C107 53.9008 107 53.1349 107 52.0905V52.0627H106.983C102.467 52.0244 88.6172 52 72.2627 52L38.0378 52.0592H38.0189V52.0905C38.0189 53.3856 38.0189 54.3615 38.0189 55.0183C38.0189 55.342 38.0189 55.5857 38.0189 55.7528C38.0189 55.9199 38.0189 56 38.0189 56C38.0189 56 38.0189 55.9164 38.0189 55.7528C38.0189 55.5892 38.0189 55.342 38.0189 55.0183C38.0189 54.3592 38.0189 53.3832 38.0189 52.0905L38 52.1218L72.2249 52.181C88.5794 52.181 102.429 52.1532 106.945 52.1184L106.929 52.0905C106.929 53.1349 106.929 53.9008 106.929 54.416C106.929 54.6667 106.929 54.8512 106.929 54.98C106.929 55.1088 107 55.168 107 55.168Z" fill="#263238"/>
<path d="M17.7426 101.912C17.5357 101.116 18.075 100.32 18.6808 99.7517C19.2865 99.1829 19.9994 98.6717 20.3171 97.9049C20.8305 96.6737 20.1583 95.0717 21.0263 94.0457C21.5397 93.4445 22.4484 93.2465 22.9027 92.6057C23.1122 92.2488 23.2513 91.8569 23.3127 91.4501C23.8047 89.4004 24.852 87.5169 26.3453 85.9961C26.4354 87.8256 26.0182 89.6449 25.1374 91.2629C24.7681 91.9073 24.3507 92.5373 24.2325 93.2573C24.0367 94.4309 24.7016 95.6441 24.3987 96.7961C24.0552 98.1101 22.5296 98.9849 22.4484 100.342C22.3819 101.49 23.4014 102.502 23.3201 103.647C23.2559 104.134 23.0736 104.599 22.7882 105.004C21.8685 106.473 20.5276 107.481 18.4998 107.438L16.0176 107.51L17.7426 101.912Z" fill="#6DCDCB"/>
<g opacity="0.3">
<path d="M17.7426 101.912C17.5357 101.116 18.075 100.32 18.6808 99.7517C19.2865 99.1829 19.9994 98.6717 20.3171 97.9049C20.8305 96.6737 20.1583 95.0717 21.0263 94.0457C21.5397 93.4445 22.4484 93.2465 22.9027 92.6057C23.1122 92.2488 23.2513 91.8569 23.3127 91.4501C23.8047 89.4004 24.852 87.5169 26.3453 85.9961C26.4354 87.8256 26.0182 89.6449 25.1374 91.2629C24.7681 91.9073 24.3507 92.5373 24.2325 93.2573C24.0367 94.4309 24.7016 95.6441 24.3987 96.7961C24.0552 98.1101 22.5296 98.9849 22.4484 100.342C22.3819 101.49 23.4014 102.502 23.3201 103.647C23.2559 104.134 23.0736 104.599 22.7882 105.004C21.8685 106.473 20.5276 107.481 18.4998 107.438L16.0176 107.51L17.7426 101.912Z" fill="black"/>
</g>
<path d="M15.5153 107.563C15.2881 107.594 15.0571 107.588 14.8319 107.545C14.5571 107.503 14.2872 107.434 14.0267 107.339C13.6671 107.216 13.3312 107.035 13.0331 106.803C12.8536 106.662 12.7138 106.478 12.6268 106.27C12.553 106.037 12.5144 105.794 12.5123 105.55C12.5093 105.288 12.492 105.026 12.4606 104.765C12.4134 104.49 12.3118 104.226 12.1614 103.988C11.8733 103.484 11.3894 103.009 11.2342 102.325C11.12 101.62 11.1476 100.901 11.3155 100.208C11.5001 99.4581 11.4849 98.6748 11.2712 97.9325C11.0089 97.1765 10.4696 96.4925 10.2 95.6357C9.93034 94.7789 10.067 93.8357 10.0153 92.9321C10.0018 92.4673 9.8938 92.0096 9.69762 91.5857C9.50185 91.1573 9.22483 90.7541 9.01059 90.3005C8.57473 89.3861 8.50455 88.3529 8.39004 87.3413C8.33094 86.8301 8.27553 86.3153 8.22012 85.7933C8.18711 85.2697 8.09799 84.7509 7.95418 84.2453C7.78884 83.7341 7.59272 83.2328 7.36687 82.7441C7.25166 82.4912 7.15659 82.23 7.08246 81.9629C7.0435 81.6859 7.01884 81.4072 7.00858 81.1277C6.98471 80.5686 7.01067 80.0085 7.08616 79.4537C7.15634 78.8957 7.26345 78.3449 7.32624 77.7833V77.6897V77.5781L7.42598 77.6285C7.95129 77.8913 8.40657 78.2697 8.75572 78.7337C9.09789 79.1865 9.37156 79.6847 9.56835 80.2133C9.9121 81.2467 10.1594 82.3082 10.3071 83.3849C10.4551 84.4129 10.7943 85.406 11.3081 86.3153C11.5778 86.7473 11.9028 87.1433 12.1909 87.5645C12.4963 87.9754 12.7033 88.4478 12.7967 88.9469C12.937 89.9729 12.3534 90.8657 12.4716 91.7729C12.5265 92.2187 12.6776 92.6481 12.9149 93.0329C13.1402 93.4181 13.4025 93.7781 13.6536 94.1417C13.9098 94.4938 14.1311 94.8686 14.3148 95.2613C14.4875 95.6453 14.5888 96.056 14.614 96.4745C14.6694 97.2917 14.5438 98.0657 14.614 98.7965C14.6786 99.4918 14.8818 100.168 15.2124 100.787C15.5116 101.385 15.8403 101.925 16.1174 102.447C16.2541 102.699 16.3774 102.957 16.4867 103.221C16.5845 103.469 16.6563 103.726 16.701 103.988C16.7692 104.445 16.7692 104.909 16.701 105.367C16.634 106.006 16.3845 106.615 15.9807 107.123C15.9207 107.2 15.854 107.271 15.7812 107.336C15.7311 107.386 15.6753 107.431 15.615 107.469L15.4747 107.566C15.6511 107.428 15.8132 107.274 15.9585 107.105C16.3427 106.594 16.5787 105.99 16.6419 105.359C16.6991 104.907 16.6904 104.449 16.616 103.999C16.5735 103.742 16.5016 103.491 16.4018 103.25C16.2984 103.001 16.1691 102.746 16.0324 102.487C15.7517 101.968 15.4193 101.432 15.1164 100.831C14.7732 100.202 14.561 99.5128 14.4921 98.8037C14.433 98.0585 14.5512 97.2809 14.4921 96.4853C14.468 96.0802 14.3691 95.6827 14.2003 95.3117C14.0179 94.9274 13.8004 94.5599 13.5502 94.2137C13.299 93.8537 13.0331 93.4937 12.8115 93.0977C12.5733 92.6982 12.4247 92.2541 12.3756 91.7945C12.2611 90.8297 12.841 89.9261 12.6969 88.9757C12.6037 88.4985 12.4031 88.0473 12.1097 87.6545C11.8289 87.2405 11.5002 86.8445 11.2231 86.4017C10.6992 85.4766 10.3514 84.4667 10.1963 83.4209C10.0484 82.3525 9.8011 81.2993 9.45754 80.2745C9.26529 79.7605 8.99914 79.2757 8.66707 78.8345C8.33356 78.3834 7.89738 78.0138 7.39272 77.7545L7.50723 77.6933V77.7905C7.44074 78.3593 7.33363 78.9101 7.26345 79.4645C7.19286 80.0112 7.16815 80.5627 7.18957 81.1133C7.18957 81.3797 7.21912 81.6641 7.25976 81.9197C7.33005 82.1789 7.42273 82.4318 7.53679 82.6757C7.76352 83.169 7.95965 83.6751 8.1241 84.1913C8.27092 84.7049 8.3613 85.2323 8.39374 85.7645C8.45284 86.2865 8.50825 86.8013 8.56366 87.3125C8.67447 88.3313 8.74833 89.3465 9.16572 90.2285C9.37257 90.6677 9.64962 91.0745 9.85277 91.5173C10.0525 91.9581 10.1629 92.4324 10.1778 92.9141C10.2258 93.8465 10.0966 94.7609 10.3514 95.5889C10.6063 96.4169 11.1419 97.1009 11.4078 97.8821C11.6257 98.6423 11.6397 99.4443 11.4485 100.211C11.2794 100.893 11.2481 101.599 11.3561 102.292C11.4965 102.944 11.9656 103.415 12.2611 103.934C12.4152 104.182 12.5181 104.457 12.564 104.744C12.5939 105.007 12.61 105.271 12.612 105.536C12.6104 105.779 12.644 106.021 12.7117 106.256C12.7907 106.453 12.9175 106.628 13.0811 106.767C13.3702 106.998 13.6974 107.179 14.0489 107.303C14.3055 107.401 14.5716 107.473 14.843 107.519C15.0101 107.549 15.1793 107.566 15.3491 107.57L15.5153 107.563Z" fill="#263238"/>
<path d="M7.83923 79.0195L7.8614 79.0951C7.8614 79.1527 7.89464 79.2247 7.91311 79.3111C7.96113 79.5019 8.02022 79.7899 8.10887 80.1499C8.19752 80.5099 8.43023 80.9167 8.61861 81.4171C8.80699 81.9175 9.01384 82.4971 9.19853 83.1379C9.38322 83.7787 9.54573 84.4987 9.71934 85.2691C9.86571 86.0888 10.128 86.8848 10.4987 87.6343C10.7019 88.0303 10.9272 88.4299 11.1082 88.8655C11.2827 89.3129 11.3994 89.7797 11.4554 90.2551C11.5754 91.24 11.7481 92.2181 11.9725 93.1855C12.4601 95.1691 12.9218 97.0591 13.3429 98.7799C13.764 100.501 14.1666 102.045 14.4954 103.348C14.8241 104.652 15.0716 105.688 15.2563 106.426L15.4557 107.269C15.4557 107.355 15.489 107.427 15.5038 107.488C15.5065 107.513 15.5065 107.539 15.5038 107.564C15.4919 107.541 15.4832 107.517 15.4779 107.492L15.4114 107.276C15.356 107.074 15.2821 106.794 15.1861 106.444L14.3735 103.374C14.0373 102.074 13.6347 100.53 13.1915 98.8159C12.7482 97.1023 12.2976 95.2159 11.8063 93.2179C11.5803 92.2472 11.4077 91.2654 11.2892 90.2767C11.2363 89.8123 11.1233 89.3563 10.9531 88.9195C10.7795 88.4947 10.5578 88.0987 10.3547 87.6991C9.98331 86.9363 9.72227 86.127 9.579 85.2943C9.41278 84.5239 9.25762 83.8111 9.07663 83.1667C8.89564 82.5223 8.70726 81.9463 8.52257 81.4495C8.33788 80.9527 8.12734 80.5387 8.03869 80.1679C7.95004 79.7971 7.9094 79.5127 7.87246 79.3183C7.87246 79.2283 7.84292 79.1563 7.83554 79.0987C7.83259 79.0723 7.83384 79.0456 7.83923 79.0195Z" fill="#263238"/>
<path d="M15.0749 107.566C13.4608 106.619 13.0101 103.764 13.6972 102.054C14.3842 100.344 15.5773 98.7784 15.7694 96.9496C15.9171 95.5456 15.4554 94.0984 15.7989 92.7268C16.2643 90.8728 18.1297 89.4472 18.1186 87.5392C18.1186 86.4592 17.4944 85.462 17.5498 84.3928C17.6199 83.0824 18.6579 82.0456 19.3043 80.8936C20.2942 79.1332 20.3681 77.0416 20.7153 75.0616C21.0625 73.0816 21.8493 70.9648 23.6703 70C23.9252 71.6848 24.3721 72.8404 24.217 75.1192C24.1616 75.9364 23.1754 77.4988 23.0313 79.2916C22.9463 80.3716 22.8872 81.4516 22.8134 82.51C22.7951 83.5579 22.6133 84.597 22.2741 85.5916C21.9749 86.3404 21.4984 87.0316 21.2768 87.7912C20.8557 89.2312 21.3876 90.8188 21.0478 92.2912C20.7596 93.5368 19.8658 94.606 19.6774 95.8732C19.4114 97.648 20.5823 99.5056 19.9692 101.198C19.6626 102.036 18.9497 102.71 18.7429 103.577C18.5803 104.25 18.7429 104.967 18.6025 105.644C18.3698 106.724 16.2274 107.57 15.086 107.494" fill="#6DCDCB"/>
<path d="M23.2027 71.668C23.2068 71.7002 23.2068 71.7329 23.2027 71.7652C23.2027 71.8336 23.1806 71.9272 23.1658 72.0388C23.1252 72.2836 23.0809 72.64 22.9959 73.1008C22.9109 73.5616 22.6524 74.0872 22.4529 74.7136C22.2535 75.34 22.0318 76.0636 21.8471 76.8736C21.6625 77.6836 21.4778 78.58 21.33 79.5448C21.1917 80.585 20.9057 81.6016 20.4805 82.5652C20.2477 83.0692 19.9929 83.5732 19.7971 84.1096C19.6074 84.6618 19.4895 85.2351 19.4462 85.816C19.3473 87.049 19.1809 88.2759 18.9476 89.4916C18.4378 91.9828 17.9502 94.3552 17.507 96.5152C17.0637 98.6752 16.6205 100.605 16.2659 102.236C15.9113 103.866 15.6195 105.17 15.4163 106.088C15.3166 106.534 15.2353 106.883 15.1799 107.135C15.1504 107.248 15.1282 107.338 15.1134 107.405C15.1134 107.466 15.0876 107.499 15.0839 107.495C15.0814 107.464 15.0814 107.433 15.0839 107.402C15.0839 107.333 15.1134 107.243 15.1356 107.128C15.1873 106.876 15.2575 106.523 15.3462 106.077C15.5382 105.152 15.8079 103.838 16.144 102.214C16.4801 100.59 16.8828 98.6392 17.3519 96.4864C17.821 94.3336 18.2716 91.9576 18.7813 89.4664C19.0116 88.254 19.1768 87.0307 19.2763 85.8016C19.3251 85.2081 19.4491 84.6229 19.6457 84.0592C19.8451 83.512 20.1074 83.0044 20.3364 82.504C20.7619 81.5539 21.049 80.5506 21.1897 79.5232C21.3633 78.562 21.5295 77.662 21.7289 76.8484C21.9284 76.0348 22.1427 75.3148 22.3606 74.6884C22.5785 74.062 22.826 73.54 22.9257 73.0864C23.0254 72.6328 23.0772 72.2764 23.1252 72.0352C23.1474 71.92 23.1658 71.83 23.1806 71.7616C23.1837 71.7295 23.1911 71.6981 23.2027 71.668Z" fill="#263238"/>
</g>
<defs>
<clipPath id="clip0_3497_30906">
<rect width="133" height="123" rx="10" fill="white"/>
</clipPath>
</defs>
</svg>
