<svg width="154" height="67" viewBox="0 0 154 67" fill="none" xmlns="http://www.w3.org/2000/svg">
<g clip-path="url(#clip0_1385_21926)">
<path d="M80.8077 0C67.4214 0 56.5703 10.8477 56.5703 24.2285C56.5703 37.6094 67.4214 48.4559 80.8077 48.4559C94.194 48.4559 105.046 37.6094 105.046 24.2285C105.046 10.8477 94.194 0 80.8077 0ZM80.6966 46.0661C68.5712 46.0661 58.7412 36.2401 58.7412 24.1197C58.7412 11.9993 68.5735 2.17332 80.6988 2.17332C92.8242 2.17332 102.655 11.9938 102.655 24.1197C102.655 36.2456 92.8253 46.0661 80.6988 46.0661H80.6966Z" fill="#727272"/>
<path d="M52.2892 67.4481L46.5742 62.9793L61.2982 44.1602L65.8588 44.2179L67.0142 48.6289L52.2892 67.4481Z" fill="#727272"/>
<path d="M67.4731 44.7685L65.0762 42.8945L48.303 64.3313L50.6999 66.2052L67.4731 44.7685Z" fill="#727272"/>
<path d="M95.3305 21.7905L95.2538 21.7105L88.1868 28.5148L86.3003 24.6168L93.6984 22.7411L93.6718 22.6334L86.2515 24.5146L79.1667 9.87891L79.0667 9.92777L79.3444 10.503L79.2444 10.5141L80.0144 17.0974L80.1243 17.0841L79.3578 10.5308L86.1415 24.5424L72.0463 28.1139L72.073 28.2216L86.1904 24.6446L88.1035 28.5959L77.8357 38.4818L70.7254 31.4077L70.6465 31.4866L77.7957 38.5984L77.8357 38.5596L77.8468 38.614L90.4288 35.8654L90.4055 35.7566L78.0157 38.463L88.1535 28.7002L91.0776 34.7416L91.1776 34.6927L88.2379 28.6192L95.3305 21.7905Z" fill="white"/>
<path d="M72.9411 15.6152L72.8848 15.7109L77.7151 18.5528L77.7715 18.4571L72.9411 15.6152Z" fill="white"/>
<path d="M78.4215 10.3233L73.0059 12.8984L73.0536 12.9987L78.4692 10.4236L78.4215 10.3233Z" fill="white"/>
<path d="M68.669 17.0805L66.7402 23.1914L66.8462 23.2248L68.7749 17.1139L68.669 17.0805Z" fill="white"/>
<path d="M80.0789 10.1607L80.0078 10.2461L93.7267 21.6635L93.7978 21.5781L80.0789 10.1607Z" fill="white"/>
<path d="M95.013 23.4816L91.6641 33.5859L91.7695 33.6209L95.1185 23.5165L95.013 23.4816Z" fill="white"/>
<path d="M77.59 21.1827L71.8965 26.75L71.9742 26.8294L77.6676 21.262L77.59 21.1827Z" fill="white"/>
<path d="M67.5523 32.4135C70.0287 32.4135 72.0363 30.4067 72.0363 27.9313C72.0363 25.4559 70.0287 23.4492 67.5523 23.4492C65.0759 23.4492 63.0684 25.4559 63.0684 27.9313C63.0684 30.4067 65.0759 32.4135 67.5523 32.4135Z" fill="#727272"/>
<path d="M80.2307 22.8496C81.8229 22.8496 83.1137 21.5594 83.1137 19.9678C83.1137 18.3762 81.8229 17.0859 80.2307 17.0859C78.6384 17.0859 77.3477 18.3762 77.3477 19.9678C77.3477 21.5594 78.6384 22.8496 80.2307 22.8496Z" fill="#EBEBEB"/>
<path d="M70.1877 17.502C71.78 17.502 73.0707 16.2117 73.0707 14.6201C73.0707 13.0285 71.78 11.7383 70.1877 11.7383C68.5955 11.7383 67.3047 13.0285 67.3047 14.6201C67.3047 16.2117 68.5955 17.502 70.1877 17.502Z" fill="#EBEBEB"/>
<path d="M79.0974 10.5531C79.8048 10.5531 80.3784 9.9798 80.3784 9.27263C80.3784 8.56546 79.8048 7.99219 79.0974 7.99219C78.3899 7.99219 77.8164 8.56546 77.8164 9.27263C77.8164 9.9798 78.3899 10.5531 79.0974 10.5531Z" fill="#EBEBEB"/>
<path d="M91.0661 35.9867C91.7736 35.9867 92.3471 35.4134 92.3471 34.7062C92.3471 33.9991 91.7736 33.4258 91.0661 33.4258C90.3587 33.4258 89.7852 33.9991 89.7852 34.7062C89.7852 35.4134 90.3587 35.9867 91.0661 35.9867Z" fill="#EBEBEB"/>
<path d="M95.3247 23.3942C96.2095 23.3942 96.9268 22.6772 96.9268 21.7928C96.9268 20.9084 96.2095 20.1914 95.3247 20.1914C94.4399 20.1914 93.7227 20.9084 93.7227 21.7928C93.7227 22.6772 94.4399 23.3942 95.3247 23.3942Z" fill="#EBEBEB"/>
<path d="M77.9145 40.1989C78.7993 40.1989 79.5166 39.4819 79.5166 38.5975C79.5166 37.7131 78.7993 36.9961 77.9145 36.9961C77.0298 36.9961 76.3125 37.7131 76.3125 38.5975C76.3125 39.4819 77.0298 40.1989 77.9145 40.1989Z" fill="#EBEBEB"/>
<path d="M32.4007 43.2773H36.6702V49.5463H39.2044V53.22H36.6702V66.5553H32.4007V53.22H30.2109V49.5463H32.4007V43.2773Z" fill="white"/>
<path d="M58.5345 59.2863H44.8182C45.0174 60.4953 45.5466 61.4578 46.4058 62.1737C47.2649 62.8896 48.3626 63.2465 49.6988 63.2443C50.4611 63.2549 51.2178 63.1123 51.9239 62.825C52.63 62.5377 53.2712 62.1116 53.8094 61.5718L57.4068 63.2598C56.5099 64.531 55.4359 65.4716 54.1849 66.0817C52.934 66.6917 51.4482 66.9964 49.7276 66.9956C47.0613 66.9956 44.8871 66.1542 43.205 64.4714C41.523 62.7886 40.6838 60.6808 40.6875 58.148C40.6875 55.5523 41.5241 53.3975 43.1972 51.6836C44.8704 49.9697 46.9698 49.1116 49.4954 49.1094C52.1744 49.1094 54.3534 49.9667 56.0325 51.6814C57.7116 53.396 58.5508 55.66 58.55 58.4734L58.5345 59.2863ZM54.2649 55.9258C53.9903 54.9867 53.4022 54.1699 52.5984 53.6115C51.7553 53.0143 50.743 52.703 49.7099 52.7231C48.5839 52.7021 47.4825 53.0534 46.5769 53.7225C46.0125 54.1394 45.49 54.8742 45.0093 55.9269L54.2649 55.9258Z" fill="white"/>
<path d="M78.6482 52.9829L75.0931 54.9375C74.4265 54.2393 73.7662 53.7547 73.1122 53.4838C72.3817 53.2003 71.6025 53.0636 70.8191 53.0818C69.2215 53.0818 67.9298 53.5578 66.9439 54.5099C65.9581 55.462 65.4648 56.6817 65.4641 58.1691C65.4641 59.6158 65.9389 60.797 66.8884 61.7128C67.8379 62.6286 69.0856 63.0866 70.6313 63.0866C72.5407 63.0866 74.0284 62.435 75.0942 61.132L78.4605 63.4364C76.6362 65.81 74.061 66.9945 70.7346 66.9901C67.7416 66.9901 65.3982 66.1043 63.7043 64.3326C62.0104 62.5609 61.1631 60.4879 61.1624 58.1136C61.1504 56.5065 61.5812 54.9271 62.4076 53.5484C63.234 52.1698 64.424 51.0451 65.8474 50.2976C67.3228 49.5062 68.9726 49.1101 70.7969 49.1094C72.4856 49.1094 74.0039 49.4455 75.3519 50.1177C76.6781 50.7748 77.8132 51.7614 78.6482 52.9829Z" fill="white"/>
<path d="M82.5098 42.9766H86.7482V51.2634C87.499 50.5968 88.3486 50.0506 89.2668 49.6442C90.0761 49.2926 90.9485 49.1093 91.831 49.1056C93.5204 49.1056 94.9436 49.689 96.1005 50.8558C97.0915 51.8679 97.587 53.3534 97.587 55.3124V66.5532H93.3797V59.096C93.3797 57.1266 93.286 55.794 93.0986 55.098C92.9112 54.4021 92.5905 53.8783 92.1365 53.5266C91.6832 53.1824 91.1225 53.0102 90.4545 53.0102C89.6279 52.9954 88.8282 53.3038 88.2258 53.8698C87.6059 54.4436 87.1759 55.2254 86.936 56.2152C86.8108 56.7261 86.7482 57.8933 86.7482 59.7168V66.5532H82.5098V42.9766Z" fill="white"/>
<path d="M102.233 43.2773H106.502V49.5463H109.036V53.22H106.502V66.5553H102.233V53.22H100.043V49.5463H102.233V43.2773Z" fill="white"/>
<path d="M112.987 42.5432C113.347 42.5387 113.704 42.6086 114.035 42.7485C114.367 42.8884 114.666 43.0952 114.913 43.3561C115.174 43.613 115.379 43.9201 115.517 44.2587C115.655 44.5974 115.723 44.9605 115.717 45.3262C115.723 45.6876 115.655 46.0464 115.519 46.3811C115.382 46.7157 115.179 47.0191 114.921 47.2729C114.677 47.5309 114.381 47.7355 114.054 47.874C113.726 48.0126 113.374 48.082 113.018 48.0781C112.655 48.0831 112.295 48.0128 111.961 47.8715C111.627 47.7303 111.325 47.5211 111.076 47.2574C110.815 46.996 110.61 46.6848 110.472 46.3423C110.334 45.9998 110.267 45.6331 110.274 45.264C110.273 44.9073 110.343 44.5539 110.479 44.2241C110.615 43.8943 110.815 43.5946 111.067 43.3419C111.319 43.0893 111.618 42.8887 111.947 42.7516C112.277 42.6146 112.63 42.5438 112.987 42.5432ZM110.853 49.5473H115.122V66.5563H110.849L110.853 49.5473Z" fill="white"/>
<path d="M117.176 49.5469H121.525L125.825 59.5839L130.114 49.5469H134.442L127.201 66.5558H124.431L117.176 49.5469Z" fill="white"/>
<path d="M153.984 59.2841H140.269C140.466 60.4931 140.995 61.4556 141.856 62.1715C142.717 62.8874 143.814 63.2443 145.148 63.242C145.91 63.2524 146.667 63.1097 147.373 62.8225C148.079 62.5352 148.72 62.1091 149.259 61.5696L152.856 63.2576C151.958 64.5288 150.884 65.4694 149.634 66.0795C148.384 66.6895 146.898 66.9942 145.177 66.9934C142.51 66.9934 140.336 66.152 138.654 64.4692C136.972 62.7864 136.133 60.6786 136.137 58.1458C136.137 55.5501 136.973 53.3953 138.646 51.6814C140.32 49.9674 142.418 49.1101 144.941 49.1094C147.621 49.1094 149.8 49.9667 151.48 51.6814C153.159 53.396 153.998 55.66 153.997 58.4734L153.984 59.2841ZM149.714 55.9236C149.44 54.9845 148.851 54.1677 148.048 53.6093C147.205 53.0122 146.192 52.7008 145.159 52.7208C144.033 52.6998 142.932 53.0512 142.026 53.7203C141.463 54.1371 140.941 54.8719 140.46 55.9247L149.714 55.9236Z" fill="white"/>
<path d="M0 66.6838V23.7461H3.1341C9.55896 23.7461 11.7676 24.2625 14.6684 25.2931C18.8346 26.7538 22.0924 29.2836 24.4418 32.8825C26.7912 36.4813 27.9622 40.7717 27.9547 45.7536C27.9547 50.055 27.0252 53.8401 25.1662 57.1088C23.3071 60.3774 20.8933 62.7903 17.9247 64.3472C14.9554 65.902 10.794 66.6794 5.44052 66.6794L0 66.6838ZM4.11733 62.627H3.30964C9.24678 62.627 10.911 62.2572 13.2086 61.5165C16.4393 60.4659 18.9798 58.575 20.83 55.8439C22.6801 53.1127 23.606 49.7733 23.6074 45.8257C23.6074 41.6849 22.605 38.1464 20.6 35.2101C18.595 32.2739 15.802 30.262 12.2209 29.1744C9.53452 28.3581 7.55474 27.9528 1.38763 27.9528H4.11733V62.627Z" fill="white"/>
</g>
<defs>
<clipPath id="clip0_1385_21926">
<rect width="154" height="67" fill="white"/>
</clipPath>
</defs>
</svg>
