<svg width="249" height="248" viewBox="0 0 249 248" fill="none" xmlns="http://www.w3.org/2000/svg">
<g id="freepik--standard-option--inject-4">
<path id="Vector" d="M207.32 26.9253C207.8 26.0395 208.099 25.0667 208.198 24.064C208.298 23.0612 208.196 22.0487 207.899 21.0858C207.602 20.1229 207.116 19.2291 206.469 18.4567C205.823 17.6844 205.028 17.049 204.133 16.588C204.419 14.1123 203.742 11.6213 202.242 9.63188C200.742 7.64242 198.535 6.30722 196.077 5.9033C193.721 5.61996 191.337 6.24148 188.971 6.05868C186.606 5.87588 184.56 4.96189 182.313 4.55059C180.066 4.13929 177.482 4.37692 175.92 6.05868C174.212 7.88668 174.468 10.9851 175.829 13.133C177.189 15.2809 179.381 16.7068 181.51 18.0778C180.871 18.0766 180.254 18.3078 179.774 18.7282C179.293 19.1486 178.982 19.7296 178.897 20.3628C178.764 21.6615 179.116 22.9636 179.884 24.0188C181.044 25.7987 182.673 27.2235 184.591 28.1363C186.508 29.0491 188.641 29.4144 190.752 29.192L196.717 29.0184C197.547 29.5883 198.482 29.9866 199.468 30.1899C200.454 30.3933 201.471 30.3977 202.458 30.2027C203.446 30.0078 204.385 29.6175 205.22 29.0547C206.054 28.4919 206.769 27.7679 207.32 26.9253Z" fill="#263238"/>
<path id="Vector_2" d="M188.479 32.8202C187.866 32.8748 187.255 32.7005 186.763 32.331C186.27 31.9615 185.932 31.4228 185.813 30.8186C185.719 30.2079 185.794 29.5832 186.031 29.0127C186.268 28.4421 186.657 27.9476 187.155 27.583C188.174 26.8836 189.404 26.5605 190.635 26.669C191.862 26.773 193.068 27.0532 194.215 27.5008C196.02 28.0949 197.747 28.9051 199.357 29.9137C199.939 30.2542 200.438 30.7193 200.819 31.2756C201.008 31.5562 201.117 31.8825 201.137 32.2202C201.156 32.558 201.084 32.8947 200.928 33.195C200.435 33.9993 199.33 34.109 198.389 34.109C194.858 34.1251 191.334 33.8192 187.858 33.195" fill="#6E498E"/>
<path id="Vector_3" d="M186.516 30.8103C185.812 24.1198 176.378 18.1148 172.304 19.1842C171.267 17.2541 169.527 15.7976 167.446 15.1168C165.364 14.4361 163.101 14.5834 161.125 15.5282L150.019 10.6018C148.119 9.76088 146.128 8.89259 144.064 9.07539C142 9.25819 139.899 10.9034 139.972 12.9599C135.963 11.3604 130.948 15.4094 131.679 19.6778C131.081 19.814 130.517 20.0712 130.022 20.4336C129.528 20.796 129.112 21.2559 128.802 21.785C128.491 22.3142 128.292 22.9013 128.217 23.5103C128.141 24.1194 128.191 24.7374 128.364 25.3263C123.384 26.5602 118.651 28.6375 114.371 31.4684C112.545 32.6474 110.782 34.1007 110.197 36.1572C109.613 38.2137 110.919 40.9009 113.056 40.9191C112.099 41.2387 111.253 41.8276 110.622 42.6154C109.99 43.4032 109.599 44.3565 109.494 45.3612C107.841 44.2095 105.521 46.3574 105.777 48.3591C106.033 50.3608 107.741 51.8049 109.385 52.9291C111.029 54.0533 112.846 55.2781 113.504 57.1792C113.344 57.3692 113.148 57.5246 112.927 57.6362C112.705 57.7478 112.463 57.8131 112.216 57.8281C107.777 58.0475 104.133 61.3653 104.078 65.8074C104.078 66.2187 104.078 66.6025 104.078 66.9407C104.078 68.9698 105.466 71.8946 106.361 73.7043C108.617 78.2743 111.065 79.5448 114.718 83.1368C111.668 84.9648 114.024 95.6769 125.834 95.5124C137.999 110.721 147.799 120.3 163.463 131.862C165.701 133.516 168.614 135.189 171.08 133.91C172.542 135.738 175.117 136.322 177.428 135.993C179.714 135.522 181.904 134.666 183.903 133.462C186.251 134.319 188.807 134.428 191.219 133.773C193.631 133.119 195.782 131.733 197.375 129.806C199.448 129.734 201.483 129.231 203.351 128.329C205.219 127.427 206.879 126.147 208.226 124.568C212.838 126.186 218.501 122.814 219.286 117.988C221.873 112.756 223.577 107.132 224.328 101.344C227.305 102.669 230.812 99.9178 231.525 96.728C232.237 93.5381 231.031 90.33 229.844 87.2498C231.397 89.1692 234.84 87.981 235.799 85.7143C236.758 83.4476 236 80.8335 235.041 78.5577C233.647 75.2206 231.853 72.0654 229.698 69.1618C231.26 65.1127 229.762 58.0841 227.698 54.2635C219.368 38.8444 211.541 30.7463 186.534 30.7281" fill="#263238"/>
<path id="Vector_4" d="M159.599 42.2535C160.45 40.8863 161.785 39.8906 163.338 39.4653C164.89 39.04 166.546 39.2165 167.974 39.9594L201.192 51.4758C210.947 56.5028 209.64 71.7209 204.206 81.263C198.169 91.8654 190.387 104.57 184.204 111.37C171.765 125.08 156.914 117.823 156.914 117.823L149.607 128.846L141.159 141.742C137.304 138.16 113.941 113.006 113.941 113.006L159.599 42.2535Z" fill="#FFBF9D"/>
<path id="Vector_5" d="M173.692 93.4092C173.756 93.2812 175.218 93.9119 177.519 95.0361C178.095 95.3377 178.67 95.5662 178.999 95.2555C179.409 94.73 179.651 94.0929 179.693 93.4275C180.04 91.7945 180.405 90.0792 180.789 88.2817C182.406 80.9697 183.949 75.1475 184.241 75.2115C184.534 75.2754 183.465 81.2439 181.848 88.5284C181.437 90.3564 181.045 92.0199 180.661 93.656C180.575 94.5272 180.183 95.3398 179.556 95.9501C179.354 96.0878 179.123 96.1776 178.88 96.2124C178.638 96.2472 178.391 96.2263 178.159 96.1512C177.809 96.038 177.474 95.8814 177.163 95.6851C174.953 94.4329 173.619 93.5189 173.692 93.4092Z" fill="#263238"/>
<path id="Vector_6" d="M156.914 117.815C156.914 117.815 148.091 113.245 141.926 100.449C141.926 100.449 136.93 113.437 153.416 123.089L156.914 117.815Z" fill="#FF9A6C"/>
<path id="Vector_7" d="M181.464 64.3628C180.88 64.8015 178.953 63.1472 176.286 61.8219C173.619 60.4966 171.18 59.8568 171.189 59.1347C171.189 58.7874 171.902 58.4766 173.071 58.4492C174.592 58.4771 176.087 58.8502 177.443 59.5405C178.799 60.2309 179.98 61.2203 180.898 62.4343C181.519 63.4031 181.684 64.1526 181.464 64.3628Z" fill="#263238"/>
<path id="Vector_8" d="M201.274 78.2187C200.589 78.4563 199.447 77.0031 197.73 75.8331C196.013 74.6632 194.305 74.0051 194.287 73.3196C194.287 72.9815 194.844 72.6524 195.794 72.625C197.018 72.6311 198.21 73.0211 199.201 73.7401C200.216 74.4321 200.991 75.422 201.42 76.5735C201.713 77.4692 201.557 78.0907 201.274 78.2187Z" fill="#263238"/>
<path id="Vector_9" d="M205.723 93.1727C207.353 90.7826 208.111 87.9035 207.87 85.0199C207.669 83.4661 207.075 81.9671 207.038 80.395C206.956 77.0041 209.377 74.1341 210.591 70.9717C211.356 68.9164 211.62 66.7083 211.361 64.5305C211.102 62.3528 210.328 60.2683 209.103 58.4499C207.038 55.452 203.796 53.3132 202.198 50.0502C201.01 47.6373 200.819 44.8039 199.458 42.4732C196.873 37.9032 190.973 36.6601 185.758 36.2031C182.945 38.5795 183.018 42.4092 183.018 46.0926C183.041 47.9341 183.461 49.7489 184.249 51.4131C185.037 53.0772 186.175 54.5516 187.584 55.7353C189.795 57.5633 192.863 58.9709 193.302 61.7951C193.759 64.7656 190.891 67.3431 190.854 70.341C190.809 74.6368 196.161 76.8578 197.896 80.788C199.229 83.8134 198.206 87.2957 197.622 90.5587C197.037 93.8217 197.238 97.8159 200.015 99.6256C202.157 97.6992 204.072 95.5342 205.723 93.1727Z" fill="#263238"/>
<path id="Vector_10" d="M187.758 45.6447C181.056 40.6498 173.451 37.0026 165.363 34.9052C162.961 34.2837 160.358 33.8084 158.056 34.7499C156.037 35.5725 154.576 37.3456 153.316 39.1371C149.388 44.7216 146.721 53.1213 145.096 59.7752L149.023 68.9152C155.261 71.5018 159.453 60.5338 162.531 55.7353C164.996 56.2268 167.549 56.0162 169.9 55.1276C172.251 54.2389 174.305 52.7077 175.829 50.7083C178.071 50.8197 180.308 50.422 182.374 49.5451C184.439 48.6682 186.28 47.3347 187.758 45.6447Z" fill="#263238"/>
<path id="Vector_11" d="M150.412 66.8587C152.495 63.5317 149.042 60.1042 145.142 59.7752C143.005 59.5924 140.576 60.5521 138.356 64.0618C132.401 73.4029 143.005 77.4702 143.197 77.2051C143.389 76.9401 147.974 70.7432 150.412 66.8587Z" fill="#FFBF9D"/>
<path id="Vector_12" d="M142.593 71.8508C142.593 71.7868 142.356 71.8508 142 71.8508C141.507 71.7711 141.065 71.5022 140.767 71.1013C140.009 70.1051 140.182 68.012 141.205 66.2937C141.694 65.478 142.359 64.7817 143.151 64.2555C143.424 64.0201 143.751 63.8546 144.102 63.7734C144.454 63.6922 144.82 63.6977 145.169 63.7893C145.388 63.8583 145.576 64.0024 145.7 64.1963C145.823 64.3902 145.875 64.6215 145.845 64.8496C145.845 65.1878 145.626 65.334 145.671 65.3888C145.717 65.4437 145.964 65.3888 146.137 64.9227C146.23 64.6563 146.23 64.3665 146.137 64.1001C146.003 63.7418 145.734 63.45 145.388 63.2866C144.956 63.1211 144.489 63.0678 144.031 63.1317C143.572 63.1956 143.137 63.3747 142.767 63.6522C141.85 64.2058 141.084 64.9783 140.538 65.9007C139.397 67.8201 139.232 70.1965 140.337 71.4487C140.542 71.6813 140.795 71.8652 141.08 71.987C141.364 72.1088 141.672 72.1653 141.981 72.1524C142.429 72.061 142.612 71.8874 142.593 71.8508Z" fill="#FF9A6C"/>
<path id="Vector_13" d="M138.866 74.9006C138.866 74.9006 138.866 74.9006 138.757 75.0012C138.647 75.1005 138.524 75.1836 138.391 75.2479C137.859 75.5108 137.25 75.5756 136.674 75.4307C135.756 75.2341 134.888 74.8481 134.126 74.2974C133.635 73.9601 133.176 73.5776 132.756 73.1549C132.262 72.6876 131.846 72.1446 131.523 71.5462H131.669C131 72.2196 130.167 72.7073 129.252 72.9616C128.337 73.2158 127.372 73.2279 126.451 72.9966C125.53 72.7653 124.685 72.2986 123.999 71.6422C123.313 70.9858 122.809 70.1622 122.536 69.2521L122.71 69.3343C122.142 69.5421 121.516 69.5191 120.965 69.2704C120.409 69.0193 119.936 68.6131 119.604 68.1005C119.246 67.561 119.076 66.9185 119.12 66.2725C119.165 65.6208 119.375 64.9914 119.732 64.4445C120.474 63.3348 121.583 62.5225 122.865 62.1503C124.179 61.7905 125.531 61.5911 126.893 61.5562L126.765 61.7756C126.561 61.2717 126.465 60.7305 126.484 60.1873C126.503 59.644 126.636 59.1108 126.874 58.6223C127.338 57.6051 128.091 56.7469 129.039 56.1545C130.021 55.5843 131.103 55.2088 132.226 55.0485C133.358 54.8865 134.499 54.798 135.642 54.7835L135.487 54.9754C135.415 54.397 135.465 53.8098 135.635 53.2522C135.805 52.6947 136.091 52.1793 136.473 51.7398C137.239 50.815 138.263 50.1403 139.414 49.8022C141.625 49.1624 143.89 49.5554 145.99 49.9027L145.808 50.0124C146.242 48.902 146.941 47.9148 147.844 47.1367C148.747 46.3587 149.826 45.8134 150.988 45.5485C152.15 45.2835 153.359 45.3069 154.509 45.6166C155.66 45.9262 156.717 46.5129 157.59 47.3252L157.343 47.3801C157.754 46.5032 158.36 45.7323 159.115 45.127C159.871 44.5217 160.755 44.098 161.7 43.8886C162.571 43.6614 163.48 43.6255 164.366 43.7832C165.252 43.941 166.094 44.2887 166.833 44.8026H166.641C167.213 44.0531 167.947 43.4432 168.789 43.0189C169.631 42.5946 170.557 42.3669 171.5 42.3531C172.324 42.3141 173.148 42.4422 173.922 42.7296C174.695 43.017 175.403 43.4578 176.003 44.0257H175.829C176.468 43.2437 177.29 42.6315 178.222 42.2434C179.028 41.88 179.889 41.6574 180.77 41.5853C182.177 41.4293 183.596 41.7512 184.798 42.4993L185.145 42.7187C185.255 42.8009 185.355 42.8923 185.446 42.9746C185.628 43.124 185.802 43.2826 185.967 43.4499C186.217 43.7187 186.445 44.0059 186.652 44.309C186.798 44.5558 186.908 44.7477 186.999 44.8848L187.109 45.0859C187.057 45.03 187.011 44.9687 186.972 44.9031L186.597 44.3456C186.386 44.0521 186.154 43.7741 185.903 43.5138C185.74 43.3503 185.566 43.1977 185.382 43.0568L185.081 42.8101L184.734 42.5998C183.544 41.9002 182.158 41.6112 180.788 41.7772C179.929 41.8641 179.089 42.0926 178.304 42.4536C177.407 42.8275 176.619 43.4216 176.012 44.1811L175.929 44.2816L175.847 44.1902C175.269 43.6473 174.585 43.228 173.84 42.9577C173.094 42.6874 172.301 42.5719 171.509 42.6181C170.596 42.6424 169.701 42.8769 168.893 43.3032C168.085 43.7296 167.386 44.3365 166.851 45.0768L166.769 45.1956L166.659 45.1133C165.949 44.6316 165.142 44.3094 164.296 44.169C163.449 44.0286 162.582 44.0732 161.754 44.2999C160.855 44.5004 160.014 44.9046 159.295 45.4814C158.576 46.0581 157.999 46.7921 157.608 47.6268L157.517 47.8279L157.361 47.6817C156.523 46.9146 155.512 46.3624 154.413 46.0724C153.315 45.7825 152.163 45.7634 151.056 46.0168C149.948 46.2702 148.919 46.7886 148.056 47.5275C147.193 48.2664 146.522 49.2037 146.1 50.2592V50.3871H145.963C143.862 50.0398 141.652 49.6651 139.57 50.2775C138.496 50.6022 137.542 51.2384 136.83 52.1055C136.475 52.509 136.21 52.9834 136.053 53.4971C135.896 54.0107 135.849 54.552 135.916 55.0851V55.2679H135.725C133.459 55.3319 131.158 55.4507 129.285 56.584C128.39 57.1354 127.678 57.9401 127.24 58.8965C127.019 59.3443 126.894 59.8335 126.873 60.3326C126.853 60.8316 126.937 61.3294 127.121 61.7938L127.212 62.0041H126.984C125.647 62.0344 124.319 62.2277 123.029 62.5799C121.813 62.9231 120.757 63.6876 120.052 64.7369C119.705 65.2093 119.505 65.7742 119.479 66.3599C119.453 66.9457 119.602 67.526 119.906 68.0273C120.173 68.5046 120.593 68.8773 121.099 69.0847C121.605 69.2922 122.166 69.3222 122.691 69.1698L122.819 69.1241L122.865 69.2612C123.165 70.1979 123.716 71.0341 124.459 71.6787C125.201 72.3234 126.106 72.7518 127.075 72.9172C127.897 73.0411 128.736 72.9745 129.528 72.7225C130.319 72.4706 131.043 72.04 131.642 71.464L131.733 71.3726L131.788 71.4823C132.099 72.0659 132.496 72.599 132.966 73.0635C133.377 73.4828 133.827 73.8622 134.309 74.1968C135.051 74.7467 135.896 75.1415 136.793 75.3576C137.352 75.5041 137.943 75.459 138.474 75.2297C138.711 75.0286 138.857 74.8823 138.866 74.9006Z" fill="#455A64"/>
<path id="Vector_14" d="M111.64 40.5913C111.628 40.328 111.646 40.0642 111.695 39.8052C111.817 39.0514 112.091 38.3301 112.499 37.6848C113.136 36.6419 114.099 35.8386 115.239 35.3998C116.005 35.1147 116.823 34.9927 117.639 35.0415C118.455 35.0902 119.252 35.3088 119.979 35.6831H119.833C120.636 33.9419 122.069 32.57 123.843 31.8443C124.82 31.4239 125.875 31.2182 126.939 31.2411C128.052 31.3446 129.153 31.5527 130.227 31.8626C130.777 31.9936 131.343 32.0428 131.907 32.0088C132.479 31.9674 133.033 31.7921 133.524 31.497C134.547 30.9303 135.405 30.0072 136.574 29.4405C137.802 28.8855 139.167 28.7116 140.494 28.9414C141.821 29.1711 143.049 29.7939 144.018 30.7292H143.753C144.384 29.5263 145.283 28.4848 146.38 27.6851C147.478 26.8855 148.744 26.3492 150.082 26.1177C151.419 25.8862 152.792 25.9657 154.094 26.3501C155.396 26.7345 156.592 27.4135 157.59 28.3345H157.335C158.075 27.0424 159.17 25.99 160.491 25.3021C161.811 24.6142 163.301 24.3196 164.783 24.4533C166.266 24.5871 167.679 25.1435 168.855 26.0566C170.031 26.9697 170.92 28.2012 171.418 29.605L171.263 29.5136C172.777 29.3021 174.319 29.4206 175.784 29.8609C177.095 30.2294 178.353 30.7638 179.529 31.4513C181.453 32.5383 183.167 33.9624 184.588 35.6557C185.516 36.7244 186.263 37.9378 186.799 39.2477C186.942 39.5916 187.058 39.9461 187.146 40.3079C187.184 40.4276 187.215 40.5497 187.237 40.6735C187.237 40.6735 187.091 40.18 186.726 39.2843C186.157 38.0003 185.396 36.8106 184.47 35.7562C183.042 34.1002 181.332 32.7108 179.419 31.6524C178.255 30.978 177.009 30.4587 175.711 30.1077C174.282 29.6913 172.782 29.5823 171.309 29.7878H171.199V29.6781C170.707 28.3399 169.843 27.1701 168.709 26.3065C167.575 25.4429 166.218 24.9213 164.798 24.8032C163.378 24.6851 161.954 24.9754 160.693 25.6398C159.433 26.3043 158.388 27.3153 157.682 28.5539L157.581 28.7367L157.426 28.5996C156.463 27.6984 155.304 27.0329 154.041 26.6553C152.778 26.2776 151.444 26.1982 150.145 26.4231C148.846 26.6481 147.616 27.1713 146.553 27.9517C145.49 28.7322 144.623 29.7486 144.018 30.9212L143.909 31.1223L143.753 30.9577C142.83 30.0792 141.666 29.4967 140.409 29.285C139.153 29.0733 137.862 29.242 136.702 29.7695C135.597 30.2905 134.739 31.2045 133.661 31.8169C133.128 32.127 132.531 32.3114 131.916 32.3562C131.327 32.3853 130.737 32.3299 130.163 32.1916C129.103 31.8858 128.018 31.6777 126.921 31.5701C125.896 31.5374 124.877 31.7277 123.934 32.1277C122.218 32.8118 120.823 34.1169 120.025 35.7837L119.97 35.8933L119.87 35.8385C119.172 35.4726 118.405 35.256 117.619 35.2025C116.833 35.149 116.044 35.2597 115.303 35.5277C114.175 35.9363 113.213 36.7036 112.563 37.7122C112.154 38.341 111.869 39.042 111.723 39.7778C111.659 40.3171 111.659 40.5913 111.64 40.5913Z" fill="#455A64"/>
<path id="Vector_15" d="M195.639 105.066C195.664 104.909 195.721 104.76 195.808 104.628C195.894 104.495 196.008 104.383 196.142 104.298C196.458 104.089 196.823 103.963 197.201 103.932C197.715 103.914 198.227 103.998 198.708 104.179C199.294 104.406 199.909 104.551 200.535 104.609C201.276 104.599 201.994 104.349 202.581 103.896C203.269 103.384 203.85 102.741 204.288 102.004C204.791 101.245 205.202 100.377 205.85 99.5359C207.065 97.8176 209.029 96.6111 210.819 95.0573C211.755 94.2649 212.522 93.292 213.075 92.1965C213.373 91.6304 213.545 91.0065 213.58 90.3676C213.614 89.7288 213.511 89.0899 213.276 88.4948C212.622 87.288 211.825 86.1647 210.901 85.1496C210.441 84.5767 210.08 83.9311 209.832 83.2393C209.611 82.5136 209.573 81.744 209.723 81C210.109 79.5428 210.648 78.1304 211.33 76.7865C211.64 76.1052 211.847 75.3811 211.942 74.6386C212.017 73.8978 211.847 73.1528 211.458 72.5181C210.801 71.7199 210.05 71.0048 209.221 70.3885C208.812 70.0392 208.464 69.6255 208.188 69.1637C207.923 68.6898 207.791 68.153 207.805 67.6099C207.899 66.5908 208.139 65.5904 208.517 64.6394C208.832 63.7271 208.948 62.7577 208.855 61.7969C208.778 60.8814 208.512 59.9919 208.073 59.1848C207.634 58.3777 207.033 57.6705 206.307 57.1081C204.936 56.0589 203.221 55.566 201.503 55.7279H201.302V55.5268C201.586 54.0571 201.554 52.5436 201.208 51.0873C200.861 49.631 200.208 48.2653 199.293 47.0815C198.524 46.0971 197.572 45.2714 196.489 44.6502C195.575 44.1127 194.573 43.7413 193.529 43.5534C192.055 43.3038 190.54 43.4814 189.164 44.0653C188.8 44.2134 188.449 44.3907 188.113 44.5954L187.849 44.7325H187.748L187.83 44.6685L188.086 44.504C188.418 44.2862 188.77 44.0995 189.136 43.9465C190.518 43.3121 192.056 43.1022 193.557 43.3432C194.626 43.5167 195.654 43.8854 196.589 44.4309C197.704 45.0558 198.687 45.8907 199.484 46.8895C200.431 48.0991 201.108 49.4971 201.47 50.99C201.832 52.4828 201.872 54.0359 201.585 55.5451L201.421 55.3715C203.214 55.188 205.01 55.6945 206.444 56.7882C207.216 57.3712 207.858 58.1087 208.33 58.9537C208.802 59.7987 209.093 60.7327 209.184 61.6963C209.278 62.6969 209.16 63.7062 208.837 64.6577C208.472 65.5808 208.236 66.5495 208.134 67.5368C208.148 68.0298 208.273 68.5133 208.499 68.9515C208.725 69.3897 209.046 69.7715 209.44 70.0686C210.3 70.6952 211.074 71.4328 211.741 72.2622C212.166 72.9609 212.352 73.779 212.271 74.5929C212.18 75.3708 211.967 76.1295 211.641 76.8413C210.968 78.1651 210.435 79.5559 210.052 80.9909C209.903 81.6788 209.934 82.3935 210.143 83.0657C210.378 83.7265 210.721 84.3441 211.157 84.8937C212.097 85.9281 212.904 87.0765 213.559 88.312C213.832 88.9513 213.942 89.6487 213.878 90.3411C213.818 91.0085 213.635 91.659 213.34 92.2605C212.771 93.3898 211.979 94.3913 211.011 95.2036C209.184 96.7757 207.229 97.9456 206.042 99.6091C205.448 100.432 204.983 101.291 204.471 102.059C203.991 102.813 203.371 103.467 202.645 103.987C202.021 104.456 201.26 104.707 200.48 104.7C199.851 104.641 199.236 104.487 198.653 104.243C198.189 104.056 197.692 103.963 197.192 103.969C196.827 103.987 196.472 104.097 196.16 104.289C195.898 104.476 195.713 104.752 195.639 105.066Z" fill="#455A64"/>
<path id="Vector_16" d="M223.084 103.758C223.072 103.68 223.072 103.6 223.084 103.521L223.203 102.835C223.313 102.223 223.477 101.345 223.687 100.221C223.897 99.0971 224.189 97.7078 224.372 96.0809C224.659 94.2555 224.425 92.3862 223.696 90.6883C223.258 89.7743 222.609 88.8603 222.034 87.9463C221.73 87.4464 221.494 86.9086 221.331 86.3468C221.157 85.7526 221.132 85.1249 221.258 84.5188C221.504 83.2849 222.253 82.2155 222.609 81.009C222.793 80.4134 222.793 79.7765 222.609 79.181C222.386 78.5597 222.062 77.9792 221.65 77.4627C221.214 76.9143 220.828 76.3269 220.5 75.7078C220.178 75.0408 220.069 74.2908 220.189 73.5599C220.589 72.1403 221.179 70.7813 221.943 69.52C222.282 68.877 222.484 68.1705 222.536 67.4452C222.547 67.0845 222.486 66.7252 222.358 66.388C222.229 66.0507 222.035 65.7423 221.787 65.4801C220.783 64.3742 219.221 63.8715 218.061 62.7381C217.488 62.1448 217.115 61.3876 216.992 60.572C216.901 59.7917 216.901 59.0033 216.992 58.223C217.056 57.4552 217.139 56.6966 217.129 55.9563C217.138 55.2335 216.965 54.5202 216.627 53.8815C215.915 52.611 214.508 51.9986 213.211 51.4594C211.849 51.0102 210.602 50.2677 209.558 49.2841C208.688 48.2522 208.016 47.0685 207.576 45.7926C207.202 44.5975 206.716 43.4407 206.124 42.3377C204.822 40.5136 203.011 39.1147 200.918 38.3161C199.2 37.6388 197.351 37.3606 195.511 37.5026C194.122 37.6242 192.76 37.9603 191.474 38.4989C190.666 38.8513 189.889 39.2733 189.154 39.7602L188.569 40.1258L188.359 40.2446L188.551 40.0984L189.117 39.6962C189.845 39.1866 190.619 38.746 191.428 38.38C192.721 37.8114 194.096 37.4505 195.502 37.3107C197.364 37.1504 199.239 37.4193 200.982 38.0967C203.127 38.9003 204.986 40.322 206.325 42.1823C206.977 43.2656 207.522 44.4106 207.95 45.6006C208.385 46.8389 209.041 47.9879 209.887 48.9916C210.895 49.9321 212.094 50.6431 213.403 51.0755C214.081 51.3452 214.737 51.6661 215.367 52.0352C216.043 52.414 216.601 52.9717 216.982 53.6473C217.362 54.3228 217.549 55.09 217.522 55.8649C217.521 56.6344 217.478 57.4033 217.394 58.1681C217.303 58.921 217.303 59.6821 217.394 60.4349C217.498 61.1822 217.837 61.877 218.362 62.4182C219.44 63.5059 221.002 64.0086 222.098 65.1602C222.655 65.7559 222.953 66.5477 222.929 67.363C222.876 68.1334 222.662 68.8841 222.299 69.5657C221.669 70.9184 220.801 72.1432 220.573 73.5142C220.458 74.1857 220.557 74.8762 220.856 75.4884C221.172 76.0901 221.542 76.6621 221.961 77.1976C222.4 77.7436 222.74 78.3623 222.966 79.0256C223.171 79.6832 223.171 80.388 222.966 81.0456C222.582 82.316 221.842 83.3671 221.605 84.5279C221.424 85.6661 221.686 86.8302 222.335 87.7817C222.883 88.7506 223.541 89.6097 223.989 90.5786C224.712 92.3102 224.937 94.2098 224.637 96.0626C224.436 97.6986 224.107 99.0788 223.888 100.212C223.669 101.346 223.468 102.196 223.34 102.817C223.276 103.1 223.23 103.32 223.194 103.493C223.169 103.586 223.132 103.675 223.084 103.758Z" fill="#455A64"/>
<path id="Vector_17" d="M220.326 87.4609L220.509 87.5523C220.677 87.6661 220.816 87.82 220.911 88.0002C221.053 88.3661 221.105 88.7613 221.06 89.1516C221.015 89.5418 220.876 89.9153 220.655 90.2395C220.324 90.6892 219.934 91.0919 219.495 91.4368C218.979 91.8346 218.521 92.3021 218.134 92.8261C217.767 93.4692 217.575 94.1971 217.577 94.9375C217.577 95.7326 217.577 96.5827 217.486 97.4875C217.452 97.9733 217.308 98.445 217.064 98.8664C216.82 99.2879 216.483 99.6478 216.079 99.9188C215.239 100.476 214.252 100.714 213.385 101.29C212.553 101.944 212.003 102.893 211.85 103.94C211.604 105.01 211.531 106.171 211.211 107.331C211.063 107.928 210.806 108.492 210.453 108.995C210.071 109.5 209.589 109.92 209.037 110.229C207.897 110.781 206.707 111.224 205.484 111.554C204.251 111.873 203.183 112.643 202.489 113.711C201.969 114.933 201.598 116.212 201.383 117.522C201.213 118.2 200.922 118.84 200.525 119.414C200.102 119.969 199.559 120.419 198.936 120.731C197.726 121.25 196.46 121.627 195.164 121.855C193.945 122.089 192.786 122.568 191.757 123.262C190.825 124.038 189.839 124.747 188.807 125.383C188.277 125.676 187.686 125.839 187.081 125.858C186.498 125.858 185.92 125.756 185.373 125.556C184.861 125.374 184.34 125.222 183.811 125.099C183.298 125.016 182.776 125.001 182.258 125.054C181.275 125.217 180.318 125.505 179.409 125.913C178.495 126.288 177.655 126.662 176.797 126.946C175.243 127.462 173.564 127.462 172.011 126.946C170.842 126.581 169.771 125.956 168.878 125.118C168.315 124.587 167.841 123.97 167.471 123.29C167.342 123.056 167.232 122.811 167.143 122.559C167.597 123.48 168.216 124.31 168.969 125.008C169.858 125.816 170.916 126.415 172.065 126.763C173.588 127.229 175.22 127.197 176.723 126.672C177.564 126.388 178.404 126.013 179.308 125.63C180.238 125.197 181.221 124.89 182.231 124.716C182.77 124.638 183.317 124.638 183.857 124.716C184.398 124.835 184.932 124.987 185.455 125.173C185.973 125.361 186.52 125.457 187.072 125.456C187.632 125.431 188.178 125.278 188.67 125.008C189.684 124.37 190.654 123.665 191.574 122.897C192.633 122.177 193.826 121.68 195.081 121.434C196.338 121.205 197.564 120.831 198.735 120.319C199.313 120.035 199.817 119.618 200.205 119.104C200.582 118.568 200.855 117.967 201.009 117.33C201.231 115.991 201.614 114.684 202.151 113.437C202.487 112.843 202.964 112.341 203.539 111.974C204.111 111.62 204.725 111.338 205.366 111.134C206.562 110.845 207.732 110.457 208.864 109.973C209.374 109.68 209.821 109.289 210.179 108.821C210.51 108.347 210.754 107.818 210.9 107.258C211.211 106.143 211.284 104.991 211.54 103.895C211.716 102.777 212.314 101.769 213.211 101.08C214.124 100.467 215.129 100.239 215.951 99.7177C216.327 99.47 216.641 99.1393 216.869 98.7511C217.097 98.3629 217.233 97.9275 217.266 97.4784C217.376 96.6192 217.321 95.7601 217.376 94.9557C217.385 94.1795 217.599 93.4195 217.997 92.753C218.395 92.2177 218.869 91.7434 219.403 91.3454C219.843 91.0185 220.233 90.6308 220.563 90.1938C220.782 89.8881 220.924 89.5339 220.977 89.1615C221.029 88.789 220.991 88.4094 220.865 88.055C220.746 87.8092 220.559 87.6029 220.326 87.4609Z" fill="#455A64"/>
<path id="Vector_18" d="M165.08 91.7571C165.412 91.5582 165.807 91.4948 166.185 91.5798C166.562 91.6649 166.893 91.892 167.107 92.2141C168.477 94.2523 169.847 96.2905 171.227 98.3379L171.692 99.0142C170.585 99.9698 169.357 100.775 168.039 101.409C167.467 101.675 166.843 101.813 166.212 101.813C165.581 101.813 164.958 101.675 164.386 101.409C163.512 100.867 162.834 100.06 162.449 99.1056C161.819 97.561 161.308 95.9798 162.011 94.4717C162.523 93.3657 164.112 92.3786 165.08 91.7571Z" fill="#FF9A6C"/>
<path id="Vector_19" d="M134.629 69.5906C134.011 69.4225 133.369 69.3577 132.729 69.3986C130.951 69.4785 129.26 70.1916 127.962 71.4094C127.055 72.2365 126.351 73.2627 125.907 74.4074C125.42 75.7296 125.251 77.148 125.414 78.5478C125.582 80.0989 126.145 81.5809 127.048 82.8527C128.029 84.2215 129.402 85.2604 130.985 85.8324C132.557 86.4202 134.263 86.5532 135.908 86.2162C137.442 85.8996 138.85 85.1439 139.963 84.0409C140.901 83.1167 141.615 81.9891 142.049 80.7451C142.483 79.501 142.625 78.1739 142.465 76.866C142.294 75.8704 141.924 74.9193 141.379 74.0692C140.984 73.4236 140.501 72.8361 139.945 72.3234C139.59 72.0018 139.19 71.7339 138.757 71.5283C138.611 71.4465 138.449 71.3967 138.282 71.382C138.855 71.647 139.377 72.0087 139.826 72.4514C141.054 73.6533 141.875 75.2099 142.173 76.9026C142.305 78.1603 142.15 79.4316 141.72 80.6206C141.29 81.8096 140.595 82.8854 139.689 83.7667C138.625 84.8067 137.283 85.5175 135.826 85.8141C134.255 86.1232 132.63 85.9903 131.131 85.4302C129.629 84.8886 128.324 83.9078 127.386 82.6151C126.517 81.4009 125.97 79.9856 125.797 78.5021C125.631 77.1607 125.782 75.7991 126.236 74.5262C126.649 73.4261 127.308 72.4351 128.163 71.6288C129.406 70.4409 131.017 69.7123 132.729 69.5632C133.972 69.4809 134.62 69.6454 134.629 69.5906Z" fill="#E0E0E0"/>
<path id="Vector_20" d="M171.61 76.785C171.272 77.314 170.74 77.6889 170.129 77.8291C169.517 77.9692 168.875 77.8635 168.341 77.5345C168.069 77.3893 167.83 77.1913 167.637 76.952C167.444 76.7128 167.3 76.4372 167.215 76.1416C167.13 75.846 167.105 75.5363 167.141 75.2308C167.178 74.9253 167.275 74.6302 167.427 74.3629C167.767 73.8358 168.299 73.4624 168.91 73.3224C169.521 73.1824 170.162 73.2868 170.697 73.6134C170.97 73.7567 171.211 73.9538 171.406 74.1928C171.6 74.4318 171.745 74.7078 171.83 75.0041C171.915 75.3004 171.94 75.611 171.902 75.9171C171.864 76.2231 171.765 76.5184 171.61 76.785Z" fill="#263238"/>
<path id="Vector_21" d="M190.699 90.119C190.357 90.6442 189.826 91.0161 189.215 91.156C188.605 91.2958 187.965 91.1927 187.429 90.8685C187.158 90.7224 186.918 90.5235 186.725 90.2834C186.531 90.0433 186.388 89.767 186.303 89.4706C186.218 89.1743 186.193 88.8639 186.229 88.5577C186.266 88.2515 186.363 87.9557 186.516 87.6877C186.857 87.1625 187.389 86.7906 187.999 86.6508C188.609 86.5109 189.25 86.614 189.785 86.9383C190.057 87.0844 190.296 87.2833 190.49 87.5233C190.683 87.7634 190.826 88.0397 190.912 88.3361C190.997 88.6325 191.022 88.9429 190.985 89.2491C190.949 89.5552 190.851 89.851 190.699 90.119Z" fill="#263238"/>
<path id="Vector_22" d="M196.159 84.8569C195.767 85.0214 195.009 82.9284 192.944 81.7584C190.88 80.5885 188.697 80.945 188.643 80.5154C188.643 80.3235 189.136 79.9304 190.104 79.7476C191.353 79.5191 192.643 79.7418 193.744 80.3762C194.845 81.0106 195.684 82.0155 196.114 83.2117C196.433 84.144 196.351 84.7929 196.159 84.8569Z" fill="#263238"/>
<path id="Vector_23" d="M176.77 73.2187C176.286 73.3284 175.573 70.8698 173.254 69.2246C170.934 67.5794 168.376 67.6251 168.34 67.1406C168.34 66.9121 168.961 66.5648 170.112 66.51C171.616 66.4722 173.092 66.928 174.313 67.8079C175.526 68.6786 176.413 69.9301 176.834 71.3633C177.135 72.4967 176.989 73.173 176.77 73.2187Z" fill="#263238"/>
<path id="Vector_24" d="M166.174 101.59C166.174 101.59 165.846 101.718 165.261 101.59C164.403 101.382 163.631 100.913 163.051 100.247C162.164 99.2875 161.577 98.0897 161.361 96.8008C161.222 96.0124 161.31 95.2005 161.617 94.461C161.968 93.6926 162.49 93.0143 163.142 92.4776C163.767 91.9573 164.45 91.5125 165.179 91.1523C165.381 91.0262 165.608 90.9454 165.845 90.9155C166.081 90.8855 166.322 90.907 166.549 90.9786C166.944 91.1766 167.264 91.4973 167.462 91.8926L169.435 95.0368C170.085 95.9918 170.627 97.0155 171.052 98.0896C170.251 97.2574 169.546 96.3376 168.951 95.3476C168.293 94.4336 167.59 93.3825 166.841 92.2948C166.439 91.6367 166.147 91.4814 165.489 91.8378C164.816 92.1852 164.182 92.6051 163.599 93.09C163.035 93.5048 162.591 94.0615 162.312 94.7037C162.033 95.3458 161.929 96.0504 162.01 96.746C162.189 97.9147 162.675 99.0152 163.416 99.9359C163.913 100.566 164.569 101.052 165.316 101.343C165.846 101.517 166.184 101.526 166.174 101.59Z" fill="#263238"/>
<path id="Vector_25" d="M248.915 66.0349C248.569 64.9185 248.091 63.8476 247.49 62.8451C246.743 61.7079 245.789 60.7218 244.677 59.9386C243.215 58.9066 241.501 58.2907 239.717 58.1563H239.434V57.8638C239.609 55.4907 238.852 53.143 237.324 51.3195C236.489 50.244 235.426 49.3666 234.211 48.7504C232.997 48.1341 231.662 47.7942 230.301 47.7549H229.945V47.3985C229.869 43.5726 228.329 39.9217 225.643 37.1982C223.54 35.0908 220.833 33.6915 217.898 33.1949C215.217 32.7287 212.459 33.0068 209.924 33.9992L209.76 34.0632L209.605 33.9627C207.031 32.2354 204.126 31.0649 201.074 30.526C198.7 30.0863 196.272 30.0215 193.877 30.3341C191.77 30.6549 189.701 31.1908 187.703 31.9336C187.703 31.9336 187.822 31.8422 188.078 31.7142C188.333 31.5863 188.717 31.3852 189.228 31.1841C190.7 30.6005 192.232 30.1805 193.795 29.9319C196.23 29.5383 198.712 29.5383 201.147 29.9319C204.294 30.4445 207.297 31.6156 209.961 33.3686H209.641C212.285 32.2944 215.176 31.9779 217.989 32.4546C221.081 32.9556 223.935 34.4206 226.145 36.6407C228.973 39.4979 230.584 43.3409 230.639 47.3619L230.283 47.0055C231.747 47.0552 233.181 47.4284 234.484 48.0984C235.787 48.7684 236.925 49.7186 237.818 50.8808C239.434 52.8349 240.221 55.345 240.01 57.8729L239.754 57.5713C241.632 57.7332 243.426 58.4205 244.933 59.5547C246.069 60.3872 247.026 61.4411 247.746 62.6531C248.201 63.4138 248.545 64.2356 248.769 65.0935C248.853 65.4007 248.902 65.7166 248.915 66.0349Z" fill="#263238"/>
<path id="Vector_26" d="M190.406 18.9375C189.46 18.7771 188.561 18.4087 187.775 17.859C186.658 17.1379 185.696 16.2004 184.946 15.1016C184.196 14.0028 183.674 12.7649 183.409 11.461C183.048 9.61335 183.262 7.69931 184.021 5.97696C184.884 3.98836 186.351 2.32222 188.214 1.21502C190.325 0.0234271 192.815 -0.307233 195.164 0.291879C197.733 0.890454 199.964 2.47611 201.375 4.7065L200.964 4.53284C202.566 4.15367 204.249 4.33762 205.731 5.05382C207.001 5.62584 208.085 6.54055 208.864 7.69528C209.583 8.83275 209.94 10.1618 209.887 11.5067C209.853 12.7716 209.496 14.0066 208.848 15.0934C208.2 16.1801 207.284 17.0821 206.188 17.7127L206.051 17.0546C207.038 17.17 207.981 17.5263 208.798 18.092C209.615 18.6578 210.281 19.4158 210.736 20.2993C211.17 21.084 211.431 21.9527 211.5 22.8468C211.569 23.7409 211.446 24.6395 211.138 25.4817C210.63 26.8453 209.762 28.0455 208.627 28.9548C207.491 29.8641 206.131 30.4485 204.69 30.6458C202.823 30.898 200.923 30.616 199.21 29.8324C198.759 29.6384 198.325 29.406 197.913 29.1377C197.639 28.9458 197.502 28.8452 197.511 28.827C197.52 28.8087 198.114 29.1743 199.292 29.6221C200.97 30.2892 202.796 30.4943 204.581 30.2162C205.923 30.0048 207.185 29.4359 208.232 28.5692C209.28 27.7025 210.075 26.5698 210.535 25.2898C210.804 24.5267 210.906 23.7146 210.834 22.9087C210.761 22.1028 210.516 21.322 210.115 20.6192C209.707 19.8374 209.115 19.1672 208.389 18.667C207.663 18.1668 206.826 17.8517 205.951 17.7493L204.772 17.6579L205.804 17.0912C206.787 16.5167 207.606 15.7004 208.185 14.7198C208.764 13.7392 209.082 12.6268 209.111 11.4884C209.151 10.2922 208.833 9.11119 208.197 8.09744C207.516 7.07372 206.569 6.25527 205.457 5.73018C204.132 5.08903 202.626 4.92131 201.192 5.2549L200.927 5.32802L200.781 5.09038C199.478 3.02529 197.419 1.55234 195.045 0.986521C192.861 0.42145 190.543 0.726158 188.579 1.83654C186.82 2.85867 185.425 4.40537 184.588 6.2603C183.856 7.86382 183.627 9.65142 183.93 11.3878C184.408 13.9147 185.853 16.1547 187.958 17.6305C188.728 18.1467 189.548 18.5845 190.406 18.9375Z" fill="#263238"/>
<path id="Vector_27" d="M130.92 11.4136C130.922 11.2555 130.947 11.0986 130.993 10.9474C131.094 10.5072 131.232 10.0762 131.404 9.65868C132.047 8.06555 133.033 6.63335 134.29 5.46343C136.21 3.63323 138.698 2.51702 141.341 2.30098C143.013 2.17402 144.694 2.38981 146.28 2.93514C147.866 3.48047 149.324 4.34388 150.566 5.47256L150.155 5.41773C153.268 3.77134 156.869 3.29783 160.302 4.08329C162.887 4.69572 165.25 6.01899 167.124 7.90381C168.834 9.62241 170.089 11.7394 170.778 14.0642L170.495 13.8265C173.209 14.207 175.782 15.2699 177.975 16.9158C179.674 18.1791 181.121 19.7511 182.24 21.5498C182.963 22.7104 183.522 23.9653 183.902 25.2789C184.049 25.7393 184.144 26.2144 184.186 26.6956C183.625 24.9662 182.855 23.3118 181.893 21.7692C180.76 20.0548 179.32 18.5644 177.646 17.3728C175.511 15.8272 173.025 14.8377 170.412 14.4937H170.193L170.129 14.2835C169.449 12.0802 168.238 10.0778 166.604 8.45221C164.831 6.65362 162.592 5.38721 160.137 4.79621C156.878 4.04945 153.46 4.4868 150.493 6.0301L150.264 6.14893L150.082 5.97527C148.914 4.90346 147.542 4.07828 146.048 3.54906C144.554 3.01983 142.968 2.79741 141.387 2.89508C138.864 3.06802 136.471 4.08163 134.592 5.77418C133.344 6.87824 132.334 8.22476 131.623 9.73181C131.13 10.8103 130.975 11.4318 130.92 11.4136Z" fill="#263238"/>
<path id="Vector_28" d="M103.001 89.2176C103.001 89.2176 75.9113 78.3102 83.5194 79.3065C91.1275 80.3028 121.267 101.188 121.267 101.188C121.267 101.188 115.787 122.767 132.364 126.88C144.439 129.878 150.841 126.505 150.841 126.505C150.841 126.505 171.053 151.659 172.706 161.914C172.706 161.914 75.2994 230.116 91.1092 222.704L103.001 211.91L103.001 89.2176Z" fill="#6E498E"/>
<path id="Vector_29" d="M171.126 157.297C171.391 158.019 175.163 162.516 171.427 182.551C168.03 200.748 153.16 219.111 153.16 219.111L123.514 192.413L171.126 157.297Z" fill="#6E498E"/>
<path id="Vector_30" d="M155.664 171.566C155.528 171.731 155.375 171.882 155.207 172.014L153.846 173.202C152.641 174.217 150.887 175.67 148.686 177.425C144.293 180.935 138.155 185.697 131.332 190.888C124.51 196.08 118.272 200.732 113.751 204.114L108.38 208.044L106.901 209.095C106.739 209.229 106.561 209.343 106.371 209.433C106.517 209.282 106.676 209.145 106.846 209.022L108.271 207.898L113.55 203.849L131.04 190.55C137.872 185.359 144.037 180.642 148.476 177.197L153.727 173.093L155.143 171.978C155.304 171.825 155.478 171.688 155.664 171.566Z" fill="#263238"/>
<path id="Vector_31" d="M0.798022 179.754C0.798022 179.754 -2.39864 174.946 4.00383 174.681C10.4063 174.416 41.8798 179.754 52.5475 185.092L61.8818 190.96L51.7712 210.976H28.536C25.869 210.976 18.4071 206.406 25.3393 203.244C25.3393 203.244 18.4071 198.436 24.8096 194.433C24.8096 194.433 19.7405 190.695 25.0744 185.622L0.798022 179.754Z" fill="#FFBF9D"/>
<path id="Vector_32" d="M54.4202 187.078L107.394 214.845L127.268 195.816L150.95 217.167C150.95 217.167 127.478 244.752 113.878 247.155C100.279 249.559 47.3145 206.939 47.3145 206.939L54.4202 187.078Z" fill="#FFBF9D"/>
<path id="Vector_33" d="M109.995 101.746L109.502 102.029C108.733 102.424 107.912 102.71 107.064 102.879C106.66 102.924 106.26 102.997 105.867 103.099C105.633 103.225 105.41 103.372 105.2 103.537C103.748 104.387 101.903 104.451 100.277 104.661C98.4508 104.853 96.4872 105.137 95.0624 106.316C93.6376 107.495 92.9982 109.844 94.2495 111.206C93.6604 111.216 93.0951 111.44 92.6597 111.837C92.2242 112.234 91.9484 112.777 91.884 113.363C91.8415 113.952 91.9501 114.543 92.1994 115.079C92.4487 115.614 92.8306 116.078 93.3088 116.425C94.2769 117.112 95.4134 117.522 96.5968 117.613C95.914 117.728 95.3025 118.104 94.8918 118.661C94.481 119.219 94.3031 119.915 94.3957 120.602C94.519 121.285 94.8144 121.925 95.2539 122.463C95.6933 123 96.2624 123.417 96.9073 123.673C98.2 124.176 99.5877 124.389 100.972 124.294C102.756 124.23 104.543 124.267 106.324 124.404C106.324 124.404 106.324 126.168 106.324 126.963C106.324 128.042 106.324 127.201 106.324 127.201C107.288 127.764 108.327 128.186 109.411 128.453C111.813 129.239 113.366 129.879 115.53 130.436C117.147 130.857 118.736 131.058 119.604 129.97C121.695 127.356 116.197 123.572 116.197 123.572C117.814 122.658 117.375 117.476 114.973 116.772C116.16 116.187 116.909 116.251 117.613 115.118C117.976 114.561 118.203 113.927 118.276 113.267C118.349 112.606 118.266 111.938 118.033 111.315C117.774 110.704 117.323 110.193 116.747 109.863C116.171 109.533 115.503 109.401 114.845 109.487C115.622 108.818 116.179 107.929 116.441 106.937C116.704 105.945 116.66 104.897 116.316 103.93C115.864 102.776 115.002 101.829 113.895 101.271C113.347 100.993 112.753 100.817 112.142 100.75C111.912 100.708 111.677 100.708 111.448 100.75C111.345 100.781 111.25 100.831 111.164 100.896C110.763 101.106 110.416 101.462 109.995 101.746Z" fill="#FFBF9D"/>
<path id="Vector_34" d="M112.562 95.7873C112.545 95.2141 112.405 94.6513 112.151 94.1372C111.898 93.623 111.536 93.1696 111.092 92.8077C109.978 92.049 107.968 92.1404 106.644 92.4329C106.562 94.0416 106.644 94.855 106.534 96.4637C106.534 96.8018 106.635 97.0669 106.479 97.3777C106.068 98.1728 104.324 98.2917 103.52 98.703C102.857 99.1066 102.372 99.749 102.167 100.498C101.962 101.248 102.05 102.048 102.415 102.734C102.817 103.401 103.401 103.938 104.099 104.283C104.796 104.628 105.578 104.766 106.352 104.681C107.908 104.483 109.335 103.71 110.352 102.514C111.163 101.605 111.777 100.539 112.157 99.3812C112.538 98.2238 112.676 97.0004 112.562 95.7873Z" fill="#FFBF9D"/>
<path id="Vector_35" d="M115.294 109.396C115.294 109.524 110.608 110.036 104.8 110.53C98.9909 111.023 94.2689 111.325 94.2598 111.188C94.2506 111.051 98.9452 110.548 104.754 110.055C110.563 109.561 115.285 109.259 115.294 109.396Z" fill="#FF9A6C"/>
<path id="Vector_36" d="M115.294 116.734C114.401 117.008 113.484 117.192 112.554 117.283C110.32 117.616 108.07 117.835 105.814 117.941C103.165 118.078 100.772 118.051 99.037 117.941C98.0985 117.946 97.1619 117.854 96.2422 117.667C97.1739 117.574 98.1112 117.553 99.0461 117.603C100.772 117.603 103.156 117.603 105.787 117.438C108.417 117.274 110.792 117.1 112.509 116.926C113.432 116.798 114.362 116.733 115.294 116.734Z" fill="#FF9A6C"/>
<path id="Vector_37" d="M115.293 123.911C114.546 124.123 113.776 124.246 113 124.276C111.576 124.423 109.603 124.532 107.42 124.56C105.237 124.587 103.264 124.56 101.839 124.56C101.064 124.596 100.287 124.553 99.5195 124.432C100.28 124.281 101.055 124.21 101.83 124.222C103.264 124.158 105.237 124.13 107.411 124.094C109.584 124.057 111.557 124.011 112.982 123.947C113.75 123.871 114.523 123.858 115.293 123.911Z" fill="#FF9A6C"/>
<path id="Vector_38" d="M112.134 98.1445C112.312 98.7511 112.26 99.402 111.988 99.9725C111.436 101.349 110.395 102.472 109.065 103.126C108.366 103.5 107.632 103.806 106.873 104.04C106.258 104.258 105.621 104.408 104.973 104.488C104.514 104.54 104.05 104.433 103.658 104.186C103.393 104.003 103.32 103.83 103.339 103.811C103.811 104.12 104.38 104.243 104.937 104.159C105.56 104.03 106.171 103.85 106.764 103.619C107.49 103.371 108.195 103.065 108.873 102.705C110.115 102.094 111.115 101.084 111.714 99.8354C111.902 99.2849 112.043 98.7192 112.134 98.1445Z" fill="#FF9A6C"/>
</g>
</svg>
