<svg width="1634" height="4216" viewBox="0 0 1634 4216" fill="none" xmlns="http://www.w3.org/2000/svg">
<rect x="1537" y="4216" width="1440" height="4216" transform="rotate(-180 1537 4216)" fill="url(#paint0_radial_1627_20700)"/>
<circle cx="1032" cy="981.001" r="55" fill="url(#paint1_linear_1627_20700)"/>
<circle cx="1088" cy="3145" r="215" fill="url(#paint2_linear_1627_20700)"/>
<circle cx="489" cy="4001" r="215" fill="url(#paint3_linear_1627_20700)"/>
<circle cx="148" cy="1194" r="148" fill="url(#paint4_linear_1627_20700)" fill-opacity="0.61"/>
<circle cx="367.993" cy="202.992" r="120.926" transform="rotate(160 367.993 202.992)" fill="url(#paint5_linear_1627_20700)" fill-opacity="0.61"/>
<circle cx="558.5" cy="1123.5" r="25.5" fill="url(#paint6_linear_1627_20700)"/>
<circle cx="1373.5" cy="982.501" r="89.5" fill="url(#paint7_linear_1627_20700)"/>
<circle cx="296" cy="815.001" r="111" transform="rotate(-60 296 815.001)" fill="url(#paint8_linear_1627_20700)"/>
<circle cx="1459" cy="461" r="175" fill="url(#paint9_linear_1627_20700)"/>
<circle cx="1088" cy="3145" r="215" fill="url(#paint10_linear_1627_20700)"/>
<circle cx="1284" cy="1241" r="215" fill="url(#paint11_linear_1627_20700)"/>
<circle cx="1284" cy="1241" r="215" fill="url(#paint12_linear_1627_20700)"/>
<circle cx="489" cy="4001" r="215" fill="url(#paint13_linear_1627_20700)"/>
<circle cx="1415.5" cy="2668.5" r="89.5" fill="url(#paint14_linear_1627_20700)"/>
<circle cx="469" cy="2647" r="111" fill="url(#paint15_linear_1627_20700)"/>
<circle cx="237" cy="1867" r="89" fill="url(#paint16_linear_1627_20700)" fill-opacity="0.61"/>
<circle cx="237" cy="1867" r="89" fill="url(#paint17_linear_1627_20700)"/>
<circle cx="250" cy="3649" r="89" fill="url(#paint18_linear_1627_20700)"/>
<circle cx="1326" cy="2242" r="175" fill="url(#paint19_linear_1627_20700)"/>
<circle cx="400" cy="1614" r="124" fill="url(#paint20_linear_1627_20700)"/>
<circle cx="323" cy="3034" r="175" fill="url(#paint21_linear_1627_20700)"/>
<circle cx="1303" cy="3961" r="175" fill="url(#paint22_linear_1627_20700)"/>
<circle cx="1365" cy="1627" r="111" fill="url(#paint23_linear_1627_20700)"/>
<circle cx="148" cy="1194" r="148" fill="url(#paint24_linear_1627_20700)"/>
<circle cx="367.925" cy="202.925" r="120.925" fill="url(#paint25_linear_1627_20700)"/>
<path d="M1234.42 1132H1301.91V1158.52C1303.55 1183.43 1308.66 1193.47 1338.07 1192.26H1364.59V1303.15C1365.9 1341.14 1354.65 1348.58 1323.61 1348.95H1239.24C1211.31 1349.36 1202.02 1341.81 1203.08 1306.76V1160.93C1203.81 1142.63 1206.36 1133.68 1234.42 1132Z" fill="white" fill-opacity="0.81"/>
<path d="M1357.35 1182.62L1311.55 1139.23V1158.52C1310.34 1181.48 1326.79 1182.2 1357.35 1182.62Z" fill="white" fill-opacity="0.5"/>
<rect x="1203" y="1240.5" width="149.379" height="65.255" fill="white" fill-opacity="0.09"/>
<rect x="1203" y="1240.5" width="149.379" height="65.255" fill="#EBEBEB"/>
<path d="M1249.82 1259.97H1256.3C1259.96 1259.97 1262.62 1260.75 1264.3 1262.33C1266.01 1263.87 1266.86 1266.01 1266.86 1268.73C1266.86 1271.87 1265.94 1274.29 1264.1 1275.97C1262.26 1277.65 1259.53 1278.49 1255.9 1278.49H1254.34V1289.37H1249.82V1259.97ZM1256.02 1274.53C1258.37 1274.53 1260.01 1274.01 1260.94 1272.97C1261.88 1271.93 1262.34 1270.67 1262.34 1269.21C1262.34 1267.63 1261.89 1266.35 1260.98 1265.37C1260.08 1264.38 1258.56 1263.89 1256.42 1263.89H1254.34V1274.53H1256.02ZM1269.83 1259.97H1276.31C1279.97 1259.97 1282.63 1260.75 1284.31 1262.33C1286.02 1263.87 1286.87 1266.01 1286.87 1268.73C1286.87 1271.87 1285.95 1274.29 1284.11 1275.97C1282.27 1277.65 1279.54 1278.49 1275.91 1278.49H1274.35V1289.37H1269.83V1259.97ZM1276.03 1274.53C1278.38 1274.53 1280.02 1274.01 1280.95 1272.97C1281.89 1271.93 1282.35 1270.67 1282.35 1269.21C1282.35 1267.63 1281.9 1266.35 1280.99 1265.37C1280.09 1264.38 1278.57 1263.89 1276.43 1263.89H1274.35V1274.53H1276.03ZM1295.44 1263.89H1287.92V1259.97H1307.48V1263.89H1299.88V1289.37H1295.44V1263.89Z" fill="#B5B5B5"/>
<path d="M426.907 3944H480.414V3965.02C481.715 3984.77 485.765 3992.73 509.079 3991.77H530.099V4079.68C531.142 4109.79 522.221 4115.7 497.613 4115.99H430.729C408.586 4116.31 401.22 4110.33 402.064 4082.55V3966.93C402.639 3952.42 404.663 3945.34 426.907 3944Z" fill="white" fill-opacity="0.81"/>
<path d="M524.363 3984.13L488.055 3949.73V3965.02C487.095 3983.22 500.138 3983.79 524.363 3984.13Z" fill="white" fill-opacity="0.5"/>
<rect x="402" y="4030.01" width="118.421" height="51.7312" fill="white" fill-opacity="0.09"/>
<rect x="402" y="4030.01" width="118.421" height="51.7312" fill="#EBEBEB"/>
<path d="M442.578 4045.04H447.762C450.684 4045.04 452.818 4045.66 454.162 4046.92C455.527 4048.16 456.21 4049.87 456.21 4052.04C456.21 4054.56 455.474 4056.49 454.002 4057.84C452.53 4059.18 450.343 4059.85 447.442 4059.85H446.194V4068.56H442.578V4045.04ZM447.538 4056.68C449.415 4056.68 450.727 4056.27 451.474 4055.44C452.22 4054.6 452.594 4053.6 452.594 4052.43C452.594 4051.17 452.231 4050.14 451.506 4049.36C450.78 4048.57 449.564 4048.17 447.858 4048.17H446.194V4056.68H447.538ZM458.586 4045.04H464.25C468.986 4045.04 472.293 4046.16 474.17 4048.4C476.069 4050.64 477.018 4053.3 477.018 4056.4C477.018 4058.55 476.613 4060.54 475.802 4062.38C474.992 4064.19 473.648 4065.68 471.77 4066.83C469.914 4067.98 467.472 4068.56 464.442 4068.56H458.586V4045.04ZM464.826 4065.39C467.77 4065.39 469.904 4064.56 471.226 4062.89C472.57 4061.21 473.242 4059.09 473.242 4056.56C473.242 4054.08 472.57 4052.06 471.226 4050.51C469.882 4048.95 467.749 4048.17 464.826 4048.17H462.17V4065.39H464.826ZM479.626 4045.04H490.666V4048.14H483.178V4054.8H489.002V4057.93H483.178V4068.56H479.626V4045.04Z" fill="#B5B5B5"/>
<path d="M332.54 125H380.963V144.023C382.14 161.897 385.806 169.099 406.903 168.235H425.927V247.786C426.87 275.039 418.797 280.382 396.527 280.644H335.999C315.96 280.939 309.294 275.524 310.058 250.38V145.753C310.578 132.623 312.41 126.208 332.54 125Z" fill="white" fill-opacity="0.81"/>
<path d="M420.736 161.317L387.877 130.188V144.024C387.008 160.497 398.812 161.013 420.736 161.317Z" fill="white" fill-opacity="0.5"/>
<rect x="310" y="202.838" width="107.168" height="46.8154" fill="white" fill-opacity="0.09"/>
<rect x="310" y="202.838" width="107.168" height="46.8154" fill="#EBEBEB"/>
<path d="M337.215 238.3C336.375 238.3 335.525 238.2 334.665 238C333.805 237.78 333.085 237.42 332.505 236.92L333.855 233.83C334.215 234.25 334.615 234.57 335.055 234.79C335.515 234.99 336.075 235.09 336.735 235.09C337.355 235.09 337.855 234.98 338.235 234.76C338.615 234.54 338.895 234.14 339.075 233.56C339.275 232.98 339.375 232.15 339.375 231.07V215.95H342.705V231.91C342.705 234.15 342.195 235.78 341.175 236.8C340.175 237.8 338.855 238.3 337.215 238.3ZM351.763 238.3C350.563 238.3 349.373 238.09 348.193 237.67C347.013 237.25 346.163 236.78 345.643 236.26L347.233 233.41C347.653 233.79 348.303 234.19 349.183 234.61C350.083 235.01 350.943 235.21 351.763 235.21C352.823 235.21 353.683 234.96 354.343 234.46C355.023 233.96 355.363 233.27 355.363 232.39C355.363 231.71 355.183 231.12 354.823 230.62C354.463 230.12 354.023 229.71 353.503 229.39C352.983 229.05 352.243 228.64 351.283 228.16C350.143 227.6 349.363 227.18 348.943 226.9C347.003 225.6 346.033 223.8 346.033 221.5C346.033 219.6 346.663 218.15 347.923 217.15C349.183 216.13 350.773 215.62 352.693 215.62C354.753 215.62 356.503 216.21 357.943 217.39L356.353 220.12C355.973 219.72 355.433 219.38 354.733 219.1C354.053 218.8 353.323 218.65 352.543 218.65C351.543 218.65 350.753 218.88 350.173 219.34C349.613 219.78 349.333 220.44 349.333 221.32C349.333 221.94 349.513 222.5 349.873 223C350.233 223.48 350.683 223.9 351.223 224.26C351.783 224.62 352.533 225.06 353.473 225.58C354.373 226.08 355.063 226.48 355.543 226.78C356.023 227.06 356.473 227.4 356.893 227.8C357.473 228.32 357.943 228.94 358.303 229.66C358.663 230.38 358.843 231.17 358.843 232.03C358.843 233.37 358.533 234.51 357.913 235.45C357.313 236.39 356.473 237.1 355.393 237.58C354.333 238.06 353.123 238.3 351.763 238.3ZM371.695 238.3C369.695 238.3 367.845 237.84 366.145 236.92C364.465 235.98 363.125 234.65 362.125 232.93C361.125 231.21 360.625 229.21 360.625 226.93C360.625 224.63 361.125 222.63 362.125 220.93C363.125 219.21 364.465 217.89 366.145 216.97C367.845 216.05 369.695 215.59 371.695 215.59C373.695 215.59 375.535 216.05 377.215 216.97C378.915 217.89 380.265 219.21 381.265 220.93C382.265 222.63 382.765 224.63 382.765 226.93C382.765 229.21 382.265 231.21 381.265 232.93C380.265 234.65 378.915 235.98 377.215 236.92C375.535 237.84 373.695 238.3 371.695 238.3ZM371.695 235.27C373.075 235.27 374.335 234.95 375.475 234.31C376.615 233.65 377.515 232.7 378.175 231.46C378.855 230.2 379.195 228.7 379.195 226.96C379.195 225.2 378.855 223.7 378.175 222.46C377.515 221.2 376.615 220.25 375.475 219.61C374.355 218.97 373.095 218.65 371.695 218.65C370.295 218.65 369.025 218.97 367.885 219.61C366.745 220.25 365.845 221.2 365.185 222.46C364.525 223.7 364.195 225.2 364.195 226.96C364.195 228.7 364.535 230.2 365.215 231.46C365.895 232.7 366.805 233.65 367.945 234.31C369.105 234.95 370.355 235.27 371.695 235.27ZM388.886 223.72L388.976 226.12V238H385.616V215.92H386.036L398.996 230.38L398.876 227.86V215.95H402.236V238H401.786L388.886 223.72Z" fill="#B5B5B5"/>
<path d="M1038.42 3037H1105.91V3063.52C1107.55 3088.43 1112.66 3098.47 1142.07 3097.26H1168.59V3208.15C1169.9 3246.14 1158.65 3253.58 1127.61 3253.95H1043.24C1015.31 3254.36 1006.02 3246.81 1007.08 3211.76V3065.93C1007.81 3047.63 1010.36 3038.68 1038.42 3037Z" fill="white" fill-opacity="0.81"/>
<path d="M1161.35 3087.62L1115.55 3044.23V3063.52C1114.34 3086.48 1130.79 3087.2 1161.35 3087.62Z" fill="white" fill-opacity="0.5"/>
<rect x="1007" y="3145.5" width="149.379" height="65.255" fill="white" fill-opacity="0.09"/>
<rect x="1007" y="3145.5" width="149.379" height="65.255" fill="#EBEBEB"/>
<path d="M1063.44 3194.28C1060.4 3194.28 1057.76 3193.6 1055.52 3192.24C1053.31 3190.88 1051.62 3189.07 1050.44 3186.8C1049.27 3184.51 1048.68 3181.99 1048.68 3179.24C1048.68 3176.33 1049.31 3173.73 1050.56 3171.44C1051.84 3169.15 1053.63 3167.36 1055.92 3166.08C1058.22 3164.77 1060.82 3164.12 1063.72 3164.12C1065.03 3164.12 1066.24 3164.27 1067.36 3164.56C1068.51 3164.83 1069.46 3165.15 1070.2 3165.52C1070.95 3165.87 1071.44 3166.16 1071.68 3166.4L1069.72 3170.4C1068.1 3168.96 1065.98 3168.24 1063.36 3168.24C1061.52 3168.24 1059.86 3168.69 1058.36 3169.6C1056.87 3170.51 1055.7 3171.8 1054.84 3173.48C1053.99 3175.16 1053.56 3177.11 1053.56 3179.32C1053.56 3181.35 1053.94 3183.19 1054.68 3184.84C1055.46 3186.49 1056.58 3187.8 1058.04 3188.76C1059.51 3189.72 1061.26 3190.2 1063.28 3190.2C1065.63 3190.2 1067.9 3189.53 1070.08 3188.2L1071.4 3192C1070.82 3192.53 1069.74 3193.05 1068.16 3193.56C1066.62 3194.04 1065.04 3194.28 1063.44 3194.28ZM1081.62 3194.4C1080.02 3194.4 1078.43 3194.12 1076.86 3193.56C1075.28 3193 1074.15 3192.37 1073.46 3191.68L1075.58 3187.88C1076.14 3188.39 1077 3188.92 1078.18 3189.48C1079.38 3190.01 1080.52 3190.28 1081.62 3190.28C1083.03 3190.28 1084.18 3189.95 1085.06 3189.28C1085.96 3188.61 1086.42 3187.69 1086.42 3186.52C1086.42 3185.61 1086.18 3184.83 1085.7 3184.16C1085.22 3183.49 1084.63 3182.95 1083.94 3182.52C1083.24 3182.07 1082.26 3181.52 1080.98 3180.88C1079.46 3180.13 1078.42 3179.57 1077.86 3179.2C1075.27 3177.47 1073.98 3175.07 1073.98 3172C1073.98 3169.47 1074.82 3167.53 1076.5 3166.2C1078.18 3164.84 1080.3 3164.16 1082.86 3164.16C1085.6 3164.16 1087.94 3164.95 1089.86 3166.52L1087.74 3170.16C1087.23 3169.63 1086.51 3169.17 1085.58 3168.8C1084.67 3168.4 1083.7 3168.2 1082.66 3168.2C1081.32 3168.2 1080.27 3168.51 1079.5 3169.12C1078.75 3169.71 1078.38 3170.59 1078.38 3171.76C1078.38 3172.59 1078.62 3173.33 1079.1 3174C1079.58 3174.64 1080.18 3175.2 1080.9 3175.68C1081.64 3176.16 1082.64 3176.75 1083.9 3177.44C1085.1 3178.11 1086.02 3178.64 1086.66 3179.04C1087.3 3179.41 1087.9 3179.87 1088.46 3180.4C1089.23 3181.09 1089.86 3181.92 1090.34 3182.88C1090.82 3183.84 1091.06 3184.89 1091.06 3186.04C1091.06 3187.83 1090.64 3189.35 1089.82 3190.6C1089.02 3191.85 1087.9 3192.8 1086.46 3193.44C1085.04 3194.08 1083.43 3194.4 1081.62 3194.4ZM1090.91 3164.6H1095.99L1104.79 3184.8L1113.63 3164.6H1118.67L1105.11 3194H1104.51L1090.91 3164.6Z" fill="#B5B5B5"/>
<path d="M108.54 1116H156.963V1135.02C158.14 1152.9 161.806 1160.1 182.903 1159.23H201.927V1238.79C202.87 1266.04 194.797 1271.38 172.527 1271.64H111.999C91.9601 1271.94 85.2943 1266.52 86.0581 1241.38V1136.75C86.578 1123.62 88.4097 1117.21 108.54 1116Z" fill="white" fill-opacity="0.81"/>
<path d="M196.735 1152.32L163.877 1121.19V1135.02C163.008 1151.5 174.812 1152.01 196.735 1152.32Z" fill="white" fill-opacity="0.5"/>
<rect x="86" y="1193.84" width="107.168" height="46.8154" fill="white" fill-opacity="0.09"/>
<rect x="86" y="1193.84" width="107.168" height="46.8154" fill="#EBEBEB"/>
<path d="M124.722 1217.62L118.362 1207.06H122.412L126.582 1214.77L130.872 1207.06H134.832L128.442 1217.56L135.462 1229.11H131.472L126.612 1220.38L121.842 1229.11H117.972L124.722 1217.62ZM137.188 1207.06H140.578V1226.11H146.908V1229.11H137.188V1207.06ZM154.307 1229.41C153.107 1229.41 151.917 1229.2 150.737 1228.78C149.557 1228.36 148.707 1227.89 148.187 1227.37L149.777 1224.52C150.197 1224.9 150.847 1225.3 151.727 1225.72C152.627 1226.12 153.487 1226.32 154.307 1226.32C155.367 1226.32 156.227 1226.07 156.887 1225.57C157.567 1225.07 157.907 1224.38 157.907 1223.5C157.907 1222.82 157.727 1222.23 157.367 1221.73C157.007 1221.23 156.567 1220.82 156.047 1220.5C155.527 1220.16 154.787 1219.75 153.827 1219.27C152.687 1218.71 151.907 1218.29 151.487 1218.01C149.547 1216.71 148.577 1214.91 148.577 1212.61C148.577 1210.71 149.207 1209.26 150.467 1208.26C151.727 1207.24 153.317 1206.73 155.237 1206.73C157.297 1206.73 159.047 1207.32 160.487 1208.5L158.897 1211.23C158.517 1210.83 157.977 1210.49 157.277 1210.21C156.597 1209.91 155.867 1209.76 155.087 1209.76C154.087 1209.76 153.297 1209.99 152.717 1210.45C152.157 1210.89 151.877 1211.55 151.877 1212.43C151.877 1213.05 152.057 1213.61 152.417 1214.11C152.777 1214.59 153.227 1215.01 153.767 1215.37C154.327 1215.73 155.077 1216.17 156.017 1216.69C156.917 1217.19 157.607 1217.59 158.087 1217.89C158.567 1218.17 159.017 1218.51 159.437 1218.91C160.017 1219.43 160.487 1220.05 160.847 1220.77C161.207 1221.49 161.387 1222.28 161.387 1223.14C161.387 1224.48 161.077 1225.62 160.457 1226.56C159.857 1227.5 159.017 1228.21 157.937 1228.69C156.877 1229.17 155.667 1229.41 154.307 1229.41Z" fill="#B5B5B5"/>
<circle cx="293" cy="2282" r="215" fill="url(#paint26_linear_1627_20700)"/>
<circle cx="293" cy="2282" r="215" fill="url(#paint27_linear_1627_20700)"/>
<path d="M243.418 2173H310.914V2199.52C312.555 2224.43 317.664 2234.47 347.072 2233.26H373.588V2344.15C374.903 2382.14 363.65 2389.58 332.608 2389.95H248.239C220.308 2390.36 211.016 2382.81 212.081 2347.76V2201.93C212.806 2183.63 215.359 2174.68 243.418 2173Z" fill="white" fill-opacity="0.81"/>
<path d="M366.352 2223.62L320.551 2180.23V2199.52C319.34 2222.48 335.793 2223.2 366.352 2223.62Z" fill="white" fill-opacity="0.5"/>
<rect x="212" y="2281.5" width="149.379" height="65.255" fill="white" fill-opacity="0.09"/>
<rect x="212" y="2281.5" width="149.379" height="65.255" fill="#EBEBEB"/>
<path d="M259.702 2316.84L257.302 2319.8V2330H252.902V2300.6H257.302V2313.72L267.382 2300.6H272.742L262.622 2313.52L274.182 2330H268.702L259.702 2316.84ZM283.051 2316.28L281.211 2312.12L280.371 2316.28L277.651 2330H273.211L279.291 2300.6H279.771L287.851 2316.48L290.251 2321.8L292.651 2316.48L300.571 2300.6H301.011L307.331 2330H302.931L299.971 2316.28L299.091 2312.12L297.491 2316.28L290.371 2330H290.131L283.051 2316.28ZM310.072 2300.6H314.592V2326H323.032V2330H310.072V2300.6Z" fill="#B5B5B5"/>
<path d="M1419.19 374H1473.31V395.261C1474.63 415.237 1478.72 423.287 1502.3 422.32H1523.56V511.229C1524.62 541.688 1515.59 547.66 1490.71 547.953H1423.06C1400.66 548.282 1393.21 542.23 1394.06 514.128V397.194C1394.65 382.52 1396.69 375.35 1419.19 374Z" fill="#E5E5E5" fill-opacity="0.81"/>
<path d="M1517.76 414.589L1481.04 379.799V395.261C1480.07 413.672 1493.26 414.249 1517.76 414.589Z" fill="#B4B4B4" fill-opacity="0.35"/>
<rect x="1394" y="460.993" width="119.774" height="52.3222" fill="white" fill-opacity="0.09"/>
<rect x="1394" y="460.993" width="119.774" height="52.3222" fill="white"/>
<path d="M1433.53 489.13L1431.73 491.35V499H1428.43V476.95H1431.73V486.79L1439.29 476.95H1443.31L1435.72 486.64L1444.39 499H1440.28L1433.53 489.13ZM1451.04 488.71L1449.66 485.59L1449.03 488.71L1446.99 499H1443.66L1448.22 476.95H1448.58L1454.64 488.86L1456.44 492.85L1458.24 488.86L1464.18 476.95H1464.51L1469.25 499H1465.95L1463.73 488.71L1463.07 485.59L1461.87 488.71L1456.53 499H1456.35L1451.04 488.71ZM1471.3 476.95H1474.69V496H1481.02V499H1471.3V476.95Z" fill="#B5B5B5"/>
<path d="M1263.19 3874H1317.31V3895.26C1318.63 3915.24 1322.72 3923.29 1346.3 3922.32H1367.56V4011.23C1368.62 4041.69 1359.59 4047.66 1334.71 4047.95H1267.06C1244.66 4048.28 1237.21 4042.23 1238.06 4014.13V3897.19C1238.65 3882.52 1240.69 3875.35 1263.19 3874Z" fill="#E5E5E5" fill-opacity="0.81"/>
<path d="M1361.76 3914.59L1325.04 3879.8V3895.26C1324.07 3913.67 1337.26 3914.25 1361.76 3914.59Z" fill="#B4B4B4" fill-opacity="0.35"/>
<rect x="1238" y="3960.99" width="119.774" height="52.3222" fill="white" fill-opacity="0.09"/>
<rect x="1238" y="3960.99" width="119.774" height="52.3222" fill="white"/>
<path d="M1280.81 3999.42C1279.61 3999.42 1278.42 3999.21 1277.24 3998.79C1276.06 3998.37 1275.21 3997.9 1274.69 3997.38L1276.28 3994.53C1276.7 3994.91 1277.35 3995.31 1278.23 3995.73C1279.13 3996.13 1279.99 3996.33 1280.81 3996.33C1281.87 3996.33 1282.73 3996.08 1283.39 3995.58C1284.07 3995.08 1284.41 3994.39 1284.41 3993.51C1284.41 3992.83 1284.23 3992.24 1283.87 3991.74C1283.51 3991.24 1283.07 3990.83 1282.55 3990.51C1282.03 3990.17 1281.29 3989.76 1280.33 3989.28C1279.19 3988.72 1278.41 3988.3 1277.99 3988.02C1276.05 3986.72 1275.08 3984.92 1275.08 3982.62C1275.08 3980.72 1275.71 3979.27 1276.97 3978.27C1278.23 3977.25 1279.82 3976.74 1281.74 3976.74C1283.8 3976.74 1285.55 3977.33 1286.99 3978.51L1285.4 3981.24C1285.02 3980.84 1284.48 3980.5 1283.78 3980.22C1283.1 3979.92 1282.37 3979.77 1281.59 3979.77C1280.59 3979.77 1279.8 3980 1279.22 3980.46C1278.66 3980.9 1278.38 3981.56 1278.38 3982.44C1278.38 3983.06 1278.56 3983.62 1278.92 3984.12C1279.28 3984.6 1279.73 3985.02 1280.27 3985.38C1280.83 3985.74 1281.58 3986.18 1282.52 3986.7C1283.42 3987.2 1284.11 3987.6 1284.59 3987.9C1285.07 3988.18 1285.52 3988.52 1285.94 3988.92C1286.52 3989.44 1286.99 3990.06 1287.35 3990.78C1287.71 3991.5 1287.89 3992.29 1287.89 3993.15C1287.89 3994.49 1287.58 3995.63 1286.96 3996.57C1286.36 3997.51 1285.52 3998.22 1284.44 3998.7C1283.38 3999.18 1282.17 3999.42 1280.81 3999.42ZM1290.57 3977.07H1293.93V3986.07H1301.7V3977.07H1305.06V3999.12H1301.7V3988.89H1293.93V3999.12H1290.57V3977.07ZM1308.8 3977.07H1313.66C1316.4 3977.07 1318.4 3977.66 1319.66 3978.84C1320.94 3980 1321.58 3981.6 1321.58 3983.64C1321.58 3986 1320.89 3987.81 1319.51 3989.07C1318.13 3990.33 1316.08 3990.96 1313.36 3990.96H1312.19V3999.12H1308.8V3977.07ZM1313.45 3987.99C1315.21 3987.99 1316.44 3987.6 1317.14 3986.82C1317.84 3986.04 1318.19 3985.1 1318.19 3984C1318.19 3982.82 1317.85 3981.86 1317.17 3981.12C1316.49 3980.38 1315.35 3980.01 1313.75 3980.01H1312.19V3987.99H1313.45Z" fill="#B5B5B5"/>
<path d="M1286.19 2155H1340.31V2176.26C1341.63 2196.24 1345.72 2204.29 1369.3 2203.32H1390.56V2292.23C1391.62 2322.69 1382.59 2328.66 1357.71 2328.95H1290.06C1267.66 2329.28 1260.21 2323.23 1261.06 2295.13V2178.19C1261.65 2163.52 1263.69 2156.35 1286.19 2155Z" fill="#E5E5E5" fill-opacity="0.81"/>
<path d="M1384.76 2195.59L1348.04 2160.8V2176.26C1347.07 2194.67 1360.26 2195.25 1384.76 2195.59Z" fill="#B4B4B4" fill-opacity="0.35"/>
<rect x="1261" y="2241.99" width="119.774" height="52.3222" fill="white" fill-opacity="0.09"/>
<rect x="1261" y="2241.99" width="119.774" height="52.3222" fill="white"/>
<path d="M1305.44 2268.63L1299.08 2258.07H1303.13L1307.3 2265.78L1311.59 2258.07H1315.55L1309.16 2268.57L1316.18 2280.12H1312.19L1307.33 2271.39L1302.56 2280.12H1298.69L1305.44 2268.63ZM1317.91 2258.07H1321.3V2277.12H1327.63V2280.12H1317.91V2258.07ZM1335.03 2280.42C1333.83 2280.42 1332.64 2280.21 1331.46 2279.79C1330.28 2279.37 1329.43 2278.9 1328.91 2278.38L1330.5 2275.53C1330.92 2275.91 1331.57 2276.31 1332.45 2276.73C1333.35 2277.13 1334.21 2277.33 1335.03 2277.33C1336.09 2277.33 1336.95 2277.08 1337.61 2276.58C1338.29 2276.08 1338.63 2275.39 1338.63 2274.51C1338.63 2273.83 1338.45 2273.24 1338.09 2272.74C1337.73 2272.24 1337.29 2271.83 1336.77 2271.51C1336.25 2271.17 1335.51 2270.76 1334.55 2270.28C1333.41 2269.72 1332.63 2269.3 1332.21 2269.02C1330.27 2267.72 1329.3 2265.92 1329.3 2263.62C1329.3 2261.72 1329.93 2260.27 1331.19 2259.27C1332.45 2258.25 1334.04 2257.74 1335.96 2257.74C1338.02 2257.74 1339.77 2258.33 1341.21 2259.51L1339.62 2262.24C1339.24 2261.84 1338.7 2261.5 1338 2261.22C1337.32 2260.92 1336.59 2260.77 1335.81 2260.77C1334.81 2260.77 1334.02 2261 1333.44 2261.46C1332.88 2261.9 1332.6 2262.56 1332.6 2263.44C1332.6 2264.06 1332.78 2264.62 1333.14 2265.12C1333.5 2265.6 1333.95 2266.02 1334.49 2266.38C1335.05 2266.74 1335.8 2267.18 1336.74 2267.7C1337.64 2268.2 1338.33 2268.6 1338.81 2268.9C1339.29 2269.18 1339.74 2269.52 1340.16 2269.92C1340.74 2270.44 1341.21 2271.06 1341.57 2271.78C1341.93 2272.5 1342.11 2273.29 1342.11 2274.15C1342.11 2275.49 1341.8 2276.63 1341.18 2277.57C1340.58 2278.51 1339.74 2279.22 1338.66 2279.7C1337.6 2280.18 1336.39 2280.42 1335.03 2280.42Z" fill="#B5B5B5"/>
<path d="M283.191 2947H337.31V2968.26C338.626 2988.24 342.722 2996.29 366.302 2995.32H387.563V3084.23C388.618 3114.69 379.595 3120.66 354.705 3120.95H287.057C264.661 3121.28 257.211 3115.23 258.065 3087.13V2970.19C258.646 2955.52 260.693 2948.35 283.191 2947Z" fill="#E5E5E5" fill-opacity="0.81"/>
<path d="M381.761 2987.59L345.038 2952.8V2968.26C344.067 2986.67 357.259 2987.25 381.761 2987.59Z" fill="#B4B4B4" fill-opacity="0.35"/>
<rect x="258" y="3033.99" width="119.774" height="52.3222" fill="white" fill-opacity="0.09"/>
<rect x="258" y="3033.99" width="119.774" height="52.3222" fill="white"/>
<path d="M296.986 3050.07H301.846C304.586 3050.07 306.586 3050.66 307.846 3051.84C309.126 3053 309.766 3054.6 309.766 3056.64C309.766 3059 309.076 3060.81 307.696 3062.07C306.316 3063.33 304.266 3063.96 301.546 3063.96H300.376V3072.12H296.986V3050.07ZM301.636 3060.99C303.396 3060.99 304.626 3060.6 305.326 3059.82C306.026 3059.04 306.376 3058.1 306.376 3057C306.376 3055.82 306.036 3054.86 305.356 3054.12C304.676 3053.38 303.536 3053.01 301.936 3053.01H300.376V3060.99H301.636ZM311.994 3050.07H316.854C319.594 3050.07 321.594 3050.66 322.854 3051.84C324.134 3053 324.774 3054.6 324.774 3056.64C324.774 3059 324.084 3060.81 322.704 3062.07C321.324 3063.33 319.274 3063.96 316.554 3063.96H315.384V3072.12H311.994V3050.07ZM316.644 3060.99C318.404 3060.99 319.634 3060.6 320.334 3059.82C321.034 3059.04 321.384 3058.1 321.384 3057C321.384 3055.82 321.044 3054.86 320.364 3054.12C319.684 3053.38 318.544 3053.01 316.944 3053.01H315.384V3060.99H316.644ZM331.202 3053.01H325.562V3050.07H340.232V3053.01H334.532V3072.12H331.202V3053.01Z" fill="#B5B5B5"/>
<defs>
<radialGradient id="paint0_radial_1627_20700" cx="0" cy="0" r="1" gradientUnits="userSpaceOnUse" gradientTransform="translate(3621 2680.59) rotate(100.799) scale(6874.13 27100.9)">
<stop stop-color="white"/>
<stop offset="0.276976" stop-color="#CEFFFE" stop-opacity="0.37"/>
<stop offset="0.840278" stop-color="#CEB0D0" stop-opacity="0"/>
</radialGradient>
<linearGradient id="paint1_linear_1627_20700" x1="1047.45" y1="931.563" x2="1067.84" y2="1065.66" gradientUnits="userSpaceOnUse">
<stop stop-color="white"/>
<stop offset="1" stop-color="#FEB8FF" stop-opacity="0"/>
</linearGradient>
<linearGradient id="paint2_linear_1627_20700" x1="1490" y1="2332" x2="1028.5" y2="3386.5" gradientUnits="userSpaceOnUse">
<stop offset="0.00108304" stop-color="#6E498E" stop-opacity="0.61"/>
<stop offset="1" stop-color="#432866" stop-opacity="0"/>
</linearGradient>
<linearGradient id="paint3_linear_1627_20700" x1="891" y1="3188" x2="429.5" y2="4242.5" gradientUnits="userSpaceOnUse">
<stop offset="0.00108304" stop-color="#6E498E" stop-opacity="0.61"/>
<stop offset="1" stop-color="#432866" stop-opacity="0"/>
</linearGradient>
<linearGradient id="paint4_linear_1627_20700" x1="372" y1="1060" x2="296" y2="1588" gradientUnits="userSpaceOnUse">
<stop stop-color="white"/>
<stop offset="1" stop-color="#6E498E" stop-opacity="0.61"/>
</linearGradient>
<linearGradient id="paint5_linear_1627_20700" x1="551.016" y1="93.5052" x2="488.919" y2="524.917" gradientUnits="userSpaceOnUse">
<stop stop-color="white"/>
<stop offset="1" stop-color="#6E498E" stop-opacity="0.61"/>
</linearGradient>
<linearGradient id="paint6_linear_1627_20700" x1="565.663" y1="1100.58" x2="575.118" y2="1162.75" gradientUnits="userSpaceOnUse">
<stop stop-color="white"/>
<stop offset="1" stop-color="#81F7FE" stop-opacity="0"/>
</linearGradient>
<linearGradient id="paint7_linear_1627_20700" x1="1398.64" y1="902.052" x2="1431.83" y2="1120.27" gradientUnits="userSpaceOnUse">
<stop stop-color="white"/>
<stop offset="1" stop-color="#81F7FE" stop-opacity="0"/>
</linearGradient>
<linearGradient id="paint8_linear_1627_20700" x1="327.18" y1="715.226" x2="368.337" y2="985.866" gradientUnits="userSpaceOnUse">
<stop stop-color="white"/>
<stop offset="1" stop-color="#81F7FE" stop-opacity="0"/>
</linearGradient>
<linearGradient id="paint9_linear_1627_20700" x1="1508.16" y1="303.697" x2="1573.04" y2="730.382" gradientUnits="userSpaceOnUse">
<stop stop-color="white"/>
<stop offset="1" stop-color="#81F7FE" stop-opacity="0"/>
</linearGradient>
<linearGradient id="paint10_linear_1627_20700" x1="1148.39" y1="2951.74" x2="1228.11" y2="3475.96" gradientUnits="userSpaceOnUse">
<stop stop-color="white"/>
<stop offset="1" stop-color="#FEB8FF" stop-opacity="0"/>
</linearGradient>
<linearGradient id="paint11_linear_1627_20700" x1="1686" y1="428.002" x2="1224.5" y2="1482.5" gradientUnits="userSpaceOnUse">
<stop offset="0.00108304" stop-color="#6E498E" stop-opacity="0.61"/>
<stop offset="1" stop-color="#432866" stop-opacity="0"/>
</linearGradient>
<linearGradient id="paint12_linear_1627_20700" x1="1344.39" y1="1047.74" x2="1424.11" y2="1571.96" gradientUnits="userSpaceOnUse">
<stop stop-color="white"/>
<stop offset="1" stop-color="#FEB8FF" stop-opacity="0"/>
</linearGradient>
<linearGradient id="paint13_linear_1627_20700" x1="549.393" y1="3807.74" x2="629.112" y2="4331.96" gradientUnits="userSpaceOnUse">
<stop stop-color="white"/>
<stop offset="1" stop-color="#FEB8FF" stop-opacity="0"/>
</linearGradient>
<linearGradient id="paint14_linear_1627_20700" x1="1440.64" y1="2588.05" x2="1473.83" y2="2806.27" gradientUnits="userSpaceOnUse">
<stop stop-color="white"/>
<stop offset="1" stop-color="#81F7FE" stop-opacity="0"/>
</linearGradient>
<linearGradient id="paint15_linear_1627_20700" x1="500.18" y1="2547.22" x2="541.337" y2="2817.87" gradientUnits="userSpaceOnUse">
<stop stop-color="white"/>
<stop offset="1" stop-color="#81F7FE" stop-opacity="0"/>
</linearGradient>
<linearGradient id="paint16_linear_1627_20700" x1="371.703" y1="1786.42" x2="326" y2="2103.93" gradientUnits="userSpaceOnUse">
<stop stop-color="white"/>
<stop offset="1" stop-color="#6E498E" stop-opacity="0.61"/>
</linearGradient>
<linearGradient id="paint17_linear_1627_20700" x1="262" y1="1787" x2="295" y2="2004" gradientUnits="userSpaceOnUse">
<stop stop-color="white"/>
<stop offset="1" stop-color="#FEB8FF" stop-opacity="0"/>
</linearGradient>
<linearGradient id="paint18_linear_1627_20700" x1="275" y1="3569" x2="308" y2="3786" gradientUnits="userSpaceOnUse">
<stop stop-color="white"/>
<stop offset="1" stop-color="#FEB8FF" stop-opacity="0"/>
</linearGradient>
<linearGradient id="paint19_linear_1627_20700" x1="1375.16" y1="2084.7" x2="1440.04" y2="2511.38" gradientUnits="userSpaceOnUse">
<stop stop-color="white"/>
<stop offset="1" stop-color="#81F7FE" stop-opacity="0"/>
</linearGradient>
<linearGradient id="paint20_linear_1627_20700" x1="434.831" y1="1502.54" x2="480.809" y2="1804.88" gradientUnits="userSpaceOnUse">
<stop stop-color="white"/>
<stop offset="1" stop-color="#81F7FE" stop-opacity="0"/>
</linearGradient>
<linearGradient id="paint21_linear_1627_20700" x1="372.157" y1="2876.7" x2="437.045" y2="3303.38" gradientUnits="userSpaceOnUse">
<stop stop-color="white"/>
<stop offset="1" stop-color="#81F7FE" stop-opacity="0"/>
</linearGradient>
<linearGradient id="paint22_linear_1627_20700" x1="1352.16" y1="3803.7" x2="1417.04" y2="4230.38" gradientUnits="userSpaceOnUse">
<stop stop-color="white"/>
<stop offset="1" stop-color="#81F7FE" stop-opacity="0"/>
</linearGradient>
<linearGradient id="paint23_linear_1627_20700" x1="1396.18" y1="1527.22" x2="1437.34" y2="1797.87" gradientUnits="userSpaceOnUse">
<stop stop-color="white"/>
<stop offset="1" stop-color="#81F7FE" stop-opacity="0"/>
</linearGradient>
<linearGradient id="paint24_linear_1627_20700" x1="189.573" y1="1060.97" x2="244.449" y2="1421.82" gradientUnits="userSpaceOnUse">
<stop stop-color="white"/>
<stop offset="1" stop-color="#FEB8FF" stop-opacity="0"/>
</linearGradient>
<linearGradient id="paint25_linear_1627_20700" x1="401.893" y1="94.2284" x2="446.73" y2="389.068" gradientUnits="userSpaceOnUse">
<stop stop-color="white"/>
<stop offset="1" stop-color="#FEB8FF" stop-opacity="0"/>
</linearGradient>
<linearGradient id="paint26_linear_1627_20700" x1="695" y1="1469" x2="233.5" y2="2523.5" gradientUnits="userSpaceOnUse">
<stop offset="0.00108304" stop-color="#6E498E" stop-opacity="0.61"/>
<stop offset="1" stop-color="#432866" stop-opacity="0"/>
</linearGradient>
<linearGradient id="paint27_linear_1627_20700" x1="353.393" y1="2088.74" x2="433.112" y2="2612.96" gradientUnits="userSpaceOnUse">
<stop stop-color="white"/>
<stop offset="1" stop-color="#FEB8FF" stop-opacity="0"/>
</linearGradient>
</defs>
</svg>
