<svg width="412" height="275" viewBox="0 0 412 275" fill="none" xmlns="http://www.w3.org/2000/svg">
<path d="M192.975 195.586C194.299 194.646 195.733 193.898 197.227 193.353L197.809 188.937L205.143 188.266L206.516 192.506C208.082 192.77 209.626 193.243 211.103 193.931L214.636 191.219L220.294 195.933L218.272 199.898C219.211 201.229 219.959 202.659 220.502 204.155L224.914 204.738L225.584 212.081L221.348 213.456C221.085 215.023 220.612 216.569 219.926 218.048L222.634 221.585L217.926 227.25L213.96 225.226C212.636 226.166 211.202 226.914 209.708 227.459L209.126 231.875L201.792 232.546L200.419 228.306C198.853 228.042 197.31 227.569 195.832 226.881L192.3 229.593L186.642 224.879L188.663 220.908C187.724 219.583 186.977 218.147 186.427 216.651L182.016 216.068L181.346 208.726L185.581 207.351C185.845 205.783 186.317 204.238 187.004 202.758L184.296 199.222L189.004 193.557L192.975 195.586ZM197.617 205.09C194.827 208.451 195.283 213.434 198.639 216.228C201.99 219.022 206.972 218.565 209.763 215.205C212.554 211.85 212.098 206.861 208.741 204.067C205.385 201.273 200.408 201.73 197.617 205.09Z" fill="#EBEBEB"/>
<path d="M236.494 219.692C237.323 219.103 238.224 218.63 239.158 218.289L239.526 215.517L244.124 215.094L244.986 217.75C245.97 217.915 246.936 218.212 247.859 218.641L250.073 216.942L253.622 219.901L252.358 222.387C252.952 223.217 253.418 224.119 253.759 225.054L256.528 225.423L256.951 230.026L254.297 230.89C254.133 231.874 253.836 232.842 253.407 233.766L255.105 235.983L252.15 239.536L249.667 238.271C248.837 238.859 247.936 239.332 247.002 239.673L246.634 242.445L242.036 242.869L241.174 240.212C240.191 240.047 239.224 239.75 238.301 239.321L236.087 241.021L232.538 238.062L233.802 235.576C233.214 234.745 232.742 233.843 232.401 232.908L229.632 232.54L229.209 227.936L231.863 227.073C232.027 226.088 232.324 225.12 232.753 224.196L231.055 221.98L234.011 218.427L236.494 219.692ZM239.405 225.654C237.658 227.76 237.944 230.884 240.042 232.639C242.146 234.388 245.266 234.102 247.019 232.001C248.766 229.894 248.48 226.77 246.382 225.016C244.278 223.261 241.152 223.547 239.405 225.654Z" fill="#EBEBEB"/>
<path d="M110.515 53.8125C111.482 53.125 112.52 52.5805 113.608 52.1845L114.031 48.967L119.37 48.4775L120.37 51.563C121.513 51.7555 122.633 52.102 123.704 52.6025L126.275 50.628L130.395 54.06L128.923 56.9475C129.61 57.9155 130.154 58.955 130.549 60.044L133.763 60.4675L134.252 65.8135L131.17 66.8145C130.978 67.9585 130.631 69.0805 130.132 70.153L132.104 72.727L128.676 76.852L125.792 75.378C124.825 76.0655 123.787 76.61 122.699 77.006L122.276 80.2235L116.937 80.713L115.937 77.6275C114.794 77.435 113.674 77.0885 112.602 76.588L110.031 78.5625L105.911 75.1305L107.384 72.243C106.697 71.275 106.153 70.2355 105.758 69.1465L102.544 68.723L102.055 63.377L105.137 62.376C105.329 61.232 105.675 60.11 106.175 59.0375L104.203 56.4635L107.631 52.3385L110.515 53.8125ZM113.893 60.726C111.861 63.168 112.196 66.798 114.635 68.833C117.074 70.868 120.7 70.5325 122.732 68.0905C124.765 65.6485 124.43 62.0185 121.99 59.9835C119.546 57.9485 115.926 58.284 113.893 60.726Z" fill="#E0E0E0"/>
<path d="M211.548 21.0487C212.51 20.3667 213.548 19.8277 214.625 19.4317L215.048 16.2307L220.36 15.7412L221.354 18.8102C222.491 19.0027 223.606 19.3437 224.677 19.8442L227.237 17.8807L231.335 21.2962L229.874 24.1727C230.555 25.1352 231.099 26.1747 231.489 27.2527L234.686 27.6762L235.175 32.9947L232.11 33.9902C231.918 35.1287 231.577 36.2452 231.077 37.3122L233.038 39.8752L229.621 43.9837L226.748 42.5207C225.787 43.2027 224.749 43.7417 223.672 44.1377L223.249 47.3387L217.937 47.8282L216.943 44.7592C215.806 44.5667 214.691 44.2257 213.619 43.7252L211.059 45.6887L206.961 42.2732L208.423 39.3967C207.741 38.4342 207.198 37.3947 206.808 36.3167L203.61 35.8932L203.122 30.5747L206.187 29.5792C206.379 28.4407 206.72 27.3242 207.22 26.2572L205.258 23.6942L208.67 19.5912L211.548 21.0487ZM214.905 27.9292C212.883 30.3602 213.213 33.9737 215.641 35.9977C218.069 38.0217 221.678 37.6917 223.7 35.2552C225.721 32.8242 225.392 29.2107 222.963 27.1867C220.535 25.1682 216.926 25.4982 214.905 27.9292Z" fill="#F5F5F5"/>
<path d="M260.615 28.5013C261.159 28.1108 261.752 27.8028 262.367 27.5828L262.609 25.7623L265.63 25.4873L266.196 27.2308C266.844 27.3408 267.476 27.5333 268.086 27.8193L269.541 26.7028L271.876 28.6443L271.047 30.2778C271.437 30.8223 271.744 31.4163 271.964 32.0323L273.782 32.2743L274.057 35.2993L272.316 35.8658C272.206 36.5093 272.013 37.1473 271.728 37.7578L272.843 39.2153L270.904 41.5528L269.272 40.7223C268.728 41.1128 268.135 41.4208 267.52 41.6408L267.273 43.4503L264.251 43.7253L263.686 41.9763C263.037 41.8663 262.406 41.6738 261.796 41.3878L260.34 42.5043L258.005 40.5628L258.835 38.9293C258.445 38.3793 258.137 37.7908 257.918 37.1748L256.099 36.9328L255.825 33.9078L257.571 33.3413C257.681 32.6978 257.874 32.0598 258.159 31.4493L257.044 29.9918L258.983 27.6543L260.615 28.5013ZM262.526 32.4118C261.378 33.7978 261.565 35.8493 262.944 36.9988C264.328 38.1483 266.377 37.9613 267.525 36.5808C268.673 35.1948 268.487 33.1433 267.102 31.9938C265.729 30.8443 263.675 31.0313 262.526 32.4118Z" fill="#F5F5F5"/>
<path d="M81.8232 115.583C82.7132 114.951 83.6745 114.45 84.6743 114.082L85.0643 111.117L89.9863 110.666L90.9092 113.51C91.9584 113.686 92.9967 114.005 93.9855 114.467L96.3531 112.646L100.154 115.814L98.7976 118.476C99.4294 119.367 99.9293 120.33 100.297 121.331L103.258 121.721L103.709 126.649L100.869 127.573C100.693 128.624 100.374 129.663 99.9128 130.653L101.731 133.024L98.5724 136.83L95.9136 135.471C95.0237 136.104 94.0624 136.604 93.0626 136.973L92.6726 139.937L87.7506 140.388L86.8277 137.545C85.7784 137.369 84.7402 137.05 83.7514 136.588L81.3838 138.408L77.5824 135.24L78.9392 132.578C78.3075 131.687 77.8076 130.725 77.4396 129.724L74.4787 129.333L74.0282 124.405L76.8683 123.481C77.044 122.431 77.3627 121.391 77.8241 120.401L76.0058 118.031L79.1645 114.225L81.8232 115.583ZM84.938 121.958C83.0647 124.213 83.3724 127.557 85.6246 129.432C87.8769 131.308 91.2168 131 93.0901 128.745C94.9633 126.49 94.6557 123.146 92.4034 121.27C90.1566 119.4 86.8112 119.708 84.938 121.958Z" fill="#E0E0E0"/>
<path d="M40.5189 75.9768H21.1164C19.776 75.9768 18.6884 74.8878 18.6884 73.5458V46.6673C18.6884 45.3253 19.776 44.2363 21.1164 44.2363H33.4215L42.9414 54.0648V73.5513C42.9414 74.8933 41.8592 75.9768 40.5189 75.9768Z" fill="#EBEBEB"/>
<path d="M39.7992 75.9772H21.836C20.1001 75.9772 18.6938 74.5692 18.6938 72.8312V66.3467H42.9469V72.8312C42.9414 74.5692 41.5351 75.9772 39.7992 75.9772Z" fill="#E0E0E0"/>
<path d="M27.2854 72.5614L27.8952 71.8299C28.1533 72.1764 28.439 72.3524 28.7741 72.3524C29.2136 72.3524 29.4443 72.0884 29.4443 71.5659V69.2999H27.7743V68.4199H30.532V71.4999C30.532 72.6769 29.9442 73.2489 28.8235 73.2489C28.1973 73.2544 27.6315 73.0069 27.2854 72.5614Z" fill="#FAFAFA"/>
<path d="M31.1967 72.8305L31.5482 72.0715C31.8723 72.2805 32.3667 72.4235 32.8172 72.4235C33.3061 72.4235 33.4874 72.297 33.4874 72.088C33.4874 71.4885 31.2845 72.099 31.2845 70.6415C31.2845 69.9485 31.9108 69.459 32.971 69.459C33.4709 69.459 34.0312 69.5745 34.3773 69.778L34.0257 70.5315C33.6687 70.328 33.3061 70.262 32.9765 70.262C32.5041 70.262 32.3008 70.4105 32.3008 70.603C32.3008 71.23 34.5036 70.625 34.5036 72.0605C34.5036 72.737 33.8719 73.221 32.7787 73.221C32.158 73.2265 31.5372 73.056 31.1967 72.8305Z" fill="#FAFAFA"/>
<path d="M23.8301 61.2918L24.5882 60.4008C25.0881 61.1103 25.7308 61.4898 26.4998 61.4898C27.5381 61.4898 28.0709 60.8573 28.0709 59.6253V54.4663H24.753V53.3223H29.3674V59.5593C29.3674 61.6053 28.3731 62.6173 26.4943 62.6173C25.4177 62.6173 24.4179 62.1443 23.8301 61.2918Z" fill="#FAFAFA"/>
<path d="M30.9879 61.7758L31.5098 60.7803C32.0976 61.1983 33.0424 61.5008 33.9488 61.5008C35.1134 61.5008 35.6023 61.1488 35.6023 60.5548C35.6023 58.9928 31.2076 60.3458 31.2076 57.5738C31.2076 56.3253 32.3228 55.4893 34.1026 55.4893C35.009 55.4893 36.0308 55.7258 36.6351 56.1218L36.0967 57.1173C35.465 56.7103 34.7728 56.5673 34.0916 56.5673C32.993 56.5673 32.4546 56.9743 32.4546 57.5243C32.4546 59.1633 36.8603 57.8268 36.8603 60.5328C36.8603 61.7923 35.7067 62.5953 33.8554 62.5953C32.7073 62.5898 31.5647 62.2378 30.9879 61.7758Z" fill="#FAFAFA"/>
<g opacity="0.3">
<path d="M33.4215 44.2363V51.8043C33.4215 53.0528 34.4323 54.0648 35.6793 54.0648H42.9469L33.4215 44.2363Z" fill="white"/>
</g>
<path d="M33.5204 52.4639C33.5204 52.4639 33.427 54.3009 35.509 54.9004C35.5859 54.9224 35.6683 54.9389 35.7452 54.9554C36.6956 55.1259 42.9415 56.2369 42.9415 56.0939C42.9415 55.9399 42.9415 54.0589 42.9415 54.0589H35.6793C35.6793 54.0644 33.8665 53.9984 33.5204 52.4639Z" fill="#E0E0E0"/>
<path d="M74.0996 60.3133H50.1322C48.4787 60.3133 47.1328 58.9713 47.1328 57.3103V24.0958C47.1328 22.4403 48.4732 21.0928 50.1322 21.0928H65.3322L77.0989 33.2368V57.3103C77.0935 58.9658 75.7531 60.3133 74.0996 60.3133Z" fill="#EBEBEB"/>
<path d="M73.5393 60.3131H50.6925C48.7259 60.3131 47.1328 58.7181 47.1328 56.7491V49.0931C47.1328 48.7191 47.4349 48.4111 47.814 48.4111H76.4178C76.7913 48.4111 77.0989 48.7136 77.0989 49.0931V56.7491C77.0935 58.7181 75.5004 60.3131 73.5393 60.3131Z" fill="#E0E0E0"/>
<g opacity="0.2">
<path d="M65.3323 21.0928V30.4428C65.3323 31.9828 66.5793 33.2368 68.1229 33.2368H77.099L65.3323 21.0928Z" fill="white"/>
</g>
<path d="M65.453 31.2627C65.453 31.2627 65.3377 33.5287 67.9141 34.2767C68.0129 34.3042 68.1118 34.3262 68.2107 34.3427C69.3808 34.5517 77.0989 35.9267 77.0989 35.7507C77.0989 35.5582 77.0989 33.2372 77.0989 33.2372H68.1173C68.1173 33.2372 65.876 33.1602 65.453 31.2627Z" fill="#E0E0E0"/>
<path d="M55.7079 53.5981C55.7079 52.1901 56.7846 51.1836 58.2403 51.1836C59.0478 51.1836 59.718 51.4751 60.1575 52.0086L59.4653 52.6466C59.1522 52.2891 58.7622 52.1021 58.2952 52.1021C57.4218 52.1021 56.8066 52.7126 56.8066 53.5926C56.8066 54.4726 57.4273 55.0831 58.2952 55.0831C58.7622 55.0831 59.1522 54.8961 59.4653 54.5276L60.1575 55.1656C59.718 55.7046 59.0478 55.9961 58.2348 55.9961C56.7901 56.0126 55.7079 55.0061 55.7079 53.5981Z" fill="#FAFAFA"/>
<path d="M60.4761 55.4677L60.8441 54.6537C61.2397 54.9397 61.8219 55.1377 62.3823 55.1377C63.0195 55.1377 63.2832 54.9232 63.2832 54.6372C63.2832 53.7627 60.575 54.3622 60.575 52.6297C60.575 51.8377 61.2122 51.1777 62.5361 51.1777C63.1239 51.1777 63.7226 51.3152 64.1511 51.5902L63.816 52.4097C63.382 52.1622 62.9371 52.0412 62.5251 52.0412C61.8879 52.0412 61.6407 52.2832 61.6407 52.5747C61.6407 53.4327 64.3489 52.8442 64.3489 54.5547C64.3489 55.3357 63.7007 56.0012 62.3713 56.0012C61.6297 56.0122 60.8881 55.7922 60.4761 55.4677Z" fill="#FAFAFA"/>
<path d="M64.7169 55.4677L65.085 54.6537C65.4805 54.9397 66.0628 55.1377 66.6231 55.1377C67.2603 55.1377 67.524 54.9232 67.524 54.6372C67.524 53.7627 64.8158 54.3622 64.8158 52.6297C64.8158 51.8377 65.453 51.1777 66.7824 51.1777C67.3702 51.1777 67.969 51.3152 68.4029 51.5902L68.0679 52.4097C67.6339 52.1622 67.1889 52.0412 66.7769 52.0412C66.1397 52.0412 65.8925 52.2832 65.8925 52.5747C65.8925 53.4327 68.6007 52.8442 68.6007 54.5547C68.6007 55.3357 67.9525 56.0012 66.6231 56.0012C65.876 56.0122 65.1344 55.7922 64.7169 55.4677Z" fill="#FAFAFA"/>
<path d="M57.2295 38.4951C57.7239 38.6436 57.9492 38.9571 57.9492 39.6941V41.4101C57.9492 41.9161 58.2074 42.2021 58.7292 42.2021H58.9215V43.5111H58.3007C56.9604 43.5111 56.2792 42.8236 56.2792 41.5916V39.6556C56.2792 39.3146 56.0979 39.1496 55.8068 39.1496H55.4552V37.8406H55.8068C56.0979 37.8406 56.2792 37.6811 56.2792 37.3346V35.3931C56.2792 34.1611 56.9659 33.4736 58.3007 33.4736H58.9215V34.7826H58.7292C58.2074 34.7826 57.9492 35.0741 57.9492 35.5746V37.2906C57.9492 38.0386 57.7239 38.3466 57.2295 38.4951Z" fill="#FAFAFA"/>
<path d="M68.771 37.8462V39.1552H68.4194C68.1283 39.1552 67.947 39.3147 67.947 39.6612V41.6027C67.947 42.8347 67.2603 43.5222 65.9254 43.5222H65.3047V42.2132H65.497C66.0188 42.2132 66.277 41.9217 66.277 41.4212V39.7052C66.277 38.9682 66.5022 38.6547 66.9966 38.5062C66.5022 38.3577 66.277 38.0442 66.277 37.3072V35.5912C66.277 35.0852 66.0188 34.7992 65.497 34.7992H65.3047V33.4902H65.9254C67.2658 33.4902 67.947 34.1777 67.947 35.4097V37.3512C67.947 37.6922 68.1283 37.8572 68.4194 37.8572H68.771V37.8462Z" fill="#FAFAFA"/>
<path d="M397.542 254.347C397.542 254.424 311.78 254.49 206.011 254.49C100.204 254.49 14.4585 254.424 14.4585 254.347C14.4585 254.27 100.204 254.204 206.011 254.204C311.78 254.204 397.542 254.27 397.542 254.347Z" fill="#263238"/>
<path d="M281.22 205.793H94.0623C91.2827 205.793 89.0359 203.538 89.0359 200.761V74.5411C89.0359 71.5931 91.42 69.2061 94.3644 69.2061H282.692C285.637 69.2061 288.021 71.5931 288.021 74.5411V198.99C288.015 202.746 284.978 205.793 281.22 205.793Z" fill="#263238"/>
<path d="M128.472 88.7969H114.437V91.8604H128.472V88.7969Z" fill="#455A64"/>
<path d="M121.452 102.52H114.437V105.583H121.452V102.52Z" fill="#FDD522"/>
<path d="M129.599 109.422H119.716V112.485H129.599V109.422Z" fill="#455A64"/>
<path d="M136.927 109.422H131.17V112.485H136.927V109.422Z" fill="#455A64"/>
<path d="M188.542 109.422H176.704V112.485H188.542V109.422Z" fill="#455A64"/>
<path d="M223.15 116.148H203.149V119.212H223.15V116.148Z" fill="#455A64"/>
<path d="M254.012 109.422H244.404V112.485H254.012V109.422Z" fill="#455A64"/>
<path d="M276.271 109.422H256.956V112.485H276.271V109.422Z" fill="#455A64"/>
<path d="M129.599 116.148H119.716V119.212H129.599V116.148Z" fill="#455A64"/>
<path d="M123.528 122.858H113.646V125.922H123.528V122.858Z" fill="#FDD522"/>
<path d="M123.523 129.574H118.909V132.638H123.523V129.574Z" fill="#455A64"/>
<path d="M140.47 143.709H135.856V146.772H140.47V143.709Z" fill="#455A64"/>
<path d="M208.379 169.257H199.359V172.32H208.379V169.257Z" fill="#455A64"/>
<path d="M258.774 169.257H236.675V172.32H258.774V169.257Z" fill="#455A64"/>
<path d="M174.419 162.552H165.399V165.615H174.419V162.552Z" fill="#E0E0E0"/>
<path d="M141.739 156.793H132.719V159.856H141.739V156.793Z" fill="#455A64"/>
<path d="M197.491 169.257H183.269V172.32H197.491V169.257Z" fill="#455A64"/>
<path d="M126.402 136.41H118.909V139.474H126.402V136.41Z" fill="#455A64"/>
<path d="M132.807 143.824H118.909V146.888H132.807V143.824Z" fill="#455A64"/>
<path d="M139.24 149.506H118.909V152.569H139.24V149.506Z" fill="#455A64"/>
<path d="M176.078 149.506H155.747V152.569H176.078V149.506Z" fill="#455A64"/>
<path d="M161.086 162.552H132.538V165.615H161.086V162.552Z" fill="#455A64"/>
<path d="M180.824 169.257H132.538V172.32H180.824V169.257Z" fill="#455A64"/>
<path d="M166.217 175.961H117.931V179.024H166.217V175.961Z" fill="#455A64"/>
<path d="M153.583 149.506H141.387V152.569H153.583V149.506Z" fill="#455A64"/>
<path d="M137.932 129.574H125.347V132.638H137.932V129.574Z" fill="#455A64"/>
<path d="M140.706 136.41H128.121V139.474H140.706V136.41Z" fill="#455A64"/>
<path d="M189.471 136.41H156.142V139.474H189.471V136.41Z" fill="#455A64"/>
<path d="M228.869 136.41H190.377V139.474H228.869V136.41Z" fill="#455A64"/>
<path d="M153.193 136.41H142.777V139.474H153.193V136.41Z" fill="#455A64"/>
<path d="M156.153 129.574H139.657V132.638H156.153V129.574Z" fill="#455A64"/>
<path d="M167.162 129.574H157.977V132.638H167.162V129.574Z" fill="#E0E0E0"/>
<path d="M141.47 116.148H131.17V119.212H141.47V116.148Z" fill="#455A64"/>
<path d="M199.331 116.148H148.468V119.212H199.331V116.148Z" fill="#455A64"/>
<path d="M256.429 136.41H232.379V139.474H256.429V136.41Z" fill="#455A64"/>
<path d="M234.774 169.257H210.724V172.32H234.774V169.257Z" fill="#455A64"/>
<path d="M240.663 109.422H190.558V112.485H240.663V109.422Z" fill="#455A64"/>
<path d="M173.589 109.422H138.723V112.485H173.589V109.422Z" fill="#455A64"/>
<path d="M137.91 95.292H114.437V98.3555H137.91V95.292Z" fill="#455A64"/>
<path d="M172.392 95.292H140.25V98.3555H172.392V95.292Z" fill="#455A64"/>
<path d="M140.992 88.7969H130.659V91.8604H140.992V88.7969Z" fill="#E0E0E0"/>
<path d="M103.725 88.7969H100.759V91.8604H103.725V88.7969Z" fill="#455A64"/>
<path d="M103.725 95.501H100.759V98.5645H103.725V95.501Z" fill="#455A64"/>
<path d="M103.725 102.206H100.759V105.27H103.725V102.206Z" fill="#455A64"/>
<path d="M103.725 108.91H100.759V111.974H103.725V108.91Z" fill="#455A64"/>
<path d="M103.725 115.615H100.759V118.679H103.725V115.615Z" fill="#455A64"/>
<path d="M103.725 122.319H100.759V125.383H103.725V122.319Z" fill="#455A64"/>
<path d="M103.725 129.023H100.759V132.087H103.725V129.023Z" fill="#455A64"/>
<path d="M103.725 135.729H100.759V138.792H103.725V135.729Z" fill="#455A64"/>
<path d="M103.725 142.433H100.759V145.496H103.725V142.433Z" fill="#455A64"/>
<path d="M139.338 190.442H134.724V193.506H139.338V190.442Z" fill="#E0E0E0"/>
<path d="M131.917 190.442H118.019V193.506H131.917V190.442Z" fill="#FDD522"/>
<path d="M103.725 190.102H100.759V193.165H103.725V190.102Z" fill="#455A64"/>
<path d="M103.725 149.138H100.759V152.201H103.725V149.138Z" fill="#455A64"/>
<path d="M103.725 155.842H100.759V158.905H103.725V155.842Z" fill="#455A64"/>
<path d="M103.725 162.552H100.759V165.615H103.725V162.552Z" fill="#455A64"/>
<path d="M103.725 169.257H100.759V172.32H103.725V169.257Z" fill="#455A64"/>
<path d="M103.725 175.961H100.759V179.024H103.725V175.961Z" fill="#455A64"/>
<path d="M132.01 183.018H117.931V186.081H132.01V183.018Z" fill="#455A64"/>
<path d="M166.569 183.018H134.724V186.081H166.569V183.018Z" fill="#455A64"/>
<path d="M103.725 183.018H100.759V186.081H103.725V183.018Z" fill="#455A64"/>
<path d="M186.652 95.2705H176.319V98.334H186.652V95.2705Z" fill="#E0E0E0"/>
<path d="M100.138 80.1456C101.3 80.1456 102.242 79.2025 102.242 78.0391C102.242 76.8757 101.3 75.9326 100.138 75.9326C98.9759 75.9326 98.0339 76.8757 98.0339 78.0391C98.0339 79.2025 98.9759 80.1456 100.138 80.1456Z" fill="#455A64"/>
<path d="M105.972 80.1456C107.134 80.1456 108.076 79.2025 108.076 78.0391C108.076 76.8757 107.134 75.9326 105.972 75.9326C104.81 75.9326 103.868 76.8757 103.868 78.0391C103.868 79.2025 104.81 80.1456 105.972 80.1456Z" fill="#455A64"/>
<path d="M111.806 80.1456C112.968 80.1456 113.91 79.2025 113.91 78.0391C113.91 76.8757 112.968 75.9326 111.806 75.9326C110.644 75.9326 109.702 76.8757 109.702 78.0391C109.702 79.2025 110.644 80.1456 111.806 80.1456Z" fill="#455A64"/>
<g opacity="0.3">
<path d="M270.536 198.588H195.612C193.415 198.588 191.635 196.806 191.635 194.606V155.011C191.635 152.811 193.415 151.029 195.612 151.029H270.536C272.733 151.029 274.513 152.811 274.513 155.011V194.606C274.513 196.806 272.733 198.588 270.536 198.588Z" fill="black"/>
</g>
<path d="M277.919 193.506H199.93C198.584 193.506 197.491 192.412 197.491 191.064V148.401C197.491 147.053 198.584 145.959 199.93 145.959H277.919C279.264 145.959 280.358 147.053 280.358 148.401V191.064C280.363 192.412 279.27 193.506 277.919 193.506Z" fill="#FDD522"/>
<path d="M229.962 175.543H222.398L220.991 179.024H215.828L223.727 161.105H228.709L236.636 179.024H231.368L229.962 175.543ZM228.479 171.808L226.177 166.077L223.875 171.808H228.479Z" fill="white"/>
<path d="M250.463 161.914C251.655 162.453 252.578 163.218 253.226 164.219C253.874 165.22 254.198 166.391 254.198 167.739C254.198 169.086 253.874 170.258 253.226 171.248C252.578 172.238 251.661 173.002 250.463 173.541C249.271 174.08 247.865 174.35 246.244 174.35H243.124V179.036H238.065V161.117H246.244C247.865 161.106 249.271 161.375 250.463 161.914ZM248.288 169.669C248.815 169.218 249.079 168.575 249.079 167.739C249.079 166.903 248.815 166.254 248.288 165.792C247.76 165.33 246.975 165.099 245.937 165.099H243.124V170.346H245.937C246.975 170.346 247.76 170.12 248.288 169.669Z" fill="white"/>
<path d="M256.648 161.105H261.708V179.024H256.648V161.105Z" fill="white"/>
<path d="M108.96 87.9229C109.037 87.9229 109.103 114.301 109.103 146.828C109.103 179.366 109.037 205.738 108.96 205.738C108.883 205.738 108.817 179.366 108.817 146.828C108.817 114.295 108.878 87.9229 108.96 87.9229Z" fill="#455A64"/>
<path d="M172.161 215.056C172.166 215.056 172.172 215.133 172.177 215.287C172.183 215.457 172.183 215.683 172.194 215.974C172.199 216.59 172.21 217.476 172.221 218.614C172.232 220.919 172.249 224.23 172.265 228.316C172.271 230.368 172.276 232.606 172.282 235.015C172.282 235.615 172.282 236.231 172.287 236.852C172.276 237.474 172.32 238.101 172.249 238.761C172.101 240.07 171.375 241.346 170.244 242.16C169.683 242.567 169.03 242.869 168.332 243.012C167.623 243.161 166.915 243.1 166.212 243.117C164.794 243.117 163.35 243.117 161.877 243.122C158.933 243.122 155.89 243.122 152.769 243.128C140.289 243.111 128.994 243.095 120.798 243.084C116.717 243.067 113.41 243.051 111.108 243.04C109.976 243.029 109.092 243.018 108.471 243.012C108.18 243.007 107.955 243.001 107.785 242.996C107.631 242.99 107.554 242.985 107.554 242.979C107.554 242.974 107.631 242.968 107.785 242.963C107.949 242.957 108.18 242.957 108.471 242.946C109.086 242.941 109.971 242.93 111.108 242.919C113.41 242.908 116.717 242.891 120.798 242.875C128.994 242.864 140.289 242.847 152.769 242.831C155.89 242.831 158.938 242.831 161.877 242.836C163.35 242.836 164.794 242.836 166.212 242.842C166.92 242.831 167.623 242.886 168.277 242.748C168.936 242.616 169.557 242.336 170.09 241.945C171.161 241.175 171.853 239.971 171.996 238.728C172.062 238.112 172.029 237.468 172.04 236.852C172.04 236.231 172.04 235.62 172.046 235.015C172.051 232.606 172.057 230.368 172.062 228.316C172.079 224.23 172.095 220.919 172.106 218.614C172.117 217.481 172.128 216.596 172.133 215.974C172.139 215.683 172.144 215.457 172.15 215.287C172.15 215.133 172.155 215.056 172.161 215.056Z" fill="#FDD522"/>
<path d="M174.073 213.136C174.073 214.198 173.216 215.056 172.155 215.056C171.095 215.056 170.238 214.198 170.238 213.136C170.238 212.075 171.095 211.217 172.155 211.217C173.216 211.217 174.073 212.075 174.073 213.136Z" fill="#FDD522"/>
<path d="M109.526 242.671C109.526 243.733 108.669 244.591 107.609 244.591C106.549 244.591 105.692 243.733 105.692 242.671C105.692 241.61 106.549 240.752 107.609 240.752C108.669 240.752 109.526 241.61 109.526 242.671Z" fill="#FDD522"/>
<path d="M326.425 198.061C326.425 199.54 325.227 200.734 323.755 200.734C322.277 200.734 321.085 199.535 321.085 198.061C321.085 196.581 322.283 195.388 323.755 195.388C325.227 195.388 326.425 196.587 326.425 198.061Z" fill="#FDD522"/>
<path d="M339.384 186.202C339.384 187.682 338.186 188.875 336.714 188.875C335.236 188.875 334.044 187.676 334.044 186.202C334.044 184.723 335.242 183.529 336.714 183.529C338.186 183.524 339.384 184.723 339.384 186.202Z" fill="#FDD522"/>
<path d="M326.683 174.339C326.683 175.819 325.486 177.012 324.013 177.012C322.536 177.012 321.344 175.813 321.344 174.339C321.344 172.86 322.541 171.666 324.013 171.666C325.486 171.666 326.683 172.86 326.683 174.339Z" fill="#FDD522"/>
<path d="M336.34 186.203C336.34 186.28 325.93 186.346 313.093 186.346C300.249 186.346 289.845 186.28 289.845 186.203C289.845 186.126 300.255 186.06 313.093 186.06C325.93 186.06 336.34 186.12 336.34 186.203Z" fill="#FDD522"/>
<path d="M323.75 199.282C323.673 199.282 323.607 193.809 323.607 187.061C323.607 180.312 323.673 174.84 323.75 174.84C323.827 174.84 323.892 180.312 323.892 187.061C323.892 193.809 323.832 199.282 323.75 199.282Z" fill="#FDD522"/>
<path d="M188.361 76.4833H148.095C145.551 76.4833 143.491 74.4208 143.491 71.8743V48.3453C143.491 45.7988 145.551 43.7363 148.095 43.7363H188.361C190.904 43.7363 192.964 45.7988 192.964 48.3453V71.8743C192.964 74.4208 190.899 76.4833 188.361 76.4833Z" fill="#28A197"/>
<g opacity="0.3">
<path d="M188.361 76.4833H148.095C145.551 76.4833 143.491 74.4208 143.491 71.8743V48.3453C143.491 45.7988 145.551 43.7363 148.095 43.7363H188.361C190.904 43.7363 192.964 45.7988 192.964 48.3453V71.8743C192.964 74.4208 190.899 76.4833 188.361 76.4833Z" fill="black"/>
</g>
<path d="M185.037 76.4833H144.777C142.233 76.4833 140.173 74.4208 140.173 71.8743V48.3453C140.173 45.7988 142.233 43.7363 144.777 43.7363H185.037C187.581 43.7363 189.641 45.7988 189.641 48.3453V71.8743C189.641 74.4208 187.581 76.4833 185.037 76.4833Z" fill="#28A197"/>
<path d="M159.559 58.2671L152.819 60.6596L159.559 63.0521V66.1431L149.138 62.2931V59.0316L159.559 55.1816V58.2671Z" fill="white"/>
<path d="M166.981 50.248H170.551L163.575 70.1855H160.004L166.981 50.248Z" fill="white"/>
<path d="M181.203 59.0313V62.2928L170.782 66.1428V63.0518L177.523 60.6593L170.782 58.2668V55.1758L181.203 59.0313Z" fill="white"/>
<path d="M237.361 55.4237C239.02 54.4172 240.789 53.6582 242.613 53.1412L243.695 47.9382L252.479 47.7842L253.743 52.9487C255.583 53.4052 257.379 54.1037 259.071 55.0497L261.51 52.1347H263.51L269.827 58.2452L267.075 62.7882C268.08 64.4492 268.838 66.2202 269.355 68.0462L274.551 69.1297L274.705 77.9242L269.547 79.1892C269.091 81.0317 268.393 82.8247 267.448 84.5242L270.36 88.9682L264.257 95.2932H262.257L259.719 92.5377C258.06 93.5442 256.291 94.3032 254.468 94.8202L253.385 100.023L244.602 100.177L243.338 95.0127C241.498 94.5562 239.707 93.8577 238.01 92.9117L233.571 95.8267H231.571L227.254 89.7162L230.006 85.1732C229.001 83.5122 228.242 81.7412 227.726 79.9152L222.529 78.8317L222.376 70.0372L227.534 68.7722C227.99 66.9297 228.687 65.1367 229.632 63.4372L226.721 58.9932L230.819 52.6682H232.818L237.361 55.4237ZM242.047 67.1387C238.433 70.8897 238.537 76.8572 242.283 80.4762C246.03 84.0952 251.99 83.9907 255.605 80.2397C259.219 76.4887 259.115 70.5212 255.369 66.9022C251.628 63.2832 245.662 63.3877 242.047 67.1387Z" fill="#E0E0E0"/>
<g opacity="0.3">
<path d="M237.361 55.4237C239.02 54.4172 240.789 53.6582 242.613 53.1412L243.695 47.9382L252.479 47.7842L253.743 52.9487C255.583 53.4052 257.379 54.1037 259.071 55.0497L261.51 52.1347H263.51L269.827 58.2452L267.075 62.7882C268.08 64.4492 268.838 66.2202 269.355 68.0462L274.551 69.1297L274.705 77.9242L269.547 79.1892C269.091 81.0317 268.393 82.8247 267.448 84.5242L270.36 88.9682L264.257 95.2932H262.257L259.719 92.5377C258.06 93.5442 256.291 94.3032 254.468 94.8202L253.385 100.023L244.602 100.177L243.338 95.0127C241.498 94.5562 239.707 93.8577 238.01 92.9117L233.571 95.8267H231.571L227.254 89.7162L230.006 85.1732C229.001 83.5122 228.242 81.7412 227.726 79.9152L222.529 78.8317L222.376 70.0372L227.534 68.7722C227.99 66.9297 228.687 65.1367 229.632 63.4372L226.721 58.9932L230.819 52.6682H232.818L237.361 55.4237ZM242.047 67.1387C238.433 70.8897 238.537 76.8572 242.283 80.4762C246.03 84.0952 251.99 83.9907 255.605 80.2397C259.219 76.4887 259.115 70.5212 255.369 66.9022C251.628 63.2832 245.662 63.3877 242.047 67.1387Z" fill="black"/>
</g>
<path d="M235.362 55.4237C237.021 54.4172 238.79 53.6582 240.614 53.1412L241.696 47.9382L250.48 47.7842L251.743 52.9487C253.583 53.4052 255.38 54.1037 257.072 55.0497L261.51 52.1347L267.828 58.2452L265.075 62.7882C266.081 64.4492 266.839 66.2202 267.355 68.0462L272.552 69.1297L272.706 77.9242L267.547 79.1892C267.091 81.0317 266.394 82.8247 265.449 84.5242L268.36 88.9682L262.257 95.2932L257.72 92.5377C256.061 93.5442 254.292 94.3032 252.468 94.8202L251.386 100.023L242.602 100.177L241.339 95.0127C239.498 94.5562 237.708 93.8577 236.01 92.9117L231.572 95.8267L225.254 89.7162L228.006 85.1732C227.001 83.5122 226.243 81.7412 225.721 79.9152L220.524 78.8317L220.371 70.0372L225.529 68.7722C225.985 66.9297 226.682 65.1367 227.627 63.4372L224.716 58.9932L230.819 52.6682L235.362 55.4237ZM240.042 67.1387C236.428 70.8897 236.532 76.8572 240.278 80.4762C244.025 84.0952 249.985 83.9907 253.6 80.2397C257.214 76.4887 257.11 70.5212 253.364 66.9022C249.623 63.2832 243.657 63.3877 240.042 67.1387Z" fill="#E0E0E0"/>
<path d="M390.576 160.501H307.242C304.182 160.501 301.699 158.015 301.699 154.951V36.0798C301.699 33.0163 304.182 30.5303 307.242 30.5303H390.576C393.636 30.5303 396.119 33.0163 396.119 36.0798V154.951C396.119 158.015 393.641 160.501 390.576 160.501Z" fill="white"/>
<path d="M360.385 102.218H337.433V121.396H360.385V102.218Z" fill="#E0E0E0"/>
<path d="M389.422 102.46H366.471V121.638H389.422V102.46Z" fill="#E0E0E0"/>
<path d="M331.352 102.46H308.401V121.638H331.352V102.46Z" fill="#E0E0E0"/>
<path d="M396.119 58.1348H301.699V93.1863H396.119V58.1348Z" fill="#E0E0E0"/>
<path d="M396.119 43.5054H301.699V35.6294C301.699 32.8134 303.979 30.5254 306.797 30.5254H390.406C393.564 30.5254 396.119 33.0884 396.119 36.2454V43.5054Z" fill="#E0E0E0"/>
<path d="M314.823 50.8201C314.823 53.0916 312.983 54.9341 310.714 54.9341C308.445 54.9341 306.605 53.0916 306.605 50.8201C306.605 48.5486 308.445 46.7061 310.714 46.7061C312.983 46.7061 314.823 48.5486 314.823 50.8201Z" fill="#28A197"/>
<path d="M351.76 48.9941H336.659V52.5196H351.76V48.9941Z" fill="#E0E0E0"/>
<path d="M370.586 48.9941H355.484V52.5196H370.586V48.9941Z" fill="#E0E0E0"/>
<path d="M389.406 48.9941H374.305V52.5196H389.406V48.9941Z" fill="#E0E0E0"/>
<path d="M331.352 128.123H308.401V131.192H331.352V128.123Z" fill="#E0E0E0"/>
<path d="M331.352 134.827H308.401V137.896H331.352V134.827Z" fill="#E0E0E0"/>
<path d="M320.827 141.531H308.401V144.6H320.827V141.531Z" fill="#E0E0E0"/>
<path d="M360.852 128.123H337.9V131.192H360.852V128.123Z" fill="#E0E0E0"/>
<path d="M360.852 134.827H337.9V137.896H360.852V134.827Z" fill="#E0E0E0"/>
<path d="M350.326 141.531H337.9V144.6H350.326V141.531Z" fill="#E0E0E0"/>
<path d="M390.356 128.123H367.405V131.192H390.356V128.123Z" fill="#E0E0E0"/>
<path d="M390.356 134.827H367.405V137.896H390.356V134.827Z" fill="#E0E0E0"/>
<path d="M379.831 141.531H367.405V144.6H379.831V141.531Z" fill="#E0E0E0"/>
<path d="M390.576 160.501C390.576 160.501 390.669 160.49 390.862 160.479C391.054 160.479 391.334 160.435 391.702 160.369C392.416 160.21 393.531 159.83 394.548 158.774C395.048 158.252 395.509 157.553 395.795 156.701C396.119 155.848 396.08 154.853 396.075 153.78C396.069 151.641 396.069 149.171 396.064 146.388C396.053 135.267 396.036 119.174 396.02 99.2972C396.014 89.3532 396.009 78.4687 396.003 66.7757C396.003 60.9292 395.998 54.8847 395.998 48.6587C395.998 45.5457 395.998 42.3887 395.992 39.1822C395.992 38.3792 395.992 37.5762 395.992 36.7732C396.003 35.9592 395.992 35.1727 395.734 34.4137C395.251 32.9067 394.075 31.6142 392.576 31.0312C391.828 30.7287 391.026 30.6297 390.208 30.6462C389.384 30.6462 388.554 30.6462 387.725 30.6462C386.066 30.6462 384.39 30.6462 382.715 30.6462C379.353 30.6462 375.953 30.6462 372.519 30.6462C365.647 30.6462 358.632 30.6462 351.491 30.6517C337.203 30.6517 322.415 30.6517 307.264 30.6572C306.341 30.6682 305.418 30.8937 304.616 31.3447C303.82 31.8012 303.122 32.4502 302.655 33.2367C302.166 34.0177 301.897 34.9197 301.864 35.8382C301.842 36.7677 301.859 37.7137 301.853 38.6487C301.853 42.3942 301.853 46.1177 301.853 49.8082C301.853 57.1947 301.853 64.4767 301.853 71.6322C301.848 85.9377 301.848 99.7372 301.842 112.882C301.837 126.027 301.831 138.518 301.831 150.211C301.831 151.674 301.831 153.12 301.831 154.556C301.765 155.975 302.205 157.383 303.111 158.439C303.996 159.495 305.286 160.193 306.638 160.336C307.308 160.402 308.006 160.364 308.687 160.375C309.374 160.375 310.055 160.375 310.73 160.375C316.152 160.38 321.349 160.38 326.315 160.386C346.173 160.402 362.241 160.419 373.349 160.43C378.897 160.441 383.209 160.452 386.137 160.457C387.599 160.463 388.708 160.468 389.461 160.474C390.197 160.49 390.576 160.501 390.576 160.501C390.576 160.501 390.191 160.512 389.444 160.518C388.692 160.523 387.577 160.523 386.121 160.534C383.193 160.54 378.886 160.551 373.332 160.562C362.225 160.573 346.157 160.589 326.298 160.606C321.332 160.611 316.13 160.611 310.714 160.617C310.038 160.617 309.357 160.617 308.67 160.617C307.984 160.606 307.303 160.644 306.594 160.578C305.188 160.43 303.842 159.709 302.919 158.604C301.974 157.509 301.513 156.019 301.584 154.572C301.584 153.137 301.584 151.685 301.584 150.227C301.578 138.534 301.573 126.044 301.573 112.899C301.573 99.7537 301.567 85.9542 301.562 71.6487C301.562 64.4932 301.562 57.2167 301.562 49.8247C301.562 46.1287 301.562 42.4107 301.562 38.6652C301.567 37.7247 301.551 36.7952 301.573 35.8437C301.606 34.8812 301.892 33.9242 302.408 33.1047C302.902 32.2742 303.633 31.5922 304.473 31.1137C305.319 30.6407 306.292 30.3932 307.259 30.3877C322.409 30.3877 337.197 30.3877 351.485 30.3932C358.627 30.3932 365.647 30.3932 372.514 30.3987C375.947 30.3987 379.348 30.3987 382.71 30.3987C384.39 30.3987 386.06 30.3987 387.719 30.3987C388.549 30.3987 389.378 30.3987 390.202 30.3987C391.026 30.3822 391.894 30.4867 392.669 30.8057C394.24 31.4162 395.471 32.7692 395.976 34.3532C396.251 35.1397 396.262 35.9977 396.245 36.7897C396.245 37.5982 396.245 38.4012 396.245 39.1987C396.245 42.3997 396.245 45.5622 396.24 48.6752C396.24 54.9012 396.234 60.9457 396.234 66.7922C396.229 78.4797 396.223 89.3697 396.218 99.3137C396.201 119.196 396.185 135.284 396.174 146.405C396.168 149.182 396.163 151.652 396.163 153.797C396.152 154.33 396.179 154.842 396.141 155.342C396.113 155.837 396.009 156.305 395.866 156.739C395.569 157.603 395.102 158.301 394.592 158.829C393.553 159.891 392.433 160.259 391.708 160.413C391.334 160.474 391.054 160.512 390.867 160.507C390.675 160.501 390.576 160.501 390.576 160.501Z" fill="#263238"/>
<path d="M310.923 37.697C310.923 38.566 310.22 39.27 309.352 39.27C308.484 39.27 307.781 38.566 307.781 37.697C307.781 36.828 308.484 36.124 309.352 36.124C310.22 36.124 310.923 36.828 310.923 37.697Z" fill="white"/>
<path d="M315.9 37.697C315.9 38.566 315.196 39.27 314.329 39.27C313.461 39.27 312.757 38.566 312.757 37.697C312.757 36.828 313.461 36.124 314.329 36.124C315.191 36.124 315.9 36.828 315.9 37.697Z" fill="white"/>
<path d="M320.871 37.697C320.871 38.566 320.168 39.27 319.3 39.27C318.432 39.27 317.729 38.566 317.729 37.697C317.729 36.828 318.432 36.124 319.3 36.124C320.168 36.124 320.871 36.828 320.871 37.697Z" fill="white"/>
<path d="M342.372 76.3787V68.6952C342.372 67.2542 343.976 66.3522 345.261 67.0727L352.106 70.9117L358.951 74.7507C360.236 75.4712 360.236 77.2752 358.951 77.9957L352.106 81.8347L345.261 85.6737C343.976 86.3942 342.372 85.4922 342.372 84.0512V76.3787Z" fill="white"/>
<path d="M387.56 254.348L351.31 254.188C346.948 254.172 343.432 250.817 343.449 246.703L343.833 160.919C343.85 156.8 347.404 153.478 351.766 153.494L388.016 153.654C392.378 153.67 395.894 157.025 395.877 161.139L395.493 246.928C395.476 251.042 391.927 254.37 387.56 254.348Z" fill="#263238"/>
<path d="M387.967 156.619L380.935 156.586L360.407 156.498L357.935 156.487L351.782 156.459C348.728 156.448 346.239 158.775 346.228 161.657L345.855 245.389C345.844 248.271 348.305 250.619 351.359 250.63L387.538 250.79C390.592 250.801 393.081 248.474 393.092 245.592L393.465 161.86C393.487 158.978 391.021 156.63 387.967 156.619Z" fill="white"/>
<path d="M388.28 164.406C388.28 164.648 388.077 164.84 387.829 164.84C387.582 164.84 387.384 164.642 387.384 164.4C387.384 164.158 387.588 163.966 387.835 163.966C388.082 163.971 388.28 164.169 388.28 164.406Z" fill="#263238"/>
<path d="M388.274 165.973C388.274 166.215 388.071 166.408 387.824 166.408C387.577 166.408 387.379 166.21 387.379 165.968C387.379 165.726 387.582 165.533 387.829 165.533C388.071 165.539 388.274 165.737 388.274 165.973Z" fill="#263238"/>
<path d="M388.269 167.541C388.269 167.783 388.066 167.975 387.818 167.975C387.571 167.975 387.368 167.777 387.373 167.535C387.373 167.293 387.577 167.101 387.824 167.101C388.066 167.106 388.269 167.304 388.269 167.541Z" fill="#263238"/>
<path d="M357.534 166.408C357.534 167.997 356.21 169.284 354.573 169.284C352.936 169.284 351.612 167.997 351.612 166.408C351.612 164.818 352.936 163.531 354.573 163.531C356.21 163.531 357.534 164.818 357.534 166.408Z" fill="#28A197"/>
<path d="M379.529 166.963H364.351C363.807 166.963 363.362 166.523 363.362 165.973C363.362 165.429 363.802 164.983 364.351 164.983H379.529C380.073 164.983 380.518 165.423 380.518 165.973C380.518 166.518 380.073 166.963 379.529 166.963Z" fill="#E0E0E0"/>
<path d="M360.753 203.627V195.123C360.753 193.528 362.533 192.527 363.955 193.325L371.531 197.577L379.106 201.828C380.529 202.625 380.529 204.622 379.106 205.419L371.531 209.671L363.955 213.923C362.533 214.72 360.753 213.724 360.753 212.124V203.627Z" fill="#28A197"/>
<path d="M280.682 240.614C283.895 235.493 289.339 234.3 294.283 235.427C293.525 228.14 296.799 220.555 302.622 216.117C308.445 211.678 316.619 210.54 323.431 213.213C330.248 215.886 335.467 222.282 336.73 229.498C341.856 225.863 349.546 228.321 353.304 233.365C357.061 238.403 357.292 249.172 352.886 254.237L281.912 253.83C281.912 253.83 276.507 247.252 280.682 240.614Z" fill="#28A197"/>
<g opacity="0.3">
<path d="M280.682 240.614C283.895 235.493 289.339 234.3 294.283 235.427C293.525 228.14 296.799 220.555 302.622 216.117C308.445 211.678 316.619 210.54 323.431 213.213C330.248 215.886 335.467 222.282 336.73 229.498C341.856 225.863 349.546 228.321 353.304 233.365C357.061 238.403 357.292 249.172 352.886 254.237L281.912 253.83C281.912 253.83 276.507 247.252 280.682 240.614Z" fill="black"/>
</g>
<path d="M274.584 240.614C277.803 235.493 283.242 234.3 288.186 235.427C287.428 228.14 290.702 220.555 296.525 216.117C302.348 211.678 310.522 210.54 317.333 213.213C324.151 215.886 329.369 222.282 330.633 229.498C335.758 225.863 343.449 228.321 347.206 233.365C350.964 238.403 351.194 249.172 346.789 254.237L275.815 253.83C275.815 253.83 270.409 247.252 274.584 240.614Z" fill="#28A197"/>
<path d="M97.221 254.354H27.2139C26.0384 254.354 25.088 253.402 25.088 252.225V185.406C25.088 184.229 26.0384 183.277 27.2139 183.277H97.221C98.3965 183.277 99.3469 184.229 99.3469 185.406V252.225C99.3469 253.397 98.3965 254.354 97.221 254.354Z" fill="#E0E0E0"/>
<path d="M99.4787 205.965C99.4787 206.042 82.8944 206.108 62.4372 206.108C41.9745 206.108 25.3901 206.042 25.3901 205.965C25.3901 205.888 41.9745 205.822 62.4372 205.822C82.8889 205.822 99.4787 205.883 99.4787 205.965Z" fill="#263238"/>
<path d="M99.4787 228.785C99.4787 228.862 82.8944 228.928 62.4372 228.928C41.9745 228.928 25.3901 228.862 25.3901 228.785C25.3901 228.708 41.9745 228.642 62.4372 228.642C82.8889 228.642 99.4787 228.702 99.4787 228.785Z" fill="#263238"/>
<path d="M38.5906 196.89C39.4826 196.89 40.2057 196.166 40.2057 195.273C40.2057 194.38 39.4826 193.656 38.5906 193.656C37.6987 193.656 36.9756 194.38 36.9756 195.273C36.9756 196.166 37.6987 196.89 38.5906 196.89Z" fill="white"/>
<path d="M44.3807 196.89C45.2726 196.89 45.9957 196.166 45.9957 195.273C45.9957 194.38 45.2726 193.656 44.3807 193.656C43.4887 193.656 42.7656 194.38 42.7656 195.273C42.7656 196.166 43.4887 196.89 44.3807 196.89Z" fill="white"/>
<path d="M80.9497 198.287H80.6696C80.34 198.287 80.0708 198.017 80.0708 197.687V193.381C80.0708 193.051 80.34 192.781 80.6696 192.781H80.9497C81.2793 192.781 81.5485 193.051 81.5485 193.381V197.687C81.5485 198.017 81.2793 198.287 80.9497 198.287Z" fill="#263238"/>
<path d="M84.6687 198.287H84.3886C84.059 198.287 83.7898 198.017 83.7898 197.687V193.381C83.7898 193.051 84.059 192.781 84.3886 192.781H84.6687C84.9983 192.781 85.2675 193.051 85.2675 193.381V197.687C85.2675 198.017 85.0038 198.287 84.6687 198.287Z" fill="#263238"/>
<path d="M88.1021 198.287H87.8219C87.4923 198.287 87.2231 198.017 87.2231 197.687V193.381C87.2231 193.051 87.4923 192.781 87.8219 192.781H88.1021C88.4317 192.781 88.7009 193.051 88.7009 193.381V197.687C88.7009 198.017 88.4317 198.287 88.1021 198.287Z" fill="white"/>
<path d="M77.1813 198.287H76.9011C76.5715 198.287 76.3024 198.017 76.3024 197.687V193.381C76.3024 193.051 76.5715 192.781 76.9011 192.781H77.1813C77.5109 192.781 77.7801 193.051 77.7801 193.381V197.687C77.7801 198.017 77.5109 198.287 77.1813 198.287Z" fill="#FDD522"/>
<path d="M38.5906 219.055C39.4826 219.055 40.2057 218.331 40.2057 217.438C40.2057 216.545 39.4826 215.821 38.5906 215.821C37.6987 215.821 36.9756 216.545 36.9756 217.438C36.9756 218.331 37.6987 219.055 38.5906 219.055Z" fill="white"/>
<path d="M44.0674 219.055C44.9594 219.055 45.6825 218.331 45.6825 217.438C45.6825 216.545 44.9594 215.821 44.0674 215.821C43.1755 215.821 42.4524 216.545 42.4524 217.438C42.4524 218.331 43.1755 219.055 44.0674 219.055Z" fill="white"/>
<path d="M80.9497 220.458H80.6696C80.34 220.458 80.0708 220.188 80.0708 219.858V215.552C80.0708 215.222 80.34 214.952 80.6696 214.952H80.9497C81.2793 214.952 81.5485 215.222 81.5485 215.552V219.858C81.5485 220.188 81.2793 220.458 80.9497 220.458Z" fill="#263238"/>
<path d="M84.6687 220.458H84.3886C84.059 220.458 83.7898 220.188 83.7898 219.858V215.552C83.7898 215.222 84.059 214.952 84.3886 214.952H84.6687C84.9983 214.952 85.2675 215.222 85.2675 215.552V219.858C85.2675 220.188 85.0038 220.458 84.6687 220.458Z" fill="#263238"/>
<path d="M88.1021 220.458H87.8219C87.4923 220.458 87.2231 220.188 87.2231 219.858V215.552C87.2231 215.222 87.4923 214.952 87.8219 214.952H88.1021C88.4317 214.952 88.7009 215.222 88.7009 215.552V219.858C88.7009 220.188 88.4317 220.458 88.1021 220.458Z" fill="white"/>
<path d="M77.1813 220.458H76.9011C76.5715 220.458 76.3024 220.188 76.3024 219.858V215.552C76.3024 215.222 76.5715 214.952 76.9011 214.952H77.1813C77.5109 214.952 77.7801 215.222 77.7801 215.552V219.858C77.7801 220.188 77.5109 220.458 77.1813 220.458Z" fill="#FDD522"/>
<path d="M38.5906 242.92C39.4826 242.92 40.2057 242.196 40.2057 241.303C40.2057 240.41 39.4826 239.686 38.5906 239.686C37.6987 239.686 36.9756 240.41 36.9756 241.303C36.9756 242.196 37.6987 242.92 38.5906 242.92Z" fill="white"/>
<path d="M44.5345 242.92C45.4264 242.92 46.1495 242.196 46.1495 241.303C46.1495 240.41 45.4264 239.686 44.5345 239.686C43.6425 239.686 42.9194 240.41 42.9194 241.303C42.9194 242.196 43.6425 242.92 44.5345 242.92Z" fill="white"/>
<path d="M80.9497 244.322H80.6696C80.34 244.322 80.0708 244.052 80.0708 243.722V239.416C80.0708 239.086 80.34 238.816 80.6696 238.816H80.9497C81.2793 238.816 81.5485 239.086 81.5485 239.416V243.722C81.5485 244.052 81.2793 244.322 80.9497 244.322Z" fill="#263238"/>
<path d="M84.6687 244.322H84.3886C84.059 244.322 83.7898 244.052 83.7898 243.722V239.416C83.7898 239.086 84.059 238.816 84.3886 238.816H84.6687C84.9983 238.816 85.2675 239.086 85.2675 239.416V243.722C85.2675 244.052 85.0038 244.322 84.6687 244.322Z" fill="#263238"/>
<path d="M88.1021 244.322H87.8219C87.4923 244.322 87.2231 244.052 87.2231 243.722V239.416C87.2231 239.086 87.4923 238.816 87.8219 238.816H88.1021C88.4317 238.816 88.7009 239.086 88.7009 239.416V243.722C88.7009 244.052 88.4317 244.322 88.1021 244.322Z" fill="white"/>
<path d="M77.1813 244.322H76.9011C76.5715 244.322 76.3024 244.052 76.3024 243.722V239.416C76.3024 239.086 76.5715 238.816 76.9011 238.816H77.1813C77.5109 238.816 77.7801 239.086 77.7801 239.416V243.722C77.7801 244.052 77.5109 244.322 77.1813 244.322Z" fill="#FDD522"/>
<path d="M62.1076 81.6971C61.9978 80.4101 60.6299 79.3761 59.3665 79.6291C58.6468 78.2156 56.6802 77.6161 55.2959 78.3861C54.6367 78.7546 54.1423 79.3541 53.4941 79.7501C52.8788 80.1296 52.1537 80.2891 51.5 80.6026C50.8463 80.9161 50.2256 81.4551 50.1432 82.1756C50.0498 82.9731 50.687 83.7156 51.4341 84.0126C52.1812 84.3096 53.0162 84.2711 53.8182 84.2271C53.4666 84.4306 53.3897 84.9421 53.571 85.3051C53.7523 85.6681 54.1203 85.8991 54.4939 86.0531C55.7409 86.5536 57.2625 86.2731 58.2513 85.3601L59.7565 84.2051C61.0474 84.2326 62.2175 82.9841 62.1076 81.6971Z" fill="#263238"/>
<path d="M58.3501 86.724C58.0754 86.999 57.5755 86.9715 57.2898 86.702C57.0042 86.438 56.9218 85.9925 57.0372 85.6185C57.147 85.2445 57.4272 84.9365 57.7568 84.722C58.0864 84.5075 58.4599 84.381 58.8335 84.2655C59.4103 84.095 60.0035 83.9575 60.6023 83.93C60.8166 83.919 61.0363 83.9245 61.2341 84.007C61.4318 84.0895 61.6021 84.2655 61.6186 84.48C61.6406 84.777 61.3824 85.019 61.1407 85.195C60.2398 85.8605 59.2784 86.4435 58.2732 86.9385" fill="#FDD522"/>
<path d="M57.4712 86.5706C56.0484 84.9811 52.4997 85.1901 51.6538 86.2241C50.4287 85.5751 48.7148 86.1306 48.1051 87.3791C46.8471 87.6431 45.5891 87.9126 44.3311 88.1766C43.6884 88.3141 43.0127 88.4626 42.5128 88.8971C42.013 89.3261 41.7767 90.1401 42.1832 90.6571C40.8539 90.9926 40.3155 92.9726 41.2988 93.9351C40.755 94.5016 40.8539 95.5521 41.4966 96.0086C40.4474 97.2516 39.6124 98.6761 39.0356 100.194C38.7939 100.832 38.6016 101.542 38.8323 102.18C39.063 102.818 39.898 103.263 40.4528 102.873C40.0738 103.384 40.0354 104.132 40.3595 104.682C39.7222 104.693 39.5245 105.678 39.9584 106.145C40.3924 106.613 41.1066 106.668 41.7438 106.657C42.381 106.646 43.0732 106.618 43.595 106.987C43.5731 107.179 43.4962 107.3 43.3863 107.388C42.2821 108.274 41.9635 109.808 42.7765 110.963C42.8534 111.068 42.9248 111.167 42.9853 111.26C43.3533 111.788 44.2597 112.278 44.831 112.575C46.2703 113.339 47.1272 113.202 48.7368 113.444C48.2918 114.478 50.8902 116.804 53.9005 114.56C59.8608 116.21 64.1621 116.848 70.3421 116.909C71.2265 116.92 72.2867 116.804 72.6822 116.018C73.3964 116.21 74.1709 115.886 74.7038 115.369C75.2366 114.852 75.5717 114.175 75.9013 113.51C77.434 113.108 78.6205 111.645 78.6919 110.061C79.7302 109.258 80.4114 108.004 80.5102 106.69C81.9989 106.244 82.8284 104.325 82.1363 102.933C81.8286 101.107 81.2189 99.3361 80.3399 97.7081C81.3507 97.4991 81.7407 96.1351 81.3342 95.1836C80.9277 94.2321 80.0103 93.6161 79.1424 93.0551C79.895 93.2641 80.5652 92.3181 80.3894 91.5536C80.2136 90.7891 79.5324 90.2611 78.8677 89.8486C77.8899 89.2491 76.8352 88.7706 75.742 88.4241C75.3904 87.0876 73.6985 85.5586 72.457 84.9591C67.4306 82.5446 63.9149 81.9176 57.4712 86.5706Z" fill="#263238"/>
<path d="M53.5984 94.6495C53.527 93.5935 53.3567 92.543 54.4004 92.3835L65.085 89.155C68.5293 88.6325 71.0232 92.796 71.4023 96.2665C71.8198 100.122 72.1768 104.841 71.8527 107.745C71.1935 113.586 66.0573 115.154 66.0573 115.154C66.0573 115.148 66.1891 118.696 66.1891 118.696C65.7442 121.424 65.0575 124.487 63.9533 125.576C60.1739 124.867 53.9829 116.545 53.9829 116.545L53.5984 94.6495Z" fill="#AE7461"/>
<path d="M65.8101 105.078C65.8046 105.034 66.299 104.924 67.0955 104.786C67.2988 104.759 67.4911 104.709 67.5185 104.566C67.5625 104.418 67.4636 104.198 67.3537 103.967C67.1395 103.483 66.9142 102.971 66.678 102.438C65.7387 100.26 65.052 98.4669 65.1399 98.4284C65.2278 98.3899 66.0573 100.128 66.9966 102.306C67.2219 102.845 67.4416 103.356 67.6449 103.846C67.7328 104.077 67.8756 104.33 67.7877 104.643C67.7382 104.797 67.5954 104.918 67.4636 104.957C67.3372 105.001 67.2219 105.012 67.1175 105.023C66.321 105.1 65.8156 105.127 65.8101 105.078Z" fill="#263238"/>
<path d="M66.0572 115.154C66.0572 115.154 62.9041 114.951 58.9434 112.806C58.9434 112.806 60.2892 116.463 66.1067 116.909L66.0572 115.154Z" fill="#6F4439"/>
<path d="M62.3987 96.1622C62.3272 96.3822 61.5252 96.3162 60.5969 96.4702C59.663 96.6077 58.9159 96.9157 58.7841 96.7287C58.7236 96.6352 58.8445 96.4262 59.1411 96.2007C59.4323 95.9752 59.9102 95.7552 60.4705 95.6672C61.0308 95.5792 61.5527 95.6452 61.8988 95.7717C62.2503 95.8927 62.4316 96.0577 62.3987 96.1622Z" fill="#263238"/>
<path d="M70.0893 96.0303C69.9575 96.2173 69.3972 96.0523 68.7325 96.0743C68.0678 96.0743 67.513 96.2503 67.3756 96.0688C67.3152 95.9808 67.3976 95.7938 67.6338 95.6123C67.87 95.4308 68.2656 95.2713 68.7215 95.2658C69.1775 95.2603 69.5785 95.4088 69.8147 95.5848C70.0619 95.7553 70.1443 95.9368 70.0893 96.0303Z" fill="#263238"/>
<path d="M74.0116 99.0494C73.9567 98.1419 73.671 97.2179 73.0503 96.5524C72.7097 96.1894 72.2757 95.9089 71.9736 95.5129C71.3199 94.6549 71.4133 93.4669 71.1331 92.4219C70.7761 91.0799 69.7268 89.9414 68.4194 89.4739C67.3317 89.0834 66.1012 89.1384 65.0795 88.5994C64.3269 88.1979 63.7501 87.5049 62.9755 87.1474C61.4648 86.4544 59.7125 87.2354 58.2842 88.0879C58.004 89.2209 58.7182 90.2054 59.4103 91.1459C60.1025 92.0864 61.2231 92.7024 62.3932 92.7684C63.2996 92.8234 64.3543 92.6144 64.9916 93.2634C65.6618 93.9454 65.4036 95.1389 65.9529 95.9199C66.7384 97.0364 68.5293 96.6074 69.7048 97.2949C70.6112 97.8284 70.9958 98.9119 71.4517 99.8634C71.9077 100.809 72.6987 101.799 73.7534 101.75C73.9127 100.864 74.0666 99.9569 74.0116 99.0494Z" fill="#263238"/>
<path d="M60.5475 90.1623C57.9052 90.1238 55.252 90.6023 52.7909 91.5703C52.0548 91.8563 51.2968 92.2248 50.8793 92.8903C50.5112 93.4788 50.4673 94.2103 50.4783 94.9033C50.5057 97.0758 51.3792 99.7323 52.2087 101.745L54.9224 103.368C57.0098 102.873 56.0485 99.2648 55.9441 97.4553C57.3999 96.8118 58.4161 95.2773 58.4326 93.6823C59.6247 92.9123 60.4322 91.5758 60.5475 90.1623Z" fill="#263238"/>
<path d="M54.8839 102.58C54.8015 101.337 53.2743 101.095 52.2086 101.739C51.6208 102.091 51.1814 102.784 51.2583 104.104C51.4615 107.624 54.9498 106.689 54.9498 106.59C54.9498 106.529 54.9773 104.038 54.8839 102.58Z" fill="#AE7461"/>
<path d="M53.7961 105.32C53.7796 105.309 53.7357 105.364 53.6368 105.419C53.5379 105.468 53.3676 105.512 53.1809 105.457C52.8018 105.342 52.4557 104.77 52.4008 104.137C52.3733 103.818 52.4228 103.51 52.5217 103.252C52.615 102.988 52.7689 102.801 52.9556 102.757C53.1369 102.702 53.2797 102.806 53.3292 102.905C53.3841 102.999 53.3621 103.07 53.3841 103.076C53.3951 103.081 53.4555 103.01 53.4171 102.867C53.4006 102.795 53.3511 102.718 53.2687 102.652C53.1809 102.586 53.0545 102.559 52.9227 102.581C52.6535 102.614 52.4228 102.878 52.3129 103.164C52.1921 103.45 52.1261 103.796 52.1591 104.159C52.225 104.869 52.626 105.507 53.1424 105.628C53.3951 105.677 53.5929 105.589 53.6972 105.501C53.7961 105.408 53.8126 105.325 53.7961 105.32Z" fill="#6F4439"/>
<path d="M53.4061 106.799C53.4061 106.799 53.4061 106.815 53.3951 106.843C53.3841 106.87 53.3841 106.925 53.3457 106.975C53.2962 107.09 53.1589 107.233 52.9391 107.338C52.7194 107.442 52.4228 107.508 52.0712 107.519C51.8954 107.525 51.7086 107.514 51.5054 107.481C51.3076 107.448 51.0934 107.398 50.8901 107.294L50.9341 107.272C50.8572 107.75 50.5441 108.267 50.0057 108.548C49.4729 108.828 48.7203 108.812 48.1545 108.383L48.2149 108.372C48.1105 108.531 47.9402 108.641 47.7534 108.68C47.5667 108.724 47.3689 108.702 47.1821 108.63C47.0009 108.564 46.8306 108.432 46.7262 108.256C46.6163 108.086 46.5614 107.882 46.5449 107.679C46.5174 107.266 46.6712 106.843 46.9239 106.507C47.1766 106.161 47.5117 105.88 47.8468 105.605L47.8523 105.688C47.5557 105.512 47.3634 105.193 47.292 104.857C47.2206 104.516 47.2535 104.153 47.3909 103.818C47.5282 103.488 47.7479 103.196 48.0061 102.938C48.2588 102.679 48.55 102.454 48.8356 102.234L48.8301 102.311C48.5665 102.052 48.4566 101.662 48.4841 101.288C48.506 100.914 48.6434 100.545 48.8796 100.243C49.33 99.6655 49.9892 99.3465 50.5935 99.044L50.566 99.1045C50.3738 98.3345 50.6045 97.504 51.1154 96.954C51.6317 96.3985 52.3953 96.14 53.093 96.2225L53.038 96.283C52.9007 95.6505 53.1314 95.0125 53.5105 94.5725C53.8895 94.1215 54.4443 93.841 54.9937 93.841L54.9497 93.885C54.9497 93.2415 55.3068 92.686 55.7462 92.3505C56.1857 92.0095 56.735 91.8665 57.213 91.9435L57.1745 91.9765C57.1855 91.6355 57.3118 91.333 57.4602 91.0745C57.6085 90.816 57.7953 90.596 57.993 90.431C58.383 90.079 58.8335 89.936 59.1961 89.9085C59.24 89.903 59.2839 89.903 59.3279 89.8975C59.3718 89.8975 59.4103 89.903 59.4542 89.9085C59.5311 89.9195 59.608 89.914 59.674 89.936C59.8058 89.9745 59.9267 89.991 60.0091 90.0295C60.0915 90.0625 60.1574 90.09 60.2068 90.112C60.2508 90.1285 60.2727 90.1395 60.2727 90.145C60.2727 90.145 60.2508 90.1395 60.2013 90.123C60.1519 90.1065 60.086 90.079 60.0036 90.046C59.9157 90.0075 59.8003 89.9965 59.6685 89.9635C59.6026 89.947 59.5257 89.9525 59.4487 89.9415C59.4103 89.9415 59.3663 89.936 59.3279 89.936C59.2839 89.9415 59.2455 89.9415 59.1961 89.947C58.8445 89.9745 58.405 90.123 58.026 90.4695C57.8337 90.6345 57.6579 90.8545 57.5096 91.1075C57.3668 91.3605 57.2459 91.6575 57.2404 91.9765V92.015L57.202 92.0095C56.7405 91.938 56.2187 92.0755 55.7957 92.411C55.3727 92.7355 55.0376 93.2745 55.0376 93.8795V93.9235H54.9937C54.4718 93.9235 53.9444 94.193 53.5819 94.6275C53.2193 95.0565 52.9996 95.667 53.1314 96.2555L53.1479 96.3215L53.0765 96.316C52.4063 96.239 51.6757 96.492 51.1813 97.02C50.6924 97.548 50.4726 98.3455 50.6539 99.077L50.6649 99.121L50.6265 99.1375C50.0222 99.44 49.3795 99.7535 48.951 100.309C48.7313 100.595 48.5994 100.947 48.5774 101.293C48.5555 101.64 48.6598 101.997 48.8961 102.234L48.94 102.278L48.8906 102.316C48.3193 102.756 47.7425 103.218 47.4788 103.856C47.3524 104.17 47.3195 104.516 47.3854 104.835C47.4458 105.154 47.6271 105.446 47.8963 105.605L47.9567 105.644L47.9018 105.688C47.5667 105.963 47.2371 106.238 46.9899 106.573C46.7427 106.898 46.5998 107.299 46.6218 107.684C46.6383 108.069 46.8525 108.438 47.1986 108.559C47.5282 108.691 47.9457 108.619 48.127 108.333L48.149 108.295L48.1874 108.322C48.7258 108.729 49.4509 108.757 49.9563 108.487C50.4726 108.223 50.7858 107.723 50.8627 107.261L50.8682 107.222L50.9011 107.239C51.0989 107.338 51.3021 107.393 51.4999 107.426C51.6977 107.459 51.8789 107.47 52.0547 107.47C52.4008 107.464 52.6974 107.404 52.9117 107.305C53.1259 107.206 53.2687 107.074 53.3182 106.958C53.3951 106.865 53.4006 106.799 53.4061 106.799Z" fill="#455A64"/>
<path d="M40.0188 103.043C40.0188 103.043 39.9639 102.977 39.887 102.828C39.8156 102.68 39.7222 102.449 39.7002 102.13C39.6782 101.816 39.7332 101.409 39.9859 101.024C40.2331 100.645 40.678 100.298 41.2603 100.21L41.2328 100.254C41.1175 99.7152 41.2054 99.0717 41.5515 98.5162C41.7163 98.2357 41.9525 97.9827 42.2381 97.7847C42.5238 97.5812 42.8754 97.4767 43.1995 97.3337C43.3643 97.2622 43.5236 97.1742 43.6609 97.0587C43.7982 96.9432 43.9081 96.7947 43.9795 96.6242C44.1333 96.2887 44.1883 95.8872 44.3805 95.5242C44.776 94.8092 45.644 94.3252 46.5174 94.4627L46.457 94.5232C46.3416 93.7202 46.5998 92.8292 47.1931 92.1967C47.8084 91.5367 48.7312 91.2232 49.5772 91.3277L49.5168 91.3882C49.4124 90.3597 49.9892 89.3587 50.8297 88.9297C51.6757 88.4952 52.6755 88.6052 53.3621 89.0727L53.3072 89.0782C53.6698 88.7152 54.1092 88.4842 54.5322 88.3302C54.9607 88.1762 55.3892 88.0772 55.7957 88.0387C56.6032 87.9452 57.3173 88.0387 57.8776 88.1762C58.438 88.3192 58.8555 88.5172 59.1136 88.6877C59.251 88.7647 59.3334 88.8527 59.3993 88.8967C59.4597 88.9462 59.4927 88.9737 59.4927 88.9737C59.4872 88.9792 59.3608 88.8747 59.1027 88.7097C58.8445 88.5447 58.427 88.3577 57.8667 88.2202C57.3063 88.0937 56.6032 88.0057 55.8012 88.1047C55.4002 88.1432 54.9827 88.2422 54.5597 88.4017C54.1422 88.5612 53.7137 88.7867 53.3676 89.1387L53.3402 89.1662L53.3072 89.1442C52.648 88.6987 51.6757 88.5997 50.8736 89.0122C50.0716 89.4247 49.5168 90.3872 49.6212 91.3717L49.6267 91.4377L49.5607 91.4322C48.7477 91.3332 47.8633 91.6357 47.27 92.2682C46.6987 92.8787 46.4515 93.7367 46.5614 94.5067L46.5724 94.5782L46.501 94.5672C45.677 94.4407 44.8365 94.8972 44.4684 95.5737C44.2816 95.9147 44.2267 96.3107 44.0674 96.6627C43.985 96.8387 43.8696 97.0037 43.7213 97.1302C43.573 97.2567 43.4027 97.3447 43.2379 97.4162C42.9028 97.5647 42.5622 97.6637 42.2876 97.8562C42.0074 98.0432 41.7822 98.2907 41.6229 98.5602C41.2878 99.0992 41.1999 99.7152 41.3043 100.238L41.3098 100.276L41.2713 100.282C40.7165 100.359 40.277 100.694 40.0353 101.052C39.7826 101.42 39.7277 101.816 39.7387 102.124C39.7551 102.438 39.8375 102.669 39.9035 102.812C39.9749 102.966 40.0243 103.037 40.0188 103.043Z" fill="#455A64"/>
<path d="M73.6271 103.989C73.6326 103.994 73.5557 103.895 73.6161 103.703C73.6491 103.609 73.715 103.505 73.8194 103.411C73.9238 103.312 74.0831 103.246 74.2534 103.191C74.4236 103.131 74.6269 103.087 74.8027 102.96C74.9785 102.839 75.1213 102.636 75.1982 102.394C75.2806 102.152 75.3026 101.877 75.2861 101.591C75.2751 101.299 75.2257 100.991 75.2257 100.661C75.2202 99.9958 75.5003 99.3193 75.6706 98.5823C75.753 98.2138 75.786 97.8178 75.7201 97.4273C75.6487 97.0368 75.4454 96.6518 75.0828 96.4373C74.7258 96.2173 74.2863 96.1513 73.8523 96.0193C73.6381 95.9533 73.4184 95.8653 73.2206 95.7278C73.0228 95.5903 72.88 95.3868 72.7756 95.1723C72.5669 94.7378 72.5175 94.2538 72.4076 93.7863C72.3527 93.5553 72.2812 93.3243 72.1659 93.1208C72.0505 92.9173 71.8638 92.7578 71.6495 92.6643C71.3474 92.5488 71.0068 92.5653 70.6772 92.5323C70.5124 92.5158 70.3421 92.4828 70.1828 92.4113C70.029 92.3398 69.8917 92.2243 69.7928 92.0813C69.595 91.8008 69.5291 91.4763 69.4247 91.1848C69.3313 90.8878 69.183 90.6183 68.9852 90.3928C68.5897 89.9363 68.0184 89.6723 67.4526 89.6613C66.8868 89.6503 66.3484 89.8538 65.9584 90.2003L65.9145 90.2443L65.887 90.1893C65.453 89.2323 64.6071 88.6218 63.7995 88.3853C63.393 88.2698 62.992 88.2478 62.624 88.2863C62.2614 88.3248 61.9318 88.4183 61.6571 88.5558C61.1078 88.8308 60.8002 89.2268 60.6299 89.5018C60.542 89.6393 60.4926 89.7548 60.4541 89.8318C60.4376 89.8648 60.4211 89.8978 60.4102 89.9198C60.3992 89.9418 60.3937 89.9473 60.3937 89.9473C60.3937 89.9473 60.3937 89.9363 60.4047 89.9143C60.4156 89.8923 60.4266 89.8593 60.4376 89.8263C60.4706 89.7493 60.5145 89.6283 60.6024 89.4853C60.7617 89.1993 61.0694 88.7923 61.6297 88.5063C61.9043 88.3633 62.2394 88.2643 62.613 88.2203C62.9865 88.1763 63.3985 88.1983 63.816 88.3138C64.6455 88.5448 65.5135 89.1663 65.9639 90.1508L65.8925 90.1343C66.2935 89.7713 66.8593 89.5513 67.4471 89.5623C68.0349 89.5733 68.6392 89.8483 69.0512 90.3268C69.2599 90.5633 69.4192 90.8493 69.5126 91.1573C69.617 91.4543 69.6884 91.7733 69.8697 92.0263C70.0455 92.2903 70.3531 92.4058 70.6772 92.4333C70.9958 92.4663 71.3419 92.4498 71.677 92.5708C71.9187 92.6698 72.1219 92.8513 72.2483 93.0713C72.3746 93.2913 72.4515 93.5333 72.501 93.7698C72.6108 94.2428 72.6658 94.7213 72.8635 95.1338C72.9624 95.3373 73.0943 95.5243 73.2755 95.6508C73.4568 95.7828 73.6601 95.8653 73.8743 95.9313C74.2973 96.0633 74.7478 96.1293 75.1268 96.3603C75.3136 96.4758 75.4784 96.6353 75.5882 96.8223C75.6981 97.0093 75.7695 97.2128 75.808 97.4163C75.8794 97.8288 75.8409 98.2358 75.753 98.6098C75.5718 99.3578 75.2916 100.023 75.2971 100.672C75.2971 100.991 75.3355 101.299 75.3465 101.596C75.3575 101.888 75.3355 102.174 75.2476 102.421C75.1652 102.669 75.0114 102.883 74.8247 103.01C74.6324 103.136 74.4291 103.18 74.2588 103.235C74.0886 103.29 73.9347 103.345 73.8304 103.439C73.726 103.527 73.6546 103.626 73.6271 103.714C73.5722 103.89 73.6381 103.989 73.6271 103.989Z" fill="#455A64"/>
<path d="M80.4499 98.5385C80.4499 98.5385 80.4334 98.5165 80.4114 98.4725C80.3894 98.423 80.3565 98.357 80.3125 98.2745C80.2246 98.093 80.1038 97.84 79.95 97.51C79.7907 97.18 79.6149 96.7675 79.3567 96.3165C79.104 95.871 78.7524 95.365 78.1811 95.0515C77.8955 94.8975 77.5659 94.793 77.2363 94.65C77.0715 94.5785 76.9067 94.4905 76.7583 94.3695C76.61 94.254 76.4782 94.0945 76.4013 93.913C76.2365 93.55 76.231 93.132 76.0991 92.758C76.0332 92.571 75.9234 92.395 75.7586 92.2795C75.5992 92.1585 75.396 92.087 75.1927 92.0155C74.9895 91.9495 74.7752 91.889 74.572 91.779C74.3687 91.6745 74.1984 91.493 74.0941 91.284C73.8853 90.855 73.8798 90.3765 73.7919 89.92C73.748 89.6945 73.6876 89.4635 73.5612 89.2765C73.4349 89.084 73.2316 88.9575 73.0009 88.908C72.5395 88.8145 72.0396 88.974 71.5287 88.8915C71.2705 88.8475 71.0288 88.7155 70.853 88.534C70.6717 88.3525 70.5399 88.138 70.4135 87.929C70.2872 87.72 70.1718 87.511 70.029 87.324C69.8862 87.137 69.7159 86.972 69.5126 86.884C69.0951 86.6915 68.6172 86.796 68.1832 86.895C67.7493 86.994 67.2933 87.104 66.8484 87.0105C66.4089 86.9225 66.0354 86.697 65.6893 86.4825C65.3377 86.268 65.0081 86.037 64.6565 85.9105C63.9369 85.652 63.1953 85.6905 62.5691 85.8445C61.9373 86.004 61.421 86.312 61.0254 86.642C60.6299 86.9775 60.3717 87.346 60.174 87.654C59.9982 87.973 59.8718 88.226 59.8114 88.413C59.7784 88.501 59.751 88.567 59.729 88.6165C59.7125 88.6605 59.7015 88.688 59.696 88.6825C59.696 88.6825 59.7015 88.655 59.718 88.611C59.7345 88.5615 59.762 88.49 59.7894 88.402C59.8444 88.215 59.9652 87.9565 60.141 87.632C60.3333 87.3185 60.5915 86.939 60.9925 86.598C61.388 86.257 61.9154 85.938 62.5581 85.773C63.1953 85.608 63.9479 85.5695 64.695 85.828C65.0685 85.9655 65.3981 86.191 65.7497 86.4055C66.0958 86.62 66.4638 86.8345 66.8813 86.917C67.2988 87.005 67.7328 86.9005 68.1723 86.796C68.392 86.7465 68.6172 86.6915 68.8589 86.675C69.0951 86.6585 69.3423 86.686 69.5676 86.785C69.7928 86.884 69.9796 87.0655 70.1224 87.258C70.2707 87.456 70.3916 87.665 70.5179 87.874C70.6443 88.083 70.7706 88.2865 70.9409 88.457C71.1057 88.6275 71.3199 88.743 71.5616 88.787C72.0396 88.864 72.5395 88.7045 73.0394 88.8035C73.2866 88.8585 73.5228 89.0015 73.6601 89.216C73.8029 89.425 73.8633 89.667 73.9073 89.9035C73.9952 90.371 74.0007 90.844 74.1985 91.24C74.2973 91.4325 74.4456 91.5975 74.6379 91.6965C74.8247 91.801 75.0334 91.8615 75.2422 91.9275C75.4454 91.9935 75.6597 92.0705 75.8355 92.208C76.0167 92.34 76.1321 92.538 76.2035 92.736C76.3408 93.1375 76.3463 93.5445 76.5001 93.8855C76.6485 94.2375 76.9726 94.4465 77.2912 94.5895C77.6153 94.738 77.9449 94.8425 78.236 95.002C78.8238 95.332 79.1754 95.849 79.4281 96.3C79.6808 96.7565 79.8511 97.1745 80.0049 97.5045C80.1532 97.8345 80.2686 98.093 80.351 98.2745C80.3894 98.357 80.4169 98.4285 80.4389 98.478C80.4389 98.5165 80.4499 98.5385 80.4499 98.5385Z" fill="#455A64"/>
<path d="M76.7088 94.8587C76.7088 94.8587 76.7308 94.8532 76.7748 94.8477C76.8187 94.8477 76.8846 94.8477 76.9615 94.8917C77.1153 94.9687 77.2856 95.1887 77.3131 95.5132C77.3241 95.6782 77.2801 95.8542 77.2362 96.0412C77.1923 96.2282 77.1373 96.4317 77.1483 96.6517C77.1593 96.8717 77.2582 97.0917 77.3955 97.3007C77.5328 97.5152 77.7031 97.7187 77.846 97.9717C77.9888 98.2192 78.0602 98.5547 77.9338 98.8572C77.824 99.1542 77.6043 99.4072 77.4999 99.7097C77.39 100.012 77.4559 100.359 77.5988 100.678C77.7361 100.997 77.9339 101.31 78.0657 101.668C78.1316 101.844 78.1811 102.042 78.1811 102.24C78.1811 102.438 78.1316 102.641 78.0492 102.823C77.8789 103.191 77.6097 103.494 77.379 103.824C77.1483 104.148 76.956 104.533 77.0055 104.94C77.0494 105.347 77.2801 105.721 77.4285 106.128C77.5054 106.332 77.5603 106.552 77.5603 106.777C77.5548 107.003 77.4944 107.217 77.3955 107.41C77.1977 107.795 76.9011 108.097 76.6374 108.405C76.3737 108.713 76.1375 109.032 76.0222 109.401C75.8958 109.764 75.8299 110.149 75.6596 110.495C75.5717 110.666 75.4564 110.825 75.3025 110.941C75.1487 111.056 74.9729 111.122 74.8081 111.183C74.6378 111.238 74.473 111.287 74.3192 111.359C74.1709 111.43 74.0336 111.524 73.9127 111.634C73.6765 111.859 73.5007 112.123 73.3359 112.387C73.1766 112.651 73.0228 112.904 72.858 113.141C72.5229 113.608 72.067 113.911 71.633 114.043C71.199 114.186 70.798 114.197 70.4849 114.153C70.1663 114.109 69.9356 114.021 69.7872 113.949C69.6389 113.872 69.5675 113.823 69.5675 113.823C69.573 113.801 69.8641 114.037 70.4959 114.114C70.8035 114.153 71.199 114.131 71.622 113.988C72.045 113.85 72.4845 113.559 72.8031 113.097C72.9679 112.871 73.1107 112.613 73.2755 112.349C73.4348 112.085 73.6161 111.81 73.8633 111.573C73.9896 111.458 74.1325 111.359 74.2918 111.276C74.4511 111.199 74.6214 111.15 74.7862 111.095C74.951 111.04 75.1158 110.974 75.2531 110.869C75.3904 110.765 75.5003 110.616 75.5827 110.457C75.7475 110.132 75.8134 109.747 75.9398 109.373C76.0551 108.988 76.3078 108.647 76.5715 108.339C76.8352 108.031 77.1263 107.729 77.3131 107.366C77.4065 107.184 77.4614 106.986 77.4669 106.777C77.4669 106.574 77.4175 106.37 77.3406 106.172C77.1922 105.776 76.9615 105.397 76.9121 104.962C76.8846 104.742 76.9231 104.522 77 104.324C77.0769 104.126 77.1868 103.945 77.3021 103.774C77.5383 103.439 77.802 103.136 77.9613 102.79C78.0382 102.614 78.0877 102.432 78.0877 102.251C78.0877 102.069 78.0492 101.888 77.9833 101.712C77.8569 101.365 77.6647 101.057 77.5218 100.722C77.379 100.397 77.3076 100.018 77.4285 99.6877C77.5438 99.3632 77.7636 99.1157 77.8734 98.8352C77.9888 98.5547 77.9338 98.2522 77.7965 98.0157C77.6647 97.7737 77.4944 97.5592 77.3571 97.3447C77.2197 97.1302 77.1153 96.8937 77.1044 96.6627C77.0989 96.4317 77.1593 96.2227 77.2032 96.0357C77.2527 95.8487 77.2911 95.6782 77.2856 95.5242C77.2692 95.2107 77.1099 94.9962 76.967 94.9192C76.8022 94.8312 76.7088 94.8697 76.7088 94.8587Z" fill="#455A64"/>
<path d="M63.2886 106.26C63.3875 106.024 63.6567 105.914 63.8929 106.002C64.629 106.271 65.3596 106.541 66.0957 106.81L66.3429 106.898C66.2385 107.289 66.0682 107.85 65.854 108.191C65.6398 108.532 65.2992 108.818 64.9036 108.867C64.6015 108.906 64.2335 108.796 63.9753 108.636C63.5248 108.356 63.1018 108.042 63.003 107.525C62.9315 107.151 63.1458 106.607 63.2886 106.26Z" fill="#6F4439"/>
<path d="M51.3297 106.227C51.3297 106.227 51.1155 106.288 50.8023 106.53C50.4947 106.766 50.0937 107.228 49.9509 107.938C49.874 108.284 49.874 108.686 49.9783 109.093C50.0882 109.494 50.3025 109.907 50.6211 110.253C50.9342 110.6 51.3572 110.897 51.8406 111.056C52.3295 111.221 52.8843 111.238 53.4062 111.089C53.9281 110.941 54.4005 110.655 54.7466 110.27C55.0981 109.89 55.3069 109.417 55.3838 108.955C55.5376 108.015 55.186 107.146 54.6916 106.64C54.4389 106.387 54.1478 106.233 53.8896 106.123C53.6314 106.013 53.3897 105.963 53.1974 105.941C52.9997 105.919 52.8459 105.936 52.747 105.958C52.6481 105.98 52.5932 106.002 52.5987 106.007C52.5987 106.024 52.8129 105.941 53.1974 105.996C53.3897 106.024 53.6204 106.084 53.8676 106.194C54.1148 106.304 54.395 106.464 54.6257 106.706C55.0926 107.195 55.4167 108.037 55.2629 108.933C55.186 109.379 54.9828 109.819 54.6477 110.182C54.3181 110.545 53.8676 110.82 53.3677 110.957C52.8678 111.1 52.3405 111.084 51.879 110.93C51.4121 110.776 51.0111 110.501 50.709 110.165C50.4013 109.835 50.1926 109.445 50.0827 109.06C49.9783 108.675 49.9728 108.29 50.0388 107.954C50.1651 107.272 50.5442 106.816 50.8298 106.568C51.1319 106.321 51.3407 106.238 51.3297 106.227Z" fill="#E0E0E0"/>
<path d="M62.9811 101.69C63.014 102.092 62.7009 102.449 62.2779 102.493C61.8604 102.532 61.4924 102.24 61.4594 101.839C61.4265 101.437 61.7396 101.08 62.1626 101.036C62.5855 100.997 62.9536 101.289 62.9811 101.69Z" fill="#263238"/>
<path d="M70.3146 101.503C70.3475 101.904 70.0344 102.262 69.6114 102.306C69.1939 102.344 68.8259 102.053 68.7984 101.651C68.7654 101.25 69.0786 100.892 69.5015 100.848C69.919 100.804 70.2871 101.101 70.3146 101.503Z" fill="#263238"/>
<path d="M70.0069 98.6926C69.9355 98.8081 69.3532 98.4121 68.6006 98.4946C67.8536 98.5661 67.3592 99.0721 67.2603 98.9786C67.2163 98.9346 67.2768 98.7366 67.491 98.5056C67.6997 98.2801 68.0788 98.0381 68.5457 97.9886C69.0126 97.9391 69.4301 98.0986 69.6828 98.2801C69.941 98.4561 70.0454 98.6376 70.0069 98.6926Z" fill="#263238"/>
<path d="M62.8492 99.3084C62.7448 99.4239 62.1076 98.9289 61.2067 98.9344C60.3058 98.9289 59.6521 99.4294 59.5532 99.3139C59.5037 99.2589 59.6081 99.0499 59.8938 98.8244C60.1739 98.5989 60.6573 98.3789 61.2177 98.3789C61.778 98.3789 62.2559 98.5989 62.5306 98.8244C62.8052 99.0444 62.8986 99.2534 62.8492 99.3084Z" fill="#263238"/>
<path d="M65.4035 108.587C65.409 108.592 65.3431 108.68 65.1618 108.768C64.986 108.851 64.6894 108.9 64.3433 108.834C64.0027 108.763 63.6072 108.592 63.2666 108.262C63.0963 108.097 62.959 107.866 62.8986 107.613C62.8381 107.355 62.8546 107.08 62.9205 106.821C62.981 106.557 63.0853 106.321 63.1952 106.101C63.2556 105.991 63.3435 105.848 63.5138 105.804C63.6841 105.765 63.8105 105.831 63.9093 105.87C64.2994 106.029 64.6619 106.172 65.0025 106.31C65.6233 106.568 65.9968 106.744 65.9858 106.772C65.9748 106.805 65.5738 106.684 64.9421 106.464C64.596 106.343 64.2279 106.211 63.8324 106.068C63.6072 105.974 63.5028 105.985 63.3985 106.205C63.2941 106.414 63.2007 106.64 63.1458 106.876C63.0194 107.349 63.1183 107.822 63.4149 108.114C63.7061 108.416 64.0631 108.592 64.3708 108.675C64.6839 108.757 64.9476 108.735 65.1179 108.686C65.2991 108.631 65.387 108.57 65.4035 108.587Z" fill="#263238"/>
<path d="M80.0817 84.0188C80.0652 84.0463 79.7851 83.7273 79.1204 83.4633C78.7908 83.3368 78.3623 83.2268 77.8569 83.2378C77.357 83.2433 76.7802 83.3698 76.2474 83.6998L76.1705 83.7493L76.1265 83.6723C75.7859 83.0838 75.1542 82.5888 74.3687 82.3798C73.5941 82.1653 72.6383 82.2368 71.8967 82.7703L71.8033 82.8363L71.7373 82.7428C71.0781 81.8353 69.9795 81.1258 68.7325 80.9223C67.7767 80.7573 66.8043 80.9333 65.9968 81.3348C65.1838 81.7308 64.5246 82.3413 64.0906 83.0233L64.0577 83.0728H64.0027C62.9315 83.1113 61.9592 83.3863 61.1682 83.7768C60.3661 84.1508 59.7454 84.6348 59.2785 85.0693C58.3446 85.9548 58.0205 86.6533 57.9875 86.6313C57.982 86.6258 58.004 86.5873 58.0425 86.5048C58.0864 86.4278 58.1468 86.3013 58.2402 86.1583C58.427 85.8613 58.7291 85.4433 59.1906 84.9813C59.652 84.5248 60.2783 84.0188 61.0913 83.6228C61.8933 83.2103 62.8931 82.9188 63.9972 82.8638L63.9093 82.9133C64.3543 82.1928 65.041 81.5493 65.8924 81.1258C66.7384 80.7023 67.7602 80.5153 68.7709 80.6858C70.0839 80.9058 71.2265 81.6483 71.9186 82.6108L71.7593 82.5888C72.5778 82.0058 73.5996 81.9453 74.4181 82.1818C75.2531 82.4128 75.9233 82.9573 76.2748 83.5898L76.154 83.5568C76.7253 83.2103 77.335 83.0948 77.8569 83.1003C78.3788 83.1003 78.8237 83.2323 79.1588 83.3753C79.4939 83.5238 79.7301 83.6888 79.873 83.8153C80.0213 83.9363 80.0872 84.0133 80.0817 84.0188Z" fill="#263238"/>
<path d="M56.2682 82.7919C56.2682 82.7919 55.9825 82.9679 55.3892 83.0009C54.8179 83.0339 53.8896 82.9074 53.0765 82.1704C52.681 81.8019 52.3514 81.2794 52.2196 80.6524C52.0822 80.0309 52.1207 79.3104 52.4118 78.6449C52.703 77.9739 53.2853 77.3964 54.0269 77.0994C54.7575 76.7969 55.6474 76.7474 56.444 77.0774L56.3066 77.1104C56.6252 76.7254 57.1086 76.4504 57.6305 76.3569C58.059 76.2744 58.5094 76.3129 58.9105 76.4669C59.3115 76.6264 59.6521 76.9124 59.8828 77.2589C60.3442 77.9519 60.4211 78.8484 60.0805 79.5469L59.9212 79.4039C60.498 79.0574 61.2012 79.1069 61.734 79.3654C62.2779 79.6184 62.6624 80.1079 62.8052 80.6249C63.1019 81.6699 62.6569 82.6434 62.1076 83.1549C61.5473 83.6829 60.9485 83.8754 60.5585 83.9579C60.3607 84.0019 60.2014 84.0129 60.097 84.0184C59.9926 84.0239 59.9377 84.0184 59.9377 84.0129C59.9377 83.9964 60.1574 83.9909 60.542 83.8864C60.921 83.7819 61.4978 83.5729 62.0142 83.0559C62.5251 82.5609 62.9151 81.6369 62.6294 80.6799C62.4921 80.2069 62.146 79.7779 61.6516 79.5524C61.1682 79.3214 60.542 79.2884 60.0476 79.5909L59.729 79.7889L59.8938 79.4479C60.1904 78.8264 60.119 78.0069 59.7015 77.3909C59.4928 77.0774 59.1906 76.8299 58.8335 76.6924C58.4765 76.5549 58.07 76.5219 57.6854 76.5989C57.213 76.6869 56.7845 76.9289 56.4989 77.2699L56.444 77.3359L56.3615 77.3029C55.6309 76.9949 54.8069 77.0389 54.1203 77.3139C53.4281 77.5889 52.8898 78.1169 52.6151 78.7384C52.3349 79.3544 52.291 80.0309 52.4118 80.6194C52.5327 81.2134 52.8293 81.7084 53.1974 82.0659C53.95 82.7809 54.8399 82.9349 55.3947 82.9239C55.9605 82.9074 56.2627 82.7644 56.2682 82.7919Z" fill="#263238"/>
<path d="M39.5575 91.938C39.552 91.938 39.53 91.894 39.4916 91.806C39.4531 91.718 39.4037 91.5805 39.3542 91.3935C39.2609 91.0305 39.1839 90.464 39.3158 89.7765C39.4476 89.0945 39.8047 88.275 40.5463 87.648C41.2714 87.0265 42.3536 86.6085 43.5127 86.746L43.3973 86.8065C43.8423 85.8715 44.6828 85.0245 45.7595 84.5735C46.5615 84.2325 47.4294 84.1555 48.226 84.2875C49.0225 84.4195 49.7421 84.7495 50.3134 85.1895L50.1981 85.1785C51.0386 84.733 51.9285 84.5625 52.6975 84.579C53.4721 84.5845 54.1423 84.766 54.6532 84.9805C55.1695 85.195 55.5376 85.4425 55.7738 85.6295C56.0045 85.822 56.1144 85.9375 56.1089 85.943C56.0869 85.9815 55.631 85.492 54.6037 85.1015C54.0929 84.9145 53.4446 84.7495 52.6921 84.7605C51.945 84.755 51.0935 84.931 50.297 85.3655L50.2365 85.3985L50.1816 85.3545C49.6378 84.9365 48.9456 84.6285 48.193 84.5075C47.4349 84.3865 46.6109 84.4635 45.8583 84.7825C44.8366 85.2115 44.0346 86.0145 43.6061 86.8945L43.5731 86.966L43.4907 86.955C42.4085 86.8175 41.3758 87.2025 40.6781 87.78C39.9695 88.363 39.6069 89.133 39.4641 89.7875C39.3158 90.4475 39.3707 90.9975 39.4366 91.3605C39.5026 91.74 39.5795 91.9325 39.5575 91.938Z" fill="#263238"/>
<path d="M102.126 157.157L100.149 154.159L96.9737 152.564L96.8529 152.476C95.8147 151.717 94.4908 151.475 93.2493 151.805C91.9583 152.152 90.2279 152.581 88.7337 152.834L85.3169 151.899V158.576L102.56 157.487L102.126 157.157Z" fill="#AE7461"/>
<path d="M102.006 156.976C102.022 156.954 101.742 156.701 101.275 156.31C100.808 155.92 100.154 155.392 99.4238 154.82C99.1876 154.638 98.9568 154.457 98.7371 154.286L98.7151 154.27L98.6932 154.264C97.9845 154.132 97.3748 154.022 96.9353 153.956C96.4958 153.89 96.2321 153.857 96.2267 153.885C96.2212 153.907 96.4739 153.984 96.9078 154.088C97.3418 154.193 97.9461 154.325 98.6547 154.468L98.6108 154.446C98.825 154.616 99.0557 154.798 99.2919 154.985C100.023 155.557 100.693 156.063 101.182 156.426C101.676 156.789 101.984 156.998 102.006 156.976Z" fill="#6F4439"/>
<path d="M100.66 157.559C100.687 157.509 99.5775 156.838 98.1822 156.057C97.9735 155.942 97.7702 155.832 97.578 155.727L97.556 155.716H97.534C96.2706 155.645 95.3312 155.628 95.3257 155.678C95.3202 155.727 96.2541 155.832 97.5176 155.925L97.4736 155.914C97.6659 156.024 97.8691 156.134 98.0779 156.25C99.4732 157.02 100.632 157.608 100.66 157.559Z" fill="#6F4439"/>
<path d="M122.194 138.259C121.617 137.934 120.886 138.088 120.496 138.622L106.609 157.454L84.6357 157.751C83.7567 157.806 82.691 159.577 83.4821 160.44L108.295 160.099L122.622 140.173C123.073 139.535 122.88 138.644 122.194 138.259Z" fill="#E0E0E0"/>
<path d="M55.6254 116.447C54.4389 116.579 52.7909 117.343 51.9339 118.174C50.5386 119.527 49.5223 121.386 48.9785 123.025C48.2424 125.23 48.572 133.92 48.572 136.439C48.572 138.958 49.2092 148.418 49.5278 149.991C49.8464 151.564 49.3246 153.907 48.594 155.425C47.2866 158.153 49.3246 159.556 49.3246 159.556L76.2914 159.352L76.1815 158.346C75.9947 156.591 76.6484 154.804 75.9837 153.17C75.2861 151.46 74.5005 148.759 74.7422 145.608C75.0883 141.109 76.4287 138.04 75.6047 135.433C74.3467 131.451 70.1938 122.398 65.1783 118.531C65.1783 118.531 61.2231 117.684 60.3277 117.371C58.2897 116.656 57.213 116.271 55.6254 116.447Z" fill="#FDD522"/>
<path d="M87.333 151.124L64.2939 146.306L63.7006 126.281C63.7006 126.281 62.8931 118.124 58.8116 117.365L48.9785 129.619C49.5278 135.796 49.028 147.483 51.8625 151.988C54.6971 156.492 57.4547 160.106 64.4368 159.787C71.4188 159.468 86.8001 159.319 86.8001 159.319L87.333 151.124Z" fill="#FDD522"/>
<path d="M64.3378 146.388C64.3928 146.432 63.8379 147.153 63.3765 148.159C62.9041 149.16 62.7063 150.051 62.6404 150.035C62.58 150.029 62.6788 149.094 63.1677 148.06C63.6457 147.021 64.2994 146.35 64.3378 146.388Z" fill="#263238"/>
<g opacity="0.3">
<path d="M63.5413 125.428C65.843 132.506 65.3431 143.424 69.7322 147.444L64.2938 146.306C64.2938 146.306 64.4751 144.205 64.3378 142.461C63.8983 136.868 63.8434 131.175 63.5413 125.428Z" fill="black"/>
</g>
<path d="M63.0305 122.903C63.0305 122.903 63.2227 123.448 63.4315 124.509C63.5358 125.043 63.6402 125.703 63.7116 126.489C63.7885 127.276 63.7995 128.189 63.838 129.206C63.9698 133.293 64.1566 139.156 64.3873 146.306L64.3104 146.218C70.9134 147.593 78.7853 149.232 87.3494 151.014L87.4483 151.036L87.4428 151.135C87.2725 153.758 87.0968 156.519 86.9155 159.33L86.91 159.44H86.8001C85.9102 159.451 84.9599 159.462 83.9985 159.473C79.9939 159.522 76.0881 159.583 72.3142 159.665C70.4245 159.704 68.5732 159.753 66.7604 159.814C64.9531 159.858 63.1568 160.034 61.4209 159.759C60.553 159.649 59.718 159.401 58.916 159.115C58.1304 158.785 57.3723 158.4 56.7021 157.905C55.3453 156.937 54.2906 155.694 53.3787 154.446C52.9282 153.813 52.5052 153.181 52.1042 152.554L51.8076 152.086C51.7142 151.927 51.6318 151.756 51.5439 151.597C51.456 151.432 51.3736 151.272 51.2857 151.107C51.2198 150.937 51.1539 150.766 51.088 150.601C50.5661 149.254 50.264 147.895 50.0607 146.597C49.6322 143.996 49.5004 141.62 49.385 139.535C49.2806 137.451 49.2367 135.652 49.1818 134.184C49.1378 132.715 49.0829 131.577 49.0444 130.807C49.0225 130.427 49.0005 130.136 48.9895 129.927C48.9785 129.729 48.9785 129.624 48.9785 129.624C48.9785 129.624 48.995 129.723 49.0115 129.921C49.028 130.125 49.0554 130.416 49.0884 130.796C49.1433 131.566 49.2092 132.704 49.2697 134.173C49.3356 135.641 49.396 137.434 49.5114 139.519C49.6377 141.598 49.7805 143.974 50.22 146.559C50.4288 147.851 50.7364 149.199 51.2528 150.524C51.3187 150.689 51.3846 150.854 51.4505 151.025C51.5329 151.184 51.6208 151.338 51.7032 151.498C51.7911 151.657 51.868 151.817 51.9614 151.976L52.258 152.444C52.659 153.071 53.082 153.698 53.5325 154.325C54.4444 155.557 55.4881 156.783 56.8175 157.729C57.4767 158.213 58.2128 158.587 58.9874 158.912C59.7729 159.192 60.5914 159.434 61.4484 159.539C63.1513 159.803 64.9312 159.632 66.7494 159.583C68.5677 159.522 70.419 159.473 72.3087 159.429C76.0826 159.346 79.9939 159.28 83.9985 159.231C84.9599 159.22 85.9102 159.209 86.8001 159.198L86.6848 159.308C86.866 156.497 87.0473 153.736 87.2176 151.113L87.311 151.234C78.7469 149.435 70.8804 147.785 64.2774 146.399L64.206 146.383V146.311C64.0083 139.161 63.849 133.298 63.7391 129.212C63.7061 128.194 63.7061 127.281 63.6402 126.5C63.5798 125.714 63.4809 125.054 63.3875 124.52C63.2941 123.987 63.2008 123.585 63.1348 123.316C63.1019 123.184 63.0799 123.085 63.0579 123.008C63.036 122.942 63.0305 122.903 63.0305 122.903Z" fill="#263238"/>
<path d="M100.006 200.277L96.5892 225.506L105.538 226.974L111.899 204.589L100.006 200.277Z" fill="#AE7461"/>
<path d="M72.88 161.508C72.88 161.508 105.587 159.352 112.377 160.435C116.481 161.09 120.018 167.514 117.783 171.369C116.722 173.195 115.058 178.882 115.058 178.882L97.4792 174.867L72.88 161.508Z" fill="#455A64"/>
<path d="M97.4737 178.888L90.3928 189.706L98.7262 195.113L107.768 181.236L97.4737 178.888Z" fill="#AE7461"/>
<path d="M49.9728 159.528C49.9728 159.528 46.5175 174.779 52.0933 180.774C56.0649 185.042 65.8156 184.591 74.0446 184.591C82.3835 184.591 101.627 184.14 101.627 184.14C101.627 184.14 100.753 189.503 100.11 195.608C99.4678 201.729 99.3414 205.568 99.3414 205.568L111.608 206.591C111.608 206.591 118.442 185.768 119.491 181.643C120.54 177.524 120.189 171.98 116.552 169.923C113.47 168.179 89.1787 161.436 77.5494 160.435L76.2859 159.352L49.9728 159.528Z" fill="#455A64"/>
<path d="M107.631 179.129C107.636 179.173 107.158 179.239 106.428 179.498C106.065 179.624 105.642 179.817 105.203 180.07C104.763 180.328 104.307 180.653 103.868 181.043C103.434 181.439 103.066 181.863 102.764 182.275C102.473 182.693 102.236 183.089 102.072 183.436C101.737 184.134 101.621 184.607 101.577 184.596C101.561 184.591 101.583 184.47 101.627 184.255C101.671 184.041 101.77 183.733 101.918 183.37C102.066 183.001 102.291 182.583 102.588 182.149C102.89 181.72 103.264 181.274 103.709 180.867C104.159 180.466 104.643 180.136 105.098 179.883C105.56 179.635 105.999 179.454 106.378 179.344C106.757 179.228 107.071 179.162 107.29 179.146C107.51 179.118 107.631 179.113 107.631 179.129Z" fill="#263238"/>
<path d="M106.175 166.551C106.12 166.524 106.378 165.93 106.823 165.281C107.268 164.626 107.719 164.17 107.768 164.214C107.818 164.258 107.45 164.769 107.016 165.413C106.576 166.051 106.236 166.584 106.175 166.551Z" fill="#263238"/>
<path d="M120.013 175.851C120.007 175.851 119.996 175.813 119.974 175.736C119.952 175.642 119.925 175.527 119.892 175.389C119.821 175.081 119.705 174.63 119.524 174.064C119.337 173.497 119.079 172.81 118.65 172.078C118.227 171.363 117.618 170.56 116.673 170.087C114.734 169.207 112.317 168.366 109.603 167.574C106.889 166.76 103.901 165.902 100.742 165.066C94.4248 163.388 88.6294 162.184 84.405 161.485C82.2956 161.128 80.5761 160.886 79.3951 160.721C78.8128 160.644 78.3568 160.578 78.0272 160.534C77.8844 160.512 77.7636 160.495 77.6702 160.479C77.5878 160.468 77.5493 160.457 77.5493 160.451C77.5493 160.446 77.5933 160.446 77.6702 160.451C77.7636 160.457 77.8844 160.468 78.0272 160.484C78.3568 160.517 78.8183 160.567 79.4006 160.627C80.5926 160.765 82.312 160.985 84.427 161.32C88.6623 161.98 94.4743 163.157 100.797 164.84C103.956 165.676 106.95 166.545 109.663 167.37C112.383 168.173 114.794 169.031 116.744 169.944C117.728 170.45 118.337 171.286 118.76 172.018C119.183 172.766 119.43 173.464 119.606 174.042C119.777 174.619 119.875 175.076 119.936 175.384C119.958 175.527 119.98 175.648 119.996 175.736C120.013 175.807 120.018 175.851 120.013 175.851Z" fill="#263238"/>
<path d="M106.23 226.32L106.527 225.225C102.731 224.829 99.3414 223.416 96.6496 220.963L93.6173 227.524L113.838 236.522C114.602 234.592 106.23 226.32 106.23 226.32Z" fill="#263238"/>
<path d="M93.6228 227.524L94.3644 225.924L113.514 235.169C113.514 235.169 114.234 235.95 113.844 236.522L93.6228 227.524Z" fill="#E0E0E0"/>
<path d="M105.961 226.193C105.911 226.286 105.4 226.11 104.769 226.204C104.137 226.281 103.692 226.589 103.615 226.506C103.533 226.446 103.95 225.94 104.714 225.835C105.483 225.731 106.021 226.11 105.961 226.193Z" fill="#E0E0E0"/>
<path d="M98.0944 225.489C97.9571 225.775 97.6055 225.891 97.3144 225.759C97.0232 225.621 96.9024 225.286 97.0397 225C97.1771 224.714 97.5286 224.598 97.8198 224.73C98.1109 224.868 98.2318 225.203 98.0944 225.489Z" fill="#E0E0E0"/>
<path d="M105.84 226.056C105.835 226.073 105.67 226.051 105.384 225.974C105.104 225.891 104.653 225.77 104.247 225.369C104.148 225.27 104.06 225.149 103.983 225.022C103.906 224.89 103.829 224.747 103.813 224.555C103.785 224.362 103.928 224.126 104.132 224.054C104.329 223.966 104.566 223.999 104.747 224.082C105.444 224.417 105.983 225.176 105.999 226.056L105.703 226.012C105.752 225.864 105.818 225.704 105.9 225.556C106.356 224.736 107.279 224.291 108.092 224.313C108.197 224.313 108.312 224.318 108.433 224.379C108.554 224.439 108.642 224.56 108.664 224.676C108.708 224.912 108.62 225.105 108.515 225.259C108.306 225.567 108.015 225.759 107.741 225.88C107.175 226.133 106.669 226.084 106.351 226.089C106.021 226.089 105.84 226.078 105.84 226.056C105.84 226.034 106.021 226.007 106.345 225.985C106.664 225.946 107.147 225.957 107.642 225.704C107.884 225.583 108.136 225.396 108.296 225.138C108.378 225.017 108.422 224.863 108.394 224.742C108.367 224.626 108.274 224.588 108.087 224.593C107.367 224.588 106.565 224.984 106.164 225.704C106.093 225.836 106.032 225.968 105.988 226.1C105.961 226.177 105.878 226.221 105.796 226.199C105.73 226.177 105.692 226.122 105.686 226.056C105.681 225.297 105.203 224.61 104.626 224.324C104.351 224.175 104.033 224.302 104.055 224.544C104.077 224.791 104.241 225.055 104.401 225.231C104.736 225.605 105.153 225.754 105.417 225.869C105.692 225.979 105.845 226.04 105.84 226.056Z" fill="#E0E0E0"/>
<path d="M107.51 227.596C107.493 227.662 106.889 227.502 106.175 227.689C105.455 227.86 104.994 228.283 104.95 228.234C104.895 228.201 105.324 227.656 106.12 227.464C106.911 227.26 107.543 227.546 107.51 227.596Z" fill="#E0E0E0"/>
<path d="M108.642 228.883C108.636 228.949 108.087 228.932 107.455 229.125C106.823 229.306 106.373 229.62 106.329 229.565C106.285 229.521 106.702 229.097 107.389 228.899C108.07 228.696 108.653 228.822 108.642 228.883Z" fill="#E0E0E0"/>
<path d="M100.314 193.891L100.792 192.863C97.1166 191.829 94.0129 189.871 91.7716 187L87.6791 192.956L106.098 205.238C107.175 203.456 100.314 193.891 100.314 193.891Z" fill="#263238"/>
<path d="M87.6791 192.957L88.6789 191.499L105.999 203.841C105.999 203.841 106.576 204.732 106.098 205.233L87.6791 192.957Z" fill="#E0E0E0"/>
<path d="M100.067 193.721C100.001 193.809 99.5283 193.545 98.891 193.534C98.2538 193.501 97.7649 193.732 97.7045 193.639C97.6331 193.567 98.1274 193.133 98.902 193.166C99.6711 193.188 100.144 193.655 100.067 193.721Z" fill="white"/>
<path d="M92.4309 191.702C92.2441 191.961 91.8815 192.016 91.6178 191.834C91.3542 191.653 91.2882 191.295 91.475 191.042C91.6618 190.784 92.0244 190.729 92.288 190.91C92.5517 191.092 92.6121 191.444 92.4309 191.702Z" fill="#E0E0E0"/>
<path d="M99.9676 193.567C99.9566 193.584 99.8028 193.534 99.5282 193.408C99.2645 193.276 98.8415 193.083 98.5119 192.621C98.4295 192.506 98.3636 192.374 98.3086 192.231C98.2537 192.088 98.2043 191.934 98.2207 191.741C98.2262 191.549 98.402 191.34 98.6163 191.301C98.825 191.246 99.0502 191.323 99.215 191.433C99.8468 191.879 100.248 192.72 100.116 193.589L99.8303 193.496C99.9017 193.358 99.9951 193.215 100.105 193.083C100.693 192.352 101.676 192.071 102.473 192.231C102.571 192.247 102.687 192.275 102.797 192.352C102.907 192.429 102.972 192.566 102.972 192.687C102.978 192.924 102.857 193.105 102.731 193.237C102.473 193.507 102.154 193.644 101.863 193.721C101.264 193.875 100.775 193.743 100.462 193.694C100.143 193.628 99.9676 193.589 99.9676 193.567C99.9676 193.545 100.154 193.551 100.479 193.578C100.803 193.595 101.275 193.683 101.802 193.518C102.066 193.435 102.341 193.298 102.544 193.072C102.643 192.968 102.714 192.819 102.709 192.698C102.703 192.583 102.615 192.528 102.429 192.5C101.72 192.374 100.863 192.627 100.347 193.27C100.253 193.386 100.171 193.512 100.105 193.633C100.067 193.705 99.9731 193.738 99.9017 193.699C99.8413 193.672 99.8083 193.606 99.8193 193.54C99.9402 192.792 99.5831 192.033 99.0667 191.653C98.8195 191.461 98.4844 191.532 98.4679 191.774C98.446 192.022 98.5668 192.308 98.6932 192.511C98.9569 192.935 99.3469 193.155 99.5886 193.309C99.8358 193.463 99.9786 193.551 99.9676 193.567Z" fill="white"/>
<path d="M101.357 195.366C101.33 195.432 100.759 195.168 100.023 195.234C99.2865 195.283 98.7591 195.624 98.7207 195.564C98.6712 195.525 99.1876 195.058 100.001 195.003C100.819 194.937 101.401 195.322 101.357 195.366Z" fill="white"/>
<path d="M102.253 196.823C102.236 196.889 101.698 196.779 101.044 196.861C100.391 196.933 99.8908 197.169 99.8578 197.109C99.8248 197.059 100.303 196.713 101.017 196.63C101.726 196.542 102.28 196.768 102.253 196.823Z" fill="white"/>
</svg>
