<svg width="408" height="375" viewBox="0 0 408 375" fill="none" xmlns="http://www.w3.org/2000/svg">
<g clip-path="url(#clip0_5064_33570)">
<path d="M288.307 233.465H311.719V226.009H288.307V233.465Z" fill="#EBEBEB"/>
<path d="M301.373 242.868C305.261 242.802 315.23 242.635 318.985 242.595L324.785 242.569L324.479 242.875L324.452 235.419L324.785 235.752C320.896 235.739 310.981 235.706 307.226 235.652L301.373 235.579L301.533 235.419L301.373 242.875V242.868ZM301.373 242.868L301.213 235.412V235.259H301.373C304.296 235.219 310.156 235.153 313.079 235.133L324.785 235.086H325.118V235.419L325.091 242.875V243.182H324.785L318.879 243.155C315.15 243.115 305.221 242.948 301.373 242.882V242.868Z" fill="#EBEBEB"/>
<path d="M211.937 281.782C215.826 281.716 225.794 281.549 229.55 281.509L235.349 281.483L235.043 281.789L235.016 274.333L235.349 274.666L223.643 274.62C220.727 274.6 214.854 274.526 211.937 274.493L212.097 274.333L211.937 281.789V281.782ZM211.937 281.782L211.777 274.327V274.173H211.937C214.86 274.133 220.72 274.067 223.643 274.047L235.349 274H235.682V274.333L235.656 281.789V282.096H235.349L229.443 282.069C225.714 282.029 215.786 281.862 211.937 281.796V281.782Z" fill="#EBEBEB"/>
<path d="M224.996 291.189C228.884 291.122 238.853 290.956 242.608 290.916L248.408 290.889L248.102 291.195L248.075 283.739L248.408 284.073C244.519 284.059 234.604 284.026 230.849 283.973L224.996 283.899L225.156 283.739L224.996 291.195V291.189ZM224.996 291.189L224.836 283.733V283.579H224.996C227.919 283.539 233.779 283.473 236.702 283.453L248.408 283.406H248.741V283.739L248.714 291.195V291.502H248.408L242.502 291.475C238.773 291.435 228.845 291.269 224.996 291.202V291.189Z" fill="#EBEBEB"/>
<path d="M238.006 281.781H261.418V274.325H238.006V281.781Z" fill="#EBEBEB"/>
<path d="M104.473 303.613H127.885V296.157H104.473V303.613Z" fill="#EBEBEB"/>
<path d="M80.8397 62.8906H104.252V55.4347H80.8397V62.8906Z" fill="#EBEBEB"/>
<path d="M67.775 72.2942C71.6638 72.2276 81.6319 72.061 85.3875 72.021L91.1873 71.9943L90.881 72.3008L90.8543 64.8449L91.1873 65.178C87.2986 65.1647 77.3836 65.1314 73.6281 65.0781L67.775 65.0048L67.9349 64.8449L67.775 72.3008V72.2942ZM67.775 72.2942L67.6152 64.8382V64.685H67.775C70.6982 64.645 76.558 64.5784 79.4812 64.5584L91.1873 64.5117H91.5202V64.8449L91.4936 72.3008V72.6073H91.1873L85.281 72.5807C81.552 72.5407 71.6238 72.3741 67.775 72.3075V72.2942Z" fill="#EBEBEB"/>
<path d="M286.787 62.8997C290.675 62.833 300.644 62.6664 304.399 62.6265L310.199 62.5998L309.893 62.9063L309.866 55.4503L310.199 55.7835L298.493 55.7369C295.576 55.7169 289.703 55.6436 286.787 55.6103L286.947 55.4503L286.787 62.9063V62.8997ZM286.787 62.8997L286.627 55.4437V55.2904H286.787C289.71 55.2504 295.57 55.1838 298.493 55.1638L310.199 55.1172H310.532V55.4503L310.505 62.9063V63.2128H310.199L304.293 63.1862C300.564 63.1462 290.636 62.9796 286.787 62.913V62.8997Z" fill="#EBEBEB"/>
<path d="M315.176 194.138L262.252 181.191L278.866 113.215L318.159 122.823L328.62 139.114L315.176 194.138Z" fill="#EBEBEB"/>
<path d="M318.159 122.824L328.62 139.115L314.996 135.777L318.159 122.824Z" fill="#DBDBDB"/>
<path d="M280.814 127.625L310.238 134.824L310.665 133.077L281.241 125.877L280.814 127.625Z" fill="#DBDBDB"/>
<path d="M279.738 132.035L309.162 139.234L309.589 137.487L280.165 130.288L279.738 132.035Z" fill="#DBDBDB"/>
<path d="M278.662 136.441L308.086 143.641L308.513 141.893L279.089 134.694L278.662 136.441Z" fill="#DBDBDB"/>
<path d="M277.587 140.847L320.697 151.395L321.124 149.647L278.014 139.099L277.587 140.847Z" fill="#DBDBDB"/>
<path d="M276.507 145.249L319.617 155.797L320.044 154.049L276.934 143.501L276.507 145.249Z" fill="#DBDBDB"/>
<path d="M275.432 149.659L318.543 160.207L318.97 158.459L275.859 147.912L275.432 149.659Z" fill="#DBDBDB"/>
<path d="M274.356 154.065L317.467 164.613L317.894 162.866L274.783 152.318L274.356 154.065Z" fill="#DBDBDB"/>
<path d="M273.272 158.472L316.383 169.02L316.81 167.272L273.699 156.724L273.272 158.472Z" fill="#DBDBDB"/>
<path d="M272.204 162.874L315.314 173.422L315.741 171.674L272.631 161.126L272.204 162.874Z" fill="#DBDBDB"/>
<path d="M271.128 167.28L314.238 177.828L314.665 176.081L271.555 165.533L271.128 167.28Z" fill="#DBDBDB"/>
<path d="M270.046 171.683L313.156 182.23L313.583 180.483L270.473 169.935L270.046 171.683Z" fill="#DBDBDB"/>
<path d="M268.967 176.097L312.078 186.645L312.505 184.897L269.394 174.349L268.967 176.097Z" fill="#DBDBDB"/>
<path d="M325.045 194.016C323.793 199.146 318.619 202.284 313.492 201.032C308.365 199.779 305.228 194.602 306.48 189.471C307.732 184.341 312.906 181.202 318.033 182.455C323.161 183.708 326.297 188.885 325.045 194.016Z" fill="#C7C7C7"/>
<path d="M320.937 190.522L311.732 188.27L309.691 196.625L318.895 198.877L320.937 190.522Z" fill="white"/>
<path d="M319.383 192.876L318.451 192.65L319.363 188.919C319.736 187.406 318.804 185.873 317.292 185.5C315.781 185.127 314.249 186.06 313.877 187.573L312.964 191.304L312.025 191.077L312.938 187.346C313.437 185.314 315.488 184.068 317.519 184.561C319.55 185.061 320.795 187.113 320.302 189.145L319.39 192.876H319.383Z" fill="white"/>
<path d="M315.675 193.776L315.615 195.702L313.977 195.302L314.809 193.57C314.616 193.37 314.523 193.076 314.596 192.783C314.709 192.33 315.162 192.057 315.615 192.164C316.067 192.277 316.34 192.723 316.234 193.183C316.161 193.476 315.948 193.689 315.681 193.783L315.675 193.776Z" fill="#C7C7C7"/>
<path d="M83.2738 256.492L147.787 236.805L133.514 189.974L69.0011 209.661L83.2738 256.492Z" fill="#EBEBEB"/>
<path d="M85.14 252.986L144.297 234.934L131.664 193.482L72.5067 211.534L85.14 252.986Z" fill="white"/>
<path d="M83.0217 221.202C84.1004 224.733 87.8294 226.726 91.3585 225.646C94.8877 224.567 96.8786 220.836 95.7999 217.304C94.7212 213.773 90.9923 211.78 87.4631 212.86C83.934 213.939 81.943 217.671 83.0217 221.202Z" fill="#DBDBDB"/>
<path d="M102.297 247.99L143.635 235.377L114.422 213.648L102.297 247.99Z" fill="#DBDBDB"/>
<path d="M86.0977 252.945L120.224 242.531L97.5973 229.484L86.0977 252.945Z" fill="#EBEBEB"/>
<path d="M77.3323 285.321L138.244 256.34L117.234 212.123L56.322 241.104L77.3323 285.321Z" fill="#EBEBEB"/>
<path d="M78.6593 281.575L134.514 255L115.917 215.862L60.0622 242.437L78.6593 281.575Z" fill="white"/>
<path d="M71.8637 250.468C73.4485 253.8 77.4305 255.219 80.7665 253.633C84.0959 252.047 85.5142 248.063 83.9294 244.724C82.3446 241.393 78.3627 239.974 75.0267 241.559C71.6973 243.145 70.279 247.13 71.8637 250.468Z" fill="#DBDBDB"/>
<path d="M94.877 274.121L133.904 255.545L101.809 238.367L94.877 274.121Z" fill="#DBDBDB"/>
<path d="M79.582 281.416L111.804 266.084L87.4993 256.516L79.582 281.416Z" fill="#EBEBEB"/>
<path d="M143.245 84.5998C145.227 76.1143 139.958 67.6283 131.478 65.6459C122.998 63.6634 114.518 68.9352 112.536 77.4207C110.555 85.9063 115.824 94.3923 124.304 96.3747C132.784 98.3572 141.264 93.0854 143.245 84.5998Z" fill="#EBEBEB"/>
<path d="M118.623 81.0585C118.623 75.7414 123.058 71.497 128.332 71.457C130.622 71.457 132.766 72.2966 134.404 73.5626C135.283 74.2489 135.436 75.5482 134.83 76.3944C134.065 77.3139 132.84 77.4671 131.961 76.7742C130.968 76.0479 129.743 75.5482 128.332 75.5482C125.235 75.5482 122.672 78.1134 122.672 81.0585C122.672 84.0036 125.235 86.5289 128.332 86.5289C129.71 86.5289 130.968 86.0292 131.961 85.3029C132.806 84.6566 134.065 84.8032 134.83 85.7227C135.443 86.5622 135.29 87.7882 134.404 88.5545C132.76 89.7405 130.622 90.58 128.332 90.58C123.058 90.58 118.623 86.2957 118.623 81.0585Z" fill="white"/>
<path d="M408.002 352.711C279.464 353.31 135.282 353.32 6.74414 352.711C135.282 352.102 279.464 352.112 408.002 352.711Z" fill="#263238"/>
<path d="M127.997 113.799C127.997 113.799 133.564 157.189 127.238 168.923C119.641 183.002 111.557 183.335 108.82 190.291C108.814 190.291 108.814 190.305 108.814 190.305C103.034 185.561 95.8156 189.212 82.3183 180.617C71.0716 173.441 54.8242 132.836 54.8242 132.836C75.1068 115.785 85.328 99.9336 85.328 99.9336H85.3414C85.8541 100.213 102.394 108.882 127.997 113.806V113.799Z" fill="#455A64"/>
<path opacity="0.1" d="M85.3414 99.9336L108.814 190.285L108.807 190.298C103.027 185.554 95.8089 189.205 82.3116 180.61C71.0716 173.441 54.8242 132.836 54.8242 132.836C75.1068 115.785 85.328 99.9336 85.328 99.9336H85.3414Z" fill="black"/>
<path d="M61.3848 134.746C61.3848 134.746 75.1151 169.048 84.6106 175.105C96.017 182.374 102.116 179.282 106.997 183.287C109.315 177.41 116.146 177.137 122.572 165.23C127.919 155.315 123.205 118.662 123.205 118.662C101.231 114.431 87.1675 106.941 87.1675 106.941C87.1675 106.941 78.5178 120.334 61.3848 134.74V134.746Z" fill="#455A64"/>
<path opacity="0.1" d="M61.3848 134.746C61.3848 134.746 75.1151 169.048 84.6106 175.105C96.017 182.374 102.116 179.282 106.997 183.287C109.315 177.41 116.146 177.137 122.572 165.23C127.919 155.315 123.205 118.662 123.205 118.662C101.231 114.431 87.1675 106.941 87.1675 106.941C87.1675 106.941 78.5178 120.334 61.3848 134.74V134.746Z" fill="black"/>
<path opacity="0.1" d="M61.3836 134.749C61.3836 134.749 75.114 169.05 84.6094 175.107C96.0026 182.376 102.102 179.291 106.983 183.282L87.153 106.957C86.8867 107.363 78.2436 120.563 61.377 134.749H61.3836Z" fill="black"/>
<path d="M103.406 134.909L105.763 143.991L103.2 144.657L100.843 135.576C99.9436 132.124 96.5942 129.992 93.3647 130.831C90.1419 131.671 88.2441 135.162 89.1431 138.614L91.5003 147.696L88.9366 148.362L86.5794 139.28C85.2943 134.33 88.0244 129.326 92.6656 128.12C97.3067 126.914 102.128 129.952 103.413 134.903L103.406 134.909Z" fill="white"/>
<path d="M109.227 138.373L83.1777 145.148L88.1678 164.359L114.217 157.584L109.227 138.373Z" fill="white"/>
<path d="M99.8457 151.703L102.063 156.154L97.8481 157.247L97.615 152.276C96.9225 152.057 96.3565 151.504 96.1634 150.757C95.8571 149.585 96.5629 148.405 97.7215 148.105C98.8802 147.806 100.072 148.492 100.372 149.665C100.565 150.417 100.338 151.17 99.839 151.703H99.8457Z" fill="#455A64"/>
<path d="M291.488 285.691C291.488 285.691 296.855 266.428 301.137 259.885C305.418 253.342 313.402 246.152 313.402 246.152C313.402 246.152 313.216 275.856 291.488 285.691Z" fill="#FFC727"/>
<path d="M291.867 285.357C293.705 282.365 295.263 279.214 296.755 276.022C297.414 272.604 298.22 269.159 299.418 265.894C299.438 265.834 299.525 265.868 299.511 265.928C298.799 268.973 297.973 271.984 297.221 275.023C299.385 270.332 301.442 265.588 304.026 261.157C304.545 259.011 305.531 256.939 306.51 254.994C306.536 254.94 306.63 254.967 306.603 255.027C305.917 256.533 305.418 258.092 304.932 259.651C306.15 257.692 307.489 255.8 309.007 254.021C309.1 253.907 309.287 254.034 309.193 254.154C305.744 258.558 303.367 263.569 301.096 268.639C303.547 266.021 305.777 263.149 307.828 260.224C307.848 260.191 307.895 260.224 307.875 260.257C305.757 263.629 303.314 266.654 300.67 269.606C299.019 273.324 297.394 277.055 295.43 280.586C299.365 277.262 302.388 272.957 305.384 268.806C305.451 268.713 305.598 268.806 305.531 268.906C302.535 273.464 299.438 277.755 295.123 281.126C294.244 282.672 293.299 284.178 292.247 285.63C292.074 285.87 291.714 285.624 291.867 285.37V285.357Z" fill="#263238"/>
<path d="M290.473 285.713C290.473 285.713 300.115 267.949 297.311 250.725C294.508 233.501 291.511 227.371 291.511 227.371C291.511 227.371 276.356 254.157 290.473 285.713Z" fill="#FFC727"/>
<path d="M286.509 257.791C287.282 262.761 288.627 267.419 290.231 272.136C290.258 265.813 290.378 259.496 290.544 253.173C289.432 249.329 288.88 245.397 288.727 241.4C288.727 241.28 288.893 241.293 288.906 241.4C289.193 244.838 289.792 248.189 290.598 251.527C290.744 246.31 290.917 241.1 291.104 235.889C291.104 235.803 291.237 235.803 291.237 235.889C291.23 244.031 291.237 252.18 291.184 260.323C292.429 257.184 293.208 253.959 293.96 250.648C293.967 250.615 294.02 250.621 294.014 250.655C293.727 254.459 292.569 258.137 291.17 261.669C291.13 266.872 291.077 272.083 290.964 277.287C292.595 271.75 294.34 266.393 294.806 260.543C294.806 260.463 294.933 260.463 294.926 260.543C294.799 266.992 293.135 273.542 291.011 279.606C290.984 279.672 290.951 279.719 290.904 279.759C290.857 281.664 290.804 283.563 290.738 285.469C290.731 285.742 290.318 285.736 290.311 285.462C290.238 281.571 290.212 277.68 290.218 273.782C288.054 268.778 286.902 263.201 286.416 257.791C286.416 257.744 286.496 257.731 286.503 257.784L286.509 257.791Z" fill="#263238"/>
<path d="M287.169 255.04C287.475 256.566 287.761 258.178 287.841 259.731C287.841 259.784 287.761 259.791 287.748 259.744C287.349 258.238 287.129 256.612 286.956 255.066C286.942 254.947 287.142 254.927 287.169 255.04Z" fill="#263238"/>
<path d="M292.808 242.059C292.815 242.006 292.902 242.026 292.902 242.072C292.915 243.139 292.702 244.285 292.415 245.311C292.389 245.397 292.269 245.357 292.282 245.271C292.495 244.205 292.622 243.132 292.808 242.059Z" fill="#263238"/>
<path d="M286.949 285.714C286.949 285.714 287.342 267.17 282.028 257.955C276.715 248.74 267.898 244.043 267.898 244.043C267.898 244.043 271.454 276.725 286.956 285.714H286.949Z" fill="#FFC727"/>
<path d="M277.256 269.851C279.494 273.069 281.711 276.174 284.448 278.973C283.389 275.182 282.157 271.457 280.766 267.792C277.782 265.18 274.833 262.468 273.001 258.89C272.975 258.83 273.055 258.784 273.088 258.837C275.052 262.009 277.683 264.541 280.446 266.979C278.322 261.469 275.851 256.099 273.048 250.855C272.975 250.721 273.168 250.608 273.248 250.735C274.952 253.467 276.497 256.298 277.889 259.197C277.39 257.211 276.99 255.186 276.484 253.22C276.471 253.167 276.551 253.147 276.571 253.2C277.516 255.679 278.448 258.417 278.755 261.063C280.612 265.174 282.177 269.418 283.436 273.749C283.296 270.971 283.123 268.199 282.836 265.427C282.836 265.374 282.916 265.36 282.93 265.414C283.509 268.492 283.809 271.624 283.735 274.755C284.501 277.52 285.147 280.312 285.666 283.131C285.68 283.204 285.567 283.237 285.547 283.164C285.26 281.985 284.947 280.812 284.628 279.646C284.608 279.639 284.588 279.646 284.568 279.619C281.718 276.761 279.008 273.503 277.23 269.858C277.223 269.838 277.243 269.825 277.256 269.838V269.851Z" fill="#263238"/>
<path d="M271.098 254.77C271.691 255.409 272.237 256.082 272.803 256.742C273.309 257.328 273.928 257.875 274.334 258.528C274.348 258.554 274.321 258.587 274.294 258.567C273.608 258.134 273.062 257.428 272.53 256.822C271.97 256.182 271.464 255.549 271.018 254.829C270.985 254.776 271.058 254.716 271.105 254.763L271.098 254.77Z" fill="#263238"/>
<path d="M302.104 287.074L301.432 295.856L299.414 322.408H281.801L279.784 295.856L279.111 287.074H302.097H302.104Z" fill="#37474F"/>
<path d="M302.105 287.069L301.699 292.406L279.592 293.292L279.119 287.062H302.105V287.069Z" fill="#263238"/>
<path d="M277.554 289.5H303.67V282.764H277.554V289.5Z" fill="#37474F"/>
<g opacity="0.5">
<path d="M262.199 216.94C258.897 258.377 224.391 270.871 224.391 270.871C221.854 277.167 218.551 293.192 218.551 293.192H172.499C172.499 293.192 169.196 277.174 166.659 270.871C166.659 270.871 132.16 258.377 128.851 216.94C126.554 188.148 147.043 145.585 195.279 145.578H195.778C244.014 145.585 264.503 188.148 262.206 216.94H262.199Z" fill="#FFC727"/>
</g>
<g opacity="0.7">
<path d="M256.506 217.146C253.483 255.046 221.927 266.473 221.927 266.473C219.61 272.237 216.58 293.185 216.58 293.185H174.457C174.457 293.185 171.434 272.23 169.11 266.473C169.11 266.473 137.554 255.046 134.531 217.146C132.433 190.814 151.171 151.882 195.285 151.875H195.745C239.859 151.882 258.604 190.814 256.5 217.146H256.506Z" fill="#FFC727"/>
</g>
<path d="M177.245 244.876L175.287 245.273L185.829 297.306L187.786 296.909L177.245 244.876Z" fill="white"/>
<path d="M213.812 244.899L203.271 296.926L205.229 297.323L215.77 245.297L213.812 244.899Z" fill="white"/>
<path d="M195.522 265.503C192.313 265.503 189.363 262.717 187.299 259.166C186.36 260.165 185.308 260.792 184.256 260.792C179.035 260.792 176.924 250.764 176.838 250.337L177.49 250.204C177.51 250.304 179.581 260.125 184.256 260.125C185.188 260.125 186.12 259.532 186.966 258.58C185.328 255.555 184.329 252.07 184.329 249.311C184.329 246.533 185.441 244.94 187.379 244.94C189.643 244.94 190.941 246.633 190.941 249.591C190.941 252.629 189.609 256.327 187.772 258.62C189.729 262.078 192.526 264.836 195.516 264.836C197.92 264.836 200.297 263.017 202.194 259.719C202.234 259.646 202.281 259.572 202.321 259.492C201.775 258.946 201.276 258.286 200.836 257.527C198.872 254.122 198.479 249.258 199.964 246.693C200.63 245.547 201.609 244.934 202.814 244.934C203.746 244.934 204.505 245.393 205.004 246.26C206.456 248.772 205.577 254.735 203.147 259.366C204.086 260.185 205.297 260.792 206.842 260.792C210.858 260.792 213.881 250.91 213.907 250.81L214.546 251.004C214.42 251.43 211.35 261.458 206.842 261.458C205.371 261.458 203.999 260.938 202.82 259.952C202.8 259.985 202.787 260.019 202.767 260.045C200.743 263.557 198.166 265.496 195.509 265.496L195.522 265.503ZM202.82 245.607C201.855 245.607 201.096 246.086 200.55 247.032C199.198 249.378 199.598 254.035 201.422 257.2C201.742 257.753 202.148 258.346 202.661 258.886C204.931 254.468 205.777 248.911 204.438 246.599C204.052 245.933 203.526 245.607 202.82 245.607ZM187.385 245.607C185.414 245.607 184.995 247.619 185.002 249.311C185.002 251.857 185.934 255.121 187.445 258C189.083 255.821 190.289 252.363 190.289 249.584C190.289 248.099 189.909 245.6 187.392 245.6L187.385 245.607Z" fill="white"/>
<path d="M224.367 293.242H166.676V325.012H224.367V293.242Z" fill="#455A64"/>
<path d="M217.827 325.016C214.437 331.032 207.925 336.423 195.52 336.423C183.114 336.423 176.609 331.039 173.213 325.016H217.827Z" fill="#455A64"/>
<path d="M217.828 325.011C216.856 326.73 215.637 328.395 214.092 329.895L174.373 326.843C173.953 326.237 173.567 325.63 173.221 325.004H217.834L217.828 325.011Z" fill="#37474F"/>
<path d="M226.058 299.303L164.99 304.953V302.182L226.058 296.531V299.303Z" fill="#37474F"/>
<path d="M226.058 307.69L164.99 313.34V310.568L226.058 304.918V307.69Z" fill="#37474F"/>
<path d="M226.058 316.084L164.99 321.735V318.963L226.058 313.312V316.084Z" fill="#37474F"/>
<g opacity="0.5">
<path d="M143.38 207.264C145.498 207.618 148.234 196.697 159.974 184.05C165.188 178.433 184.971 171.404 183.546 164.927C182.121 158.444 164.475 165.107 155.599 175.402C141.316 191.959 141.442 206.938 143.387 207.264H143.38Z" fill="white"/>
<path d="M247.457 209.538C251.345 209.538 251.352 203.488 247.457 203.488C243.561 203.488 243.561 209.538 247.457 209.538Z" fill="white"/>
<path d="M228.42 255.04C230.545 256.659 240.872 247.131 245.527 235.757C249.389 226.316 250.055 214.376 247.458 213.689C244.861 212.996 243.176 229.374 240.053 235.404C236.111 243.013 226.15 253.308 228.42 255.04Z" fill="white"/>
</g>
<path d="M171.725 213.182C171.725 199.523 183.124 188.609 196.675 188.516C202.568 188.516 208.062 190.674 212.29 193.919C214.554 195.685 214.947 199.03 213.375 201.189C211.411 203.548 208.268 203.941 206.004 202.175C203.454 200.309 200.311 199.03 196.682 199.03C188.724 199.03 182.139 205.62 182.139 213.182C182.139 220.745 188.718 227.235 196.682 227.235C200.217 227.235 203.454 225.955 206.004 224.09C208.168 222.424 211.411 222.81 213.375 225.176C214.94 227.335 214.554 230.48 212.29 232.445C208.068 235.497 202.575 237.656 196.675 237.656C183.118 237.656 171.725 226.648 171.725 213.182Z" fill="#FFC727"/>
<g opacity="0.1">
<path d="M171.725 213.182C171.725 199.523 183.124 188.609 196.675 188.516C202.568 188.516 208.062 190.674 212.29 193.919C214.554 195.685 214.947 199.03 213.375 201.189C211.411 203.548 208.268 203.941 206.004 202.175C203.454 200.309 200.311 199.03 196.682 199.03C188.724 199.03 182.139 205.62 182.139 213.182C182.139 220.745 188.718 227.235 196.682 227.235C200.217 227.235 203.454 225.955 206.004 224.09C208.168 222.424 211.411 222.81 213.375 225.176C214.94 227.335 214.554 230.48 212.29 232.445C208.068 235.497 202.575 237.656 196.675 237.656C183.118 237.656 171.725 226.648 171.725 213.182Z" fill="black"/>
</g>
<path d="M195.517 253.634C173.171 253.634 154.992 235.444 154.992 213.083C154.992 190.721 173.171 172.531 195.517 172.531C217.864 172.531 236.043 190.721 236.043 213.083C236.043 235.444 217.864 253.634 195.517 253.634ZM195.517 180.967C177.818 180.967 163.422 195.372 163.422 213.083C163.422 230.793 177.818 245.199 195.517 245.199C213.216 245.199 227.613 230.793 227.613 213.083C227.613 195.372 213.216 180.967 195.517 180.967Z" fill="#FFC727"/>
<path opacity="0.1" d="M195.517 253.634C173.171 253.634 154.992 235.444 154.992 213.083C154.992 190.721 173.171 172.531 195.517 172.531C217.864 172.531 236.043 190.721 236.043 213.083C236.043 235.444 217.864 253.634 195.517 253.634ZM195.517 180.967C177.818 180.967 163.422 195.372 163.422 213.083C163.422 230.793 177.818 245.199 195.517 245.199C213.216 245.199 227.613 230.793 227.613 213.083C227.613 195.372 213.216 180.967 195.517 180.967Z" fill="black"/>
<path d="M283.456 194.748C282.067 194.786 246.033 181.852 244.93 180.354C244.809 180.189 245.375 173.996 246.302 169.077C246.346 168.841 233.506 149.306 233.506 149.306L256.717 138.824L267.823 165.54L270.714 172.485C270.714 172.485 282.731 186.516 283.796 188.313C284.849 190.109 284.838 194.71 283.45 194.748H283.456Z" fill="#EB9481"/>
<path d="M283.457 194.743C282.068 194.775 246.034 181.847 244.931 180.343C244.81 180.177 245.376 173.984 246.303 169.065C246.303 168.989 245.48 167.682 244.262 165.777L268.564 167.3L270.715 172.48C270.715 172.48 282.738 186.511 283.802 188.307C284.85 190.104 284.845 194.704 283.457 194.743Z" fill="#EBEBEB"/>
<path d="M284.472 194.984C283.023 195.028 245.409 181.692 244.251 180.131C243.812 179.539 244.482 176.837 246.309 169.07L270.968 172.517C270.968 172.517 283.698 186.395 284.807 188.268C285.91 190.135 285.921 194.939 284.472 194.984Z" fill="#FFC727"/>
<path opacity="0.3" d="M284.472 194.984C283.023 195.028 245.409 181.692 244.251 180.131C243.812 179.539 244.482 176.837 246.309 169.07L270.968 172.517C270.968 172.517 283.698 186.395 284.807 188.268C285.91 190.135 285.921 194.939 284.472 194.984Z" fill="black"/>
<path d="M284.394 193.041C278.133 190.626 252.7 181.572 246.352 179.737C246.302 179.724 246.291 179.762 246.341 179.782C252.497 182.33 277.996 191.148 284.361 193.162C284.493 193.207 284.526 193.092 284.394 193.041Z" fill="#263238"/>
<path d="M282.804 185.836C281.328 185.237 279.649 185.543 278.562 186.289C277.52 187.002 276.483 188.162 276.126 189.698C276.115 189.742 276.187 189.768 276.203 189.723C277.317 186.983 280.22 185.263 282.782 185.926C282.831 185.938 282.859 185.855 282.804 185.836Z" fill="#263238"/>
<path d="M273.512 175.407C270.999 174.47 267.8 174.47 265.605 176.311C265.517 176.381 265.605 176.522 265.693 176.502C268.332 175.948 270.768 175.7 273.462 175.782C273.654 175.782 273.693 175.47 273.512 175.407Z" fill="#263238"/>
<path d="M275.23 176.977C272.717 176.04 269.518 176.04 267.323 177.882C267.236 177.952 267.323 178.092 267.411 178.073C270.051 177.518 272.487 177.27 275.181 177.353C275.373 177.353 275.412 177.041 275.23 176.977Z" fill="#263238"/>
<path d="M276.945 178.555C274.432 177.618 271.233 177.618 269.038 179.46C268.951 179.53 269.038 179.67 269.126 179.651C271.765 179.097 274.202 178.848 276.896 178.931C277.088 178.931 277.126 178.619 276.945 178.555Z" fill="#263238"/>
<path d="M278.666 180.125C276.153 179.189 272.954 179.189 270.759 181.03C270.671 181.1 270.759 181.24 270.847 181.221C273.486 180.667 275.922 180.418 278.617 180.501C278.809 180.501 278.847 180.189 278.666 180.125Z" fill="#263238"/>
<path d="M278.299 168.558C277.345 166.876 275.419 167.507 274.299 168.508C272.478 170.126 270.842 172.713 270.036 175.191C270.014 175.255 270.052 175.293 270.091 175.306C270.091 175.535 270.255 175.79 270.48 175.701C272.659 174.892 275.067 174.344 276.966 172.789C278.074 171.878 279.199 170.158 278.294 168.565L278.299 168.558ZM273.564 173.688C272.499 174.115 271.429 174.478 270.381 174.949C271.215 173.649 272 172.311 272.944 171.114C273.394 170.54 273.871 169.96 274.387 169.463C275.188 168.692 278.31 167.118 277.723 170.394C277.399 172.203 274.832 173.178 273.564 173.688Z" fill="#263238"/>
<path d="M263.479 174.051C265.575 175.223 268.033 175.3 270.294 175.675C270.53 175.714 270.656 175.433 270.623 175.21C270.661 175.191 270.689 175.147 270.661 175.089C269.514 172.802 267.528 170.565 265.503 169.323C264.252 168.552 262.266 168.303 261.563 170.145C260.9 171.891 262.255 173.369 263.479 174.057V174.051ZM262.392 171.84C261.344 168.718 264.647 169.667 265.547 170.279C266.129 170.667 266.678 171.152 267.204 171.629C268.307 172.63 269.273 173.802 270.283 174.924C269.18 174.662 268.071 174.509 266.963 174.293C265.64 174.032 262.968 173.566 262.392 171.846V171.84Z" fill="#263238"/>
<path d="M250.746 173.698C253.265 174.418 252.299 178.961 249.781 178.241C247.262 177.521 248.228 172.978 250.746 173.698Z" fill="white"/>
<path d="M267.939 162.846L242.352 167.237C242.352 167.237 229.452 141.725 223.811 134.404L223.795 134.391C223.427 133.907 223.081 133.518 222.763 133.218H222.752C222.395 132.976 221.77 132.798 220.903 132.677H220.892C213.325 131.606 187.859 134.48 170.262 133.161L178.481 120.405L182.125 114.747C201.95 112.122 226.28 102.711 237.255 109.102C249.178 116.047 267.933 162.846 267.933 162.846H267.939Z" fill="#263238"/>
<path d="M264.733 157.793C260.382 158.443 261.622 158.188 257.281 158.895C255.158 159.239 244.469 160.941 242.532 161.648C242.488 161.661 242.499 161.743 242.543 161.743C244.573 161.762 255.224 159.794 257.347 159.405C261.677 158.609 260.426 158.787 264.749 157.94C264.832 157.927 264.815 157.787 264.733 157.799V157.793Z" fill="#37474F"/>
<path d="M242.482 161.23C239.585 155.61 227.464 131.793 224.841 130.697C222.454 129.703 174.661 130.856 173.953 130.862C173.904 130.862 173.898 130.952 173.953 130.952C179.61 130.869 223.294 130.684 224.539 131.257C227.129 132.449 241.835 160.707 242.219 161.376C242.323 161.554 242.581 161.421 242.482 161.223V161.23Z" fill="#37474F"/>
<path d="M156.134 120.413C156.134 120.413 154.863 134.031 161.021 140.808C168.396 148.914 217.058 146.865 224.599 144.132C232.14 141.4 232.376 127.751 224.132 124.588C216.291 121.58 181.517 119.853 180.694 119.48C179.871 119.111 177.462 114.797 177.462 114.797L156.134 120.413Z" fill="#263238"/>
<path d="M166.431 120.03C166.422 119.963 166.33 119.983 166.33 120.046C166.334 121.767 165.77 123.577 164.762 124.879C163.606 126.372 161.905 127.212 160.361 128.089C160.213 128.172 160.324 128.431 160.476 128.379C161.415 128.063 162.344 127.601 163.2 127.062C163.981 126.569 164.702 125.952 165.248 125.148C166.256 123.67 166.7 121.866 166.427 120.025L166.431 120.03Z" fill="#37474F"/>
<path d="M180.363 118.632C180.021 118.139 179.642 117.667 179.286 117.19C178.435 116.054 177.584 114.919 176.692 113.825C176.609 113.721 176.442 113.866 176.521 113.98C177.122 114.862 177.755 115.712 178.379 116.568C178.698 117.009 179.022 117.444 179.346 117.88C179.646 118.289 180.021 118.694 180.247 119.161C180.478 119.648 180.173 120.063 179.725 120.12C179.323 120.167 178.948 119.939 178.638 119.674C177.936 119.073 177.381 118.207 176.798 117.47C176.442 117.019 176.081 116.568 175.721 116.122C175.332 115.65 174.921 115.199 174.537 114.727C174.514 114.696 174.463 114.737 174.486 114.774C174.824 115.292 175.134 115.831 175.471 116.35C175.809 116.869 176.151 117.382 176.498 117.89C176.826 118.372 177.168 118.844 177.519 119.306C177.815 119.7 178.157 120.084 178.555 120.343C179.202 120.768 180.321 120.862 180.663 119.928C180.834 119.467 180.622 119 180.367 118.637L180.363 118.632Z" fill="#37474F"/>
<path d="M223.566 144.185C220.967 144.237 218.373 144.408 215.78 144.47C213.204 144.532 210.629 144.548 208.054 144.522C202.88 144.465 197.706 144.247 192.546 143.848C187.331 143.443 181.704 142.862 176.521 142.053C174.043 141.67 171.528 141.348 169.077 140.757C166.867 140.223 164.861 139.196 163.206 137.391C159.849 133.741 158.545 128.373 158.009 123.245C157.935 122.555 157.879 121.865 157.828 121.176C157.828 121.129 157.764 121.129 157.764 121.176C158.069 126.434 158.795 131.915 161.745 136.142C163.021 137.972 164.643 139.471 166.548 140.326C168.869 141.369 171.445 141.613 173.895 141.986C179.097 142.779 184.747 143.386 189.98 143.842C195.247 144.299 200.522 144.584 205.802 144.672C211.082 144.76 216.367 144.672 221.642 144.387C222.285 144.351 222.928 144.309 223.57 144.247C223.607 144.247 223.607 144.179 223.57 144.179L223.566 144.185Z" fill="#37474F"/>
<path d="M230.503 131.46C230.008 129.152 228.769 127.218 227.026 125.88C225.158 124.449 222.92 123.795 220.71 123.437C218.209 123.028 215.67 122.82 213.155 122.545C207.991 121.98 202.822 121.462 197.648 120.984C192.479 120.507 181.345 119.538 180.716 119.512C180.661 119.512 180.652 119.615 180.707 119.621C185.696 120.243 190.236 120.777 195.239 121.285C200.265 121.799 205.286 122.333 210.307 122.893C212.808 123.168 215.31 123.453 217.811 123.738C220.127 124.008 222.513 124.272 224.686 125.273C226.549 126.134 228.228 127.518 229.18 129.551C230.1 131.517 230.295 133.866 229.925 136.028C229.583 138.035 228.741 139.99 227.511 141.504C226.3 142.993 224.765 144.139 222.989 144.564C222.532 144.673 221.981 144.756 221.561 144.849C221.528 144.854 221.496 144.932 221.528 144.932C225.264 145.036 228.723 141.976 230.073 138.149C230.817 136.039 230.983 133.664 230.507 131.46H230.503Z" fill="#37474F"/>
<path d="M231.138 82.8161C232.437 82.4227 238.235 80.0913 239.704 79.085C241.173 78.0746 245.188 74.8652 244.53 73.6601C243.872 72.4551 242.622 73.304 242.622 73.304C242.622 73.304 244.103 71.6807 243.329 70.5295C242.555 69.3782 240.652 70.7572 240.652 70.7572C240.652 70.7572 242.051 68.9765 241.198 67.8833C240.346 66.79 238.665 68.5003 238.665 68.5003C238.665 68.5003 240.019 66.935 238.938 66.3304C237.639 65.6015 235.466 68.7736 233.761 69.7675C233.372 69.9911 225.588 73.7761 225.588 73.7761L231.138 82.8203V82.8161Z" fill="#EB9481"/>
<path d="M238.818 68.3537C237.216 70.681 236.111 71.4222 233.554 72.5196C233.504 72.5403 233.525 72.619 233.578 72.6025C236.182 71.7577 237.7 71.0288 238.934 68.4241C238.996 68.2957 238.892 68.2419 238.818 68.3537Z" fill="#263238"/>
<path d="M240.782 70.5708C238.908 72.8442 237.716 73.66 235.121 75.0018C235.084 75.0225 235.113 75.0846 235.15 75.068C237.807 73.9623 239.305 73.2004 240.882 70.6826C240.952 70.5666 240.869 70.4672 240.782 70.5708Z" fill="#263238"/>
<path d="M242.489 73.365C240.515 75.4355 239.249 76.3838 236.563 77.3653C236.501 77.3901 236.526 77.4812 236.592 77.4647C239.427 76.7317 241.016 75.5556 242.547 73.4271C242.651 73.2822 242.613 73.2283 242.489 73.3608V73.365Z" fill="#263238"/>
<path d="M224 73.8233C224 73.8233 225.639 70.6843 226.665 69.4627C227.691 68.241 233.183 65.0979 233.928 66.2492C234.892 67.7317 232.078 70.1708 230.543 71.1854C230.543 71.1854 232.773 74.6142 231.135 76.8007C229.496 78.9872 224.004 73.8274 224.004 73.8274L224 73.8233Z" fill="#EB9481"/>
<path d="M234.058 66.7437C233.963 68.7314 231.86 69.9323 230.449 71.0256C230.342 71.1084 230.371 71.2244 230.449 71.2948C231.289 72.7939 232.034 75.1543 231.244 76.7859C231.219 76.8356 231.285 76.8728 231.314 76.8273C232.403 75.1916 231.856 72.8146 230.83 71.2327C232.299 70.1311 234.352 68.835 234.074 66.7437C234.074 66.7313 234.058 66.7313 234.054 66.7437H234.058Z" fill="#263238"/>
<path d="M223.5 70.5L233 84C233 84 217.965 91.2338 213 91.5C208.035 91.7662 192.749 90.1599 184.275 86.0644C175.869 82.0031 177.445 76.0988 184.578 76.5288C191.719 76.9588 209.192 77.7847 209.805 77.5185C210.418 77.2523 223.5 70.5 223.5 70.5Z" fill="#FFC727"/>
<path d="M225.416 80.2252C224.521 78.6721 223.635 77.1144 222.687 75.5989C222.148 74.7356 221.609 73.8722 221.061 73.0136C221.039 72.9808 220.986 73.0136 221.004 73.0464C221.845 74.6417 222.691 76.237 223.599 77.7947C224.503 79.3431 225.398 80.8961 226.32 82.4304C226.845 83.3031 227.393 84.1571 227.967 84.9922C227.98 85.011 228.007 84.9922 227.998 84.9735C227.21 83.3453 226.315 81.7876 225.411 80.2252H225.416Z" fill="#263238"/>
<path opacity="0.1" d="M200.975 92.6338C195.06 90.7021 188.627 88.1765 184.276 86.0742C175.869 82.006 177.439 76.1017 184.579 76.5385C185.118 76.5727 185.717 76.6068 186.364 76.6409L200.968 92.6338H200.975Z" fill="black"/>
<path d="M154.156 124.972C154.257 125.1 197.819 120.988 198.271 120.543C198.904 119.916 195.219 87.0632 188.389 76.5548C186.678 73.926 180.292 73.3126 177.146 75.3685C161.566 85.5601 153.806 124.507 154.156 124.965V124.972Z" fill="#FFC727"/>
<path d="M189.133 104.509C192.553 104.497 193.434 105.021 196.318 103.476C198.21 102.463 199.667 103.236 198.414 105.085C196.366 108.108 191.953 109.052 190.329 108.936L189.129 104.509H189.133Z" fill="#EB9481"/>
<path d="M179.773 106.53C179.773 106.53 183.83 104.945 187.479 104.572C189.999 104.316 195.548 104.364 200.033 110.461C201.097 111.906 201.589 114.721 198.993 112.991C197.148 111.762 196.352 110.425 195.148 109.909C195.148 109.909 195.348 113.564 193.86 114.572C193.196 115.025 191.351 116.214 189.783 116.934C189.783 116.934 189.535 116.634 189.275 116.21C189.275 116.21 187.795 117.022 185.298 116.438L179.777 106.53H179.773Z" fill="#EB9481"/>
<path d="M189.923 104.715C191.007 105.483 193.28 107.149 194.664 109.158C196.2 111.388 198.56 116.104 196.904 117.221C195.688 118.042 194.628 116.32 194.628 116.32C194.628 116.32 195.192 118.474 193.932 118.974C192.784 119.431 192.043 118.05 192.043 118.05C192.043 118.05 192.163 119.415 190.971 119.643C189.539 119.915 189.527 117.009 187.839 116.028C187.459 115.808 189.923 104.715 189.923 104.715Z" fill="#EB9481"/>
<path d="M192.037 110.389C192.938 111.278 194.47 113.824 194.654 116.27C194.658 116.326 194.618 116.358 194.606 116.31C193.83 113.66 192.598 111.354 192.017 110.405C192.009 110.393 192.029 110.381 192.037 110.389Z" fill="#263238"/>
<path d="M189.833 112.005C190.533 112.854 191.989 115.548 192.093 118.03C192.093 118.086 192.053 118.114 192.041 118.066C191.345 115.264 190.333 112.998 189.808 112.017C189.8 112.005 189.82 111.993 189.828 112.005H189.833Z" fill="#263238"/>
<path d="M195.155 109.88C196.207 110.353 196.844 110.985 197.68 111.754C198.092 112.134 198.516 112.506 198.968 112.839C199.38 113.139 199.988 113.595 200.516 113.283C200.808 113.107 200.856 112.727 200.84 112.414C200.82 112.066 200.572 111.394 200.408 111.085C200.4 111.069 200.428 111.053 200.436 111.069C200.588 111.345 200.876 111.962 200.944 112.27C201.004 112.55 201.04 112.867 200.928 113.139C200.684 113.719 199.964 113.703 199.48 113.467C199.192 113.327 198.928 113.127 198.676 112.931C198.432 112.743 198.196 112.542 197.964 112.338C197.492 111.914 197.044 111.466 196.575 111.037C196.063 110.569 195.695 110.321 195.135 109.912C195.115 109.9 195.135 109.868 195.155 109.876V109.88Z" fill="#263238"/>
<path d="M196.924 114.052C196.723 113.388 195.543 110.581 195.131 109.909C195.119 109.893 195.143 109.873 195.155 109.889C195.899 110.813 196.976 113.151 197.204 113.88C197.428 114.605 197.672 115.521 197.568 116.282C197.412 117.427 196.623 117.539 196.335 117.559C195.991 117.579 195.663 117.463 195.383 117.267C195.071 117.047 194.799 116.642 194.615 116.318C194.607 116.302 194.627 116.282 194.639 116.298C194.975 116.802 195.571 117.339 196.203 117.339C196.479 117.339 196.767 117.255 196.964 117.055C197.192 116.818 197.256 116.474 197.272 116.158C197.308 115.441 197.124 114.729 196.92 114.048L196.924 114.052Z" fill="#263238"/>
<path d="M181.5 102.5L186.336 119.54C186.336 119.54 149.092 122.749 146.829 116.029C144.565 109.308 161.951 86.5795 169.246 80.2636C177.707 72.9435 178.259 75.9025 175.639 83.0542C172.897 90.5429 167.5 105 167.5 105L179.741 102.5H181.5Z" fill="#FFC727"/>
<path d="M179.922 103.122C179.712 103.153 168.222 106.069 167.84 106.232C167.907 106.018 170.673 98.3947 171.085 97.2795C171.123 97.1669 171.16 97.0544 171.205 96.9418C171.46 96.4609 171.715 95.98 171.947 95.4786C172.254 94.8443 172.554 94.1996 172.854 93.555C172.861 93.5346 172.847 93.5141 172.832 93.5346C172.509 94.1587 172.187 94.7726 171.865 95.3968C171.715 95.6833 171.572 95.98 171.437 96.2767C171.715 95.4889 171.985 94.6908 172.247 93.8927C172.674 92.6239 173.071 91.3347 173.469 90.0455C173.484 90.0045 173.439 89.9841 173.424 90.0148C172.607 92.2351 171.745 94.4145 170.92 96.6348C170.103 98.8449 166.985 107 167 107C167.015 107.031 179.697 103.408 179.937 103.327C180.035 103.296 180.012 103.101 179.915 103.112L179.922 103.122Z" fill="#263238"/>
<path d="M178.691 113.587C178.18 111.691 177.684 109.797 177.079 107.91C176.737 106.841 176.402 105.768 176.045 104.697C176.029 104.658 175.943 104.662 175.951 104.706C176.367 106.616 176.789 108.532 177.32 110.435C177.845 112.328 178.355 114.224 178.916 116.116C179.237 117.192 179.594 118.258 179.995 119.319C180.006 119.341 180.05 119.337 180.045 119.315C179.717 117.395 179.207 115.494 178.691 113.587Z" fill="#263238"/>
<path d="M186.758 119.904C186.475 119.257 186.139 118.334 185.829 117.693C185.748 117.525 185.627 117.538 185.687 117.714C185.889 118.293 186.031 118.94 186.233 119.533C185.714 119.567 185.189 119.587 184.67 119.621C184.071 119.662 183.464 119.709 182.865 119.749C181.686 119.83 180.501 119.897 179.322 119.951C176.93 120.066 174.532 120.127 172.141 120.14C167.338 120.167 162.522 120.012 157.746 119.54C156.412 119.405 155.072 119.25 153.745 119.048C152.397 118.846 150.936 118.617 149.838 118.327C149.804 118.32 149.791 118.374 149.824 118.388C150.949 118.785 152.013 119.075 153.186 119.298C154.385 119.52 155.584 119.709 156.796 119.864C159.201 120.16 161.626 120.336 164.044 120.437C168.847 120.646 173.663 120.646 178.459 120.457C179.807 120.403 181.147 120.336 182.494 120.248C183.175 120.208 183.848 120.16 184.529 120.106C185.209 120.052 186.819 119.999 186.772 119.891L186.758 119.904Z" fill="#263238"/>
<path d="M229.952 124.191H182.469V126.106H229.952V124.191Z" fill="#455A64"/>
<path d="M208.74 124.191H182.469V126.106H208.74V124.191Z" fill="#A6A6A6"/>
<path d="M207.943 126.103H249.559L255.44 97.8203H213.824L207.943 126.103Z" fill="#A6A6A6"/>
<path d="M209.83 126.103H251.446L257.327 97.8203H215.711L209.83 126.103Z" fill="#C7C7C7"/>
<path d="M230.805 112.597C230.643 114.127 231.754 115.374 233.284 115.374C234.813 115.374 236.187 114.134 236.349 112.597C236.51 111.067 235.399 109.82 233.87 109.82C232.341 109.82 230.966 111.061 230.805 112.597Z" fill="#EBEBEB"/>
<path d="M184.262 85.4466C184.262 85.4466 176.644 78.0522 171.726 78.2477L167.57 81.9752C167.57 81.9752 166.203 82.4336 165.772 81.564C164.714 79.4206 164.478 74.2237 168.931 70.8332C173.006 67.7258 179.702 67.9213 185.3 69.3705C190.668 70.759 195.343 74.2978 193.713 77.8096C192.083 81.3214 184.262 85.4466 184.262 85.4466Z" fill="#FFC727"/>
<path opacity="0.1" d="M184.792 83.7985C184.792 83.7985 190.922 79.3768 191.549 76.7615C192.175 74.1462 186.948 71.6859 183.573 70.722C178.353 69.2391 174.803 69.5896 171.893 72.3869C168.983 75.1842 184.792 83.7985 184.792 83.7985Z" fill="black"/>
<path d="M186.452 81.8163C183.47 82.1571 176.875 77.0042 174.12 72.4709C173.934 72.1611 174.275 68.7741 174.491 64.6435C174.615 62.1342 174.687 59.3358 174.574 56.7852L190.766 59.9657C190.766 59.9657 189.434 65.3974 189.651 69.848C189.672 70.2198 189.723 70.5605 189.806 70.891C189.806 70.9426 189.827 70.9943 189.837 71.0665C190.25 73.0492 191.106 81.2897 186.442 81.8266L186.452 81.8163Z" fill="#EB9481"/>
<path d="M189.805 70.8787C189.805 70.8787 189.836 70.9819 189.836 71.0542C189.33 71.1471 188.793 71.1988 188.184 71.2091C179.072 71.4053 176.348 60.3974 175.729 57L190.754 59.943C190.754 59.943 189.412 65.3747 189.629 69.8357C189.66 70.1971 189.701 70.5482 189.784 70.8787H189.805Z" fill="#263238"/>
<path d="M169.642 40.2549C168.94 46.1616 174.791 61.8163 179.414 64.7077C186.122 68.9002 195.658 67.7127 198.857 59.9679C201.953 52.471 193.965 32.2106 188.939 29.722C181.53 26.0664 170.684 31.5291 169.642 40.2445V40.2549Z" fill="#EB9481"/>
<path d="M184.273 46.6129C184.706 46.3341 185.047 46.014 185.449 45.6939C185.893 45.3324 186.285 45.0949 186.471 44.527C186.564 44.2172 186.347 43.8041 186.058 43.6905C185.387 43.4117 184.737 43.7112 184.18 44.1243C183.581 44.5683 183.23 45.064 183.045 45.7868C182.869 46.489 183.726 46.9847 184.293 46.6232L184.273 46.6129Z" fill="#263238"/>
<path d="M195.066 43.0612C194.561 43.1438 194.086 43.1335 193.58 43.1645C193.013 43.1955 192.559 43.2884 192.043 42.9889C191.764 42.8237 191.651 42.3694 191.785 42.0906C192.094 41.4297 192.775 41.2128 193.467 41.1405C194.21 41.0682 194.808 41.1922 195.428 41.6052C196.036 42.0079 195.737 42.9476 195.066 43.0612Z" fill="#263238"/>
<path d="M189.215 58.7473C189.556 58.9125 189.928 59.1707 190.32 59.0674C190.701 58.9745 191.083 58.6544 191.372 58.4065C191.403 58.3859 191.445 58.4065 191.434 58.4478C191.3 58.9538 190.805 59.4082 190.278 59.4805C189.773 59.5631 189.391 59.2223 189.123 58.8196C189.081 58.768 189.164 58.7163 189.205 58.737L189.215 58.7473Z" fill="#263238"/>
<path d="M189.256 55.1747C190.164 55.8976 191.217 56.1041 192.228 55.9698C192.682 55.9079 193.126 55.7736 193.549 55.5878C193.632 55.5568 193.714 55.5155 193.786 55.4742C193.859 55.4432 193.931 55.4019 194.003 55.3606C194.117 55.2986 194.158 55.1747 194.137 55.0508C194.137 55.0508 194.117 54.9682 194.086 54.9372L194.055 54.834C193.797 54.0078 193.301 52.7893 193.301 52.7893C193.652 52.841 195.417 53.0062 195.241 52.5828C193.828 49.1028 192.259 45.2407 190.113 42.0705C190.051 41.9673 189.875 42.0499 189.927 42.1635C191.155 45.5609 192.971 48.7207 194.251 52.1078C193.704 52.0871 192.785 52.0148 192.362 52.1697C192.259 52.242 193.374 54.5138 193.456 54.8959C193.456 54.8959 193.456 54.9166 193.456 54.9372C192.135 55.5774 190.959 55.5155 189.308 55.0405C189.204 55.0095 189.153 55.1024 189.246 55.1747H189.256Z" fill="#263238"/>
<path d="M192.929 55.3368C192.929 55.3368 192.537 56.5657 191.66 57.2575C191.34 57.5157 190.958 57.7016 190.504 57.7325C189.575 57.7945 189.297 57.02 189.224 56.2972C189.162 55.7086 189.255 55.1406 189.255 55.1406C189.255 55.1406 190.896 55.8841 192.929 55.3368Z" fill="#263238"/>
<path d="M191.66 57.2575C191.34 57.5157 190.958 57.7016 190.504 57.7325C189.575 57.7945 189.297 57.02 189.225 56.2972C190.164 56.0803 191.278 56.3901 191.66 57.2575Z" fill="#FF9ABB"/>
<path d="M187.571 48.3906C187.571 48.3906 187.499 48.4629 187.519 48.5145C187.881 49.5782 188.108 50.8483 187.251 51.4989C187.22 51.5195 187.251 51.5711 187.282 51.5608C188.407 51.0342 188.087 49.351 187.571 48.401V48.3906Z" fill="#263238"/>
<path d="M186.271 47.565C184.517 47.9574 185.425 51.4477 187.056 51.0863C188.655 50.7249 187.747 47.2346 186.271 47.565Z" fill="#263238"/>
<path d="M193.747 46.3242C193.747 46.3242 193.84 46.3552 193.85 46.3965C194.087 47.4911 194.552 48.6993 195.625 48.8129C195.656 48.8129 195.666 48.8748 195.625 48.8748C194.386 49.0091 193.788 47.3982 193.736 46.3242H193.747Z" fill="#263238"/>
<path d="M194.429 44.9517C196.132 44.3734 197.164 47.8327 195.575 48.3697C194.016 48.8963 192.995 45.437 194.429 44.9517Z" fill="#263238"/>
<path d="M193.655 35.3167C192.623 34.0982 191.487 32.9004 190.559 32.8797C189.63 32.859 190.043 35.6265 188.154 36.339C185.616 37.3097 183.098 34.7281 179.527 36.0189C175.1 37.6195 173.81 41.6365 175.946 49.0611C177.855 55.6907 174.346 57.725 174.346 57.725C174.346 57.725 166.71 44.0115 169.331 37.9396C171.952 31.8677 180.703 26.8491 188.433 29.5133C191.25 30.484 193.655 35.3167 193.655 35.3167Z" fill="#263238"/>
<path d="M175.45 52.8232C175.45 52.8232 170.765 48.3415 168.66 50.1073C166.554 51.8835 170.806 58.8847 173.789 59.3701C176.771 59.8451 177.266 57.0983 177.266 57.0983L175.45 52.8232Z" fill="#EB9481"/>
<path d="M169.929 52.0918C169.929 52.0918 169.887 52.1641 169.929 52.1641C172.034 52.5668 173.417 54.1674 174.51 55.8919C173.788 55.2827 172.921 55.0452 172.096 55.9332C172.054 55.9745 172.116 56.0468 172.168 56.0262C172.932 55.6957 173.53 55.7164 174.201 56.2534C174.676 56.6251 175.047 57.1518 175.429 57.6164C175.553 57.7713 175.852 57.6164 175.749 57.4306C175.749 57.4202 175.728 57.3996 175.728 57.3893C175.284 54.9006 172.663 51.813 169.949 52.0918H169.929Z" fill="#263238"/>
<path d="M183.821 28.8641C181.809 28.513 179.425 28.2239 176.824 28.5233C174.224 28.8228 166.412 31.4044 164.895 33.4697C163.378 35.5349 164.719 43.1661 164.936 44.2814C165.153 45.3966 167.279 51.9126 170.075 52.9246C172.872 53.9365 170.333 42.6085 173.202 37.9307C176.081 33.2631 183.821 28.8744 183.821 28.8744V28.8641Z" fill="#FFC727"/>
<path opacity="0.1" d="M183.823 28.8631C183.823 28.8631 176.073 33.2415 173.204 37.9194C170.325 42.5869 172.864 53.9252 170.067 52.9133C168.839 52.4692 168.065 51.5399 167.198 49.8876C166.889 46.4696 166.971 41.0276 168.839 36.8144C170.593 32.8698 174.608 30.1023 179.21 28.3984C180.882 28.3984 182.44 28.6256 183.823 28.8631Z" fill="black"/>
<path d="M172.377 59.4505C171.851 56.3938 172.935 47.5958 174.999 42.1951C177.073 36.7944 185.824 31.7861 187.155 31.5383C190.396 30.9393 191.469 32.2921 191.913 31.879C192.346 31.466 188.26 28.6159 187.228 28.3061C186.196 27.986 183.915 27.9137 182.532 28.2854C181.149 28.6572 172.79 31.6209 170.582 36.0406C168.363 40.4602 166.475 51.7883 167.93 54.215C168.281 54.7933 169.209 54.9998 169.705 55.8259C170.344 56.9102 170.922 58.2113 171.48 58.9341C171.923 59.5227 172.429 59.7086 172.388 59.4401L172.377 59.4505Z" fill="#FFC727"/>
<path d="M175.229 39.9463C174.383 39.6675 173.567 39.3474 172.773 38.9344C171.988 38.5316 171.194 38.0566 170.533 37.4783C170.482 37.437 170.41 37.499 170.461 37.5506C171.101 38.2322 171.772 38.8311 172.597 39.2855C173.392 39.7192 174.3 40.0186 175.198 40.1322C175.301 40.1425 175.322 39.9877 175.229 39.9567V39.9463Z" fill="#263238"/>
<path d="M171.606 56.4566C171.472 56.2604 171.275 56.1055 171.121 55.9196C170.945 55.7131 170.79 55.4859 170.656 55.2484C170.409 54.7837 170.305 54.2777 169.955 53.875C169.686 53.5548 169.346 53.2967 169.005 53.0489C168.623 52.7597 168.242 52.4602 168.118 51.9749C168.097 51.913 168.004 51.9336 168.014 51.9956C168.231 52.9146 169.005 53.4103 169.593 54.0712C169.965 54.4945 170.089 55.0522 170.388 55.5272C170.636 55.9299 171.018 56.4359 171.492 56.5908C171.564 56.6115 171.647 56.5288 171.606 56.4566Z" fill="#263238"/>
<path d="M171.853 52.9477C171.482 52.6792 171.1 52.4417 170.759 52.1319C170.429 51.8324 170.119 51.502 169.841 51.1715C169.562 50.8411 169.304 50.4797 169.026 50.1389C168.695 49.7362 168.324 49.3644 168.014 48.9514C167.973 48.8997 167.901 48.972 167.942 49.0236C168.262 49.4573 168.499 49.9427 168.809 50.3867C169.067 50.7688 169.376 51.1302 169.686 51.471C169.985 51.8014 170.305 52.1112 170.656 52.3797C170.997 52.6379 171.42 52.9064 171.833 52.9993C171.864 52.9993 171.884 52.9683 171.853 52.9477Z" fill="#263238"/>
<path d="M172.215 49.7449C171.462 49.3731 170.739 48.8775 170.13 48.2992C169.532 47.7312 168.954 47.122 168.397 46.5127C168.355 46.4714 168.283 46.5127 168.314 46.5747C168.789 47.2975 169.264 48.01 169.914 48.5986C170.223 48.8775 170.554 49.1563 170.915 49.3628C171.307 49.5797 171.751 49.7242 172.184 49.8481C172.236 49.8585 172.287 49.7759 172.225 49.7552L172.215 49.7449Z" fill="#263238"/>
<path d="M172.719 46.6387C172.327 46.5251 172.038 46.2773 171.729 46.0295C171.388 45.761 171.048 45.4718 170.717 45.1827C170.408 44.9039 170.078 44.6354 169.768 44.3566C169.448 44.0778 169.138 43.7783 168.963 43.3859C168.942 43.3343 168.85 43.3653 168.87 43.4169C168.994 43.8299 169.231 44.181 169.5 44.5115C169.799 44.8729 170.109 45.2137 170.47 45.5235C170.821 45.8229 171.182 46.1121 171.564 46.3599C171.894 46.5768 172.286 46.7936 172.699 46.7833C172.781 46.7833 172.802 46.6697 172.719 46.6387Z" fill="#263238"/>
<path d="M172.699 42.8525C172.348 42.646 172.008 42.4395 171.678 42.2123C171.347 41.9851 171.038 41.7373 170.718 41.4791C170.388 41.2209 170.057 40.9628 169.748 40.6737C169.696 40.6323 169.634 40.6943 169.676 40.7459C169.934 41.0867 170.192 41.4068 170.501 41.7063C170.8 41.9954 171.12 42.2536 171.461 42.5014C171.791 42.7389 172.142 42.9661 172.503 43.1623C172.854 43.3482 173.246 43.565 173.649 43.6063C173.711 43.6063 173.752 43.5237 173.7 43.4824C173.411 43.2243 173.029 43.0487 172.699 42.8525Z" fill="#263238"/>
<path d="M177.114 37.6752C176.733 37.3758 176.351 37.0866 175.938 36.8285C175.515 36.5703 175.081 36.3328 174.627 36.1159C173.75 35.6926 172.863 35.3415 171.913 35.1143C171.862 35.104 171.81 35.1762 171.872 35.2072C173.595 36.0746 175.35 36.8698 177.063 37.7578C177.125 37.7888 177.166 37.7165 177.114 37.6752Z" fill="#263238"/>
<path d="M178.293 34.6453C177.901 34.3561 177.478 34.1186 177.034 33.9327C176.095 33.53 175.104 33.3132 174.114 33.1376C174.052 33.1273 174.021 33.2099 174.083 33.2305C174.991 33.561 175.899 33.8708 176.786 34.2425C177.22 34.4284 177.664 34.6246 178.076 34.8621C178.489 35.0996 178.85 35.4094 179.253 35.6676C179.284 35.6882 179.325 35.6469 179.304 35.6159C179.067 35.2235 178.665 34.9137 178.293 34.6556V34.6453Z" fill="#263238"/>
<path d="M180.511 32.8595C180.14 32.5703 179.748 32.3328 179.335 32.1263C178.54 31.7339 177.704 31.4861 176.827 31.3828C176.765 31.3828 176.755 31.4654 176.806 31.4861C177.642 31.7442 178.468 32.0747 179.242 32.4774C179.634 32.6736 180.016 32.9008 180.398 33.1176C180.78 33.3345 181.13 33.634 181.533 33.8095C181.564 33.8198 181.585 33.7785 181.564 33.7579C181.275 33.4171 180.852 33.1486 180.501 32.8698L180.511 32.8595Z" fill="#263238"/>
<path d="M181.947 30.9199C181.565 30.7443 181.183 30.5791 180.791 30.4242C180.409 30.2693 180.017 30.1247 179.604 30.0938C179.543 30.0938 179.532 30.166 179.584 30.197C180.317 30.5378 181.049 30.8889 181.772 31.24C182.453 31.5704 182.989 32.0867 183.588 32.5514C183.619 32.5721 183.65 32.5308 183.639 32.5101C183.227 31.8286 182.68 31.271 181.947 30.9199Z" fill="#263238"/>
<path d="M184.08 29.8749C183.368 29.4515 182.584 29.2553 181.769 29.1211C181.707 29.1211 181.696 29.214 181.748 29.2244C182.512 29.3896 183.234 29.7613 183.905 30.1434C184.596 30.5358 185.195 31.0418 185.783 31.5684C185.814 31.5891 185.865 31.5684 185.845 31.5271C185.411 30.8353 184.772 30.288 184.08 29.8749Z" fill="#263238"/>
<path d="M187.365 30.4951C187.251 30.3505 187.127 30.2266 186.993 30.1027C186.735 29.8549 186.426 29.638 186.126 29.4522C185.497 29.0597 184.795 28.8119 184.104 28.5538C184.042 28.5331 184.011 28.626 184.073 28.6467C184.754 28.8842 185.394 29.2146 186.003 29.607C186.302 29.8032 186.581 30.0201 186.839 30.2473C186.973 30.3609 187.086 30.4848 187.21 30.6087C187.324 30.7223 187.427 30.8772 187.561 30.9701C187.592 30.9908 187.654 30.9598 187.643 30.9185C187.602 30.7636 187.468 30.619 187.375 30.4951H187.365Z" fill="#263238"/>
<path d="M189.208 30.2181C188.981 30.0219 188.744 29.8463 188.496 29.6811C188.249 29.5159 187.991 29.3713 187.722 29.2371C187.444 29.1028 187.165 28.9789 186.897 28.8344C186.835 28.8034 186.783 28.8963 186.856 28.9273C187.134 29.0512 187.392 29.2268 187.65 29.4023C187.887 29.5675 188.125 29.7328 188.373 29.898C188.61 30.0632 188.847 30.2284 189.085 30.3936C189.322 30.5589 189.549 30.7654 189.807 30.91C189.848 30.9306 189.89 30.8893 189.859 30.848C189.683 30.6105 189.435 30.4246 189.208 30.2387V30.2181Z" fill="#263238"/>
<path d="M184.794 83.7996C184.794 83.7996 178.664 73.5271 171.059 72.543L171.725 78.2522C171.725 78.2522 176.259 78.2387 184.261 85.451L184.794 83.7996Z" fill="#FFC727"/>
<path d="M169.678 78.3622C171.065 78.1802 172.453 78.4835 173.76 78.8879C175.073 79.2991 176.32 79.9125 177.505 80.6135C178.704 81.2943 179.816 82.1099 180.914 82.9457L182.51 84.2736L184.046 85.6756L184.221 85.8306L184.41 85.7295C185.831 84.9948 187.192 84.159 188.492 83.2423C189.138 82.7772 189.785 82.3054 190.371 81.7661C190.964 81.2336 193.423 78.9284 193.921 77.25C193.039 78.8745 189.583 82.0425 188.256 82.8918C187.589 83.3097 186.902 83.7006 186.215 84.0714C185.528 84.4421 184.827 84.8196 184.127 85.1566L184.49 85.2172L182.955 83.7748C182.422 83.3164 181.877 82.8648 181.338 82.4199C180.765 82.002 180.206 81.5774 179.62 81.1797C179.021 80.8022 178.435 80.4113 177.802 80.0877C176.569 79.4002 175.242 78.8677 173.868 78.5172C173.531 78.4228 173.174 78.3622 172.83 78.2948C172.48 78.2543 172.13 78.2004 171.773 78.1869C171.072 78.1397 170.351 78.1667 169.678 78.3622Z" fill="#263238"/>
<path d="M167.568 81.9668C168.35 81.4478 169.064 80.8479 169.758 80.2345C170.445 79.6077 171.118 78.9673 171.718 78.2461C170.936 78.7651 170.222 79.365 169.529 79.9784C168.841 80.6053 168.168 81.2456 167.568 81.9668Z" fill="#263238"/>
<path d="M181.696 81.979C181.696 81.979 181.103 84.9246 181.063 89.1846C181.049 90.8697 181.77 96.9024 183.643 96.6598C185.509 96.4171 182.417 92.5548 181.837 89.3801C181.251 86.1514 182.087 83.8596 182.174 81.9453L181.696 81.979Z" fill="#FFC727"/>
<g opacity="0.1">
<path d="M181.698 81.9829C181.698 81.9829 181.105 84.9285 181.065 89.1885C181.051 90.8736 181.772 96.9063 183.645 96.6637C185.51 96.421 182.419 92.5587 181.839 89.384C181.253 86.1553 182.089 83.8635 182.176 81.9492L181.698 81.9829Z" fill="black"/>
</g>
<path d="M188.34 82.2266C188.34 82.2266 189.256 85.3946 189.822 89.2164C190.044 90.7263 190.159 96.2333 188.448 96.2535C186.737 96.2737 189.034 92.4182 189.148 89.4861C189.269 86.5135 188.225 83.9589 187.902 82.2535L188.333 82.2266H188.34Z" fill="#FFC727"/>
<g opacity="0.1">
<path d="M188.34 82.2266C188.34 82.2266 189.256 85.3946 189.822 89.2164C190.044 90.7263 190.159 96.2333 188.448 96.2535C186.737 96.2737 189.034 92.4182 189.148 89.4861C189.269 86.5135 188.225 83.9589 187.902 82.2535L188.333 82.2266H188.34Z" fill="black"/>
</g>
<path d="M283.172 59.4061V75.6907H278.571V59.4061C278.571 53.2161 273.87 48.1788 268.09 48.1788C262.31 48.1788 257.609 53.2161 257.609 59.4061V68.8743H253.008V59.4061C253.008 50.5376 259.773 43.3281 268.09 43.3281C276.407 43.3281 283.172 50.5376 283.172 59.4061Z" fill="#DBDBDB"/>
<path d="M283.172 64.8702V75.691H278.57V64.6836L283.172 64.8702Z" fill="#A6A6A6"/>
<path d="M289.065 72.8047H247.115V103.735H289.065V72.8047Z" fill="#FFC727"/>
<path opacity="0.1" d="M289.067 72.8047H268.092V103.735H289.067V72.8047Z" fill="black"/>
<path d="M269.687 89.2332L271.285 96.8224H264.5L266.098 89.2332C265.146 88.6268 264.5 87.5741 264.5 86.3681C264.5 84.4758 266.018 82.9766 267.889 82.9766C269.76 82.9766 271.279 84.4758 271.279 86.3681C271.279 87.5741 270.633 88.6335 269.681 89.2332H269.687Z" fill="#263238"/>
<path d="M249.326 85.5104C248.547 81.9257 248.527 78.181 248.873 74.543C251.164 74.6496 253.447 74.7828 255.738 75.0694C253.601 75.3359 251.463 75.4758 249.326 75.5757L249.832 75.0694C249.912 75.9356 249.965 76.8084 249.978 77.6813C250.025 80.2865 249.912 82.9651 249.332 85.5104H249.326Z" fill="white"/>
</g>
<defs>
<clipPath id="clip0_5064_33570">
<rect width="408" height="375" fill="white"/>
</clipPath>
</defs>
</svg>
