<svg width="307" height="307" viewBox="0 0 307 307" fill="none" xmlns="http://www.w3.org/2000/svg">
<path d="M226.321 15.1655L208.361 24.1729C207.703 24.4525 207.143 24.9194 206.748 25.5156C206.354 26.1117 206.144 26.8106 206.145 27.5253V35.9248C206.128 43.5608 208.355 51.0333 212.549 57.4148C215.784 62.3268 220.076 68.6449 227.217 72.2491H230.434C238.386 69.7931 244.317 63.3645 247.94 57.8385C252.132 51.4567 254.359 43.9843 254.344 36.3485V27.5253C254.344 26.8115 254.134 26.1134 253.741 25.5175C253.348 24.9216 252.789 24.4541 252.133 24.1729L231.675 15.4541C230.76 15.0672 227.229 14.7787 226.321 15.1655Z" fill="#E0E0E0"/>
<path d="M225.597 15.4538L205.138 24.1726C204.481 24.4522 203.92 24.9192 203.526 25.5153C203.132 26.1115 202.922 26.8104 202.922 27.5251V35.9246C202.922 43.7063 205.231 51.313 209.556 57.7822C213.881 64.2514 220.027 69.2923 227.218 72.2673C235.163 69.8113 241.094 63.3827 244.723 57.8567C248.916 51.4684 251.143 43.99 251.127 36.3483V27.5251C251.127 26.8104 250.917 26.1115 250.523 25.5153C250.129 24.9192 249.568 24.4522 248.91 24.1726L228.452 15.4538C228 15.2639 227.515 15.166 227.024 15.166C226.534 15.166 226.049 15.2639 225.597 15.4538Z" fill="#F5F5F5"/>
<path d="M251.06 34.0703C251.087 34.1973 251.1 34.3272 251.097 34.4571C251.097 34.7457 251.127 35.1141 251.146 35.5685C251.164 36.0228 251.195 36.643 251.146 37.3307C251.097 38.0183 251.146 38.8043 251.035 39.6639C250.925 40.5235 250.894 41.5059 250.716 42.4821C250.636 42.9856 250.575 43.5075 250.47 44.0417C250.366 44.5759 250.237 45.1162 250.12 45.6749C249.554 48.0991 248.763 50.4651 247.756 52.7421C246.722 55.0078 245.489 57.1776 244.072 59.2259C243.391 60.1469 242.758 61.0679 242.083 61.7986C241.751 62.1854 241.469 62.5783 241.131 62.9222L240.198 63.9107C239.615 64.5247 239.019 65.065 238.522 65.544C238.025 66.0229 237.57 66.3974 237.196 66.6983L236.391 67.3982C236.296 67.4856 236.191 67.5618 236.078 67.6254C236.16 67.5235 236.253 67.4308 236.354 67.3491L237.183 66.6062C237.546 66.293 237.988 65.9001 238.467 65.3782C238.946 64.8563 239.535 64.3774 240.1 63.7265L241.015 62.7257C241.328 62.3819 241.629 61.9889 241.948 61.6021C242.611 60.8346 243.225 59.9443 243.894 59.0233C245.285 56.9843 246.497 54.8294 247.517 52.5824C248.512 50.3222 249.303 47.9776 249.881 45.5767L250.243 43.9557C250.354 43.4277 250.421 42.9058 250.507 42.4084C250.691 41.4138 250.765 40.4743 250.857 39.6147C250.949 38.7551 250.961 37.9815 251.011 37.2938C251.06 36.6061 251.054 36.0228 251.054 35.5378C251.054 35.0527 251.054 34.715 251.054 34.4264C251.043 34.3078 251.045 34.1885 251.06 34.0703Z" fill="#E0E0E0"/>
<path d="M225.499 52.3314L213.766 43.0048L217.02 38.9094L224.891 45.166L236.385 32.3027L240.284 35.7903L225.499 52.3314Z" fill="white"/>
<path d="M280.929 61.1295H278.706V49.0399C278.706 47.672 278.162 46.3601 277.195 45.3929C276.228 44.4257 274.916 43.8823 273.548 43.8823C272.18 43.8823 270.869 44.4257 269.901 45.3929C268.934 46.3601 268.391 47.672 268.391 49.0399V61.1295H266.168V49.0399C266.168 47.0858 266.944 45.2117 268.326 43.8299C269.708 42.4481 271.582 41.6719 273.536 41.6719C275.49 41.6719 277.364 42.4481 278.746 43.8299C280.128 45.2117 280.904 47.0858 280.904 49.0399L280.929 61.1295Z" fill="#EBEBEB"/>
<path d="M281.598 52.9258H265.493C264.448 52.9258 263.602 53.7725 263.602 54.8169V66.6241C263.602 67.6686 264.448 68.5152 265.493 68.5152H281.598C282.642 68.5152 283.489 67.6686 283.489 66.6241V54.8169C283.489 53.7725 282.642 52.9258 281.598 52.9258Z" fill="#EBEBEB"/>
<path d="M275.075 61.123C275.272 60.9223 275.428 60.6843 275.534 60.423C275.639 60.1617 275.692 59.8821 275.689 59.6003C275.692 59.1918 275.58 58.7906 275.367 58.4419C275.154 58.0933 274.848 57.8111 274.483 57.6272C274.118 57.4433 273.71 57.365 273.303 57.4012C272.896 57.4374 272.507 57.5865 272.18 57.8319C271.854 58.0773 271.602 58.409 271.454 58.7898C271.306 59.1705 271.267 59.5851 271.342 59.9867C271.417 60.3883 271.603 60.761 271.878 61.0627C272.154 61.3644 272.508 61.583 272.901 61.6941L272.434 63.7694H274.516L274.098 61.6941C274.462 61.5903 274.792 61.3934 275.056 61.123" fill="#FAFAFA"/>
<path d="M28.5072 237.581C26.1225 236.089 23.4278 235.162 20.6296 234.873C19.3402 234.738 17.9341 234.775 16.9026 235.555C16.7828 235.623 16.6837 235.722 16.6156 235.842C16.5476 235.962 16.5131 236.098 16.5158 236.236C16.5787 236.431 16.7094 236.596 16.8842 236.703C18.5568 237.896 20.5243 238.609 22.5732 238.764C24.6221 238.918 26.6742 238.509 28.5072 237.581Z" fill="#E0E0E0"/>
<path d="M28.3052 237.36C26.4813 236.019 24.7781 234.521 23.2151 232.883C21.6489 231.234 20.5492 229.197 20.0284 226.983C19.9247 226.655 19.8935 226.308 19.937 225.967C19.9805 225.625 20.0976 225.298 20.2802 225.006C24.3326 228.174 27.5192 232.276 28.3052 237.36Z" fill="#E0E0E0"/>
<path d="M28.4645 237.55C28.0908 235.334 28.1241 233.068 28.5628 230.864C29.0137 228.642 30.2824 226.669 32.1178 225.338C32.8178 226.977 32.5169 228.868 32.0257 230.575C31.2623 233.228 30.0697 235.738 28.4952 238.005" fill="#E0E0E0"/>
<path d="M32.4462 244.68C30.0596 245.066 27.8519 246.183 26.1282 247.879C24.3152 249.526 23.0527 251.691 22.5117 254.08C24.8818 253.933 26.8895 252.238 28.3447 250.396C29.7999 248.554 30.8007 246.473 32.4155 244.723" fill="#E0E0E0"/>
<path d="M33.311 245.814C32.3605 243.402 32.0272 240.791 32.3413 238.218C32.6555 235.645 33.6072 233.19 35.11 231.078C36.4854 235.99 35.9758 241.516 33.311 245.814Z" fill="#E0E0E0"/>
<path d="M38.558 252.071C36.3514 251.938 34.1541 252.455 32.2385 253.558C30.323 254.662 28.7735 256.303 27.7823 258.279C27.6533 258.543 27.5305 258.893 27.7147 259.12C27.8071 259.211 27.9204 259.278 28.0446 259.314C28.1689 259.35 28.3002 259.356 28.427 259.329C30.5514 259.194 32.4302 257.917 33.9837 256.462C35.5371 255.006 36.894 253.324 38.6071 252.065" fill="#E0E0E0"/>
<path d="M38.3956 251.739C37.2643 248.097 37.194 244.208 38.193 240.527C38.5921 239.084 39.2552 237.568 40.5876 236.893C40.641 236.856 40.7013 236.832 40.7647 236.82C40.8281 236.809 40.8933 236.81 40.956 236.825C41.0638 236.882 41.1452 236.979 41.1832 237.095C41.6336 238.103 41.8276 239.206 41.7481 240.306C41.6693 241.405 41.5009 242.495 41.2446 243.567C40.8271 245.556 40.6306 247.693 39.507 249.412C39.2505 249.826 39.0188 250.254 38.8131 250.695C38.6105 251.131 38.6105 251.309 38.4202 251.629" fill="#E0E0E0"/>
<path d="M52.2998 253.803C51.8323 251.756 51.817 249.632 52.255 247.579C52.693 245.526 53.5737 243.593 54.8356 241.916C55.0137 241.676 55.2532 241.424 55.554 241.449C56.0084 241.492 56.125 242.1 56.1066 242.554C55.9183 246.585 54.599 250.481 52.2998 253.796" fill="#E0E0E0"/>
<path d="M53.5547 254.663C55.9878 255.237 58.5165 255.276 60.9663 254.778C63.4161 254.28 65.7287 253.256 67.7442 251.777C65.3701 250.583 62.655 250.251 60.0631 250.838C57.4966 251.452 55.1511 252.569 53.5547 254.663Z" fill="#E0E0E0"/>
<path d="M54.6094 252.053C57.2803 247.706 62.3949 244.869 67.5034 244.605C66.8894 246.681 65.2132 248.289 63.2913 249.266C61.3212 250.15 59.2385 250.757 57.1022 251.071C56.2795 251.231 55.1497 251.409 54.6462 252.053" fill="#E0E0E0"/>
<path d="M52.5633 239.386C53.3732 236.937 53.9247 234.41 54.2088 231.847C54.4942 229.267 53.9707 226.662 52.7107 224.393C50.2178 229.212 49.9661 234.831 52.4896 239.65" fill="#E0E0E0"/>
<path d="M60.9531 235.162C63.8696 229.869 69.8131 225.639 75.8242 225.043C73.5033 230.821 67.1791 235.284 60.9531 235.162Z" fill="#E0E0E0"/>
<path d="M59.1211 236.187C63.4621 236.85 67.1645 239.626 71.223 241.308C72.0754 241.716 73.0189 241.895 73.9615 241.83C74.3994 241.824 74.825 241.684 75.1811 241.429C75.5372 241.175 75.8067 240.817 75.9531 240.404C76.0996 239.991 76.1162 239.543 76.0005 239.121C75.8848 238.699 75.6425 238.322 75.3061 238.041C74.7317 237.503 74.0552 237.086 73.3168 236.813C68.896 234.971 64.1498 234.928 59.4956 236.046" fill="#E0E0E0"/>
<path d="M56.6055 239.233C57.5879 239.515 57.9256 240.025 58.7053 240.688C61.3692 242.951 64.5219 244.565 67.9153 245.403C68.2653 245.489 68.7258 245.526 68.9039 245.213C69.0819 244.9 68.8609 244.599 68.6644 244.353C67.1948 242.624 65.2856 241.324 63.1384 240.59C61.0201 239.798 59.1843 238.846 56.6546 239.055" fill="#E0E0E0"/>
<path d="M53.7695 220.831C55.5516 222.474 57.6575 223.726 59.9522 224.506C62.2468 225.286 64.6793 225.578 67.0933 225.362C67.3176 225.37 67.5365 225.293 67.7073 225.147C68.045 224.779 67.6398 224.214 67.253 223.919C63.3357 220.849 58.5894 219.621 53.7818 220.849" fill="#E0E0E0"/>
<path d="M57.1328 219.598C59.4912 217.863 62.2263 216.711 65.1149 216.235C68.0035 215.759 70.9636 215.973 73.7538 216.859C71.5783 218.874 68.7885 220.098 65.8332 220.335C62.9123 220.603 59.967 220.354 57.1328 219.598Z" fill="#E0E0E0"/>
<path d="M55.7965 211.143C55.4158 207.231 55.6614 204.149 55.3912 200.22C55.3912 199.906 55.3053 199.532 55.0106 199.415C54.5992 199.262 54.2615 199.759 54.1264 200.177C53.5565 201.997 53.4102 203.924 53.6986 205.809C53.987 207.695 54.7024 209.49 55.7903 211.057" fill="#E0E0E0"/>
<path d="M55.5117 211.571C58.076 209.927 60.2866 207.787 62.014 205.278C63.2911 203.528 64.3717 201.434 64.0832 199.285C63.1824 199.309 62.2977 199.529 61.4907 199.93C60.6837 200.331 59.9738 200.903 59.4106 201.606C58.2955 203.022 57.4845 204.652 57.0283 206.395C56.5125 208.114 56.1503 209.883 55.5363 211.571" fill="#E0E0E0"/>
<path d="M61.8795 209.804C67.7184 207.65 73.1248 204.468 77.8435 200.41C75.9401 199.643 73.7604 200.103 71.857 200.871C67.5359 202.507 63.9658 205.673 61.8242 209.767" fill="#E0E0E0"/>
<path d="M57.3047 213.716C60.2383 214.132 63.2149 214.147 66.1524 213.759C69.0198 213.28 71.7337 212.138 74.4107 211.014C74.6449 210.944 74.8457 210.792 74.9756 210.584C75.016 210.46 75.0183 210.326 74.9822 210.2C74.9461 210.075 74.8733 209.962 74.773 209.878C74.5657 209.716 74.3243 209.603 74.0669 209.547C71.1504 208.736 68.0067 209.117 65.1393 210.081C62.4083 211.016 59.7825 212.235 57.3047 213.716Z" fill="#E0E0E0"/>
<path d="M40.5238 220.967C38.5161 216.915 38.6818 212.187 40.3826 208.012C41.6106 209.854 41.7518 212.236 41.5308 214.453C41.3098 216.669 40.6344 218.941 40.5852 221.164" fill="#E0E0E0"/>
<path d="M32.4884 216.92C29.976 216.886 27.4844 217.378 25.173 218.363C22.8617 219.349 20.7817 220.806 19.0664 222.642C21.6038 222.947 24.1739 222.471 26.4344 221.279C28.6723 220.091 30.7832 218.678 32.734 217.061" fill="#E0E0E0"/>
<path d="M27.0965 215.114C24.6405 214.918 22.2889 214.617 19.9311 215.335C18.7415 215.67 17.6381 216.257 16.6962 217.057C15.7542 217.857 14.9958 218.851 14.4727 219.971C16.7851 220.156 19.1049 219.717 21.1898 218.7C23.2623 217.684 25.2392 216.484 27.0965 215.114Z" fill="#E0E0E0"/>
<path d="M35.0785 215.201C32.8743 213.758 30.6086 212.285 28.0421 211.683C25.4756 211.081 22.5161 211.529 20.7109 213.463C22.7863 214.691 25.3098 214.826 27.7228 214.826C30.1358 214.826 33.083 214.796 35.3548 215.6" fill="#E0E0E0"/>
<path d="M35.09 215.318C31.32 211.634 29.8955 204.966 31.406 199.906C34.3808 204.462 35.6828 209.909 35.09 215.318Z" fill="#E0E0E0"/>
<path d="M45.4375 204.829C46.1497 203.171 46.6655 201.44 47.2795 199.757C47.8608 198.05 48.7539 196.466 49.9136 195.085C51.0883 193.685 52.7666 192.803 54.5861 192.629C54.0049 195.179 52.899 197.581 51.3386 199.68C49.7783 201.78 47.7979 203.531 45.5235 204.823" fill="#E0E0E0"/>
<path d="M43.5941 207.015C42.4213 205.394 41.0582 203.196 39.4618 201.986C37.8654 200.777 35.7778 200.046 33.8438 200.506C34.8524 202.273 36.2585 203.782 37.9508 204.911C39.6432 206.041 41.5752 206.761 43.5941 207.015Z" fill="#E0E0E0"/>
<path d="M43.9554 204.964C43.1196 203.031 42.5018 201.011 42.1134 198.941C41.7275 196.846 42.0607 194.682 43.0589 192.801C45.1281 196.712 45.7974 200.912 44.0843 204.995" fill="#E0E0E0"/>
<path d="M45.4805 192.795C46.6532 188.92 50.2021 186.041 54.0396 184.751C54.5135 184.557 55.0278 184.481 55.5378 184.53C55.7927 184.557 56.0339 184.658 56.2308 184.822C56.4276 184.986 56.5711 185.205 56.643 185.451C56.7842 186.108 56.2377 186.679 55.722 187.14C52.7267 189.699 49.2423 191.623 45.4805 192.795Z" fill="#E0E0E0"/>
<path d="M45.5223 189.647C45.6697 187.141 45.8232 184.606 46.6398 182.236C47.4564 179.866 49.0221 177.649 51.3001 176.611C51.6869 179.135 50.5756 181.646 49.2309 183.82C47.8862 185.993 46.2653 188.044 45.4609 190.469" fill="#E0E0E0"/>
<path d="M45.4371 191.365C44.467 188.541 44.3687 184.949 42.6741 182.487C41.4891 180.768 39.6041 179.595 38.5787 177.771C37.963 179.52 38.0488 181.439 38.8182 183.126C39.588 184.793 40.6483 186.311 41.9496 187.608C43.1776 188.946 44.2705 189.953 45.4371 191.365Z" fill="#E0E0E0"/>
<path d="M45.4798 274.593C45.4061 274.593 45.3386 255.743 45.3325 232.491C45.3263 209.239 45.3877 190.383 45.4614 190.383C45.5351 190.383 45.6026 209.226 45.6088 232.491C45.6149 255.755 45.5535 274.593 45.4798 274.593Z" fill="#E0E0E0"/>
<path d="M61.955 218.117C61.7297 218.232 61.493 218.322 61.2489 218.387L59.2963 219.044C57.6508 219.603 55.3913 220.414 52.9414 221.421C50.4916 222.427 48.2198 223.305 46.9181 224.435C46.3906 224.868 45.9704 225.416 45.6901 226.038C45.4998 226.48 45.4691 226.75 45.4445 226.75C45.4199 226.75 45.4445 226.676 45.4445 226.547C45.4757 226.362 45.5229 226.179 45.5857 226.001C45.8316 225.343 46.2367 224.757 46.7646 224.294C47.5521 223.628 48.4335 223.082 49.3802 222.673C50.424 222.182 51.5845 221.672 52.8125 221.169C55.2685 220.162 57.5464 219.376 59.2104 218.86C60.0454 218.602 60.7208 218.412 61.1936 218.283C61.4416 218.204 61.6965 218.148 61.955 218.117Z" fill="#E0E0E0"/>
<path d="M67.3564 204.855C67.2987 204.934 67.2306 205.004 67.1538 205.064L66.5398 205.635L64.2803 207.686L56.7649 214.379C53.83 216.994 51.2942 219.487 49.5381 221.366C48.654 222.305 47.9601 223.085 47.4874 223.625L46.9409 224.239C46.8838 224.317 46.8155 224.385 46.7383 224.442C46.7841 224.356 46.8397 224.276 46.9041 224.203C47.0146 224.049 47.1804 223.822 47.4075 223.546C47.8558 222.981 48.5312 222.183 49.3969 221.225C51.6648 218.746 54.0628 216.389 56.5807 214.164C59.5279 211.56 62.2049 209.215 64.1513 207.532C65.1092 206.71 65.8951 206.04 66.4661 205.543L67.0801 205.015C67.1645 204.949 67.2574 204.896 67.3564 204.855Z" fill="#E0E0E0"/>
<path d="M53.6086 217.037C53.5288 217 54.1428 215.588 54.7568 213.795C55.3708 212.002 55.6593 210.498 55.7392 210.51C55.6755 211.664 55.431 212.802 55.0146 213.881C54.7509 214.646 54.4455 215.396 54.0998 216.128C53.9764 216.451 53.8113 216.757 53.6086 217.037Z" fill="#E0E0E0"/>
<path d="M45.4967 228.446C45.3246 228.291 45.172 228.115 45.0424 227.924L43.8819 226.438C42.9118 225.179 41.5671 223.441 40.0567 221.526C38.5462 219.61 37.1647 217.922 36.1578 216.687L34.9973 215.238C34.842 215.066 34.7042 214.879 34.5859 214.68C34.7652 214.827 34.9297 214.992 35.0771 215.171C35.378 215.496 35.8078 215.981 36.3051 216.583C37.3489 217.811 38.7611 219.469 40.2716 221.372C41.782 223.276 43.1021 225.056 44.0354 226.321C44.5082 226.935 44.8766 227.494 45.1283 227.862C45.2706 228.044 45.3941 228.239 45.4967 228.446Z" fill="#E0E0E0"/>
<path d="M41.8813 223.808C41.1533 223.003 40.6346 222.03 40.3709 220.977C40.0836 220.052 39.9671 219.083 40.027 218.116H40.1498C40.133 218.233 40.0934 218.346 40.0332 218.448C40.0332 218.448 40.0332 218.319 40.0332 218.098H40.156C40.2133 219.04 40.3739 219.972 40.6349 220.879C40.9792 221.884 41.3958 222.863 41.8813 223.808Z" fill="#E0E0E0"/>
<path d="M37.2231 217.97C36.8965 217.725 36.542 217.519 36.167 217.356C35.2167 217.07 34.2159 216.99 33.2321 217.123C32.2359 217.196 31.2478 217.354 30.2788 217.596C29.8761 217.72 29.4659 217.818 29.0508 217.891C29.4093 217.669 29.8012 217.508 30.2112 217.412C31.1834 217.111 32.1865 216.921 33.2014 216.847C34.2199 216.712 35.256 216.823 36.2223 217.172C36.6383 217.314 36.9921 217.596 37.2231 217.97Z" fill="#E0E0E0"/>
<path d="M36.118 216.519C36.118 216.562 35.504 216.274 34.497 215.905C31.873 215.012 29.065 214.801 26.3369 215.291C25.2931 215.476 24.6669 215.672 24.6484 215.629C24.7805 215.544 24.9257 215.482 25.0782 215.445C25.4798 215.304 25.89 215.189 26.3062 215.101C27.6783 214.8 29.0869 214.701 30.4876 214.806C31.8858 214.916 33.261 215.226 34.5707 215.727C34.9662 215.879 35.3517 216.055 35.725 216.255C35.8688 216.323 36.0013 216.412 36.118 216.519Z" fill="#E0E0E0"/>
<path d="M45.4358 210.509C44.9551 209.168 44.5613 207.798 44.2569 206.407C43.8603 205.039 43.5526 203.646 43.3359 202.238C43.8171 203.579 44.2129 204.949 44.521 206.34C44.914 207.709 45.2196 209.101 45.4358 210.509Z" fill="#E0E0E0"/>
<path d="M45.5366 210.51C45.1591 209.661 44.7221 208.841 44.2287 208.054C43.6758 207.309 43.0277 206.64 42.3008 206.064C42.5748 206.135 42.8291 206.267 43.0437 206.451C43.5909 206.849 44.0664 207.337 44.4498 207.894C45.0364 208.655 45.4113 209.557 45.5366 210.51Z" fill="#E0E0E0"/>
<path d="M45.4794 264.542C45.4794 264.542 45.3934 264.087 45.1785 263.314C44.8775 262.187 44.4662 261.093 43.9505 260.047C42.1351 256.637 39.8901 253.474 37.2702 250.634C35.7782 248.928 34.3292 247.319 33.1012 245.778C31.9958 244.425 30.998 242.988 30.1171 241.48C29.5246 240.461 29.0213 239.392 28.6128 238.287C28.4716 237.894 28.3734 237.587 28.3181 237.378C28.2822 237.272 28.2555 237.163 28.2383 237.053C28.2383 237.053 28.3979 237.483 28.7111 238.25C29.1572 239.331 29.6826 240.378 30.2829 241.381C31.1826 242.866 32.1881 244.284 33.2915 245.624C34.5195 247.147 35.9808 248.743 37.4728 250.45C40.1118 253.307 42.3508 256.508 44.1286 259.967C44.6418 261.029 45.0391 262.142 45.3136 263.289C45.3863 263.601 45.4417 263.917 45.4794 264.235C45.4888 264.337 45.4888 264.439 45.4794 264.542Z" fill="#E0E0E0"/>
<path d="M60.3689 247.73C60.1166 247.889 59.8563 248.034 59.5891 248.166C58.8816 248.562 58.2043 249.009 57.5629 249.505C56.6126 250.24 55.7235 251.051 54.9043 251.93C53.971 252.912 53.0131 254.054 52.0307 255.282C50.0721 257.738 48.2362 259.924 47.1187 261.662C46.56 262.522 46.1548 263.246 45.8907 263.756C45.7645 264.027 45.621 264.289 45.4609 264.542C45.4609 264.542 45.4609 264.462 45.5346 264.321C45.6083 264.179 45.6697 263.971 45.7925 263.707C46.141 262.969 46.5347 262.253 46.9714 261.564C48.4628 259.325 50.0802 257.172 51.8158 255.117C52.7982 253.889 53.7745 252.747 54.7262 251.758C55.5636 250.883 56.4735 250.079 57.4462 249.357C58.1097 248.861 58.8166 248.425 59.5584 248.056C59.7575 247.954 59.9625 247.863 60.1724 247.786C60.2993 247.736 60.3648 247.718 60.3689 247.73Z" fill="#E0E0E0"/>
<path d="M60.6597 253.182C60.1156 253.301 59.5636 253.381 59.008 253.421C57.683 253.557 56.3736 253.816 55.0968 254.195C53.8339 254.605 52.6503 255.228 51.597 256.037C50.7927 256.651 50.412 257.173 50.369 257.148C50.326 257.124 50.4304 256.995 50.6085 256.768C50.8649 256.447 51.1529 256.153 51.4681 255.89C52.5127 255.017 53.7155 254.354 55.0109 253.937C56.3036 253.551 57.6367 253.317 58.9834 253.237C59.5393 253.167 60.1004 253.149 60.6597 253.182Z" fill="#E0E0E0"/>
<path d="M50.8506 256.541C50.7646 256.492 51.5076 255.356 52.0786 253.827C52.6496 252.298 52.7478 250.935 52.8399 250.953C52.8924 251.246 52.8924 251.545 52.8399 251.837C52.7562 252.549 52.5956 253.249 52.361 253.925C52.1085 254.593 51.7875 255.233 51.4032 255.835C51.2604 256.1 51.0735 256.338 50.8506 256.541Z" fill="#E0E0E0"/>
<path d="M65.1882 233.08C65.1081 233.141 65.019 233.188 64.9242 233.221L64.1505 233.571C63.8067 233.719 63.3953 233.903 62.9225 234.148C62.4497 234.394 61.9094 234.64 61.3445 234.977L60.4481 235.487C60.135 235.671 59.8341 235.88 59.4964 236.101C58.8333 236.5 58.1702 236.997 57.4579 237.501C55.953 238.643 54.533 239.893 53.209 241.24C51.9098 242.603 50.7133 244.06 49.6294 245.6C49.1444 246.33 48.6716 247.012 48.2909 247.687C48.1006 248.019 47.8979 248.338 47.726 248.657L47.2778 249.578C46.9585 250.155 46.7313 250.708 46.5042 251.181C46.277 251.654 46.1051 252.071 45.97 252.409C45.8349 252.747 45.7305 252.986 45.6446 253.195C45.6109 253.289 45.5677 253.379 45.5156 253.465C45.5273 253.365 45.5543 253.268 45.5954 253.176L45.8717 252.372C45.9945 252.022 46.148 251.592 46.3629 251.113C46.5778 250.634 46.7927 250.069 47.1059 249.486C47.2532 249.185 47.4129 248.872 47.5725 248.553C47.7322 248.234 47.9348 247.939 48.1313 247.57C48.5058 246.883 48.9724 246.195 49.4514 245.458C51.6065 242.307 54.2781 239.542 57.3535 237.28C58.0719 236.776 58.7473 236.285 59.4166 235.892C59.7543 235.69 60.0674 235.475 60.3806 235.278L61.2954 234.775C61.8726 234.449 62.4252 234.21 62.898 233.983C63.2977 233.783 63.7076 233.605 64.126 233.448L64.9242 233.141C65.0099 233.112 65.0984 233.092 65.1882 233.08Z" fill="#E0E0E0"/>
<path d="M53.418 240.977C53.5152 240.598 53.7303 240.261 54.032 240.013C54.7583 239.381 55.6849 239.026 56.6476 239.012C57.5887 239.007 58.5214 239.189 59.3922 239.546C59.7599 239.664 60.1092 239.834 60.4298 240.049C60.054 239.979 59.6859 239.872 59.3308 239.73C58.4697 239.432 57.5648 239.281 56.6537 239.282C55.7504 239.301 54.877 239.609 54.1609 240.16C53.892 240.412 53.6436 240.685 53.418 240.977Z" fill="#E0E0E0"/>
<path d="M51.6445 242.794C51.994 242.024 52.2437 241.213 52.3875 240.381C52.4372 239.538 52.3815 238.692 52.2217 237.863C52.3797 238.07 52.485 238.313 52.5287 238.569C52.8462 239.783 52.695 241.072 52.105 242.18C51.8717 242.597 51.6691 242.812 51.6445 242.794Z" fill="#E0E0E0"/>
<path d="M32.457 267.242C32.8623 274.451 35.0358 281.776 38.376 289.187H52.8971C56.0837 281.849 58.1038 274.537 58.4599 267.242H32.457Z" fill="#E0E0E0"/>
<path d="M56.1088 278.903C56.1088 278.977 51.3258 279.038 45.4314 279.038C39.537 279.038 34.7539 278.977 34.7539 278.903C34.7539 278.83 39.5308 278.756 45.4375 278.756C51.3442 278.756 56.1088 278.83 56.1088 278.903Z" fill="#FAFAFA"/>
<path d="M55.7843 281.512C55.7843 281.586 51.3021 281.647 45.7761 281.647C40.2501 281.647 35.7617 281.586 35.7617 281.512C35.7617 281.438 40.2439 281.377 45.7761 281.377C51.3082 281.377 55.7843 281.438 55.7843 281.512Z" fill="#FAFAFA"/>
<path d="M38.6077 272.002C38.7879 274.227 38.7879 276.463 38.6077 278.688C38.4276 276.463 38.4276 274.227 38.6077 272.002Z" fill="#FAFAFA"/>
<path d="M46.389 272.002C46.5691 274.307 46.5691 276.623 46.389 278.928C46.2089 276.623 46.2089 274.307 46.389 272.002Z" fill="#FAFAFA"/>
<path d="M53.6937 271.916C53.8738 274.268 53.8738 276.631 53.6937 278.983C53.5136 276.631 53.5136 274.268 53.6937 271.916Z" fill="#FAFAFA"/>
<path d="M58.0004 272.002C58.0004 272.076 52.3946 272.137 45.481 272.137C38.5673 272.137 32.9492 272.076 32.9492 272.002C32.9492 271.929 38.5612 271.867 45.481 271.867C52.4007 271.867 58.0004 271.898 58.0004 272.002Z" fill="#FAFAFA"/>
<path d="M283.294 204.788C284.623 204.201 285.751 203.237 286.537 202.016C287.324 200.795 287.736 199.369 287.721 197.917C287.721 193.815 284.651 190.475 280.789 190.463C276.927 190.451 273.808 193.754 273.796 197.831C273.768 199.295 274.174 200.734 274.963 201.968C275.752 203.202 276.888 204.174 278.229 204.763C267.514 206.378 267.999 218.019 267.999 218.019L293.339 218.136C293.339 218.136 293.916 206.39 283.294 204.788Z" fill="#EBEBEB"/>
<path d="M169.383 35.4939C170.316 35.3106 171.176 34.8603 171.859 34.1976C172.541 33.5349 173.016 32.6884 173.227 31.7608C173.401 31.1655 173.453 30.5409 173.378 29.9251C173.304 29.3092 173.105 28.715 172.793 28.1787C172.481 27.6424 172.063 27.1751 171.565 26.8055C171.067 26.4359 170.499 26.1717 169.895 26.0289C169.291 25.8861 168.665 25.8678 168.054 25.975C167.443 26.0823 166.86 26.3129 166.341 26.6527C165.822 26.9926 165.378 27.4346 165.035 27.9517C164.692 28.4689 164.459 29.0505 164.348 29.6609C164.112 30.5918 164.158 31.5719 164.479 32.477C164.8 33.3821 165.383 34.1713 166.153 34.7448C159.074 34.1861 157.668 41.6892 157.668 41.6892L173.816 45.5144C173.816 45.5144 175.928 38.0666 169.383 35.4939Z" fill="#EBEBEB"/>
<path d="M283.987 98.0001C284.761 97.5158 285.376 96.8149 285.756 95.9843C286.136 95.1538 286.264 94.23 286.124 93.3275C286.078 92.7301 285.909 92.1485 285.63 91.6185C285.35 91.0886 284.964 90.6217 284.497 90.2466C284.03 89.8715 283.491 89.5961 282.913 89.4375C282.335 89.279 281.731 89.2405 281.137 89.3246C280.544 89.4087 279.974 89.6136 279.463 89.9265C278.952 90.2394 278.511 90.6537 278.166 91.1439C277.822 91.6341 277.581 92.1898 277.46 92.7766C277.338 93.3633 277.338 93.9688 277.46 94.5555C277.573 95.4692 277.955 96.3287 278.558 97.0251C279.16 97.7214 279.955 98.2231 280.843 98.4667C274.329 100.438 275.673 107.634 275.673 107.634L291.441 105.429C291.441 105.429 290.735 98.043 283.987 98.0001Z" fill="#F5F5F5"/>
<path d="M30.9966 100.229L22.4805 93.4563L24.8382 90.4845L30.5546 95.022L38.8927 85.6953L41.7232 88.225L30.9966 100.229Z" fill="#F5F5F5"/>
<path d="M288.987 289.402C288.987 289.494 227.494 289.561 151.665 289.561C75.8364 289.561 14.332 289.494 14.332 289.402C14.332 289.31 75.8057 289.242 151.665 289.242C227.525 289.242 288.987 289.316 288.987 289.402Z" fill="#263238"/>
<path d="M42.61 110.034L23.7787 119.484C23.0955 119.781 22.5145 120.273 22.1075 120.897C21.7004 121.521 21.4852 122.251 21.4884 122.996V131.807C21.4668 139.821 23.8005 147.666 28.1995 154.365C31.5949 159.535 36.0955 166.142 43.5802 169.918H46.9572C55.2953 167.376 61.5151 160.603 65.3158 154.807C69.7166 148.108 72.0523 140.264 72.0329 132.249V122.996C72.0319 122.248 71.8116 121.516 71.399 120.892C70.9865 120.268 70.3999 119.778 69.712 119.484L48.2281 110.341C47.2764 109.936 43.5924 109.629 42.61 110.034Z" fill="#6DCDCB"/>
<path opacity="0.3" d="M42.61 110.034L23.7787 119.484C23.0955 119.781 22.5145 120.273 22.1075 120.897C21.7004 121.521 21.4852 122.251 21.4884 122.996V131.807C21.4668 139.821 23.8005 147.666 28.1995 154.365C31.5949 159.535 36.0955 166.142 43.5802 169.918H46.9572C55.2953 167.376 61.5151 160.603 65.3158 154.807C69.7166 148.108 72.0523 140.264 72.0329 132.249V122.996C72.0319 122.248 71.8116 121.516 71.399 120.892C70.9865 120.268 70.3999 119.778 69.712 119.484L48.2281 110.341C47.2764 109.936 43.5924 109.629 42.61 110.034Z" fill="black"/>
<path d="M41.8544 110.342L20.3951 119.484C19.7072 119.778 19.1206 120.268 18.7081 120.892C18.2956 121.516 18.0752 122.248 18.0742 122.996V131.807C18.0747 139.967 20.4954 147.943 25.03 154.727C29.5646 161.511 36.0094 166.798 43.5491 169.918C51.8811 167.376 58.1009 160.604 61.9077 154.807C66.3085 148.108 68.6443 140.264 68.6248 132.249V122.996C68.6244 122.249 68.4049 121.517 67.9935 120.893C67.5821 120.269 66.9969 119.779 66.3101 119.484L44.8201 110.342C44.3505 110.144 43.8464 110.043 43.3372 110.043C42.828 110.043 42.324 110.144 41.8544 110.342Z" fill="#6DCDCB"/>
<path opacity="0.3" d="M48.4409 150.305C55.6839 147.495 59.2781 139.346 56.4687 132.103C53.6593 124.86 45.5102 121.266 38.2671 124.075C31.024 126.885 27.4298 135.034 30.2392 142.277C33.0486 149.52 41.1978 153.114 48.4409 150.305Z" fill="black"/>
<path d="M43.347 137.971C46.5718 137.971 49.1861 135.357 49.1861 132.132C49.1861 128.907 46.5718 126.293 43.347 126.293C40.1221 126.293 37.5078 128.907 37.5078 132.132C37.5078 135.357 40.1221 137.971 43.347 137.971Z" fill="white"/>
<path d="M32.6875 146.358C33.6266 144.393 35.1086 142.739 36.9583 141.59C38.8081 140.441 40.9481 139.845 43.1255 139.874C45.3582 139.874 47.5495 140.477 49.4685 141.618C51.3876 142.759 52.9635 144.396 54.0301 146.358C54.0301 146.358 50.5856 151.454 42.9781 151.27C41.0066 151.262 39.0612 150.817 37.2819 149.968C35.5026 149.119 33.9336 147.886 32.6875 146.358Z" fill="white"/>
<path d="M57.4125 137.193C57.4055 137.117 57.4055 137.041 57.4125 136.965C57.4125 136.8 57.4125 136.579 57.3573 136.302C57.3573 136.155 57.3573 135.989 57.3573 135.811C57.3573 135.633 57.2959 135.437 57.2652 135.197C57.2011 134.71 57.1027 134.228 56.9705 133.754C56.6366 132.443 56.1089 131.189 55.4047 130.033C54.4812 128.5 53.2723 127.158 51.8436 126.079C50.1175 124.767 48.1066 123.879 45.9737 123.488C43.525 123.037 41.0003 123.249 38.661 124.102C38.0279 124.322 37.4122 124.589 36.819 124.9C36.2258 125.225 35.6555 125.591 35.112 125.993C34.5593 126.409 34.0324 126.858 33.5341 127.338C33.0456 127.844 32.5903 128.382 32.171 128.947C31.3114 130.111 30.642 131.404 30.1878 132.778C29.2298 135.626 29.2298 138.71 30.1878 141.558C30.6393 142.933 31.3089 144.227 32.171 145.39C32.5903 145.956 33.0456 146.496 33.5341 147.004C34.0308 147.484 34.5579 147.931 35.112 148.343C36.178 149.156 37.3653 149.796 38.6303 150.24C40.9696 151.093 43.4943 151.305 45.943 150.854C47.8878 150.488 49.7332 149.715 51.3585 148.586C52.9838 147.457 54.3522 145.997 55.3741 144.303C56.0704 143.155 56.5899 141.909 56.9152 140.606C57.0469 140.131 57.1454 139.647 57.2099 139.157C57.2099 138.949 57.2836 138.752 57.302 138.543C57.3204 138.335 57.302 138.2 57.302 138.052L57.3573 137.383C57.351 137.307 57.351 137.231 57.3573 137.156C57.3639 137.231 57.3639 137.307 57.3573 137.383C57.3573 137.555 57.3573 137.776 57.3573 138.058C57.3573 138.206 57.3573 138.371 57.3573 138.55C57.3573 138.728 57.3082 138.93 57.2775 139.164C57.2284 139.659 57.138 140.15 57.0073 140.631C56.6957 141.961 56.18 143.235 55.4784 144.407C53.8099 147.256 51.1961 149.43 48.0913 150.551C44.9865 151.673 41.5868 151.672 38.4829 150.547C37.8509 150.32 37.2354 150.049 36.6409 149.737C36.0365 149.397 35.4578 149.013 34.9094 148.588C34.3383 148.17 33.7967 147.712 33.2885 147.219C32.7997 146.709 32.3444 146.167 31.9254 145.598C31.0415 144.409 30.3533 143.087 29.8869 141.681C29.4206 140.23 29.1743 138.717 29.1562 137.193C29.1733 135.668 29.4217 134.154 29.893 132.704C30.3548 131.297 31.0411 129.975 31.9254 128.787C32.3571 128.21 32.8246 127.66 33.3253 127.141C33.8317 126.649 34.3712 126.191 34.9401 125.772C35.4846 125.357 36.0569 124.979 36.6532 124.642C37.2476 124.328 37.8631 124.055 38.4952 123.826C40.8829 122.961 43.4583 122.749 45.9553 123.212C47.936 123.593 49.8124 124.392 51.4591 125.557C53.1057 126.722 54.4844 128.225 55.503 129.966C56.2047 131.14 56.7204 132.416 57.0318 133.748C57.1625 134.227 57.2529 134.716 57.302 135.209C57.302 135.424 57.3695 135.621 57.3818 135.823V136.321C57.3818 136.603 57.3818 136.824 57.3818 136.99C57.3977 137.057 57.408 137.124 57.4125 137.193Z" fill="#263238"/>
<path d="M68.5515 129.859C68.5802 129.995 68.5946 130.133 68.5945 130.271C68.5945 130.565 68.5945 130.952 68.6436 131.437C68.6928 131.922 68.6928 132.561 68.6436 133.279C68.6436 133.642 68.6436 134.022 68.6436 134.434C68.6436 134.845 68.6436 135.275 68.5638 135.723C68.4779 136.626 68.4165 137.62 68.2261 138.676C68.1463 139.204 68.0788 139.751 67.9682 140.31C67.8577 140.868 67.7226 141.439 67.5998 142.029C67.0094 144.567 66.1873 147.046 65.1438 149.434C64.0656 151.809 62.7772 154.084 61.2941 156.231C60.5818 157.195 59.9248 158.128 59.2126 158.932C58.8688 159.338 58.5495 159.749 58.2118 160.111L57.2355 161.143C56.6215 161.824 56.0075 162.371 55.4795 162.856C55.0377 163.29 54.5724 163.7 54.0857 164.084L53.177 164.821C53.0773 164.91 52.9682 164.988 52.8516 165.054C52.9389 164.951 53.0355 164.856 53.1401 164.771L54.0059 163.992C54.3927 163.66 54.8532 163.249 55.3567 162.764C55.8602 162.279 56.4742 161.708 57.0697 161.026L58.0276 159.982C58.3591 159.62 58.6416 159.209 59.01 158.803C59.7038 157.999 60.3485 157.066 61.0546 156.096C62.512 153.958 63.7816 151.698 64.8491 149.342C65.8867 146.964 66.7087 144.498 67.3051 141.974L67.6858 140.267C67.7963 139.714 67.87 139.168 67.9621 138.646C68.1586 137.602 68.2323 136.613 68.3305 135.717C68.3858 135.269 68.4226 134.839 68.4349 134.434L68.4901 133.285C68.5454 132.567 68.5331 131.947 68.5331 131.443C68.5331 130.94 68.5331 130.578 68.5331 130.277C68.5288 130.137 68.5349 129.998 68.5515 129.859Z" fill="#263238"/>
<path d="M217.855 289.402H72.6682C71.717 289.386 70.7783 289.182 69.9057 288.803C69.0331 288.424 68.2438 287.877 67.5829 287.193C66.922 286.509 66.4024 285.701 66.0539 284.815C65.7054 283.93 65.5349 282.985 65.5519 282.034V60.1219C65.5349 59.1707 65.7054 58.2255 66.0539 57.3403C66.4024 56.455 66.922 55.6472 67.5829 54.9629C68.2438 54.2786 69.0331 53.7313 69.9057 53.3522C70.7783 52.9732 71.717 52.7699 72.6682 52.7539H217.855C218.806 52.7699 219.744 52.9732 220.616 53.3524C221.489 53.7315 222.277 54.2789 222.938 54.9633C223.598 55.6476 224.117 56.4555 224.465 57.3407C224.813 58.2259 224.983 59.171 224.965 60.1219V282.046C224.981 282.996 224.81 283.94 224.461 284.824C224.113 285.707 223.594 286.514 222.933 287.197C222.273 287.88 221.485 288.426 220.613 288.805C219.742 289.183 218.805 289.386 217.855 289.402Z" fill="#263238"/>
<path d="M148.042 278.638C148.065 279.978 147.689 281.295 146.961 282.421C146.233 283.547 145.187 284.431 143.955 284.96C142.723 285.489 141.361 285.64 140.043 285.392C138.726 285.145 137.511 284.511 136.555 283.571C135.599 282.632 134.944 281.429 134.674 280.115C134.404 278.802 134.53 277.438 135.038 276.197C135.545 274.956 136.411 273.895 137.524 273.147C138.637 272.4 139.947 272 141.288 272C143.064 271.986 144.773 272.676 146.039 273.921C147.305 275.166 148.026 276.862 148.042 278.638Z" fill="#455A64"/>
<path d="M161.595 65.2674H129.053C128.75 65.2626 128.451 65.1981 128.173 65.0777C127.894 64.9572 127.643 64.7831 127.432 64.5653C127.221 64.3475 127.055 64.0902 126.943 63.8083C126.832 63.5263 126.777 63.2251 126.782 62.9219C126.772 62.309 127.005 61.7173 127.431 61.2764C127.857 60.8355 128.44 60.5816 129.053 60.5703H161.595C162.208 60.5816 162.792 60.8355 163.217 61.2764C163.643 61.7173 163.877 62.309 163.867 62.9219C163.872 63.2251 163.817 63.5263 163.706 63.8083C163.594 64.0902 163.428 64.3475 163.217 64.5653C163.006 64.7831 162.754 64.9572 162.476 65.0777C162.198 65.1981 161.899 65.2626 161.595 65.2674Z" fill="#455A64"/>
<path d="M219.807 69.6445H70.4453V267.267H219.807V69.6445Z" fill="white"/>
<path d="M219.807 69.6445H213.434V267.267H219.807V69.6445Z" fill="#F5F5F5"/>
<path d="M216.616 140.648C216.089 140.647 215.585 140.436 215.213 140.064C214.842 139.691 214.633 139.186 214.633 138.659V94.9483C214.633 94.4218 214.842 93.9167 215.213 93.5438C215.585 93.1709 216.089 92.9606 216.616 92.959C217.144 92.959 217.65 93.1686 218.023 93.5417C218.396 93.9147 218.605 94.4207 218.605 94.9483V138.659C218.605 139.187 218.396 139.693 218.023 140.066C217.65 140.439 217.144 140.648 216.616 140.648Z" fill="#E0E0E0"/>
<path d="M200.327 114.622H90.1995C89.3592 114.622 88.5534 114.288 87.9592 113.694C87.365 113.1 87.0312 112.294 87.0312 111.453C87.0312 110.613 87.365 109.807 87.9592 109.213C88.5534 108.619 89.3592 108.285 90.1995 108.285H200.327C201.167 108.285 201.973 108.619 202.567 109.213C203.161 109.807 203.495 110.613 203.495 111.453C203.495 112.294 203.161 113.1 202.567 113.694C201.973 114.288 201.167 114.622 200.327 114.622Z" fill="#E0E0E0"/>
<path d="M183.383 91.4849H114.106C113.265 91.4849 112.46 91.1511 111.865 90.557C111.271 89.9628 110.938 89.1569 110.938 88.3167C110.938 87.4764 111.271 86.6706 111.865 86.0764C112.46 85.4822 113.265 85.1484 114.106 85.1484H183.383C184.224 85.1484 185.029 85.4822 185.624 86.0764C186.218 86.6706 186.552 87.4764 186.552 88.3167C186.552 89.1569 186.218 89.9628 185.624 90.557C185.029 91.1511 184.224 91.4849 183.383 91.4849Z" fill="#FDD522"/>
<path d="M184.686 127.374H105.836C104.996 127.374 104.19 127.04 103.596 126.446C103.002 125.851 102.668 125.046 102.668 124.205C102.668 123.365 103.002 122.559 103.596 121.965C104.19 121.371 104.996 121.037 105.836 121.037H184.686C185.102 121.037 185.514 121.119 185.899 121.278C186.283 121.437 186.632 121.671 186.926 121.965C187.221 122.259 187.454 122.609 187.613 122.993C187.772 123.377 187.854 123.789 187.854 124.205C187.854 124.621 187.772 125.033 187.613 125.418C187.454 125.802 187.221 126.151 186.926 126.446C186.632 126.74 186.283 126.973 185.899 127.132C185.514 127.292 185.102 127.374 184.686 127.374Z" fill="#E0E0E0"/>
<path d="M149.088 182.971H88.4182C87.578 182.971 86.7721 182.637 86.178 182.043C85.5838 181.449 85.25 180.643 85.25 179.803C85.25 179.387 85.332 178.975 85.4912 178.591C85.6504 178.206 85.8838 177.857 86.178 177.563C86.4722 177.269 86.8214 177.035 87.2058 176.876C87.5902 176.717 88.0022 176.635 88.4182 176.635H149.088C149.504 176.635 149.916 176.717 150.3 176.876C150.684 177.035 151.034 177.269 151.328 177.563C151.622 177.857 151.855 178.206 152.015 178.591C152.174 178.975 152.256 179.387 152.256 179.803C152.256 180.643 151.922 181.449 151.328 182.043C150.734 182.637 149.928 182.971 149.088 182.971Z" fill="#E0E0E0"/>
<path d="M198.545 169.69H88.4182C87.578 169.69 86.7721 169.356 86.178 168.762C85.5838 168.168 85.25 167.362 85.25 166.521C85.25 166.106 85.332 165.694 85.4913 165.31C85.6506 164.926 85.884 164.577 86.1783 164.283C86.4726 163.99 86.8219 163.757 87.2063 163.598C87.5906 163.44 88.0025 163.359 88.4182 163.359H198.545C198.961 163.359 199.373 163.44 199.757 163.598C200.142 163.757 200.491 163.99 200.785 164.283C201.079 164.577 201.313 164.926 201.472 165.31C201.632 165.694 201.714 166.106 201.714 166.521C201.714 166.938 201.632 167.35 201.472 167.734C201.313 168.118 201.08 168.468 200.786 168.762C200.491 169.056 200.142 169.289 199.758 169.449C199.373 169.608 198.961 169.69 198.545 169.69Z" fill="#E0E0E0"/>
<path d="M198.544 206.088H102.153C100.403 206.088 98.9844 207.506 98.9844 209.256C98.9844 211.006 100.403 212.424 102.153 212.424H198.544C200.294 212.424 201.713 211.006 201.713 209.256C201.713 207.506 200.294 206.088 198.544 206.088Z" fill="#E0E0E0"/>
<path d="M198.545 225.951H88.4182C87.578 225.951 86.7721 225.617 86.178 225.023C85.5838 224.429 85.25 223.623 85.25 222.783C85.2532 221.945 85.5885 221.142 86.1823 220.551C86.7761 219.959 87.5801 219.627 88.4182 219.627H198.545C198.961 219.627 199.373 219.709 199.758 219.868C200.142 220.027 200.491 220.261 200.786 220.555C201.08 220.849 201.313 221.198 201.472 221.583C201.632 221.967 201.714 222.379 201.714 222.795C201.71 223.633 201.375 224.436 200.781 225.028C200.187 225.619 199.383 225.951 198.545 225.951Z" fill="#E0E0E0"/>
<path d="M198.545 239.717H88.4182C87.578 239.717 86.7721 239.384 86.178 238.789C85.5838 238.195 85.25 237.389 85.25 236.549C85.25 235.709 85.5838 234.903 86.178 234.309C86.7721 233.715 87.578 233.381 88.4182 233.381H198.545C198.961 233.381 199.373 233.463 199.758 233.622C200.142 233.781 200.491 234.015 200.786 234.309C201.08 234.603 201.313 234.952 201.472 235.337C201.632 235.721 201.714 236.133 201.714 236.549C201.714 237.389 201.38 238.195 200.786 238.789C200.191 239.384 199.386 239.717 198.545 239.717Z" fill="#E0E0E0"/>
<path d="M93.3712 209.256C93.3712 209.907 93.178 210.544 92.8161 211.085C92.4542 211.626 91.9398 212.048 91.3381 212.297C90.7364 212.546 90.0744 212.611 89.4358 212.483C88.7972 212.356 88.2108 212.042 87.7508 211.581C87.2908 211.12 86.9778 210.533 86.8516 209.894C86.7253 209.255 86.7913 208.593 87.0413 207.992C87.2914 207.391 87.7142 206.877 88.2562 206.516C88.7982 206.156 89.4351 205.964 90.0862 205.965C90.958 205.966 91.7935 206.314 92.4094 206.931C93.0253 207.548 93.3712 208.384 93.3712 209.256Z" fill="#FDD522"/>
<path d="M198.543 157.317H102.145C101.305 157.317 100.499 156.983 99.9045 156.389C99.3104 155.795 98.9766 154.989 98.9766 154.149C98.9766 153.308 99.3104 152.503 99.9045 151.908C100.499 151.314 101.305 150.98 102.145 150.98H198.543C198.959 150.98 199.371 151.062 199.755 151.222C200.14 151.381 200.489 151.614 200.783 151.908C201.077 152.203 201.311 152.552 201.47 152.936C201.629 153.321 201.711 153.733 201.711 154.149C201.711 154.565 201.629 154.977 201.47 155.361C201.311 155.746 201.077 156.095 200.783 156.389C200.489 156.683 200.14 156.917 199.755 157.076C199.371 157.235 198.959 157.317 198.543 157.317Z" fill="#E0E0E0"/>
<path d="M90.0879 157.441C91.9055 157.441 93.379 155.968 93.379 154.15C93.379 152.333 91.9055 150.859 90.0879 150.859C88.2703 150.859 86.7969 152.333 86.7969 154.15C86.7969 155.968 88.2703 157.441 90.0879 157.441Z" fill="#FDD522"/>
<path d="M195.468 259.862H170.754C169.416 259.862 168.132 259.33 167.185 258.383C166.239 257.437 165.707 256.153 165.707 254.815C165.707 253.476 166.239 252.192 167.185 251.246C168.132 250.299 169.416 249.768 170.754 249.768H195.468C196.806 249.768 198.09 250.299 199.036 251.246C199.983 252.192 200.515 253.476 200.515 254.815C200.515 256.153 199.983 257.437 199.036 258.383C198.09 259.33 196.806 259.862 195.468 259.862Z" fill="#6DCDCB"/>
<path d="M68.1534 21.7042L42.5373 34.5552C41.6 34.9537 40.8004 35.619 40.2382 36.4684C39.676 37.3177 39.3759 38.3136 39.3752 39.3321V51.3174C39.3449 62.2252 42.5221 72.9011 48.5115 82.0174C53.1288 89.0293 59.2443 98.0183 69.4305 103.151H74.0232C85.3577 99.6945 93.8186 90.4783 98.9946 82.6007C104.984 73.4844 108.161 62.8085 108.131 51.9007V39.3321C108.132 38.3163 107.836 37.3224 107.278 36.4734C106.721 35.6244 105.926 34.9575 104.993 34.5552L75.7916 22.1033C74.4899 21.5691 69.4551 21.1516 68.1534 21.7042Z" fill="#6DCDCB"/>
<path opacity="0.3" d="M68.1534 21.7042L42.5373 34.5552C41.6 34.9537 40.8004 35.619 40.2382 36.4684C39.676 37.3177 39.3759 38.3136 39.3752 39.3321V51.3174C39.3449 62.2252 42.5221 72.9011 48.5115 82.0174C53.1288 89.0293 59.2443 98.0183 69.4305 103.151H74.0232C85.3577 99.6945 93.8186 90.4783 98.9946 82.6007C104.984 73.4844 108.161 62.8085 108.131 51.9007V39.3321C108.132 38.3163 107.836 37.3224 107.278 36.4734C106.721 35.6244 105.926 34.9575 104.993 34.5552L75.7916 22.1033C74.4899 21.5691 69.4551 21.1516 68.1534 21.7042Z" fill="black"/>
<path d="M67.1206 22.1025L37.9372 34.5544C37.0005 34.9532 36.2019 35.6188 35.6407 36.4682C35.0795 37.3176 34.7806 38.3133 34.7813 39.3314V51.3166C34.7827 62.4146 38.0754 73.2628 44.2427 82.4892C50.4101 91.7157 59.1751 98.9059 69.4293 103.151C80.7637 99.6937 89.2246 90.4776 94.3945 82.5999C100.387 73.4849 103.564 62.8081 103.531 51.8999V39.3314C103.531 38.3133 103.233 37.3176 102.671 36.4682C102.11 35.6188 101.312 34.9532 100.375 34.5544L71.2221 22.1025C70.5741 21.8248 69.8764 21.6816 69.1714 21.6816C68.4664 21.6816 67.7687 21.8248 67.1206 22.1025Z" fill="#6DCDCB"/>
<path d="M103.438 48.6719C103.445 48.7186 103.445 48.7663 103.438 48.8131C103.438 48.9236 103.438 49.0587 103.438 49.2245C103.438 49.6174 103.468 50.1455 103.493 50.8147C103.517 51.484 103.554 52.3436 103.493 53.326C103.493 53.8172 103.493 54.3391 103.444 54.8917C103.444 55.1741 103.444 55.4566 103.444 55.7513C103.444 56.046 103.388 56.3653 103.358 56.6539C103.235 57.8819 103.155 59.2327 102.897 60.6633C102.781 61.3755 102.688 62.1246 102.541 62.8798C102.394 63.6351 102.21 64.4148 102.038 65.213C101.227 68.6643 100.098 72.0331 98.6667 75.2765C97.204 78.5051 95.4574 81.5975 93.4477 84.5172C92.4776 85.8312 91.6057 87.1021 90.6233 88.2012C90.1506 88.7538 89.7208 89.3125 89.2603 89.8037L87.934 91.2159C87.1113 92.1369 86.2639 92.8676 85.5578 93.5491C85.1956 93.8807 84.8702 94.2 84.557 94.4763L83.6974 95.1701L82.4694 96.1771L82.144 96.4349C82.0703 96.4902 82.0273 96.5148 82.0273 96.5086C82.0273 96.5025 82.0273 96.4718 82.1194 96.4042L82.4264 96.1279L83.6115 95.078L84.4772 94.3228C84.7903 94.0465 85.0912 93.7088 85.4596 93.3772C86.1534 92.6895 86.9823 91.9527 87.7928 91.0256L89.1006 89.6011C89.555 89.1099 89.9786 88.5512 90.4391 87.9986C91.3908 86.9057 92.2811 85.6347 93.2267 84.3146C95.2168 81.401 96.9487 78.3193 98.4027 75.1046C99.8218 71.8775 100.95 68.5302 101.774 65.1025C101.952 64.3105 102.117 63.5368 102.289 62.7877C102.461 62.0387 102.535 61.2896 102.658 60.5773C102.928 59.1529 103.02 57.8082 103.155 56.5863C103.192 56.2855 103.223 55.9723 103.253 55.696C103.284 55.4197 103.253 55.1189 103.29 54.8426C103.315 54.29 103.339 53.7681 103.364 53.2769C103.431 52.3006 103.413 51.4349 103.413 50.7718V49.2306V48.8131C103.412 48.7649 103.42 48.7169 103.438 48.6719Z" fill="#263238"/>
<path d="M80.713 64.7763H77.6V47.8361C77.5452 45.9551 76.7595 44.1695 75.4096 42.8584C74.0597 41.5473 72.252 40.8139 70.3702 40.8139C68.4884 40.8139 66.6807 41.5473 65.3308 42.8584C63.9809 44.1695 63.1951 45.9551 63.1403 47.8361V64.7763H60.0273V47.8361C60.0931 45.1366 61.2117 42.5698 63.1442 40.6839C65.0767 38.7979 67.6699 37.7422 70.3702 37.7422C73.0704 37.7422 75.6637 38.7979 77.5962 40.6839C79.5287 42.5698 80.6472 45.1366 80.713 47.8361V64.7763Z" fill="#F5F5F5"/>
<path d="M80.7458 53.2812H60.0048C58.0347 53.2812 56.4375 54.8784 56.4375 56.8486V71.56C56.4375 73.5302 58.0347 75.1274 60.0048 75.1274H80.7458C82.7159 75.1274 84.3131 73.5302 84.3131 71.56V56.8486C84.3131 54.8784 82.7159 53.2812 80.7458 53.2812Z" fill="white"/>
<path d="M80.7455 75.1278C81.0577 75.0947 81.3674 75.0414 81.6727 74.9681C82.4165 74.7535 83.0696 74.3011 83.532 73.6801C83.9944 73.0592 84.2406 72.3039 84.2331 71.5297C84.2331 70.8113 84.2331 70.0316 84.2331 69.1904C84.2331 67.5142 84.2331 65.6046 84.2331 63.4925C84.2331 61.3803 84.2331 59.0778 84.2331 56.5972C84.1869 55.979 83.9741 55.3848 83.6174 54.8778C83.2606 54.3708 82.7732 53.9698 82.2069 53.7176C81.6028 53.4689 80.9482 53.3679 80.2973 53.4229H78.2343L60.0046 53.4167C59.2384 53.4164 58.4944 53.6744 57.8928 54.149C57.2912 54.6236 56.8671 55.2871 56.689 56.0324C56.6094 56.4034 56.5764 56.7829 56.5908 57.1621V60.6189C56.5908 63.6889 56.5908 66.587 56.5908 69.3807C56.646 70.7684 56.3575 72.199 57.0697 73.2919C57.385 73.8287 57.8397 74.2703 58.3856 74.5697C58.9315 74.8691 59.5482 75.0153 60.1704 74.9927H67.0779L77.08 75.0479H79.7939H80.4999C80.5816 75.0402 80.6639 75.0402 80.7455 75.0479C80.6639 75.0571 80.5816 75.0571 80.4999 75.0479H79.7939H77.08L67.0779 75.0971H60.1704C59.6631 75.1198 59.1565 75.0383 58.6819 74.8576C58.2073 74.6768 57.7748 74.4007 57.4111 74.0462C57.0475 73.6918 56.7603 73.2665 56.5675 72.7967C56.3747 72.3269 56.2802 71.8226 56.2899 71.3148V69.3807C56.2899 66.587 56.2899 63.6582 56.2899 60.6189V57.1867C56.2715 56.7745 56.3066 56.3618 56.3943 55.9587C56.5938 55.154 57.0589 54.4401 57.7144 53.9325C58.3753 53.4097 59.1927 53.1243 60.0353 53.122H78.1974H80.2605C80.9527 53.0691 81.6475 53.1828 82.2867 53.4536C82.8975 53.7262 83.4225 54.1601 83.8054 54.7085C84.1883 55.2569 84.4147 55.8992 84.4602 56.5665C84.4602 59.0717 84.4602 61.368 84.4602 63.4802C84.4602 65.5923 84.4602 67.5019 84.4602 69.1781C84.4602 70.0193 84.4602 70.7991 84.4602 71.5174C84.4609 72.1898 84.2738 72.8491 83.9199 73.4208C83.4385 74.2148 82.6646 74.7881 81.7648 75.0172C81.4349 75.1173 81.0892 75.1548 80.7455 75.1278Z" fill="#263238"/>
<path d="M72.5097 64.769C72.7907 64.4888 73.0135 64.1557 73.1653 63.789C73.317 63.4223 73.3947 63.0292 73.3938 62.6323C73.3974 62.0603 73.2412 61.4986 72.9426 61.0107C72.644 60.5227 72.2151 60.1279 71.7041 59.8707C71.1931 59.6135 70.6205 59.5042 70.0507 59.5552C69.4809 59.6061 68.9367 59.8151 68.4794 60.1588C68.0222 60.5025 67.67 60.9671 67.4627 61.5003C67.2553 62.0334 67.2011 62.6139 67.306 63.1762C67.411 63.7385 67.6709 64.2603 68.0566 64.6828C68.4423 65.1053 68.9383 65.4116 69.4888 65.5672L68.8318 68.4776H71.7483L71.1343 65.5672C71.6439 65.4217 72.1072 65.1467 72.479 64.769" fill="#6DCDCB"/>
<path d="M262.685 86.6786V111.558C262.74 115.856 263.372 122.61 256.545 122.389C250.657 121.775 249.091 116.169 249.048 112.153C249.048 110.25 249.005 108.66 248.986 108.469C248.986 108.469 242.539 107.941 241.993 101.568C241.729 98.4981 241.704 92.1063 241.747 86.3286C241.774 83.3362 242.925 80.4633 244.973 78.2813C247.021 76.0992 249.815 74.7679 252.799 74.5521L253.413 74.5091C260.088 74.4108 262.795 80.0167 262.685 86.6786Z" fill="#FFBF9D"/>
<path d="M249.004 108.468C251.949 108.242 254.768 107.177 257.127 105.398C257.127 105.398 255.445 110.206 249.041 110.096L249.004 108.468Z" fill="#FF9A6C"/>
<path d="M252.657 88.9437C252.786 89.0726 253.523 88.4771 254.585 88.4525C255.648 88.4279 256.427 88.9437 256.562 88.8086C256.698 88.6735 256.489 88.5078 256.139 88.2683C255.671 87.9544 255.117 87.7955 254.555 87.8139C253.996 87.8315 253.459 88.0273 253.02 88.3727C252.7 88.6428 252.596 88.8823 252.657 88.9437Z" fill="#263238"/>
<path d="M252.637 91.9588C252.649 92.1846 252.751 92.3964 252.919 92.5481C253.086 92.6999 253.307 92.7793 253.533 92.7692C253.643 92.7701 253.752 92.7488 253.854 92.7067C253.956 92.6646 254.048 92.6024 254.126 92.524C254.203 92.4456 254.264 92.3524 254.304 92.25C254.345 92.1477 254.365 92.0382 254.362 91.9281C254.348 91.7039 254.247 91.494 254.081 91.3427C253.915 91.1915 253.696 91.1108 253.472 91.1176C253.362 91.1176 253.253 91.1394 253.151 91.1817C253.049 91.2241 252.957 91.2861 252.879 91.3643C252.802 91.4425 252.74 91.5353 252.699 91.6373C252.657 91.7393 252.636 91.8486 252.637 91.9588Z" fill="#263238"/>
<path d="M249.987 96.3984C249.457 96.2752 248.915 96.2175 248.372 96.2265C248.12 96.2265 247.881 96.1835 247.825 96.0177C247.784 95.7606 247.823 95.4971 247.936 95.2625C248.132 94.6485 248.329 93.9915 248.55 93.3038C249.379 90.5163 249.962 88.2322 249.852 88.2015C249.741 88.1708 248.974 90.3996 248.145 93.1872C247.948 93.8749 247.758 94.5318 247.574 95.1581C247.44 95.471 247.421 95.8208 247.518 96.1466C247.56 96.233 247.621 96.3086 247.696 96.3672C247.772 96.4258 247.86 96.4659 247.954 96.4843C248.097 96.5011 248.241 96.5011 248.384 96.4843C248.92 96.5195 249.458 96.4906 249.987 96.3984Z" fill="#263238"/>
<path d="M253.112 84.4004C253.216 84.6399 254.07 84.4618 255.095 84.5109C256.121 84.56 256.937 84.7872 257.078 84.56C257.127 84.4557 256.968 84.2346 256.624 84.0259C256.166 83.7688 255.653 83.6237 255.128 83.6024C254.603 83.581 254.081 83.6841 253.603 83.9031C253.241 84.0811 253.069 84.2899 253.112 84.4004Z" fill="#263238"/>
<path d="M242.973 85.9977C243.09 86.1942 243.919 85.9977 244.932 85.9486C245.945 85.8995 246.774 86.0468 246.884 85.8442C246.927 85.746 246.762 85.574 246.412 85.4205C245.938 85.2315 245.429 85.1477 244.92 85.1749C244.404 85.1892 243.897 85.3148 243.434 85.5433C243.09 85.7214 242.924 85.9056 242.973 85.9977Z" fill="#263238"/>
<path d="M233.321 80.6121C233.356 80.4826 233.418 80.3615 233.501 80.2561C233.584 80.1506 233.688 80.0629 233.806 79.9981C234.315 79.7664 234.877 79.6752 235.433 79.7341C237.133 79.7027 238.791 79.1988 240.222 78.2789C240.89 77.3191 241.635 76.4156 242.451 75.5773C244.385 73.5879 245.969 72.231 247.615 71.5679C249.739 70.7144 253.294 70.3399 255.511 70.9539C257.727 71.5679 259.716 73.3362 260.03 75.6019C261.258 74.5519 263.136 74.5642 264.653 75.1721H264.69C266.372 75.7861 267.33 77.5544 267.827 79.2736C268.325 80.9928 268.54 82.8348 269.448 84.3759C269.639 84.6952 269.866 85.082 269.7 85.4197C269.623 85.542 269.511 85.638 269.378 85.695C269.246 85.752 269.099 85.7674 268.957 85.739C268.673 85.6781 268.405 85.5566 268.171 85.3829C268.362 85.8372 268.546 86.2855 268.736 86.7337C268.122 86.8406 267.49 86.8007 266.894 86.617C266.585 88.1497 266.185 89.6628 265.697 91.1483C265.068 91.0743 264.434 91.229 263.91 91.5843C263.296 92.1185 263.057 93.1193 262.068 92.7386C261.571 92.5421 261.116 91.5106 260.944 90.9887C259.834 87.5882 259.467 83.9886 259.87 80.434C259.171 79.6903 258.338 79.0861 257.414 78.6534L257.488 78.721C255.707 78.107 253.693 77.493 252.005 78.328C250.697 78.9789 249.929 80.3358 248.935 81.398C248.034 82.4077 246.938 83.2239 245.713 83.797C244.487 84.3702 243.158 84.6883 241.806 84.732C241.714 86.5249 241.861 89.0607 241.769 90.872L240.259 87.9985C240.14 87.7994 240.032 87.5945 239.933 87.3845V87.3231C239.782 86.9724 239.612 86.6301 239.424 86.2977C239.215 86.4658 238.952 86.5534 238.684 86.5449C238.416 86.5364 238.16 86.4322 237.962 86.2513C237.764 86.0703 237.637 85.8245 237.605 85.5583C237.572 85.292 237.636 85.0229 237.784 84.7996C237.936 84.591 238.118 84.4068 238.325 84.2531C238.106 84.4665 237.835 84.619 237.538 84.6955C237.242 84.772 236.931 84.7697 236.636 84.6891C236.344 84.6 236.089 84.4169 235.911 84.1682C235.734 83.9195 235.643 83.6191 235.654 83.3137C235.679 83.1083 235.758 82.9131 235.882 82.7473C236.005 82.5815 236.17 82.4508 236.36 82.3681C235.569 82.4316 234.778 82.2562 234.088 81.8647C233.597 81.6006 233.155 81.177 233.321 80.6121Z" fill="#263238"/>
<path d="M258.012 76.3438C258.234 76.5302 258.439 76.7356 258.626 76.9578C259.13 77.5644 259.467 78.2926 259.602 79.0699C259.713 79.603 259.769 80.1463 259.768 80.6909C259.768 81.3049 259.725 81.9189 259.676 82.5697C259.618 83.264 259.603 83.9612 259.633 84.6573C259.65 85.0289 259.697 85.3985 259.774 85.7625C259.831 86.1506 259.985 86.5181 260.222 86.8309C260.334 86.9548 260.476 87.0477 260.634 87.1004C260.792 87.1531 260.961 87.1639 261.125 87.1317C261.436 87.0747 261.719 86.9147 261.929 86.6774C262.276 86.2024 262.488 85.6422 262.543 85.0564H262.414C262.604 85.5385 262.865 85.9896 263.188 86.3949C263.497 86.7676 263.936 87.009 264.416 87.0703C264.641 87.0928 264.869 87.0524 265.073 86.9537C265.263 86.8544 265.419 86.7004 265.521 86.5116C265.613 86.3378 265.66 86.1434 265.656 85.9467C265.646 85.7635 265.572 85.5896 265.447 85.4555L265.38 85.5169C265.759 85.9506 266.226 86.2999 266.749 86.5423C266.933 86.6242 267.074 86.6794 267.173 86.7081L267.326 86.7449L267.185 86.6835C267.087 86.6405 266.945 86.5853 266.774 86.4993C266.267 86.2425 265.816 85.8877 265.447 85.4555L265.38 85.5169C265.484 85.6505 265.544 85.8134 265.552 85.9828C265.56 86.1523 265.515 86.3199 265.423 86.4625C265.332 86.629 265.193 86.7639 265.024 86.8493C264.833 86.9411 264.619 86.9753 264.41 86.9475C263.961 86.8961 263.549 86.6767 263.255 86.3335C262.947 85.9352 262.696 85.4948 262.512 85.0257L262.42 84.8231L262.377 85.0441C262.312 85.6048 262.1 86.1383 261.763 86.5914C261.571 86.7999 261.317 86.9418 261.039 86.9967C260.9 87.0248 260.756 87.0165 260.622 86.9723C260.487 86.9282 260.366 86.8498 260.271 86.7449C260.05 86.4523 259.909 86.1075 259.86 85.7441C259.784 85.388 259.735 85.0268 259.713 84.6635C259.683 83.9715 259.698 83.2783 259.755 82.5881C259.792 81.925 259.835 81.2987 259.829 80.7032C259.825 80.1518 259.764 79.6023 259.645 79.0638C259.496 78.2718 259.137 77.5342 258.607 76.9271C258.443 76.7001 258.242 76.5028 258.012 76.3438Z" fill="#455A64"/>
<path d="M238.293 82.539L238.348 82.582C238.399 82.6247 238.452 82.6637 238.508 82.6987C238.592 82.7671 238.682 82.8268 238.778 82.8767C238.904 82.9507 239.033 83.0183 239.165 83.0793C240.019 83.4665 240.956 83.6353 241.891 83.5705C243.283 83.4766 244.618 82.9819 245.735 82.146C247.086 81.1179 248.21 79.8219 249.038 78.3392C249.505 77.5717 249.879 76.7797 250.266 76.049C250.663 75.3356 251.159 74.6823 251.74 74.1088C252.25 73.588 252.884 73.2038 253.582 72.9913C253.897 72.9039 254.225 72.8666 254.552 72.8808C254.849 72.9033 255.142 72.9653 255.424 73.065C255.919 73.2333 256.374 73.5055 256.756 73.8632C257.045 74.1331 257.287 74.4483 257.474 74.7965C257.623 75.1007 257.732 75.4225 257.8 75.7543C257.8 75.7543 257.8 75.7543 257.8 75.6868C257.8 75.6192 257.8 75.5701 257.769 75.4903C257.718 75.2414 257.635 75 257.523 74.7719C257.094 73.9272 256.355 73.2807 255.46 72.9667C255.165 72.8639 254.857 72.8 254.546 72.7764C254.206 72.7621 253.867 72.7994 253.539 72.8869C252.82 73.099 252.167 73.4898 251.641 74.0228C251.062 74.6026 250.572 75.2647 250.186 75.9876C249.762 76.7244 249.382 77.5103 248.927 78.2778C248.105 79.7411 246.996 81.0234 245.667 82.0478C244.574 82.8763 243.265 83.373 241.897 83.4784C240.976 83.5511 240.051 83.3994 239.202 83.0364C238.889 82.8896 238.585 82.7235 238.293 82.539Z" fill="#455A64"/>
<path d="M237.719 79.7403C237.719 79.7403 237.792 79.8079 237.946 79.9C238.162 80.0311 238.388 80.146 238.621 80.2438C238.969 80.3914 239.328 80.5085 239.696 80.5938C240.145 80.6995 240.604 80.7612 241.065 80.778C241.527 80.7894 241.99 80.7585 242.447 80.6859C242.816 80.6235 243.18 80.529 243.533 80.4034C243.774 80.3212 244.008 80.2206 244.233 80.1026C244.318 80.0644 244.398 80.0171 244.473 79.9613C244.473 79.9613 244.11 80.1148 243.503 80.3052C243.148 80.4107 242.787 80.4927 242.422 80.5508C241.975 80.613 241.523 80.6397 241.071 80.6306C240.619 80.6106 240.17 80.5552 239.727 80.4648C239.365 80.3852 239.01 80.2785 238.664 80.1455C238.075 79.9184 237.731 79.7157 237.719 79.7403Z" fill="#455A64"/>
<path d="M242.93 88.9436C243.052 89.0726 243.789 88.477 244.858 88.4524C245.926 88.4279 246.7 88.9436 246.835 88.8086C246.97 88.6735 246.755 88.5077 246.411 88.2682C245.941 87.9546 245.385 87.7958 244.821 87.8139C244.264 87.8311 243.728 88.027 243.292 88.3726C242.967 88.6428 242.862 88.8822 242.93 88.9436Z" fill="#263238"/>
<path d="M244.016 91.9588C244.03 92.183 244.131 92.3929 244.297 92.5441C244.463 92.6953 244.681 92.7761 244.906 92.7693C245.016 92.7701 245.126 92.7489 245.228 92.7068C245.33 92.6647 245.423 92.6027 245.5 92.5244C245.578 92.446 245.64 92.3529 245.681 92.2505C245.722 92.1481 245.743 92.0385 245.741 91.9281C245.725 91.7033 245.623 91.4934 245.456 91.3423C245.289 91.1912 245.07 91.1107 244.845 91.1176C244.735 91.1176 244.626 91.1394 244.525 91.1818C244.423 91.2243 244.331 91.2864 244.254 91.3647C244.177 91.443 244.116 91.5358 244.075 91.6378C244.034 91.7398 244.014 91.8489 244.016 91.9588Z" fill="#263238"/>
<path d="M262.516 91.4364C262.62 91.3811 266.814 89.8216 266.979 94.1871C267.145 98.5527 262.737 97.8281 262.724 97.7053C262.712 97.5825 262.516 91.4364 262.516 91.4364Z" fill="#FFBF9D"/>
<path d="M264.02 95.9999C264.02 95.9999 264.1 96.0491 264.229 96.1043C264.412 96.1753 264.616 96.1753 264.8 96.1043C265.074 95.9137 265.293 95.6533 265.433 95.3501C265.573 95.0468 265.63 94.7116 265.598 94.379C265.597 94.0043 265.511 93.6346 265.346 93.2983C265.298 93.1615 265.217 93.0388 265.11 92.9412C265.003 92.8437 264.873 92.7744 264.732 92.7396C264.644 92.7223 264.553 92.7353 264.474 92.7766C264.395 92.8179 264.332 92.885 264.296 92.9668C264.241 93.0896 264.296 93.1755 264.247 93.1878C264.198 93.2001 264.155 93.1203 264.179 92.9361C264.202 92.8277 264.258 92.729 264.339 92.6536C264.458 92.5609 264.606 92.515 264.757 92.5247C264.937 92.5538 265.107 92.6282 265.251 92.741C265.395 92.8537 265.508 93.0011 265.579 93.1694C265.785 93.546 265.893 93.9683 265.893 94.3974C265.893 95.2754 265.487 96.1166 264.861 96.3254C264.745 96.3643 264.622 96.3767 264.501 96.3618C264.38 96.347 264.264 96.3051 264.161 96.2394C264.02 96.1043 263.977 96.0061 264.02 95.9999Z" fill="#FF9A6C"/>
<path d="M253.091 97.27C253.128 97.27 253.128 97.5279 252.981 97.884C252.767 98.3632 252.417 98.7689 251.974 99.0506C251.543 99.3408 251.031 99.487 250.512 99.4681C250.113 99.4313 249.898 99.2962 249.898 99.2655C249.898 99.2348 250.144 99.2655 250.512 99.2655C250.981 99.2309 251.433 99.0788 251.826 98.8234C252.224 98.5683 252.558 98.2261 252.803 97.8226C252.968 97.4849 253.042 97.2577 253.091 97.27Z" fill="#263238"/>
<path d="M275.074 269.908L276.376 284.644L280.993 296.04C281.069 296.239 281.102 296.451 281.089 296.663C281.077 296.875 281.019 297.082 280.92 297.27C280.822 297.458 280.684 297.623 280.517 297.754C280.349 297.885 280.156 297.979 279.95 298.029C279.705 298.102 279.448 298.118 279.196 298.075C278.945 298.033 278.707 297.933 278.501 297.784C275.866 295.868 266.368 288.819 266.263 287.905C266.128 286.713 263.703 272.205 263.703 272.205L275.074 269.908Z" fill="#455A64"/>
<path d="M279.985 298.047L266.035 286.24L266.176 287.333C266.268 287.947 266.281 288.254 266.698 288.629C270.405 291.987 274.3 295.131 278.364 298.047C278.614 298.164 278.887 298.225 279.162 298.225C279.438 298.225 279.711 298.164 279.961 298.047H279.985Z" fill="#263238"/>
<path d="M268.747 281.636C268.952 281.741 269.108 281.921 269.183 282.138C269.258 282.355 269.248 282.593 269.153 282.802C269.03 283.005 268.837 283.156 268.612 283.227C268.386 283.298 268.141 283.285 267.925 283.189C267.712 283.076 267.55 282.886 267.472 282.658C267.395 282.43 267.407 282.181 267.507 281.961C267.656 281.762 267.873 281.625 268.117 281.576C268.36 281.527 268.613 281.571 268.827 281.697" fill="white"/>
<path d="M275.65 291.969C275.743 292.006 276.007 291.195 276.878 290.692C277.432 290.422 278.028 290.249 278.641 290.182C278.641 290.145 278.438 290.053 278.07 290.041C277.583 290.037 277.106 290.167 276.688 290.416C276.281 290.651 275.952 291.002 275.743 291.423C275.607 291.742 275.607 291.963 275.65 291.969Z" fill="#263238"/>
<path d="M276.99 293.83C277.07 293.892 277.518 293.357 278.304 293.063C278.8 292.919 279.304 292.806 279.814 292.725C279.556 292.607 279.274 292.549 278.99 292.555C278.706 292.562 278.427 292.632 278.175 292.762C277.278 293.106 276.916 293.8 276.99 293.83Z" fill="#263238"/>
<path d="M273.285 289.656C273.9 289.168 274.55 288.726 275.231 288.336C275.968 288.034 276.725 287.786 277.497 287.593C276.66 287.467 275.806 287.627 275.072 288.047C273.807 288.655 273.23 289.619 273.285 289.656Z" fill="#263238"/>
<path d="M272.496 285.198C272.545 285.284 273.374 284.854 274.492 284.706C275.609 284.559 276.536 284.706 276.561 284.627C275.902 284.311 275.156 284.224 274.442 284.381C273.72 284.424 273.033 284.712 272.496 285.198Z" fill="#263238"/>
<path d="M272.005 280.874C272.651 280.55 273.355 280.357 274.076 280.309C274.798 280.26 275.521 280.356 276.205 280.591C276.205 280.555 276.039 280.389 275.652 280.229C275.143 280.029 274.595 279.945 274.05 279.984C273.505 280.014 272.975 280.172 272.502 280.444C272.134 280.653 271.968 280.843 272.005 280.874Z" fill="#263238"/>
<path d="M273.937 279.487C273.937 279.487 273.974 279.284 273.9 278.928C273.792 278.421 273.584 277.941 273.286 277.516C273.084 277.18 272.778 276.919 272.415 276.773C272.288 276.735 272.154 276.735 272.027 276.772C271.901 276.809 271.788 276.882 271.702 276.981C271.629 277.08 271.576 277.192 271.547 277.311C271.517 277.43 271.512 277.554 271.53 277.675C271.637 278.181 271.915 278.634 272.318 278.958C272.721 279.281 273.224 279.455 273.741 279.45C274.257 279.458 274.764 279.315 275.2 279.039C275.637 278.763 275.983 278.366 276.197 277.896C276.245 277.782 276.267 277.657 276.261 277.533C276.255 277.408 276.22 277.287 276.16 277.178C276.081 277.071 275.973 276.991 275.848 276.946C275.724 276.901 275.588 276.894 275.46 276.926C275.088 277.046 274.753 277.257 274.484 277.54C274.101 277.892 273.784 278.307 273.544 278.768C273.445 278.931 273.382 279.113 273.36 279.302C273.711 278.704 274.147 278.16 274.656 277.688C274.897 277.45 275.192 277.273 275.515 277.172C275.585 277.152 275.659 277.155 275.727 277.179C275.795 277.203 275.854 277.248 275.896 277.307C275.93 277.381 275.947 277.462 275.947 277.543C275.947 277.625 275.93 277.705 275.896 277.78C275.7 278.178 275.397 278.514 275.021 278.748C274.644 278.982 274.209 279.106 273.765 279.106C273.327 279.108 272.902 278.962 272.556 278.693C272.211 278.423 271.967 278.045 271.862 277.62C271.832 277.452 271.867 277.278 271.96 277.135C272.006 277.078 272.068 277.037 272.139 277.016C272.209 276.995 272.283 276.996 272.353 277.018C272.661 277.142 272.924 277.356 273.108 277.632C273.497 278.194 273.778 278.823 273.937 279.487Z" fill="#263238"/>
<path d="M237.901 270.67L238.478 283.165C238.478 283.165 225.16 287.917 225.031 290.238L250.85 290.048L250.795 270.541L237.901 270.67Z" fill="#455A64"/>
<path d="M246.455 282.054C246.698 282.114 246.909 282.264 247.046 282.473C247.182 282.683 247.235 282.937 247.192 283.183C247.117 283.425 246.955 283.631 246.737 283.759C246.519 283.888 246.26 283.93 246.013 283.877C245.756 283.814 245.534 283.656 245.39 283.435C245.246 283.213 245.192 282.946 245.239 282.686C245.341 282.437 245.532 282.236 245.776 282.122C246.019 282.008 246.297 281.99 246.553 282.072" fill="#E0E0E0"/>
<path d="M250.849 290.047L250.763 288.082L226.038 288.997C226.038 288.997 224.896 289.476 225.031 290.225L250.849 290.047Z" fill="#263238"/>
<path d="M238.063 283.054C238.063 283.171 238.677 283.22 239.291 283.595C239.905 283.969 240.249 284.467 240.366 284.417C240.483 284.368 240.286 283.687 239.525 283.245C238.763 282.803 238.033 282.938 238.063 283.054Z" fill="#263238"/>
<path d="M235.359 284.117C235.359 284.234 235.881 284.43 236.311 284.928C236.741 285.425 236.876 285.959 236.999 285.953C237.122 285.947 237.201 285.271 236.649 284.664C236.096 284.056 235.366 284.007 235.359 284.117Z" fill="#263238"/>
<path d="M233.849 287.175C233.966 287.175 234.131 286.61 233.806 285.947C233.481 285.284 232.885 285.05 232.83 285.148C232.774 285.247 233.149 285.591 233.407 286.125C233.665 286.659 233.726 287.169 233.849 287.175Z" fill="#263238"/>
<path d="M238.263 280.18C238.318 280.29 238.877 280.124 239.608 280.18C240.338 280.235 240.879 280.425 240.94 280.327C241.001 280.229 240.473 279.805 239.632 279.768C238.791 279.731 238.232 280.088 238.263 280.18Z" fill="#263238"/>
<path d="M233.406 180.934C233.406 181.652 236.403 281.538 236.403 281.538H252.367L255.602 196.094C255.602 196.094 259.378 240.768 259.378 241.732C259.378 242.696 262.706 282.017 262.706 282.017L277.504 280.881L276.527 190.954L274.722 177.766L233.406 180.934Z" fill="#263238"/>
<path d="M257.268 192.93C257.066 193.045 256.849 193.132 256.623 193.188C256.2 193.336 255.579 193.538 254.818 193.802L254.677 193.845V193.704C254.591 192.507 254.486 190.898 254.394 189.136C254.29 187.226 254.216 185.501 254.179 184.224C254.179 183.61 254.149 183.088 254.149 182.738C254.131 182.555 254.143 182.37 254.186 182.191C254.237 182.367 254.266 182.549 254.272 182.732C254.315 183.082 254.357 183.591 254.4 184.211C254.499 185.439 254.609 187.189 254.707 189.123C254.806 190.886 254.873 192.494 254.91 193.698L254.757 193.6C255.53 193.385 256.157 193.213 256.599 193.102C256.816 193.023 257.04 192.966 257.268 192.93Z" fill="#455A64"/>
<path d="M256.038 182.549C256.038 182.549 256.087 182.469 256.253 182.414C256.486 182.352 256.734 182.374 256.953 182.475C257.118 182.536 257.259 182.648 257.356 182.795C257.452 182.942 257.498 183.116 257.487 183.292C257.467 183.514 257.374 183.723 257.223 183.887C257.072 184.051 256.872 184.161 256.652 184.2C256.429 184.234 256.201 184.205 255.993 184.117C255.785 184.03 255.605 183.886 255.473 183.703C255.381 183.562 255.332 183.396 255.332 183.227C255.332 183.058 255.381 182.893 255.473 182.751C255.6 182.561 255.786 182.417 256.001 182.34C256.161 182.285 256.253 182.297 256.259 182.309C256.265 182.322 255.897 182.426 255.676 182.843C255.611 182.955 255.58 183.083 255.587 183.211C255.593 183.34 255.637 183.464 255.713 183.568C255.812 183.699 255.945 183.802 256.097 183.864C256.249 183.927 256.416 183.948 256.579 183.924C256.731 183.895 256.87 183.821 256.98 183.711C257.089 183.602 257.163 183.462 257.193 183.31C257.205 183.184 257.177 183.058 257.115 182.948C257.052 182.838 256.957 182.75 256.843 182.696C256.597 182.563 256.315 182.512 256.038 182.549Z" fill="#455A64"/>
<path d="M263.369 183.586C263.283 183.586 263.16 183.156 263.099 182.616C263.037 182.076 263.056 181.627 263.142 181.621C263.228 181.615 263.35 182.045 263.412 182.585C263.473 183.125 263.455 183.586 263.369 183.586Z" fill="#455A64"/>
<path d="M264.476 183.469C264.39 183.469 264.316 183.009 264.316 182.438C264.316 181.867 264.378 181.406 264.47 181.406C264.562 181.406 264.63 181.867 264.63 182.438C264.63 183.009 264.568 183.469 264.476 183.469Z" fill="#455A64"/>
<path d="M245.237 184.158C245.151 184.158 245.016 183.648 244.936 183.004C244.857 182.359 244.863 181.819 244.936 181.813C245.01 181.806 245.158 182.322 245.237 182.973C245.317 183.624 245.323 184.152 245.237 184.158Z" fill="#455A64"/>
<path d="M246.585 184.255C246.301 183.911 246.161 183.471 246.192 183.027C246.126 182.597 246.224 182.159 246.468 181.799C246.56 181.799 246.468 182.364 246.511 183.027C246.554 183.69 246.671 184.23 246.585 184.255Z" fill="#455A64"/>
<path d="M241.537 182.922C241.544 183.069 241.525 183.217 241.482 183.358C241.405 183.756 241.298 184.148 241.162 184.531C240.707 185.82 240.039 187.024 239.185 188.092C238.299 189.193 237.247 190.15 236.066 190.929C235.703 191.168 235.326 191.386 234.937 191.579C234.795 191.659 234.644 191.723 234.488 191.77C234.488 191.733 235.065 191.414 235.943 190.781C237.073 189.98 238.085 189.025 238.952 187.945C239.789 186.891 240.469 185.723 240.972 184.475C241.347 183.524 241.488 182.91 241.537 182.922Z" fill="#455A64"/>
<path d="M276.044 189.653C275.887 189.699 275.724 189.724 275.559 189.726C275.114 189.761 274.666 189.761 274.221 189.726C272.763 189.586 271.361 189.097 270.132 188.302C268.967 187.539 268.028 186.479 267.412 185.232C267.232 184.869 267.092 184.488 266.994 184.096C266.944 183.958 266.921 183.812 266.926 183.666C266.976 183.666 267.111 184.28 267.596 185.158C268.244 186.345 269.173 187.355 270.303 188.099C271.494 188.868 272.84 189.362 274.245 189.548C275.344 189.671 276.038 189.603 276.044 189.653Z" fill="#455A64"/>
<path d="M250.041 240.233C250.041 240.301 247.376 239.723 244.134 238.956C240.892 238.188 238.276 237.501 238.301 237.433C238.326 237.366 240.966 237.937 244.208 238.71C247.45 239.484 250.059 240.165 250.041 240.233Z" fill="#455A64"/>
<path d="M275.756 236.598C275.793 236.66 273.49 237.857 270.617 239.281C267.743 240.706 265.373 241.805 265.336 241.737C265.3 241.67 267.602 240.472 270.476 239.054C273.349 237.636 275.719 236.537 275.756 236.598Z" fill="#455A64"/>
<path d="M225.657 147.107L227.837 149.84V145.143H234.714C234.714 145.143 235.475 155.894 235.328 158.184C235.165 159.378 234.883 160.552 234.487 161.69C234.281 162.352 233.909 162.95 233.405 163.426C232.901 163.902 232.283 164.241 231.61 164.409C230.938 164.577 230.233 164.568 229.565 164.385C228.896 164.201 228.286 163.848 227.794 163.36C227.024 162.611 226.306 161.811 225.645 160.965C222.575 157.036 217.516 147.457 217.516 147.457L222.821 144.289L225.657 147.107Z" fill="#FFBF9D"/>
<path d="M225.223 146.604C225.482 147.04 225.783 147.451 226.119 147.832C226.733 148.55 227.507 149.539 228.422 150.607C229.336 151.676 230.208 152.621 230.878 153.266C231.217 153.638 231.61 153.957 232.044 154.211C231.733 153.822 231.396 153.452 231.037 153.106C230.423 152.431 229.576 151.467 228.661 150.398C226.85 148.225 225.302 146.53 225.223 146.604Z" fill="#FF9A6C"/>
<path d="M241.34 114.081L248.591 111.232L261.946 110.477L268.221 112.865L259.619 117.642L252.202 117.372L241.34 114.081Z" fill="#FFBF9D"/>
<path d="M232.788 182.297C233.445 182.408 277.198 184.268 277.198 184.268L275.688 144.905L275.559 137.181L273.103 113.781C273.103 113.781 266.558 111.528 263.224 110.453C263.224 110.453 259.712 114.137 253.031 114.014C246.504 113.922 245.141 112.449 245.141 112.449L236.017 115.948C236.017 115.948 229.527 118.275 228.41 121.149C227.292 124.023 225.34 139.907 225.34 139.907H234.802L234.55 168.132L232.788 182.297Z" fill="#455A64"/>
<g opacity="0.2">
<path d="M260.301 129.788L261.658 139.71L268.221 142.639L273.072 138.507V129.297L260.301 129.788Z" fill="black"/>
</g>
<path d="M272.899 132.624C272.899 132.704 270.173 132.772 266.808 132.772C263.443 132.772 260.711 132.704 260.711 132.624C262.739 132.47 264.774 132.419 266.808 132.471C268.84 132.419 270.872 132.47 272.899 132.624Z" fill="#263238"/>
<path d="M229.84 125.256C229.871 125.342 229.896 125.43 229.914 125.52C229.957 125.716 230.012 125.962 230.085 126.275C230.321 127.223 230.612 128.155 230.957 129.069C231.393 130.242 232.007 131.623 232.762 133.17C233.518 134.718 234.119 136.566 234.789 138.531C234.789 140.888 234.789 143.443 234.74 146.163C234.678 152.18 234.617 157.626 234.58 161.599C234.543 163.551 234.519 165.141 234.494 166.277C234.494 166.805 234.482 167.229 234.457 167.548C234.46 167.696 234.45 167.844 234.426 167.99C234.416 167.841 234.416 167.691 234.426 167.542C234.426 167.231 234.426 166.807 234.426 166.271C234.426 165.141 234.426 163.545 234.426 161.592C234.426 157.62 234.476 152.174 234.506 146.163C234.506 143.467 234.555 140.888 234.574 138.531V138.574C233.917 136.609 233.284 134.785 232.597 133.219C231.94 131.871 231.354 130.49 230.841 129.081C230.509 128.159 230.24 127.215 230.036 126.257C229.975 125.919 229.926 125.643 229.901 125.483C229.874 125.409 229.853 125.333 229.84 125.256Z" fill="#263238"/>
<path d="M276.228 120.664C276.249 120.944 276.249 121.225 276.228 121.505C276.228 122.119 276.179 122.868 276.142 123.789C276.062 125.766 275.958 128.407 275.841 131.323C275.724 134.24 275.589 136.886 275.503 138.863C275.448 139.784 275.405 140.552 275.368 141.147C275.367 141.428 275.338 141.707 275.282 141.982C275.26 141.702 275.26 141.421 275.282 141.141C275.282 140.527 275.282 139.778 275.325 138.857C275.374 136.923 275.46 134.258 275.583 131.317C275.706 128.376 275.841 125.705 275.964 123.783C276.025 122.819 276.087 122.039 276.142 121.499C276.146 121.219 276.175 120.939 276.228 120.664Z" fill="#263238"/>
<g opacity="0.3">
<path d="M229.864 126.699C229.697 131.02 231.242 135.232 234.162 138.42C233.271 134.362 231.049 130.586 229.864 126.699Z" fill="black"/>
</g>
<g opacity="0.3">
<path d="M249.082 165.646C251.139 165.372 253.015 164.327 254.332 162.723C255.717 161.176 256.903 159.462 257.862 157.621C259.1 155.116 259.803 152.381 259.925 149.59C257.377 156.424 253.644 161.827 249.082 165.646Z" fill="black"/>
</g>
<path d="M260.736 146.612C260.732 146.697 260.72 146.781 260.699 146.863C260.656 147.06 260.601 147.293 260.54 147.576C260.478 147.858 260.38 148.257 260.245 148.687C260.11 149.117 259.981 149.608 259.785 150.142C259.354 151.399 258.85 152.629 258.274 153.826C256.865 156.757 255.057 159.478 252.902 161.913C252.022 162.906 251.078 163.841 250.077 164.712C249.666 165.099 249.254 165.406 248.904 165.689C248.555 165.971 248.248 166.198 247.983 166.376L247.369 166.788C247.228 166.874 247.155 166.923 247.148 166.911C247.202 166.846 247.264 166.788 247.333 166.739L247.904 166.284C248.155 166.1 248.456 165.861 248.794 165.566C249.132 165.271 249.531 164.952 249.936 164.565C250.906 163.675 251.826 162.732 252.693 161.741C253.743 160.517 254.721 159.234 255.622 157.897C256.502 156.55 257.306 155.154 258.029 153.716C258.609 152.534 259.128 151.323 259.582 150.087C259.791 149.565 259.938 149.074 260.079 148.65C260.22 148.227 260.337 147.858 260.423 147.557C260.509 147.256 260.57 147.054 260.632 146.863C260.693 146.673 260.724 146.606 260.736 146.612Z" fill="#263238"/>
<path d="M259.472 134.293C259.463 134.429 259.444 134.564 259.417 134.698C259.368 134.987 259.3 135.367 259.221 135.84C259.141 136.313 259.018 136.939 258.84 137.633C258.662 138.327 258.502 139.131 258.226 139.991C258.103 140.421 257.968 140.875 257.827 141.348C257.686 141.821 257.501 142.3 257.33 142.797C257.004 143.81 256.562 144.854 256.102 145.959C254.085 150.729 251.374 155.176 248.058 159.154C247.278 160.05 246.548 160.922 245.799 161.671C245.43 162.052 245.086 162.433 244.73 162.77C244.374 163.108 244.036 163.44 243.705 163.747C243.091 164.361 242.428 164.895 241.863 165.361C241.298 165.828 240.844 166.215 240.438 166.516L239.511 167.216C239.41 167.304 239.299 167.381 239.18 167.443C239.269 167.344 239.368 167.253 239.474 167.173L240.365 166.43C240.758 166.117 241.237 165.73 241.758 165.245C242.28 164.76 242.913 164.244 243.545 163.599L244.552 162.617C244.902 162.273 245.24 161.892 245.602 161.512C246.345 160.756 247.063 159.884 247.837 158.982C251.125 155.01 253.829 150.59 255.868 145.855C256.323 144.756 256.765 143.724 257.096 142.723C257.274 142.22 257.458 141.747 257.606 141.28C257.753 140.814 257.888 140.365 258.023 139.936C258.306 139.082 258.484 138.29 258.674 137.596C258.865 136.902 259 136.307 259.098 135.816C259.196 135.324 259.288 134.975 259.35 134.686C259.376 134.551 259.417 134.419 259.472 134.293Z" fill="#263238"/>
<path d="M224.896 122.058L241.744 147.674C241.824 147.795 241.868 147.936 241.87 148.082C241.872 148.227 241.832 148.37 241.755 148.493C241.678 148.616 241.567 148.714 241.435 148.776C241.304 148.838 241.157 148.86 241.013 148.84L221.611 146.384C221.509 146.37 221.411 146.336 221.322 146.283C221.233 146.23 221.156 146.16 221.095 146.077L202.565 120.768C202.473 120.651 202.417 120.51 202.405 120.362C202.393 120.213 202.424 120.065 202.495 119.934C202.566 119.803 202.674 119.697 202.806 119.627C202.937 119.557 203.086 119.527 203.234 119.54L223.195 121.014C223.54 121.045 223.873 121.156 224.168 121.337C224.463 121.518 224.712 121.765 224.896 122.058Z" fill="#E0E0E0"/>
<path d="M224.897 122.057C224.856 121.973 224.804 121.895 224.744 121.824C224.573 121.612 224.365 121.433 224.13 121.296C223.73 121.087 223.285 120.979 222.834 120.983L221.041 120.835L209.535 119.933L205.722 119.638L203.696 119.484C203.518 119.484 203.364 119.484 203.162 119.484C202.954 119.491 202.756 119.572 202.603 119.712C202.447 119.854 202.347 120.046 202.32 120.256C202.293 120.465 202.341 120.677 202.456 120.854L207.847 128.252C211.653 133.453 215.829 139.169 220.219 145.174C220.501 145.549 220.753 145.911 221.06 146.304C221.154 146.408 221.272 146.488 221.404 146.537C221.524 146.58 221.65 146.604 221.778 146.611L222.466 146.697L225.18 147.041L230.485 147.704L240.517 148.932C240.726 148.932 240.898 148.987 241.131 148.999C241.251 149 241.37 148.977 241.48 148.932C241.591 148.887 241.692 148.82 241.776 148.735C241.937 148.57 242.031 148.352 242.04 148.121C242.031 147.897 241.949 147.681 241.807 147.507L240.505 145.518L238.049 141.834L233.653 135.184C230.964 131.138 228.79 127.853 227.274 125.575L225.524 122.966C225.327 122.683 225.174 122.456 225.057 122.296C225.008 122.217 224.952 122.141 224.891 122.069C224.933 122.154 224.98 122.236 225.032 122.315L225.468 123.003C225.861 123.617 226.432 124.507 227.163 125.643L233.463 135.313L237.828 141.981L240.284 145.696L241.561 147.642C241.672 147.772 241.736 147.933 241.745 148.103C241.739 148.264 241.674 148.417 241.561 148.533C241.447 148.646 241.293 148.71 241.131 148.711C240.966 148.711 240.739 148.662 240.548 148.643L230.497 147.36L225.192 146.691L222.478 146.347L221.797 146.261C221.695 146.252 221.594 146.234 221.496 146.206C221.409 146.172 221.332 146.12 221.269 146.052C220.998 145.684 220.728 145.321 220.458 144.947C216.062 138.954 211.862 133.244 208.068 128.044C206.158 125.452 204.353 122.984 202.658 120.676C202.595 120.584 202.558 120.478 202.55 120.367C202.543 120.256 202.565 120.146 202.616 120.047C202.666 119.948 202.742 119.864 202.836 119.805C202.93 119.746 203.038 119.714 203.149 119.712C203.291 119.712 203.487 119.712 203.653 119.742L205.679 119.89L209.498 120.16L221.041 120.958L222.847 121.081C223.287 121.066 223.723 121.161 224.118 121.357C224.425 121.532 224.691 121.77 224.897 122.057Z" fill="#263238"/>
<path d="M202.566 120.786C202.699 120.821 202.835 120.841 202.972 120.848L204.151 120.971L208.534 121.357L223.442 122.585L223.326 122.518C224.259 123.906 225.223 125.342 226.187 126.816C230.123 132.864 233.555 138.427 236.152 142.381C237.442 144.364 238.516 145.948 239.265 147.041L240.137 148.269C240.231 148.419 240.34 148.559 240.462 148.687C240.382 148.53 240.291 148.378 240.192 148.232L239.37 146.949L236.343 142.24C233.801 138.255 230.393 132.68 226.457 126.626C225.493 125.134 224.523 123.697 223.584 122.328L223.541 122.266H223.498L208.584 121.161L204.194 120.866L203.008 120.799C202.862 120.784 202.714 120.78 202.566 120.786Z" fill="#263238"/>
<path d="M214.117 124.697C214.128 124.646 214.15 124.598 214.18 124.555C214.211 124.513 214.25 124.477 214.294 124.45C214.339 124.423 214.389 124.405 214.441 124.398C214.492 124.391 214.545 124.394 214.596 124.408C214.793 124.453 214.974 124.553 215.117 124.697C215.209 124.78 215.268 124.892 215.285 125.015C215.301 125.137 215.275 125.261 215.21 125.366C215.019 125.605 214.596 125.513 214.387 125.317C214.293 125.245 214.218 125.15 214.171 125.042C214.124 124.933 214.105 124.814 214.117 124.697Z" fill="white"/>
<path d="M223.179 139.053C223.179 139.053 223.94 137.211 222 136.99C219.654 136.868 217.303 136.868 214.957 136.99C214.957 136.99 212.163 137.285 212.753 139.286C212.753 139.286 211.107 140.76 211.991 142.356C212.876 143.953 213.219 143.474 213.219 143.474C213.219 143.474 212.986 145.42 214.447 145.709C214.447 145.709 216.044 147.594 217.517 147.477C218.991 147.36 225.223 144.358 225.635 143.793C226.046 143.228 226.635 142.872 226.285 142.215C226.285 142.215 227.047 140.49 225.401 140.226C225.414 140.195 225.297 138.764 223.179 139.053Z" fill="#FFBF9D"/>
<path d="M214.324 139.71C214.756 139.8 215.198 139.833 215.638 139.808C216.449 139.808 217.566 139.808 218.8 139.808C219.864 139.839 220.928 139.777 221.981 139.624C222.816 139.427 223.147 138.936 223.111 138.924C222.75 139.152 222.35 139.313 221.932 139.397C221.164 139.526 220.028 139.446 218.794 139.489C217.56 139.532 216.443 139.544 215.632 139.581C215.193 139.571 214.753 139.614 214.324 139.71Z" fill="#FF9A6C"/>
<path d="M215.711 142.657C215.841 142.733 215.985 142.781 216.135 142.798C216.538 142.881 216.952 142.907 217.363 142.878C217.962 142.833 218.555 142.724 219.131 142.553C219.782 142.375 220.476 142.123 221.206 141.902C221.885 141.677 222.588 141.531 223.3 141.466C223.916 141.523 224.534 141.4 225.081 141.11C225.294 140.966 225.445 140.747 225.504 140.496C225.544 140.309 225.518 140.114 225.431 139.943C225.277 139.667 225.068 139.649 225.074 139.661C225.081 139.673 225.222 139.747 225.314 139.999C225.373 140.169 225.369 140.355 225.302 140.523C225.236 140.691 225.111 140.829 224.952 140.913C224.427 141.144 223.851 141.231 223.282 141.165C222.544 141.211 221.816 141.351 221.114 141.583L219.051 142.264C218.493 142.438 217.923 142.565 217.344 142.645C216.801 142.682 216.255 142.686 215.711 142.657Z" fill="#FF9A6C"/>
<path d="M217.801 145.144C218.248 145.118 218.69 145.034 219.115 144.892C219.913 144.69 221.006 144.377 222.185 143.99C223.364 143.603 224.444 143.204 225.206 142.891C225.638 142.755 226.051 142.563 226.434 142.32C226.397 142.234 224.481 142.934 222.136 143.677C219.79 144.42 217.776 145.058 217.801 145.144Z" fill="#FF9A6C"/>
<path d="M217.301 147.453C217.668 147.486 218.037 147.444 218.388 147.33C219.244 147.123 220.077 146.828 220.874 146.452C221.808 146.029 222.624 145.593 223.214 145.28C223.55 145.137 223.865 144.947 224.147 144.715C222.971 145.095 221.831 145.578 220.739 146.158C218.903 147.042 217.289 147.361 217.301 147.453Z" fill="#FF9A6C"/>
<path d="M279.327 129.897C279.327 129.897 275.361 145.787 270.406 151.657C265.604 157.343 258.083 154.727 255.48 147.359C252.876 139.991 248.234 123.223 248.234 123.223L253.932 118.863L263.756 137.953L268.196 124.942L279.327 129.897Z" fill="#FFBF9D"/>
<path d="M248.498 123.677L244.316 117.617C243.708 117.486 243.112 117.301 242.536 117.065C242.063 116.788 241.596 114.381 241.609 113.915C241.621 113.448 240.798 112.349 241.13 112.036C241.461 111.723 242.579 111.704 242.517 111.256C242.517 111.158 241.688 110.151 242.339 109.414C242.698 109.177 243.098 109.008 243.518 108.917L243.451 106.602C243.451 106.602 244.678 103.876 245.974 104.864C245.974 104.864 250.782 108.548 251.267 109.162C251.752 109.776 253.606 117.445 253.931 118.888" fill="#FFBF9D"/>
<path d="M253.933 118.876C253.926 118.739 253.905 118.603 253.871 118.471C253.804 118.176 253.724 117.795 253.62 117.316C253.398 116.309 253.061 114.86 252.606 113.074C252.373 112.177 252.121 111.232 251.796 110.157C251.716 109.899 251.63 109.635 251.52 109.365C251.393 109.09 251.198 108.851 250.955 108.671C250.513 108.284 250.052 107.904 249.579 107.517C248.628 106.749 247.615 105.951 246.565 105.135C246.3 104.899 246.002 104.702 245.68 104.551C245.493 104.506 245.297 104.506 245.109 104.551C244.922 104.596 244.747 104.684 244.6 104.809C244.051 105.286 243.614 105.877 243.317 106.541V106.578C243.317 106.805 243.317 107.044 243.317 107.284C243.317 107.824 243.317 108.364 243.366 108.892L243.476 108.745C243.186 108.815 242.903 108.91 242.629 109.027C242.476 109.091 242.337 109.183 242.218 109.298C242.112 109.421 242.032 109.566 241.984 109.721C241.906 110.028 241.932 110.352 242.058 110.642C242.109 110.781 242.173 110.915 242.248 111.041L242.353 111.219V111.262C242.356 111.277 242.356 111.291 242.353 111.305C242.353 111.354 242.23 111.428 242.113 111.471C241.996 111.514 241.868 111.557 241.739 111.6C241.605 111.636 241.474 111.679 241.346 111.729C241.185 111.775 241.044 111.875 240.947 112.011C240.882 112.169 240.882 112.345 240.947 112.503C240.983 112.635 241.031 112.764 241.088 112.889C241.192 113.135 241.309 113.368 241.395 113.596C241.438 113.699 241.463 113.809 241.468 113.921C241.471 114.053 241.483 114.184 241.505 114.314C241.542 114.566 241.585 114.811 241.64 115.057C241.736 115.53 241.865 115.996 242.027 116.451C242.105 116.688 242.23 116.908 242.396 117.095C242.596 117.225 242.816 117.322 243.046 117.384C243.47 117.513 243.888 117.617 244.274 117.709L244.207 117.666L247.277 122.063L248.136 123.254C248.232 123.397 248.338 123.533 248.456 123.659C248.377 123.506 248.289 123.359 248.192 123.217L247.381 121.989C246.651 120.902 245.625 119.386 244.367 117.531V117.494H244.373C243.98 117.396 243.568 117.286 243.145 117.157C242.948 117.101 242.76 117.018 242.586 116.911C242.454 116.749 242.354 116.564 242.291 116.365C242.135 115.92 242.011 115.465 241.923 115.002C241.874 114.762 241.831 114.523 241.794 114.277C241.794 114.16 241.794 114.032 241.794 113.921C241.788 113.778 241.759 113.637 241.708 113.503C241.616 113.252 241.499 113.018 241.401 112.779C241.347 112.667 241.304 112.549 241.272 112.429C241.239 112.338 241.239 112.238 241.272 112.147C241.343 112.073 241.432 112.02 241.53 111.993C241.652 111.945 241.777 111.904 241.904 111.87C242.033 111.827 242.168 111.79 242.303 111.735C242.472 111.683 242.614 111.566 242.696 111.41C242.719 111.36 242.729 111.305 242.727 111.25C242.726 111.211 242.715 111.174 242.696 111.14V111.09L242.592 110.912C242.526 110.796 242.469 110.675 242.42 110.55C242.321 110.32 242.3 110.063 242.359 109.819C242.391 109.701 242.45 109.592 242.531 109.5C242.623 109.419 242.729 109.355 242.844 109.31C243.102 109.199 243.369 109.108 243.642 109.04L243.753 109.009V108.892C243.753 108.364 243.722 107.83 243.703 107.29C243.703 107.05 243.703 106.805 243.703 106.584V106.651C243.976 106.032 244.381 105.478 244.888 105.03C244.997 104.93 245.129 104.857 245.273 104.82C245.416 104.782 245.567 104.781 245.711 104.815C245.997 104.956 246.264 105.133 246.503 105.343C247.559 106.16 248.572 106.952 249.524 107.713C250.003 108.094 250.464 108.469 250.899 108.843C251.12 109 251.296 109.212 251.409 109.457C251.513 109.709 251.599 109.973 251.685 110.225C252.011 111.256 252.299 112.233 252.52 113.117C252.981 114.879 253.362 116.309 253.626 117.335C253.755 117.808 253.853 118.188 253.927 118.477C253.915 118.61 253.917 118.744 253.933 118.876Z" fill="#FF9A6C"/>
<path d="M243.52 108.917C243.52 108.966 244.005 108.917 244.748 109.003C245.192 109.072 245.631 109.172 246.062 109.304C246.626 109.384 247.198 109.384 247.762 109.304C248.246 109.236 248.74 109.279 249.205 109.43C249.669 109.581 250.094 109.836 250.445 110.176C250.718 110.478 250.936 110.825 251.09 111.201C251.093 110.983 251.051 110.766 250.966 110.564C250.882 110.362 250.757 110.18 250.599 110.028C250.279 109.677 249.885 109.402 249.445 109.224C248.904 109.014 248.32 108.941 247.744 109.009C247.204 109.077 246.657 109.077 246.117 109.009C245.673 108.886 245.219 108.806 244.76 108.77C244.341 108.736 243.919 108.787 243.52 108.917Z" fill="#FF9A6C"/>
<path d="M245.222 108.79C245.29 108.826 245.486 108.544 245.462 108.145C245.437 107.746 245.21 107.494 245.148 107.531C245.087 107.568 245.148 107.838 245.148 108.145C245.148 108.452 245.142 108.759 245.222 108.79Z" fill="#FF9A6C"/>
<path d="M242.371 111.342C243.586 111.458 244.812 111.363 245.994 111.06C246.423 110.919 246.875 110.86 247.326 110.888C247.675 110.965 247.984 111.168 248.192 111.459C248.373 111.748 248.533 112.049 248.671 112.361C248.692 111.989 248.586 111.621 248.37 111.318C248.149 110.96 247.796 110.704 247.387 110.605C246.9 110.548 246.406 110.596 245.938 110.747C243.992 111.189 242.371 111.256 242.371 111.342Z" fill="#FF9A6C"/>
<path d="M241.734 113.529C242.027 113.597 242.332 113.597 242.625 113.529C243.171 113.467 243.908 113.277 244.706 113.117C245.075 113.035 245.452 112.998 245.83 113.007C246.123 113.012 246.407 113.116 246.634 113.302C246.838 113.49 246.977 113.736 247.033 114.008C247.033 114.008 247.088 113.928 247.082 113.762C247.057 113.528 246.951 113.311 246.781 113.148C246.533 112.903 246.203 112.757 245.854 112.737C245.443 112.708 245.029 112.739 244.626 112.829C243.804 112.988 243.091 113.21 242.563 113.32C242.281 113.361 242.003 113.431 241.734 113.529Z" fill="#FF9A6C"/>
<path d="M243.145 115.26C243.095 115.297 243.507 115.726 244.256 115.726L244.109 115.597C244.109 115.726 244.109 115.855 244.152 115.984C244.171 116.511 244.288 117.029 244.495 117.513C244.577 116.995 244.56 116.466 244.446 115.954L244.391 115.567V115.432H244.262C243.884 115.416 243.51 115.358 243.145 115.26Z" fill="#FF9A6C"/>
<path d="M273.053 113.805C273.053 113.805 281.176 115.769 281.158 126.545C281.14 137.321 278.702 142.638 278.702 142.638L263.727 134.466L267.091 126.097L273.053 113.805Z" fill="#455A64"/>
<path d="M278.703 142.639C278.595 142.608 278.492 142.562 278.396 142.504L277.524 142.062L274.332 140.379L263.654 134.626L263.531 134.565L263.58 134.436L264.385 132.336C265.343 129.849 266.227 127.479 267.086 125.324C267.504 124.25 267.897 123.224 268.271 122.254C268.598 121.353 268.994 120.478 269.456 119.639C270.073 118.382 271.004 117.305 272.158 116.513C272.482 116.31 272.84 116.167 273.214 116.09C273.309 116.069 273.406 116.057 273.503 116.053H273.607C273.116 116.155 272.648 116.346 272.225 116.618C271.118 117.428 270.233 118.505 269.653 119.749C269.212 120.586 268.832 121.454 268.517 122.346C268.155 123.31 267.768 124.336 267.356 125.416L264.679 132.44L263.875 134.54L263.801 134.344L274.46 140.195L277.604 141.964L278.445 142.455C278.538 142.507 278.624 142.568 278.703 142.639Z" fill="#263238"/>
</svg>
