<svg width="367" height="288" viewBox="0 0 367 288" fill="none" xmlns="http://www.w3.org/2000/svg">
<g clip-path="url(#clip0_3395_28011)">
<mask id="mask0_3395_28011" style="mask-type:luminance" maskUnits="userSpaceOnUse" x="75" y="216" width="51" height="51">
<path d="M125.636 216.5H75.666V266.453H125.636V216.5Z" fill="white"/>
</mask>
<g mask="url(#mask0_3395_28011)">
<path d="M137.196 242.234L136.216 243.214L133.81 245.62L131.403 248.026L128.997 250.431L126.59 252.837L124.184 255.243L121.777 257.648L119.371 260.054L116.964 262.46L112.261 267.161L112.146 267.276L109.74 269.682L107.333 272.088L104.927 274.493L102.52 276.899L101.43 277.989C101.582 277.984 101.734 277.984 101.886 277.979L103.092 276.773L105.498 274.367L107.905 271.962L110.311 269.556L112.718 267.15L115.124 264.745L117.53 262.339L119.937 259.934L122.343 257.528L124.75 255.122L127.156 252.717L129.563 250.311L131.969 247.905L134.376 245.5L136.782 243.094L137.175 242.701C137.191 242.538 137.196 242.386 137.196 242.234Z" fill="#9A8CF3"/>
<path d="M137.056 244.781L136.217 245.62L133.81 248.025L131.404 250.431L128.997 252.837L124.295 257.538L124.179 257.653L121.773 260.059L119.366 262.465L116.96 264.87L114.553 267.276L112.147 269.682L109.74 272.087L107.334 274.493L104.927 276.899L103.979 277.847C104.141 277.832 104.304 277.821 104.466 277.8L107.79 274.477L107.905 274.362L110.312 271.956L112.718 269.551L115.125 267.145L117.531 264.739L119.938 262.334L122.344 259.928L124.751 257.522L127.157 255.117L129.564 252.711L131.97 250.305L134.377 247.9L136.783 245.494L137.003 245.274C137.029 245.106 137.045 244.944 137.056 244.781Z" fill="#9A8CF3"/>
<path d="M117.594 273.865C117.919 273.692 118.244 273.519 118.569 273.335L119.927 271.978L122.333 269.572L124.74 267.167L127.146 264.761L129.553 262.355L131.959 259.95L132.504 259.405C132.688 259.085 132.861 258.76 133.034 258.43L131.388 260.075L128.981 262.481L124.278 267.182L124.163 267.298L121.757 269.703L119.35 272.109L117.594 273.865Z" fill="#9A8CF3"/>
<path d="M113.264 275.789C113.505 275.7 113.741 275.611 113.982 275.517L115.114 274.385L117.521 271.979L119.927 269.573L122.334 267.168L124.74 264.762L127.147 262.356L129.553 259.951L131.96 257.545L134.366 255.139L134.686 254.82C134.78 254.584 134.869 254.343 134.959 254.102L133.795 255.265L131.388 257.671L128.982 260.076L126.575 262.482L124.169 264.888L121.762 267.293L119.356 269.699L116.949 272.105L113.264 275.789Z" fill="#9A8CF3"/>
<path d="M112.701 274.383L115.107 271.977L117.514 269.572L119.92 267.166L122.327 264.76L124.733 262.355L127.14 259.949L129.546 257.543L131.953 255.138L134.359 252.732L135.874 251.217C135.932 251.013 135.985 250.814 136.037 250.609L133.783 252.863L131.376 255.269L128.97 257.674L126.563 260.08L124.157 262.486L121.75 264.891L119.344 267.297L116.937 269.703L114.531 272.108L112.124 274.514L109.76 276.878C109.964 276.825 110.163 276.768 110.368 276.715L112.701 274.383Z" fill="#9A8CF3"/>
<path d="M110.296 274.384L112.702 271.978L115.109 269.572L119.811 264.871L119.927 264.756L122.333 262.35L124.74 259.945L129.558 255.128L131.964 252.722L134.371 250.317L136.599 248.089C136.63 247.911 136.662 247.733 136.693 247.555L135.005 249.242L133.799 250.448L131.393 252.853L128.986 255.259L126.58 257.665L124.173 260.07L121.767 262.476L119.361 264.882L116.954 267.287L114.548 269.693L112.141 272.099L109.735 274.504L107.328 276.91L106.73 277.507C106.909 277.476 107.087 277.45 107.265 277.413L107.9 276.779L110.296 274.384Z" fill="#9A8CF3"/>
<path d="M77.7377 213.02C75.693 214.665 73.8318 216.526 72.1855 218.57L74.1621 216.594L76.5686 214.188L77.7377 213.02Z" fill="#9A8CF3"/>
<path d="M136.714 235.488L136.215 235.986L133.809 238.392L131.403 240.797L128.996 243.203L126.59 245.609L124.183 248.014L121.777 250.42L119.37 252.826L116.964 255.231L114.557 257.637L112.151 260.043L109.744 262.448L107.338 264.854L104.931 267.26L102.525 269.665L100.118 272.071L97.7119 274.477L95.3054 276.882L94.6973 277.49C94.8231 277.511 94.9489 277.532 95.08 277.553L98.2886 274.346L100.695 271.94L103.102 269.534L107.804 264.833L107.92 264.718L110.326 262.312L112.733 259.906L115.139 257.501L117.546 255.095L119.952 252.69L122.359 250.284L124.765 247.878L127.172 245.473L129.578 243.067L131.984 240.661L134.391 238.256L136.787 235.86C136.761 235.745 136.735 235.619 136.714 235.488Z" fill="#9A8CF3"/>
<path d="M137.002 237.613L136.216 238.399L133.809 240.805L131.403 243.211L128.996 245.616L125.384 249.228L124.178 250.433L121.772 252.839L119.365 255.244L116.959 257.65L114.552 260.056L112.146 262.461L109.739 264.867L107.333 267.273L104.926 269.678L102.52 272.084L100.114 274.49L97.7071 276.895L96.8105 277.791C96.9469 277.807 97.0832 277.818 97.2142 277.833L98.2785 276.769L100.685 274.364L103.091 271.958L105.498 269.552L107.904 267.147L110.311 264.741L112.717 262.335L115.124 259.93L119.942 255.113L122.349 252.708L124.755 250.302L128.65 246.408L129.568 245.491L131.974 243.085L134.381 240.679L136.787 238.274L137.039 238.022C137.029 237.881 137.018 237.75 137.002 237.613Z" fill="#9A8CF3"/>
<path d="M137.171 239.855L136.222 240.804L133.815 243.21L131.409 245.615L129.003 248.021L126.596 250.427L124.19 252.832L121.783 255.238L119.377 257.644L116.97 260.049L114.564 262.455L112.157 264.861L109.751 267.266L107.344 269.672L104.938 272.078L100.12 276.894L99.0605 277.953C99.2021 277.958 99.3437 277.963 99.4905 277.969L100.696 276.763L103.103 274.357L105.509 271.952L107.916 269.546L110.322 267.141L112.729 264.735L115.135 262.329L117.542 259.924L119.948 257.518L122.355 255.112L124.761 252.707L127.168 250.301L129.574 247.895L131.98 245.49L134.387 243.084L136.793 240.678L137.187 240.285C137.181 240.138 137.176 239.997 137.171 239.855Z" fill="#9A8CF3"/>
<path d="M133.899 226.27L133.81 226.359L131.403 228.764L128.997 231.17L126.59 233.576L124.184 235.981L121.777 238.387L119.371 240.793L116.964 243.198L114.558 245.604L112.152 248.01L109.745 250.415L107.339 252.821L104.932 255.227L102.526 257.632L100.119 260.038L97.7127 262.443L95.3062 264.849L92.8997 267.255L90.4933 269.66L88.0868 272.066L85.6803 274.472L85.4863 274.666C85.5859 274.713 85.6908 274.76 85.7904 274.802L86.1364 274.456L86.2518 274.341L88.6583 271.935L91.0647 269.529L93.4712 267.124L95.8777 264.718L98.2841 262.312L100.691 259.907L103.097 257.501L105.504 255.095L107.91 252.69L110.317 250.284L112.723 247.879L115.129 245.473L117.536 243.067L119.942 240.662L122.349 238.256L124.755 235.85L127.162 233.445L129.568 231.039L131.975 228.633L134.035 226.574C133.988 226.474 133.946 226.369 133.899 226.27Z" fill="#9A8CF3"/>
<path d="M134.743 228.273C134.701 228.168 134.659 228.058 134.617 227.953L133.81 228.76L131.403 231.166L128.997 233.572L126.59 235.977L124.184 238.383L121.777 240.789L119.371 243.194L116.964 245.6L113.352 249.211L112.146 250.416L109.74 252.822L107.333 255.228L104.927 257.633L102.52 260.039L100.114 262.445L97.7074 264.85L95.301 267.256L92.8945 269.662L90.488 272.067L88.0816 274.473L87.1641 275.39C87.2689 275.432 87.379 275.474 87.4839 275.516L88.6583 274.342L91.0647 271.936L93.4712 269.531L98.2894 264.714L100.696 262.308L103.102 259.903L107.921 255.086L110.327 252.681L112.733 250.275L115.14 247.869L117.546 245.464L119.953 243.058L122.359 240.652L124.766 238.247L127.172 235.841L129.579 233.435L131.985 231.03L134.392 228.624L134.743 228.273Z" fill="#9A8CF3"/>
<path d="M131.331 221.609L128.992 223.947L126.586 226.353L124.179 228.758L121.773 231.164L119.366 233.57L116.96 235.975L114.553 238.381L112.147 240.787L109.741 243.192L107.334 245.598L104.928 248.003L102.521 250.409L100.115 252.815L97.7082 255.22L95.3017 257.626L92.8952 260.032L90.4888 262.437L88.0823 264.843L85.6758 267.249L83.2693 269.654L80.8629 272.06L80.8262 272.097C80.9153 272.154 81.0044 272.212 81.0936 272.27L81.4343 271.929L83.8408 269.523L86.2473 267.118L88.6538 264.712L91.0602 262.306L93.4667 259.901L98.2849 255.084L100.691 252.679L103.098 250.273L106.993 246.379L107.911 245.462L110.317 243.056L112.724 240.65L115.13 238.245L117.537 235.839L119.943 233.433L122.35 231.028L124.756 228.622L127.163 226.216L129.569 223.811L131.509 221.871C131.451 221.788 131.394 221.698 131.331 221.609Z" fill="#9A8CF3"/>
<path d="M132.415 223.381C132.363 223.286 132.305 223.192 132.253 223.098L131.403 223.947L128.997 226.352L126.59 228.758L124.184 231.164L121.777 233.569L119.371 235.975L116.964 238.381L114.558 240.786L112.152 243.192L109.745 245.598L107.339 248.003L104.932 250.409L102.526 252.815L100.119 255.22L97.7127 257.626L95.3063 260.032L92.8998 262.437L90.4933 264.843L88.0868 267.249L85.6804 269.654L83.2739 272.06L82.3145 273.019C82.4088 273.071 82.5032 273.129 82.5976 273.181L83.8454 271.934L86.2518 269.528L88.6583 267.123L91.0648 264.717L93.4713 262.311L95.8777 259.906L98.2842 257.5L100.691 255.094L103.097 252.689L105.504 250.283L107.91 247.877L110.317 245.472L112.723 243.066L115.129 240.661L117.536 238.255L119.942 235.849L122.349 233.444L124.755 231.038L127.162 228.632L129.568 226.227L131.975 223.821L132.415 223.381Z" fill="#9A8CF3"/>
<path d="M128.431 217.733C128.362 217.655 128.294 217.576 128.226 217.492L126.585 219.133L124.179 221.538L121.772 223.944L119.366 226.35L116.959 228.755L114.553 231.161L112.146 233.567L109.74 235.972L107.333 238.378L104.927 240.784L102.52 243.189L100.114 245.595L97.7074 248.001L95.3009 250.406L92.8944 252.812L90.4879 255.217L88.0815 257.623L85.675 260.029L83.2685 262.434L78.4503 267.251L76.6992 269.002C76.7779 269.07 76.8565 269.138 76.9404 269.206L79.0218 267.125L81.4283 264.72L83.8347 262.314L86.2412 259.908L88.6477 257.503L91.0542 255.097L93.4606 252.691L95.8671 250.286L98.2736 247.88L100.68 245.474L103.087 243.069L105.493 240.663L107.899 238.257L110.306 235.852L112.712 233.446L115.119 231.04L117.525 228.635L119.932 226.229L122.338 223.823L124.745 221.418L127.151 219.012L128.431 217.733Z" fill="#9A8CF3"/>
<path d="M127.293 216.465C127.219 216.386 127.151 216.313 127.078 216.234L126.585 216.727L124.178 219.133L121.772 221.538L119.365 223.944L116.959 226.35L114.552 228.755L112.146 231.161L109.739 233.567L107.333 235.972L104.927 238.378L102.52 240.784L100.114 243.189L97.7071 245.595L95.3006 248.001L92.8942 250.406L90.4877 252.812L88.0812 255.218L85.6747 257.623L83.2683 260.029L80.8618 262.435L78.4553 264.84L76.0489 267.246L75.4512 267.843C75.5246 267.917 75.6032 267.985 75.6819 268.058L76.6256 267.115L79.032 264.709L81.4385 262.303L83.845 259.898L86.2515 257.492L88.6579 255.087L91.0644 252.681L93.4709 250.275L98.1108 245.637L98.2891 245.459L100.696 243.053L103.102 240.647L105.508 238.242L107.915 235.836L110.321 233.43L112.728 231.025L115.134 228.619L117.541 226.213L119.947 223.808L122.354 221.402L124.76 218.996L127.167 216.591L127.293 216.465Z" fill="#9A8CF3"/>
<path d="M129.515 219.051C129.452 218.967 129.384 218.883 129.321 218.805L128.996 219.13L126.589 221.535L124.183 223.941L121.776 226.347L119.37 228.752L116.963 231.158L114.557 233.564L112.151 235.969L109.744 238.375L107.338 240.781L104.931 243.186L102.525 245.592L100.118 247.997L97.7117 250.403L95.3052 252.809L90.6024 257.51L90.487 257.625L88.0806 260.031L85.6741 262.437L83.2676 264.842L80.8612 267.248L78.4547 269.654L78.0195 270.089C78.1034 270.157 78.1873 270.22 78.2712 270.283L79.0314 269.523L81.4379 267.117L83.8443 264.711L86.2508 262.306L88.6573 259.9L91.0638 257.494L93.4702 255.089L95.8767 252.683L98.2832 250.277L100.69 247.872L103.096 245.466L105.503 243.06L107.909 240.655L110.316 238.249L112.722 235.843L115.128 233.438L117.535 231.032L119.941 228.626L122.348 226.221L124.754 223.815L127.161 221.41L129.515 219.051Z" fill="#9A8CF3"/>
<path d="M126.097 215.247C126.023 215.174 125.95 215.101 125.871 215.027L124.173 216.725L121.766 219.131L119.36 221.537L116.953 223.942L114.547 226.348L112.14 228.754L109.734 231.159L107.327 233.565L104.921 235.971L102.514 238.376L100.108 240.782L97.7014 243.188L95.2949 245.593L91.6826 249.204L90.4768 250.41L88.0703 252.816L85.6638 255.221L83.2573 257.627L80.8509 260.033L78.4444 262.438L76.0379 264.844L74.2344 266.647C74.3078 266.72 74.3812 266.799 74.4546 266.872L76.6094 264.718L79.0159 262.312L81.4223 259.907L86.2405 255.09L88.647 252.685L91.0535 250.279L93.4599 247.873L95.8664 245.468L98.2729 243.062L100.679 240.656L103.086 238.251L105.492 235.845L107.899 233.439L110.305 231.034L112.712 228.628L115.118 226.222L117.525 223.817L119.931 221.411L122.338 219.005L124.744 216.6L126.097 215.247Z" fill="#9A8CF3"/>
<path d="M104.9 207.092L102.494 209.498L100.087 211.904L97.6806 214.309L95.2741 216.715L92.8677 219.121L90.4612 221.526L88.0547 223.932L85.6482 226.338L83.2418 228.743L80.8353 231.149L78.4288 233.555L76.0224 235.96L73.6159 238.366L71.2094 240.772L68.8029 243.177L66.3965 245.583L64.6191 247.36C64.6401 247.485 64.6611 247.616 64.6821 247.742L66.9679 245.457L69.3744 243.051L71.7809 240.646L74.1874 238.24L76.5938 235.835L79.0003 233.429L81.4068 231.023L83.8132 228.618L86.2197 226.212L88.6262 223.806L91.0327 221.401L93.4391 218.995L95.8456 216.589L98.2521 214.184L100.659 211.778L103.065 209.372L105.471 206.967L106.95 205.489C106.824 205.468 106.698 205.447 106.567 205.426L104.9 207.092Z" fill="#9A8CF3"/>
<path d="M102.493 207.092L100.087 209.497L97.6805 211.903L95.274 214.309L92.8676 216.714L90.4611 219.12L88.0546 221.526L85.6482 223.931L83.2417 226.337L80.8352 228.743L78.4287 231.148L76.0223 233.554L73.6158 235.96L71.2093 238.365L68.8029 240.771L66.3964 243.176L64.3359 245.236C64.3517 245.367 64.3674 245.504 64.3831 245.635L64.5614 245.456L66.9679 243.051L69.3743 240.645L71.7808 238.239L74.1873 235.834L76.5937 233.428L79.0002 231.022L81.4067 228.617L83.8132 226.211L86.2196 223.805L88.6261 221.4L91.0326 218.994L93.439 216.588L95.8455 214.183L98.252 211.777L100.658 209.372L103.065 206.966L104.847 205.184C104.716 205.168 104.58 205.152 104.449 205.137L102.493 207.092Z" fill="#9A8CF3"/>
<path d="M100.082 207.091L97.6757 209.497L95.2692 211.903L92.8627 214.308L90.4563 216.714L88.0498 219.12L85.6433 221.525L83.2369 223.931L80.8304 226.337L78.4239 228.742L76.0174 231.148L73.611 233.554L71.2045 235.959L68.798 238.365L66.3916 240.771L64.1738 242.988C64.1791 243.129 64.1843 243.271 64.1948 243.412L64.5618 243.045L66.9683 240.64L69.3747 238.234L71.7812 235.828L74.1877 233.423L76.5942 231.017L79.0006 228.611L81.4071 226.206L83.8136 223.8L86.22 221.394L88.6265 218.989L91.033 216.583L93.4395 214.177L95.8459 211.772L98.2524 209.366L100.659 206.96L102.63 204.99C102.489 204.984 102.347 204.979 102.206 204.969L100.082 207.091Z" fill="#9A8CF3"/>
<path d="M97.6759 207.093L95.2694 209.498L92.8629 211.904L90.4565 214.31L88.05 216.715L85.6435 219.121L83.2371 221.527L80.8306 223.932L78.4241 226.338L76.0177 228.744L73.6112 231.149L71.2047 233.555L68.7982 235.961L66.3918 238.366L64.1478 240.61C64.1426 240.762 64.1426 240.908 64.1426 241.06L64.5568 240.646L66.9632 238.241L69.3697 235.835L71.7762 233.429L74.1827 231.024L76.5891 228.618L78.9956 226.212L81.4021 223.807L83.8085 221.401L86.215 218.995L88.6215 216.59L91.028 214.184L93.4344 211.778L95.8409 209.373L98.2474 206.967L100.266 204.949C100.114 204.949 99.967 204.949 99.815 204.954L97.6759 207.093Z" fill="#9A8CF3"/>
<path d="M92.8582 207.093L90.4517 209.498L88.0453 211.904L85.6388 214.31L83.2323 216.715L80.8258 219.121L78.4194 221.527L76.0129 223.932L73.6064 226.338L71.2 228.744L68.7935 231.149L66.387 233.555L64.6516 235.29C64.6202 235.468 64.5887 235.646 64.5625 235.824L66.9585 233.429L69.365 231.024L71.7714 228.618L74.1779 226.212L76.5844 223.807L78.9908 221.401L81.3973 218.995L83.8038 216.59L86.2103 214.184L88.6167 211.778L91.0232 209.373L93.4297 206.967L95.0183 205.379C94.84 205.405 94.6617 205.437 94.4835 205.468L92.8582 207.093Z" fill="#9A8CF3"/>
<path d="M93.4343 276.793L95.8407 274.387L98.2472 271.981L100.654 269.576L103.06 267.17L105.467 264.764L107.873 262.359L110.28 259.953L112.686 257.547L115.092 255.142L117.499 252.736L119.905 250.33L122.312 247.925L124.718 245.519L127.125 243.113L129.531 240.708L131.938 238.302L134.344 235.896L136.363 233.879C136.337 233.758 136.31 233.638 136.284 233.512L136.179 233.617L133.773 236.022L131.366 238.428L128.96 240.834L126.553 243.239L124.147 245.645L121.74 248.05L119.334 250.456L116.927 252.862L112.225 257.563L112.109 257.678L109.703 260.084L107.296 262.49L104.89 264.895L102.483 267.301L100.077 269.707L97.6705 272.112L95.264 274.518L92.8575 276.924L92.6426 277.138C92.7632 277.165 92.8837 277.191 93.0096 277.217L93.4343 276.793Z" fill="#9A8CF3"/>
<path d="M93.43 274.385L95.8365 271.979L98.243 269.573L100.649 267.168L103.056 264.762L105.462 262.356L107.869 259.951L110.275 257.545L112.682 255.139L115.088 252.734L117.495 250.328L119.901 247.922L122.308 245.517L124.714 243.111L127.121 240.705L129.527 238.3L131.934 235.894L134.34 233.488L135.892 231.937C135.86 231.822 135.829 231.701 135.798 231.586L133.769 233.614L131.362 236.02L128.956 238.426L126.549 240.831L124.143 243.237L121.736 245.643L119.33 248.048L116.923 250.454L114.517 252.86L112.11 255.265L109.704 257.671L107.297 260.076L104.891 262.482L100.073 267.299L97.6663 269.704L95.2598 272.11L90.709 276.659C90.8243 276.691 90.9397 276.722 91.0603 276.754L93.43 274.385Z" fill="#9A8CF3"/>
<path d="M91.0219 274.383L93.4284 271.977L95.8348 269.572L98.2413 267.166L100.648 264.76L103.054 262.355L105.461 259.949L107.867 257.543L110.274 255.138L112.68 252.732L115.087 250.326L118.982 246.432L119.9 245.515L122.306 243.11L124.712 240.704L127.119 238.298L129.525 235.893L131.932 233.487L134.338 231.081L135.335 230.085C135.298 229.975 135.261 229.86 135.224 229.75L133.767 231.207L131.36 233.613L128.954 236.018L126.547 238.424L124.141 240.83L121.735 243.235L119.328 245.641L116.922 248.047L114.515 250.452L112.109 252.858L109.702 255.264L107.296 257.669L104.889 260.075L102.483 262.481L100.076 264.886L97.6698 267.292L95.2634 269.698L92.8569 272.103L90.4504 274.509L88.8828 276.076C88.9929 276.113 89.1083 276.149 89.2184 276.186L91.0219 274.383Z" fill="#9A8CF3"/>
<path d="M88.5943 206.984C88.3637 207.063 88.133 207.147 87.9023 207.236L85.6321 209.505L83.2257 211.911L80.8192 214.317L78.4127 216.722L76.0062 219.128L73.5998 221.534L71.1933 223.939L68.7868 226.345L66.4118 228.719C66.3279 228.95 66.244 229.18 66.1602 229.411L66.9466 228.625L69.3531 226.219L71.7595 223.813L74.166 221.408L76.5725 219.002L78.9789 216.597L81.3854 214.191L83.7919 211.785L86.1984 209.38L88.5943 206.984Z" fill="#9A8CF3"/>
<path d="M86.2046 271.976L88.611 269.571L91.0175 267.165L93.424 264.759L95.8305 262.354L98.2369 259.948L100.643 257.543L103.05 255.137L105.456 252.731L107.863 250.326L110.269 247.92L112.676 245.514L115.082 243.109L117.489 240.703L119.895 238.297L122.302 235.892L124.708 233.486L127.115 231.08L129.521 228.675L131.928 226.269L133.212 224.985C133.16 224.885 133.112 224.791 133.06 224.691L131.356 226.395L128.95 228.8L126.543 231.206L124.137 233.612L121.73 236.017L119.324 238.423L116.917 240.829L114.511 243.234L112.104 245.64L109.698 248.046L107.291 250.451L104.885 252.857L100.067 257.674L97.6602 260.079L95.2537 262.485L90.5509 267.186L90.4356 267.301L88.0291 269.707L85.6226 272.113L83.8086 273.926C83.9082 273.979 84.0026 274.026 84.1022 274.078L86.2046 271.976Z" fill="#9A8CF3"/>
<path d="M83.5253 209.201L83.2213 209.505L80.8148 211.91L78.4083 214.316L76.0018 216.722L73.5954 219.127L71.1889 221.533L68.7824 223.939L68.3787 224.342C68.2162 224.646 68.0642 224.95 67.9121 225.254L69.3591 223.808L71.7656 221.402L74.1721 218.996L76.5786 216.591L78.985 214.185L81.3915 211.779L83.798 209.374L84.4376 208.734C84.1335 208.886 83.8294 209.038 83.5253 209.201Z" fill="#9A8CF3"/>
<path d="M81.3871 269.567L86.09 264.871L86.2053 264.756L88.6118 262.35L91.0183 259.945L93.4247 257.539L95.8312 255.134L98.2377 252.728L100.644 250.322L103.051 247.917L105.457 245.511L107.864 243.105L110.27 240.7L112.677 238.294L115.083 235.888L117.489 233.483L119.896 231.077L122.302 228.671L124.709 226.266L127.115 223.86L129.522 221.454L130.497 220.479C130.434 220.39 130.376 220.307 130.313 220.223L128.95 221.585L126.544 223.991L124.137 226.397L121.731 228.802L119.324 231.208L116.918 233.614L114.512 236.019L112.105 238.425L109.699 240.831L107.292 243.236L104.886 245.642L100.067 250.458L97.661 252.864L95.2545 255.27L92.848 257.675L90.4415 260.081L88.0351 262.487L85.6286 264.892L83.2221 267.298L80.8157 269.704L79.3477 271.171C79.4315 271.234 79.5207 271.297 79.6046 271.355L81.3871 269.567Z" fill="#9A8CF3"/>
<path d="M73.0449 265.421C73.1131 265.499 73.1865 265.578 73.2546 265.657L74.1616 264.75L76.5681 262.344L78.9746 259.939L81.3811 257.533L83.7875 255.127L86.194 252.722L88.6005 250.316L91.0069 247.91L93.4134 245.505L95.8199 243.099L98.2264 240.693L100.633 238.288L103.039 235.882L105.446 233.476L107.852 231.071L110.259 228.665L112.665 226.259L115.072 223.854L117.478 221.448L119.885 219.042L122.291 216.637L124.698 214.231L124.797 214.132C124.719 214.063 124.64 213.99 124.561 213.922L124.126 214.357L121.72 216.763L119.313 219.168L116.907 221.574L114.5 223.98L112.094 226.385L109.687 228.791L107.281 231.196L104.874 233.602L102.468 236.008L100.061 238.413L97.6549 240.819L95.2484 243.225L92.8419 245.63L90.4355 248.036L88.029 250.442L85.6225 252.847L83.2161 255.253L80.8096 257.659L78.4031 260.064L75.9966 262.47L73.5902 264.876L73.0449 265.421Z" fill="#9A8CF3"/>
<path d="M70.9219 262.734C70.9848 262.817 71.0477 262.907 71.1106 262.99L71.7555 262.346L74.162 259.94L76.5684 257.534L78.9749 255.129L81.3814 252.723L83.7878 250.317L86.1943 247.912L88.6008 245.506L91.0073 243.101L93.4137 240.695L95.8202 238.289L98.2267 235.884L100.633 233.478L103.04 231.072L105.446 228.667L107.853 226.261L110.259 223.855L112.665 221.45L115.072 219.044L117.478 216.638L119.885 214.233L122.129 211.989C122.045 211.927 121.956 211.864 121.872 211.801L121.72 211.953L119.313 214.358L116.907 216.764L114.5 219.17L112.094 221.575L109.688 223.981L107.281 226.387L104.875 228.792L102.468 231.198L100.062 233.604L97.6552 236.009L95.2487 238.415L92.8423 240.821L90.4358 243.226L88.0293 245.632L85.6228 248.038L83.2164 250.443L80.8099 252.849L78.4034 255.255L75.997 257.66L73.5905 260.066L71.184 262.472L70.9219 262.734Z" fill="#9A8CF3"/>
<path d="M71.7495 259.94L76.5677 255.123L78.9741 252.718L81.3806 250.312L85.276 246.418L86.1935 245.501L88.6 243.095L91.0065 240.689L93.413 238.284L95.8194 235.878L98.2259 233.472L100.632 231.067L103.039 228.661L105.445 226.255L107.852 223.85L110.258 221.444L112.665 219.038L115.071 216.633L117.478 214.227L119.884 211.821L120.707 210.999C120.618 210.941 120.529 210.878 120.44 210.82L119.313 211.947L116.906 214.353L114.5 216.758L112.093 219.164L109.687 221.57L107.28 223.975L104.874 226.381L102.467 228.787L100.061 231.192L97.6544 233.598L95.248 236.004L92.8415 238.409L90.435 240.815L88.0285 243.221L85.6221 245.626L83.2156 248.032L80.8091 250.438L78.4027 252.843L75.9962 255.249L73.5897 257.655L71.1832 260.06L69.9512 261.292C70.0088 261.381 70.0665 261.47 70.1294 261.559L71.7495 259.94Z" fill="#9A8CF3"/>
<path d="M72.1543 264.352L74.1623 262.345L76.5688 259.939L78.9753 257.533L81.3817 255.128L83.7882 252.722L86.1947 250.316L88.6011 247.911L91.0076 245.505L93.4141 243.099L95.8206 240.694L98.227 238.288L100.634 235.882L103.04 233.477L105.446 231.071L107.853 228.665L110.259 226.26L112.666 223.854L115.072 221.448L117.479 219.043L119.885 216.637L122.292 214.231L123.492 213.031C123.408 212.963 123.33 212.9 123.246 212.832L121.72 214.357L119.314 216.763L116.907 219.169L114.501 221.574L112.094 223.98L109.688 226.385L107.281 228.791L104.875 231.197L102.469 233.602L100.062 236.008L97.6556 238.414L95.2491 240.819L92.8426 243.225L90.4361 245.631L88.0297 248.036L85.6232 250.442L83.2167 252.848L78.3985 257.664L75.9921 260.07L73.5856 262.476L71.9551 264.106C72.0232 264.189 72.0861 264.268 72.1543 264.352Z" fill="#9A8CF3"/>
<path d="M68.7663 257.658L68.1738 258.25C68.2263 258.35 68.2787 258.444 68.3259 258.544L69.3377 257.532L71.7442 255.126L74.1507 252.721L76.5572 250.315L78.9636 247.909L81.3701 245.504L83.7766 243.098L86.183 240.692L88.5895 238.287L90.996 235.881L93.4025 233.475L95.8089 231.07L98.2154 228.664L100.622 226.258L103.028 223.853L105.435 221.447L107.841 219.042L110.248 216.636L112.654 214.23L115.061 211.825L117.467 209.419L117.672 209.214C117.577 209.162 117.478 209.11 117.383 209.062L116.896 209.55L114.489 211.956L112.083 214.361L109.676 216.767L107.27 219.173L104.863 221.578L102.457 223.984L100.05 226.39L97.6439 228.795L95.2375 231.201L92.831 233.606L90.4245 236.012L88.018 238.418L85.6116 240.823L83.2051 243.229L80.7986 245.635L78.3922 248.04L75.9857 250.446L73.5792 252.852L68.8764 257.553L68.7663 257.658Z" fill="#9A8CF3"/>
<path d="M69.3443 255.121L71.7507 252.715L74.1572 250.31L76.5637 247.904L78.9701 245.498L81.3766 243.093L83.7831 240.687L86.1896 238.281L88.596 235.876L91.0025 233.47L93.409 231.064L95.8154 228.659L98.2219 226.253L100.628 223.847L103.035 221.442L105.441 219.036L107.848 216.63L110.254 214.225L112.661 211.819L115.067 209.413L116.074 208.407C115.974 208.36 115.875 208.313 115.77 208.266L114.491 209.544L112.084 211.95L109.678 214.356L107.271 216.761L104.865 219.167L102.458 221.573L100.052 223.978L97.6452 226.384L95.2387 228.79L92.8323 231.195L90.4258 233.601L88.0193 236.007L85.6128 238.412L83.2064 240.818L80.7999 243.224L78.3934 245.629L75.987 248.035L73.5805 250.441L71.174 252.846L68.7675 255.252L67.3887 256.63C67.4359 256.73 67.483 256.835 67.5302 256.934L69.3443 255.121Z" fill="#9A8CF3"/>
<path d="M69.1965 260.087L69.3433 259.94L71.7497 257.535L74.1562 255.129L76.5627 252.723L78.9691 250.318L81.3756 247.912L83.7821 245.506L86.1886 243.101L88.595 240.695L91.0015 238.289L93.408 235.884L95.8144 233.478L98.2209 231.072L100.627 228.667L103.034 226.261L105.44 223.855L107.847 221.45L110.253 219.044L112.66 216.638L115.066 214.233L117.473 211.827L119.224 210.077C119.129 210.019 119.04 209.966 118.946 209.914L116.901 211.958L114.495 214.364L112.088 216.769L109.682 219.175L107.275 221.581L104.869 223.986L102.462 226.392L100.056 228.798L97.6494 231.203L95.243 233.609L92.8365 236.015L90.43 238.42L88.0236 240.826L85.6171 243.232L83.2106 245.637L78.3924 250.454L75.986 252.859L73.5795 255.265L71.173 257.671L69.0234 259.82C69.0864 259.898 69.1388 259.993 69.1965 260.087Z" fill="#9A8CF3"/>
<path d="M66.9311 231.043L69.3376 228.638L71.7441 226.232L74.1505 223.826L76.557 221.421L78.9635 219.015L81.3699 216.609L83.7764 214.204L86.1829 211.798L88.5894 209.392L90.9958 206.987L91.9867 205.996C91.7875 206.043 91.5935 206.09 91.3943 206.143L90.4191 207.118L88.0126 209.523L85.6062 211.929L83.1997 214.335L80.7932 216.74L78.3868 219.146L75.9803 221.552L73.5738 223.957L71.1673 226.363L68.7609 228.769L66.3544 231.174L65.2796 232.249C65.2272 232.443 65.18 232.642 65.1328 232.841L66.9311 231.043Z" fill="#9A8CF3"/>
<path d="M66.9315 247.901L69.338 245.495L71.7445 243.089L74.1509 240.684L76.5574 238.278L78.9639 235.872L81.3704 233.467L83.7768 231.061L86.1833 228.655L88.5898 226.25L90.9962 223.844L93.4027 221.439L95.8092 219.033L98.2157 216.627L100.622 214.222L103.029 211.816L105.435 209.41L107.842 207.005L108.916 205.93C108.796 205.904 108.675 205.878 108.555 205.852L107.27 207.136L104.864 209.541L102.457 211.947L100.051 214.353L97.6442 216.758L95.2377 219.164L92.8312 221.57L90.4248 223.975L88.0183 226.381L85.6118 228.787L83.2054 231.192L80.7989 233.598L78.3924 236.004L75.9859 238.409L73.5795 240.815L71.173 243.22L68.7665 245.626L66.3601 248.032L64.9707 249.421C64.9969 249.541 65.0231 249.662 65.0493 249.782L66.9315 247.901Z" fill="#9A8CF3"/>
<path d="M66.1343 253.513L66.9312 252.716L69.3376 250.31L71.7441 247.905L74.1506 245.499L76.5571 243.093L78.9635 240.688L81.37 238.282L83.7765 235.876L86.1829 233.471L88.5894 231.065L90.9959 228.659L93.4024 226.254L95.8088 223.848L98.2153 221.442L100.622 219.037L103.028 216.631L105.435 214.225L107.841 211.82L110.248 209.414L112.649 207.014C112.539 206.977 112.429 206.935 112.319 206.898L112.083 207.134L109.676 209.54L107.27 211.946L104.863 214.351L102.457 216.757L100.05 219.163L97.6438 221.568L95.2374 223.974L92.8309 226.38L90.4244 228.785L88.0179 231.191L85.6115 233.597L83.205 236.002L80.7985 238.408L78.3921 240.813L75.9856 243.219L73.5791 245.625L69.9668 249.236L68.7609 250.441L66.3545 252.847L66.0137 253.188C66.0556 253.292 66.0976 253.403 66.1343 253.513Z" fill="#9A8CF3"/>
<path d="M66.9316 250.306L69.3381 247.9L71.7446 245.495L74.151 243.089L76.5575 240.683L78.964 238.278L81.3704 235.872L83.7769 233.466L86.1834 231.061L88.5899 228.655L90.9963 226.249L93.4028 223.844L95.8093 221.438L98.2157 219.033L100.622 216.627L103.029 214.221L105.435 211.816L107.842 209.41L110.248 207.004L110.825 206.428C110.709 206.396 110.594 206.36 110.479 206.328L109.677 207.13L107.27 209.536L104.864 211.941L102.457 214.347L100.051 216.753L97.6443 219.158L95.2378 221.564L92.8313 223.97L90.4249 226.375L88.0184 228.781L85.6119 231.187L83.2054 233.592L80.799 235.998L78.3925 238.404L75.986 240.809L73.5796 243.215L71.1731 245.621L68.7666 248.026L66.3601 250.432L65.4531 251.339C65.4846 251.454 65.516 251.569 65.5527 251.684L66.9316 250.306Z" fill="#9A8CF3"/>
<path d="M66.7957 255.259L66.9321 255.123L69.3385 252.717L71.745 250.312L76.3849 245.673L76.5632 245.495L78.9697 243.089L81.3761 240.684L83.7826 238.278L86.1891 235.872L88.5955 233.467L91.002 231.061L93.4085 228.655L95.815 226.25L98.2214 223.844L100.628 221.438L103.034 219.033L105.441 216.627L107.847 214.221L110.254 211.816L112.66 209.41L114.401 207.67C114.296 207.628 114.191 207.581 114.086 207.539L112.089 209.536L109.682 211.942L107.276 214.347L104.869 216.753L102.463 219.159L100.056 221.564L97.65 223.97L95.2435 226.376L92.837 228.781L90.4305 231.187L88.0241 233.592L85.6176 235.998L83.2111 238.404L80.8047 240.809L78.3982 243.215L75.9917 245.621L73.5853 248.026L71.1788 250.432L68.7723 252.838L66.6699 254.939C66.7119 255.049 66.7538 255.154 66.7957 255.259Z" fill="#9A8CF3"/>
<path d="M64.5248 238.267L66.9313 235.862L69.3377 233.456L71.7442 231.05L74.1507 228.645L76.5571 226.239L78.9636 223.833L81.3701 221.428L83.7766 219.022L86.183 216.616L88.5895 214.211L90.996 211.805L93.4024 209.399L95.8089 206.994L97.7173 205.086C97.5548 205.096 97.3923 205.112 97.2297 205.128L95.2374 207.119L92.831 209.525L90.4245 211.931L88.018 214.336L85.6116 216.742L83.2051 219.148L80.7986 221.553L78.3921 223.959L75.9857 226.365L73.5792 228.77L71.1727 231.176L68.7663 233.582L66.3598 235.987L64.2626 238.084C64.2469 238.246 64.2312 238.409 64.2207 238.571L64.5248 238.267Z" fill="#9A8CF3"/>
</g>
<path d="M192.131 171.133H134.748V266.122H192.131V171.133Z" fill="white" stroke="black" stroke-miterlimit="10" stroke-linecap="round" stroke-linejoin="round"/>
<path d="M241.975 187.684H198.811V266.452H241.975V187.684Z" fill="#6E498E"/>
<path d="M291.828 217.242H248.664V266.215H291.828V217.242Z" fill="white" stroke="black" stroke-miterlimit="10" stroke-linecap="round" stroke-linejoin="round"/>
<path d="M66.4531 227.027H35.9082V266.273H66.4531V227.027Z" fill="white" stroke="black" stroke-miterlimit="10" stroke-linecap="round" stroke-linejoin="round"/>
<path d="M27.1641 266.102H336.236" stroke="black" stroke-width="4.0409" stroke-miterlimit="10"/>
<path d="M90.4138 128.793L89.7794 129.427L88.2118 130.994L86.6442 132.561L85.0765 134.128L83.5089 135.695L81.9413 137.263L80.3737 138.83L78.8061 140.397L77.2385 141.964L74.1819 145.019L74.1032 145.098L72.5356 146.665L70.968 148.232L69.4004 149.799L67.8328 151.366L67.125 152.074C67.2246 152.074 67.3242 152.069 67.4238 152.063L68.2103 151.277L69.7779 149.71L71.3455 148.143L72.9131 146.576L74.4807 145.009L76.0483 143.442L77.616 141.875L79.1836 140.308L80.7512 138.741L82.3188 137.173L83.8864 135.606L85.454 134.039L87.0216 132.472L88.5893 130.905L90.1569 129.338L90.4138 129.081C90.4085 128.992 90.4138 128.893 90.4138 128.793Z" fill="#9A8CF3"/>
<path d="M90.3183 130.449L89.773 130.994L88.2054 132.561L86.6378 134.128L85.0702 135.696L82.0136 138.751L81.935 138.83L80.3673 140.397L78.7997 141.964L77.2321 143.531L75.6645 145.098L74.0969 146.665L72.5293 148.232L70.9617 149.799L69.3941 151.366L68.7754 151.985C68.8802 151.974 68.9903 151.969 69.0952 151.953L71.2553 149.794L71.3339 149.715L72.9015 148.148L74.4691 146.581L76.0368 145.014L77.6044 143.447L79.172 141.88L80.7396 140.313L82.3072 138.746L83.8748 137.179L85.4424 135.612L87.0101 134.045L88.5777 132.478L90.1453 130.91L90.2868 130.769C90.3026 130.659 90.3131 130.554 90.3183 130.449Z" fill="#9A8CF3"/>
<path d="M77.6738 149.347C77.8888 149.237 78.0985 149.121 78.3082 149.001L79.1943 148.115L80.7619 146.548L82.3295 144.981L83.8971 143.414L85.4647 141.847L87.0323 140.28L87.3888 139.923C87.5042 139.714 87.6195 139.504 87.7349 139.289L86.6653 140.358L85.0977 141.925L82.0411 144.981L81.9625 145.059L80.3949 146.627L78.8273 148.194L77.6738 149.347Z" fill="#9A8CF3"/>
<path d="M74.8574 150.6C75.0147 150.542 75.1668 150.485 75.324 150.422L76.058 149.688L77.6257 148.121L79.1933 146.554L80.7609 144.987L82.3285 143.42L83.8961 141.853L85.4637 140.285L87.0313 138.718L88.599 137.151L88.8034 136.947C88.8663 136.795 88.924 136.638 88.9817 136.48L88.2267 137.235L86.6591 138.802L85.0915 140.369L83.5239 141.936L81.9563 143.504L80.3886 145.071L78.821 146.638L77.2534 148.205L74.8574 150.6Z" fill="#9A8CF3"/>
<path d="M74.4963 149.689L76.0639 148.122L77.6315 146.555L79.1991 144.988L80.7668 143.421L82.3344 141.854L83.902 140.287L85.4696 138.72L87.0372 137.153L88.6048 135.585L89.5905 134.6C89.6272 134.469 89.6639 134.338 89.6953 134.207L88.2326 135.669L86.665 137.236L85.0973 138.803L83.5297 140.371L81.9621 141.938L80.3945 143.505L78.8269 145.072L77.2593 146.639L75.6917 148.206L74.1241 149.773L72.5879 151.309C72.719 151.277 72.85 151.241 72.9811 151.204L74.4963 149.689Z" fill="#9A8CF3"/>
<path d="M72.9282 149.69L74.4958 148.123L76.0634 146.556L79.12 143.5L79.1986 143.422L80.7662 141.854L82.3338 140.287L85.4638 137.158L87.0314 135.591L88.5991 134.024L90.0461 132.578C90.0671 132.462 90.088 132.347 90.1038 132.227L89.0028 133.322L88.2216 134.103L86.654 135.67L85.0863 137.237L83.5187 138.804L81.9511 140.371L80.3835 141.938L78.8159 143.505L77.2483 145.072L75.6807 146.64L74.113 148.207L72.5454 149.774L70.9778 151.341L70.5898 151.729C70.7052 151.708 70.8205 151.692 70.9411 151.671L71.3553 151.257L72.9282 149.69Z" fill="#9A8CF3"/>
<path d="M51.7731 109.809C50.4467 110.878 49.2356 112.088 48.166 113.414L49.4505 112.13L51.0181 110.563L51.7731 109.809Z" fill="#9A8CF3"/>
<path d="M90.0982 124.41L89.7731 124.735L88.2055 126.302L86.6379 127.869L85.0703 129.436L83.5027 131.003L81.9351 132.571L80.3674 134.138L78.7998 135.705L77.2322 137.272L75.6646 138.839L74.097 140.406L72.5294 141.973L70.9618 143.54L69.3941 145.107L67.8265 146.674L66.2589 148.241L64.6913 149.808L63.1237 151.376L62.7305 151.769C62.8144 151.784 62.893 151.795 62.9769 151.811L65.0635 149.725L66.6312 148.157L68.1988 146.59L71.2554 143.535L71.334 143.456L72.9016 141.889L74.4692 140.322L76.0368 138.755L77.6045 137.188L79.1721 135.621L80.7397 134.054L82.3073 132.487L83.8749 130.92L85.4425 129.352L87.0101 127.785L88.5778 126.218L90.1349 124.662C90.1296 124.578 90.1139 124.494 90.0982 124.41Z" fill="#9A8CF3"/>
<path d="M90.2882 125.789L89.7796 126.297L88.212 127.865L86.6444 129.432L85.0768 130.999L82.728 133.347L81.9468 134.128L80.3792 135.695L78.8116 137.262L77.244 138.829L75.6763 140.396L74.1087 141.963L72.5411 143.53L70.9735 145.097L69.4059 146.664L67.8383 148.231L66.2707 149.798L64.7031 151.366L64.1211 151.947C64.2102 151.958 64.2941 151.963 64.3832 151.974L65.0753 151.282L66.6429 149.715L68.2105 148.148L69.7781 146.58L71.3458 145.013L72.9134 143.446L74.481 141.879L76.0486 140.312L79.1786 137.183L80.7462 135.616L82.3138 134.049L84.8461 131.518L85.4438 130.92L87.0114 129.353L88.579 127.786L90.1466 126.219L90.3092 126.056C90.3039 125.967 90.2987 125.878 90.2882 125.789Z" fill="#9A8CF3"/>
<path d="M90.392 127.246L89.7733 127.865L88.2057 129.432L86.6381 130.999L85.0705 132.566L83.5028 134.133L81.9352 135.7L80.3676 137.267L78.8 138.834L77.2324 140.401L75.6648 141.968L74.0972 143.535L72.5295 145.102L70.9619 146.67L69.3943 148.237L66.2643 151.366L65.5723 152.057C65.6666 152.063 65.7558 152.063 65.8501 152.068L66.6366 151.282L68.2042 149.715L69.7718 148.148L71.3394 146.58L72.907 145.013L74.4746 143.446L76.0422 141.879L77.6099 140.312L79.1775 138.745L80.7451 137.178L82.3127 135.611L83.8803 134.044L85.4479 132.477L87.0156 130.91L88.5832 129.343L90.1508 127.775L90.4077 127.519C90.4024 127.43 90.3972 127.34 90.392 127.246Z" fill="#9A8CF3"/>
<path d="M88.2682 118.418L88.2105 118.476L86.6429 120.043L85.0753 121.61L83.5077 123.177L81.9401 124.744L80.3725 126.311L78.8048 127.878L77.2372 129.445L75.6696 131.012L74.102 132.579L72.5344 134.146L70.9668 135.714L69.3992 137.281L67.8316 138.848L66.2639 140.415L64.6963 141.982L63.1287 143.549L61.5611 145.116L59.9935 146.683L58.4259 148.25L56.8582 149.817L56.7324 149.943C56.8006 149.975 56.8635 150.006 56.9316 150.032L57.1571 149.807L57.2357 149.728L58.8034 148.161L60.371 146.594L61.9386 145.027L63.5062 143.46L65.0738 141.893L66.6414 140.326L68.209 138.759L69.7766 137.192L71.3443 135.624L72.9119 134.057L74.4795 132.49L76.0471 130.923L77.6147 129.356L79.1823 127.789L80.75 126.222L82.3176 124.655L83.8852 123.088L85.4528 121.521L87.0204 119.954L88.3626 118.612C88.3259 118.549 88.2997 118.481 88.2682 118.418Z" fill="#9A8CF3"/>
<path d="M88.8193 119.721C88.7931 119.653 88.7668 119.585 88.7354 119.512L88.2111 120.036L86.6435 121.603L85.0759 123.17L83.5083 124.737L81.9406 126.304L80.373 127.871L78.8054 129.438L77.2378 131.005L74.889 133.353L74.1078 134.134L72.5402 135.701L70.9726 137.268L69.405 138.836L67.8374 140.403L66.2697 141.97L64.7021 143.537L63.1345 145.104L61.5669 146.671L59.9993 148.238L58.4317 149.805L57.834 150.403C57.9021 150.429 57.9703 150.455 58.0437 150.487L58.8039 149.727L60.3715 148.159L61.9391 146.592L65.0691 143.463L66.6367 141.896L68.2044 140.329L71.3343 137.2L72.902 135.633L74.4696 134.066L76.0372 132.499L77.6048 130.932L79.1724 129.365L80.74 127.798L82.3076 126.231L83.8753 124.664L85.4429 123.097L87.0105 121.53L88.5781 119.962L88.8193 119.721Z" fill="#9A8CF3"/>
<path d="M86.6021 115.391L85.0816 116.911L83.514 118.478L81.9464 120.045L80.3788 121.612L78.8112 123.179L77.2436 124.746L75.6759 126.313L74.1083 127.88L72.5407 129.447L70.9731 131.014L69.4055 132.581L67.8379 134.148L66.2703 135.716L64.7026 137.283L63.135 138.85L61.5674 140.417L59.9998 141.984L58.4322 143.551L56.8646 145.118L55.297 146.685L53.7293 148.252L53.7031 148.278C53.7608 148.315 53.8185 148.357 53.8761 148.394L54.0963 148.174L55.664 146.607L57.2316 145.039L58.7992 143.472L60.3668 141.905L61.9344 140.338L65.0644 137.209L66.632 135.642L68.1996 134.075L70.7319 131.544L71.3296 130.946L72.8972 129.379L74.4648 127.812L76.0325 126.245L77.6001 124.678L79.1677 123.111L80.7353 121.544L82.3029 119.977L83.8705 118.409L85.4381 116.842L86.7017 115.579C86.6755 115.506 86.6388 115.448 86.6021 115.391Z" fill="#9A8CF3"/>
<path d="M87.3034 116.543C87.2667 116.48 87.2353 116.422 87.1986 116.359L86.6481 116.91L85.0804 118.477L83.5128 120.044L81.9452 121.611L80.3776 123.178L78.81 124.745L77.2424 126.312L75.6748 127.879L74.1071 129.446L72.5395 131.013L70.9719 132.581L69.4043 134.148L67.8367 135.715L66.2691 137.282L64.7015 138.849L63.1338 140.416L61.5662 141.983L59.9986 143.55L58.431 145.117L56.8634 146.684L55.2958 148.251L54.6719 148.875C54.7348 148.912 54.7925 148.948 54.8554 148.98L55.668 148.167L57.2356 146.6L58.8032 145.033L60.3709 143.466L61.9385 141.899L63.5061 140.332L65.0737 138.765L66.6413 137.198L68.2089 135.631L69.7765 134.064L71.3442 132.497L72.9118 130.93L74.4794 129.363L76.047 127.795L77.6146 126.228L79.1822 124.661L80.7498 123.094L82.3175 121.527L83.8851 119.96L85.4527 118.393L87.0203 116.826L87.3034 116.543Z" fill="#9A8CF3"/>
<path d="M84.7147 112.868C84.6727 112.816 84.6255 112.763 84.5836 112.711L83.514 113.78L81.9464 115.347L80.3788 116.914L78.8112 118.481L77.2436 120.048L75.676 121.616L74.1084 123.183L72.5407 124.75L70.9731 126.317L69.4055 127.884L67.8379 129.451L66.2703 131.018L64.7027 132.585L63.1351 134.152L61.5674 135.719L59.9998 137.286L58.4322 138.853L56.8646 140.421L55.297 141.988L52.167 145.117L51.0293 146.254C51.0817 146.301 51.1342 146.343 51.1866 146.385L52.5392 145.033L54.1069 143.466L55.6745 141.899L57.2421 140.331L58.8097 138.764L60.3773 137.197L61.9449 135.63L63.5125 134.063L65.0802 132.496L66.6478 130.929L68.2154 129.362L69.783 127.795L71.3506 126.228L72.9182 124.661L74.4858 123.094L76.0535 121.526L77.6211 119.959L79.1887 118.392L80.7563 116.825L82.3239 115.258L83.8915 113.691L84.7147 112.868Z" fill="#9A8CF3"/>
<path d="M83.9743 112.045C83.9271 111.998 83.8799 111.946 83.8328 111.898L83.5129 112.218L81.9453 113.785L80.3777 115.352L78.8101 116.919L77.2425 118.486L75.6749 120.054L74.1073 121.621L72.5396 123.188L70.972 124.755L69.4044 126.322L67.8368 127.889L66.2692 129.456L64.7016 131.023L63.134 132.59L61.5663 134.157L59.9987 135.724L58.4311 137.291L56.8635 138.859L55.2959 140.426L53.7283 141.993L52.1607 143.56L50.593 145.127L50.2051 145.515C50.2523 145.562 50.3047 145.609 50.3519 145.656L50.9653 145.043L52.5329 143.476L54.1005 141.909L55.6681 140.342L57.2357 138.775L58.8034 137.208L60.371 135.641L61.9386 134.073L64.9532 131.06L65.0686 130.945L66.6362 129.377L68.2038 127.81L69.7714 126.243L71.339 124.676L72.9066 123.109L74.4743 121.542L76.0419 119.975L77.6095 118.408L79.1771 116.841L80.7447 115.274L82.3123 113.707L83.8799 112.14L83.9743 112.045Z" fill="#9A8CF3"/>
<path d="M85.4175 113.729C85.3755 113.676 85.3336 113.619 85.2916 113.566L85.0819 113.776L83.5143 115.343L81.9467 116.91L80.3791 118.477L78.8115 120.044L77.2439 121.611L75.6762 123.179L74.1086 124.746L72.541 126.313L70.9734 127.88L69.4058 129.447L67.8382 131.014L66.2706 132.581L64.7029 134.148L63.1353 135.715L60.0787 138.771L60.0001 138.849L58.4325 140.416L56.8649 141.984L55.2973 143.551L53.7296 145.118L52.162 146.685L51.8789 146.968C51.9313 147.01 51.989 147.052 52.0414 147.094L52.5343 146.601L54.1019 145.034L55.6695 143.467L57.2371 141.9L58.8047 140.333L60.3723 138.766L61.94 137.198L63.5076 135.631L65.0752 134.064L66.6428 132.497L68.2104 130.93L69.778 129.363L71.3456 127.796L72.9133 126.229L74.4809 124.662L76.0485 123.095L77.6161 121.528L79.1837 119.961L80.7513 118.393L82.3189 116.826L83.8866 115.259L85.4175 113.729Z" fill="#9A8CF3"/>
<path d="M83.1995 111.255C83.1524 111.208 83.1052 111.16 83.0527 111.113L81.9517 112.214L80.3841 113.781L78.8165 115.348L77.2489 116.915L75.6813 118.482L74.1137 120.049L72.5461 121.616L70.9784 123.183L69.4108 124.751L67.8432 126.318L66.2756 127.885L64.708 129.452L63.1404 131.019L60.7916 133.367L60.0104 134.148L58.4428 135.715L56.8752 137.282L55.3075 138.849L53.7399 140.416L52.1723 141.983L50.6047 143.55L49.4355 144.719C49.4827 144.766 49.5299 144.819 49.5771 144.866L50.9769 143.466L52.5446 141.899L54.1122 140.332L57.2422 137.203L58.8098 135.636L60.3774 134.069L61.945 132.502L63.5126 130.935L65.0802 129.368L66.6478 127.801L68.2155 126.234L69.7831 124.667L71.3507 123.1L72.9183 121.533L74.4859 119.965L76.0535 118.398L77.6211 116.831L79.1888 115.264L80.7564 113.697L82.324 112.13L83.1995 111.255Z" fill="#9A8CF3"/>
<path d="M69.4267 105.956L67.859 107.523L66.2914 109.09L64.7238 110.657L63.1562 112.224L61.5886 113.791L60.021 115.359L58.4534 116.926L56.8858 118.493L55.3181 120.06L53.7505 121.627L52.1829 123.194L50.6153 124.761L49.0477 126.328L47.4801 127.895L45.9125 129.462L44.3448 131.029L43.1914 132.182C43.2071 132.266 43.2176 132.35 43.2334 132.429L44.7171 130.945L46.2847 129.378L47.8523 127.811L49.4199 126.244L50.9875 124.677L52.5552 123.11L54.1228 121.543L55.6904 119.976L57.258 118.409L58.8256 116.842L60.3932 115.275L61.9608 113.708L63.5285 112.14L65.0961 110.573L66.6637 109.006L68.2313 107.439L69.7989 105.872L70.7584 104.913C70.6745 104.897 70.5958 104.887 70.5119 104.871L69.4267 105.956Z" fill="#9A8CF3"/>
<path d="M67.8587 105.955L66.2911 107.522L64.7235 109.089L63.1559 110.656L61.5883 112.223L60.0207 113.79L58.4531 115.357L56.8855 116.924L55.3178 118.491L53.7502 120.059L52.1826 121.626L50.615 123.193L49.0474 124.76L47.4798 126.327L45.9122 127.894L44.3445 129.461L43.0391 130.766C43.0495 130.855 43.06 130.939 43.0705 131.023L43.1859 130.908L44.7535 129.341L46.3211 127.773L47.8887 126.206L49.4563 124.639L51.0239 123.072L52.5915 121.505L54.1592 119.938L55.7268 118.371L57.2944 116.804L58.862 115.237L60.4296 113.67L61.9972 112.103L63.5648 110.536L65.1325 108.968L66.7001 107.401L68.2677 105.834L69.4264 104.676C69.3425 104.665 69.2533 104.655 69.1695 104.645L67.8587 105.955Z" fill="#9A8CF3"/>
<path d="M66.2966 105.955L64.729 107.522L63.1614 109.089L61.5937 110.656L60.0261 112.224L58.4585 113.791L56.8909 115.358L55.3233 116.925L53.7557 118.492L52.1881 120.059L50.6204 121.626L49.0528 123.193L47.4852 124.76L45.9176 126.327L44.35 127.894L42.9082 129.336C42.9134 129.43 42.9134 129.519 42.9187 129.613L43.1546 129.378L44.7222 127.811L46.2898 126.243L47.8575 124.676L49.4251 123.109L50.9927 121.542L52.5603 119.975L54.1279 118.408L55.6955 116.841L57.2631 115.274L58.8308 113.707L60.3984 112.14L61.966 110.573L63.5336 109.006L65.1012 107.438L66.6688 105.871L67.9481 104.593C67.8537 104.587 67.7646 104.582 67.6702 104.582L66.2966 105.955Z" fill="#9A8CF3"/>
<path d="M64.7285 105.957L63.1608 107.524L61.5932 109.091L60.0256 110.658L58.458 112.225L56.8904 113.792L55.3228 115.359L53.7552 116.926L52.1875 118.493L50.6199 120.06L49.0523 121.627L47.4847 123.195L45.9171 124.762L44.3495 126.329L42.892 127.786C42.892 127.885 42.8867 127.98 42.8867 128.079L43.1541 127.812L44.7217 126.245L46.2893 124.678L47.8569 123.111L49.4246 121.544L50.9922 119.977L52.5598 118.409L54.1274 116.842L55.695 115.275L57.2626 113.708L58.8302 112.141L60.3979 110.574L61.9655 109.007L63.5331 107.44L65.1007 105.873L66.4114 104.563C66.3118 104.563 66.2174 104.562 66.1178 104.568L64.7285 105.957Z" fill="#9A8CF3"/>
<path d="M61.5986 105.956L60.031 107.523L58.4633 109.09L56.8957 110.657L55.3281 112.225L53.7605 113.792L52.1929 115.359L50.6253 116.926L49.0577 118.493L47.49 120.06L45.9224 121.627L44.3548 123.194L43.2276 124.321C43.2066 124.436 43.1857 124.552 43.1699 124.667L44.7271 123.11L46.2947 121.543L47.8623 119.976L49.4299 118.409L50.9975 116.842L52.5651 115.275L54.1327 113.708L55.7004 112.141L57.268 110.574L58.8356 109.007L60.4032 107.439L61.9708 105.872L63.0037 104.84C62.8883 104.856 62.773 104.877 62.6576 104.897L61.5986 105.956Z" fill="#9A8CF3"/>
<path d="M61.9702 151.249L63.5378 149.682L65.1054 148.115L66.6731 146.548L68.2407 144.981L69.8083 143.414L71.3759 141.847L72.9435 140.279L74.5111 138.712L76.0787 137.145L77.6464 135.578L79.214 134.011L80.7816 132.444L82.3492 130.877L83.9168 129.31L85.4844 127.743L87.052 126.176L88.6197 124.609L89.9304 123.298C89.9146 123.22 89.8989 123.141 89.8779 123.062L89.8098 123.131L88.2422 124.698L86.6746 126.265L85.1069 127.832L83.5393 129.399L81.9717 130.966L80.4041 132.533L78.8365 134.1L77.2689 135.667L74.2123 138.723L74.1336 138.801L72.566 140.369L70.9984 141.936L69.4308 143.503L67.8632 145.07L66.2956 146.637L64.728 148.204L63.1603 149.771L61.5927 151.338L61.4512 151.48C61.5298 151.495 61.6085 151.516 61.6871 151.532L61.9702 151.249Z" fill="#9A8CF3"/>
<path d="M61.9706 149.688L63.5382 148.121L65.1058 146.554L66.6734 144.987L68.241 143.42L69.8087 141.853L71.3763 140.286L72.9439 138.719L74.5115 137.152L76.0791 135.585L77.6467 134.018L79.2143 132.451L80.782 130.883L82.3496 129.316L83.9172 127.749L85.4848 126.182L87.0524 124.615L88.62 123.048L89.6267 122.042C89.6057 121.968 89.5847 121.89 89.5637 121.816L88.2425 123.137L86.6749 124.704L85.1073 126.271L83.5397 127.838L81.9721 129.405L80.4045 130.973L78.8369 132.54L77.2692 134.107L75.7016 135.674L74.134 137.241L72.5664 138.808L70.9988 140.375L69.4312 141.942L66.3012 145.071L64.7336 146.638L63.166 148.205L60.209 151.161C60.2824 151.182 60.361 151.203 60.4344 151.224L61.9706 149.688Z" fill="#9A8CF3"/>
<path d="M60.4037 149.687L61.9714 148.12L63.539 146.553L65.1066 144.986L66.6742 143.418L68.2418 141.851L69.8094 140.284L71.377 138.717L72.9447 137.15L74.5123 135.583L76.0799 134.016L78.6122 131.485L79.2099 130.887L80.7775 129.32L82.3451 127.753L83.9127 126.186L85.4803 124.619L87.0479 123.052L88.6156 121.485L89.2604 120.84C89.2342 120.767 89.2132 120.693 89.187 120.625L88.2381 121.574L86.6705 123.141L85.1028 124.708L83.5352 126.275L81.9676 127.842L80.4 129.409L78.8324 130.976L77.2648 132.543L75.6972 134.11L74.1295 135.677L72.5619 137.244L70.9943 138.812L69.4267 140.379L67.8591 141.946L66.2915 143.513L64.7239 145.08L63.1562 146.647L61.5886 148.214L60.021 149.781L59.0039 150.798C59.0773 150.824 59.1507 150.845 59.2189 150.871L60.4037 149.687Z" fill="#9A8CF3"/>
<path d="M58.8312 105.883C58.6792 105.935 58.5324 105.988 58.3803 106.045L56.9018 107.523L55.3342 109.09L53.7666 110.657L52.199 112.225L50.6314 113.792L49.0638 115.359L47.4962 116.926L45.9285 118.493L44.3871 120.034C44.3295 120.186 44.277 120.332 44.2246 120.484L44.7384 119.971L46.306 118.404L47.8736 116.837L49.4413 115.27L51.0089 113.703L52.5765 112.135L54.1441 110.568L55.7117 109.001L57.2793 107.434L58.8312 105.883Z" fill="#9A8CF3"/>
<path d="M57.2732 148.121L58.8408 146.554L60.4084 144.987L61.976 143.42L63.5437 141.852L65.1113 140.285L66.6789 138.718L68.2465 137.151L69.8141 135.584L71.3817 134.017L72.9493 132.45L74.517 130.883L76.0846 129.316L77.6522 127.749L79.2198 126.182L80.7874 124.615L82.355 123.047L83.9226 121.48L85.4903 119.913L87.0579 118.346L87.8915 117.513C87.86 117.45 87.8286 117.387 87.7919 117.324L86.6856 118.43L85.118 119.997L83.5504 121.564L81.9828 123.131L80.4152 124.698L78.8476 126.266L77.2799 127.833L75.7123 129.4L74.1447 130.967L72.5771 132.534L71.0095 134.101L69.4419 135.668L66.3119 138.797L64.7443 140.364L63.1767 141.931L60.1201 144.987L60.0414 145.065L58.4738 146.632L56.9062 148.199L55.7266 149.379C55.7895 149.41 55.8524 149.447 55.9153 149.478L57.2732 148.121Z" fill="#9A8CF3"/>
<path d="M55.5325 107.324L55.3332 107.523L53.7656 109.09L52.198 110.657L50.6304 112.224L49.0628 113.791L47.4952 115.358L45.9276 116.925L45.6654 117.187C45.5606 117.381 45.4609 117.58 45.3613 117.779L46.2998 116.841L47.8674 115.274L49.435 113.707L51.0026 112.14L52.5703 110.573L54.1379 109.006L55.7055 107.439L56.1249 107.02C55.9257 107.119 55.7317 107.219 55.5325 107.324Z" fill="#9A8CF3"/>
<path d="M54.1435 146.554L57.2001 143.498L57.2787 143.42L58.8463 141.852L60.4139 140.285L61.9815 138.718L63.5492 137.151L65.1168 135.584L66.6844 134.017L68.252 132.45L69.8196 130.883L71.3872 129.316L72.9548 127.749L74.5224 126.182L76.0901 124.615L77.6577 123.047L79.2253 121.48L80.7929 119.913L82.3605 118.346L83.9281 116.779L85.4958 115.212L86.1301 114.578C86.0882 114.52 86.0515 114.468 86.0096 114.41L85.1235 115.296L83.5559 116.863L81.9883 118.43L80.4207 119.997L78.853 121.564L77.2854 123.131L75.7178 124.698L74.1502 126.265L72.5826 127.833L71.015 129.4L69.4474 130.967L66.3174 134.096L64.7498 135.663L63.1822 137.23L61.6145 138.797L60.0469 140.364L58.4793 141.931L56.9117 143.498L55.3441 145.065L53.7765 146.632L52.8223 147.586C52.8799 147.628 52.9324 147.665 52.99 147.707L54.1435 146.554Z" fill="#9A8CF3"/>
<path d="M48.7227 143.859C48.7698 143.912 48.8118 143.959 48.859 144.011L49.4462 143.424L51.0138 141.857L52.5814 140.29L54.149 138.723L55.7166 137.156L57.2842 135.589L58.8519 134.022L60.4195 132.455L61.9871 130.888L63.5547 129.321L65.1223 127.753L66.6899 126.186L68.2575 124.619L69.8252 123.052L71.3928 121.485L72.9604 119.918L74.528 118.351L76.0956 116.784L77.6632 115.217L79.2308 113.65L80.7985 112.083L82.3661 110.516L82.429 110.453C82.3766 110.406 82.3294 110.364 82.2769 110.316L81.9938 110.599L80.4262 112.167L78.8586 113.734L77.291 115.301L75.7234 116.868L74.1558 118.435L72.5881 120.002L71.0205 121.569L69.4529 123.136L67.8853 124.703L66.3177 126.27L64.7501 127.837L63.1825 129.404L61.6148 130.972L60.0472 132.539L58.4796 134.106L56.912 135.673L55.3444 137.24L53.7768 138.807L52.2092 140.374L50.6415 141.941L49.0739 143.508L48.7227 143.859Z" fill="#9A8CF3"/>
<path d="M47.3438 142.116C47.3857 142.174 47.4224 142.226 47.4643 142.284L47.8838 141.865L49.4514 140.297L51.019 138.73L52.5866 137.163L54.1542 135.596L55.7218 134.029L57.2894 132.462L58.8571 130.895L60.4247 129.328L61.9923 127.761L63.5599 126.194L65.1275 124.627L66.6951 123.06L68.2627 121.492L69.8304 119.925L71.398 118.358L72.9656 116.791L74.5332 115.224L76.1008 113.657L77.6684 112.09L79.2361 110.523L80.6936 109.066C80.6359 109.024 80.5835 108.982 80.5258 108.945L80.4262 109.045L78.8586 110.612L77.2909 112.179L75.7233 113.746L74.1557 115.313L72.5881 116.88L71.0205 118.447L69.4529 120.014L67.8853 121.582L66.3176 123.149L64.75 124.716L63.1824 126.283L61.6148 127.85L60.0472 129.417L58.4796 130.984L56.912 132.551L55.3443 134.118L53.7767 135.685L52.2091 137.252L50.6415 138.819L49.0739 140.387L47.5063 141.954L47.3438 142.116Z" fill="#9A8CF3"/>
<path d="M47.8841 140.297L51.0141 137.169L52.5817 135.601L54.1493 134.034L56.6816 131.503L57.2793 130.905L58.8469 129.338L60.4145 127.771L61.9821 126.204L63.5498 124.637L65.1174 123.07L66.685 121.503L68.2526 119.936L69.8202 118.369L71.3878 116.802L72.9554 115.235L74.5231 113.668L76.0907 112.1L77.6583 110.533L79.2259 108.966L79.7607 108.432C79.703 108.395 79.6453 108.353 79.5877 108.316L78.8537 109.05L77.2861 110.617L75.7184 112.184L74.1508 113.751L72.5832 115.318L71.0156 116.886L69.448 118.453L67.8804 120.02L66.3127 121.587L64.7451 123.154L63.1775 124.721L61.6099 126.288L60.0423 127.855L58.4747 129.422L56.9071 130.989L55.3394 132.556L53.7718 134.123L52.2042 135.691L50.6366 137.258L49.069 138.825L47.5014 140.392L46.6992 141.194C46.7359 141.251 46.7779 141.309 46.8146 141.367L47.8841 140.297Z" fill="#9A8CF3"/>
<path d="M48.1446 143.168L49.4501 141.863L51.0177 140.296L52.5853 138.729L54.153 137.162L55.7206 135.595L57.2882 134.028L58.8558 132.46L60.4234 130.893L61.991 129.326L63.5586 127.759L65.1263 126.192L66.6939 124.625L68.2615 123.058L69.8291 121.491L71.3967 119.924L72.9643 118.357L74.5319 116.79L76.0996 115.223L77.6672 113.655L79.2348 112.088L80.8024 110.521L81.5836 109.74C81.5312 109.698 81.4787 109.657 81.4263 109.609L80.4354 110.6L78.8678 112.167L77.3002 113.734L75.7326 115.301L74.1649 116.868L72.5973 118.435L71.0297 120.002L69.4621 121.57L67.8945 123.137L66.3269 124.704L64.7593 126.271L63.1916 127.838L61.624 129.405L60.0564 130.972L58.4888 132.539L56.9212 134.106L55.3536 135.673L52.2236 138.802L50.656 140.369L49.0884 141.936L48.0293 142.995C48.0555 143.058 48.0975 143.11 48.1446 143.168Z" fill="#9A8CF3"/>
<path d="M45.9427 138.818L45.5547 139.205C45.5861 139.268 45.6228 139.331 45.6543 139.394L46.3149 138.734L47.8825 137.167L49.4501 135.6L51.0177 134.033L52.5854 132.465L54.153 130.898L55.7206 129.331L57.2882 127.764L58.8558 126.197L60.4234 124.63L61.991 123.063L63.5587 121.496L65.1263 119.929L66.6939 118.362L68.2615 116.795L69.8291 115.228L71.3967 113.66L72.9643 112.093L74.532 110.526L76.0996 108.959L77.6672 107.392L77.7983 107.256C77.7353 107.224 77.6724 107.188 77.6095 107.156L77.2897 107.476L75.7221 109.043L74.1545 110.61L72.5869 112.177L71.0192 113.744L69.4516 115.311L67.884 116.878L66.3164 118.446L64.7488 120.013L63.1812 121.58L61.6136 123.147L60.0459 124.714L58.4783 126.281L56.9107 127.848L55.3431 129.415L53.7755 130.982L52.2079 132.549L50.6403 134.116L49.0726 135.683L46.0161 138.739L45.9427 138.818Z" fill="#9A8CF3"/>
<path d="M46.3156 137.169L47.8833 135.602L49.4509 134.034L51.0185 132.467L52.5861 130.9L54.1537 129.333L55.7213 127.766L57.2889 126.199L58.8566 124.632L60.4242 123.065L61.9918 121.498L63.5594 119.931L65.127 118.364L66.6946 116.797L68.2622 115.229L69.8299 113.662L71.3975 112.095L72.9651 110.528L74.5327 108.961L76.1003 107.394L76.7557 106.739C76.6928 106.707 76.6246 106.676 76.5564 106.645L75.7281 107.473L74.1605 109.04L72.5929 110.607L71.0252 112.174L69.4576 113.741L67.89 115.308L66.3224 116.875L64.7548 118.442L63.1872 120.009L61.6195 121.576L60.0519 123.143L58.4843 124.711L56.9167 126.278L55.3491 127.845L53.7815 129.412L52.2139 130.979L50.6462 132.546L49.0786 134.113L47.511 135.68L45.9434 137.247L45.0469 138.143C45.0783 138.212 45.1098 138.274 45.1412 138.343L46.3156 137.169Z" fill="#9A8CF3"/>
<path d="M46.2207 140.397L46.3151 140.303L47.8827 138.735L49.4503 137.168L51.0179 135.601L52.5855 134.034L54.1532 132.467L55.7208 130.9L57.2884 129.333L58.856 127.766L60.4236 126.199L61.9912 124.632L63.5588 123.065L65.1265 121.498L66.6941 119.93L68.2617 118.363L69.8293 116.796L71.3969 115.229L72.9645 113.662L74.5321 112.095L76.0997 110.528L77.6674 108.961L78.8051 107.824C78.7421 107.787 78.6845 107.75 78.6216 107.719L77.2951 109.045L75.7275 110.612L74.1599 112.179L72.5923 113.746L71.0247 115.313L69.457 116.88L67.8894 118.447L66.3218 120.014L64.7542 121.581L63.1866 123.148L61.619 124.716L60.0514 126.283L58.4838 127.85L56.9161 129.417L55.3485 130.984L52.2185 134.113L50.6509 135.68L49.0833 137.247L47.5157 138.814L46.1211 140.208C46.1473 140.276 46.184 140.334 46.2207 140.397Z" fill="#9A8CF3"/>
<path d="M44.7538 121.523L46.3214 119.955L47.889 118.388L49.4566 116.821L51.0242 115.254L52.5918 113.687L54.1594 112.12L55.7271 110.553L57.2947 108.986L58.8623 107.419L60.4299 105.852L61.0748 105.207C60.9489 105.238 60.8179 105.27 60.692 105.301L60.0577 105.936L58.49 107.503L56.9224 109.07L55.3548 110.637L53.7872 112.204L52.2196 113.771L50.652 115.338L49.0844 116.905L47.5167 118.472L45.9491 120.039L44.3815 121.606L43.6842 122.303C43.6528 122.429 43.6213 122.56 43.5898 122.686L44.7538 121.523Z" fill="#9A8CF3"/>
<path d="M44.7525 132.476L46.3201 130.909L47.8878 129.342L49.4554 127.775L51.023 126.207L52.5906 124.64L54.1582 123.073L55.7258 121.506L57.2934 119.939L58.8611 118.372L60.4287 116.805L61.9963 115.238L63.5639 113.671L65.1315 112.104L66.6991 110.537L68.2667 108.97L69.8344 107.402L71.402 105.835L72.0993 105.138C72.0206 105.123 71.942 105.102 71.8633 105.086L71.0297 105.919L69.4621 107.486L67.8945 109.053L66.3269 110.621L64.7593 112.188L63.1917 113.755L61.624 115.322L60.0564 116.889L58.4888 118.456L56.9212 120.023L55.3536 121.59L53.786 123.157L52.2184 124.724L50.6507 126.291L49.0831 127.858L47.5155 129.426L45.9479 130.993L44.3803 132.56L43.4785 133.461C43.4942 133.54 43.51 133.618 43.5309 133.697L44.7525 132.476Z" fill="#9A8CF3"/>
<path d="M44.2336 136.126L44.7526 135.607L46.3202 134.04L47.8878 132.473L49.4554 130.906L51.0231 129.339L52.5907 127.772L54.1583 126.205L55.7259 124.637L57.2935 123.07L58.8611 121.503L60.4287 119.936L61.9964 118.369L63.564 116.802L65.1316 115.235L66.6992 113.668L68.2668 112.101L69.8344 110.534L71.402 108.967L72.9697 107.4L74.5268 105.843C74.4534 105.817 74.3852 105.79 74.3118 105.77L74.1598 105.922L72.5922 107.489L71.0246 109.056L69.4569 110.623L67.8893 112.19L66.3217 113.757L64.7541 115.324L63.1865 116.891L61.6189 118.458L60.0513 120.025L58.4836 121.592L56.916 123.159L55.3484 124.727L53.7808 126.294L52.2132 127.861L50.6456 129.428L49.078 130.995L46.7292 133.343L45.948 134.124L44.3804 135.691L44.1602 135.911C44.1811 135.979 44.2073 136.052 44.2336 136.126Z" fill="#9A8CF3"/>
<path d="M44.7538 134.037L46.3214 132.47L47.889 130.903L49.4566 129.336L51.0242 127.769L52.5918 126.202L54.1594 124.635L55.7271 123.067L57.2947 121.5L58.8623 119.933L60.4299 118.366L61.9975 116.799L63.5651 115.232L65.1327 113.665L66.7004 112.098L68.268 110.531L69.8356 108.964L71.4032 107.397L72.9708 105.83L73.3431 105.457C73.2697 105.436 73.191 105.415 73.1176 105.395L72.5933 105.919L71.0257 107.486L69.4581 109.053L67.8905 110.62L66.3229 112.187L64.7553 113.754L63.1876 115.321L61.62 116.888L60.0524 118.455L58.4848 120.022L56.9172 121.589L55.3496 123.157L53.782 124.724L52.2143 126.291L50.6467 127.858L49.0791 129.425L47.5115 130.992L45.9439 132.559L44.3763 134.126L43.7891 134.713C43.81 134.787 43.831 134.865 43.852 134.939L44.7538 134.037Z" fill="#9A8CF3"/>
<path d="M44.664 137.258L44.7531 137.169L46.3207 135.602L47.8883 134.035L50.903 131.021L51.0183 130.906L52.5859 129.339L54.1535 127.772L55.7212 126.205L57.2888 124.637L58.8564 123.07L60.424 121.503L61.9916 119.936L63.5592 118.369L65.1268 116.802L66.6945 115.235L68.2621 113.668L69.8297 112.101L71.3973 110.534L72.9649 108.967L74.5325 107.4L75.665 106.267C75.5968 106.241 75.5287 106.21 75.4605 106.184L74.1603 107.483L72.5927 109.05L71.0251 110.618L69.4574 112.185L67.8898 113.752L66.3222 115.319L64.7546 116.886L63.187 118.453L61.6194 120.02L60.0518 121.587L58.4841 123.154L56.9165 124.721L55.3489 126.288L53.7813 127.855L52.2137 129.423L50.6461 130.99L49.0785 132.557L47.5108 134.124L45.9432 135.691L44.5801 137.059C44.6063 137.122 44.6325 137.19 44.664 137.258Z" fill="#9A8CF3"/>
<path d="M43.1862 126.214L44.7538 124.647L46.3214 123.08L47.889 121.513L49.4566 119.946L51.0242 118.379L52.5919 116.812L54.1595 115.245L55.7271 113.678L57.2947 112.111L58.8623 110.544L60.4299 108.977L61.9975 107.409L63.5652 105.842L64.8025 104.605C64.6976 104.616 64.5928 104.626 64.4879 104.632L63.1929 105.926L61.6253 107.493L60.0577 109.06L58.4901 110.627L56.9225 112.195L55.3548 113.762L53.7872 115.329L52.2196 116.896L50.652 118.463L49.0844 120.03L47.5168 121.597L45.9492 123.164L44.3815 124.731L43.0184 126.094C43.0079 126.199 42.9974 126.304 42.9922 126.408L43.1862 126.214Z" fill="#9A8CF3"/>
<path d="M95.2152 154.086C95.2152 154.977 94.4969 155.695 93.6056 155.695C92.7144 155.695 91.9961 154.977 91.9961 154.086C91.9961 153.195 92.7144 152.477 93.6056 152.477C94.4917 152.477 95.2152 153.2 95.2152 154.086Z" stroke="black" stroke-miterlimit="10" stroke-linecap="round" stroke-linejoin="round"/>
<path d="M270.242 64.1438C271.131 64.1438 271.852 63.4234 271.852 62.5348C271.852 61.6462 271.131 60.9258 270.242 60.9258C269.353 60.9258 268.633 61.6462 268.633 62.5348C268.633 63.4234 269.353 64.1438 270.242 64.1438Z" stroke="black" stroke-miterlimit="10" stroke-linecap="round" stroke-linejoin="round"/>
<path d="M301.479 152.476C301.479 154.253 300.037 155.694 298.26 155.694C296.483 155.694 295.041 154.253 295.041 152.476C295.041 150.699 296.483 149.258 298.26 149.258C300.037 149.258 301.479 150.699 301.479 152.476Z" stroke="black" stroke-miterlimit="10" stroke-linecap="round" stroke-linejoin="round"/>
<path d="M132.938 100.201L124.67 90.3633H132.938V100.201Z" stroke="#9A8CF3" stroke-miterlimit="10" stroke-linecap="round" stroke-linejoin="round"/>
<path d="M96.0801 90.3581V64.5195H132.937V84.4671V90.3581V90.3633H124.669L124.664 90.3581H96.0801Z" stroke="black" stroke-miterlimit="10" stroke-linecap="round" stroke-linejoin="round"/>
<path d="M123.987 73.6602H102.848" stroke="black" stroke-miterlimit="10" stroke-linecap="round" stroke-linejoin="round"/>
<path d="M123.987 81.4062H108.064" stroke="black" stroke-miterlimit="10" stroke-linecap="round" stroke-linejoin="round"/>
<path d="M156.411 137.47L121.462 145.075C120.681 145.243 119.884 144.871 119.506 144.163L103.584 108.702C102.708 107.056 100.664 106.433 99.0173 107.303L97.9688 107.858L114.499 149.452L114.526 149.499C115.008 150.405 116.051 150.861 117.042 150.599L159.62 139.504C159.284 138.068 157.858 137.166 156.411 137.47Z" fill="#6E498E"/>
<path d="M99.4889 199.113C99.4889 199.113 96.6368 205.009 94.5187 206.351L88.7043 207.73C85.9728 208.055 85.0605 210.025 85.0605 210.025L100.427 217.132L107.82 202.709L99.4889 199.113Z" fill="black"/>
<path d="M179.118 147.887C179.118 147.887 142.528 149.26 125.363 151.865C120.398 152.619 116.104 155.733 113.792 160.193L93.6016 199.192L111.485 208.594L132.194 171.12L169.848 169.999L179.118 147.887Z" fill="white" stroke="black" stroke-miterlimit="10" stroke-linecap="round" stroke-linejoin="round"/>
<path d="M180.559 139.025C180.082 140.613 179.359 142.128 178.331 143.433C169.764 154.308 152.001 141.016 137.484 141.127C135.481 141.142 133.704 141.179 133.274 141.824C132.55 142.903 131.696 144.46 131.171 144.418C130.569 144.366 131.512 142.248 132.047 140.655C132.047 140.655 130.259 145.063 129.604 144.822C128.812 144.528 130.831 139.507 130.831 139.507C130.831 139.507 128.262 144.649 127.601 143.852C126.941 143.055 129.735 138.48 129.735 138.48C129.735 138.48 127.093 142.557 126.243 142.149C125.556 141.813 127.795 138.71 130.097 136.252C131.46 134.801 133.232 133.8 135.193 133.427C137.064 133.071 139.817 132.851 143.749 133.139C143.749 133.139 158.419 134.774 170.634 136.761L175.369 114.863C175.951 112.17 177.99 109.963 180.68 109.345C182.782 108.862 185.147 109.077 186.699 111.525C187.8 113.265 187.983 115.43 187.364 117.395L180.559 139.025Z" fill="#FFBE9D" stroke="#333333" stroke-width="0.3" stroke-miterlimit="10" stroke-linecap="round" stroke-linejoin="round"/>
<path d="M134.381 207.817C134.381 207.817 138.402 215.201 138.198 217.701L135.802 223.178C134.418 225.558 135.445 227.466 135.445 227.466L150.366 219.468L143.262 204.84L134.381 207.817Z" fill="#333333"/>
<path d="M182.798 143.248C182.798 143.248 131.68 140.224 116.953 154.086C105.083 165.26 131.261 213.274 131.261 213.274L149.889 205.433L134.747 171.592L178.247 171.026C178.247 171.026 195.932 165.973 191.381 143.248H182.798Z" fill="white" stroke="black" stroke-miterlimit="10" stroke-linecap="round" stroke-linejoin="round"/>
<path d="M208.524 108.023C208.524 108.023 209.614 102.431 203.307 100.141C197.661 98.0912 197.136 92.2841 197.136 92.2841C197.136 92.2841 195.333 87.7401 190.242 88.0284C185.151 88.3114 187.71 79.6898 179.038 77.976C177.738 77.7192 176.537 78.238 175.489 79.1133C172.27 81.7967 171.745 86.5504 174.042 90.0514L185.843 108.018H208.524V108.023Z" fill="black" stroke="black" stroke-miterlimit="10" stroke-linecap="round" stroke-linejoin="round"/>
<path d="M175.772 112.85L170.209 98.9869L175.053 92.1211L186.997 109.721L175.772 112.85Z" fill="#FFBE9D" stroke="black" stroke-width="0.3" stroke-miterlimit="10" stroke-linecap="round" stroke-linejoin="round"/>
<path d="M172.365 103.437L174.787 99.543L171.18 100.56L172.365 103.437Z" fill="black" stroke="black" stroke-width="0.3" stroke-miterlimit="10" stroke-linecap="round" stroke-linejoin="round"/>
<path d="M184.47 82.5415C187.453 88.3277 182.283 96.9283 176.134 100.099C169.984 103.27 165.092 101.205 162.77 95.1254C160.604 89.4493 161.784 80.9797 167.928 77.8088C174.078 74.638 181.481 76.7554 184.47 82.5415Z" fill="#FFBE9D" stroke="black" stroke-width="0.3" stroke-miterlimit="10" stroke-linecap="round" stroke-linejoin="round"/>
<path d="M185.078 84.1669C183.133 78.0453 176.946 75.0579 170.277 76.8975C165.029 78.3493 161.648 83.4751 161.291 88.648C161.364 88.669 165.527 88.538 167.305 83.9258C167.305 83.9258 167.797 91.3472 175.63 89.9059L179.111 98.0872C183.746 95.9436 187.238 90.9436 185.078 84.1669Z" fill="black" stroke="black" stroke-width="0.3" stroke-miterlimit="10" stroke-linecap="round" stroke-linejoin="round"/>
<path d="M169 97.0178C169 97.0178 170.684 96.892 170.951 95L169 97.0178Z" fill="white"/>
<path d="M169 97.0178C169 97.0178 170.684 96.892 170.951 95" stroke="black" stroke-width="0.3" stroke-miterlimit="10" stroke-linecap="round" stroke-linejoin="round"/>
<path d="M176.486 95.4904C177.23 95.2755 177.933 94.7672 178.415 94.0177C179.385 92.5187 179.112 90.6267 177.812 89.7829C176.926 89.2116 176.003 89.416 175.201 90.0764" fill="#FEBD9D"/>
<path d="M176.486 95.4904C177.23 95.2755 177.933 94.7672 178.415 94.0177C179.385 92.5187 179.112 90.6267 177.812 89.7829C176.926 89.2116 176.003 89.416 175.201 90.0764" stroke="black" stroke-width="0.3" stroke-miterlimit="10" stroke-linecap="round" stroke-linejoin="round"/>
<path d="M175.49 93.5453C175.49 93.5453 175.852 92.0936 177.132 92.3661L175.49 93.5453Z" fill="#FEBD9D"/>
<path d="M175.49 93.5453C175.49 93.5453 175.852 92.0936 177.132 92.3661" stroke="black" stroke-width="0.3" stroke-miterlimit="10" stroke-linecap="round" stroke-linejoin="round"/>
<path d="M179.946 76.5812C180.071 78.7982 181.969 80.4911 184.182 80.3653C186.399 80.2395 188.093 78.3422 187.967 76.1305C187.841 73.9135 185.943 72.2206 183.731 72.3464C181.518 72.4722 179.825 74.3695 179.946 76.5812Z" fill="black" stroke="black" stroke-miterlimit="10" stroke-linecap="round" stroke-linejoin="round"/>
<path d="M172.983 108.584L184.816 104.359C184.816 104.359 199.004 127.902 199.512 143.557C199.512 143.557 182.798 143.248 168.406 143.086L172.983 108.584Z" fill="#FDD522"/>
<mask id="mask1_3395_28011" style="mask-type:luminance" maskUnits="userSpaceOnUse" x="166" y="101" width="36" height="45">
<path d="M172.647 107.642L172.072 107.847L171.992 108.452L167.415 142.954L167.267 144.073L168.395 144.086C175.588 144.167 183.363 144.285 189.34 144.382C192.328 144.431 194.867 144.475 196.658 144.506C197.554 144.522 198.263 144.535 198.748 144.544L199.303 144.554L199.445 144.556L199.482 144.557L199.491 144.557L199.493 144.557L199.493 144.557C199.494 144.557 199.494 144.557 199.512 143.557L199.494 144.557L200.546 144.577L200.512 143.525C200.25 135.48 196.497 125.522 192.882 117.67C191.065 113.723 189.265 110.27 187.919 107.804C187.246 106.57 186.686 105.582 186.293 104.902C186.097 104.562 185.943 104.298 185.837 104.119C185.784 104.03 185.744 103.961 185.716 103.915L185.684 103.862L185.676 103.848L185.674 103.845L185.673 103.844C185.673 103.843 185.673 103.843 184.816 104.359L185.673 103.843L185.251 103.143L184.48 103.418L172.647 107.642Z" fill="white" stroke="white" stroke-width="2"/>
</mask>
<g mask="url(#mask1_3395_28011)">
<path d="M175.877 115.488H180.643" stroke="white" stroke-miterlimit="10" stroke-linecap="round" stroke-linejoin="round"/>
<path d="M178.262 110.724L182.702 108.879" stroke="white" stroke-miterlimit="10" stroke-linecap="round" stroke-linejoin="round"/>
<path d="M185.738 110.289V115.488" stroke="white" stroke-miterlimit="10" stroke-linecap="round" stroke-linejoin="round"/>
<path d="M183.463 121.765L186.603 118.516" stroke="white" stroke-miterlimit="10" stroke-linecap="round" stroke-linejoin="round"/>
<path d="M177.177 121.117L176.637 125.017" stroke="white" stroke-miterlimit="10" stroke-linecap="round" stroke-linejoin="round"/>
<path d="M181.188 126.535L185.738 127.4" stroke="white" stroke-miterlimit="10" stroke-linecap="round" stroke-linejoin="round"/>
<path d="M189.529 126.967L192.565 123.938" stroke="white" stroke-miterlimit="10" stroke-linecap="round" stroke-linejoin="round"/>
<path d="M183.463 130.977L186.603 133.466" stroke="white" stroke-miterlimit="10" stroke-linecap="round" stroke-linejoin="round"/>
<path d="M186.605 138.738H191.371" stroke="white" stroke-miterlimit="10" stroke-linecap="round" stroke-linejoin="round"/>
<path d="M188.99 133.969L193.431 132.129" stroke="white" stroke-miterlimit="10" stroke-linecap="round" stroke-linejoin="round"/>
<path d="M196.463 133.539V138.738" stroke="white" stroke-miterlimit="10" stroke-linecap="round" stroke-linejoin="round"/>
<path d="M194.191 145.015L197.332 141.766" stroke="white" stroke-miterlimit="10" stroke-linecap="round" stroke-linejoin="round"/>
<path d="M187.905 144.367L187.365 148.267" stroke="white" stroke-miterlimit="10" stroke-linecap="round" stroke-linejoin="round"/>
<path d="M165.172 128.863H169.938" stroke="white" stroke-miterlimit="10" stroke-linecap="round" stroke-linejoin="round"/>
<path d="M167.553 124.099L171.993 122.254" stroke="white" stroke-miterlimit="10" stroke-linecap="round" stroke-linejoin="round"/>
<path d="M172.754 135.148L175.894 131.898" stroke="white" stroke-miterlimit="10" stroke-linecap="round" stroke-linejoin="round"/>
<path d="M166.473 134.496L165.928 138.395" stroke="white" stroke-miterlimit="10" stroke-linecap="round" stroke-linejoin="round"/>
<path d="M170.479 139.91L175.029 140.775" stroke="white" stroke-miterlimit="10" stroke-linecap="round" stroke-linejoin="round"/>
<path d="M178.818 140.347L181.854 137.312" stroke="white" stroke-miterlimit="10" stroke-linecap="round" stroke-linejoin="round"/>
<path d="M172.754 144.352L175.894 146.841" stroke="white" stroke-miterlimit="10" stroke-linecap="round" stroke-linejoin="round"/>
</g>
<path d="M167.127 145.604C166.173 146.961 165.014 148.177 163.63 149.089C152.08 156.72 139.387 138.533 125.572 134.079C123.663 133.465 121.965 132.941 121.357 133.418C120.329 134.22 119.029 135.431 118.546 135.221C117.991 134.985 119.553 133.266 120.56 131.924C120.56 131.924 117.477 135.546 116.932 135.116C116.271 134.587 119.763 130.457 119.763 130.457C119.763 130.457 115.71 134.529 115.333 133.565C114.955 132.601 119.045 129.131 119.045 129.131C119.045 129.131 115.254 132.171 114.578 131.516C114.027 130.981 117.131 128.738 120.088 127.129C121.839 126.175 123.836 125.782 125.813 126.044C127.7 126.296 130.385 126.945 134.029 128.455C134.029 128.455 147.445 134.613 158.413 140.331L169.79 121.028C171.19 118.649 173.822 117.202 176.569 117.459C178.719 117.658 180.895 118.607 181.602 121.421C182.1 123.418 181.592 125.53 180.391 127.202L167.127 145.604Z" fill="#FFBE9D" stroke="#333333" stroke-width="0.3" stroke-miterlimit="10" stroke-linecap="round" stroke-linejoin="round"/>
<path d="M158.869 135.133L172.008 144.415C172.008 144.415 192.974 118.021 183.29 111.648C174.152 105.637 158.869 135.133 158.869 135.133Z" fill="#FDD522" stroke="black" stroke-miterlimit="10" stroke-linecap="round" stroke-linejoin="round"/>
<mask id="mask2_3395_28011" style="mask-type:luminance" maskUnits="userSpaceOnUse" x="158" y="110" width="28" height="35">
<path d="M158.869 135.133L172.008 144.415C172.008 144.415 192.974 118.021 183.29 111.648C174.152 105.637 158.869 135.133 158.869 135.133Z" fill="white"/>
</mask>
<g mask="url(#mask2_3395_28011)">
<path d="M175.877 115.484H180.643" stroke="white" stroke-miterlimit="10" stroke-linecap="round" stroke-linejoin="round"/>
<path d="M178.262 110.72L182.702 108.875" stroke="white" stroke-miterlimit="10" stroke-linecap="round" stroke-linejoin="round"/>
<path d="M185.738 110.285V115.484" stroke="white" stroke-miterlimit="10" stroke-linecap="round" stroke-linejoin="round"/>
<path d="M183.463 121.761L186.603 118.512" stroke="white" stroke-miterlimit="10" stroke-linecap="round" stroke-linejoin="round"/>
<path d="M177.177 121.113L176.637 125.013" stroke="white" stroke-miterlimit="10" stroke-linecap="round" stroke-linejoin="round"/>
<path d="M181.188 126.531L185.738 127.396" stroke="white" stroke-miterlimit="10" stroke-linecap="round" stroke-linejoin="round"/>
<path d="M183.463 130.973L186.603 133.462" stroke="white" stroke-miterlimit="10" stroke-linecap="round" stroke-linejoin="round"/>
<path d="M165.172 128.859H169.938" stroke="white" stroke-miterlimit="10" stroke-linecap="round" stroke-linejoin="round"/>
<path d="M167.553 124.095L171.993 122.25" stroke="white" stroke-miterlimit="10" stroke-linecap="round" stroke-linejoin="round"/>
<path d="M172.754 135.144L175.894 131.895" stroke="white" stroke-miterlimit="10" stroke-linecap="round" stroke-linejoin="round"/>
<path d="M166.473 134.492L165.928 138.392" stroke="white" stroke-miterlimit="10" stroke-linecap="round" stroke-linejoin="round"/>
<path d="M170.479 139.906L175.029 140.771" stroke="white" stroke-miterlimit="10" stroke-linecap="round" stroke-linejoin="round"/>
<path d="M178.818 140.343L181.854 137.309" stroke="white" stroke-miterlimit="10" stroke-linecap="round" stroke-linejoin="round"/>
<path d="M172.754 144.348L175.894 146.837" stroke="white" stroke-miterlimit="10" stroke-linecap="round" stroke-linejoin="round"/>
</g>
<path d="M74.008 89.1267C74.1128 91.024 72.1415 92.7431 70.275 92.3814C68.1045 91.9569 67.0507 89.5303 65.3677 88.0995C64.618 87.46 63.6114 86.9936 62.6572 87.2452C62.2115 87.3605 61.8183 87.6225 61.4723 87.916C60.1668 89.0271 59.4223 90.6466 58.5153 92.1036C57.6031 93.5607 56.3395 94.981 54.6461 95.2588C52.9998 95.5261 51.3431 94.5984 50.2788 93.3091C49.2197 92.0198 48.643 90.4108 48.082 88.8384" stroke="black" stroke-miterlimit="10" stroke-linecap="round" stroke-linejoin="round"/>
<path d="M55.6994 214.475C52.1342 213.752 49.0357 211.042 47.8456 207.599C46.6554 204.16 47.4209 200.114 49.7802 197.347C50.5666 196.425 51.5994 195.602 52.8053 195.486C54.0164 195.371 55.3638 196.22 55.4215 197.431C55.4425 197.903 55.2799 198.369 55.044 198.778C53.2772 201.891 48.1601 201.351 45.9634 198.526C43.7719 195.701 43.8295 191.739 44.5059 188.228C46.582 177.525 53.728 167.918 63.3906 162.855" stroke="black" stroke-miterlimit="10" stroke-linecap="round" stroke-linejoin="round"/>
<path d="M55.0957 161.305C56.6528 161.562 63.3951 162.861 63.3951 162.861V171.939" stroke="black" stroke-miterlimit="10" stroke-linecap="round" stroke-linejoin="round"/>
<path d="M257.25 169.578C263.332 182.068 279.333 188.713 292.477 184.201C294.464 183.519 296.425 182.581 297.835 181.03C299.245 179.479 300.005 177.204 299.319 175.218C298.317 172.319 294.427 171.145 291.638 172.414C288.843 173.687 287.202 176.753 286.862 179.803C286.091 186.758 291.329 193.336 297.772 196.056C304.216 198.781 311.55 198.378 318.445 197.178" stroke="black" stroke-miterlimit="10" stroke-linecap="round" stroke-linejoin="round"/>
<path d="M309.248 191.898L318.449 197.181L311.838 205.289" stroke="black" stroke-miterlimit="10" stroke-linecap="round" stroke-linejoin="round"/>
<path d="M261.24 257.333C271.286 250.687 277.011 238.067 275.391 226.133" stroke="black" stroke-miterlimit="10" stroke-linecap="round" stroke-linejoin="round"/>
<path d="M271.768 230.907L275.39 226.133L279.333 230.603" stroke="black" stroke-miterlimit="10" stroke-linecap="round" stroke-linejoin="round"/>
<path d="M207.811 86.8149C209.75 90.0487 214.574 90.4785 217.877 88.6546C221.18 86.8307 223.251 83.4135 224.955 80.0487C227.623 74.7762 219.937 76.794 223.031 84.2468C224.305 87.3181 226.596 90.4732 229.909 90.7615C234.628 91.1703 237.48 85.9344 240.248 82.0927C242.141 79.467 244.432 74.1735 247.488 73.6598C252.107 72.8842 252.27 79.5875 252.768 81.4271C253.266 83.2667 254.467 85.2112 256.359 85.4365C258.64 85.7038 260.281 83.4554 261.927 81.8569C265.597 78.2982 271.611 77.4387 276.13 79.8233" stroke="black" stroke-miterlimit="10" stroke-linecap="round" stroke-linejoin="round"/>
<g filter="url(#filter0_d_3395_28011)">
<rect x="81.6992" y="38.918" width="66.8632" height="67.4595" rx="33.4316" fill="white"/>
</g>
<g filter="url(#filter1_d_3395_28011)">
<rect x="143.947" y="7.78516" width="49.2791" height="49.2973" rx="24.6396" fill="white"/>
</g>
<g filter="url(#filter2_d_3395_28011)">
<rect x="228" y="91" width="60" height="60.0221" rx="30" fill="white"/>
</g>
<ellipse cx="203.602" cy="220.539" rx="1.2973" ry="1.2973" fill="#D9D9D9"/>
<ellipse cx="212.678" cy="228.325" rx="1.2973" ry="1.2973" fill="#D9D9D9"/>
<ellipse cx="220.459" cy="217.946" rx="1.2973" ry="1.2973" fill="#D9D9D9"/>
<ellipse cx="212.678" cy="208.864" rx="1.2973" ry="1.2973" fill="#D9D9D9"/>
<ellipse cx="207.493" cy="201.082" rx="1.2973" ry="1.2973" fill="#D9D9D9"/>
<ellipse cx="223.053" cy="199.786" rx="1.2973" ry="1.2973" fill="#D9D9D9"/>
<ellipse cx="239.913" cy="203.676" rx="1.2973" ry="1.2973" fill="#D9D9D9"/>
<ellipse cx="233.428" cy="192" rx="1.2973" ry="1.2973" fill="#D9D9D9"/>
<ellipse cx="215.272" cy="194.594" rx="1.2973" ry="1.2973" fill="#D9D9D9"/>
<ellipse cx="201.008" cy="189.407" rx="1.2973" ry="1.2973" fill="#D9D9D9"/>
<ellipse cx="221.756" cy="234.809" rx="1.2973" ry="1.2973" fill="#D9D9D9"/>
<ellipse cx="237.319" cy="236.11" rx="1.2973" ry="1.2973" fill="#D9D9D9"/>
<ellipse cx="229.538" cy="225.731" rx="1.2973" ry="1.2973" fill="#D9D9D9"/>
<ellipse cx="239.913" cy="217.946" rx="1.2973" ry="1.2973" fill="#D9D9D9"/>
<ellipse cx="233.428" cy="212.758" rx="1.2973" ry="1.2973" fill="#D9D9D9"/>
<ellipse cx="229.538" cy="243.891" rx="1.2973" ry="1.2973" fill="#D9D9D9"/>
<ellipse cx="211.381" cy="242.594" rx="1.2973" ry="1.2973" fill="#D9D9D9"/>
<ellipse cx="204.899" cy="236.11" rx="1.2973" ry="1.2973" fill="#D9D9D9"/>
<ellipse cx="201.008" cy="250.379" rx="1.2973" ry="1.2973" fill="#D9D9D9"/>
<ellipse cx="217.866" cy="252.973" rx="1.2973" ry="1.2973" fill="#D9D9D9"/>
<ellipse cx="207.493" cy="260.758" rx="1.2973" ry="1.2973" fill="#D9D9D9"/>
<ellipse cx="232.131" cy="258.161" rx="1.2973" ry="1.2973" fill="#D9D9D9"/>
<ellipse cx="238.616" cy="249.082" rx="1.2973" ry="1.2973" fill="#D9D9D9"/>
<path d="M106.227 50H119.604V55.2552C119.929 60.1928 120.941 62.1824 126.77 61.9436H132.025V83.9198C132.286 91.4484 130.055 92.9245 123.903 92.9969H107.182C101.646 93.0783 99.8051 91.5825 100.016 84.6364V55.7329C100.16 52.1059 100.666 50.3338 106.227 50Z" fill="#E9E4E4"/>
<path d="M130.591 60.0291L121.514 51.4297V55.2516C121.274 59.8024 124.535 59.945 130.591 60.0291Z" fill="#E9E4E4"/>
<rect x="100" y="71.5039" width="29.6052" height="12.9328" fill="#6DCDCB"/>
<path d="M110.789 79.2393H111.727C111.678 79.6885 111.549 80.0905 111.341 80.4453C111.133 80.8001 110.838 81.0817 110.457 81.29C110.076 81.4951 109.601 81.5977 109.031 81.5977C108.615 81.5977 108.236 81.5195 107.894 81.3633C107.555 81.207 107.264 80.9857 107.02 80.6992C106.776 80.4095 106.587 80.0628 106.453 79.6592C106.323 79.2523 106.258 78.7998 106.258 78.3018V77.5938C106.258 77.0957 106.323 76.6449 106.453 76.2412C106.587 75.8343 106.777 75.486 107.025 75.1963C107.275 74.9066 107.576 74.6836 107.928 74.5273C108.279 74.3711 108.675 74.293 109.114 74.293C109.652 74.293 110.106 74.3939 110.477 74.5957C110.848 74.7975 111.136 75.0775 111.341 75.4355C111.549 75.7904 111.678 76.2021 111.727 76.6709H110.789C110.744 76.3389 110.659 76.054 110.535 75.8164C110.412 75.5755 110.236 75.39 110.008 75.2598C109.78 75.1296 109.482 75.0645 109.114 75.0645C108.799 75.0645 108.52 75.1247 108.279 75.2451C108.042 75.3656 107.842 75.5365 107.679 75.7578C107.519 75.9792 107.399 76.2445 107.318 76.5537C107.236 76.863 107.196 77.2064 107.196 77.584V78.3018C107.196 78.6501 107.231 78.9772 107.303 79.2832C107.378 79.5892 107.49 79.8577 107.64 80.0889C107.79 80.32 107.98 80.5023 108.211 80.6357C108.442 80.766 108.716 80.8311 109.031 80.8311C109.432 80.8311 109.751 80.7676 109.988 80.6406C110.226 80.5137 110.405 80.3314 110.526 80.0938C110.649 79.8561 110.737 79.5713 110.789 79.2393ZM116.5 79.7031C116.5 79.5371 116.474 79.3906 116.422 79.2637C116.373 79.1335 116.285 79.0163 116.158 78.9121C116.035 78.8079 115.862 78.7087 115.641 78.6143C115.423 78.5199 115.146 78.4238 114.811 78.3262C114.459 78.222 114.142 78.1064 113.858 77.9795C113.575 77.8493 113.333 77.7012 113.131 77.5352C112.929 77.3691 112.774 77.1787 112.667 76.9639C112.56 76.749 112.506 76.5033 112.506 76.2266C112.506 75.9499 112.563 75.6943 112.677 75.46C112.791 75.2256 112.953 75.0221 113.165 74.8496C113.38 74.6738 113.635 74.5371 113.932 74.4395C114.228 74.3418 114.558 74.293 114.923 74.293C115.457 74.293 115.909 74.3955 116.28 74.6006C116.655 74.8024 116.939 75.0677 117.135 75.3965C117.33 75.722 117.428 76.0703 117.428 76.4414H116.49C116.49 76.1745 116.433 75.9385 116.319 75.7334C116.205 75.5251 116.033 75.3623 115.802 75.2451C115.571 75.1247 115.278 75.0645 114.923 75.0645C114.588 75.0645 114.311 75.1149 114.093 75.2158C113.875 75.3167 113.712 75.4535 113.604 75.626C113.5 75.7985 113.448 75.9954 113.448 76.2168C113.448 76.3665 113.479 76.5033 113.541 76.627C113.606 76.7474 113.705 76.8597 113.839 76.9639C113.976 77.068 114.148 77.1641 114.356 77.252C114.568 77.3398 114.82 77.4245 115.113 77.5059C115.517 77.6198 115.865 77.7467 116.158 77.8867C116.451 78.0267 116.692 78.1846 116.881 78.3604C117.073 78.5329 117.215 78.7298 117.306 78.9512C117.4 79.1693 117.447 79.4167 117.447 79.6934C117.447 79.9831 117.389 80.2451 117.271 80.4795C117.154 80.7139 116.987 80.9141 116.769 81.0801C116.55 81.2461 116.288 81.3747 115.982 81.4658C115.68 81.5537 115.341 81.5977 114.967 81.5977C114.638 81.5977 114.314 81.5521 113.995 81.4609C113.679 81.3698 113.391 81.2331 113.131 81.0508C112.874 80.8685 112.667 80.6439 112.511 80.377C112.358 80.1068 112.281 79.7943 112.281 79.4395H113.219C113.219 79.6836 113.266 79.8936 113.36 80.0693C113.455 80.2419 113.583 80.3851 113.746 80.499C113.912 80.613 114.099 80.6976 114.308 80.7529C114.519 80.805 114.739 80.8311 114.967 80.8311C115.296 80.8311 115.574 80.7855 115.802 80.6943C116.03 80.6032 116.202 80.473 116.319 80.3037C116.44 80.1344 116.5 79.9342 116.5 79.7031ZM120.643 80.4209L122.738 74.3906H123.759L121.127 81.5H120.399L120.643 80.4209ZM118.685 74.3906L120.761 80.4209L121.019 81.5H120.292L117.665 74.3906H118.685Z" fill="white"/>
<path d="M161.634 16H171.589V19.9108C171.831 23.5853 172.584 25.066 176.922 24.8883H180.832V41.2426C181.026 46.8453 179.367 47.9438 174.788 47.9977H162.345C158.225 48.0583 156.855 46.9452 157.012 41.7759V20.2664C157.119 17.5672 157.495 16.2484 161.634 16Z" fill="#E9E4E4"/>
<path d="M179.766 23.462L173.011 17.0625V19.9067C172.833 23.2934 175.259 23.3994 179.766 23.462Z" fill="#E9E4E4"/>
<rect x="157" y="32.0039" width="22.0318" height="9.62441" fill="#6DCDCB"/>
<path d="M162.54 37.368L162.06 37.96V40H161.18V34.12H162.06V36.744L164.076 34.12H165.148L163.124 36.704L165.436 40H164.34L162.54 37.368ZM167.21 37.256L166.842 36.424L166.674 37.256L166.13 40H165.242L166.458 34.12H166.554L168.17 37.296L168.65 38.36L169.13 37.296L170.714 34.12H170.802L172.066 40H171.186L170.594 37.256L170.418 36.424L170.098 37.256L168.674 40H168.626L167.21 37.256ZM172.614 34.12H173.518V39.2H175.206V40H172.614V34.12Z" fill="white"/>
<path d="M249.358 103H260.868V107.522C261.148 111.771 262.019 113.483 267.034 113.277H271.556V132.187C271.781 138.665 269.862 139.935 264.568 139.997H250.18C245.417 140.067 243.832 138.78 244.014 132.803V107.933C244.137 104.812 244.573 103.287 249.358 103Z" fill="#E9E4E4"/>
<path d="M270.323 111.63L262.513 104.23V107.519C262.306 111.435 265.112 111.558 270.323 111.63Z" fill="#E9E4E4"/>
<rect x="244" y="121.504" width="25.4742" height="11.1282" fill="#6DCDCB"/>
<path d="M247.676 123.102L249.214 125.554L250.752 123.102H251.74L249.719 126.27L251.789 129.5H250.791L249.214 127L247.636 129.5H246.638L248.708 126.27L246.687 123.102H247.676ZM256.379 128.81V129.5H253.18V128.81H256.379ZM253.347 123.102V129.5H252.499V123.102H253.347ZM260.49 127.883C260.49 127.733 260.467 127.602 260.42 127.487C260.376 127.37 260.297 127.265 260.183 127.171C260.072 127.077 259.916 126.988 259.717 126.903C259.521 126.818 259.272 126.731 258.97 126.644C258.654 126.55 258.368 126.446 258.113 126.332C257.858 126.214 257.64 126.081 257.458 125.932C257.277 125.782 257.137 125.611 257.041 125.417C256.944 125.224 256.896 125.003 256.896 124.754C256.896 124.505 256.947 124.275 257.05 124.064C257.152 123.853 257.299 123.67 257.489 123.515C257.682 123.356 257.912 123.233 258.179 123.146C258.446 123.058 258.743 123.014 259.071 123.014C259.552 123.014 259.959 123.106 260.293 123.291C260.63 123.472 260.886 123.711 261.062 124.007C261.238 124.3 261.325 124.613 261.325 124.947H260.482C260.482 124.707 260.43 124.495 260.328 124.31C260.225 124.123 260.07 123.976 259.862 123.871C259.654 123.762 259.39 123.708 259.071 123.708C258.769 123.708 258.52 123.753 258.324 123.844C258.128 123.935 257.981 124.058 257.885 124.213C257.791 124.369 257.744 124.546 257.744 124.745C257.744 124.88 257.772 125.003 257.827 125.114C257.886 125.223 257.975 125.324 258.095 125.417C258.219 125.511 258.374 125.598 258.561 125.677C258.752 125.756 258.979 125.832 259.242 125.905C259.606 126.008 259.919 126.122 260.183 126.248C260.447 126.374 260.663 126.516 260.833 126.674C261.006 126.83 261.134 127.007 261.216 127.206C261.301 127.402 261.343 127.625 261.343 127.874C261.343 128.135 261.29 128.371 261.185 128.582C261.079 128.792 260.928 128.973 260.732 129.122C260.536 129.271 260.3 129.387 260.025 129.469C259.752 129.548 259.448 129.588 259.111 129.588C258.815 129.588 258.523 129.547 258.236 129.465C257.952 129.383 257.693 129.26 257.458 129.096C257.227 128.932 257.041 128.729 256.9 128.489C256.762 128.246 256.694 127.965 256.694 127.646H257.537C257.537 127.865 257.58 128.054 257.665 128.212C257.75 128.368 257.865 128.497 258.012 128.599C258.161 128.702 258.33 128.778 258.517 128.828C258.708 128.875 258.906 128.898 259.111 128.898C259.407 128.898 259.657 128.857 259.862 128.775C260.067 128.693 260.222 128.576 260.328 128.423C260.436 128.271 260.49 128.091 260.49 127.883ZM262.703 123.102L264.241 125.554L265.78 123.102H266.768L264.747 126.27L266.817 129.5H265.819L264.241 127L262.664 129.5H261.666L263.736 126.27L261.715 123.102H262.703Z" fill="white"/>
</g>
<defs>
<filter id="filter0_d_3395_28011" x="75.6992" y="32.918" width="86.8633" height="87.4609" filterUnits="userSpaceOnUse" color-interpolation-filters="sRGB">
<feFlood flood-opacity="0" result="BackgroundImageFix"/>
<feColorMatrix in="SourceAlpha" type="matrix" values="0 0 0 0 0 0 0 0 0 0 0 0 0 0 0 0 0 0 127 0" result="hardAlpha"/>
<feOffset dx="4" dy="4"/>
<feGaussianBlur stdDeviation="5"/>
<feComposite in2="hardAlpha" operator="out"/>
<feColorMatrix type="matrix" values="0 0 0 0 0 0 0 0 0 0 0 0 0 0 0 0 0 0 0.25 0"/>
<feBlend mode="normal" in2="BackgroundImageFix" result="effect1_dropShadow_3395_28011"/>
<feBlend mode="normal" in="SourceGraphic" in2="effect1_dropShadow_3395_28011" result="shape"/>
</filter>
<filter id="filter1_d_3395_28011" x="107.947" y="-28.2148" width="129.279" height="129.297" filterUnits="userSpaceOnUse" color-interpolation-filters="sRGB">
<feFlood flood-opacity="0" result="BackgroundImageFix"/>
<feColorMatrix in="SourceAlpha" type="matrix" values="0 0 0 0 0 0 0 0 0 0 0 0 0 0 0 0 0 0 127 0" result="hardAlpha"/>
<feOffset dx="4" dy="4"/>
<feGaussianBlur stdDeviation="20"/>
<feComposite in2="hardAlpha" operator="out"/>
<feColorMatrix type="matrix" values="0 0 0 0 0 0 0 0 0 0 0 0 0 0 0 0 0 0 0.25 0"/>
<feBlend mode="normal" in2="BackgroundImageFix" result="effect1_dropShadow_3395_28011"/>
<feBlend mode="normal" in="SourceGraphic" in2="effect1_dropShadow_3395_28011" result="shape"/>
</filter>
<filter id="filter2_d_3395_28011" x="192" y="55" width="140" height="140.023" filterUnits="userSpaceOnUse" color-interpolation-filters="sRGB">
<feFlood flood-opacity="0" result="BackgroundImageFix"/>
<feColorMatrix in="SourceAlpha" type="matrix" values="0 0 0 0 0 0 0 0 0 0 0 0 0 0 0 0 0 0 127 0" result="hardAlpha"/>
<feOffset dx="4" dy="4"/>
<feGaussianBlur stdDeviation="20"/>
<feComposite in2="hardAlpha" operator="out"/>
<feColorMatrix type="matrix" values="0 0 0 0 0 0 0 0 0 0 0 0 0 0 0 0 0 0 0.25 0"/>
<feBlend mode="normal" in2="BackgroundImageFix" result="effect1_dropShadow_3395_28011"/>
<feBlend mode="normal" in="SourceGraphic" in2="effect1_dropShadow_3395_28011" result="shape"/>
</filter>
<clipPath id="clip0_3395_28011">
<rect width="367" height="288" fill="white"/>
</clipPath>
</defs>
</svg>
