<svg xmlns="http://www.w3.org/2000/svg" viewBox="0 0 526.31 607.35"><defs><style>.cls-1{fill:#c1c1c1;}.cls-2{fill:#3f0068;}.cls-3{fill:#9a65c4;}</style></defs><title>Ресурс 16Lense(with connections)</title><g id="Слой_2" data-name="Слой 2"><g id="Слой_1-2" data-name="Слой 1"><g id="_1_logo_3_option" data-name="1 logo 3 option"><g id="lens"><path class="cls-1" d="M308.14,0C187.65,0,90,97.68,90,218.17s97.67,218.16,218.16,218.16,218.17-97.67,218.17-218.16S428.63,0,308.14,0Zm-1,414.81c-109.15,0-197.63-88.48-197.63-197.62S198,19.57,307.17,19.57,504.79,108,504.79,217.19,416.31,414.81,307.17,414.81Z"/><polygon class="cls-1" points="51.44 607.35 0 567.11 132.54 397.65 173.59 398.17 183.98 437.89 51.44 607.35"/><rect class="cls-1" x="88.15" y="368.68" width="27.39" height="245.06" transform="translate(324.24 41.54) rotate(38.03)"/></g><polygon class="cls-2" points="438.86 196.2 438.16 195.48 374.56 256.75 357.57 221.65 424.17 204.76 423.92 203.79 357.13 220.73 293.36 88.94 292.46 89.38 294.97 94.56 294.06 94.66 300.99 153.94 301.98 153.82 295.09 94.81 356.14 220.98 229.27 253.14 229.51 254.11 356.58 221.9 373.8 257.48 281.39 346.5 217.38 282.8 216.68 283.51 281.03 347.55 281.38 347.2 281.49 347.69 394.73 322.94 394.52 321.96 283 346.33 374.26 258.42 400.58 312.82 401.48 312.38 375.01 257.69 438.86 196.2"/><rect class="cls-2" x="258.34" y="128.64" width="1" height="50.45" transform="translate(-5.07 298.88) rotate(-59.52)"/><rect class="cls-2" x="235.52" y="104.51" width="53.98" height="1" transform="translate(-19.66 122.94) rotate(-25.44)"/><rect class="cls-2" x="161.86" y="181.01" width="57.7" height="1" transform="translate(-39.78 308.76) rotate(-72.49)"/><rect class="cls-2" x="362.46" y="62.89" width="1" height="160.68" transform="translate(20.66 330.55) rotate(-50.22)"/><rect class="cls-2" x="373.47" y="256.58" width="95.85" height="1" transform="translate(44.84 576.26) rotate(-71.67)"/><rect class="cls-2" x="218.08" y="215.71" width="71.69" height="1" transform="translate(-78.79 239.2) rotate(-44.37)"/><g id="bobles"><circle class="cls-2" cx="188.83" cy="251.5" r="40.36"/><circle class="cls-3" cx="302.94" cy="179.83" r="25.95"/><circle class="cls-3" cx="212.54" cy="131.64" r="25.95"/><circle class="cls-3" cx="292.74" cy="83.5" r="11.53"/><circle class="cls-3" cx="400.48" cy="312.51" r="11.53"/><circle class="cls-3" cx="438.81" cy="196.24" r="14.42"/><circle class="cls-3" cx="282.09" cy="347.54" r="14.42"/></g></g></g></g></svg>