<svg xmlns="http://www.w3.org/2000/svg" viewBox="0 0 1386.15 607.35"><defs><style>.cls-1{fill:#c1c1c1;}.cls-2{fill:#3f0068;}.cls-3{fill:#9a65c4;}</style></defs><title>Ресурс 15very_big_noundertext</title><g id="Слой_2" data-name="Слой 2"><g id="Слой_1-2" data-name="Слой 1"><g id="_1_logo_3_option" data-name="1 logo 3 option"><g id="lens"><path class="cls-1" d="M727.35,0C606.86,0,509.19,97.68,509.19,218.17s97.67,218.16,218.16,218.16,218.17-97.67,218.17-218.16S847.84,0,727.35,0Zm-1,414.81c-109.14,0-197.62-88.48-197.62-197.62S617.23,19.57,726.37,19.57,924,108,924,217.19,835.52,414.81,726.37,414.81Z"/><polygon class="cls-1" points="470.65 607.35 419.21 567.11 551.74 397.65 592.79 398.17 603.19 437.89 470.65 607.35"/><rect class="cls-1" x="507.36" y="368.68" width="27.39" height="245.06" transform="translate(413.24 -216.72) rotate(38.03)"/></g><polygon class="cls-2" points="858.06 196.2 857.37 195.48 793.76 256.75 776.78 221.65 843.37 204.76 843.13 203.79 776.34 220.73 712.57 88.94 711.67 89.38 714.17 94.56 713.27 94.66 720.2 153.94 721.19 153.82 714.29 94.81 775.35 220.98 648.48 253.14 648.72 254.11 775.79 221.9 793.01 257.48 700.59 346.5 636.59 282.8 635.88 283.51 700.23 347.55 700.59 347.2 700.69 347.69 813.94 322.94 813.73 321.96 702.21 346.33 793.46 258.42 819.78 312.82 820.68 312.38 794.22 257.69 858.06 196.2"/><rect class="cls-2" x="677.55" y="128.64" width="1" height="50.45" transform="translate(201.49 660.14) rotate(-59.52)"/><rect class="cls-2" x="654.73" y="104.51" width="53.98" height="1" transform="translate(20.99 303.02) rotate(-25.44)"/><rect class="cls-2" x="581.07" y="181.01" width="57.7" height="1" transform="translate(253.27 708.53) rotate(-72.49)"/><rect class="cls-2" x="781.66" y="62.89" width="1" height="160.68" transform="translate(171.67 652.73) rotate(-50.22)"/><rect class="cls-2" x="792.68" y="256.58" width="95.85" height="1" transform="translate(332.22 974.19) rotate(-71.67)"/><rect class="cls-2" x="637.29" y="215.71" width="71.69" height="1" transform="translate(40.74 532.33) rotate(-44.37)"/><g id="bobles"><circle class="cls-2" cx="608.03" cy="251.5" r="40.36"/><circle class="cls-3" cx="722.15" cy="179.83" r="25.95"/><circle class="cls-3" cx="631.75" cy="131.64" r="25.95"/><circle class="cls-3" cx="711.94" cy="83.5" r="11.53"/><circle class="cls-3" cx="819.68" cy="312.51" r="11.53"/><circle class="cls-3" cx="858.01" cy="196.24" r="14.42"/><circle class="cls-3" cx="701.3" cy="347.54" r="14.42"/></g><path class="cls-2" d="M291.63,389.69h38.43v56.45h22.81v33.08H330.06V599.3H291.63V479.22H271.92V446.14h19.71Z"/><path class="cls-2" d="M526.86,533.84H403.4q2.69,16.33,14.29,26t29.64,9.64a51.23,51.23,0,0,0,37-15.06l32.38,15.2q-12.11,17.17-29,25.41t-40.12,8.23q-36,0-58.71-22.73t-22.66-56.94q0-35.06,22.59-58.21T445.5,442.2q36.17,0,58.84,23.16T527,526.52Zm-38.43-30.26a38.55,38.55,0,0,0-15-20.84,43.51,43.51,0,0,0-26-8,46,46,0,0,0-28.2,9q-7.62,5.63-14.11,19.85Z"/><path class="cls-2" d="M707.9,477.11l-32,17.6q-9-9.43-17.83-13.09A53.6,53.6,0,0,0,637.43,478q-21.57,0-34.88,12.86t-13.32,32.95q0,19.54,12.82,31.91t33.69,12.37q25.78,0,40.17-17.6l30.3,20.75q-24.63,32.06-69.54,32-40.41,0-63.28-23.93t-22.88-56a78.84,78.84,0,0,1,42.17-70.38q19.92-10.69,44.55-10.7,22.8,0,41,9.08A77.76,77.76,0,0,1,707.9,477.11Z"/><path class="cls-2" d="M742.67,387h38.15v74.62a87.47,87.47,0,0,1,22.67-14.58,58.52,58.52,0,0,1,23.08-4.85q22.81,0,38.43,15.76,13.38,13.67,13.38,40.13V599.3H840.51V532.15q0-26.6-2.53-36T829.32,482q-6.12-4.65-15.14-4.65a28.54,28.54,0,0,0-20.06,7.74q-8.37,7.75-11.61,21.12-1.69,6.9-1.69,31.53V599.3H742.67Z"/><path class="cls-2" d="M920.19,389.69h38.43v56.45h22.81v33.08H958.62V599.3H920.19V479.22H900.48V446.14h19.71Z"/><path class="cls-2" d="M1017,383.07a23.51,23.51,0,0,1,17.34,7.32,24.32,24.32,0,0,1,7.23,17.74,24.06,24.06,0,0,1-7.16,17.53,23.25,23.25,0,0,1-17.13,7.25,23.59,23.59,0,0,1-17.48-7.39,24.75,24.75,0,0,1-7.22-17.95,24.46,24.46,0,0,1,24.42-24.5Zm-19.21,63.07h38.43V599.3H997.76Z"/><path class="cls-2" d="M1054.7,446.14h39.15l38.7,90.38,38.61-90.38h38.95L1144.94,599.3H1120Z"/><path class="cls-2" d="M1386,533.84H1262.55q2.67,16.33,14.29,26t29.63,9.64a51.27,51.27,0,0,0,37-15.06l32.38,15.2q-12.12,17.17-29,25.41t-40.12,8.23q-36,0-58.71-22.73t-22.66-56.94q0-35.06,22.59-58.21t56.66-23.16q36.18,0,58.85,23.16t22.66,61.16Zm-38.43-30.26a38.55,38.55,0,0,0-15-20.84,43.52,43.52,0,0,0-26-8,46,46,0,0,0-28.2,9q-7.6,5.63-14.1,19.85Z"/><path class="cls-2" d="M0,600.47V213.83H28.21c57.83,0,77.71,4.65,103.82,13.93Q188.28,247.49,220,296.1T251.62,412q0,58.1-25.1,102.25t-65.18,65.18q-40.09,21-112.37,21Zm37.06-36.53H29.79c53.44,0,68.42-3.33,89.1-10q43.62-14.19,68.6-51.08t25-90.21q0-55.93-27.07-95.59T110,262.71c-24.18-7.35-42-11-97.51-11H37.06Z"/></g></g></g></svg>