<svg id="Layer_1" data-name="Layer 1" xmlns="http://www.w3.org/2000/svg" xmlns:xlink="http://www.w3.org/1999/xlink" viewBox="0 0 400 400"><defs><style>.cls-1{fill:url(#linear-gradient);}.cls-2{fill:url(#linear-gradient-2);}</style><linearGradient id="linear-gradient" x1="151.86" y1="81.39" x2="317.8" y2="368.8" gradientUnits="userSpaceOnUse"><stop offset="0" stop-color="#09c6f9"/><stop offset="0.74" stop-color="#045de9"/></linearGradient><linearGradient id="linear-gradient-2" x1="17.82" y1="162.29" x2="124.72" y2="347.44" xlink:href="#linear-gradient"/></defs><path class="cls-1" d="M374.91,236.24c0-10.67-5.34-19.82-14.48-24.4a28.36,28.36,0,0,0,13.72-28.19c-1.53-14.49-15.25-25.15-30.49-25.15H252.21c.76-1.53,1.52-4.58,2.28-6.86,5.34-13.72,16-39.64,16-66.31,0-29.72-20.58-48-35.06-48.78-9.15-.76-16,5.34-17.53,15.25-3,19-15.24,46.49-20.58,57.16a32.11,32.11,0,0,1-6.1,9.14c-8.38,9.91-29.72,33.54-50.3,47.25V343.7a9.7,9.7,0,0,1-.76,4.57c34.29,9.91,66.31,15.24,99.84,15.24h78.5c13.72,0,26.68-9.14,29-22.1,2.29-10.67-1.52-21.34-9.14-27.44a28,28,0,0,0,12.19-48.78c15.25-3.8,24.39-15.24,24.39-28.95Z"/><path class="cls-2" d="M102.06,151.64H40.33a15.29,15.29,0,0,0-15.24,15.24V342.94a15.29,15.29,0,0,0,15.24,15.24h61.73a15.28,15.28,0,0,0,15.24-15.24V167.64c.77-8.38-6.09-16-15.24-16Z"/></svg>