<svg id="Layer_1" data-name="Layer 1" xmlns="http://www.w3.org/2000/svg" xmlns:xlink="http://www.w3.org/1999/xlink" viewBox="0 0 400 400"><defs><style>.cls-1{fill:url(#linear-gradient);}</style><linearGradient id="linear-gradient" x1="106.45" y1="101.8" x2="277.42" y2="397.92" gradientUnits="userSpaceOnUse"><stop offset="0" stop-color="#09c6f9"/><stop offset="0.74" stop-color="#045de9"/></linearGradient></defs><path class="cls-1" d="M318.51,368.51H240c-32.61,0-64.78-4.91-101.23-15.44L133,351.41l2.67-5.37a5.92,5.92,0,0,0,.24-2.34v-181l2.23-1.49c22-14.65,44.89-41.15,49.26-46.32l.28-.31a27.06,27.06,0,0,0,5.14-7.8C198.56,95.33,210.09,69,213,51c1.93-12.57,11.09-20.39,22.81-19.44,16.26.91,39.72,20.54,39.72,53.76,0,26.32-9.73,51.19-15.54,66.05l-.76,2-.06.17h84.52c18.13,0,33.71,13,35.46,29.62A33.53,33.53,0,0,1,369,211.59c6.92,5.94,10.88,14.71,10.88,24.65h0c0,13.74-7.89,25.34-20.67,31.19a32.83,32.83,0,0,1-12.13,48.64,33.56,33.56,0,0,1,5.27,26.3C349.7,357.28,335.16,368.51,318.51,368.51ZM145.92,344.7c33.74,9.41,63.75,13.81,94.09,13.81h78.5c11.7,0,22.26-7.89,24-18l0-.18c1.84-8.6-1.06-17.42-7.38-22.48l-8-6.42,10-2.35a23,23,0,0,0,10-40.15l-7.2-6.3,9.28-2.32c12.71-3.17,20.6-12.41,20.6-24.1h0c0-8.8-4.38-16.25-11.72-19.92l-8.26-4.14,8-4.65a23.42,23.42,0,0,0,11.27-23.26c-1.23-11.69-12.43-20.77-25.52-20.77H244.13l3.6-7.23a34.29,34.29,0,0,0,1.22-3.63c.26-.89.53-1.78.8-2.58l.08-.24.82-2.09c5.55-14.2,14.85-38,14.85-62.4,0-28.09-19.44-43.21-30.32-43.78H235c-6.38-.54-11,3.69-12.17,11-3.08,19.26-15.11,46.78-21,58.64a36.6,36.6,0,0,1-6.88,10.29c-6.31,7.45-27.39,31.46-49,46.52V343.7C145.93,344,145.93,344.35,145.92,344.7Zm-43.86,18.48H40.33a20.26,20.26,0,0,1-20.24-20.24V166.88a20.26,20.26,0,0,1,20.24-20.24h61.73a20.56,20.56,0,0,1,15.16,6.63,19.45,19.45,0,0,1,5.08,14.59V342.94A20.26,20.26,0,0,1,102.06,363.18ZM40.33,156.64a10.25,10.25,0,0,0-10.24,10.24V342.94a10.25,10.25,0,0,0,10.24,10.24h61.73a10.25,10.25,0,0,0,10.24-10.24V167.41l0-.22a9.42,9.42,0,0,0-2.49-7.19,10.33,10.33,0,0,0-7.48-3.36Z"/></svg>