<svg id="Layer_1" data-name="Layer 1" xmlns="http://www.w3.org/2000/svg" xmlns:xlink="http://www.w3.org/1999/xlink" viewBox="0 0 400 400"><defs><style>.cls-1{fill:url(#linear-gradient);}</style><linearGradient id="linear-gradient" x1="122.34" y1="0.9" x2="293.68" y2="297.67" gradientUnits="userSpaceOnUse"><stop offset="0" stop-color="#6e72fc"/><stop offset="0.74" stop-color="#ad1deb"/></linearGradient></defs><path class="cls-1" d="M165.34,368.51c-.62,0-1.25,0-1.88-.08-16.27-.91-39.72-20.54-39.72-53.76,0-26.32,9.72-51.19,15.53-66l1.13-2.88H56.34c-18.13,0-33.71-13-35.46-29.63A33.54,33.54,0,0,1,31,187.65c-6.92-5.93-10.88-14.71-10.88-24.64a33,33,0,0,1,18.43-29.59A32.85,32.85,0,0,1,50.78,84.61a34.38,34.38,0,0,1-5.46-26.95C48,42.74,62.54,31.49,79.2,31.49h80c32.61,0,64.78,4.91,101.23,15.44l5.76,1.66L263.54,54a5.92,5.92,0,0,0-.24,2.34v181l-2.23,1.49c-22,14.65-44.89,41.15-49.26,46.32l-.29.31a26.91,26.91,0,0,0-5.13,7.79C200.68,304.67,189.14,331,186.26,349,184.44,360.87,176.14,368.51,165.34,368.51ZM149.21,250.68l-.62,1.59c-5.56,14.2-14.85,38-14.85,62.4,0,28.09,19.44,43.21,30.32,43.78h.15c6.38.53,11-3.69,12.17-11,3.08-19.26,15.12-46.78,21.05-58.64a37.05,37.05,0,0,1,6.89-10.3c6.31-7.44,27.38-31.45,49-46.51V56.3c0-.31,0-.65,0-1-33.74-9.41-63.75-13.81-94.09-13.81h-80c-11.7,0-22.26,7.89-24,18l0,.11C53.32,68.68,56,77,62.73,83.08l7.1,6.39-9.31,2.19a23,23,0,0,0-10,40.15l7.33,6.4-9.48,2.23A23.57,23.57,0,0,0,30.09,163c0,8.8,4.38,16.25,11.72,19.92l8.26,4.13-8,4.66A23.44,23.44,0,0,0,30.82,215c1.23,11.69,12.44,20.77,25.52,20.77h87.95l.61-1.58.58,1.58h11.19L153,243c-.5,1-.93,1.94-1.33,2.84A39.1,39.1,0,0,1,149.21,250.68Zm153.73,2.69h-5a20.54,20.54,0,0,1-15.16-6.63,19.5,19.5,0,0,1-5.09-14.59V56.3a20.27,20.27,0,0,1,20.25-20.24h61.73A20.26,20.26,0,0,1,379.91,56.3V233.12a20.26,20.26,0,0,1-20.24,20.24Zm-5-207.31A10.26,10.26,0,0,0,287.69,56.3V232.59l0,.22a9.47,9.47,0,0,0,2.5,7.19,10.31,10.31,0,0,0,7.47,3.36h62a10.25,10.25,0,0,0,10.24-10.24V56.3a10.25,10.25,0,0,0-10.24-10.24Z"/></svg>