<svg id="Layer_1" data-name="Layer 1" xmlns="http://www.w3.org/2000/svg" xmlns:xlink="http://www.w3.org/1999/xlink" viewBox="0 0 400 400"><defs><style>.cls-1{fill:url(#linear-gradient);}.cls-2{fill:url(#linear-gradient-2);}</style><linearGradient id="linear-gradient" x1="81.5" y1="30.28" x2="247.82" y2="318.35" gradientUnits="userSpaceOnUse"><stop offset="0" stop-color="#6e72fc"/><stop offset="0.74" stop-color="#ad1deb"/></linearGradient><linearGradient id="linear-gradient-2" x1="275.11" y1="51.89" x2="382.34" y2="237.62" xlink:href="#linear-gradient"/></defs><path class="cls-1" d="M144.74,248.36c-5.33,13.72-16,39.64-16,66.31,0,29.72,20.57,48,35.06,48.78,9.14.76,16-5.34,17.53-15.25,3-19.05,15.24-46.49,20.57-57.16a32.11,32.11,0,0,1,6.1-9.14c8.39-9.91,29.73-33.54,50.31-47.25V56.3a9.7,9.7,0,0,1,.76-4.57c-34.29-9.91-66.31-15.24-99.84-15.24h-80c-13.72,0-26.68,9.14-29,22.1C48,70,51.76,79.93,59.38,86.79a28,28,0,0,0-12.19,48.78A28.43,28.43,0,0,0,25.09,163c0,10.67,5.34,19.81,14.48,24.39a28.36,28.36,0,0,0-13.71,28.2c1.52,14.48,15.24,25.15,30.48,25.15h92.22c-1.53,3.05-2.29,5.33-3.81,7.62Z"/><path class="cls-2" d="M297.94,248.36h61.73a15.29,15.29,0,0,0,15.24-15.24V56.3a15.29,15.29,0,0,0-15.24-15.24H297.94A15.29,15.29,0,0,0,282.69,56.3V232.36c-.76,8.38,6.1,16,15.25,16Z"/></svg>