<svg width="24" height="24" viewBox="0 0 24 24" fill="none" xmlns="http://www.w3.org/2000/svg">
<path d="M11.8501 15C13.507 15 14.8501 13.6569 14.8501 12C14.8501 10.3431 13.507 9 11.8501 9C10.1932 9 8.8501 10.3431 8.8501 12C8.8501 13.6569 10.1932 15 11.8501 15Z" fill="#727272"/>
<path d="M23.0548 11.745C22.1727 9.46324 20.6413 7.48996 18.6499 6.06906C16.6585 4.64817 14.2944 3.84193 11.8498 3.75C9.40517 3.84193 7.04107 4.64817 5.04968 6.06906C3.05829 7.48996 1.5269 9.46324 0.644779 11.745C0.585204 11.9098 0.585204 12.0902 0.644779 12.255C1.5269 14.5368 3.05829 16.51 5.04968 17.9309C7.04107 19.3518 9.40517 20.1581 11.8498 20.25C14.2944 20.1581 16.6585 19.3518 18.6499 17.9309C20.6413 16.51 22.1727 14.5368 23.0548 12.255C23.1144 12.0902 23.1144 11.9098 23.0548 11.745ZM11.8498 16.875C10.8856 16.875 9.94306 16.5891 9.14137 16.0534C8.33968 15.5177 7.71484 14.7564 7.34587 13.8656C6.97689 12.9748 6.88035 11.9946 7.06845 11.0489C7.25655 10.1033 7.72085 9.23464 8.40263 8.55285C9.08441 7.87107 9.95306 7.40677 10.8987 7.21867C11.8444 7.03057 12.8246 7.12711 13.7154 7.49609C14.6062 7.86506 15.3675 8.48991 15.9032 9.2916C16.4389 10.0933 16.7248 11.0358 16.7248 12C16.7228 13.2923 16.2085 14.5311 15.2947 15.445C14.3809 16.3588 13.1421 16.873 11.8498 16.875Z" fill="#727272"/>
</svg>
