<svg width="20" height="19" viewBox="0 0 20 19" fill="none" xmlns="http://www.w3.org/2000/svg">
<path d="M5 19C5 19 3.75 19 3.75 17.75C3.75 16.5 5 12.75 10 12.75C15 12.75 16.25 16.5 16.25 17.75C16.25 19 15 19 15 19H5ZM10 11.5625C10.8288 11.5625 11.6237 11.2333 12.2097 10.6472C12.7958 10.0612 13.125 9.2663 13.125 8.4375C13.125 7.6087 12.7958 6.81384 12.2097 6.22779C11.6237 5.64174 10.8288 5.3125 10 5.3125C9.1712 5.3125 8.37634 5.64174 7.79029 6.22779C7.20424 6.81384 6.875 7.6087 6.875 8.4375C6.875 9.2663 7.20424 10.0612 7.79029 10.6472C8.37634 11.2333 9.1712 11.5625 10 11.5625Z" fill="#727272"/>
<path d="M2.5 0.25C1.83696 0.25 1.20107 0.513392 0.732233 0.982233C0.263392 1.45107 0 2.08696 0 2.75L0 14.625C0 15.1223 0.197544 15.5992 0.549175 15.9508C0.900805 16.3025 1.37772 16.5 1.875 16.5H2.69125C2.95261 15.5814 3.40688 14.7291 4.02375 14H1.25V2.75C1.25 2.41848 1.3817 2.10054 1.61612 1.86612C1.85054 1.6317 2.16848 1.5 2.5 1.5H17.5C17.8315 1.5 18.1495 1.6317 18.3839 1.86612C18.6183 2.10054 18.75 2.41848 18.75 2.75V14H15.9762C16.6688 14.8175 17.0888 15.7163 17.3088 16.5H18.125C18.6223 16.5 19.0992 16.3025 19.4508 15.9508C19.8025 15.5992 20 15.1223 20 14.625V2.75C20 2.08696 19.7366 1.45107 19.2678 0.982233C18.7989 0.513392 18.163 0.25 17.5 0.25H2.5Z" fill="#727272"/>
</svg>
