<svg width="37" height="36" viewBox="0 0 37 36" fill="none" xmlns="http://www.w3.org/2000/svg">
<g clip-path="url(#clip0_666_4633)">
<path d="M25.25 4.5C25.25 3.90326 25.4871 3.33097 25.909 2.90901C26.331 2.48705 26.9033 2.25 27.5 2.25H32C32.5967 2.25 33.169 2.48705 33.591 2.90901C34.0129 3.33097 34.25 3.90326 34.25 4.5V31.5H35.375C35.6734 31.5 35.9595 31.6185 36.1705 31.8295C36.3815 32.0405 36.5 32.3266 36.5 32.625C36.5 32.9234 36.3815 33.2095 36.1705 33.4205C35.9595 33.6315 35.6734 33.75 35.375 33.75H1.625C1.32663 33.75 1.04048 33.6315 0.829505 33.4205C0.618526 33.2095 0.5 32.9234 0.5 32.625C0.5 32.3266 0.618526 32.0405 0.829505 31.8295C1.04048 31.6185 1.32663 31.5 1.625 31.5H2.75V24.75C2.75 24.1533 2.98705 23.581 3.40901 23.159C3.83097 22.7371 4.40326 22.5 5 22.5H9.5C10.0967 22.5 10.669 22.7371 11.091 23.159C11.5129 23.581 11.75 24.1533 11.75 24.75V31.5H14V15.75C14 15.1533 14.2371 14.581 14.659 14.159C15.081 13.7371 15.6533 13.5 16.25 13.5H20.75C21.3467 13.5 21.919 13.7371 22.341 14.159C22.7629 14.581 23 15.1533 23 15.75V31.5H25.25V4.5Z" fill="#3F0068"/>
</g>
<defs>
<clipPath id="clip0_666_4633">
<rect width="36" height="36" fill="white" transform="translate(0.5)"/>
</clipPath>
</defs>
</svg>
