<svg width="28" height="31" viewBox="0 0 28 31" fill="none" xmlns="http://www.w3.org/2000/svg">
<path fill-rule="evenodd" clip-rule="evenodd" d="M24.4676 22.1183C25.1031 23.1196 25.868 24.0291 26.7418 24.8225C26.8384 24.909 26.9159 25.0155 26.969 25.1348C27.0221 25.2542 27.0496 25.3837 27.0498 25.5147V26.7699C27.0498 27.0147 26.9543 27.2495 26.7844 27.4226C26.6145 27.5956 26.3841 27.6929 26.1438 27.6929H0.955845C0.715548 27.6929 0.485093 27.5956 0.315178 27.4226C0.145262 27.2495 0.0498047 27.0147 0.0498047 26.7699V25.5147C0.0499676 25.3837 0.0775236 25.2542 0.130639 25.1348C0.183755 25.0155 0.261212 24.909 0.357859 24.8225C1.21877 24.0267 1.97141 23.1173 2.59578 22.1183C3.2896 20.7363 3.70546 19.227 3.81893 17.679V13.1197C3.81416 10.7068 4.66797 8.3739 6.22223 6.55308C7.77649 4.73226 9.92588 3.54691 12.2723 3.21656V2.00751C12.2723 1.68073 12.3997 1.36734 12.6266 1.13627C12.8534 0.905203 13.1611 0.775391 13.4819 0.775391C13.8026 0.775391 14.1103 0.905203 14.3371 1.13627C14.564 1.36734 14.6914 1.68073 14.6914 2.00751V3.1981C17.059 3.50624 19.2347 4.68447 20.8097 6.51143C22.3846 8.33838 23.2504 10.6883 23.2444 13.1197V17.679C23.3579 19.227 23.7738 20.7363 24.4676 22.1183ZM4.14511 23.0782C3.51958 24.0879 2.77736 25.0175 1.93437 25.847H25.1743C24.3313 25.0175 23.5891 24.0879 22.9636 23.0782C22.0896 21.409 21.5797 19.5674 21.4686 17.679V13.1197C21.5045 12.038 21.3264 10.9601 20.9449 9.95001C20.5633 8.93994 19.9861 8.01841 19.2477 7.2403C18.5092 6.46218 17.6246 5.8434 16.6465 5.42079C15.6684 4.99818 14.6168 4.7804 13.5543 4.7804C12.4919 4.7804 11.4403 4.99818 10.4622 5.42079C9.48408 5.8434 8.59946 6.46218 7.861 7.2403C7.12255 8.01841 6.54536 8.93994 6.16381 9.95001C5.78225 10.9601 5.60414 12.038 5.64007 13.1197V17.679C5.52902 19.5674 5.01908 21.409 4.14511 23.0782ZM15.1414 30.1581C14.7136 30.5432 14.1659 30.7618 13.5951 30.7752C13.0088 30.7838 12.4393 30.5752 11.9926 30.1881C11.546 29.801 11.2525 29.2619 11.1669 28.6709H15.9327C15.8495 29.2462 15.5692 29.773 15.1414 30.1581Z" fill="#3F0068"/>
</svg>
