<svg width="27" height="30" viewBox="0 0 27 30" fill="none" xmlns="http://www.w3.org/2000/svg">
<path fill-rule="evenodd" clip-rule="evenodd" d="M26.6919 23.6069L27 23.8787V26.4337H0V23.8787L0.308054 23.6069C1.16897 22.8256 1.9216 21.9328 2.54597 20.9522C3.2398 19.5954 3.65565 18.1138 3.76913 16.5941V12.1183C3.76435 9.74958 4.61817 7.45939 6.17243 5.67191C7.72669 3.88443 9.87607 2.72077 12.2225 2.39648V1.20956C12.2225 0.888767 12.3499 0.58111 12.5768 0.354273C12.8036 0.127436 13.1113 0 13.432 0C13.7528 0 14.0605 0.127436 14.2873 0.354273C14.5142 0.58111 14.6416 0.888767 14.6416 1.20956V2.37836C17.0092 2.68085 19.1849 3.83751 20.7599 5.63102C22.3348 7.42452 23.2006 9.73143 23.1946 12.1183V16.5941C23.3081 18.1138 23.724 19.5954 24.4178 20.9522C25.0531 21.9353 25.818 22.8282 26.6919 23.6069ZM11.9185 28.8657C11.4814 28.4848 11.1968 27.9587 11.1173 27.3844H15.874C15.7946 27.9587 15.51 28.4848 15.0728 28.8657C14.6357 29.2465 14.0755 29.4563 13.4957 29.4563C12.9159 29.4563 12.3557 29.2465 11.9185 28.8657Z" fill="#3F0068"/>
</svg>
