<svg width="25" height="23" viewBox="0 0 25 23" fill="none" xmlns="http://www.w3.org/2000/svg">
<path d="M20.2334 6.83756V4.62803H18.0238V2.41851H20.2334V0.208984H22.4429V2.41851H24.6524V4.62803H22.4429V6.83756H20.2334ZM2.55718 22.3042C1.94956 22.3042 1.4294 22.0879 0.996704 21.6552C0.564005 21.2225 0.347656 20.7023 0.347656 20.0947V6.83756C0.347656 6.22994 0.564005 5.70978 0.996704 5.27708C1.4294 4.84438 1.94956 4.62803 2.55718 4.62803H6.03718L8.08099 2.41851H14.7096V4.62803H9.04766L7.03147 6.83756H2.55718V20.0947H20.2334V10.1518H22.4429V20.0947C22.4429 20.7023 22.2265 21.2225 21.7938 21.6552C21.3611 22.0879 20.841 22.3042 20.2334 22.3042H2.55718ZM11.3953 18.4376C12.7762 18.4376 13.95 17.9542 14.9167 16.9876C15.8834 16.0209 16.3667 14.8471 16.3667 13.4661C16.3667 12.0852 15.8834 10.9114 14.9167 9.9447C13.95 8.97803 12.7762 8.4947 11.3953 8.4947C10.0143 8.4947 8.84051 8.97803 7.87385 9.9447C6.90718 10.9114 6.42385 12.0852 6.42385 13.4661C6.42385 14.8471 6.90718 16.0209 7.87385 16.9876C8.84051 17.9542 10.0143 18.4376 11.3953 18.4376ZM11.3953 16.228C10.6219 16.228 9.96829 15.961 9.43432 15.4271C8.90035 14.8931 8.63337 14.2395 8.63337 13.4661C8.63337 12.6928 8.90035 12.0391 9.43432 11.5052C9.96829 10.9712 10.6219 10.7042 11.3953 10.7042C12.1686 10.7042 12.8223 10.9712 13.3562 11.5052C13.8902 12.0391 14.1572 12.6928 14.1572 13.4661C14.1572 14.2395 13.8902 14.8931 13.3562 15.4271C12.8223 15.961 12.1686 16.228 11.3953 16.228Z" fill="#6E498E"/>
</svg>
