<svg width="34" height="30" viewBox="0 0 34 30" fill="none" xmlns="http://www.w3.org/2000/svg">
<path d="M3.5 30C2.675 30 1.969 29.7065 1.382 29.1195C0.794 28.5315 0.5 27.825 0.5 27V9C0.5 8.175 0.794 7.469 1.382 6.882C1.969 6.294 2.675 6 3.5 6H8.225L10.1 3.975C10.375 3.675 10.706 3.4375 11.093 3.2625C11.481 3.0875 11.8875 3 12.3125 3H18.5C18.925 3 19.2815 3.1435 19.5695 3.4305C19.8565 3.7185 20 4.075 20 4.5V7.5C20 7.925 20.144 8.2815 20.432 8.5695C20.719 8.8565 21.075 9 21.5 9H24.5V12C24.5 12.425 24.644 12.781 24.932 13.068C25.219 13.356 25.575 13.5 26 13.5H29C29.425 13.5 29.781 13.6435 30.068 13.9305C30.356 14.2185 30.5 14.575 30.5 15V27C30.5 27.825 30.2065 28.5315 29.6195 29.1195C29.0315 29.7065 28.325 30 27.5 30H3.5ZM15.5 24.75C17.375 24.75 18.969 24.094 20.282 22.782C21.594 21.469 22.25 19.875 22.25 18C22.25 16.125 21.594 14.531 20.282 13.218C18.969 11.906 17.375 11.25 15.5 11.25C13.625 11.25 12.031 11.906 10.718 13.218C9.406 14.531 8.75 16.125 8.75 18C8.75 19.875 9.406 21.469 10.718 22.782C12.031 24.094 13.625 24.75 15.5 24.75ZM27.5 6H26C25.575 6 25.219 5.8565 24.932 5.5695C24.644 5.2815 24.5 4.925 24.5 4.5C24.5 4.075 24.644 3.7185 24.932 3.4305C25.219 3.1435 25.575 3 26 3H27.5V1.5C27.5 1.075 27.644 0.7185 27.932 0.4305C28.219 0.1435 28.575 0 29 0C29.425 0 29.781 0.1435 30.068 0.4305C30.356 0.7185 30.5 1.075 30.5 1.5V3H32C32.425 3 32.781 3.1435 33.068 3.4305C33.356 3.7185 33.5 4.075 33.5 4.5C33.5 4.925 33.356 5.2815 33.068 5.5695C32.781 5.8565 32.425 6 32 6H30.5V7.5C30.5 7.925 30.356 8.2815 30.068 8.5695C29.781 8.8565 29.425 9 29 9C28.575 9 28.219 8.8565 27.932 8.5695C27.644 8.2815 27.5 7.925 27.5 7.5V6Z" fill="#3F0068"/>
</svg>
