<svg width="34" height="29" viewBox="0 0 34 29" fill="none" xmlns="http://www.w3.org/2000/svg">
<path d="M3.5 29C2.675 29 1.969 28.7014 1.382 28.1041C0.794 27.5057 0.5 26.7868 0.5 25.9474V6.10526H3.5V25.9474H29V29H3.5ZM9.5 22.8947C8.675 22.8947 7.969 22.5961 7.382 21.9988C6.794 21.4005 6.5 20.6816 6.5 19.8421V3.05263C6.5 2.21316 6.794 1.49426 7.382 0.895947C7.969 0.298649 8.675 0 9.5 0H17L20 3.05263H30.5C31.325 3.05263 32.0315 3.35179 32.6195 3.9501C33.2065 4.5474 33.5 5.26579 33.5 6.10526V19.8421C33.5 20.6816 33.2065 21.4005 32.6195 21.9988C32.0315 22.5961 31.325 22.8947 30.5 22.8947H9.5Z" fill="#3F0068"/>
</svg>
