<svg width="33" height="29" viewBox="0 0 33 29" fill="none" xmlns="http://www.w3.org/2000/svg">
<path d="M3 29C2.175 29 1.469 28.7014 0.882 28.1041C0.294 27.5057 0 26.7868 0 25.9474V6.10526H3V25.9474H28.5V29H3ZM9 22.8947C8.175 22.8947 7.469 22.5961 6.882 21.9988C6.294 21.4005 6 20.6816 6 19.8421V3.05263C6 2.21316 6.294 1.49426 6.882 0.895947C7.469 0.298649 8.175 0 9 0H16.5L19.5 3.05263H30C30.825 3.05263 31.5315 3.35179 32.1195 3.9501C32.7065 4.5474 33 5.26579 33 6.10526V19.8421C33 20.6816 32.7065 21.4005 32.1195 21.9988C31.5315 22.5961 30.825 22.8947 30 22.8947H9ZM9 19.8421H30V6.10526H18.2625L15.2625 3.05263H9V19.8421ZM9 19.8421V3.05263V19.8421Z" fill="#3F0068"/>
</svg>
