<svg width="25" height="18" viewBox="0 0 25 18" fill="none" xmlns="http://www.w3.org/2000/svg">
<path d="M9.71936 1.55166C11.2394 2.99145 12.0556 4.60627 12.0556 7.22395C12.0556 11.8302 8.4295 15.9588 3.15645 18L1.83855 16.1864C6.76037 13.8122 7.72259 10.7313 8.1063 8.78877C7.31379 9.15464 6.2763 9.2823 5.25947 9.19807C2.59712 8.97829 0.5 7.02917 0.5 4.60627C0.5 3.38461 1.0442 2.21299 2.01289 1.34915C2.98157 0.485303 4.29539 0 5.66532 0C7.24886 0 8.76303 0.644878 9.72083 1.55166H9.71936Z" fill="#6E498E"/>
<path d="M22.1647 1.55166C23.6847 2.99145 24.5009 4.60627 24.5009 7.22395C24.5009 11.8302 20.8748 15.9588 15.6018 18L14.2839 16.1864C19.2057 13.8122 20.1679 10.7313 20.5516 8.78877C19.7591 9.15464 18.7216 9.2823 17.7048 9.19807C15.0424 8.97829 12.9453 7.02917 12.9453 4.60627C12.9453 3.38461 13.4895 2.21299 14.4582 1.34915C15.4269 0.485303 16.7407 0 18.1106 0C19.6942 0 21.2083 0.644878 22.1661 1.55166H22.1647Z" fill="#6E498E"/>
</svg>
