<svg width="22" height="21" viewBox="0 0 22 21" fill="none" xmlns="http://www.w3.org/2000/svg">
<path d="M18.8 20.6L14.6 16.45C14.0167 16.6333 13.4292 16.7708 12.8375 16.8625C12.2458 16.9542 11.6333 17 11 17C8.48333 17 6.24167 16.3042 4.275 14.9125C2.30833 13.5208 0.883333 11.7167 0 9.49999C0.35 8.61666 0.791667 7.79582 1.325 7.03749C1.85833 6.27915 2.46667 5.59999 3.15 4.99999L0.4 2.19999L1.8 0.799988L20.2 19.2L18.8 20.6ZM11 14C11.1833 14 11.3542 13.9917 11.5125 13.975C11.6708 13.9583 11.8417 13.925 12.025 13.875L6.625 8.47499C6.575 8.65832 6.54167 8.82915 6.525 8.98749C6.50833 9.14582 6.5 9.31666 6.5 9.49999C6.5 10.75 6.9375 11.8125 7.8125 12.6875C8.6875 13.5625 9.75 14 11 14ZM18.3 14.45L15.125 11.3C15.2417 11.0167 15.3333 10.7292 15.4 10.4375C15.4667 10.1458 15.5 9.83332 15.5 9.49999C15.5 8.24999 15.0625 7.18749 14.1875 6.31249C13.3125 5.43749 12.25 4.99999 11 4.99999C10.6667 4.99999 10.3542 5.03332 10.0625 5.09999C9.77083 5.16665 9.48333 5.26665 9.2 5.39999L6.65 2.84999C7.33333 2.56665 8.03333 2.35415 8.75 2.21249C9.46667 2.07082 10.2167 1.99999 11 1.99999C13.5167 1.99999 15.7583 2.69582 17.725 4.08749C19.6917 5.47916 21.1167 7.28332 22 9.49999C21.6167 10.4833 21.1125 11.3958 20.4875 12.2375C19.8625 13.0792 19.1333 13.8167 18.3 14.45ZM13.675 9.84999L10.675 6.84999C11.1417 6.76665 11.5708 6.80415 11.9625 6.96249C12.3542 7.12082 12.6917 7.34999 12.975 7.64999C13.2583 7.94999 13.4625 8.29582 13.5875 8.68749C13.7125 9.07915 13.7417 9.46666 13.675 9.84999Z" fill="#1C1B1F"/>
</svg>
