<svg width="24" height="31" viewBox="0 0 24 31" fill="none" xmlns="http://www.w3.org/2000/svg">
<path d="M12 9.16919V0.169189H3C2.20435 0.169189 1.44129 0.48526 0.87868 1.04787C0.31607 1.61048 0 2.37354 0 3.16919V27.1692C0 27.9648 0.31607 28.7279 0.87868 29.2905C1.44129 29.8531 2.20435 30.1692 3 30.1692H21C21.7956 30.1692 22.5587 29.8531 23.1213 29.2905C23.6839 28.7279 24 27.9648 24 27.1692V12.1692H15C14.2044 12.1692 13.4413 11.8531 12.8787 11.2905C12.3161 10.7279 12 9.96484 12 9.16919ZM4.5 15.5442C4.5 15.2458 4.61853 14.9597 4.8295 14.7487C5.04048 14.5377 5.32663 14.4192 5.625 14.4192C5.92337 14.4192 6.20952 14.5377 6.42049 14.7487C6.63147 14.9597 6.75 15.2458 6.75 15.5442C6.75 15.8426 6.63147 16.1287 6.42049 16.3397C6.20952 16.5507 5.92337 16.6692 5.625 16.6692C5.32663 16.6692 5.04048 16.5507 4.8295 16.3397C4.61853 16.1287 4.5 15.8426 4.5 15.5442ZM4.5 20.0442C4.5 19.7458 4.61853 19.4597 4.8295 19.2487C5.04048 19.0377 5.32663 18.9192 5.625 18.9192C5.92337 18.9192 6.20952 19.0377 6.42049 19.2487C6.63147 19.4597 6.75 19.7458 6.75 20.0442C6.75 20.3426 6.63147 20.6287 6.42049 20.8397C6.20952 21.0507 5.92337 21.1692 5.625 21.1692C5.32663 21.1692 5.04048 21.0507 4.8295 20.8397C4.61853 20.6287 4.5 20.3426 4.5 20.0442ZM4.5 24.5442C4.5 24.2458 4.61853 23.9597 4.8295 23.7487C5.04048 23.5377 5.32663 23.4192 5.625 23.4192C5.92337 23.4192 6.20952 23.5377 6.42049 23.7487C6.63147 23.9597 6.75 24.2458 6.75 24.5442C6.75 24.8426 6.63147 25.1287 6.42049 25.3397C6.20952 25.5507 5.92337 25.6692 5.625 25.6692C5.32663 25.6692 5.04048 25.5507 4.8295 25.3397C4.61853 25.1287 4.5 24.8426 4.5 24.5442ZM9 15.5442C9 15.2458 9.11853 14.9597 9.32951 14.7487C9.54048 14.5377 9.82663 14.4192 10.125 14.4192H18.375C18.6734 14.4192 18.9595 14.5377 19.1705 14.7487C19.3815 14.9597 19.5 15.2458 19.5 15.5442C19.5 15.8426 19.3815 16.1287 19.1705 16.3397C18.9595 16.5507 18.6734 16.6692 18.375 16.6692H10.125C9.82663 16.6692 9.54048 16.5507 9.32951 16.3397C9.11853 16.1287 9 15.8426 9 15.5442ZM9 20.0442C9 19.7458 9.11853 19.4597 9.32951 19.2487C9.54048 19.0377 9.82663 18.9192 10.125 18.9192H18.375C18.6734 18.9192 18.9595 19.0377 19.1705 19.2487C19.3815 19.4597 19.5 19.7458 19.5 20.0442C19.5 20.3426 19.3815 20.6287 19.1705 20.8397C18.9595 21.0507 18.6734 21.1692 18.375 21.1692H10.125C9.82663 21.1692 9.54048 21.0507 9.32951 20.8397C9.11853 20.6287 9 20.3426 9 20.0442ZM9 24.5442C9 24.2458 9.11853 23.9597 9.32951 23.7487C9.54048 23.5377 9.82663 23.4192 10.125 23.4192H18.375C18.6734 23.4192 18.9595 23.5377 19.1705 23.7487C19.3815 23.9597 19.5 24.2458 19.5 24.5442C19.5 24.8426 19.3815 25.1287 19.1705 25.3397C18.9595 25.5507 18.6734 25.6692 18.375 25.6692H10.125C9.82663 25.6692 9.54048 25.5507 9.32951 25.3397C9.11853 25.1287 9 24.8426 9 24.5442ZM14.25 9.16919V0.919189L23.25 9.91919H15C14.8011 9.91919 14.6103 9.84017 14.4697 9.69952C14.329 9.55887 14.25 9.3681 14.25 9.16919Z" fill="#3F0068"/>
</svg>
