<svg width="24" height="30" viewBox="0 0 24 30" fill="none" xmlns="http://www.w3.org/2000/svg">
<path d="M4.5 15.375C4.5 15.0766 4.61853 14.7905 4.8295 14.5795C5.04048 14.3685 5.32663 14.25 5.625 14.25C5.92337 14.25 6.20952 14.3685 6.42049 14.5795C6.63147 14.7905 6.75 15.0766 6.75 15.375C6.75 15.6734 6.63147 15.9595 6.42049 16.1705C6.20952 16.3815 5.92337 16.5 5.625 16.5C5.32663 16.5 5.04048 16.3815 4.8295 16.1705C4.61853 15.9595 4.5 15.6734 4.5 15.375ZM5.625 18.75C5.32663 18.75 5.04048 18.8685 4.8295 19.0795C4.61853 19.2905 4.5 19.5766 4.5 19.875C4.5 20.1734 4.61853 20.4595 4.8295 20.6705C5.04048 20.8815 5.32663 21 5.625 21C5.92337 21 6.20952 20.8815 6.42049 20.6705C6.63147 20.4595 6.75 20.1734 6.75 19.875C6.75 19.5766 6.63147 19.2905 6.42049 19.0795C6.20952 18.8685 5.92337 18.75 5.625 18.75ZM4.5 24.375C4.5 24.0766 4.61853 23.7905 4.8295 23.5795C5.04048 23.3685 5.32663 23.25 5.625 23.25C5.92337 23.25 6.20952 23.3685 6.42049 23.5795C6.63147 23.7905 6.75 24.0766 6.75 24.375C6.75 24.6734 6.63147 24.9595 6.42049 25.1705C6.20952 25.3815 5.92337 25.5 5.625 25.5C5.32663 25.5 5.04048 25.3815 4.8295 25.1705C4.61853 24.9595 4.5 24.6734 4.5 24.375ZM10.125 14.25C9.82663 14.25 9.54048 14.3685 9.32951 14.5795C9.11853 14.7905 9 15.0766 9 15.375C9 15.6734 9.11853 15.9595 9.32951 16.1705C9.54048 16.3815 9.82663 16.5 10.125 16.5H18.375C18.6734 16.5 18.9595 16.3815 19.1705 16.1705C19.3815 15.9595 19.5 15.6734 19.5 15.375C19.5 15.0766 19.3815 14.7905 19.1705 14.5795C18.9595 14.3685 18.6734 14.25 18.375 14.25H10.125ZM9 19.875C9 19.5766 9.11853 19.2905 9.32951 19.0795C9.54048 18.8685 9.82663 18.75 10.125 18.75H18.375C18.6734 18.75 18.9595 18.8685 19.1705 19.0795C19.3815 19.2905 19.5 19.5766 19.5 19.875C19.5 20.1734 19.3815 20.4595 19.1705 20.6705C18.9595 20.8815 18.6734 21 18.375 21H10.125C9.82663 21 9.54048 20.8815 9.32951 20.6705C9.11853 20.4595 9 20.1734 9 19.875ZM10.125 23.25C9.82663 23.25 9.54048 23.3685 9.32951 23.5795C9.11853 23.7905 9 24.0766 9 24.375C9 24.6734 9.11853 24.9595 9.32951 25.1705C9.54048 25.3815 9.82663 25.5 10.125 25.5H18.375C18.6734 25.5 18.9595 25.3815 19.1705 25.1705C19.3815 24.9595 19.5 24.6734 19.5 24.375C19.5 24.0766 19.3815 23.7905 19.1705 23.5795C18.9595 23.3685 18.6734 23.25 18.375 23.25H10.125ZM23.121 9.621L14.3775 0.879C14.3543 0.857447 14.3298 0.837406 14.304 0.819C14.2854 0.804679 14.2674 0.789669 14.25 0.774C14.1468 0.676606 14.037 0.586395 13.9215 0.504C13.8831 0.479223 13.843 0.457169 13.8015 0.438L13.7295 0.402L13.6545 0.3585C13.5735 0.312 13.491 0.264 13.4055 0.228C13.1068 0.108695 12.7907 0.0387816 12.4695 0.0209999C12.4398 0.0190684 12.4103 0.0155635 12.381 0.0105C12.3403 0.00421216 12.2992 0.000704092 12.258 0H3C2.20435 0 1.44129 0.31607 0.87868 0.87868C0.31607 1.44129 0 2.20435 0 3V27C0 27.7956 0.31607 28.5587 0.87868 29.1213C1.44129 29.6839 2.20435 30 3 30H21C21.7956 30 22.5587 29.6839 23.1213 29.1213C23.6839 28.5587 24 27.7956 24 27V11.742C23.9998 10.9464 23.6836 10.1835 23.121 9.621ZM21.75 27C21.75 27.1989 21.671 27.3897 21.5303 27.5303C21.3897 27.671 21.1989 27.75 21 27.75H3C2.80109 27.75 2.61032 27.671 2.46967 27.5303C2.32902 27.3897 2.25 27.1989 2.25 27V3C2.25 2.80109 2.32902 2.61032 2.46967 2.46967C2.61032 2.32902 2.80109 2.25 3 2.25H12V9C12 9.79565 12.3161 10.5587 12.8787 11.1213C13.4413 11.6839 14.2044 12 15 12H21.75V27ZM14.25 3.9315L20.067 9.75H15C14.8011 9.75 14.6103 9.67098 14.4697 9.53033C14.329 9.38968 14.25 9.19891 14.25 9V3.9315Z" fill="#3F0068"/>
</svg>
