<svg width="20" height="20" viewBox="0 0 20 20" fill="none" xmlns="http://www.w3.org/2000/svg">
<path d="M2.50016 17.7781C2.04183 17.7781 1.64961 17.6122 1.3235 17.2804C0.996829 16.948 0.833496 16.5486 0.833496 16.0822V5.0588H2.50016V16.0822H16.6668V17.7781H2.50016ZM5.8335 14.3863C5.37516 14.3863 4.98294 14.2204 4.65683 13.8885C4.33016 13.5561 4.16683 13.1568 4.16683 12.6904V3.3629C4.16683 2.89652 4.33016 2.49714 4.65683 2.16474C4.98294 1.83291 5.37516 1.66699 5.8335 1.66699H10.0002L11.6668 3.3629H17.5002C17.9585 3.3629 18.351 3.5291 18.6777 3.8615C19.0038 4.19333 19.1668 4.59243 19.1668 5.0588V12.6904C19.1668 13.1568 19.0038 13.5561 18.6777 13.8885C18.351 14.2204 17.9585 14.3863 17.5002 14.3863H5.8335Z" fill="#302D2D"/>
</svg>
