<svg width="17" height="19" viewBox="0 0 17 19" fill="none" xmlns="http://www.w3.org/2000/svg">
<path d="M11.1668 14.0001C11.6335 14.0001 12.0002 14.3667 12.0002 14.8334C12.0002 15.3001 11.6335 15.6667 11.1668 15.6667C10.7002 15.6667 10.3335 15.3001 10.3335 14.8334C10.3335 14.3667 10.7002 14.0001 11.1668 14.0001ZM11.1668 11.5001C8.89183 11.5001 6.95016 12.8834 6.16683 14.8334C6.95016 16.7834 8.89183 18.1667 11.1668 18.1667C13.4418 18.1667 15.3835 16.7834 16.1668 14.8334C15.3835 12.8834 13.4418 11.5001 11.1668 11.5001ZM11.1668 16.9167C10.6143 16.9167 10.0844 16.6973 9.69369 16.3066C9.30299 15.9159 9.0835 15.3859 9.0835 14.8334C9.0835 14.2809 9.30299 13.751 9.69369 13.3603C10.0844 12.9696 10.6143 12.7501 11.1668 12.7501C11.7194 12.7501 12.2493 12.9696 12.64 13.3603C13.0307 13.751 13.2502 14.2809 13.2502 14.8334C13.2502 15.3859 13.0307 15.9159 12.64 16.3066C12.2493 16.6973 11.7194 16.9167 11.1668 16.9167ZM4.61683 15.4584L4.37516 14.8334L4.61683 14.2167C5.69183 11.5501 8.25016 9.83341 11.1668 9.83341C12.0418 9.83341 12.8835 10.0084 13.6668 10.3001V5.66675L8.66683 0.666748H2.00016C1.07516 0.666748 0.333496 1.40841 0.333496 2.33341V15.6667C0.333496 16.1088 0.509091 16.5327 0.821651 16.8453C1.13421 17.1578 1.55814 17.3334 2.00016 17.3334H5.75016C5.29183 16.7834 4.91683 16.1501 4.61683 15.4584ZM7.8335 1.91675L12.4168 6.50008H7.8335V1.91675Z" fill="#302D2D"/>
</svg>
