<svg width="20" height="20" viewBox="0 0 20 20" fill="none" xmlns="http://www.w3.org/2000/svg">
<path d="M14.1663 14.9998C14.633 14.9998 14.9997 15.3665 14.9997 15.8332C14.9997 16.2998 14.633 16.6665 14.1663 16.6665C13.6997 16.6665 13.333 16.2998 13.333 15.8332C13.333 15.3665 13.6997 14.9998 14.1663 14.9998ZM14.1663 12.4998C11.8913 12.4998 9.94967 13.8832 9.16634 15.8332C9.94967 17.7832 11.8913 19.1665 14.1663 19.1665C16.4413 19.1665 18.383 17.7832 19.1663 15.8332C18.383 13.8832 16.4413 12.4998 14.1663 12.4998ZM14.1663 17.9165C13.6138 17.9165 13.0839 17.697 12.6932 17.3063C12.3025 16.9156 12.083 16.3857 12.083 15.8332C12.083 15.2806 12.3025 14.7507 12.6932 14.36C13.0839 13.9693 13.6138 13.7498 14.1663 13.7498C14.7189 13.7498 15.2488 13.9693 15.6395 14.36C16.0302 14.7507 16.2497 15.2806 16.2497 15.8332C16.2497 16.3857 16.0302 16.9156 15.6395 17.3063C15.2488 17.697 14.7189 17.9165 14.1663 17.9165ZM7.61634 16.4582L7.37467 15.8332L7.61634 15.2165C8.69134 12.5498 11.2497 10.8332 14.1663 10.8332C15.0413 10.8332 15.883 11.0082 16.6663 11.2998V6.6665L11.6663 1.6665H4.99967C4.07467 1.6665 3.33301 2.40817 3.33301 3.33317V16.6665C3.33301 17.1085 3.5086 17.5325 3.82116 17.845C4.13372 18.1576 4.55765 18.3332 4.99967 18.3332H8.74967C8.29134 17.7832 7.91634 17.1498 7.61634 16.4582ZM10.833 2.9165L15.4163 7.49984H10.833V2.9165Z" fill="#302D2D"/>
</svg>
