<svg width="24" height="20" viewBox="0 0 24 20" fill="none" xmlns="http://www.w3.org/2000/svg">
<path d="M4.58824 0.257696C4.44368 0.100083 4.24562 0.00774479 4.03652 0.000465372C3.82741 -0.00681404 3.62388 0.0715445 3.46955 0.218752C3.31521 0.36596 3.22233 0.570306 3.21082 0.78801C3.19931 1.00571 3.27008 1.21946 3.40796 1.38345L5.32842 3.58283C1.69756 5.90729 0.137188 9.49301 0.0671713 9.65979C0.0228585 9.76676 0 9.88204 0 9.99855C0 10.1151 0.0228585 10.2303 0.0671713 10.3373C0.0971784 10.4103 0.94738 12.3699 2.82783 14.34C5.33842 16.9459 8.50917 18.3322 12 18.3322C13.7934 18.3397 15.5685 17.9562 17.2112 17.2065L19.4118 19.729C19.4867 19.8144 19.5779 19.8825 19.6795 19.9292C19.7811 19.9758 19.8909 20 20.0019 20C20.2015 19.998 20.3935 19.9201 20.542 19.7811C20.6207 19.7079 20.6845 19.6191 20.7297 19.5199C20.7749 19.4206 20.8006 19.3129 20.8053 19.2032C20.8099 19.0934 20.7935 18.9838 20.7568 18.8807C20.7202 18.7777 20.6642 18.6834 20.592 18.6032L4.58824 0.257696ZM9.31936 8.16921L13.4904 12.9432C13.0315 13.1975 12.5197 13.33 12 13.3289C11.4231 13.3291 10.8569 13.1668 10.3613 12.8592C9.86568 12.5516 9.45904 12.1101 9.18439 11.5814C8.90973 11.0528 8.77728 10.4566 8.80104 9.85596C8.8248 9.25531 9.00389 8.67251 9.31936 8.16921ZM12 16.6644C8.91927 16.6644 6.22863 15.497 4.00811 13.1934C3.08816 12.2536 2.30925 11.1748 1.69756 9.99334C2.16767 9.07606 3.67803 6.50143 6.42868 4.84408L8.22911 6.90796C7.53512 7.83804 7.17834 8.99351 7.22164 10.1708C7.26493 11.3481 7.70552 12.4718 8.46578 13.3438C9.22604 14.2158 10.2572 14.7802 11.3776 14.9377C12.4981 15.0951 13.6359 14.8355 14.5906 14.2045L16.061 15.8931C14.7648 16.4099 13.3878 16.6714 12 16.6644ZM23.9328 10.3373C23.8928 10.4311 22.8826 12.766 20.592 14.9029C20.4452 15.0366 20.2569 15.1106 20.0619 15.1113C19.9497 15.1127 19.8386 15.0882 19.7366 15.0395C19.6345 14.9909 19.5441 14.9193 19.4718 14.8299C19.4015 14.7485 19.3473 14.6534 19.3122 14.5501C19.2772 14.4468 19.2621 14.3374 19.2676 14.228C19.2732 14.1186 19.2994 14.0115 19.3447 13.9126C19.39 13.8138 19.4536 13.7252 19.5318 13.652C20.6497 12.6069 21.5869 11.3694 22.3024 9.99334C21.6891 8.80986 20.9104 7.72789 19.9919 6.78287C17.7714 4.48968 15.0807 3.32224 12 3.32224C11.3498 3.31951 10.7005 3.37531 10.0595 3.48901C9.85032 3.52232 9.6369 3.46899 9.46493 3.34042C9.29296 3.21185 9.17609 3.01826 9.13932 2.80106C9.12216 2.69291 9.12563 2.58229 9.14953 2.47554C9.17343 2.36879 9.21729 2.268 9.27861 2.17893C9.33992 2.08986 9.41749 2.01427 9.50686 1.95647C9.59624 1.89867 9.69567 1.8598 9.79948 1.84208C10.5267 1.71582 11.2628 1.65306 12 1.65446C15.4908 1.65446 18.6616 3.0408 21.1722 5.6467C23.0526 7.61676 23.9028 9.5764 23.9328 9.65979C23.9771 9.76676 24 9.88204 24 9.99855C24 10.1151 23.9771 10.2303 23.9328 10.3373ZM12.6001 6.72033C12.4964 6.6998 12.3975 6.65817 12.3092 6.59781C12.2208 6.53746 12.1448 6.45957 12.0853 6.36858C11.9653 6.18483 11.9202 5.95891 11.96 5.74051C11.9998 5.52211 12.1212 5.32914 12.2975 5.20403C12.4738 5.07892 12.6906 5.03193 12.9002 5.0734C13.9205 5.28135 14.8493 5.82677 15.5485 6.62862C16.2476 7.43048 16.6799 8.44598 16.7811 9.52428C16.8006 9.74397 16.7358 9.96276 16.6008 10.1327C16.4658 10.3027 16.2717 10.41 16.061 10.4311H15.9809C15.783 10.4319 15.5919 10.3553 15.4456 10.2163C15.2992 10.0773 15.2083 9.88615 15.1908 9.68063C15.1217 8.96253 14.8324 8.28673 14.3658 7.75348C13.8991 7.22024 13.28 6.85794 12.6001 6.72033Z" fill="#3F0068"/>
</svg>
