<svg width="24" height="24" viewBox="0 0 24 24" fill="none" xmlns="http://www.w3.org/2000/svg">
<path d="M3.90149 20.5385H20.0985C20.3234 20.5381 20.5402 20.6062 20.7064 20.7292C20.8726 20.8522 20.976 21.0213 20.9963 21.2032C21.0166 21.3851 20.9524 21.5665 20.8162 21.7118C20.68 21.8571 20.4817 21.9558 20.2605 21.9883L20.0985 22H3.90149C3.67663 22.0003 3.45976 21.9323 3.2936 21.8093C3.12743 21.6862 3.024 21.5171 3.00368 21.3353C2.98337 21.1534 3.04763 20.9719 3.18382 20.8266C3.32001 20.6813 3.51826 20.5827 3.73952 20.5502L3.90149 20.5385ZM11.838 3.01169L12 3C12.2106 2.99994 12.4146 3.05988 12.5764 3.16938C12.7382 3.27887 12.8475 3.43099 12.8854 3.59923L12.8998 3.73077V16.5806L17.7265 12.6622C17.8754 12.5412 18.0719 12.4664 18.2817 12.4509C18.4915 12.4354 18.7014 12.4802 18.8747 12.5775L19.0007 12.6622C19.1495 12.7833 19.2413 12.943 19.26 13.1134C19.2787 13.2838 19.2233 13.4541 19.1033 13.5947L18.9989 13.6955L12.6371 18.8635C12.488 18.9844 12.2914 19.0589 12.0816 19.0741C11.8718 19.0893 11.662 19.0443 11.4889 18.9468L11.3629 18.8635L5.00109 13.6955C4.84167 13.5666 4.74748 13.3939 4.73707 13.2114C4.72667 13.0289 4.80082 12.8499 4.9449 12.7096C5.08897 12.5693 5.29254 12.4779 5.51547 12.4535C5.73839 12.429 5.96452 12.4732 6.14928 12.5775L6.27346 12.6622L11.1002 16.5806V3.73077C11.1001 3.55973 11.1739 3.39409 11.3087 3.2627C11.4436 3.1313 11.6309 3.04248 11.838 3.01169Z" fill="#3F0068"/>
</svg>
