<svg width="20" height="20" viewBox="0 0 20 20" fill="none" xmlns="http://www.w3.org/2000/svg">
<path d="M14.1668 15.0003C14.6335 15.0003 15.0002 15.367 15.0002 15.8337C15.0002 16.3003 14.6335 16.667 14.1668 16.667C13.7002 16.667 13.3335 16.3003 13.3335 15.8337C13.3335 15.367 13.7002 15.0003 14.1668 15.0003ZM14.1668 12.5003C11.8918 12.5003 9.95016 13.8837 9.16683 15.8337C9.95016 17.7837 11.8918 19.167 14.1668 19.167C16.4418 19.167 18.3835 17.7837 19.1668 15.8337C18.3835 13.8837 16.4418 12.5003 14.1668 12.5003ZM14.1668 17.917C13.6143 17.917 13.0844 17.6975 12.6937 17.3068C12.303 16.9161 12.0835 16.3862 12.0835 15.8337C12.0835 15.2811 12.303 14.7512 12.6937 14.3605C13.0844 13.9698 13.6143 13.7503 14.1668 13.7503C14.7194 13.7503 15.2493 13.9698 15.64 14.3605C16.0307 14.7512 16.2502 15.2811 16.2502 15.8337C16.2502 16.3862 16.0307 16.9161 15.64 17.3068C15.2493 17.6975 14.7194 17.917 14.1668 17.917ZM7.61683 16.4587L7.37516 15.8337L7.61683 15.217C8.69183 12.5503 11.2502 10.8337 14.1668 10.8337C15.0418 10.8337 15.8835 11.0087 16.6668 11.3003V6.66699L11.6668 1.66699H5.00016C4.07516 1.66699 3.3335 2.40866 3.3335 3.33366V16.667C3.3335 17.109 3.50909 17.5329 3.82165 17.8455C4.13421 18.1581 4.55814 18.3337 5.00016 18.3337H8.75016C8.29183 17.7837 7.91683 17.1503 7.61683 16.4587ZM10.8335 2.91699L15.4168 7.50033H10.8335V2.91699Z" fill="#302D2D"/>
</svg>
