<svg id="Layer_1" data-name="Layer 1" xmlns="http://www.w3.org/2000/svg" xmlns:xlink="http://www.w3.org/1999/xlink" viewBox="0 0 400 400"><defs><style>.cls-1{fill:url(#linear-gradient);}</style><linearGradient id="linear-gradient" x1="84.86" y1="33.03" x2="279.39" y2="369.95" gradientUnits="userSpaceOnUse"><stop offset="0" stop-color="#09c6f9"/><stop offset="0.74" stop-color="#045de9"/></linearGradient></defs><path class="cls-1" d="M383.22,175.57l-36.6,153.71a5.12,5.12,0,0,1-5,3.94H42.14a5.12,5.12,0,0,1-4.94-6.47L77.72,176.84a10.24,10.24,0,0,1,9.89-7.58H378.24a5.13,5.13,0,0,1,5.12,5.13,4.78,4.78,0,0,1-.14,1.19ZM27.77,66.79h60.6A5.13,5.13,0,0,1,91.65,68l22.19,18.49a25.57,25.57,0,0,0,16.4,5.93H335.18a5.13,5.13,0,0,1,5.12,5.13v41a5.12,5.12,0,0,1-5.12,5.12H80.69A25.61,25.61,0,0,0,56,162.57L26.67,271a2.05,2.05,0,0,1-4-.54V71.91a5.13,5.13,0,0,1,5.12-5.13Z"/></svg>