<svg width="24" height="24" viewBox="0 0 24 24" fill="none" xmlns="http://www.w3.org/2000/svg">
<rect width="24" height="24" rx="12" fill="#333333"/>
<path fill-rule="evenodd" clip-rule="evenodd" d="M19.404 12.1772C19.404 11.6242 19.3544 11.0923 19.2622 10.5818H11.916V13.599H16.1138C15.933 14.574 15.3835 15.4001 14.5574 15.9531V17.9102H17.0782C18.5531 16.5523 19.404 14.5527 19.404 12.1772Z" fill="white"/>
<path fill-rule="evenodd" clip-rule="evenodd" d="M11.9162 19.7999C14.0222 19.7999 15.7878 19.1015 17.0783 17.9102L14.5575 15.9531C13.8591 16.4211 12.9656 16.6977 11.9162 16.6977C9.88462 16.6977 8.16507 15.3256 7.55171 13.4819H4.9458V15.5028C6.22925 18.052 8.86707 19.7999 11.9162 19.7999Z" fill="white"/>
<path fill-rule="evenodd" clip-rule="evenodd" d="M7.55176 13.482C7.39576 13.014 7.30712 12.5141 7.30712 12C7.30712 11.4859 7.39576 10.986 7.55176 10.518V8.49707H4.94585C4.41757 9.55007 4.11621 10.7413 4.11621 12C4.11621 13.2586 4.41757 14.4499 4.94585 15.5029L7.55176 13.482Z" fill="white"/>
<path fill-rule="evenodd" clip-rule="evenodd" d="M11.9162 7.30222C13.0613 7.30222 14.0895 7.69577 14.8979 8.46868L17.1351 6.2315C15.7843 4.97286 14.0186 4.19995 11.9162 4.19995C8.86707 4.19995 6.22925 5.94786 4.9458 8.49704L7.55171 10.5179C8.16507 8.67431 9.88462 7.30222 11.9162 7.30222Z" fill="white"/>
</svg>
