<svg width="30" height="30" viewBox="0 0 30 30" fill="none" xmlns="http://www.w3.org/2000/svg">
<path d="M23.7999 11.573V4.00039C23.7999 3.523 23.6103 3.06516 23.2727 2.7276C22.9351 2.39003 22.4773 2.20039 21.9999 2.20039H3.9999C3.52251 2.20039 3.06468 2.39003 2.72711 2.7276C2.38954 3.06516 2.1999 3.523 2.1999 4.00039V22.0004C2.1999 22.4778 2.38954 22.9356 2.72711 23.2732C3.06468 23.6107 3.52251 23.8004 3.9999 23.8004H11.5725C11.7507 24.4286 11.9865 25.0298 12.2799 25.6004H3.9999C3.04512 25.6004 2.12945 25.2211 1.45432 24.546C0.779187 23.8708 0.399902 22.9552 0.399902 22.0004V4.00039C0.399902 3.04561 0.779187 2.12994 1.45432 1.45481C2.12945 0.779675 3.04512 0.400391 3.9999 0.400391H21.9999C22.9547 0.400391 23.8704 0.779675 24.5455 1.45481C25.2206 2.12994 25.5999 3.04561 25.5999 4.00039V12.2804C25.0246 11.986 24.4217 11.7491 23.7999 11.573ZM7.1499 9.40039C7.50794 9.40039 7.85132 9.25816 8.1045 9.00498C8.35767 8.75181 8.4999 8.40843 8.4999 8.05039C8.4999 7.69235 8.35767 7.34897 8.1045 7.0958C7.85132 6.84262 7.50794 6.70039 7.1499 6.70039C6.79186 6.70039 6.44848 6.84262 6.19531 7.0958C5.94213 7.34897 5.7999 7.69235 5.7999 8.05039C5.7999 8.40843 5.94213 8.75181 6.19531 9.00498C6.44848 9.25816 6.79186 9.40039 7.1499 9.40039ZM8.4999 13.4504C8.4999 13.8084 8.35767 14.1518 8.1045 14.405C7.85132 14.6582 7.50794 14.8004 7.1499 14.8004C6.79186 14.8004 6.44848 14.6582 6.19531 14.405C5.94213 14.1518 5.7999 13.8084 5.7999 13.4504C5.7999 13.0923 5.94213 12.749 6.19531 12.4958C6.44848 12.2426 6.79186 12.1004 7.1499 12.1004C7.50794 12.1004 7.85132 12.2426 8.1045 12.4958C8.35767 12.749 8.4999 13.0923 8.4999 13.4504ZM8.4999 18.8504C8.4999 19.2084 8.35767 19.5518 8.1045 19.805C7.85132 20.0582 7.50794 20.2004 7.1499 20.2004C6.79186 20.2004 6.44848 20.0582 6.19531 19.805C5.94213 19.5518 5.7999 19.2084 5.7999 18.8504C5.7999 18.4923 5.94213 18.149 6.19531 17.8958C6.44848 17.6426 6.79186 17.5004 7.1499 17.5004C7.50794 17.5004 7.85132 17.6426 8.1045 17.8958C8.35767 18.149 8.4999 18.4923 8.4999 18.8504ZM11.1999 8.50039C11.1999 8.2617 11.2947 8.03278 11.4635 7.86399C11.6323 7.69521 11.8612 7.60039 12.0999 7.60039H19.2999C19.5386 7.60039 19.7675 7.69521 19.9363 7.86399C20.1051 8.03278 20.1999 8.2617 20.1999 8.50039C20.1999 8.73908 20.1051 8.968 19.9363 9.13679C19.7675 9.30557 19.5386 9.40039 19.2999 9.40039H12.0999C11.8612 9.40039 11.6323 9.30557 11.4635 9.13679C11.2947 8.968 11.1999 8.73908 11.1999 8.50039ZM11.1999 13.9004C11.1999 13.6617 11.2947 13.4328 11.4635 13.264C11.6323 13.0952 11.8612 13.0004 12.0999 13.0004H15.4065C14.6811 13.5116 14.0259 14.1164 13.4625 14.8004H12.0999C11.8612 14.8004 11.6323 14.7056 11.4635 14.5368C11.2947 14.368 11.1999 14.1391 11.1999 13.9004ZM29.1999 21.1004C29.1999 23.2486 28.3465 25.3089 26.8275 26.828C25.3084 28.347 23.2482 29.2004 21.0999 29.2004C18.9516 29.2004 16.8914 28.347 15.3723 26.828C13.8533 25.3089 12.9999 23.2486 12.9999 21.1004C12.9999 18.9521 13.8533 16.8919 15.3723 15.3728C16.8914 13.8538 18.9516 13.0004 21.0999 13.0004C23.2482 13.0004 25.3084 13.8538 26.8275 15.3728C28.3465 16.8919 29.1999 18.9521 29.1999 21.1004ZM21.0999 16.6004C20.8612 16.6004 20.6323 16.6952 20.4635 16.864C20.2947 17.0328 20.1999 17.2617 20.1999 17.5004V21.1004C20.1999 21.3391 20.2947 21.568 20.4635 21.7368C20.6323 21.9056 20.8612 22.0004 21.0999 22.0004H23.7999C24.0386 22.0004 24.2675 21.9056 24.4363 21.7368C24.6051 21.568 24.6999 21.3391 24.6999 21.1004C24.6999 20.8617 24.6051 20.6328 24.4363 20.464C24.2675 20.2952 24.0386 20.2004 23.7999 20.2004H21.9999V17.5004C21.9999 17.2617 21.9051 17.0328 21.7363 16.864C21.5675 16.6952 21.3386 16.6004 21.0999 16.6004Z" fill="#3F0068"/>
</svg>
