<svg id="Layer_1" data-name="Layer 1" xmlns="http://www.w3.org/2000/svg" xmlns:xlink="http://www.w3.org/1999/xlink" viewBox="0 0 400 400"><defs><style>.cls-1{fill:url(#linear-gradient);}</style><linearGradient id="linear-gradient" x1="111.19" y1="46.17" x2="288.81" y2="353.83" gradientUnits="userSpaceOnUse"><stop offset="0" stop-color="#6e72fc"/><stop offset="0.74" stop-color="#ad1deb"/></linearGradient></defs><path class="cls-1" d="M200,44.4A155.59,155.59,0,0,1,310,310,155.59,155.59,0,1,1,90,90,154.57,154.57,0,0,1,200,44.4m0-22A177.6,177.6,0,1,0,377.6,200,177.61,177.61,0,0,0,200,22.4Zm33.34,79.09A33.34,33.34,0,1,0,200,134.83,33.34,33.34,0,0,0,233.34,101.49Zm0,197v-109A33.34,33.34,0,0,0,200,156.19h0a33.34,33.34,0,0,0-33.34,33.34v109A33.34,33.34,0,0,0,200,331.85h0A33.34,33.34,0,0,0,233.34,298.51Z"/></svg>