<svg width="25" height="30" viewBox="0 0 25 30" fill="none" xmlns="http://www.w3.org/2000/svg">
<path d="M12.5 9V0H3.5C2.70435 0 1.94129 0.31607 1.37868 0.87868C0.81607 1.44129 0.5 2.20435 0.5 3V27C0.5 27.7956 0.81607 28.5587 1.37868 29.1213C1.94129 29.6839 2.70435 30 3.5 30H21.5C22.2956 30 23.0587 29.6839 23.6213 29.1213C24.1839 28.5587 24.5 27.7956 24.5 27V12H15.5C14.7044 12 13.9413 11.6839 13.3787 11.1213C12.8161 10.5587 12.5 9.79565 12.5 9ZM5 15.375C5 15.0766 5.11853 14.7905 5.3295 14.5795C5.54048 14.3685 5.82663 14.25 6.125 14.25C6.42337 14.25 6.70952 14.3685 6.92049 14.5795C7.13147 14.7905 7.25 15.0766 7.25 15.375C7.25 15.6734 7.13147 15.9595 6.92049 16.1705C6.70952 16.3815 6.42337 16.5 6.125 16.5C5.82663 16.5 5.54048 16.3815 5.3295 16.1705C5.11853 15.9595 5 15.6734 5 15.375ZM5 19.875C5 19.5766 5.11853 19.2905 5.3295 19.0795C5.54048 18.8685 5.82663 18.75 6.125 18.75C6.42337 18.75 6.70952 18.8685 6.92049 19.0795C7.13147 19.2905 7.25 19.5766 7.25 19.875C7.25 20.1734 7.13147 20.4595 6.92049 20.6705C6.70952 20.8815 6.42337 21 6.125 21C5.82663 21 5.54048 20.8815 5.3295 20.6705C5.11853 20.4595 5 20.1734 5 19.875ZM5 24.375C5 24.0766 5.11853 23.7905 5.3295 23.5795C5.54048 23.3685 5.82663 23.25 6.125 23.25C6.42337 23.25 6.70952 23.3685 6.92049 23.5795C7.13147 23.7905 7.25 24.0766 7.25 24.375C7.25 24.6734 7.13147 24.9595 6.92049 25.1705C6.70952 25.3815 6.42337 25.5 6.125 25.5C5.82663 25.5 5.54048 25.3815 5.3295 25.1705C5.11853 24.9595 5 24.6734 5 24.375ZM9.5 15.375C9.5 15.0766 9.61853 14.7905 9.82951 14.5795C10.0405 14.3685 10.3266 14.25 10.625 14.25H18.875C19.1734 14.25 19.4595 14.3685 19.6705 14.5795C19.8815 14.7905 20 15.0766 20 15.375C20 15.6734 19.8815 15.9595 19.6705 16.1705C19.4595 16.3815 19.1734 16.5 18.875 16.5H10.625C10.3266 16.5 10.0405 16.3815 9.82951 16.1705C9.61853 15.9595 9.5 15.6734 9.5 15.375ZM9.5 19.875C9.5 19.5766 9.61853 19.2905 9.82951 19.0795C10.0405 18.8685 10.3266 18.75 10.625 18.75H18.875C19.1734 18.75 19.4595 18.8685 19.6705 19.0795C19.8815 19.2905 20 19.5766 20 19.875C20 20.1734 19.8815 20.4595 19.6705 20.6705C19.4595 20.8815 19.1734 21 18.875 21H10.625C10.3266 21 10.0405 20.8815 9.82951 20.6705C9.61853 20.4595 9.5 20.1734 9.5 19.875ZM9.5 24.375C9.5 24.0766 9.61853 23.7905 9.82951 23.5795C10.0405 23.3685 10.3266 23.25 10.625 23.25H18.875C19.1734 23.25 19.4595 23.3685 19.6705 23.5795C19.8815 23.7905 20 24.0766 20 24.375C20 24.6734 19.8815 24.9595 19.6705 25.1705C19.4595 25.3815 19.1734 25.5 18.875 25.5H10.625C10.3266 25.5 10.0405 25.3815 9.82951 25.1705C9.61853 24.9595 9.5 24.6734 9.5 24.375ZM14.75 9V0.75L23.75 9.75H15.5C15.3011 9.75 15.1103 9.67098 14.9697 9.53033C14.829 9.38968 14.75 9.19891 14.75 9Z" fill="#3F0068"/>
</svg>
