<svg width="31" height="31" viewBox="0 0 31 31" fill="none" xmlns="http://www.w3.org/2000/svg">
<path d="M23.2502 16.7894H16.7918V23.2477C16.7918 23.5903 16.6557 23.9188 16.4135 24.1611C16.1713 24.4033 15.8427 24.5394 15.5002 24.5394C15.1576 24.5394 14.8291 24.4033 14.5868 24.1611C14.3446 23.9188 14.2085 23.5903 14.2085 23.2477V16.7894H7.75016C7.40759 16.7894 7.07905 16.6533 6.83682 16.4111C6.59458 16.1688 6.4585 15.8403 6.4585 15.4977C6.4585 15.1552 6.59458 14.8266 6.83682 14.5844C7.07905 14.3421 7.40759 14.2061 7.75016 14.2061H14.2085V7.74772C14.2085 7.40515 14.3446 7.07661 14.5868 6.83437C14.8291 6.59214 15.1576 6.45605 15.5002 6.45605C15.8427 6.45605 16.1713 6.59214 16.4135 6.83437C16.6557 7.07661 16.7918 7.40515 16.7918 7.74772V14.2061H23.2502C23.5927 14.2061 23.9213 14.3421 24.1635 14.5844C24.4057 14.8266 24.5418 15.1552 24.5418 15.4977C24.5418 15.8403 24.4057 16.1688 24.1635 16.4111C23.9213 16.6533 23.5927 16.7894 23.2502 16.7894Z" fill="#3F0068"/>
</svg>
