<svg width="24" height="16" viewBox="0 0 24 16" fill="none" xmlns="http://www.w3.org/2000/svg">
<path d="M24 8C24 8 19.5 0 12 0C4.5 0 0 8 0 8C0 8 4.5 16 12 16C19.5 16 24 8 24 8ZM1.7595 8C2.48477 6.93109 3.31896 5.93554 4.2495 5.02836C6.18 3.15345 8.82 1.45455 12 1.45455C15.18 1.45455 17.8185 3.15345 19.752 5.02836C20.6825 5.93554 21.5167 6.93109 22.242 8C22.155 8.12655 22.059 8.26618 21.9495 8.41891C21.447 9.11709 20.7045 10.048 19.752 10.9716C17.8185 12.8465 15.1785 14.5455 12 14.5455C8.82 14.5455 6.1815 12.8465 4.248 10.9716C3.31747 10.0645 2.48478 9.06891 1.7595 8Z" fill="#3F0068"/>
<path d="M12 4.36364C11.0054 4.36364 10.0516 4.74675 9.34835 5.4287C8.64509 6.11065 8.25 7.03558 8.25 8C8.25 8.96442 8.64509 9.88935 9.34835 10.5713C10.0516 11.2532 11.0054 11.6364 12 11.6364C12.9946 11.6364 13.9484 11.2532 14.6517 10.5713C15.3549 9.88935 15.75 8.96442 15.75 8C15.75 7.03558 15.3549 6.11065 14.6517 5.4287C13.9484 4.74675 12.9946 4.36364 12 4.36364ZM6.75 8C6.75 6.64981 7.30312 5.35491 8.28769 4.40018C9.27226 3.44545 10.6076 2.90909 12 2.90909C13.3924 2.90909 14.7277 3.44545 15.7123 4.40018C16.6969 5.35491 17.25 6.64981 17.25 8C17.25 9.35019 16.6969 10.6451 15.7123 11.5998C14.7277 12.5545 13.3924 13.0909 12 13.0909C10.6076 13.0909 9.27226 12.5545 8.28769 11.5998C7.30312 10.6451 6.75 9.35019 6.75 8Z" fill="#3F0068"/>
</svg>
