<svg width="16" height="23" viewBox="0 0 16 23" fill="none" xmlns="http://www.w3.org/2000/svg">
<ellipse cx="8" cy="8.1656" rx="8" ry="8.1656" fill="#0065BD"/>
<path d="M8 3.29672L8.62146 5.24896C8.88562 6.07878 9.65637 6.64229 10.5272 6.64229H12.5812L10.8845 7.90054C10.1978 8.40975 9.91073 9.29908 10.17 10.1137L10.8098 12.1233L9.19133 10.9231C8.48377 10.3984 7.51623 10.3984 6.80867 10.9231L5.19024 12.1233L5.82996 10.1137C6.08927 9.29908 5.80217 8.40975 5.11552 7.90054L3.41882 6.64229L5.47277 6.64229C6.34363 6.64229 7.11439 6.07878 7.37854 5.24896L8 3.29672Z" fill="#0065BD" stroke="white" stroke-width="2"/>
<path d="M14.1631 16.563C9.77199 19.1181 6.83307 19.3026 1.83791 16.679V20.7606C1.79151 22.3453 2.34419 22.2251 3.67398 21.4299L5.1166 20.4929L6.55922 21.4299C7.68953 22.3827 8.91988 21.4299 8.91988 21.4299C8.91988 21.4299 10.2777 20.8075 10.6248 20.7606L12.7205 21.5638C13.721 22.1029 13.958 21.6957 14.1631 20.4929V16.563Z" fill="#0065BD" stroke="#0065BD"/>
<path d="M8.14171 5.02148L8.79484 7.07323H10.9084L9.1985 8.34127L9.85163 10.393L8.14171 9.12497L6.43179 10.393L7.08492 8.34127L5.375 7.07323H7.48858L8.14171 5.02148Z" fill="#0065BD"/>
</svg>
