<svg width="20" height="20" viewBox="0 0 20 20" fill="none" xmlns="http://www.w3.org/2000/svg">
<path d="M10 20C8.61667 20 7.31667 19.7375 6.1 19.2125C4.88333 18.6875 3.825 17.975 2.925 17.075C2.025 16.175 1.3125 15.1167 0.7875 13.9C0.2625 12.6833 0 11.3833 0 10C0 8.61667 0.2625 7.31667 0.7875 6.1C1.3125 4.88333 2.025 3.825 2.925 2.925C3.825 2.025 4.88333 1.3125 6.1 0.7875C7.31667 0.2625 8.61667 0 10 0C11.3833 0 12.6833 0.2625 13.9 0.7875C15.1167 1.3125 16.175 2.025 17.075 2.925C17.975 3.825 18.6875 4.88333 19.2125 6.1C19.7375 7.31667 20 8.61667 20 10C20 11.3833 19.7375 12.6833 19.2125 13.9C18.6875 15.1167 17.975 16.175 17.075 17.075C16.175 17.975 15.1167 18.6875 13.9 19.2125C12.6833 19.7375 11.3833 20 10 20ZM10 18L9.3 17.3C9.2 17.2 9.125 17.0917 9.075 16.975C9.025 16.8583 9 16.7333 9 16.6V11C8.45 11 7.97917 10.8042 7.5875 10.4125C7.19583 10.0208 7 9.55 7 9V8L3.875 4.875C3.29167 5.575 2.83333 6.35833 2.5 7.225C2.16667 8.09167 2 9.01667 2 10C2 12.2333 2.775 14.125 4.325 15.675C5.875 17.225 7.76667 18 10 18ZM11 17.95C12.9833 17.7 14.6458 16.825 15.9875 15.325C17.3292 13.825 18 12.05 18 10C18 7.78333 17.2208 5.89583 15.6625 4.3375C14.1042 2.77917 12.2167 2 10 2C9.26667 2 8.5625 2.09583 7.8875 2.2875C7.2125 2.47917 6.58333 2.74167 6 3.075V5H9.55C9.85 5 10.1375 5.06667 10.4125 5.2C10.6875 5.33333 10.9167 5.51667 11.1 5.75L12.5 7.5H14C14.2833 7.5 14.5208 7.59583 14.7125 7.7875C14.9042 7.97917 15 8.21667 15 8.5V9.55C15 9.7 14.9792 9.84167 14.9375 9.975C14.8958 10.1083 14.8333 10.2417 14.75 10.375L11 16V17.95Z" fill="#727272"/>
</svg>
