<svg width="30" height="32" viewBox="0 0 30 32" fill="none" xmlns="http://www.w3.org/2000/svg">
<path d="M21.7501 16.1692C23.4472 16.1688 25.0987 15.6201 26.4587 14.605C27.8187 13.5898 28.8143 12.1625 29.2973 10.5356C29.7804 8.90871 29.7249 7.16931 29.1392 5.57649C28.5536 3.98368 27.469 2.62267 26.0471 1.69621C24.6253 0.769745 22.9421 0.327398 21.2485 0.435057C19.5548 0.542715 17.9413 1.19462 16.6481 2.29366C15.355 3.39271 14.4515 4.88008 14.0722 6.53424C13.693 8.18839 13.8582 9.92081 14.5433 11.4734L11.3596 13.9484C10.5653 12.9729 9.49244 12.2627 8.28416 11.9125C7.07588 11.5622 5.78955 11.5886 4.59665 11.9881C3.40375 12.3876 2.36096 13.1412 1.60729 14.1485C0.853633 15.1558 0.424909 16.3688 0.378277 17.626C0.331645 18.8831 0.669322 20.1246 1.34629 21.185C2.02326 22.2453 3.00735 23.0741 4.16738 23.5609C5.3274 24.0476 6.60825 24.1693 7.83915 23.9095C9.07006 23.6497 10.1925 23.0209 11.057 22.1069L16.43 25.1219C16.0028 26.2908 16.021 27.576 16.4813 28.7322C16.9415 29.8883 17.8115 30.8345 18.9251 31.39C20.0387 31.9455 21.3178 32.0713 22.5183 31.7435C23.7188 31.4158 24.7565 30.6573 25.4332 29.613C26.11 28.5686 26.3784 27.3116 26.1872 26.082C25.996 24.8523 25.3586 23.7362 24.3967 22.9467C23.4348 22.1571 22.2158 21.7496 20.9724 21.8018C19.7291 21.854 18.5485 22.3623 17.6562 23.2297L12.2843 20.2158C12.5928 19.4676 12.7511 18.666 12.7501 17.8567C12.7501 17.1929 12.6455 16.5517 12.4508 15.9509L15.746 13.3893C16.4844 14.2614 17.4042 14.9619 18.4412 15.442C19.4782 15.9221 20.6074 16.1703 21.7501 16.1692ZM21.7501 13.9192C20.2582 13.9192 18.8275 13.3266 17.7726 12.2717C16.7177 11.2168 16.1251 9.78604 16.1251 8.29419C16.1251 6.80235 16.7177 5.37161 17.7726 4.31672C18.8275 3.26183 20.2582 2.66919 21.7501 2.66919C23.2419 2.66919 24.6727 3.26183 25.7276 4.31672C26.7825 5.37161 27.3751 6.80235 27.3751 8.29419C27.3751 9.78604 26.7825 11.2168 25.7276 12.2717C24.6727 13.3266 23.2419 13.9192 21.7501 13.9192ZM6.56259 21.7942C5.5183 21.7942 4.51678 21.3794 3.77835 20.6409C3.03993 19.9025 2.62509 18.901 2.62509 17.8567C2.62509 16.8124 3.03993 15.8109 3.77835 15.0725C4.51678 14.334 5.5183 13.9192 6.56259 13.9192C7.60688 13.9192 8.60839 14.334 9.34682 15.0725C10.0852 15.8109 10.5001 16.8124 10.5001 17.8567C10.5001 18.901 10.0852 19.9025 9.34682 20.6409C8.60839 21.3794 7.60688 21.7942 6.56259 21.7942ZM24.0001 26.8567C24.0001 27.6026 23.7038 28.318 23.1763 28.8454C22.6489 29.3729 21.9335 29.6692 21.1876 29.6692C20.4417 29.6692 19.7263 29.3729 19.1988 28.8454C18.6714 28.318 18.3751 27.6026 18.3751 26.8567C18.3751 26.1108 18.6714 25.3954 19.1988 24.868C19.7263 24.3405 20.4417 24.0442 21.1876 24.0442C21.9335 24.0442 22.6489 24.3405 23.1763 24.868C23.7038 25.3954 24.0001 26.1108 24.0001 26.8567Z" fill="#3F0068"/>
</svg>
