<svg width="31" height="32" viewBox="0 0 31 32" fill="none" xmlns="http://www.w3.org/2000/svg">
<path d="M22.2501 16C23.9472 15.9996 25.5987 15.4509 26.9587 14.4358C28.3187 13.4206 29.3143 11.9933 29.7973 10.3664C30.2804 8.73952 30.2249 7.00012 29.6392 5.4073C29.0536 3.81449 27.969 2.45348 26.5471 1.52702C25.1253 0.600556 23.4421 0.158209 21.7485 0.265867C20.0548 0.373526 18.4413 1.02543 17.1481 2.12447C15.855 3.22352 14.9515 4.7109 14.5722 6.36505C14.193 8.0192 14.3582 9.75162 15.0433 11.3043L11.8596 13.7793C11.0653 12.8037 9.99244 12.0935 8.78416 11.7433C7.57588 11.393 6.28955 11.4194 5.09665 11.8189C3.90375 12.2184 2.86096 12.972 2.10729 13.9793C1.35363 14.9866 0.924909 16.1996 0.878277 17.4568C0.831645 18.7139 1.16932 19.9554 1.84629 21.0158C2.52326 22.0761 3.50735 22.9049 4.66738 23.3917C5.8274 23.8785 7.10825 24.0001 8.33915 23.7403C9.57006 23.4805 10.6925 22.8517 11.557 21.9378L16.93 24.9528C16.5028 26.1216 16.521 27.4068 16.9813 28.563C17.4415 29.7192 18.3115 30.6653 19.4251 31.2208C20.5387 31.7763 21.8178 31.9021 23.0183 31.5744C24.2188 31.2466 25.2565 30.4881 25.9332 29.4438C26.61 28.3995 26.8784 27.1424 26.6872 25.9128C26.496 24.6831 25.8586 23.567 24.8967 22.7775C23.9348 21.9879 22.7158 21.5804 21.4724 21.6326C20.2291 21.6848 19.0485 22.1931 18.1562 23.0605L12.7843 20.0466C13.0928 19.2984 13.2511 18.4968 13.2501 17.6875C13.2501 17.0238 13.1455 16.3825 12.9508 15.7818L16.246 13.2201C16.9844 14.0922 17.9042 14.7927 18.9412 15.2728C19.9782 15.7529 21.1074 16.0011 22.2501 16Z" fill="#3F0068"/>
</svg>
