<svg width="25" height="24" viewBox="0 0 25 24" fill="none" xmlns="http://www.w3.org/2000/svg">
<path d="M21.2578 3V2H22.2578V3H21.2578ZM12.2429 13.6974C11.8578 14.0932 11.2246 14.1018 10.8288 13.7167C10.433 13.3315 10.4244 12.6984 10.8096 12.3026L12.2429 13.6974ZM20.2578 11V3H22.2578V11H20.2578ZM21.2578 4H13.4726V2H21.2578V4ZM21.9745 3.69742L12.2429 13.6974L10.8096 12.3026L20.5412 2.30258L21.9745 3.69742Z" fill="white"/>
<path d="M20.2852 15V15C20.2852 16.8692 20.2852 17.8038 19.8832 18.5C19.6199 18.9561 19.2412 19.3348 18.7852 19.5981C18.089 20 17.1544 20 15.2852 20H10.7147C7.88626 20 6.47204 20 5.59337 19.1213C4.71469 18.2426 4.71469 16.8284 4.71469 14V8.86577C4.71469 7.12352 4.71469 6.25239 5.06551 5.59221C5.34627 5.06389 5.77857 4.63158 6.30689 4.35083C6.96708 4 7.8382 4 9.58046 4V4" stroke="white" stroke-width="2" stroke-linecap="round"/>
</svg>
