<svg width="22" height="18" viewBox="0 0 22 18" fill="none" xmlns="http://www.w3.org/2000/svg">
<path d="M22 2.25V15.75C22 16.3687 21.7846 16.8984 21.3538 17.3391C20.9229 17.7797 20.405 18 19.8 18H2.2C1.595 18 1.07708 17.7797 0.64625 17.3391C0.215417 16.8984 0 16.3687 0 15.75V2.25C0 1.63125 0.215417 1.10156 0.64625 0.660938C1.07708 0.220313 1.595 0 2.2 0H19.8C20.405 0 20.9229 0.220313 21.3538 0.660938C21.7846 1.10156 22 1.63125 22 2.25ZM2.2 4.5H19.8V2.25H2.2V4.5ZM2.2 9V15.75H19.8V9H2.2Z" fill="#727272"/>
</svg>
