<svg width="32" height="32" viewBox="0 0 32 32" fill="none" xmlns="http://www.w3.org/2000/svg">
<path d="M13.2 0.599609C11.2904 0.599609 9.45907 1.35818 8.10881 2.70844C6.75854 4.0587 5.99998 5.89005 5.99998 7.79961C5.99998 9.70917 6.75854 11.5405 8.10881 12.8908C9.45907 14.241 11.2904 14.9996 13.2 14.9996C15.1095 14.9996 16.9409 14.241 18.2911 12.8908C19.6414 11.5405 20.4 9.70917 20.4 7.79961C20.4 5.89005 19.6414 4.0587 18.2911 2.70844C16.9409 1.35818 15.1095 0.599609 13.2 0.599609ZM4.21618 16.7996C3.74212 16.7977 3.27236 16.8894 2.83382 17.0695C2.39528 17.2495 1.9966 17.5144 1.66064 17.8488C1.32468 18.1833 1.05805 18.5808 0.876035 19.0185C0.694022 19.4562 0.600209 19.9256 0.599976 20.3996C0.599976 23.4434 2.09938 25.7384 4.44298 27.2342C6.75058 28.7048 9.86098 29.3996 13.2 29.3996H13.29C13.23 29.1034 13.1998 28.8019 13.2 28.4996V21.2996C13.1998 20.2491 13.5673 19.2316 14.2386 18.4235C14.9099 17.6154 15.8428 17.0677 16.8756 16.8752C16.8802 16.85 16.885 16.8248 16.89 16.7996H4.21618ZM18.6 17.6996V18.5996H17.7C16.9839 18.5996 16.2971 18.8841 15.7908 19.3904C15.2844 19.8968 15 20.5835 15 21.2996V28.4996C15 29.2157 15.2844 29.9024 15.7908 30.4088C16.2971 30.9151 16.9839 31.1996 17.7 31.1996H28.5C29.2161 31.1996 29.9028 30.9151 30.4092 30.4088C30.9155 29.9024 31.2 29.2157 31.2 28.4996V21.2996C31.2 20.5835 30.9155 19.8968 30.4092 19.3904C29.9028 18.8841 29.2161 18.5996 28.5 18.5996H27.6V17.6996C27.6 16.9835 27.3155 16.2968 26.8092 15.7904C26.3028 15.2841 25.6161 14.9996 24.9 14.9996H21.3C20.5839 14.9996 19.8971 15.2841 19.3908 15.7904C18.8844 16.2968 18.6 16.9835 18.6 17.6996ZM21.3 16.7996H24.9C25.1387 16.7996 25.3676 16.8944 25.5364 17.0632C25.7052 17.232 25.8 17.4609 25.8 17.6996V18.5996H20.4V17.6996C20.4 17.4609 20.4948 17.232 20.6636 17.0632C20.8324 16.8944 21.0613 16.7996 21.3 16.7996Z" fill="#3F0068"/>
</svg>
