<svg width="32" height="32" viewBox="0 0 32 32" fill="none" xmlns="http://www.w3.org/2000/svg">
<path d="M13.2 0.600098C11.2904 0.600098 9.45907 1.35867 8.10881 2.70893C6.75854 4.05919 5.99998 5.89054 5.99998 7.8001C5.99998 9.70966 6.75854 11.541 8.10881 12.8913C9.45907 14.2415 11.2904 15.0001 13.2 15.0001C15.1095 15.0001 16.9409 14.2415 18.2911 12.8913C19.6414 11.541 20.4 9.70966 20.4 7.8001C20.4 5.89054 19.6414 4.05919 18.2911 2.70893C16.9409 1.35867 15.1095 0.600098 13.2 0.600098ZM7.79998 7.8001C7.79998 6.36793 8.3689 4.99442 9.3816 3.98172C10.3943 2.96902 11.7678 2.4001 13.2 2.4001C14.6321 2.4001 16.0057 2.96902 17.0184 3.98172C18.031 4.99442 18.6 6.36793 18.6 7.8001C18.6 9.23227 18.031 10.6058 17.0184 11.6185C16.0057 12.6312 14.6321 13.2001 13.2 13.2001C11.7678 13.2001 10.3943 12.6312 9.3816 11.6185C8.3689 10.6058 7.79998 9.23227 7.79998 7.8001ZM4.21618 16.8001C3.74212 16.7982 3.27236 16.8899 2.83382 17.07C2.39528 17.25 1.9966 17.5148 1.66064 17.8493C1.32468 18.1838 1.05805 18.5812 0.876035 19.019C0.694022 19.4567 0.600209 19.926 0.599976 20.4001C0.599976 23.4439 2.09938 25.7389 4.44298 27.2347C6.75058 28.7053 9.86098 29.4001 13.2 29.4001H13.29C13.23 29.1039 13.1998 28.8024 13.2 28.5001V27.6001C10.077 27.6001 7.33738 26.9449 5.41138 25.7155C3.52138 24.5095 2.39998 22.7581 2.39998 20.4001C2.39998 19.4047 3.20638 18.6001 4.21618 18.6001H14.0982C14.7751 17.6974 15.7663 17.082 16.8756 16.8757C16.8802 16.8505 16.885 16.8253 16.89 16.8001H4.21618ZM18.6 17.7001V18.6001H17.7C16.9839 18.6001 16.2971 18.8846 15.7908 19.3909C15.2844 19.8973 15 20.584 15 21.3001V28.5001C15 29.2162 15.2844 29.9029 15.7908 30.4093C16.2971 30.9156 16.9839 31.2001 17.7 31.2001H28.5C29.2161 31.2001 29.9028 30.9156 30.4092 30.4093C30.9155 29.9029 31.2 29.2162 31.2 28.5001V21.3001C31.2 20.584 30.9155 19.8973 30.4092 19.3909C29.9028 18.8846 29.2161 18.6001 28.5 18.6001H27.6V17.7001C27.6 16.984 27.3155 16.2973 26.8092 15.7909C26.3028 15.2846 25.6161 15.0001 24.9 15.0001H21.3C20.5839 15.0001 19.8971 15.2846 19.3908 15.7909C18.8844 16.2973 18.6 16.984 18.6 17.7001ZM21.3 16.8001H24.9C25.1387 16.8001 25.3676 16.8949 25.5364 17.0637C25.7052 17.2325 25.8 17.4614 25.8 17.7001V18.6001H20.4V17.7001C20.4 17.4614 20.4948 17.2325 20.6636 17.0637C20.8324 16.8949 21.0613 16.8001 21.3 16.8001Z" fill="#3F0068"/>
</svg>
