<svg width="13" height="12" viewBox="0 0 13 12" fill="none" xmlns="http://www.w3.org/2000/svg">
<path d="M10.9792 0.382584C11.2039 0.13448 11.5028 -0.00268272 11.813 3.97663e-05C12.1232 0.00276225 12.4203 0.145157 12.6417 0.397177C12.8631 0.649196 12.9914 0.991129 12.9996 1.35082C13.0078 1.71052 12.8952 2.05984 12.6856 2.32508L6.32264 11.5565C6.21323 11.6933 6.08117 11.803 5.93437 11.8791C5.78757 11.9553 5.62904 11.9963 5.46826 11.9998C5.30748 12.0032 5.14775 11.969 4.99862 11.8992C4.8495 11.8294 4.71403 11.7255 4.60033 11.5935L0.380675 6.69846C0.263165 6.57144 0.168913 6.41826 0.103542 6.24806C0.0381707 6.07786 0.00301963 5.89413 0.000186137 5.70783C-0.00264735 5.52153 0.0268948 5.33648 0.0870496 5.16371C0.147204 4.99094 0.23674 4.834 0.350315 4.70225C0.463889 4.57049 0.599176 4.46663 0.748105 4.39684C0.897034 4.32706 1.05655 4.29279 1.21715 4.29608C1.37774 4.29936 1.53612 4.34014 1.68283 4.41598C1.82955 4.49181 1.96159 4.60115 2.07109 4.73747L5.41045 8.60951L10.9489 0.423284C10.9589 0.409041 10.968 0.395453 10.9792 0.382584Z" fill="#3F0068"/>
</svg>
