<svg width="13" height="11" viewBox="0 0 13 11" fill="none" xmlns="http://www.w3.org/2000/svg">
<path id="Vector" d="M5.02808 10.6095C4.69207 10.6151 4.36617 10.4944 4.11474 10.2713L0.461409 7.01747C0.326476 6.89744 0.216486 6.75198 0.137723 6.58942C0.0589606 6.42685 0.0129747 6.25038 0.00237338 6.07002C-0.00822798 5.88967 0.0167555 5.70898 0.0759295 5.5383C0.135103 5.36761 0.227302 5.21025 0.347243 5.07522C0.467183 4.94018 0.61253 4.83011 0.774977 4.75129C0.937425 4.67247 1.11377 4.62645 1.294 4.61584C1.65797 4.59442 2.01557 4.71856 2.28808 4.96097L4.96414 7.3191L10.5081 1.18614C10.7559 0.938381 11.0892 0.795071 11.4394 0.785652C11.7896 0.776233 12.1302 0.901436 12.391 1.13551C12.6518 1.36959 12.813 1.69477 12.8417 2.04419C12.8703 2.3936 12.764 2.74069 12.5448 3.01414L6.08755 10.1434C5.95645 10.2947 5.79339 10.415 5.61017 10.4956C5.42695 10.5763 5.22814 10.6151 5.02808 10.6095Z" fill="#28A197"/>
</svg>
