<svg width="22" height="22" viewBox="0 0 22 22" fill="none" xmlns="http://www.w3.org/2000/svg">
<path d="M6.11111 17.1111C6.45741 17.1111 6.74769 16.994 6.98194 16.7597C7.2162 16.5255 7.33333 16.2352 7.33333 15.8889C7.33333 15.5426 7.2162 15.2523 6.98194 15.0181C6.74769 14.7838 6.45741 14.6667 6.11111 14.6667C5.76481 14.6667 5.47454 14.7838 5.24028 15.0181C5.00602 15.2523 4.88889 15.5426 4.88889 15.8889C4.88889 16.2352 5.00602 16.5255 5.24028 16.7597C5.47454 16.994 5.76481 17.1111 6.11111 17.1111ZM6.11111 12.2222C6.45741 12.2222 6.74769 12.1051 6.98194 11.8708C7.2162 11.6366 7.33333 11.3463 7.33333 11C7.33333 10.6537 7.2162 10.3634 6.98194 10.1292C6.74769 9.89491 6.45741 9.77778 6.11111 9.77778C5.76481 9.77778 5.47454 9.89491 5.24028 10.1292C5.00602 10.3634 4.88889 10.6537 4.88889 11C4.88889 11.3463 5.00602 11.6366 5.24028 11.8708C5.47454 12.1051 5.76481 12.2222 6.11111 12.2222ZM6.11111 7.33333C6.45741 7.33333 6.74769 7.2162 6.98194 6.98194C7.2162 6.74769 7.33333 6.45741 7.33333 6.11111C7.33333 5.76481 7.2162 5.47454 6.98194 5.24028C6.74769 5.00602 6.45741 4.88889 6.11111 4.88889C5.76481 4.88889 5.47454 5.00602 5.24028 5.24028C5.00602 5.47454 4.88889 5.76481 4.88889 6.11111C4.88889 6.45741 5.00602 6.74769 5.24028 6.98194C5.47454 7.2162 5.76481 7.33333 6.11111 7.33333ZM9.77778 17.1111H17.1111V14.6667H9.77778V17.1111ZM9.77778 12.2222H17.1111V9.77778H9.77778V12.2222ZM9.77778 7.33333H17.1111V4.88889H9.77778V7.33333ZM2.44444 22C1.77222 22 1.19676 21.7606 0.718056 21.2819C0.239352 20.8032 0 20.2278 0 19.5556V2.44444C0 1.77222 0.239352 1.19676 0.718056 0.718056C1.19676 0.239352 1.77222 0 2.44444 0H19.5556C20.2278 0 20.8032 0.239352 21.2819 0.718056C21.7606 1.19676 22 1.77222 22 2.44444V19.5556C22 20.2278 21.7606 20.8032 21.2819 21.2819C20.8032 21.7606 20.2278 22 19.5556 22H2.44444ZM2.44444 19.5556H19.5556V2.44444H2.44444V19.5556Z" fill="#ffffff"/>
</svg>
