<svg width="30" height="32" viewBox="0 0 28 30" fill="none" xmlns="http://www.w3.org/2000/svg">
<svg width="16" height="15" viewBox="0 0 10 15" fill="none" xmlns="http://www.w3.org/2000/svg">
<path d="M8.89879 3.72593L0.600098 11.6869V14.5692H3.60143L11.8968 6.60817L8.89879 3.72593ZM12.5988 0.169189L15.6001 3.05303L13.3158 5.24796L10.3144 2.36572L12.5988 0.169189Z" fill="#3F0068"/>
</svg>
<path d="M9.7239 25.9882L15.3001 31.3693L20.8763 25.9882H26.7334C28.535 25.9882 30.0001 24.5744 30.0001 22.8358V3.92165C30.0001 2.18312 28.535 0.769287 26.7334 0.769287H3.86676C2.0652 0.769287 0.600098 2.18312 0.600098 3.92165V22.8358C0.600098 24.5744 2.0652 25.9882 3.86676 25.9882H9.7239ZM3.86676 3.92165H26.7334V22.8358H19.5239L15.3001 26.9118L11.0763 22.8358H3.86676V3.92165Z" fill="#3F0068"/>
</svg>



