<svg width="36" height="36" viewBox="0 0 36 36" fill="none" xmlns="http://www.w3.org/2000/svg">
<path d="M12.7234 28.819L18.2996 34.2001L23.8758 28.819H29.7329C31.5345 28.819 32.9996 27.4052 32.9996 25.6666V6.75246C32.9996 5.01393 31.5345 3.6001 29.7329 3.6001H6.86628C5.06471 3.6001 3.59961 5.01393 3.59961 6.75246V25.6666C3.59961 27.4052 5.06471 28.819 6.86628 28.819H12.7234ZM6.86628 6.75246H29.7329V25.6666H22.5234L18.2996 29.7427L14.0758 25.6666H6.86628V6.75246Z" fill="#3F0068"/>
<path d="M20.8983 12.5567L12.5996 20.5178V23.4H15.6009L23.8963 15.439L20.8983 12.5567ZM24.5983 9L27.5996 11.8838L25.3153 14.0788L22.3139 11.1965L24.5983 9Z" fill="#3F0068"/>
</svg>




