<svg width="60" height="60" viewBox="0 0 60 60" fill="none" xmlns="http://www.w3.org/2000/svg">
<path d="M30 29.5C31.5125 29.5 32.8077 28.961 33.8857 27.883C34.9619 26.8068 35.5 25.5125 35.5 24C35.5 22.4875 34.9619 21.1922 33.8857 20.1142C32.8077 19.0381 31.5125 18.5 30 18.5C28.4875 18.5 27.1932 19.0381 26.117 20.1142C25.039 21.1922 24.5 22.4875 24.5 24C24.5 25.5125 25.039 26.8068 26.117 27.883C27.1932 28.961 28.4875 29.5 30 29.5ZM30 57C22.6208 50.7208 17.1098 44.8881 13.467 39.5018C9.82233 34.1173 8 29.1333 8 24.55C8 17.675 10.2119 12.1979 14.6357 8.11875C19.0577 4.03958 24.1792 2 30 2C35.8208 2 40.9422 4.03958 45.3642 8.11875C49.7881 12.1979 52 17.675 52 24.55C52 29.1333 50.1786 34.1173 46.5357 39.5018C42.8911 44.8881 37.3792 50.7208 30 57Z" fill="#3F0068"/>
<rect x="14" y="7" width="32" height="32" rx="16" fill="#FAFAFA"/>
</svg>
